solid OpenSCAD_Model
  facet normal 0 0 -1
    outer loop
      vertex 12.9344 -0.623734 -7
      vertex 12.9344 0.623734 -7
      vertex 13 0 -7
    endloop
  endfacet
  facet normal 0 0 -1
    outer loop
      vertex 12.7406 -1.22021 -7
      vertex 12.9344 0.623734 -7
      vertex 12.9344 -0.623734 -7
    endloop
  endfacet
  facet normal 0 0 -1
    outer loop
      vertex 12.7406 -1.22021 -7
      vertex 12.7406 1.22021 -7
      vertex 12.9344 0.623734 -7
    endloop
  endfacet
  facet normal 0 0 -1
    outer loop
      vertex 12.4271 -1.76336 -7
      vertex 12.7406 1.22021 -7
      vertex 12.7406 -1.22021 -7
    endloop
  endfacet
  facet normal 0 0 -1
    outer loop
      vertex 12.4271 -1.76336 -7
      vertex 12.4271 1.76336 -7
      vertex 12.7406 1.22021 -7
    endloop
  endfacet
  facet normal 0 0 -1
    outer loop
      vertex 12.0074 -2.22943 -7
      vertex 12.4271 1.76336 -7
      vertex 12.4271 -1.76336 -7
    endloop
  endfacet
  facet normal 0 0 -1
    outer loop
      vertex 12.0074 -2.22943 -7
      vertex 12.0074 2.22943 -7
      vertex 12.4271 1.76336 -7
    endloop
  endfacet
  facet normal 0 0 -1
    outer loop
      vertex 11.5 -2.59808 -7
      vertex 12.0074 2.22943 -7
      vertex 12.0074 -2.22943 -7
    endloop
  endfacet
  facet normal 0 0 -1
    outer loop
      vertex 11.5 -2.59808 -7
      vertex 11.5 2.59808 -7
      vertex 12.0074 2.22943 -7
    endloop
  endfacet
  facet normal 0 0 -1
    outer loop
      vertex 10.9271 -2.85317 -7
      vertex 11.5 2.59808 -7
      vertex 11.5 -2.59808 -7
    endloop
  endfacet
  facet normal 0 0 -1
    outer loop
      vertex 10.9271 -2.85317 -7
      vertex 10.9271 2.85317 -7
      vertex 11.5 2.59808 -7
    endloop
  endfacet
  facet normal 0 0 -1
    outer loop
      vertex 10.3136 -2.98357 -7
      vertex 10.9271 2.85317 -7
      vertex 10.9271 -2.85317 -7
    endloop
  endfacet
  facet normal 0 0 -1
    outer loop
      vertex 10.3136 -2.98357 -7
      vertex 10.3136 2.98357 -7
      vertex 10.9271 2.85317 -7
    endloop
  endfacet
  facet normal 0 0 -1
    outer loop
      vertex -0.313585 -2.98357 -7
      vertex 10.3136 2.98357 -7
      vertex 10.3136 -2.98357 -7
    endloop
  endfacet
  facet normal 0 0 -1
    outer loop
      vertex -0.313585 -2.98357 -7
      vertex -0.313585 2.98357 -7
      vertex 10.3136 2.98357 -7
    endloop
  endfacet
  facet normal 0 0 -1
    outer loop
      vertex -0.927051 -2.85317 -7
      vertex -0.313585 2.98357 -7
      vertex -0.313585 -2.98357 -7
    endloop
  endfacet
  facet normal 0 0 -1
    outer loop
      vertex -0.927051 -2.85317 -7
      vertex -0.927051 2.85317 -7
      vertex -0.313585 2.98357 -7
    endloop
  endfacet
  facet normal 0 0 -1
    outer loop
      vertex -0.927051 -2.85317 -7
      vertex -1.5 2.59808 -7
      vertex -0.927051 2.85317 -7
    endloop
  endfacet
  facet normal 0 0 -1
    outer loop
      vertex -1.5 -2.59808 -7
      vertex -1.5 2.59808 -7
      vertex -0.927051 -2.85317 -7
    endloop
  endfacet
  facet normal 0 0 -1
    outer loop
      vertex -2.00739 -2.22943 -7
      vertex -1.5 2.59808 -7
      vertex -1.5 -2.59808 -7
    endloop
  endfacet
  facet normal 0 0 -1
    outer loop
      vertex -2.00739 -2.22943 -7
      vertex -2.00739 2.22943 -7
      vertex -1.5 2.59808 -7
    endloop
  endfacet
  facet normal 0 0 -1
    outer loop
      vertex -2.42705 -1.76336 -7
      vertex -2.00739 2.22943 -7
      vertex -2.00739 -2.22943 -7
    endloop
  endfacet
  facet normal 0 0 -1
    outer loop
      vertex -2.42705 -1.76336 -7
      vertex -2.42705 1.76336 -7
      vertex -2.00739 2.22943 -7
    endloop
  endfacet
  facet normal 0 0 -1
    outer loop
      vertex -2.74064 -1.22021 -7
      vertex -2.42705 1.76336 -7
      vertex -2.42705 -1.76336 -7
    endloop
  endfacet
  facet normal 0 0 -1
    outer loop
      vertex -2.74064 -1.22021 -7
      vertex -2.74064 1.22021 -7
      vertex -2.42705 1.76336 -7
    endloop
  endfacet
  facet normal 0 0 -1
    outer loop
      vertex -2.93444 -0.623734 -7
      vertex -2.74064 1.22021 -7
      vertex -2.74064 -1.22021 -7
    endloop
  endfacet
  facet normal 0 0 -1
    outer loop
      vertex -2.93444 -0.623734 -7
      vertex -2.93444 0.623734 -7
      vertex -2.74064 1.22021 -7
    endloop
  endfacet
  facet normal 0 -0 -1
    outer loop
      vertex -2.93444 0.623734 -7
      vertex -2.93444 -0.623734 -7
      vertex -3 0 -7
    endloop
  endfacet
  facet normal -0.994522 0.104529 0
    outer loop
      vertex -3 0 -7
      vertex -2.93444 0.623734 7
      vertex -2.93444 0.623734 -7
    endloop
  endfacet
  facet normal -0.994522 0.104529 0
    outer loop
      vertex -2.93444 0.623734 7
      vertex -3 0 -7
      vertex -3 0 7
    endloop
  endfacet
  facet normal 0 -1 0
    outer loop
      vertex -0.313585 -2.98357 7
      vertex 3 -2.98357 2.5
      vertex 10.3136 -2.98357 7
    endloop
  endfacet
  facet normal 0 -1 0
    outer loop
      vertex -0.313585 -2.98357 -7
      vertex 3 -2.98357 2.5
      vertex -0.313585 -2.98357 7
    endloop
  endfacet
  facet normal 0 -1 -0
    outer loop
      vertex 3 -2.98357 -5.5
      vertex -0.313585 -2.98357 -7
      vertex 7 -2.98357 -5.5
    endloop
  endfacet
  facet normal 0 -1 -0
    outer loop
      vertex 3 -2.98357 2.5
      vertex -0.313585 -2.98357 -7
      vertex 3 -2.98357 -5.5
    endloop
  endfacet
  facet normal 0 -1 0
    outer loop
      vertex 7 -2.98357 2.5
      vertex 10.3136 -2.98357 7
      vertex 3 -2.98357 2.5
    endloop
  endfacet
  facet normal 0 -1 0
    outer loop
      vertex 10.3136 -2.98357 -7
      vertex 7 -2.98357 2.5
      vertex 7 -2.98357 -5.5
    endloop
  endfacet
  facet normal 0 -1 0
    outer loop
      vertex 7 -2.98357 2.5
      vertex 10.3136 -2.98357 -7
      vertex 10.3136 -2.98357 7
    endloop
  endfacet
  facet normal 0 -1 0
    outer loop
      vertex 10.3136 -2.98357 -7
      vertex 7 -2.98357 -5.5
      vertex -0.313585 -2.98357 -7
    endloop
  endfacet
  facet normal 0 0 1
    outer loop
      vertex 12.9344 0.623734 7
      vertex 12.9344 -0.623734 7
      vertex 13 0 7
    endloop
  endfacet
  facet normal 0 0 1
    outer loop
      vertex 12.7406 1.22021 7
      vertex 12.9344 -0.623734 7
      vertex 12.9344 0.623734 7
    endloop
  endfacet
  facet normal 0 0 1
    outer loop
      vertex 12.7406 1.22021 7
      vertex 12.7406 -1.22021 7
      vertex 12.9344 -0.623734 7
    endloop
  endfacet
  facet normal 0 0 1
    outer loop
      vertex 12.4271 1.76336 7
      vertex 12.7406 -1.22021 7
      vertex 12.7406 1.22021 7
    endloop
  endfacet
  facet normal 0 0 1
    outer loop
      vertex 12.4271 1.76336 7
      vertex 12.4271 -1.76336 7
      vertex 12.7406 -1.22021 7
    endloop
  endfacet
  facet normal 0 0 1
    outer loop
      vertex 12.0074 2.22943 7
      vertex 12.4271 -1.76336 7
      vertex 12.4271 1.76336 7
    endloop
  endfacet
  facet normal 0 0 1
    outer loop
      vertex 12.0074 2.22943 7
      vertex 12.0074 -2.22943 7
      vertex 12.4271 -1.76336 7
    endloop
  endfacet
  facet normal 0 0 1
    outer loop
      vertex 11.5 2.59808 7
      vertex 12.0074 -2.22943 7
      vertex 12.0074 2.22943 7
    endloop
  endfacet
  facet normal 0 0 1
    outer loop
      vertex 11.5 2.59808 7
      vertex 11.5 -2.59808 7
      vertex 12.0074 -2.22943 7
    endloop
  endfacet
  facet normal 0 0 1
    outer loop
      vertex 10.9271 2.85317 7
      vertex 11.5 -2.59808 7
      vertex 11.5 2.59808 7
    endloop
  endfacet
  facet normal 0 0 1
    outer loop
      vertex 10.9271 2.85317 7
      vertex 10.9271 -2.85317 7
      vertex 11.5 -2.59808 7
    endloop
  endfacet
  facet normal 0 0 1
    outer loop
      vertex 10.3136 2.98357 7
      vertex 10.9271 -2.85317 7
      vertex 10.9271 2.85317 7
    endloop
  endfacet
  facet normal 0 0 1
    outer loop
      vertex 10.3136 2.98357 7
      vertex 10.3136 -2.98357 7
      vertex 10.9271 -2.85317 7
    endloop
  endfacet
  facet normal -0 0 1
    outer loop
      vertex -0.313585 2.98357 7
      vertex 10.3136 -2.98357 7
      vertex 10.3136 2.98357 7
    endloop
  endfacet
  facet normal 0 0 1
    outer loop
      vertex -0.313585 2.98357 7
      vertex -0.313585 -2.98357 7
      vertex 10.3136 -2.98357 7
    endloop
  endfacet
  facet normal -0 0 1
    outer loop
      vertex -0.927051 2.85317 7
      vertex -0.313585 -2.98357 7
      vertex -0.313585 2.98357 7
    endloop
  endfacet
  facet normal 0 0 1
    outer loop
      vertex -0.927051 2.85317 7
      vertex -0.927051 -2.85317 7
      vertex -0.313585 -2.98357 7
    endloop
  endfacet
  facet normal -0 0 1
    outer loop
      vertex -1.5 2.59808 7
      vertex -0.927051 -2.85317 7
      vertex -0.927051 2.85317 7
    endloop
  endfacet
  facet normal 0 0 1
    outer loop
      vertex -1.5 2.59808 7
      vertex -1.5 -2.59808 7
      vertex -0.927051 -2.85317 7
    endloop
  endfacet
  facet normal -0 0 1
    outer loop
      vertex -2.00739 2.22943 7
      vertex -1.5 -2.59808 7
      vertex -1.5 2.59808 7
    endloop
  endfacet
  facet normal 0 0 1
    outer loop
      vertex -2.00739 2.22943 7
      vertex -2.00739 -2.22943 7
      vertex -1.5 -2.59808 7
    endloop
  endfacet
  facet normal -0 0 1
    outer loop
      vertex -2.42705 1.76336 7
      vertex -2.00739 -2.22943 7
      vertex -2.00739 2.22943 7
    endloop
  endfacet
  facet normal 0 0 1
    outer loop
      vertex -2.42705 1.76336 7
      vertex -2.42705 -1.76336 7
      vertex -2.00739 -2.22943 7
    endloop
  endfacet
  facet normal -0 0 1
    outer loop
      vertex -2.74064 1.22021 7
      vertex -2.42705 -1.76336 7
      vertex -2.42705 1.76336 7
    endloop
  endfacet
  facet normal 0 0 1
    outer loop
      vertex -2.74064 1.22021 7
      vertex -2.74064 -1.22021 7
      vertex -2.42705 -1.76336 7
    endloop
  endfacet
  facet normal -0 0 1
    outer loop
      vertex -2.93444 0.623734 7
      vertex -2.74064 -1.22021 7
      vertex -2.74064 1.22021 7
    endloop
  endfacet
  facet normal 0 0 1
    outer loop
      vertex -2.93444 0.623734 7
      vertex -2.93444 -0.623734 7
      vertex -2.74064 -1.22021 7
    endloop
  endfacet
  facet normal 0 -0 1
    outer loop
      vertex -2.93444 -0.623734 7
      vertex -2.93444 0.623734 7
      vertex -3 0 7
    endloop
  endfacet
  facet normal 0 1 0
    outer loop
      vertex 10.3136 2.98357 7
      vertex 7 2.98357 2.5
      vertex -0.313585 2.98357 7
    endloop
  endfacet
  facet normal 0 1 -0
    outer loop
      vertex 10.3136 2.98357 -7
      vertex 7 2.98357 2.5
      vertex 10.3136 2.98357 7
    endloop
  endfacet
  facet normal 0 1 0
    outer loop
      vertex 7 2.98357 -5.5
      vertex 10.3136 2.98357 -7
      vertex 3 2.98357 -5.5
    endloop
  endfacet
  facet normal 0 1 0
    outer loop
      vertex 7 2.98357 2.5
      vertex 10.3136 2.98357 -7
      vertex 7 2.98357 -5.5
    endloop
  endfacet
  facet normal 0 1 -0
    outer loop
      vertex 3 2.98357 2.5
      vertex -0.313585 2.98357 7
      vertex 7 2.98357 2.5
    endloop
  endfacet
  facet normal 0 1 0
    outer loop
      vertex -0.313585 2.98357 -7
      vertex 3 2.98357 2.5
      vertex 3 2.98357 -5.5
    endloop
  endfacet
  facet normal 0 1 0
    outer loop
      vertex 3 2.98357 2.5
      vertex -0.313585 2.98357 -7
      vertex -0.313585 2.98357 7
    endloop
  endfacet
  facet normal 0 1 0
    outer loop
      vertex -0.313585 2.98357 -7
      vertex 3 2.98357 -5.5
      vertex 10.3136 2.98357 -7
    endloop
  endfacet
  facet normal 0.994522 -0.104529 0
    outer loop
      vertex 12.9344 -0.623734 7
      vertex 13 0 -7
      vertex 13 0 7
    endloop
  endfacet
  facet normal 0.994522 -0.104529 0
    outer loop
      vertex 13 0 -7
      vertex 12.9344 -0.623734 7
      vertex 12.9344 -0.623734 -7
    endloop
  endfacet
  facet normal 0.994522 0.104529 0
    outer loop
      vertex 13 0 7
      vertex 12.9344 0.623734 -7
      vertex 12.9344 0.623734 7
    endloop
  endfacet
  facet normal 0.994522 0.104529 0
    outer loop
      vertex 12.9344 0.623734 -7
      vertex 13 0 7
      vertex 13 0 -7
    endloop
  endfacet
  facet normal -0.587786 -0.809016 0
    outer loop
      vertex -2.00739 -2.22943 -7
      vertex -1.5 -2.59808 7
      vertex -2.00739 -2.22943 7
    endloop
  endfacet
  facet normal -0.587786 -0.809016 -0
    outer loop
      vertex -1.5 -2.59808 7
      vertex -2.00739 -2.22943 -7
      vertex -1.5 -2.59808 -7
    endloop
  endfacet
  facet normal -0.994522 -0.104529 0
    outer loop
      vertex -2.93444 -0.623734 -7
      vertex -3 0 7
      vertex -3 0 -7
    endloop
  endfacet
  facet normal -0.994522 -0.104529 0
    outer loop
      vertex -3 0 7
      vertex -2.93444 -0.623734 -7
      vertex -2.93444 -0.623734 7
    endloop
  endfacet
  facet normal -0.743144 0.669131 0
    outer loop
      vertex -2.42705 1.76336 -7
      vertex -2.00739 2.22943 7
      vertex -2.00739 2.22943 -7
    endloop
  endfacet
  facet normal -0.743144 0.669131 0
    outer loop
      vertex -2.00739 2.22943 7
      vertex -2.42705 1.76336 -7
      vertex -2.42705 1.76336 7
    endloop
  endfacet
  facet normal 0.743144 0.669131 0
    outer loop
      vertex 12.4271 1.76336 7
      vertex 12.0074 2.22943 -7
      vertex 12.0074 2.22943 7
    endloop
  endfacet
  facet normal 0.743144 0.669131 0
    outer loop
      vertex 12.0074 2.22943 -7
      vertex 12.4271 1.76336 7
      vertex 12.4271 1.76336 -7
    endloop
  endfacet
  facet normal 0.587786 -0.809016 0
    outer loop
      vertex 11.5 -2.59808 -7
      vertex 12.0074 -2.22943 7
      vertex 11.5 -2.59808 7
    endloop
  endfacet
  facet normal 0.587786 -0.809016 0
    outer loop
      vertex 12.0074 -2.22943 7
      vertex 11.5 -2.59808 -7
      vertex 12.0074 -2.22943 -7
    endloop
  endfacet
  facet normal 0.207911 -0.978148 0
    outer loop
      vertex 10.3136 -2.98357 -7
      vertex 10.9271 -2.85317 7
      vertex 10.3136 -2.98357 7
    endloop
  endfacet
  facet normal 0.207911 -0.978148 0
    outer loop
      vertex 10.9271 -2.85317 7
      vertex 10.3136 -2.98357 -7
      vertex 10.9271 -2.85317 -7
    endloop
  endfacet
  facet normal 0.951056 0.309017 0
    outer loop
      vertex 12.9344 0.623734 7
      vertex 12.7406 1.22021 -7
      vertex 12.7406 1.22021 7
    endloop
  endfacet
  facet normal 0.951056 0.309017 0
    outer loop
      vertex 12.7406 1.22021 -7
      vertex 12.9344 0.623734 7
      vertex 12.9344 0.623734 -7
    endloop
  endfacet
  facet normal -0.406737 -0.913545 0
    outer loop
      vertex -1.5 -2.59808 -7
      vertex -0.927051 -2.85317 7
      vertex -1.5 -2.59808 7
    endloop
  endfacet
  facet normal -0.406737 -0.913545 -0
    outer loop
      vertex -0.927051 -2.85317 7
      vertex -1.5 -2.59808 -7
      vertex -0.927051 -2.85317 -7
    endloop
  endfacet
  facet normal -0.743144 -0.669131 0
    outer loop
      vertex -2.00739 -2.22943 -7
      vertex -2.42705 -1.76336 7
      vertex -2.42705 -1.76336 -7
    endloop
  endfacet
  facet normal -0.743144 -0.669131 0
    outer loop
      vertex -2.42705 -1.76336 7
      vertex -2.00739 -2.22943 -7
      vertex -2.00739 -2.22943 7
    endloop
  endfacet
  facet normal -0.951056 -0.309017 0
    outer loop
      vertex -2.74064 -1.22021 -7
      vertex -2.93444 -0.623734 7
      vertex -2.93444 -0.623734 -7
    endloop
  endfacet
  facet normal -0.951056 -0.309017 0
    outer loop
      vertex -2.93444 -0.623734 7
      vertex -2.74064 -1.22021 -7
      vertex -2.74064 -1.22021 7
    endloop
  endfacet
  facet normal -0.951056 0.309017 0
    outer loop
      vertex -2.93444 0.623734 -7
      vertex -2.74064 1.22021 7
      vertex -2.74064 1.22021 -7
    endloop
  endfacet
  facet normal -0.951056 0.309017 0
    outer loop
      vertex -2.74064 1.22021 7
      vertex -2.93444 0.623734 -7
      vertex -2.93444 0.623734 7
    endloop
  endfacet
  facet normal -0.866026 0.5 0
    outer loop
      vertex -2.74064 1.22021 -7
      vertex -2.42705 1.76336 7
      vertex -2.42705 1.76336 -7
    endloop
  endfacet
  facet normal -0.866026 0.5 0
    outer loop
      vertex -2.42705 1.76336 7
      vertex -2.74064 1.22021 -7
      vertex -2.74064 1.22021 7
    endloop
  endfacet
  facet normal -0.406737 0.913545 0
    outer loop
      vertex -0.927051 2.85317 -7
      vertex -1.5 2.59808 7
      vertex -0.927051 2.85317 7
    endloop
  endfacet
  facet normal -0.406737 0.913545 0
    outer loop
      vertex -1.5 2.59808 7
      vertex -0.927051 2.85317 -7
      vertex -1.5 2.59808 -7
    endloop
  endfacet
  facet normal -0.207911 0.978148 0
    outer loop
      vertex -0.313585 2.98357 -7
      vertex -0.927051 2.85317 7
      vertex -0.313585 2.98357 7
    endloop
  endfacet
  facet normal -0.207911 0.978148 0
    outer loop
      vertex -0.927051 2.85317 7
      vertex -0.313585 2.98357 -7
      vertex -0.927051 2.85317 -7
    endloop
  endfacet
  facet normal -0.587785 0.809017 0
    outer loop
      vertex -1.5 2.59808 -7
      vertex -2.00739 2.22943 7
      vertex -1.5 2.59808 7
    endloop
  endfacet
  facet normal -0.587785 0.809017 0
    outer loop
      vertex -2.00739 2.22943 7
      vertex -1.5 2.59808 -7
      vertex -2.00739 2.22943 -7
    endloop
  endfacet
  facet normal 0.866026 0.5 0
    outer loop
      vertex 12.7406 1.22021 7
      vertex 12.4271 1.76336 -7
      vertex 12.4271 1.76336 7
    endloop
  endfacet
  facet normal 0.866026 0.5 0
    outer loop
      vertex 12.4271 1.76336 -7
      vertex 12.7406 1.22021 7
      vertex 12.7406 1.22021 -7
    endloop
  endfacet
  facet normal 0.207911 0.978148 -0
    outer loop
      vertex 10.9271 2.85317 -7
      vertex 10.3136 2.98357 7
      vertex 10.9271 2.85317 7
    endloop
  endfacet
  facet normal 0.207911 0.978148 0
    outer loop
      vertex 10.3136 2.98357 7
      vertex 10.9271 2.85317 -7
      vertex 10.3136 2.98357 -7
    endloop
  endfacet
  facet normal 0.743144 -0.669131 0
    outer loop
      vertex 12.0074 -2.22943 7
      vertex 12.4271 -1.76336 -7
      vertex 12.4271 -1.76336 7
    endloop
  endfacet
  facet normal 0.743144 -0.669131 0
    outer loop
      vertex 12.4271 -1.76336 -7
      vertex 12.0074 -2.22943 7
      vertex 12.0074 -2.22943 -7
    endloop
  endfacet
  facet normal 0.406737 -0.913545 0
    outer loop
      vertex 10.9271 -2.85317 -7
      vertex 11.5 -2.59808 7
      vertex 10.9271 -2.85317 7
    endloop
  endfacet
  facet normal 0.406737 -0.913545 0
    outer loop
      vertex 11.5 -2.59808 7
      vertex 10.9271 -2.85317 -7
      vertex 11.5 -2.59808 -7
    endloop
  endfacet
  facet normal -0.207911 -0.978148 0
    outer loop
      vertex -0.927051 -2.85317 -7
      vertex -0.313585 -2.98357 7
      vertex -0.927051 -2.85317 7
    endloop
  endfacet
  facet normal -0.207911 -0.978148 -0
    outer loop
      vertex -0.313585 -2.98357 7
      vertex -0.927051 -2.85317 -7
      vertex -0.313585 -2.98357 -7
    endloop
  endfacet
  facet normal -0.866026 -0.5 0
    outer loop
      vertex -2.42705 -1.76336 -7
      vertex -2.74064 -1.22021 7
      vertex -2.74064 -1.22021 -7
    endloop
  endfacet
  facet normal -0.866026 -0.5 0
    outer loop
      vertex -2.74064 -1.22021 7
      vertex -2.42705 -1.76336 -7
      vertex -2.42705 -1.76336 7
    endloop
  endfacet
  facet normal 0.951056 -0.309017 0
    outer loop
      vertex 12.7406 -1.22021 7
      vertex 12.9344 -0.623734 -7
      vertex 12.9344 -0.623734 7
    endloop
  endfacet
  facet normal 0.951056 -0.309017 0
    outer loop
      vertex 12.9344 -0.623734 -7
      vertex 12.7406 -1.22021 7
      vertex 12.7406 -1.22021 -7
    endloop
  endfacet
  facet normal 0.866026 -0.5 0
    outer loop
      vertex 12.4271 -1.76336 7
      vertex 12.7406 -1.22021 -7
      vertex 12.7406 -1.22021 7
    endloop
  endfacet
  facet normal 0.866026 -0.5 0
    outer loop
      vertex 12.7406 -1.22021 -7
      vertex 12.4271 -1.76336 7
      vertex 12.4271 -1.76336 -7
    endloop
  endfacet
  facet normal 0.587786 0.809016 -0
    outer loop
      vertex 12.0074 2.22943 -7
      vertex 11.5 2.59808 7
      vertex 12.0074 2.22943 7
    endloop
  endfacet
  facet normal 0.587786 0.809016 0
    outer loop
      vertex 11.5 2.59808 7
      vertex 12.0074 2.22943 -7
      vertex 11.5 2.59808 -7
    endloop
  endfacet
  facet normal 0.406737 0.913545 -0
    outer loop
      vertex 11.5 2.59808 -7
      vertex 10.9271 2.85317 7
      vertex 11.5 2.59808 7
    endloop
  endfacet
  facet normal 0.406737 0.913545 0
    outer loop
      vertex 10.9271 2.85317 7
      vertex 11.5 2.59808 -7
      vertex 10.9271 2.85317 -7
    endloop
  endfacet
  facet normal 1 -0 0
    outer loop
      vertex 3 -2.98357 2.5
      vertex 3 2.98357 -5.5
      vertex 3 2.98357 2.5
    endloop
  endfacet
  facet normal 1 0 0
    outer loop
      vertex 3 2.98357 -5.5
      vertex 3 -2.98357 2.5
      vertex 3 -2.98357 -5.5
    endloop
  endfacet
  facet normal -1 0 0
    outer loop
      vertex 7 -2.98357 -5.5
      vertex 7 2.98357 2.5
      vertex 7 2.98357 -5.5
    endloop
  endfacet
  facet normal -1 -0 0
    outer loop
      vertex 7 2.98357 2.5
      vertex 7 -2.98357 -5.5
      vertex 7 -2.98357 2.5
    endloop
  endfacet
  facet normal 0 0 -1
    outer loop
      vertex 3 -2.98357 2.5
      vertex 7 2.98357 2.5
      vertex 7 -2.98357 2.5
    endloop
  endfacet
  facet normal -0 0 -1
    outer loop
      vertex 7 2.98357 2.5
      vertex 3 -2.98357 2.5
      vertex 3 2.98357 2.5
    endloop
  endfacet
  facet normal -0 0 1
    outer loop
      vertex 3 2.98357 -5.5
      vertex 7 -2.98357 -5.5
      vertex 7 2.98357 -5.5
    endloop
  endfacet
  facet normal 0 0 1
    outer loop
      vertex 7 -2.98357 -5.5
      vertex 3 2.98357 -5.5
      vertex 3 -2.98357 -5.5
    endloop
  endfacet
endsolid OpenSCAD_Model
