solid OpenSCAD_Model
  facet normal 0 0 -1
    outer loop
      vertex 35.5037 -1.11472 -5
      vertex 38 -2 -5
      vertex 37.9563 -2.41582 -5
    endloop
  endfacet
  facet normal 0 0 -1
    outer loop
      vertex 38 -2 -5
      vertex 36 0 -5
      vertex 38 2 -5
    endloop
  endfacet
  facet normal 0 0 -1
    outer loop
      vertex 35.5037 -1.11472 -5
      vertex 37.9563 -2.41582 -5
      vertex 37.8271 -2.81347 -5
    endloop
  endfacet
  facet normal 0 0 -1
    outer loop
      vertex 35.9672 0.311867 -5
      vertex 38 2 -5
      vertex 36 0 -5
    endloop
  endfacet
  facet normal 0 0 -1
    outer loop
      vertex 35.5037 -1.11472 -5
      vertex 37.8271 -2.81347 -5
      vertex 37.618 -3.17557 -5
    endloop
  endfacet
  facet normal 0 0 -1
    outer loop
      vertex 35.8703 0.610105 -5
      vertex 38 2 -5
      vertex 35.9672 0.311867 -5
    endloop
  endfacet
  facet normal 0 0 -1
    outer loop
      vertex 35.5037 -1.11472 -5
      vertex 37.618 -3.17557 -5
      vertex 37.3383 -3.48629 -5
    endloop
  endfacet
  facet normal 0 0 -1
    outer loop
      vertex 35.7135 0.881678 -5
      vertex 38 2 -5
      vertex 35.8703 0.610105 -5
    endloop
  endfacet
  facet normal 0 0 -1
    outer loop
      vertex 35.5037 -1.11472 -5
      vertex 37.3383 -3.48629 -5
      vertex 37 -3.73205 -5
    endloop
  endfacet
  facet normal 0 0 -1
    outer loop
      vertex 35.5037 1.11472 -5
      vertex 38 2 -5
      vertex 35.7135 0.881678 -5
    endloop
  endfacet
  facet normal 0 0 -1
    outer loop
      vertex 35.25 -1.29904 -5
      vertex 37 -3.73205 -5
      vertex 36.618 -3.90211 -5
    endloop
  endfacet
  facet normal -0 0 -1
    outer loop
      vertex 38 2 -5
      vertex 35.5037 1.11472 -5
      vertex 37.9563 2.41582 -5
    endloop
  endfacet
  facet normal 0 0 -1
    outer loop
      vertex 35.25 -1.29904 -5
      vertex 36.618 -3.90211 -5
      vertex 36.2091 -3.98904 -5
    endloop
  endfacet
  facet normal -0 0 -1
    outer loop
      vertex 37.9563 2.41582 -5
      vertex 35.5037 1.11472 -5
      vertex 37.8271 2.81347 -5
    endloop
  endfacet
  facet normal -0 0 -1
    outer loop
      vertex 37.8271 2.81347 -5
      vertex 35.5037 1.11472 -5
      vertex 37.618 3.17557 -5
    endloop
  endfacet
  facet normal 0 0 -1
    outer loop
      vertex 38 -2 -5
      vertex 35.9672 -0.311867 -5
      vertex 36 0 -5
    endloop
  endfacet
  facet normal 0 0 -1
    outer loop
      vertex 38 -2 -5
      vertex 35.8703 -0.610105 -5
      vertex 35.9672 -0.311867 -5
    endloop
  endfacet
  facet normal 0 0 -1
    outer loop
      vertex 38 -2 -5
      vertex 35.7135 -0.881678 -5
      vertex 35.8703 -0.610105 -5
    endloop
  endfacet
  facet normal 0 0 -1
    outer loop
      vertex 38 -2 -5
      vertex 35.5037 -1.11472 -5
      vertex 35.7135 -0.881678 -5
    endloop
  endfacet
  facet normal 0 0 -1
    outer loop
      vertex 37 -3.73205 -5
      vertex 35.25 -1.29904 -5
      vertex 35.5037 -1.11472 -5
    endloop
  endfacet
  facet normal 0 0 -1
    outer loop
      vertex 36.2091 -3.98904 -5
      vertex 34.9635 -1.42658 -5
      vertex 35.25 -1.29904 -5
    endloop
  endfacet
  facet normal 0 0 -1
    outer loop
      vertex 36.2091 -3.98904 -5
      vertex 34.6568 -1.49178 -5
      vertex 34.9635 -1.42658 -5
    endloop
  endfacet
  facet normal 0 0 -1
    outer loop
      vertex 36.2091 -3.98904 -5
      vertex 34.3432 -1.49178 -5
      vertex 34.6568 -1.49178 -5
    endloop
  endfacet
  facet normal 0 0 -1
    outer loop
      vertex 36.2091 -3.98904 -5
      vertex 34.0365 -1.42658 -5
      vertex 34.3432 -1.49178 -5
    endloop
  endfacet
  facet normal 0 0 -1
    outer loop
      vertex 36.2091 -3.98904 -5
      vertex 33.75 -1.29904 -5
      vertex 34.0365 -1.42658 -5
    endloop
  endfacet
  facet normal 0 0 -1
    outer loop
      vertex 26.25 -1.29904 -5
      vertex 33.75 -1.29904 -5
      vertex 36.2091 -3.98904 -5
    endloop
  endfacet
  facet normal 0 0 -1
    outer loop
      vertex 33.0328 -0.311867 -5
      vertex 27 0 -5
      vertex 33 0 -5
    endloop
  endfacet
  facet normal 0 0 -1
    outer loop
      vertex 26.9672 -0.311867 -5
      vertex 33.0328 -0.311867 -5
      vertex 33.1297 -0.610105 -5
    endloop
  endfacet
  facet normal 0 0 -1
    outer loop
      vertex 26.8703 -0.610105 -5
      vertex 33.1297 -0.610105 -5
      vertex 33.2865 -0.881678 -5
    endloop
  endfacet
  facet normal 0 0 -1
    outer loop
      vertex 26.7135 -0.881678 -5
      vertex 33.2865 -0.881678 -5
      vertex 33.4963 -1.11472 -5
    endloop
  endfacet
  facet normal 0 0 -1
    outer loop
      vertex 33.75 -1.29904 -5
      vertex 26.25 -1.29904 -5
      vertex 33.4963 -1.11472 -5
    endloop
  endfacet
  facet normal 0 0 -1
    outer loop
      vertex 33.0328 -0.311867 -5
      vertex 26.9672 -0.311867 -5
      vertex 27 0 -5
    endloop
  endfacet
  facet normal 0 0 -1
    outer loop
      vertex 33.1297 -0.610105 -5
      vertex 26.8703 -0.610105 -5
      vertex 26.9672 -0.311867 -5
    endloop
  endfacet
  facet normal 0 0 -1
    outer loop
      vertex 33.2865 -0.881678 -5
      vertex 26.7135 -0.881678 -5
      vertex 26.8703 -0.610105 -5
    endloop
  endfacet
  facet normal 0 0 -1
    outer loop
      vertex 33.4963 -1.11472 -5
      vertex 26.5037 -1.11472 -5
      vertex 26.7135 -0.881678 -5
    endloop
  endfacet
  facet normal -0 0 -1
    outer loop
      vertex 33.4963 -1.11472 -5
      vertex 26.25 -1.29904 -5
      vertex 26.5037 -1.11472 -5
    endloop
  endfacet
  facet normal 0 0 -1
    outer loop
      vertex 36.2091 -3.98904 -5
      vertex 25.9635 -1.42658 -5
      vertex 26.25 -1.29904 -5
    endloop
  endfacet
  facet normal 0 0 -1
    outer loop
      vertex 36.2091 -3.98904 -5
      vertex 25.6568 -1.49178 -5
      vertex 25.9635 -1.42658 -5
    endloop
  endfacet
  facet normal 0 0 -1
    outer loop
      vertex 36.2091 -3.98904 -5
      vertex 25.3432 -1.49178 -5
      vertex 25.6568 -1.49178 -5
    endloop
  endfacet
  facet normal 0 0 -1
    outer loop
      vertex 16.6568 -1.49178 -5
      vertex 25.3432 -1.49178 -5
      vertex 36.2091 -3.98904 -5
    endloop
  endfacet
  facet normal 0 0 -1
    outer loop
      vertex 24.0328 -0.311867 -5
      vertex 18 0 -5
      vertex 24 0 -5
    endloop
  endfacet
  facet normal 0 0 -1
    outer loop
      vertex 17.9672 -0.311867 -5
      vertex 24.0328 -0.311867 -5
      vertex 24.1297 -0.610105 -5
    endloop
  endfacet
  facet normal 0 0 -1
    outer loop
      vertex 17.8703 -0.610105 -5
      vertex 24.1297 -0.610105 -5
      vertex 24.2865 -0.881678 -5
    endloop
  endfacet
  facet normal 0 0 -1
    outer loop
      vertex 17.7135 -0.881678 -5
      vertex 24.2865 -0.881678 -5
      vertex 24.4963 -1.11472 -5
    endloop
  endfacet
  facet normal 0 0 -1
    outer loop
      vertex 17.5037 -1.11472 -5
      vertex 24.4963 -1.11472 -5
      vertex 24.75 -1.29904 -5
    endloop
  endfacet
  facet normal 0 0 -1
    outer loop
      vertex 17.25 -1.29904 -5
      vertex 24.75 -1.29904 -5
      vertex 25.0365 -1.42658 -5
    endloop
  endfacet
  facet normal 0 0 -1
    outer loop
      vertex 25.3432 -1.49178 -5
      vertex 16.6568 -1.49178 -5
      vertex 25.0365 -1.42658 -5
    endloop
  endfacet
  facet normal 0 0 -1
    outer loop
      vertex 24.0328 -0.311867 -5
      vertex 17.9672 -0.311867 -5
      vertex 18 0 -5
    endloop
  endfacet
  facet normal 0 0 -1
    outer loop
      vertex 24.1297 -0.610105 -5
      vertex 17.8703 -0.610105 -5
      vertex 17.9672 -0.311867 -5
    endloop
  endfacet
  facet normal 0 0 -1
    outer loop
      vertex 24.2865 -0.881678 -5
      vertex 17.7135 -0.881678 -5
      vertex 17.8703 -0.610105 -5
    endloop
  endfacet
  facet normal 0 0 -1
    outer loop
      vertex 24.4963 -1.11472 -5
      vertex 17.5037 -1.11472 -5
      vertex 17.7135 -0.881678 -5
    endloop
  endfacet
  facet normal 0 0 -1
    outer loop
      vertex 24.75 -1.29904 -5
      vertex 17.25 -1.29904 -5
      vertex 17.5037 -1.11472 -5
    endloop
  endfacet
  facet normal 0 0 -1
    outer loop
      vertex 25.0365 -1.42658 -5
      vertex 16.9635 -1.42658 -5
      vertex 17.25 -1.29904 -5
    endloop
  endfacet
  facet normal -0 0 -1
    outer loop
      vertex 25.0365 -1.42658 -5
      vertex 16.6568 -1.49178 -5
      vertex 16.9635 -1.42658 -5
    endloop
  endfacet
  facet normal 0 0 -1
    outer loop
      vertex -0.209057 -3.98904 -5
      vertex 16.6568 -1.49178 -5
      vertex 36.2091 -3.98904 -5
    endloop
  endfacet
  facet normal 0 0 -1
    outer loop
      vertex 15.0328 -0.311867 -5
      vertex 9 0 -5
      vertex 15 0 -5
    endloop
  endfacet
  facet normal 0 0 -1
    outer loop
      vertex 8.96722 -0.311867 -5
      vertex 15.0328 -0.311867 -5
      vertex 15.1297 -0.610105 -5
    endloop
  endfacet
  facet normal 0 0 -1
    outer loop
      vertex 8.87032 -0.610105 -5
      vertex 15.1297 -0.610105 -5
      vertex 15.2865 -0.881678 -5
    endloop
  endfacet
  facet normal 0 0 -1
    outer loop
      vertex 8.71352 -0.881678 -5
      vertex 15.2865 -0.881678 -5
      vertex 15.4963 -1.11472 -5
    endloop
  endfacet
  facet normal 0 0 -1
    outer loop
      vertex 8.5037 -1.11472 -5
      vertex 15.4963 -1.11472 -5
      vertex 15.75 -1.29904 -5
    endloop
  endfacet
  facet normal 0 0 -1
    outer loop
      vertex 8.25 -1.29904 -5
      vertex 15.75 -1.29904 -5
      vertex 16.0365 -1.42658 -5
    endloop
  endfacet
  facet normal 0 0 -1
    outer loop
      vertex 7.96352 -1.42658 -5
      vertex 16.0365 -1.42658 -5
      vertex 16.3432 -1.49178 -5
    endloop
  endfacet
  facet normal 0 0 -1
    outer loop
      vertex 15.0328 -0.311867 -5
      vertex 8.96722 -0.311867 -5
      vertex 9 0 -5
    endloop
  endfacet
  facet normal 0 0 -1
    outer loop
      vertex 15.1297 -0.610105 -5
      vertex 8.87032 -0.610105 -5
      vertex 8.96722 -0.311867 -5
    endloop
  endfacet
  facet normal -0 0 -1
    outer loop
      vertex 16.6568 -1.49178 -5
      vertex -0.209057 -3.98904 -5
      vertex 16.3432 -1.49178 -5
    endloop
  endfacet
  facet normal 0 0 -1
    outer loop
      vertex 15.2865 -0.881678 -5
      vertex 8.71352 -0.881678 -5
      vertex 8.87032 -0.610105 -5
    endloop
  endfacet
  facet normal 0 0 -1
    outer loop
      vertex 15.4963 -1.11472 -5
      vertex 8.5037 -1.11472 -5
      vertex 8.71352 -0.881678 -5
    endloop
  endfacet
  facet normal 0 0 -1
    outer loop
      vertex 15.75 -1.29904 -5
      vertex 8.25 -1.29904 -5
      vertex 8.5037 -1.11472 -5
    endloop
  endfacet
  facet normal 0 0 -1
    outer loop
      vertex 16.0365 -1.42658 -5
      vertex 7.96352 -1.42658 -5
      vertex 8.25 -1.29904 -5
    endloop
  endfacet
  facet normal 0 0 -1
    outer loop
      vertex 16.3432 -1.49178 -5
      vertex 7.65679 -1.49178 -5
      vertex 7.96352 -1.42658 -5
    endloop
  endfacet
  facet normal -0 0 -1
    outer loop
      vertex 16.3432 -1.49178 -5
      vertex -0.209057 -3.98904 -5
      vertex 7.65679 -1.49178 -5
    endloop
  endfacet
  facet normal -0 0 -1
    outer loop
      vertex 6.03278 -0.311867 -5
      vertex -0.209057 -3.98904 -5
      vertex 6 0 -5
    endloop
  endfacet
  facet normal -0 0 -1
    outer loop
      vertex 6.12968 -0.610105 -5
      vertex -0.209057 -3.98904 -5
      vertex 6.03278 -0.311867 -5
    endloop
  endfacet
  facet normal -0 0 -1
    outer loop
      vertex 6.28647 -0.881678 -5
      vertex -0.209057 -3.98904 -5
      vertex 6.12968 -0.610105 -5
    endloop
  endfacet
  facet normal -0 0 -1
    outer loop
      vertex 6.4963 -1.11472 -5
      vertex -0.209057 -3.98904 -5
      vertex 6.28647 -0.881678 -5
    endloop
  endfacet
  facet normal -0 0 -1
    outer loop
      vertex 6.75 -1.29904 -5
      vertex -0.209057 -3.98904 -5
      vertex 6.4963 -1.11472 -5
    endloop
  endfacet
  facet normal -0 0 -1
    outer loop
      vertex 7.03647 -1.42658 -5
      vertex -0.209057 -3.98904 -5
      vertex 6.75 -1.29904 -5
    endloop
  endfacet
  facet normal -0 0 -1
    outer loop
      vertex 7.34321 -1.49178 -5
      vertex -0.209057 -3.98904 -5
      vertex 7.03647 -1.42658 -5
    endloop
  endfacet
  facet normal -0 0 -1
    outer loop
      vertex 7.65679 -1.49178 -5
      vertex -0.209057 -3.98904 -5
      vertex 7.34321 -1.49178 -5
    endloop
  endfacet
  facet normal -0 0 -1
    outer loop
      vertex 37.618 3.17557 -5
      vertex 35.5037 1.11472 -5
      vertex 37.3383 3.48629 -5
    endloop
  endfacet
  facet normal -0 0 -1
    outer loop
      vertex 37.3383 3.48629 -5
      vertex 35.5037 1.11472 -5
      vertex 37 3.73205 -5
    endloop
  endfacet
  facet normal 0 0 -1
    outer loop
      vertex 35.25 1.29904 -5
      vertex 37 3.73205 -5
      vertex 35.5037 1.11472 -5
    endloop
  endfacet
  facet normal -0 0 -1
    outer loop
      vertex 37 3.73205 -5
      vertex 35.25 1.29904 -5
      vertex 36.618 3.90211 -5
    endloop
  endfacet
  facet normal -0 0 -1
    outer loop
      vertex 36.618 3.90211 -5
      vertex 35.25 1.29904 -5
      vertex 36.2091 3.98904 -5
    endloop
  endfacet
  facet normal 0 0 -1
    outer loop
      vertex 34.9635 1.42658 -5
      vertex 36.2091 3.98904 -5
      vertex 35.25 1.29904 -5
    endloop
  endfacet
  facet normal 0 0 -1
    outer loop
      vertex 34.6568 1.49178 -5
      vertex 36.2091 3.98904 -5
      vertex 34.9635 1.42658 -5
    endloop
  endfacet
  facet normal 0 0 -1
    outer loop
      vertex 34.3432 1.49178 -5
      vertex 36.2091 3.98904 -5
      vertex 34.6568 1.49178 -5
    endloop
  endfacet
  facet normal 0 0 -1
    outer loop
      vertex 34.0365 1.42658 -5
      vertex 36.2091 3.98904 -5
      vertex 34.3432 1.49178 -5
    endloop
  endfacet
  facet normal 0 0 -1
    outer loop
      vertex 33.75 1.29904 -5
      vertex 36.2091 3.98904 -5
      vertex 34.0365 1.42658 -5
    endloop
  endfacet
  facet normal 0 0 -1
    outer loop
      vertex 26.25 1.29904 -5
      vertex 33.75 1.29904 -5
      vertex 33.4963 1.11472 -5
    endloop
  endfacet
  facet normal 0 0 -1
    outer loop
      vertex 27 0 -5
      vertex 33.0328 0.311867 -5
      vertex 33 0 -5
    endloop
  endfacet
  facet normal 0 0 -1
    outer loop
      vertex 26.9672 0.311867 -5
      vertex 33.0328 0.311867 -5
      vertex 27 0 -5
    endloop
  endfacet
  facet normal 0 0 -1
    outer loop
      vertex 33.0328 0.311867 -5
      vertex 26.9672 0.311867 -5
      vertex 33.1297 0.610105 -5
    endloop
  endfacet
  facet normal 0 0 -1
    outer loop
      vertex 26.8703 0.610105 -5
      vertex 33.1297 0.610105 -5
      vertex 26.9672 0.311867 -5
    endloop
  endfacet
  facet normal 0 0 -1
    outer loop
      vertex 33.1297 0.610105 -5
      vertex 26.8703 0.610105 -5
      vertex 33.2865 0.881678 -5
    endloop
  endfacet
  facet normal 0 0 -1
    outer loop
      vertex 26.7135 0.881678 -5
      vertex 33.2865 0.881678 -5
      vertex 26.8703 0.610105 -5
    endloop
  endfacet
  facet normal 0 0 -1
    outer loop
      vertex 33.2865 0.881678 -5
      vertex 26.7135 0.881678 -5
      vertex 33.4963 1.11472 -5
    endloop
  endfacet
  facet normal 0 0 -1
    outer loop
      vertex 26.5037 1.11472 -5
      vertex 33.4963 1.11472 -5
      vertex 26.7135 0.881678 -5
    endloop
  endfacet
  facet normal 0 0 -1
    outer loop
      vertex 26.25 1.29904 -5
      vertex 33.4963 1.11472 -5
      vertex 26.5037 1.11472 -5
    endloop
  endfacet
  facet normal 0 0 -1
    outer loop
      vertex 33.75 1.29904 -5
      vertex 26.25 1.29904 -5
      vertex 36.2091 3.98904 -5
    endloop
  endfacet
  facet normal 0 0 -1
    outer loop
      vertex 25.9635 1.42658 -5
      vertex 36.2091 3.98904 -5
      vertex 26.25 1.29904 -5
    endloop
  endfacet
  facet normal 0 0 -1
    outer loop
      vertex 25.6568 1.49178 -5
      vertex 36.2091 3.98904 -5
      vertex 25.9635 1.42658 -5
    endloop
  endfacet
  facet normal 0 0 -1
    outer loop
      vertex 25.3432 1.49178 -5
      vertex 36.2091 3.98904 -5
      vertex 25.6568 1.49178 -5
    endloop
  endfacet
  facet normal 0 0 -1
    outer loop
      vertex 16.6568 1.49178 -5
      vertex 25.3432 1.49178 -5
      vertex 25.0365 1.42658 -5
    endloop
  endfacet
  facet normal 0 0 -1
    outer loop
      vertex 18 0 -5
      vertex 24.0328 0.311867 -5
      vertex 24 0 -5
    endloop
  endfacet
  facet normal 0 0 -1
    outer loop
      vertex 17.9672 0.311867 -5
      vertex 24.0328 0.311867 -5
      vertex 18 0 -5
    endloop
  endfacet
  facet normal 0 0 -1
    outer loop
      vertex 24.0328 0.311867 -5
      vertex 17.9672 0.311867 -5
      vertex 24.1297 0.610105 -5
    endloop
  endfacet
  facet normal 0 0 -1
    outer loop
      vertex 17.8703 0.610105 -5
      vertex 24.1297 0.610105 -5
      vertex 17.9672 0.311867 -5
    endloop
  endfacet
  facet normal 0 0 -1
    outer loop
      vertex 24.1297 0.610105 -5
      vertex 17.8703 0.610105 -5
      vertex 24.2865 0.881678 -5
    endloop
  endfacet
  facet normal 0 0 -1
    outer loop
      vertex 17.7135 0.881678 -5
      vertex 24.2865 0.881678 -5
      vertex 17.8703 0.610105 -5
    endloop
  endfacet
  facet normal 0 0 -1
    outer loop
      vertex 24.2865 0.881678 -5
      vertex 17.7135 0.881678 -5
      vertex 24.4963 1.11472 -5
    endloop
  endfacet
  facet normal 0 0 -1
    outer loop
      vertex 17.5037 1.11472 -5
      vertex 24.4963 1.11472 -5
      vertex 17.7135 0.881678 -5
    endloop
  endfacet
  facet normal 0 0 -1
    outer loop
      vertex 24.4963 1.11472 -5
      vertex 17.5037 1.11472 -5
      vertex 24.75 1.29904 -5
    endloop
  endfacet
  facet normal 0 0 -1
    outer loop
      vertex 17.25 1.29904 -5
      vertex 24.75 1.29904 -5
      vertex 17.5037 1.11472 -5
    endloop
  endfacet
  facet normal 0 0 -1
    outer loop
      vertex 24.75 1.29904 -5
      vertex 17.25 1.29904 -5
      vertex 25.0365 1.42658 -5
    endloop
  endfacet
  facet normal 0 0 -1
    outer loop
      vertex 16.9635 1.42658 -5
      vertex 25.0365 1.42658 -5
      vertex 17.25 1.29904 -5
    endloop
  endfacet
  facet normal 0 0 -1
    outer loop
      vertex 16.6568 1.49178 -5
      vertex 25.0365 1.42658 -5
      vertex 16.9635 1.42658 -5
    endloop
  endfacet
  facet normal 0 0 -1
    outer loop
      vertex 25.3432 1.49178 -5
      vertex 16.6568 1.49178 -5
      vertex 36.2091 3.98904 -5
    endloop
  endfacet
  facet normal 0 0 -1
    outer loop
      vertex -0.209057 3.98904 -5
      vertex 16.6568 1.49178 -5
      vertex 16.3432 1.49178 -5
    endloop
  endfacet
  facet normal 0 0 -1
    outer loop
      vertex 9 0 -5
      vertex 15.0328 0.311867 -5
      vertex 15 0 -5
    endloop
  endfacet
  facet normal 0 0 -1
    outer loop
      vertex 8.96722 0.311867 -5
      vertex 15.0328 0.311867 -5
      vertex 9 0 -5
    endloop
  endfacet
  facet normal 0 0 -1
    outer loop
      vertex 15.0328 0.311867 -5
      vertex 8.96722 0.311867 -5
      vertex 15.1297 0.610105 -5
    endloop
  endfacet
  facet normal 0 0 -1
    outer loop
      vertex 8.87032 0.610105 -5
      vertex 15.1297 0.610105 -5
      vertex 8.96722 0.311867 -5
    endloop
  endfacet
  facet normal 0 0 -1
    outer loop
      vertex 15.1297 0.610105 -5
      vertex 8.87032 0.610105 -5
      vertex 15.2865 0.881678 -5
    endloop
  endfacet
  facet normal 0 0 -1
    outer loop
      vertex 8.71352 0.881678 -5
      vertex 15.2865 0.881678 -5
      vertex 8.87032 0.610105 -5
    endloop
  endfacet
  facet normal 0 0 -1
    outer loop
      vertex 15.2865 0.881678 -5
      vertex 8.71352 0.881678 -5
      vertex 15.4963 1.11472 -5
    endloop
  endfacet
  facet normal 0 0 -1
    outer loop
      vertex 8.5037 1.11472 -5
      vertex 15.4963 1.11472 -5
      vertex 8.71352 0.881678 -5
    endloop
  endfacet
  facet normal 0 0 -1
    outer loop
      vertex 15.4963 1.11472 -5
      vertex 8.5037 1.11472 -5
      vertex 15.75 1.29904 -5
    endloop
  endfacet
  facet normal 0 0 -1
    outer loop
      vertex 8.25 1.29904 -5
      vertex 15.75 1.29904 -5
      vertex 8.5037 1.11472 -5
    endloop
  endfacet
  facet normal 0 0 -1
    outer loop
      vertex 15.75 1.29904 -5
      vertex 8.25 1.29904 -5
      vertex 16.0365 1.42658 -5
    endloop
  endfacet
  facet normal 0 0 -1
    outer loop
      vertex 7.96352 1.42658 -5
      vertex 16.0365 1.42658 -5
      vertex 8.25 1.29904 -5
    endloop
  endfacet
  facet normal 0 0 -1
    outer loop
      vertex 16.0365 1.42658 -5
      vertex 7.96352 1.42658 -5
      vertex 16.3432 1.49178 -5
    endloop
  endfacet
  facet normal 0 0 -1
    outer loop
      vertex 7.65679 1.49178 -5
      vertex 16.3432 1.49178 -5
      vertex 7.96352 1.42658 -5
    endloop
  endfacet
  facet normal 0 0 -1
    outer loop
      vertex -0.209057 3.98904 -5
      vertex 16.3432 1.49178 -5
      vertex 7.65679 1.49178 -5
    endloop
  endfacet
  facet normal 0 0 -1
    outer loop
      vertex -0.209057 3.98904 -5
      vertex 7.65679 1.49178 -5
      vertex 7.34321 1.49178 -5
    endloop
  endfacet
  facet normal 0 0 -1
    outer loop
      vertex -2 -2 -5
      vertex 6 0 -5
      vertex -0.209057 -3.98904 -5
    endloop
  endfacet
  facet normal 0 0 -1
    outer loop
      vertex -2 2 -5
      vertex 6 0 -5
      vertex -2 -2 -5
    endloop
  endfacet
  facet normal 0 -0 -1
    outer loop
      vertex -0.209057 3.98904 -5
      vertex 6 0 -5
      vertex -2 2 -5
    endloop
  endfacet
  facet normal 0 0 -1
    outer loop
      vertex 6 0 -5
      vertex -0.209057 3.98904 -5
      vertex 6.03278 0.311867 -5
    endloop
  endfacet
  facet normal 0 0 -1
    outer loop
      vertex 16.6568 1.49178 -5
      vertex -0.209057 3.98904 -5
      vertex 36.2091 3.98904 -5
    endloop
  endfacet
  facet normal 0 0 -1
    outer loop
      vertex 7.03647 1.42658 -5
      vertex -0.209057 3.98904 -5
      vertex 7.34321 1.49178 -5
    endloop
  endfacet
  facet normal 0 0 -1
    outer loop
      vertex 6.75 1.29904 -5
      vertex -0.209057 3.98904 -5
      vertex 7.03647 1.42658 -5
    endloop
  endfacet
  facet normal 0 0 -1
    outer loop
      vertex 6.4963 1.11472 -5
      vertex -0.209057 3.98904 -5
      vertex 6.75 1.29904 -5
    endloop
  endfacet
  facet normal 0 0 -1
    outer loop
      vertex 6.03278 0.311867 -5
      vertex -0.209057 3.98904 -5
      vertex 6.12968 0.610105 -5
    endloop
  endfacet
  facet normal 0 0 -1
    outer loop
      vertex -2 -2 -5
      vertex -0.209057 -3.98904 -5
      vertex -0.618033 -3.90211 -5
    endloop
  endfacet
  facet normal 0 0 -1
    outer loop
      vertex 6.12968 0.610105 -5
      vertex -0.209057 3.98904 -5
      vertex 6.28647 0.881678 -5
    endloop
  endfacet
  facet normal 0 0 -1
    outer loop
      vertex -0.209057 3.98904 -5
      vertex -2 2 -5
      vertex -0.618033 3.90211 -5
    endloop
  endfacet
  facet normal 0 0 -1
    outer loop
      vertex -2 -2 -5
      vertex -0.618033 -3.90211 -5
      vertex -1 -3.73205 -5
    endloop
  endfacet
  facet normal 0 0 -1
    outer loop
      vertex -2 -2 -5
      vertex -1 -3.73205 -5
      vertex -1.33826 -3.48629 -5
    endloop
  endfacet
  facet normal 0 0 -1
    outer loop
      vertex 6.28647 0.881678 -5
      vertex -0.209057 3.98904 -5
      vertex 6.4963 1.11472 -5
    endloop
  endfacet
  facet normal 0 0 -1
    outer loop
      vertex -2 -2 -5
      vertex -1.33826 -3.48629 -5
      vertex -1.61803 -3.17557 -5
    endloop
  endfacet
  facet normal 0 0 -1
    outer loop
      vertex -0.618033 3.90211 -5
      vertex -2 2 -5
      vertex -0.999999 3.73205 -5
    endloop
  endfacet
  facet normal 0 0 -1
    outer loop
      vertex -2 -2 -5
      vertex -1.61803 -3.17557 -5
      vertex -1.82709 -2.81347 -5
    endloop
  endfacet
  facet normal 0 0 -1
    outer loop
      vertex -0.999999 3.73205 -5
      vertex -2 2 -5
      vertex -1.33826 3.48629 -5
    endloop
  endfacet
  facet normal 0 0 -1
    outer loop
      vertex -2 -2 -5
      vertex -1.82709 -2.81347 -5
      vertex -1.9563 -2.41582 -5
    endloop
  endfacet
  facet normal 0 0 -1
    outer loop
      vertex -1.33826 3.48629 -5
      vertex -2 2 -5
      vertex -1.61803 3.17557 -5
    endloop
  endfacet
  facet normal 0 0 -1
    outer loop
      vertex -1.61803 3.17557 -5
      vertex -2 2 -5
      vertex -1.82709 2.81347 -5
    endloop
  endfacet
  facet normal 0 0 -1
    outer loop
      vertex -1.82709 2.81347 -5
      vertex -2 2 -5
      vertex -1.9563 2.41582 -5
    endloop
  endfacet
  facet normal 0 1 -0
    outer loop
      vertex 36.2091 3.98904 -5
      vertex -0.209057 3.98904 5
      vertex 36.2091 3.98904 5
    endloop
  endfacet
  facet normal 0 1 0
    outer loop
      vertex -0.209057 3.98904 5
      vertex 36.2091 3.98904 -5
      vertex -0.209057 3.98904 -5
    endloop
  endfacet
  facet normal -1 0 0
    outer loop
      vertex -2 -2 -5
      vertex -2 2 5
      vertex -2 2 -5
    endloop
  endfacet
  facet normal -1 -0 0
    outer loop
      vertex -2 2 5
      vertex -2 -2 -5
      vertex -2 -2 5
    endloop
  endfacet
  facet normal 0.20791 -0.978148 0
    outer loop
      vertex 36.2091 -3.98904 -5
      vertex 36.618 -3.90211 5
      vertex 36.2091 -3.98904 5
    endloop
  endfacet
  facet normal 0.20791 -0.978148 0
    outer loop
      vertex 36.618 -3.90211 5
      vertex 36.2091 -3.98904 -5
      vertex 36.618 -3.90211 -5
    endloop
  endfacet
  facet normal 0 -1 0
    outer loop
      vertex -0.209057 -3.98904 -5
      vertex 36.2091 -3.98904 5
      vertex -0.209057 -3.98904 5
    endloop
  endfacet
  facet normal 0 -1 -0
    outer loop
      vertex 36.2091 -3.98904 5
      vertex -0.209057 -3.98904 -5
      vertex 36.2091 -3.98904 -5
    endloop
  endfacet
  facet normal -0.994522 -0.104529 0
    outer loop
      vertex -1.9563 -2.41582 -5
      vertex -2 -2 5
      vertex -2 -2 -5
    endloop
  endfacet
  facet normal -0.994522 -0.104529 0
    outer loop
      vertex -2 -2 5
      vertex -1.9563 -2.41582 -5
      vertex -1.9563 -2.41582 5
    endloop
  endfacet
  facet normal 1 -0 0
    outer loop
      vertex 38 -2 5
      vertex 38 2 -5
      vertex 38 2 5
    endloop
  endfacet
  facet normal 1 0 0
    outer loop
      vertex 38 2 -5
      vertex 38 -2 5
      vertex 38 -2 -5
    endloop
  endfacet
  facet normal -0.587786 -0.809017 0
    outer loop
      vertex -1.33826 -3.48629 -5
      vertex -1 -3.73205 5
      vertex -1.33826 -3.48629 5
    endloop
  endfacet
  facet normal -0.587786 -0.809017 -0
    outer loop
      vertex -1 -3.73205 5
      vertex -1.33826 -3.48629 -5
      vertex -1 -3.73205 -5
    endloop
  endfacet
  facet normal -0.207911 -0.978148 0
    outer loop
      vertex -0.618033 -3.90211 -5
      vertex -0.209057 -3.98904 5
      vertex -0.618033 -3.90211 5
    endloop
  endfacet
  facet normal -0.207911 -0.978148 -0
    outer loop
      vertex -0.209057 -3.98904 5
      vertex -0.618033 -3.90211 -5
      vertex -0.209057 -3.98904 -5
    endloop
  endfacet
  facet normal 0.951057 0.309016 0
    outer loop
      vertex 37.9563 2.41582 5
      vertex 37.8271 2.81347 -5
      vertex 37.8271 2.81347 5
    endloop
  endfacet
  facet normal 0.951057 0.309016 0
    outer loop
      vertex 37.8271 2.81347 -5
      vertex 37.9563 2.41582 5
      vertex 37.9563 2.41582 -5
    endloop
  endfacet
  facet normal -0.994522 0.104529 0
    outer loop
      vertex -2 2 -5
      vertex -1.9563 2.41582 5
      vertex -1.9563 2.41582 -5
    endloop
  endfacet
  facet normal -0.994522 0.104529 0
    outer loop
      vertex -1.9563 2.41582 5
      vertex -2 2 -5
      vertex -2 2 5
    endloop
  endfacet
  facet normal -0.951056 0.309018 0
    outer loop
      vertex -1.9563 2.41582 -5
      vertex -1.82709 2.81347 5
      vertex -1.82709 2.81347 -5
    endloop
  endfacet
  facet normal -0.951056 0.309018 0
    outer loop
      vertex -1.82709 2.81347 5
      vertex -1.9563 2.41582 -5
      vertex -1.9563 2.41582 5
    endloop
  endfacet
  facet normal 0.951057 -0.309016 0
    outer loop
      vertex 37.8271 -2.81347 5
      vertex 37.9563 -2.41582 -5
      vertex 37.9563 -2.41582 5
    endloop
  endfacet
  facet normal 0.951057 -0.309016 0
    outer loop
      vertex 37.9563 -2.41582 -5
      vertex 37.8271 -2.81347 5
      vertex 37.8271 -2.81347 -5
    endloop
  endfacet
  facet normal 0.994522 -0.104529 0
    outer loop
      vertex 37.9563 -2.41582 5
      vertex 38 -2 -5
      vertex 38 -2 5
    endloop
  endfacet
  facet normal 0.994522 -0.104529 0
    outer loop
      vertex 38 -2 -5
      vertex 37.9563 -2.41582 5
      vertex 37.9563 -2.41582 -5
    endloop
  endfacet
  facet normal -0.743144 -0.669131 0
    outer loop
      vertex -1.33826 -3.48629 -5
      vertex -1.61803 -3.17557 5
      vertex -1.61803 -3.17557 -5
    endloop
  endfacet
  facet normal -0.743144 -0.669131 0
    outer loop
      vertex -1.61803 -3.17557 5
      vertex -1.33826 -3.48629 -5
      vertex -1.33826 -3.48629 5
    endloop
  endfacet
  facet normal -0.951056 -0.309018 0
    outer loop
      vertex -1.82709 -2.81347 -5
      vertex -1.9563 -2.41582 5
      vertex -1.9563 -2.41582 -5
    endloop
  endfacet
  facet normal -0.951056 -0.309018 0
    outer loop
      vertex -1.9563 -2.41582 5
      vertex -1.82709 -2.81347 -5
      vertex -1.82709 -2.81347 5
    endloop
  endfacet
  facet normal 0.406739 0.913545 -0
    outer loop
      vertex 37 3.73205 -5
      vertex 36.618 3.90211 5
      vertex 37 3.73205 5
    endloop
  endfacet
  facet normal 0.406739 0.913545 0
    outer loop
      vertex 36.618 3.90211 5
      vertex 37 3.73205 -5
      vertex 36.618 3.90211 -5
    endloop
  endfacet
  facet normal 0 0 1
    outer loop
      vertex 35.5037 1.11472 5
      vertex 38 2 5
      vertex 37.9563 2.41582 5
    endloop
  endfacet
  facet normal 0 0 1
    outer loop
      vertex 38 2 5
      vertex 36 0 5
      vertex 38 -2 5
    endloop
  endfacet
  facet normal 0 0 1
    outer loop
      vertex 35.5037 1.11472 5
      vertex 37.9563 2.41582 5
      vertex 37.8271 2.81347 5
    endloop
  endfacet
  facet normal -0 0 1
    outer loop
      vertex 35.9672 -0.311867 5
      vertex 38 -2 5
      vertex 36 0 5
    endloop
  endfacet
  facet normal 0 0 1
    outer loop
      vertex 35.5037 1.11472 5
      vertex 37.8271 2.81347 5
      vertex 37.618 3.17557 5
    endloop
  endfacet
  facet normal -0 0 1
    outer loop
      vertex 35.8703 -0.610105 5
      vertex 38 -2 5
      vertex 35.9672 -0.311867 5
    endloop
  endfacet
  facet normal 0 0 1
    outer loop
      vertex 35.5037 1.11472 5
      vertex 37.618 3.17557 5
      vertex 37.3383 3.48629 5
    endloop
  endfacet
  facet normal -0 0 1
    outer loop
      vertex 35.7135 -0.881678 5
      vertex 38 -2 5
      vertex 35.8703 -0.610105 5
    endloop
  endfacet
  facet normal 0 0 1
    outer loop
      vertex 35.5037 1.11472 5
      vertex 37.3383 3.48629 5
      vertex 37 3.73205 5
    endloop
  endfacet
  facet normal -0 0 1
    outer loop
      vertex 35.5037 -1.11472 5
      vertex 38 -2 5
      vertex 35.7135 -0.881678 5
    endloop
  endfacet
  facet normal 0 0 1
    outer loop
      vertex 35.25 1.29904 5
      vertex 37 3.73205 5
      vertex 36.618 3.90211 5
    endloop
  endfacet
  facet normal 0 0 1
    outer loop
      vertex 38 -2 5
      vertex 35.5037 -1.11472 5
      vertex 37.9563 -2.41582 5
    endloop
  endfacet
  facet normal 0 0 1
    outer loop
      vertex 35.25 1.29904 5
      vertex 36.618 3.90211 5
      vertex 36.2091 3.98904 5
    endloop
  endfacet
  facet normal 0 0 1
    outer loop
      vertex 37.9563 -2.41582 5
      vertex 35.5037 -1.11472 5
      vertex 37.8271 -2.81347 5
    endloop
  endfacet
  facet normal 0 0 1
    outer loop
      vertex 37.8271 -2.81347 5
      vertex 35.5037 -1.11472 5
      vertex 37.618 -3.17557 5
    endloop
  endfacet
  facet normal 0 0 1
    outer loop
      vertex 38 2 5
      vertex 35.9672 0.311867 5
      vertex 36 0 5
    endloop
  endfacet
  facet normal 0 0 1
    outer loop
      vertex 38 2 5
      vertex 35.8703 0.610105 5
      vertex 35.9672 0.311867 5
    endloop
  endfacet
  facet normal 0 0 1
    outer loop
      vertex 38 2 5
      vertex 35.7135 0.881678 5
      vertex 35.8703 0.610105 5
    endloop
  endfacet
  facet normal 0 0 1
    outer loop
      vertex 38 2 5
      vertex 35.5037 1.11472 5
      vertex 35.7135 0.881678 5
    endloop
  endfacet
  facet normal 0 0 1
    outer loop
      vertex 37 3.73205 5
      vertex 35.25 1.29904 5
      vertex 35.5037 1.11472 5
    endloop
  endfacet
  facet normal 0 0 1
    outer loop
      vertex 36.2091 3.98904 5
      vertex 34.9635 1.42658 5
      vertex 35.25 1.29904 5
    endloop
  endfacet
  facet normal 0 0 1
    outer loop
      vertex 36.2091 3.98904 5
      vertex 34.6568 1.49178 5
      vertex 34.9635 1.42658 5
    endloop
  endfacet
  facet normal 0 0 1
    outer loop
      vertex 36.2091 3.98904 5
      vertex 34.3432 1.49178 5
      vertex 34.6568 1.49178 5
    endloop
  endfacet
  facet normal 0 0 1
    outer loop
      vertex 36.2091 3.98904 5
      vertex 34.0365 1.42658 5
      vertex 34.3432 1.49178 5
    endloop
  endfacet
  facet normal 0 0 1
    outer loop
      vertex 36.2091 3.98904 5
      vertex 33.75 1.29904 5
      vertex 34.0365 1.42658 5
    endloop
  endfacet
  facet normal 0 0 1
    outer loop
      vertex 26.25 1.29904 5
      vertex 33.75 1.29904 5
      vertex 36.2091 3.98904 5
    endloop
  endfacet
  facet normal 0 0 1
    outer loop
      vertex 33.0328 0.311867 5
      vertex 27 0 5
      vertex 33 0 5
    endloop
  endfacet
  facet normal 0 0 1
    outer loop
      vertex 26.9672 0.311867 5
      vertex 33.0328 0.311867 5
      vertex 33.1297 0.610105 5
    endloop
  endfacet
  facet normal 0 0 1
    outer loop
      vertex 26.8703 0.610105 5
      vertex 33.1297 0.610105 5
      vertex 33.2865 0.881678 5
    endloop
  endfacet
  facet normal 0 0 1
    outer loop
      vertex 26.7135 0.881678 5
      vertex 33.2865 0.881678 5
      vertex 33.4963 1.11472 5
    endloop
  endfacet
  facet normal 0 0 1
    outer loop
      vertex 33.75 1.29904 5
      vertex 26.25 1.29904 5
      vertex 33.4963 1.11472 5
    endloop
  endfacet
  facet normal 0 0 1
    outer loop
      vertex 33.0328 0.311867 5
      vertex 26.9672 0.311867 5
      vertex 27 0 5
    endloop
  endfacet
  facet normal 0 0 1
    outer loop
      vertex 33.1297 0.610105 5
      vertex 26.8703 0.610105 5
      vertex 26.9672 0.311867 5
    endloop
  endfacet
  facet normal 0 0 1
    outer loop
      vertex 33.2865 0.881678 5
      vertex 26.7135 0.881678 5
      vertex 26.8703 0.610105 5
    endloop
  endfacet
  facet normal 0 0 1
    outer loop
      vertex 33.4963 1.11472 5
      vertex 26.5037 1.11472 5
      vertex 26.7135 0.881678 5
    endloop
  endfacet
  facet normal 0 0 1
    outer loop
      vertex 33.4963 1.11472 5
      vertex 26.25 1.29904 5
      vertex 26.5037 1.11472 5
    endloop
  endfacet
  facet normal 0 0 1
    outer loop
      vertex 36.2091 3.98904 5
      vertex 25.9635 1.42658 5
      vertex 26.25 1.29904 5
    endloop
  endfacet
  facet normal 0 0 1
    outer loop
      vertex 36.2091 3.98904 5
      vertex 25.6568 1.49178 5
      vertex 25.9635 1.42658 5
    endloop
  endfacet
  facet normal 0 0 1
    outer loop
      vertex 36.2091 3.98904 5
      vertex 25.3432 1.49178 5
      vertex 25.6568 1.49178 5
    endloop
  endfacet
  facet normal 0 0 1
    outer loop
      vertex 16.6568 1.49178 5
      vertex 25.3432 1.49178 5
      vertex 36.2091 3.98904 5
    endloop
  endfacet
  facet normal 0 0 1
    outer loop
      vertex 24.0328 0.311867 5
      vertex 18 0 5
      vertex 24 0 5
    endloop
  endfacet
  facet normal 0 0 1
    outer loop
      vertex 17.9672 0.311867 5
      vertex 24.0328 0.311867 5
      vertex 24.1297 0.610105 5
    endloop
  endfacet
  facet normal 0 0 1
    outer loop
      vertex 17.8703 0.610105 5
      vertex 24.1297 0.610105 5
      vertex 24.2865 0.881678 5
    endloop
  endfacet
  facet normal 0 0 1
    outer loop
      vertex 17.7135 0.881678 5
      vertex 24.2865 0.881678 5
      vertex 24.4963 1.11472 5
    endloop
  endfacet
  facet normal 0 0 1
    outer loop
      vertex 17.5037 1.11472 5
      vertex 24.4963 1.11472 5
      vertex 24.75 1.29904 5
    endloop
  endfacet
  facet normal 0 0 1
    outer loop
      vertex 17.25 1.29904 5
      vertex 24.75 1.29904 5
      vertex 25.0365 1.42658 5
    endloop
  endfacet
  facet normal 0 0 1
    outer loop
      vertex 25.3432 1.49178 5
      vertex 16.6568 1.49178 5
      vertex 25.0365 1.42658 5
    endloop
  endfacet
  facet normal 0 0 1
    outer loop
      vertex 24.0328 0.311867 5
      vertex 17.9672 0.311867 5
      vertex 18 0 5
    endloop
  endfacet
  facet normal 0 0 1
    outer loop
      vertex 24.1297 0.610105 5
      vertex 17.8703 0.610105 5
      vertex 17.9672 0.311867 5
    endloop
  endfacet
  facet normal 0 0 1
    outer loop
      vertex 24.2865 0.881678 5
      vertex 17.7135 0.881678 5
      vertex 17.8703 0.610105 5
    endloop
  endfacet
  facet normal 0 0 1
    outer loop
      vertex 24.4963 1.11472 5
      vertex 17.5037 1.11472 5
      vertex 17.7135 0.881678 5
    endloop
  endfacet
  facet normal 0 0 1
    outer loop
      vertex 24.75 1.29904 5
      vertex 17.25 1.29904 5
      vertex 17.5037 1.11472 5
    endloop
  endfacet
  facet normal 0 0 1
    outer loop
      vertex 25.0365 1.42658 5
      vertex 16.9635 1.42658 5
      vertex 17.25 1.29904 5
    endloop
  endfacet
  facet normal 0 0 1
    outer loop
      vertex 25.0365 1.42658 5
      vertex 16.6568 1.49178 5
      vertex 16.9635 1.42658 5
    endloop
  endfacet
  facet normal -0 0 1
    outer loop
      vertex -0.209057 3.98904 5
      vertex 16.6568 1.49178 5
      vertex 36.2091 3.98904 5
    endloop
  endfacet
  facet normal 0 0 1
    outer loop
      vertex 15.0328 0.311867 5
      vertex 9 0 5
      vertex 15 0 5
    endloop
  endfacet
  facet normal 0 0 1
    outer loop
      vertex 8.96722 0.311867 5
      vertex 15.0328 0.311867 5
      vertex 15.1297 0.610105 5
    endloop
  endfacet
  facet normal 0 0 1
    outer loop
      vertex 8.87032 0.610105 5
      vertex 15.1297 0.610105 5
      vertex 15.2865 0.881678 5
    endloop
  endfacet
  facet normal 0 0 1
    outer loop
      vertex 8.71352 0.881678 5
      vertex 15.2865 0.881678 5
      vertex 15.4963 1.11472 5
    endloop
  endfacet
  facet normal 0 0 1
    outer loop
      vertex 8.5037 1.11472 5
      vertex 15.4963 1.11472 5
      vertex 15.75 1.29904 5
    endloop
  endfacet
  facet normal 0 0 1
    outer loop
      vertex 8.25 1.29904 5
      vertex 15.75 1.29904 5
      vertex 16.0365 1.42658 5
    endloop
  endfacet
  facet normal 0 0 1
    outer loop
      vertex 7.96352 1.42658 5
      vertex 16.0365 1.42658 5
      vertex 16.3432 1.49178 5
    endloop
  endfacet
  facet normal 0 0 1
    outer loop
      vertex 15.0328 0.311867 5
      vertex 8.96722 0.311867 5
      vertex 9 0 5
    endloop
  endfacet
  facet normal 0 0 1
    outer loop
      vertex 15.1297 0.610105 5
      vertex 8.87032 0.610105 5
      vertex 8.96722 0.311867 5
    endloop
  endfacet
  facet normal 0 0 1
    outer loop
      vertex 16.6568 1.49178 5
      vertex -0.209057 3.98904 5
      vertex 16.3432 1.49178 5
    endloop
  endfacet
  facet normal 0 0 1
    outer loop
      vertex 15.2865 0.881678 5
      vertex 8.71352 0.881678 5
      vertex 8.87032 0.610105 5
    endloop
  endfacet
  facet normal 0 0 1
    outer loop
      vertex 15.4963 1.11472 5
      vertex 8.5037 1.11472 5
      vertex 8.71352 0.881678 5
    endloop
  endfacet
  facet normal 0 0 1
    outer loop
      vertex 15.75 1.29904 5
      vertex 8.25 1.29904 5
      vertex 8.5037 1.11472 5
    endloop
  endfacet
  facet normal 0 0 1
    outer loop
      vertex 16.0365 1.42658 5
      vertex 7.96352 1.42658 5
      vertex 8.25 1.29904 5
    endloop
  endfacet
  facet normal 0 0 1
    outer loop
      vertex 16.3432 1.49178 5
      vertex 7.65679 1.49178 5
      vertex 7.96352 1.42658 5
    endloop
  endfacet
  facet normal 0 0 1
    outer loop
      vertex 16.3432 1.49178 5
      vertex -0.209057 3.98904 5
      vertex 7.65679 1.49178 5
    endloop
  endfacet
  facet normal 0 0 1
    outer loop
      vertex 6.03278 0.311867 5
      vertex -0.209057 3.98904 5
      vertex 6 0 5
    endloop
  endfacet
  facet normal 0 0 1
    outer loop
      vertex 6.12968 0.610105 5
      vertex -0.209057 3.98904 5
      vertex 6.03278 0.311867 5
    endloop
  endfacet
  facet normal 0 0 1
    outer loop
      vertex 6.28647 0.881678 5
      vertex -0.209057 3.98904 5
      vertex 6.12968 0.610105 5
    endloop
  endfacet
  facet normal 0 0 1
    outer loop
      vertex 6.4963 1.11472 5
      vertex -0.209057 3.98904 5
      vertex 6.28647 0.881678 5
    endloop
  endfacet
  facet normal 0 0 1
    outer loop
      vertex 6.75 1.29904 5
      vertex -0.209057 3.98904 5
      vertex 6.4963 1.11472 5
    endloop
  endfacet
  facet normal 0 0 1
    outer loop
      vertex 7.03647 1.42658 5
      vertex -0.209057 3.98904 5
      vertex 6.75 1.29904 5
    endloop
  endfacet
  facet normal 0 0 1
    outer loop
      vertex 7.34321 1.49178 5
      vertex -0.209057 3.98904 5
      vertex 7.03647 1.42658 5
    endloop
  endfacet
  facet normal 0 0 1
    outer loop
      vertex 7.65679 1.49178 5
      vertex -0.209057 3.98904 5
      vertex 7.34321 1.49178 5
    endloop
  endfacet
  facet normal 0 0 1
    outer loop
      vertex 37.618 -3.17557 5
      vertex 35.5037 -1.11472 5
      vertex 37.3383 -3.48629 5
    endloop
  endfacet
  facet normal 0 0 1
    outer loop
      vertex 37.3383 -3.48629 5
      vertex 35.5037 -1.11472 5
      vertex 37 -3.73205 5
    endloop
  endfacet
  facet normal -0 0 1
    outer loop
      vertex 35.25 -1.29904 5
      vertex 37 -3.73205 5
      vertex 35.5037 -1.11472 5
    endloop
  endfacet
  facet normal 0 0 1
    outer loop
      vertex 37 -3.73205 5
      vertex 35.25 -1.29904 5
      vertex 36.618 -3.90211 5
    endloop
  endfacet
  facet normal 0 0 1
    outer loop
      vertex 36.618 -3.90211 5
      vertex 35.25 -1.29904 5
      vertex 36.2091 -3.98904 5
    endloop
  endfacet
  facet normal -0 0 1
    outer loop
      vertex 34.9635 -1.42658 5
      vertex 36.2091 -3.98904 5
      vertex 35.25 -1.29904 5
    endloop
  endfacet
  facet normal -0 0 1
    outer loop
      vertex 34.6568 -1.49178 5
      vertex 36.2091 -3.98904 5
      vertex 34.9635 -1.42658 5
    endloop
  endfacet
  facet normal -0 0 1
    outer loop
      vertex 34.3432 -1.49178 5
      vertex 36.2091 -3.98904 5
      vertex 34.6568 -1.49178 5
    endloop
  endfacet
  facet normal 0 0 1
    outer loop
      vertex 34.0365 -1.42658 5
      vertex 36.2091 -3.98904 5
      vertex 34.3432 -1.49178 5
    endloop
  endfacet
  facet normal 0 0 1
    outer loop
      vertex 33.75 -1.29904 5
      vertex 36.2091 -3.98904 5
      vertex 34.0365 -1.42658 5
    endloop
  endfacet
  facet normal 0 0 1
    outer loop
      vertex 26.25 -1.29904 5
      vertex 33.75 -1.29904 5
      vertex 33.4963 -1.11472 5
    endloop
  endfacet
  facet normal -0 0 1
    outer loop
      vertex 27 0 5
      vertex 33.0328 -0.311867 5
      vertex 33 0 5
    endloop
  endfacet
  facet normal 0 0 1
    outer loop
      vertex 26.9672 -0.311867 5
      vertex 33.0328 -0.311867 5
      vertex 27 0 5
    endloop
  endfacet
  facet normal 0 0 1
    outer loop
      vertex 33.0328 -0.311867 5
      vertex 26.9672 -0.311867 5
      vertex 33.1297 -0.610105 5
    endloop
  endfacet
  facet normal 0 0 1
    outer loop
      vertex 26.8703 -0.610105 5
      vertex 33.1297 -0.610105 5
      vertex 26.9672 -0.311867 5
    endloop
  endfacet
  facet normal 0 0 1
    outer loop
      vertex 33.1297 -0.610105 5
      vertex 26.8703 -0.610105 5
      vertex 33.2865 -0.881678 5
    endloop
  endfacet
  facet normal 0 0 1
    outer loop
      vertex 26.7135 -0.881678 5
      vertex 33.2865 -0.881678 5
      vertex 26.8703 -0.610105 5
    endloop
  endfacet
  facet normal 0 0 1
    outer loop
      vertex 33.2865 -0.881678 5
      vertex 26.7135 -0.881678 5
      vertex 33.4963 -1.11472 5
    endloop
  endfacet
  facet normal 0 0 1
    outer loop
      vertex 26.5037 -1.11472 5
      vertex 33.4963 -1.11472 5
      vertex 26.7135 -0.881678 5
    endloop
  endfacet
  facet normal 0 0 1
    outer loop
      vertex 26.25 -1.29904 5
      vertex 33.4963 -1.11472 5
      vertex 26.5037 -1.11472 5
    endloop
  endfacet
  facet normal 0 0 1
    outer loop
      vertex 33.75 -1.29904 5
      vertex 26.25 -1.29904 5
      vertex 36.2091 -3.98904 5
    endloop
  endfacet
  facet normal -0 0 1
    outer loop
      vertex 25.9635 -1.42658 5
      vertex 36.2091 -3.98904 5
      vertex 26.25 -1.29904 5
    endloop
  endfacet
  facet normal -0 0 1
    outer loop
      vertex 25.6568 -1.49178 5
      vertex 36.2091 -3.98904 5
      vertex 25.9635 -1.42658 5
    endloop
  endfacet
  facet normal -0 0 1
    outer loop
      vertex 25.3432 -1.49178 5
      vertex 36.2091 -3.98904 5
      vertex 25.6568 -1.49178 5
    endloop
  endfacet
  facet normal 0 0 1
    outer loop
      vertex 16.6568 -1.49178 5
      vertex 25.3432 -1.49178 5
      vertex 25.0365 -1.42658 5
    endloop
  endfacet
  facet normal -0 0 1
    outer loop
      vertex 18 0 5
      vertex 24.0328 -0.311867 5
      vertex 24 0 5
    endloop
  endfacet
  facet normal 0 0 1
    outer loop
      vertex 17.9672 -0.311867 5
      vertex 24.0328 -0.311867 5
      vertex 18 0 5
    endloop
  endfacet
  facet normal 0 0 1
    outer loop
      vertex 24.0328 -0.311867 5
      vertex 17.9672 -0.311867 5
      vertex 24.1297 -0.610105 5
    endloop
  endfacet
  facet normal 0 0 1
    outer loop
      vertex 17.8703 -0.610105 5
      vertex 24.1297 -0.610105 5
      vertex 17.9672 -0.311867 5
    endloop
  endfacet
  facet normal 0 0 1
    outer loop
      vertex 24.1297 -0.610105 5
      vertex 17.8703 -0.610105 5
      vertex 24.2865 -0.881678 5
    endloop
  endfacet
  facet normal 0 0 1
    outer loop
      vertex 17.7135 -0.881678 5
      vertex 24.2865 -0.881678 5
      vertex 17.8703 -0.610105 5
    endloop
  endfacet
  facet normal 0 0 1
    outer loop
      vertex 24.2865 -0.881678 5
      vertex 17.7135 -0.881678 5
      vertex 24.4963 -1.11472 5
    endloop
  endfacet
  facet normal 0 0 1
    outer loop
      vertex 17.5037 -1.11472 5
      vertex 24.4963 -1.11472 5
      vertex 17.7135 -0.881678 5
    endloop
  endfacet
  facet normal 0 0 1
    outer loop
      vertex 24.4963 -1.11472 5
      vertex 17.5037 -1.11472 5
      vertex 24.75 -1.29904 5
    endloop
  endfacet
  facet normal 0 0 1
    outer loop
      vertex 17.25 -1.29904 5
      vertex 24.75 -1.29904 5
      vertex 17.5037 -1.11472 5
    endloop
  endfacet
  facet normal 0 0 1
    outer loop
      vertex 24.75 -1.29904 5
      vertex 17.25 -1.29904 5
      vertex 25.0365 -1.42658 5
    endloop
  endfacet
  facet normal 0 0 1
    outer loop
      vertex 16.9635 -1.42658 5
      vertex 25.0365 -1.42658 5
      vertex 17.25 -1.29904 5
    endloop
  endfacet
  facet normal 0 0 1
    outer loop
      vertex 16.6568 -1.49178 5
      vertex 25.0365 -1.42658 5
      vertex 16.9635 -1.42658 5
    endloop
  endfacet
  facet normal 0 0 1
    outer loop
      vertex 25.3432 -1.49178 5
      vertex 16.6568 -1.49178 5
      vertex 36.2091 -3.98904 5
    endloop
  endfacet
  facet normal 0 0 1
    outer loop
      vertex -0.209057 -3.98904 5
      vertex 16.6568 -1.49178 5
      vertex 16.3432 -1.49178 5
    endloop
  endfacet
  facet normal -0 0 1
    outer loop
      vertex 9 0 5
      vertex 15.0328 -0.311867 5
      vertex 15 0 5
    endloop
  endfacet
  facet normal 0 0 1
    outer loop
      vertex 8.96722 -0.311867 5
      vertex 15.0328 -0.311867 5
      vertex 9 0 5
    endloop
  endfacet
  facet normal 0 0 1
    outer loop
      vertex 15.0328 -0.311867 5
      vertex 8.96722 -0.311867 5
      vertex 15.1297 -0.610105 5
    endloop
  endfacet
  facet normal 0 0 1
    outer loop
      vertex 8.87032 -0.610105 5
      vertex 15.1297 -0.610105 5
      vertex 8.96722 -0.311867 5
    endloop
  endfacet
  facet normal 0 0 1
    outer loop
      vertex 15.1297 -0.610105 5
      vertex 8.87032 -0.610105 5
      vertex 15.2865 -0.881678 5
    endloop
  endfacet
  facet normal 0 0 1
    outer loop
      vertex 8.71352 -0.881678 5
      vertex 15.2865 -0.881678 5
      vertex 8.87032 -0.610105 5
    endloop
  endfacet
  facet normal 0 0 1
    outer loop
      vertex 15.2865 -0.881678 5
      vertex 8.71352 -0.881678 5
      vertex 15.4963 -1.11472 5
    endloop
  endfacet
  facet normal 0 0 1
    outer loop
      vertex 8.5037 -1.11472 5
      vertex 15.4963 -1.11472 5
      vertex 8.71352 -0.881678 5
    endloop
  endfacet
  facet normal 0 0 1
    outer loop
      vertex 15.4963 -1.11472 5
      vertex 8.5037 -1.11472 5
      vertex 15.75 -1.29904 5
    endloop
  endfacet
  facet normal 0 0 1
    outer loop
      vertex 8.25 -1.29904 5
      vertex 15.75 -1.29904 5
      vertex 8.5037 -1.11472 5
    endloop
  endfacet
  facet normal 0 0 1
    outer loop
      vertex 15.75 -1.29904 5
      vertex 8.25 -1.29904 5
      vertex 16.0365 -1.42658 5
    endloop
  endfacet
  facet normal 0 0 1
    outer loop
      vertex 7.96352 -1.42658 5
      vertex 16.0365 -1.42658 5
      vertex 8.25 -1.29904 5
    endloop
  endfacet
  facet normal 0 0 1
    outer loop
      vertex 16.0365 -1.42658 5
      vertex 7.96352 -1.42658 5
      vertex 16.3432 -1.49178 5
    endloop
  endfacet
  facet normal 0 0 1
    outer loop
      vertex 7.65679 -1.49178 5
      vertex 16.3432 -1.49178 5
      vertex 7.96352 -1.42658 5
    endloop
  endfacet
  facet normal 0 0 1
    outer loop
      vertex -0.209057 -3.98904 5
      vertex 16.3432 -1.49178 5
      vertex 7.65679 -1.49178 5
    endloop
  endfacet
  facet normal 0 0 1
    outer loop
      vertex -0.209057 -3.98904 5
      vertex 7.65679 -1.49178 5
      vertex 7.34321 -1.49178 5
    endloop
  endfacet
  facet normal -0 0 1
    outer loop
      vertex -2 2 5
      vertex 6 0 5
      vertex -0.209057 3.98904 5
    endloop
  endfacet
  facet normal 0 0 1
    outer loop
      vertex -2 -2 5
      vertex 6 0 5
      vertex -2 2 5
    endloop
  endfacet
  facet normal 0 -0 1
    outer loop
      vertex -0.209057 -3.98904 5
      vertex 6 0 5
      vertex -2 -2 5
    endloop
  endfacet
  facet normal 0 0 1
    outer loop
      vertex 6 0 5
      vertex -0.209057 -3.98904 5
      vertex 6.03278 -0.311867 5
    endloop
  endfacet
  facet normal 0 0 1
    outer loop
      vertex 16.6568 -1.49178 5
      vertex -0.209057 -3.98904 5
      vertex 36.2091 -3.98904 5
    endloop
  endfacet
  facet normal 0 0 1
    outer loop
      vertex 7.03647 -1.42658 5
      vertex -0.209057 -3.98904 5
      vertex 7.34321 -1.49178 5
    endloop
  endfacet
  facet normal 0 0 1
    outer loop
      vertex 6.75 -1.29904 5
      vertex -0.209057 -3.98904 5
      vertex 7.03647 -1.42658 5
    endloop
  endfacet
  facet normal 0 0 1
    outer loop
      vertex 6.4963 -1.11472 5
      vertex -0.209057 -3.98904 5
      vertex 6.75 -1.29904 5
    endloop
  endfacet
  facet normal 0 0 1
    outer loop
      vertex 6.03278 -0.311867 5
      vertex -0.209057 -3.98904 5
      vertex 6.12968 -0.610105 5
    endloop
  endfacet
  facet normal 0 0 1
    outer loop
      vertex -2 2 5
      vertex -0.209057 3.98904 5
      vertex -0.618033 3.90211 5
    endloop
  endfacet
  facet normal 0 0 1
    outer loop
      vertex 6.12968 -0.610105 5
      vertex -0.209057 -3.98904 5
      vertex 6.28647 -0.881678 5
    endloop
  endfacet
  facet normal 0 0 1
    outer loop
      vertex -2 2 5
      vertex -0.618033 3.90211 5
      vertex -0.999999 3.73205 5
    endloop
  endfacet
  facet normal 0 0 1
    outer loop
      vertex 6.28647 -0.881678 5
      vertex -0.209057 -3.98904 5
      vertex 6.4963 -1.11472 5
    endloop
  endfacet
  facet normal 0 0 1
    outer loop
      vertex -2 2 5
      vertex -0.999999 3.73205 5
      vertex -1.33826 3.48629 5
    endloop
  endfacet
  facet normal 0 0 1
    outer loop
      vertex -0.209057 -3.98904 5
      vertex -2 -2 5
      vertex -0.618033 -3.90211 5
    endloop
  endfacet
  facet normal 0 0 1
    outer loop
      vertex -2 2 5
      vertex -1.33826 3.48629 5
      vertex -1.61803 3.17557 5
    endloop
  endfacet
  facet normal 0 0 1
    outer loop
      vertex -0.618033 -3.90211 5
      vertex -2 -2 5
      vertex -1 -3.73205 5
    endloop
  endfacet
  facet normal 0 0 1
    outer loop
      vertex -2 2 5
      vertex -1.61803 3.17557 5
      vertex -1.82709 2.81347 5
    endloop
  endfacet
  facet normal 0 0 1
    outer loop
      vertex -1 -3.73205 5
      vertex -2 -2 5
      vertex -1.33826 -3.48629 5
    endloop
  endfacet
  facet normal 0 0 1
    outer loop
      vertex -2 2 5
      vertex -1.82709 2.81347 5
      vertex -1.9563 2.41582 5
    endloop
  endfacet
  facet normal 0 0 1
    outer loop
      vertex -1.33826 -3.48629 5
      vertex -2 -2 5
      vertex -1.61803 -3.17557 5
    endloop
  endfacet
  facet normal 0 0 1
    outer loop
      vertex -1.61803 -3.17557 5
      vertex -2 -2 5
      vertex -1.82709 -2.81347 5
    endloop
  endfacet
  facet normal 0 0 1
    outer loop
      vertex -1.82709 -2.81347 5
      vertex -2 -2 5
      vertex -1.9563 -2.41582 5
    endloop
  endfacet
  facet normal -0.743144 0.669131 0
    outer loop
      vertex -1.61803 3.17557 -5
      vertex -1.33826 3.48629 5
      vertex -1.33826 3.48629 -5
    endloop
  endfacet
  facet normal -0.743144 0.669131 0
    outer loop
      vertex -1.33826 3.48629 5
      vertex -1.61803 3.17557 -5
      vertex -1.61803 3.17557 5
    endloop
  endfacet
  facet normal -0.587784 0.809018 0
    outer loop
      vertex -0.999999 3.73205 -5
      vertex -1.33826 3.48629 5
      vertex -0.999999 3.73205 5
    endloop
  endfacet
  facet normal -0.587784 0.809018 0
    outer loop
      vertex -1.33826 3.48629 5
      vertex -0.999999 3.73205 -5
      vertex -1.33826 3.48629 -5
    endloop
  endfacet
  facet normal -0.207911 0.978148 0
    outer loop
      vertex -0.209057 3.98904 -5
      vertex -0.618033 3.90211 5
      vertex -0.209057 3.98904 5
    endloop
  endfacet
  facet normal -0.207911 0.978148 0
    outer loop
      vertex -0.618033 3.90211 5
      vertex -0.209057 3.98904 -5
      vertex -0.618033 3.90211 -5
    endloop
  endfacet
  facet normal 0.994522 0.104529 0
    outer loop
      vertex 38 2 5
      vertex 37.9563 2.41582 -5
      vertex 37.9563 2.41582 5
    endloop
  endfacet
  facet normal 0.994522 0.104529 0
    outer loop
      vertex 37.9563 2.41582 -5
      vertex 38 2 5
      vertex 38 2 -5
    endloop
  endfacet
  facet normal -0.406738 -0.913545 0
    outer loop
      vertex -1 -3.73205 -5
      vertex -0.618033 -3.90211 5
      vertex -1 -3.73205 5
    endloop
  endfacet
  facet normal -0.406738 -0.913545 -0
    outer loop
      vertex -0.618033 -3.90211 5
      vertex -1 -3.73205 -5
      vertex -0.618033 -3.90211 -5
    endloop
  endfacet
  facet normal -0.866026 -0.499999 0
    outer loop
      vertex -1.61803 -3.17557 -5
      vertex -1.82709 -2.81347 5
      vertex -1.82709 -2.81347 -5
    endloop
  endfacet
  facet normal -0.866026 -0.499999 0
    outer loop
      vertex -1.82709 -2.81347 5
      vertex -1.61803 -3.17557 -5
      vertex -1.61803 -3.17557 5
    endloop
  endfacet
  facet normal 0.20791 0.978148 -0
    outer loop
      vertex 36.618 3.90211 -5
      vertex 36.2091 3.98904 5
      vertex 36.618 3.90211 5
    endloop
  endfacet
  facet normal 0.20791 0.978148 0
    outer loop
      vertex 36.2091 3.98904 5
      vertex 36.618 3.90211 -5
      vertex 36.2091 3.98904 -5
    endloop
  endfacet
  facet normal -0.866026 0.499999 0
    outer loop
      vertex -1.82709 2.81347 -5
      vertex -1.61803 3.17557 5
      vertex -1.61803 3.17557 -5
    endloop
  endfacet
  facet normal -0.866026 0.499999 0
    outer loop
      vertex -1.61803 3.17557 5
      vertex -1.82709 2.81347 -5
      vertex -1.82709 2.81347 5
    endloop
  endfacet
  facet normal -0.406739 0.913545 0
    outer loop
      vertex -0.618033 3.90211 -5
      vertex -0.999999 3.73205 5
      vertex -0.618033 3.90211 5
    endloop
  endfacet
  facet normal -0.406739 0.913545 0
    outer loop
      vertex -0.999999 3.73205 5
      vertex -0.618033 3.90211 -5
      vertex -0.999999 3.73205 -5
    endloop
  endfacet
  facet normal 0.866026 0.499999 0
    outer loop
      vertex 37.8271 2.81347 5
      vertex 37.618 3.17557 -5
      vertex 37.618 3.17557 5
    endloop
  endfacet
  facet normal 0.866026 0.499999 0
    outer loop
      vertex 37.618 3.17557 -5
      vertex 37.8271 2.81347 5
      vertex 37.8271 2.81347 -5
    endloop
  endfacet
  facet normal 0.743143 0.669133 0
    outer loop
      vertex 37.618 3.17557 5
      vertex 37.3383 3.48629 -5
      vertex 37.3383 3.48629 5
    endloop
  endfacet
  facet normal 0.743143 0.669133 0
    outer loop
      vertex 37.3383 3.48629 -5
      vertex 37.618 3.17557 5
      vertex 37.618 3.17557 -5
    endloop
  endfacet
  facet normal 0.406739 -0.913545 0
    outer loop
      vertex 36.618 -3.90211 -5
      vertex 37 -3.73205 5
      vertex 36.618 -3.90211 5
    endloop
  endfacet
  facet normal 0.406739 -0.913545 0
    outer loop
      vertex 37 -3.73205 5
      vertex 36.618 -3.90211 -5
      vertex 37 -3.73205 -5
    endloop
  endfacet
  facet normal 0.587786 -0.809017 0
    outer loop
      vertex 37 -3.73205 -5
      vertex 37.3383 -3.48629 5
      vertex 37 -3.73205 5
    endloop
  endfacet
  facet normal 0.587786 -0.809017 0
    outer loop
      vertex 37.3383 -3.48629 5
      vertex 37 -3.73205 -5
      vertex 37.3383 -3.48629 -5
    endloop
  endfacet
  facet normal 0.743143 -0.669133 0
    outer loop
      vertex 37.3383 -3.48629 5
      vertex 37.618 -3.17557 -5
      vertex 37.618 -3.17557 5
    endloop
  endfacet
  facet normal 0.743143 -0.669133 0
    outer loop
      vertex 37.618 -3.17557 -5
      vertex 37.3383 -3.48629 5
      vertex 37.3383 -3.48629 -5
    endloop
  endfacet
  facet normal 0.866026 -0.499999 0
    outer loop
      vertex 37.618 -3.17557 5
      vertex 37.8271 -2.81347 -5
      vertex 37.8271 -2.81347 5
    endloop
  endfacet
  facet normal 0.866026 -0.499999 0
    outer loop
      vertex 37.8271 -2.81347 -5
      vertex 37.618 -3.17557 5
      vertex 37.618 -3.17557 -5
    endloop
  endfacet
  facet normal 0.587786 0.809017 -0
    outer loop
      vertex 37.3383 3.48629 -5
      vertex 37 3.73205 5
      vertex 37.3383 3.48629 5
    endloop
  endfacet
  facet normal 0.587786 0.809017 0
    outer loop
      vertex 37 3.73205 5
      vertex 37.3383 3.48629 -5
      vertex 37 3.73205 -5
    endloop
  endfacet
  facet normal -0.994522 -0.104526 0
    outer loop
      vertex 9 0 -5
      vertex 8.96722 0.311867 5
      vertex 8.96722 0.311867 -5
    endloop
  endfacet
  facet normal -0.994522 -0.104526 0
    outer loop
      vertex 8.96722 0.311867 5
      vertex 9 0 -5
      vertex 9 0 5
    endloop
  endfacet
  facet normal 0.994522 -0.104526 0
    outer loop
      vertex 6 0 5
      vertex 6.03278 0.311867 -5
      vertex 6.03278 0.311867 5
    endloop
  endfacet
  facet normal 0.994522 -0.104526 0
    outer loop
      vertex 6.03278 0.311867 -5
      vertex 6 0 5
      vertex 6 0 -5
    endloop
  endfacet
  facet normal 0 -1 0
    outer loop
      vertex 7.34321 1.49178 -5
      vertex 7.65679 1.49178 5
      vertex 7.34321 1.49178 5
    endloop
  endfacet
  facet normal 0 -1 -0
    outer loop
      vertex 7.65679 1.49178 5
      vertex 7.34321 1.49178 -5
      vertex 7.65679 1.49178 -5
    endloop
  endfacet
  facet normal 0 1 -0
    outer loop
      vertex 7.65679 -1.49178 -5
      vertex 7.34321 -1.49178 5
      vertex 7.65679 -1.49178 5
    endloop
  endfacet
  facet normal 0 1 0
    outer loop
      vertex 7.34321 -1.49178 5
      vertex 7.65679 -1.49178 -5
      vertex 7.34321 -1.49178 -5
    endloop
  endfacet
  facet normal -0.587786 -0.809017 0
    outer loop
      vertex 8.25 1.29904 -5
      vertex 8.5037 1.11472 5
      vertex 8.25 1.29904 5
    endloop
  endfacet
  facet normal -0.587786 -0.809017 -0
    outer loop
      vertex 8.5037 1.11472 5
      vertex 8.25 1.29904 -5
      vertex 8.5037 1.11472 -5
    endloop
  endfacet
  facet normal 0.743145 -0.669131 0
    outer loop
      vertex 6.28647 0.881678 5
      vertex 6.4963 1.11472 -5
      vertex 6.4963 1.11472 5
    endloop
  endfacet
  facet normal 0.743145 -0.669131 0
    outer loop
      vertex 6.4963 1.11472 -5
      vertex 6.28647 0.881678 5
      vertex 6.28647 0.881678 -5
    endloop
  endfacet
  facet normal 0.406736 -0.913546 0
    outer loop
      vertex 6.75 1.29904 -5
      vertex 7.03647 1.42658 5
      vertex 6.75 1.29904 5
    endloop
  endfacet
  facet normal 0.406736 -0.913546 0
    outer loop
      vertex 7.03647 1.42658 5
      vertex 6.75 1.29904 -5
      vertex 7.03647 1.42658 -5
    endloop
  endfacet
  facet normal -0.866026 0.5 0
    outer loop
      vertex 8.71352 -0.881678 -5
      vertex 8.87032 -0.610105 5
      vertex 8.87032 -0.610105 -5
    endloop
  endfacet
  facet normal -0.866026 0.5 0
    outer loop
      vertex 8.87032 -0.610105 5
      vertex 8.71352 -0.881678 -5
      vertex 8.71352 -0.881678 5
    endloop
  endfacet
  facet normal -0.866026 -0.5 0
    outer loop
      vertex 8.87032 0.610105 -5
      vertex 8.71352 0.881678 5
      vertex 8.71352 0.881678 -5
    endloop
  endfacet
  facet normal -0.866026 -0.5 0
    outer loop
      vertex 8.71352 0.881678 5
      vertex 8.87032 0.610105 -5
      vertex 8.87032 0.610105 5
    endloop
  endfacet
  facet normal -0.951056 -0.309018 0
    outer loop
      vertex 8.96722 0.311867 -5
      vertex 8.87032 0.610105 5
      vertex 8.87032 0.610105 -5
    endloop
  endfacet
  facet normal -0.951056 -0.309018 0
    outer loop
      vertex 8.87032 0.610105 5
      vertex 8.96722 0.311867 -5
      vertex 8.96722 0.311867 5
    endloop
  endfacet
  facet normal -0.743145 -0.669131 0
    outer loop
      vertex 8.71352 0.881678 -5
      vertex 8.5037 1.11472 5
      vertex 8.5037 1.11472 -5
    endloop
  endfacet
  facet normal -0.743145 -0.669131 0
    outer loop
      vertex 8.5037 1.11472 5
      vertex 8.71352 0.881678 -5
      vertex 8.71352 0.881678 5
    endloop
  endfacet
  facet normal -0.207912 -0.978148 0
    outer loop
      vertex 7.65679 1.49178 -5
      vertex 7.96352 1.42658 5
      vertex 7.65679 1.49178 5
    endloop
  endfacet
  facet normal -0.207912 -0.978148 -0
    outer loop
      vertex 7.96352 1.42658 5
      vertex 7.65679 1.49178 -5
      vertex 7.96352 1.42658 -5
    endloop
  endfacet
  facet normal -0.406736 -0.913546 0
    outer loop
      vertex 7.96352 1.42658 -5
      vertex 8.25 1.29904 5
      vertex 7.96352 1.42658 5
    endloop
  endfacet
  facet normal -0.406736 -0.913546 -0
    outer loop
      vertex 8.25 1.29904 5
      vertex 7.96352 1.42658 -5
      vertex 8.25 1.29904 -5
    endloop
  endfacet
  facet normal 0.866026 -0.5 0
    outer loop
      vertex 6.12968 0.610105 5
      vertex 6.28647 0.881678 -5
      vertex 6.28647 0.881678 5
    endloop
  endfacet
  facet normal 0.866026 -0.5 0
    outer loop
      vertex 6.28647 0.881678 -5
      vertex 6.12968 0.610105 5
      vertex 6.12968 0.610105 -5
    endloop
  endfacet
  facet normal 0.951056 -0.309018 0
    outer loop
      vertex 6.03278 0.311867 5
      vertex 6.12968 0.610105 -5
      vertex 6.12968 0.610105 5
    endloop
  endfacet
  facet normal 0.951056 -0.309018 0
    outer loop
      vertex 6.12968 0.610105 -5
      vertex 6.03278 0.311867 5
      vertex 6.03278 0.311867 -5
    endloop
  endfacet
  facet normal 0.587786 -0.809017 0
    outer loop
      vertex 6.4963 1.11472 -5
      vertex 6.75 1.29904 5
      vertex 6.4963 1.11472 5
    endloop
  endfacet
  facet normal 0.587786 -0.809017 0
    outer loop
      vertex 6.75 1.29904 5
      vertex 6.4963 1.11472 -5
      vertex 6.75 1.29904 -5
    endloop
  endfacet
  facet normal 0.207912 -0.978148 0
    outer loop
      vertex 7.03647 1.42658 -5
      vertex 7.34321 1.49178 5
      vertex 7.03647 1.42658 5
    endloop
  endfacet
  facet normal 0.207912 -0.978148 0
    outer loop
      vertex 7.34321 1.49178 5
      vertex 7.03647 1.42658 -5
      vertex 7.34321 1.49178 -5
    endloop
  endfacet
  facet normal -0.743145 0.669131 0
    outer loop
      vertex 8.5037 -1.11472 -5
      vertex 8.71352 -0.881678 5
      vertex 8.71352 -0.881678 -5
    endloop
  endfacet
  facet normal -0.743145 0.669131 0
    outer loop
      vertex 8.71352 -0.881678 5
      vertex 8.5037 -1.11472 -5
      vertex 8.5037 -1.11472 5
    endloop
  endfacet
  facet normal -0.951056 0.309018 0
    outer loop
      vertex 8.87032 -0.610105 -5
      vertex 8.96722 -0.311867 5
      vertex 8.96722 -0.311867 -5
    endloop
  endfacet
  facet normal -0.951056 0.309018 0
    outer loop
      vertex 8.96722 -0.311867 5
      vertex 8.87032 -0.610105 -5
      vertex 8.87032 -0.610105 5
    endloop
  endfacet
  facet normal -0.994522 0.104526 0
    outer loop
      vertex 8.96722 -0.311867 -5
      vertex 9 0 5
      vertex 9 0 -5
    endloop
  endfacet
  facet normal -0.994522 0.104526 0
    outer loop
      vertex 9 0 5
      vertex 8.96722 -0.311867 -5
      vertex 8.96722 -0.311867 5
    endloop
  endfacet
  facet normal 0.866026 0.5 0
    outer loop
      vertex 6.28647 -0.881678 5
      vertex 6.12968 -0.610105 -5
      vertex 6.12968 -0.610105 5
    endloop
  endfacet
  facet normal 0.866026 0.5 0
    outer loop
      vertex 6.12968 -0.610105 -5
      vertex 6.28647 -0.881678 5
      vertex 6.28647 -0.881678 -5
    endloop
  endfacet
  facet normal -0.587786 0.809017 0
    outer loop
      vertex 8.5037 -1.11472 -5
      vertex 8.25 -1.29904 5
      vertex 8.5037 -1.11472 5
    endloop
  endfacet
  facet normal -0.587786 0.809017 0
    outer loop
      vertex 8.25 -1.29904 5
      vertex 8.5037 -1.11472 -5
      vertex 8.25 -1.29904 -5
    endloop
  endfacet
  facet normal 0.207912 0.978148 -0
    outer loop
      vertex 7.34321 -1.49178 -5
      vertex 7.03647 -1.42658 5
      vertex 7.34321 -1.49178 5
    endloop
  endfacet
  facet normal 0.207912 0.978148 0
    outer loop
      vertex 7.03647 -1.42658 5
      vertex 7.34321 -1.49178 -5
      vertex 7.03647 -1.42658 -5
    endloop
  endfacet
  facet normal 0.406736 0.913546 -0
    outer loop
      vertex 7.03647 -1.42658 -5
      vertex 6.75 -1.29904 5
      vertex 7.03647 -1.42658 5
    endloop
  endfacet
  facet normal 0.406736 0.913546 0
    outer loop
      vertex 6.75 -1.29904 5
      vertex 7.03647 -1.42658 -5
      vertex 6.75 -1.29904 -5
    endloop
  endfacet
  facet normal 0.743145 0.669131 0
    outer loop
      vertex 6.4963 -1.11472 5
      vertex 6.28647 -0.881678 -5
      vertex 6.28647 -0.881678 5
    endloop
  endfacet
  facet normal 0.743145 0.669131 0
    outer loop
      vertex 6.28647 -0.881678 -5
      vertex 6.4963 -1.11472 5
      vertex 6.4963 -1.11472 -5
    endloop
  endfacet
  facet normal 0.951056 0.309018 0
    outer loop
      vertex 6.12968 -0.610105 5
      vertex 6.03278 -0.311867 -5
      vertex 6.03278 -0.311867 5
    endloop
  endfacet
  facet normal 0.951056 0.309018 0
    outer loop
      vertex 6.03278 -0.311867 -5
      vertex 6.12968 -0.610105 5
      vertex 6.12968 -0.610105 -5
    endloop
  endfacet
  facet normal 0.994522 0.104526 0
    outer loop
      vertex 6.03278 -0.311867 5
      vertex 6 0 -5
      vertex 6 0 5
    endloop
  endfacet
  facet normal 0.994522 0.104526 0
    outer loop
      vertex 6 0 -5
      vertex 6.03278 -0.311867 5
      vertex 6.03278 -0.311867 -5
    endloop
  endfacet
  facet normal -0.406736 0.913546 0
    outer loop
      vertex 8.25 -1.29904 -5
      vertex 7.96352 -1.42658 5
      vertex 8.25 -1.29904 5
    endloop
  endfacet
  facet normal -0.406736 0.913546 0
    outer loop
      vertex 7.96352 -1.42658 5
      vertex 8.25 -1.29904 -5
      vertex 7.96352 -1.42658 -5
    endloop
  endfacet
  facet normal -0.207912 0.978148 0
    outer loop
      vertex 7.96352 -1.42658 -5
      vertex 7.65679 -1.49178 5
      vertex 7.96352 -1.42658 5
    endloop
  endfacet
  facet normal -0.207912 0.978148 0
    outer loop
      vertex 7.65679 -1.49178 5
      vertex 7.96352 -1.42658 -5
      vertex 7.65679 -1.49178 -5
    endloop
  endfacet
  facet normal 0.587786 0.809017 -0
    outer loop
      vertex 6.75 -1.29904 -5
      vertex 6.4963 -1.11472 5
      vertex 6.75 -1.29904 5
    endloop
  endfacet
  facet normal 0.587786 0.809017 0
    outer loop
      vertex 6.4963 -1.11472 5
      vertex 6.75 -1.29904 -5
      vertex 6.4963 -1.11472 -5
    endloop
  endfacet
  facet normal -0.994522 -0.104532 0
    outer loop
      vertex 18 0 -5
      vertex 17.9672 0.311867 5
      vertex 17.9672 0.311867 -5
    endloop
  endfacet
  facet normal -0.994522 -0.104532 0
    outer loop
      vertex 17.9672 0.311867 5
      vertex 18 0 -5
      vertex 18 0 5
    endloop
  endfacet
  facet normal 0.994522 -0.104526 0
    outer loop
      vertex 15 0 5
      vertex 15.0328 0.311867 -5
      vertex 15.0328 0.311867 5
    endloop
  endfacet
  facet normal 0.994522 -0.104526 0
    outer loop
      vertex 15.0328 0.311867 -5
      vertex 15 0 5
      vertex 15 0 -5
    endloop
  endfacet
  facet normal 0 -1 0
    outer loop
      vertex 16.3432 1.49178 -5
      vertex 16.6568 1.49178 5
      vertex 16.3432 1.49178 5
    endloop
  endfacet
  facet normal 0 -1 -0
    outer loop
      vertex 16.6568 1.49178 5
      vertex 16.3432 1.49178 -5
      vertex 16.6568 1.49178 -5
    endloop
  endfacet
  facet normal 0 1 -0
    outer loop
      vertex 16.6568 -1.49178 -5
      vertex 16.3432 -1.49178 5
      vertex 16.6568 -1.49178 5
    endloop
  endfacet
  facet normal 0 1 0
    outer loop
      vertex 16.3432 -1.49178 5
      vertex 16.6568 -1.49178 -5
      vertex 16.3432 -1.49178 -5
    endloop
  endfacet
  facet normal -0.587786 -0.809017 0
    outer loop
      vertex 17.25 1.29904 -5
      vertex 17.5037 1.11472 5
      vertex 17.25 1.29904 5
    endloop
  endfacet
  facet normal -0.587786 -0.809017 -0
    outer loop
      vertex 17.5037 1.11472 5
      vertex 17.25 1.29904 -5
      vertex 17.5037 1.11472 -5
    endloop
  endfacet
  facet normal 0.743145 -0.669131 0
    outer loop
      vertex 15.2865 0.881678 5
      vertex 15.4963 1.11472 -5
      vertex 15.4963 1.11472 5
    endloop
  endfacet
  facet normal 0.743145 -0.669131 0
    outer loop
      vertex 15.4963 1.11472 -5
      vertex 15.2865 0.881678 5
      vertex 15.2865 0.881678 -5
    endloop
  endfacet
  facet normal 0.406736 -0.913546 0
    outer loop
      vertex 15.75 1.29904 -5
      vertex 16.0365 1.42658 5
      vertex 15.75 1.29904 5
    endloop
  endfacet
  facet normal 0.406736 -0.913546 0
    outer loop
      vertex 16.0365 1.42658 5
      vertex 15.75 1.29904 -5
      vertex 16.0365 1.42658 -5
    endloop
  endfacet
  facet normal -0.866024 0.500002 0
    outer loop
      vertex 17.7135 -0.881678 -5
      vertex 17.8703 -0.610105 5
      vertex 17.8703 -0.610105 -5
    endloop
  endfacet
  facet normal -0.866024 0.500002 0
    outer loop
      vertex 17.8703 -0.610105 5
      vertex 17.7135 -0.881678 -5
      vertex 17.7135 -0.881678 5
    endloop
  endfacet
  facet normal -0.866024 -0.500002 0
    outer loop
      vertex 17.8703 0.610105 -5
      vertex 17.7135 0.881678 5
      vertex 17.7135 0.881678 -5
    endloop
  endfacet
  facet normal -0.866024 -0.500002 0
    outer loop
      vertex 17.7135 0.881678 5
      vertex 17.8703 0.610105 -5
      vertex 17.8703 0.610105 5
    endloop
  endfacet
  facet normal -0.951057 -0.309016 0
    outer loop
      vertex 17.9672 0.311867 -5
      vertex 17.8703 0.610105 5
      vertex 17.8703 0.610105 -5
    endloop
  endfacet
  facet normal -0.951057 -0.309016 0
    outer loop
      vertex 17.8703 0.610105 5
      vertex 17.9672 0.311867 -5
      vertex 17.9672 0.311867 5
    endloop
  endfacet
  facet normal -0.743148 -0.669128 0
    outer loop
      vertex 17.7135 0.881678 -5
      vertex 17.5037 1.11472 5
      vertex 17.5037 1.11472 -5
    endloop
  endfacet
  facet normal -0.743148 -0.669128 0
    outer loop
      vertex 17.5037 1.11472 5
      vertex 17.7135 0.881678 -5
      vertex 17.7135 0.881678 5
    endloop
  endfacet
  facet normal -0.207912 -0.978148 0
    outer loop
      vertex 16.6568 1.49178 -5
      vertex 16.9635 1.42658 5
      vertex 16.6568 1.49178 5
    endloop
  endfacet
  facet normal -0.207912 -0.978148 -0
    outer loop
      vertex 16.9635 1.42658 5
      vertex 16.6568 1.49178 -5
      vertex 16.9635 1.42658 -5
    endloop
  endfacet
  facet normal -0.406734 -0.913547 0
    outer loop
      vertex 16.9635 1.42658 -5
      vertex 17.25 1.29904 5
      vertex 16.9635 1.42658 5
    endloop
  endfacet
  facet normal -0.406734 -0.913547 -0
    outer loop
      vertex 17.25 1.29904 5
      vertex 16.9635 1.42658 -5
      vertex 17.25 1.29904 -5
    endloop
  endfacet
  facet normal 0.866026 -0.5 0
    outer loop
      vertex 15.1297 0.610105 5
      vertex 15.2865 0.881678 -5
      vertex 15.2865 0.881678 5
    endloop
  endfacet
  facet normal 0.866026 -0.5 0
    outer loop
      vertex 15.2865 0.881678 -5
      vertex 15.1297 0.610105 5
      vertex 15.1297 0.610105 -5
    endloop
  endfacet
  facet normal 0.951056 -0.309018 0
    outer loop
      vertex 15.0328 0.311867 5
      vertex 15.1297 0.610105 -5
      vertex 15.1297 0.610105 5
    endloop
  endfacet
  facet normal 0.951056 -0.309018 0
    outer loop
      vertex 15.1297 0.610105 -5
      vertex 15.0328 0.311867 5
      vertex 15.0328 0.311867 -5
    endloop
  endfacet
  facet normal 0.587786 -0.809017 0
    outer loop
      vertex 15.4963 1.11472 -5
      vertex 15.75 1.29904 5
      vertex 15.4963 1.11472 5
    endloop
  endfacet
  facet normal 0.587786 -0.809017 0
    outer loop
      vertex 15.75 1.29904 5
      vertex 15.4963 1.11472 -5
      vertex 15.75 1.29904 -5
    endloop
  endfacet
  facet normal 0.207912 -0.978148 0
    outer loop
      vertex 16.0365 1.42658 -5
      vertex 16.3432 1.49178 5
      vertex 16.0365 1.42658 5
    endloop
  endfacet
  facet normal 0.207912 -0.978148 0
    outer loop
      vertex 16.3432 1.49178 5
      vertex 16.0365 1.42658 -5
      vertex 16.3432 1.49178 -5
    endloop
  endfacet
  facet normal 0.994522 0.104526 0
    outer loop
      vertex 15.0328 -0.311867 5
      vertex 15 0 -5
      vertex 15 0 5
    endloop
  endfacet
  facet normal 0.994522 0.104526 0
    outer loop
      vertex 15 0 -5
      vertex 15.0328 -0.311867 5
      vertex 15.0328 -0.311867 -5
    endloop
  endfacet
  facet normal -0.743148 0.669128 0
    outer loop
      vertex 17.5037 -1.11472 -5
      vertex 17.7135 -0.881678 5
      vertex 17.7135 -0.881678 -5
    endloop
  endfacet
  facet normal -0.743148 0.669128 0
    outer loop
      vertex 17.7135 -0.881678 5
      vertex 17.5037 -1.11472 -5
      vertex 17.5037 -1.11472 5
    endloop
  endfacet
  facet normal -0.951057 0.309016 0
    outer loop
      vertex 17.8703 -0.610105 -5
      vertex 17.9672 -0.311867 5
      vertex 17.9672 -0.311867 -5
    endloop
  endfacet
  facet normal -0.951057 0.309016 0
    outer loop
      vertex 17.9672 -0.311867 5
      vertex 17.8703 -0.610105 -5
      vertex 17.8703 -0.610105 5
    endloop
  endfacet
  facet normal -0.994522 0.104532 0
    outer loop
      vertex 17.9672 -0.311867 -5
      vertex 18 0 5
      vertex 18 0 -5
    endloop
  endfacet
  facet normal -0.994522 0.104532 0
    outer loop
      vertex 18 0 5
      vertex 17.9672 -0.311867 -5
      vertex 17.9672 -0.311867 5
    endloop
  endfacet
  facet normal 0.866026 0.5 0
    outer loop
      vertex 15.2865 -0.881678 5
      vertex 15.1297 -0.610105 -5
      vertex 15.1297 -0.610105 5
    endloop
  endfacet
  facet normal 0.866026 0.5 0
    outer loop
      vertex 15.1297 -0.610105 -5
      vertex 15.2865 -0.881678 5
      vertex 15.2865 -0.881678 -5
    endloop
  endfacet
  facet normal -0.207912 0.978148 0
    outer loop
      vertex 16.9635 -1.42658 -5
      vertex 16.6568 -1.49178 5
      vertex 16.9635 -1.42658 5
    endloop
  endfacet
  facet normal -0.207912 0.978148 0
    outer loop
      vertex 16.6568 -1.49178 5
      vertex 16.9635 -1.42658 -5
      vertex 16.6568 -1.49178 -5
    endloop
  endfacet
  facet normal -0.587786 0.809017 0
    outer loop
      vertex 17.5037 -1.11472 -5
      vertex 17.25 -1.29904 5
      vertex 17.5037 -1.11472 5
    endloop
  endfacet
  facet normal -0.587786 0.809017 0
    outer loop
      vertex 17.25 -1.29904 5
      vertex 17.5037 -1.11472 -5
      vertex 17.25 -1.29904 -5
    endloop
  endfacet
  facet normal 0.406736 0.913546 -0
    outer loop
      vertex 16.0365 -1.42658 -5
      vertex 15.75 -1.29904 5
      vertex 16.0365 -1.42658 5
    endloop
  endfacet
  facet normal 0.406736 0.913546 0
    outer loop
      vertex 15.75 -1.29904 5
      vertex 16.0365 -1.42658 -5
      vertex 15.75 -1.29904 -5
    endloop
  endfacet
  facet normal 0.743145 0.669131 0
    outer loop
      vertex 15.4963 -1.11472 5
      vertex 15.2865 -0.881678 -5
      vertex 15.2865 -0.881678 5
    endloop
  endfacet
  facet normal 0.743145 0.669131 0
    outer loop
      vertex 15.2865 -0.881678 -5
      vertex 15.4963 -1.11472 5
      vertex 15.4963 -1.11472 -5
    endloop
  endfacet
  facet normal 0.951056 0.309018 0
    outer loop
      vertex 15.1297 -0.610105 5
      vertex 15.0328 -0.311867 -5
      vertex 15.0328 -0.311867 5
    endloop
  endfacet
  facet normal 0.951056 0.309018 0
    outer loop
      vertex 15.0328 -0.311867 -5
      vertex 15.1297 -0.610105 5
      vertex 15.1297 -0.610105 -5
    endloop
  endfacet
  facet normal -0.406734 0.913547 0
    outer loop
      vertex 17.25 -1.29904 -5
      vertex 16.9635 -1.42658 5
      vertex 17.25 -1.29904 5
    endloop
  endfacet
  facet normal -0.406734 0.913547 0
    outer loop
      vertex 16.9635 -1.42658 5
      vertex 17.25 -1.29904 -5
      vertex 16.9635 -1.42658 -5
    endloop
  endfacet
  facet normal 0.587786 0.809017 -0
    outer loop
      vertex 15.75 -1.29904 -5
      vertex 15.4963 -1.11472 5
      vertex 15.75 -1.29904 5
    endloop
  endfacet
  facet normal 0.587786 0.809017 0
    outer loop
      vertex 15.4963 -1.11472 5
      vertex 15.75 -1.29904 -5
      vertex 15.4963 -1.11472 -5
    endloop
  endfacet
  facet normal 0.207912 0.978148 -0
    outer loop
      vertex 16.3432 -1.49178 -5
      vertex 16.0365 -1.42658 5
      vertex 16.3432 -1.49178 5
    endloop
  endfacet
  facet normal 0.207912 0.978148 0
    outer loop
      vertex 16.0365 -1.42658 5
      vertex 16.3432 -1.49178 -5
      vertex 16.0365 -1.42658 -5
    endloop
  endfacet
  facet normal -0.866024 -0.500002 0
    outer loop
      vertex 26.8703 0.610105 -5
      vertex 26.7135 0.881678 5
      vertex 26.7135 0.881678 -5
    endloop
  endfacet
  facet normal -0.866024 -0.500002 0
    outer loop
      vertex 26.7135 0.881678 5
      vertex 26.8703 0.610105 -5
      vertex 26.8703 0.610105 5
    endloop
  endfacet
  facet normal 0.994522 -0.104526 0
    outer loop
      vertex 24 0 5
      vertex 24.0328 0.311867 -5
      vertex 24.0328 0.311867 5
    endloop
  endfacet
  facet normal 0.994522 -0.104526 0
    outer loop
      vertex 24.0328 0.311867 -5
      vertex 24 0 5
      vertex 24 0 -5
    endloop
  endfacet
  facet normal 0.994522 0.104526 0
    outer loop
      vertex 24.0328 -0.311867 5
      vertex 24 0 -5
      vertex 24 0 5
    endloop
  endfacet
  facet normal 0.994522 0.104526 0
    outer loop
      vertex 24 0 -5
      vertex 24.0328 -0.311867 5
      vertex 24.0328 -0.311867 -5
    endloop
  endfacet
  facet normal 0 -1 0
    outer loop
      vertex 25.3432 1.49178 -5
      vertex 25.6568 1.49178 5
      vertex 25.3432 1.49178 5
    endloop
  endfacet
  facet normal 0 -1 -0
    outer loop
      vertex 25.6568 1.49178 5
      vertex 25.3432 1.49178 -5
      vertex 25.6568 1.49178 -5
    endloop
  endfacet
  facet normal -0.743148 -0.669128 0
    outer loop
      vertex 26.7135 0.881678 -5
      vertex 26.5037 1.11472 5
      vertex 26.5037 1.11472 -5
    endloop
  endfacet
  facet normal -0.743148 -0.669128 0
    outer loop
      vertex 26.5037 1.11472 5
      vertex 26.7135 0.881678 -5
      vertex 26.7135 0.881678 5
    endloop
  endfacet
  facet normal -0.207912 -0.978148 0
    outer loop
      vertex 25.6568 1.49178 -5
      vertex 25.9635 1.42658 5
      vertex 25.6568 1.49178 5
    endloop
  endfacet
  facet normal -0.207912 -0.978148 -0
    outer loop
      vertex 25.9635 1.42658 5
      vertex 25.6568 1.49178 -5
      vertex 25.9635 1.42658 -5
    endloop
  endfacet
  facet normal 0.406736 -0.913546 0
    outer loop
      vertex 24.75 1.29904 -5
      vertex 25.0365 1.42658 5
      vertex 24.75 1.29904 5
    endloop
  endfacet
  facet normal 0.406736 -0.913546 0
    outer loop
      vertex 25.0365 1.42658 5
      vertex 24.75 1.29904 -5
      vertex 25.0365 1.42658 -5
    endloop
  endfacet
  facet normal 0.951057 -0.309016 0
    outer loop
      vertex 24.0328 0.311867 5
      vertex 24.1297 0.610105 -5
      vertex 24.1297 0.610105 5
    endloop
  endfacet
  facet normal 0.951057 -0.309016 0
    outer loop
      vertex 24.1297 0.610105 -5
      vertex 24.0328 0.311867 5
      vertex 24.0328 0.311867 -5
    endloop
  endfacet
  facet normal -0.994522 0.104532 0
    outer loop
      vertex 26.9672 -0.311867 -5
      vertex 27 0 5
      vertex 27 0 -5
    endloop
  endfacet
  facet normal -0.994522 0.104532 0
    outer loop
      vertex 27 0 5
      vertex 26.9672 -0.311867 -5
      vertex 26.9672 -0.311867 5
    endloop
  endfacet
  facet normal -0.207912 0.978148 0
    outer loop
      vertex 25.9635 -1.42658 -5
      vertex 25.6568 -1.49178 5
      vertex 25.9635 -1.42658 5
    endloop
  endfacet
  facet normal -0.207912 0.978148 0
    outer loop
      vertex 25.6568 -1.49178 5
      vertex 25.9635 -1.42658 -5
      vertex 25.6568 -1.49178 -5
    endloop
  endfacet
  facet normal -0.951057 -0.309016 0
    outer loop
      vertex 26.9672 0.311867 -5
      vertex 26.8703 0.610105 5
      vertex 26.8703 0.610105 -5
    endloop
  endfacet
  facet normal -0.951057 -0.309016 0
    outer loop
      vertex 26.8703 0.610105 5
      vertex 26.9672 0.311867 -5
      vertex 26.9672 0.311867 5
    endloop
  endfacet
  facet normal -0.587786 -0.809017 0
    outer loop
      vertex 26.25 1.29904 -5
      vertex 26.5037 1.11472 5
      vertex 26.25 1.29904 5
    endloop
  endfacet
  facet normal -0.587786 -0.809017 -0
    outer loop
      vertex 26.5037 1.11472 5
      vertex 26.25 1.29904 -5
      vertex 26.5037 1.11472 -5
    endloop
  endfacet
  facet normal -0.406734 -0.913547 0
    outer loop
      vertex 25.9635 1.42658 -5
      vertex 26.25 1.29904 5
      vertex 25.9635 1.42658 5
    endloop
  endfacet
  facet normal -0.406734 -0.913547 -0
    outer loop
      vertex 26.25 1.29904 5
      vertex 25.9635 1.42658 -5
      vertex 26.25 1.29904 -5
    endloop
  endfacet
  facet normal 0.866024 -0.500002 0
    outer loop
      vertex 24.1297 0.610105 5
      vertex 24.2865 0.881678 -5
      vertex 24.2865 0.881678 5
    endloop
  endfacet
  facet normal 0.866024 -0.500002 0
    outer loop
      vertex 24.2865 0.881678 -5
      vertex 24.1297 0.610105 5
      vertex 24.1297 0.610105 -5
    endloop
  endfacet
  facet normal 0.587786 -0.809017 0
    outer loop
      vertex 24.4963 1.11472 -5
      vertex 24.75 1.29904 5
      vertex 24.4963 1.11472 5
    endloop
  endfacet
  facet normal 0.587786 -0.809017 0
    outer loop
      vertex 24.75 1.29904 5
      vertex 24.4963 1.11472 -5
      vertex 24.75 1.29904 -5
    endloop
  endfacet
  facet normal 0.207912 -0.978148 0
    outer loop
      vertex 25.0365 1.42658 -5
      vertex 25.3432 1.49178 5
      vertex 25.0365 1.42658 5
    endloop
  endfacet
  facet normal 0.207912 -0.978148 0
    outer loop
      vertex 25.3432 1.49178 5
      vertex 25.0365 1.42658 -5
      vertex 25.3432 1.49178 -5
    endloop
  endfacet
  facet normal 0.743145 -0.669131 0
    outer loop
      vertex 24.2865 0.881678 5
      vertex 24.4963 1.11472 -5
      vertex 24.4963 1.11472 5
    endloop
  endfacet
  facet normal 0.743145 -0.669131 0
    outer loop
      vertex 24.4963 1.11472 -5
      vertex 24.2865 0.881678 5
      vertex 24.2865 0.881678 -5
    endloop
  endfacet
  facet normal -0.994522 -0.104532 0
    outer loop
      vertex 27 0 -5
      vertex 26.9672 0.311867 5
      vertex 26.9672 0.311867 -5
    endloop
  endfacet
  facet normal -0.994522 -0.104532 0
    outer loop
      vertex 26.9672 0.311867 5
      vertex 27 0 -5
      vertex 27 0 5
    endloop
  endfacet
  facet normal -0.951057 0.309016 0
    outer loop
      vertex 26.8703 -0.610105 -5
      vertex 26.9672 -0.311867 5
      vertex 26.9672 -0.311867 -5
    endloop
  endfacet
  facet normal -0.951057 0.309016 0
    outer loop
      vertex 26.9672 -0.311867 5
      vertex 26.8703 -0.610105 -5
      vertex 26.8703 -0.610105 5
    endloop
  endfacet
  facet normal -0.587786 0.809017 0
    outer loop
      vertex 26.5037 -1.11472 -5
      vertex 26.25 -1.29904 5
      vertex 26.5037 -1.11472 5
    endloop
  endfacet
  facet normal -0.587786 0.809017 0
    outer loop
      vertex 26.25 -1.29904 5
      vertex 26.5037 -1.11472 -5
      vertex 26.25 -1.29904 -5
    endloop
  endfacet
  facet normal -0.866024 0.500002 0
    outer loop
      vertex 26.7135 -0.881678 -5
      vertex 26.8703 -0.610105 5
      vertex 26.8703 -0.610105 -5
    endloop
  endfacet
  facet normal -0.866024 0.500002 0
    outer loop
      vertex 26.8703 -0.610105 5
      vertex 26.7135 -0.881678 -5
      vertex 26.7135 -0.881678 5
    endloop
  endfacet
  facet normal 0 1 -0
    outer loop
      vertex 25.6568 -1.49178 -5
      vertex 25.3432 -1.49178 5
      vertex 25.6568 -1.49178 5
    endloop
  endfacet
  facet normal 0 1 0
    outer loop
      vertex 25.3432 -1.49178 5
      vertex 25.6568 -1.49178 -5
      vertex 25.3432 -1.49178 -5
    endloop
  endfacet
  facet normal -0.406734 0.913547 0
    outer loop
      vertex 26.25 -1.29904 -5
      vertex 25.9635 -1.42658 5
      vertex 26.25 -1.29904 5
    endloop
  endfacet
  facet normal -0.406734 0.913547 0
    outer loop
      vertex 25.9635 -1.42658 5
      vertex 26.25 -1.29904 -5
      vertex 25.9635 -1.42658 -5
    endloop
  endfacet
  facet normal 0.207912 0.978148 -0
    outer loop
      vertex 25.3432 -1.49178 -5
      vertex 25.0365 -1.42658 5
      vertex 25.3432 -1.49178 5
    endloop
  endfacet
  facet normal 0.207912 0.978148 0
    outer loop
      vertex 25.0365 -1.42658 5
      vertex 25.3432 -1.49178 -5
      vertex 25.0365 -1.42658 -5
    endloop
  endfacet
  facet normal 0.866024 0.500002 0
    outer loop
      vertex 24.2865 -0.881678 5
      vertex 24.1297 -0.610105 -5
      vertex 24.1297 -0.610105 5
    endloop
  endfacet
  facet normal 0.866024 0.500002 0
    outer loop
      vertex 24.1297 -0.610105 -5
      vertex 24.2865 -0.881678 5
      vertex 24.2865 -0.881678 -5
    endloop
  endfacet
  facet normal 0.951057 0.309016 0
    outer loop
      vertex 24.1297 -0.610105 5
      vertex 24.0328 -0.311867 -5
      vertex 24.0328 -0.311867 5
    endloop
  endfacet
  facet normal 0.951057 0.309016 0
    outer loop
      vertex 24.0328 -0.311867 -5
      vertex 24.1297 -0.610105 5
      vertex 24.1297 -0.610105 -5
    endloop
  endfacet
  facet normal 0.743145 0.669131 0
    outer loop
      vertex 24.4963 -1.11472 5
      vertex 24.2865 -0.881678 -5
      vertex 24.2865 -0.881678 5
    endloop
  endfacet
  facet normal 0.743145 0.669131 0
    outer loop
      vertex 24.2865 -0.881678 -5
      vertex 24.4963 -1.11472 5
      vertex 24.4963 -1.11472 -5
    endloop
  endfacet
  facet normal -0.743148 0.669128 0
    outer loop
      vertex 26.5037 -1.11472 -5
      vertex 26.7135 -0.881678 5
      vertex 26.7135 -0.881678 -5
    endloop
  endfacet
  facet normal -0.743148 0.669128 0
    outer loop
      vertex 26.7135 -0.881678 5
      vertex 26.5037 -1.11472 -5
      vertex 26.5037 -1.11472 5
    endloop
  endfacet
  facet normal 0.406736 0.913546 -0
    outer loop
      vertex 25.0365 -1.42658 -5
      vertex 24.75 -1.29904 5
      vertex 25.0365 -1.42658 5
    endloop
  endfacet
  facet normal 0.406736 0.913546 0
    outer loop
      vertex 24.75 -1.29904 5
      vertex 25.0365 -1.42658 -5
      vertex 24.75 -1.29904 -5
    endloop
  endfacet
  facet normal 0.587786 0.809017 -0
    outer loop
      vertex 24.75 -1.29904 -5
      vertex 24.4963 -1.11472 5
      vertex 24.75 -1.29904 5
    endloop
  endfacet
  facet normal 0.587786 0.809017 0
    outer loop
      vertex 24.4963 -1.11472 5
      vertex 24.75 -1.29904 -5
      vertex 24.4963 -1.11472 -5
    endloop
  endfacet
  facet normal -0.866027 -0.499997 0
    outer loop
      vertex 35.8703 0.610105 -5
      vertex 35.7135 0.881678 5
      vertex 35.7135 0.881678 -5
    endloop
  endfacet
  facet normal -0.866027 -0.499997 0
    outer loop
      vertex 35.7135 0.881678 5
      vertex 35.8703 0.610105 -5
      vertex 35.8703 0.610105 5
    endloop
  endfacet
  facet normal 0.994523 -0.10452 0
    outer loop
      vertex 33 0 5
      vertex 33.0328 0.311867 -5
      vertex 33.0328 0.311867 5
    endloop
  endfacet
  facet normal 0.994523 -0.10452 0
    outer loop
      vertex 33.0328 0.311867 -5
      vertex 33 0 5
      vertex 33 0 -5
    endloop
  endfacet
  facet normal 0.994523 0.10452 0
    outer loop
      vertex 33.0328 -0.311867 5
      vertex 33 0 -5
      vertex 33 0 5
    endloop
  endfacet
  facet normal 0.994523 0.10452 0
    outer loop
      vertex 33 0 -5
      vertex 33.0328 -0.311867 5
      vertex 33.0328 -0.311867 -5
    endloop
  endfacet
  facet normal 0 -1 0
    outer loop
      vertex 34.3432 1.49178 -5
      vertex 34.6568 1.49178 5
      vertex 34.3432 1.49178 5
    endloop
  endfacet
  facet normal 0 -1 -0
    outer loop
      vertex 34.6568 1.49178 5
      vertex 34.3432 1.49178 -5
      vertex 34.6568 1.49178 -5
    endloop
  endfacet
  facet normal -0.743148 -0.669128 0
    outer loop
      vertex 35.7135 0.881678 -5
      vertex 35.5037 1.11472 5
      vertex 35.5037 1.11472 -5
    endloop
  endfacet
  facet normal -0.743148 -0.669128 0
    outer loop
      vertex 35.5037 1.11472 5
      vertex 35.7135 0.881678 -5
      vertex 35.7135 0.881678 5
    endloop
  endfacet
  facet normal -0.207912 -0.978148 0
    outer loop
      vertex 34.6568 1.49178 -5
      vertex 34.9635 1.42658 5
      vertex 34.6568 1.49178 5
    endloop
  endfacet
  facet normal -0.207912 -0.978148 -0
    outer loop
      vertex 34.9635 1.42658 5
      vertex 34.6568 1.49178 -5
      vertex 34.9635 1.42658 -5
    endloop
  endfacet
  facet normal 0.406734 -0.913547 0
    outer loop
      vertex 33.75 1.29904 -5
      vertex 34.0365 1.42658 5
      vertex 33.75 1.29904 5
    endloop
  endfacet
  facet normal 0.406734 -0.913547 0
    outer loop
      vertex 34.0365 1.42658 5
      vertex 33.75 1.29904 -5
      vertex 34.0365 1.42658 -5
    endloop
  endfacet
  facet normal 0.951055 -0.309021 0
    outer loop
      vertex 33.0328 0.311867 5
      vertex 33.1297 0.610105 -5
      vertex 33.1297 0.610105 5
    endloop
  endfacet
  facet normal 0.951055 -0.309021 0
    outer loop
      vertex 33.1297 0.610105 -5
      vertex 33.0328 0.311867 5
      vertex 33.0328 0.311867 -5
    endloop
  endfacet
  facet normal -0.994522 0.104532 0
    outer loop
      vertex 35.9672 -0.311867 -5
      vertex 36 0 5
      vertex 36 0 -5
    endloop
  endfacet
  facet normal -0.994522 0.104532 0
    outer loop
      vertex 36 0 5
      vertex 35.9672 -0.311867 -5
      vertex 35.9672 -0.311867 5
    endloop
  endfacet
  facet normal -0.207912 0.978148 0
    outer loop
      vertex 34.9635 -1.42658 -5
      vertex 34.6568 -1.49178 5
      vertex 34.9635 -1.42658 5
    endloop
  endfacet
  facet normal -0.207912 0.978148 0
    outer loop
      vertex 34.6568 -1.49178 5
      vertex 34.9635 -1.42658 -5
      vertex 34.6568 -1.49178 -5
    endloop
  endfacet
  facet normal -0.587786 -0.809017 0
    outer loop
      vertex 35.25 1.29904 -5
      vertex 35.5037 1.11472 5
      vertex 35.25 1.29904 5
    endloop
  endfacet
  facet normal -0.587786 -0.809017 -0
    outer loop
      vertex 35.5037 1.11472 5
      vertex 35.25 1.29904 -5
      vertex 35.5037 1.11472 -5
    endloop
  endfacet
  facet normal -0.406734 -0.913547 0
    outer loop
      vertex 34.9635 1.42658 -5
      vertex 35.25 1.29904 5
      vertex 34.9635 1.42658 5
    endloop
  endfacet
  facet normal -0.406734 -0.913547 -0
    outer loop
      vertex 35.25 1.29904 5
      vertex 34.9635 1.42658 -5
      vertex 35.25 1.29904 -5
    endloop
  endfacet
  facet normal 0.866022 -0.500007 0
    outer loop
      vertex 33.1297 0.610105 5
      vertex 33.2865 0.881678 -5
      vertex 33.2865 0.881678 5
    endloop
  endfacet
  facet normal 0.866022 -0.500007 0
    outer loop
      vertex 33.2865 0.881678 -5
      vertex 33.1297 0.610105 5
      vertex 33.1297 0.610105 -5
    endloop
  endfacet
  facet normal 0.587786 -0.809017 0
    outer loop
      vertex 33.4963 1.11472 -5
      vertex 33.75 1.29904 5
      vertex 33.4963 1.11472 5
    endloop
  endfacet
  facet normal 0.587786 -0.809017 0
    outer loop
      vertex 33.75 1.29904 5
      vertex 33.4963 1.11472 -5
      vertex 33.75 1.29904 -5
    endloop
  endfacet
  facet normal 0.207912 -0.978148 0
    outer loop
      vertex 34.0365 1.42658 -5
      vertex 34.3432 1.49178 5
      vertex 34.0365 1.42658 5
    endloop
  endfacet
  facet normal 0.207912 -0.978148 0
    outer loop
      vertex 34.3432 1.49178 5
      vertex 34.0365 1.42658 -5
      vertex 34.3432 1.49178 -5
    endloop
  endfacet
  facet normal 0.743148 -0.669128 0
    outer loop
      vertex 33.2865 0.881678 5
      vertex 33.4963 1.11472 -5
      vertex 33.4963 1.11472 5
    endloop
  endfacet
  facet normal 0.743148 -0.669128 0
    outer loop
      vertex 33.4963 1.11472 -5
      vertex 33.2865 0.881678 5
      vertex 33.2865 0.881678 -5
    endloop
  endfacet
  facet normal -0.994522 -0.104532 0
    outer loop
      vertex 36 0 -5
      vertex 35.9672 0.311867 5
      vertex 35.9672 0.311867 -5
    endloop
  endfacet
  facet normal -0.994522 -0.104532 0
    outer loop
      vertex 35.9672 0.311867 5
      vertex 36 0 -5
      vertex 36 0 5
    endloop
  endfacet
  facet normal -0.951055 0.309021 0
    outer loop
      vertex 35.8703 -0.610105 -5
      vertex 35.9672 -0.311867 5
      vertex 35.9672 -0.311867 -5
    endloop
  endfacet
  facet normal -0.951055 0.309021 0
    outer loop
      vertex 35.9672 -0.311867 5
      vertex 35.8703 -0.610105 -5
      vertex 35.8703 -0.610105 5
    endloop
  endfacet
  facet normal -0.587786 0.809017 0
    outer loop
      vertex 35.5037 -1.11472 -5
      vertex 35.25 -1.29904 5
      vertex 35.5037 -1.11472 5
    endloop
  endfacet
  facet normal -0.587786 0.809017 0
    outer loop
      vertex 35.25 -1.29904 5
      vertex 35.5037 -1.11472 -5
      vertex 35.25 -1.29904 -5
    endloop
  endfacet
  facet normal -0.951055 -0.309021 0
    outer loop
      vertex 35.9672 0.311867 -5
      vertex 35.8703 0.610105 5
      vertex 35.8703 0.610105 -5
    endloop
  endfacet
  facet normal -0.951055 -0.309021 0
    outer loop
      vertex 35.8703 0.610105 5
      vertex 35.9672 0.311867 -5
      vertex 35.9672 0.311867 5
    endloop
  endfacet
  facet normal -0.866027 0.499997 0
    outer loop
      vertex 35.7135 -0.881678 -5
      vertex 35.8703 -0.610105 5
      vertex 35.8703 -0.610105 -5
    endloop
  endfacet
  facet normal -0.866027 0.499997 0
    outer loop
      vertex 35.8703 -0.610105 5
      vertex 35.7135 -0.881678 -5
      vertex 35.7135 -0.881678 5
    endloop
  endfacet
  facet normal 0 1 -0
    outer loop
      vertex 34.6568 -1.49178 -5
      vertex 34.3432 -1.49178 5
      vertex 34.6568 -1.49178 5
    endloop
  endfacet
  facet normal 0 1 0
    outer loop
      vertex 34.3432 -1.49178 5
      vertex 34.6568 -1.49178 -5
      vertex 34.3432 -1.49178 -5
    endloop
  endfacet
  facet normal -0.406734 0.913547 0
    outer loop
      vertex 35.25 -1.29904 -5
      vertex 34.9635 -1.42658 5
      vertex 35.25 -1.29904 5
    endloop
  endfacet
  facet normal -0.406734 0.913547 0
    outer loop
      vertex 34.9635 -1.42658 5
      vertex 35.25 -1.29904 -5
      vertex 34.9635 -1.42658 -5
    endloop
  endfacet
  facet normal 0.866022 0.500007 0
    outer loop
      vertex 33.2865 -0.881678 5
      vertex 33.1297 -0.610105 -5
      vertex 33.1297 -0.610105 5
    endloop
  endfacet
  facet normal 0.866022 0.500007 0
    outer loop
      vertex 33.1297 -0.610105 -5
      vertex 33.2865 -0.881678 5
      vertex 33.2865 -0.881678 -5
    endloop
  endfacet
  facet normal 0.951055 0.309021 0
    outer loop
      vertex 33.1297 -0.610105 5
      vertex 33.0328 -0.311867 -5
      vertex 33.0328 -0.311867 5
    endloop
  endfacet
  facet normal 0.951055 0.309021 0
    outer loop
      vertex 33.0328 -0.311867 -5
      vertex 33.1297 -0.610105 5
      vertex 33.1297 -0.610105 -5
    endloop
  endfacet
  facet normal 0.743148 0.669128 0
    outer loop
      vertex 33.4963 -1.11472 5
      vertex 33.2865 -0.881678 -5
      vertex 33.2865 -0.881678 5
    endloop
  endfacet
  facet normal 0.743148 0.669128 0
    outer loop
      vertex 33.2865 -0.881678 -5
      vertex 33.4963 -1.11472 5
      vertex 33.4963 -1.11472 -5
    endloop
  endfacet
  facet normal -0.743148 0.669128 0
    outer loop
      vertex 35.5037 -1.11472 -5
      vertex 35.7135 -0.881678 5
      vertex 35.7135 -0.881678 -5
    endloop
  endfacet
  facet normal -0.743148 0.669128 0
    outer loop
      vertex 35.7135 -0.881678 5
      vertex 35.5037 -1.11472 -5
      vertex 35.5037 -1.11472 5
    endloop
  endfacet
  facet normal 0.587786 0.809017 -0
    outer loop
      vertex 33.75 -1.29904 -5
      vertex 33.4963 -1.11472 5
      vertex 33.75 -1.29904 5
    endloop
  endfacet
  facet normal 0.587786 0.809017 0
    outer loop
      vertex 33.4963 -1.11472 5
      vertex 33.75 -1.29904 -5
      vertex 33.4963 -1.11472 -5
    endloop
  endfacet
  facet normal 0.406734 0.913547 -0
    outer loop
      vertex 34.0365 -1.42658 -5
      vertex 33.75 -1.29904 5
      vertex 34.0365 -1.42658 5
    endloop
  endfacet
  facet normal 0.406734 0.913547 0
    outer loop
      vertex 33.75 -1.29904 5
      vertex 34.0365 -1.42658 -5
      vertex 33.75 -1.29904 -5
    endloop
  endfacet
  facet normal 0.207912 0.978148 -0
    outer loop
      vertex 34.3432 -1.49178 -5
      vertex 34.0365 -1.42658 5
      vertex 34.3432 -1.49178 5
    endloop
  endfacet
  facet normal 0.207912 0.978148 0
    outer loop
      vertex 34.0365 -1.42658 5
      vertex 34.3432 -1.49178 -5
      vertex 34.0365 -1.42658 -5
    endloop
  endfacet
endsolid OpenSCAD_Model
