solid OpenSCAD_Model
  facet normal 0 0 -1
    outer loop
      vertex 33.7613 -0.734731 -5
      vertex 37 -2 -5
      vertex 36.9563 -2.41582 -5
    endloop
  endfacet
  facet normal 0 0 -1
    outer loop
      vertex 37 -2 -5
      vertex 34 0 -5
      vertex 37 2 -5
    endloop
  endfacet
  facet normal 0 0 -1
    outer loop
      vertex 33.7613 -0.734731 -5
      vertex 36.9563 -2.41582 -5
      vertex 36.8271 -2.81347 -5
    endloop
  endfacet
  facet normal 0 0 -1
    outer loop
      vertex 33.9727 0.25989 -5
      vertex 37 2 -5
      vertex 34 0 -5
    endloop
  endfacet
  facet normal 0 0 -1
    outer loop
      vertex 33.7613 -0.734731 -5
      vertex 36.8271 -2.81347 -5
      vertex 36.618 -3.17557 -5
    endloop
  endfacet
  facet normal 0 0 -1
    outer loop
      vertex 33.8919 0.50842 -5
      vertex 37 2 -5
      vertex 33.9727 0.25989 -5
    endloop
  endfacet
  facet normal 0 0 -1
    outer loop
      vertex 33.7613 -0.734731 -5
      vertex 36.618 -3.17557 -5
      vertex 36.3383 -3.48629 -5
    endloop
  endfacet
  facet normal 0 0 -1
    outer loop
      vertex 33.7613 0.734731 -5
      vertex 37 2 -5
      vertex 33.8919 0.50842 -5
    endloop
  endfacet
  facet normal 0 0 -1
    outer loop
      vertex 33.7613 -0.734731 -5
      vertex 36.3383 -3.48629 -5
      vertex 36 -3.73205 -5
    endloop
  endfacet
  facet normal -0 0 -1
    outer loop
      vertex 37 2 -5
      vertex 33.7613 0.734731 -5
      vertex 36.9563 2.41582 -5
    endloop
  endfacet
  facet normal 0 0 -1
    outer loop
      vertex 33.5864 -0.92893 -5
      vertex 36 -3.73205 -5
      vertex 35.618 -3.90211 -5
    endloop
  endfacet
  facet normal -0 0 -1
    outer loop
      vertex 36.9563 2.41582 -5
      vertex 33.7613 0.734731 -5
      vertex 36.8271 2.81347 -5
    endloop
  endfacet
  facet normal 0 0 -1
    outer loop
      vertex 33.5864 -0.92893 -5
      vertex 35.618 -3.90211 -5
      vertex 35.2091 -3.98904 -5
    endloop
  endfacet
  facet normal -0 0 -1
    outer loop
      vertex 36.8271 2.81347 -5
      vertex 33.7613 0.734731 -5
      vertex 36.618 3.17557 -5
    endloop
  endfacet
  facet normal -0 0 -1
    outer loop
      vertex 36.618 3.17557 -5
      vertex 33.7613 0.734731 -5
      vertex 36.3383 3.48629 -5
    endloop
  endfacet
  facet normal 0 0 -1
    outer loop
      vertex 37 -2 -5
      vertex 33.9727 -0.25989 -5
      vertex 34 0 -5
    endloop
  endfacet
  facet normal 0 0 -1
    outer loop
      vertex 37 -2 -5
      vertex 33.8919 -0.50842 -5
      vertex 33.9727 -0.25989 -5
    endloop
  endfacet
  facet normal 0 0 -1
    outer loop
      vertex 37 -2 -5
      vertex 33.7613 -0.734731 -5
      vertex 33.8919 -0.50842 -5
    endloop
  endfacet
  facet normal 0 0 -1
    outer loop
      vertex 36 -3.73205 -5
      vertex 33.5864 -0.92893 -5
      vertex 33.7613 -0.734731 -5
    endloop
  endfacet
  facet normal 0 0 -1
    outer loop
      vertex 35.2091 -3.98904 -5
      vertex 33.375 -1.08253 -5
      vertex 33.5864 -0.92893 -5
    endloop
  endfacet
  facet normal 0 0 -1
    outer loop
      vertex 35.2091 -3.98904 -5
      vertex 33.1363 -1.18882 -5
      vertex 33.375 -1.08253 -5
    endloop
  endfacet
  facet normal 0 0 -1
    outer loop
      vertex 35.2091 -3.98904 -5
      vertex 32.8807 -1.24315 -5
      vertex 33.1363 -1.18882 -5
    endloop
  endfacet
  facet normal 0 0 -1
    outer loop
      vertex 35.2091 -3.98904 -5
      vertex 32.6193 -1.24315 -5
      vertex 32.8807 -1.24315 -5
    endloop
  endfacet
  facet normal 0 0 -1
    outer loop
      vertex 35.2091 -3.98904 -5
      vertex 32.3637 -1.18882 -5
      vertex 32.6193 -1.24315 -5
    endloop
  endfacet
  facet normal 0 0 -1
    outer loop
      vertex 35.2091 -3.98904 -5
      vertex 32.125 -1.08253 -5
      vertex 32.3637 -1.18882 -5
    endloop
  endfacet
  facet normal 0 0 -1
    outer loop
      vertex 24.875 -1.08253 -5
      vertex 32.125 -1.08253 -5
      vertex 35.2091 -3.98904 -5
    endloop
  endfacet
  facet normal 0 0 -1
    outer loop
      vertex 31.5273 -0.25989 -5
      vertex 25.5 0 -5
      vertex 31.5 0 -5
    endloop
  endfacet
  facet normal 0 0 -1
    outer loop
      vertex 25.4727 -0.25989 -5
      vertex 31.5273 -0.25989 -5
      vertex 31.6081 -0.50842 -5
    endloop
  endfacet
  facet normal 0 0 -1
    outer loop
      vertex 25.3919 -0.50842 -5
      vertex 31.6081 -0.50842 -5
      vertex 31.7387 -0.734731 -5
    endloop
  endfacet
  facet normal 0 0 -1
    outer loop
      vertex 25.2613 -0.734731 -5
      vertex 31.7387 -0.734731 -5
      vertex 31.9136 -0.92893 -5
    endloop
  endfacet
  facet normal 0 0 -1
    outer loop
      vertex 32.125 -1.08253 -5
      vertex 24.875 -1.08253 -5
      vertex 31.9136 -0.92893 -5
    endloop
  endfacet
  facet normal 0 0 -1
    outer loop
      vertex 31.5273 -0.25989 -5
      vertex 25.4727 -0.25989 -5
      vertex 25.5 0 -5
    endloop
  endfacet
  facet normal 0 0 -1
    outer loop
      vertex 31.6081 -0.50842 -5
      vertex 25.3919 -0.50842 -5
      vertex 25.4727 -0.25989 -5
    endloop
  endfacet
  facet normal 0 0 -1
    outer loop
      vertex 31.7387 -0.734731 -5
      vertex 25.2613 -0.734731 -5
      vertex 25.3919 -0.50842 -5
    endloop
  endfacet
  facet normal 0 0 -1
    outer loop
      vertex 31.9136 -0.92893 -5
      vertex 25.0864 -0.92893 -5
      vertex 25.2613 -0.734731 -5
    endloop
  endfacet
  facet normal -0 0 -1
    outer loop
      vertex 31.9136 -0.92893 -5
      vertex 24.875 -1.08253 -5
      vertex 25.0864 -0.92893 -5
    endloop
  endfacet
  facet normal 0 0 -1
    outer loop
      vertex 35.2091 -3.98904 -5
      vertex 24.6363 -1.18882 -5
      vertex 24.875 -1.08253 -5
    endloop
  endfacet
  facet normal 0 0 -1
    outer loop
      vertex 35.2091 -3.98904 -5
      vertex 24.3807 -1.24315 -5
      vertex 24.6363 -1.18882 -5
    endloop
  endfacet
  facet normal 0 0 -1
    outer loop
      vertex 35.2091 -3.98904 -5
      vertex 24.1193 -1.24315 -5
      vertex 24.3807 -1.24315 -5
    endloop
  endfacet
  facet normal 0 0 -1
    outer loop
      vertex 15.8807 -1.24315 -5
      vertex 24.1193 -1.24315 -5
      vertex 35.2091 -3.98904 -5
    endloop
  endfacet
  facet normal 0 0 -1
    outer loop
      vertex 23.0273 -0.25989 -5
      vertex 17 0 -5
      vertex 23 0 -5
    endloop
  endfacet
  facet normal 0 0 -1
    outer loop
      vertex 16.9727 -0.25989 -5
      vertex 23.0273 -0.25989 -5
      vertex 23.1081 -0.50842 -5
    endloop
  endfacet
  facet normal 0 0 -1
    outer loop
      vertex 16.8919 -0.50842 -5
      vertex 23.1081 -0.50842 -5
      vertex 23.2387 -0.734731 -5
    endloop
  endfacet
  facet normal 0 0 -1
    outer loop
      vertex 16.7613 -0.734731 -5
      vertex 23.2387 -0.734731 -5
      vertex 23.4136 -0.92893 -5
    endloop
  endfacet
  facet normal 0 0 -1
    outer loop
      vertex 16.5864 -0.92893 -5
      vertex 23.4136 -0.92893 -5
      vertex 23.625 -1.08253 -5
    endloop
  endfacet
  facet normal 0 0 -1
    outer loop
      vertex 16.375 -1.08253 -5
      vertex 23.625 -1.08253 -5
      vertex 23.8637 -1.18882 -5
    endloop
  endfacet
  facet normal 0 0 -1
    outer loop
      vertex 24.1193 -1.24315 -5
      vertex 15.8807 -1.24315 -5
      vertex 23.8637 -1.18882 -5
    endloop
  endfacet
  facet normal 0 0 -1
    outer loop
      vertex 23.0273 -0.25989 -5
      vertex 16.9727 -0.25989 -5
      vertex 17 0 -5
    endloop
  endfacet
  facet normal 0 0 -1
    outer loop
      vertex 23.1081 -0.50842 -5
      vertex 16.8919 -0.50842 -5
      vertex 16.9727 -0.25989 -5
    endloop
  endfacet
  facet normal 0 0 -1
    outer loop
      vertex 23.2387 -0.734731 -5
      vertex 16.7613 -0.734731 -5
      vertex 16.8919 -0.50842 -5
    endloop
  endfacet
  facet normal 0 0 -1
    outer loop
      vertex 23.4136 -0.92893 -5
      vertex 16.5864 -0.92893 -5
      vertex 16.7613 -0.734731 -5
    endloop
  endfacet
  facet normal 0 0 -1
    outer loop
      vertex 23.625 -1.08253 -5
      vertex 16.375 -1.08253 -5
      vertex 16.5864 -0.92893 -5
    endloop
  endfacet
  facet normal 0 0 -1
    outer loop
      vertex 23.8637 -1.18882 -5
      vertex 16.1363 -1.18882 -5
      vertex 16.375 -1.08253 -5
    endloop
  endfacet
  facet normal -0 0 -1
    outer loop
      vertex 23.8637 -1.18882 -5
      vertex 15.8807 -1.24315 -5
      vertex 16.1363 -1.18882 -5
    endloop
  endfacet
  facet normal 0 0 -1
    outer loop
      vertex -0.209057 -3.98904 -5
      vertex 15.8807 -1.24315 -5
      vertex 35.2091 -3.98904 -5
    endloop
  endfacet
  facet normal 0 0 -1
    outer loop
      vertex 14.5273 -0.25989 -5
      vertex 8.5 0 -5
      vertex 14.5 0 -5
    endloop
  endfacet
  facet normal 0 0 -1
    outer loop
      vertex 8.47268 -0.25989 -5
      vertex 14.5273 -0.25989 -5
      vertex 14.6081 -0.50842 -5
    endloop
  endfacet
  facet normal 0 0 -1
    outer loop
      vertex 8.39193 -0.50842 -5
      vertex 14.6081 -0.50842 -5
      vertex 14.7387 -0.734731 -5
    endloop
  endfacet
  facet normal 0 0 -1
    outer loop
      vertex 8.26127 -0.734731 -5
      vertex 14.7387 -0.734731 -5
      vertex 14.9136 -0.92893 -5
    endloop
  endfacet
  facet normal 0 0 -1
    outer loop
      vertex 8.08641 -0.92893 -5
      vertex 14.9136 -0.92893 -5
      vertex 15.125 -1.08253 -5
    endloop
  endfacet
  facet normal 0 0 -1
    outer loop
      vertex 7.875 -1.08253 -5
      vertex 15.125 -1.08253 -5
      vertex 15.3637 -1.18882 -5
    endloop
  endfacet
  facet normal 0 0 -1
    outer loop
      vertex 7.63627 -1.18882 -5
      vertex 15.3637 -1.18882 -5
      vertex 15.6193 -1.24315 -5
    endloop
  endfacet
  facet normal 0 0 -1
    outer loop
      vertex 14.5273 -0.25989 -5
      vertex 8.47268 -0.25989 -5
      vertex 8.5 0 -5
    endloop
  endfacet
  facet normal -0 0 -1
    outer loop
      vertex 15.8807 -1.24315 -5
      vertex -0.209057 -3.98904 -5
      vertex 15.6193 -1.24315 -5
    endloop
  endfacet
  facet normal 0 0 -1
    outer loop
      vertex 14.6081 -0.50842 -5
      vertex 8.39193 -0.50842 -5
      vertex 8.47268 -0.25989 -5
    endloop
  endfacet
  facet normal 0 0 -1
    outer loop
      vertex 14.7387 -0.734731 -5
      vertex 8.26127 -0.734731 -5
      vertex 8.39193 -0.50842 -5
    endloop
  endfacet
  facet normal 0 0 -1
    outer loop
      vertex 14.9136 -0.92893 -5
      vertex 8.08641 -0.92893 -5
      vertex 8.26127 -0.734731 -5
    endloop
  endfacet
  facet normal 0 0 -1
    outer loop
      vertex 15.125 -1.08253 -5
      vertex 7.875 -1.08253 -5
      vertex 8.08641 -0.92893 -5
    endloop
  endfacet
  facet normal 0 0 -1
    outer loop
      vertex 15.3637 -1.18882 -5
      vertex 7.63627 -1.18882 -5
      vertex 7.875 -1.08253 -5
    endloop
  endfacet
  facet normal 0 -0 -1
    outer loop
      vertex 7.38066 -1.24315 -5
      vertex 15.6193 -1.24315 -5
      vertex -0.209057 -3.98904 -5
    endloop
  endfacet
  facet normal 0 0 -1
    outer loop
      vertex 15.6193 -1.24315 -5
      vertex 7.38066 -1.24315 -5
      vertex 7.63627 -1.18882 -5
    endloop
  endfacet
  facet normal -0 0 -1
    outer loop
      vertex 6.02732 -0.25989 -5
      vertex -0.209057 -3.98904 -5
      vertex 6 0 -5
    endloop
  endfacet
  facet normal -0 0 -1
    outer loop
      vertex 6.10807 -0.50842 -5
      vertex -0.209057 -3.98904 -5
      vertex 6.02732 -0.25989 -5
    endloop
  endfacet
  facet normal -0 0 -1
    outer loop
      vertex 6.23873 -0.734731 -5
      vertex -0.209057 -3.98904 -5
      vertex 6.10807 -0.50842 -5
    endloop
  endfacet
  facet normal -0 0 -1
    outer loop
      vertex 6.41359 -0.92893 -5
      vertex -0.209057 -3.98904 -5
      vertex 6.23873 -0.734731 -5
    endloop
  endfacet
  facet normal -0 0 -1
    outer loop
      vertex 6.625 -1.08253 -5
      vertex -0.209057 -3.98904 -5
      vertex 6.41359 -0.92893 -5
    endloop
  endfacet
  facet normal -0 0 -1
    outer loop
      vertex 6.86373 -1.18882 -5
      vertex -0.209057 -3.98904 -5
      vertex 6.625 -1.08253 -5
    endloop
  endfacet
  facet normal -0 0 -1
    outer loop
      vertex 7.11934 -1.24315 -5
      vertex -0.209057 -3.98904 -5
      vertex 6.86373 -1.18882 -5
    endloop
  endfacet
  facet normal -0 0 -1
    outer loop
      vertex 7.38066 -1.24315 -5
      vertex -0.209057 -3.98904 -5
      vertex 7.11934 -1.24315 -5
    endloop
  endfacet
  facet normal -0 0 -1
    outer loop
      vertex 36.3383 3.48629 -5
      vertex 33.7613 0.734731 -5
      vertex 36 3.73205 -5
    endloop
  endfacet
  facet normal 0 0 -1
    outer loop
      vertex 33.5864 0.92893 -5
      vertex 36 3.73205 -5
      vertex 33.7613 0.734731 -5
    endloop
  endfacet
  facet normal -0 0 -1
    outer loop
      vertex 36 3.73205 -5
      vertex 33.5864 0.92893 -5
      vertex 35.618 3.90211 -5
    endloop
  endfacet
  facet normal -0 0 -1
    outer loop
      vertex 35.618 3.90211 -5
      vertex 33.5864 0.92893 -5
      vertex 35.2091 3.98904 -5
    endloop
  endfacet
  facet normal 0 0 -1
    outer loop
      vertex 33.375 1.08253 -5
      vertex 35.2091 3.98904 -5
      vertex 33.5864 0.92893 -5
    endloop
  endfacet
  facet normal 0 0 -1
    outer loop
      vertex 33.1363 1.18882 -5
      vertex 35.2091 3.98904 -5
      vertex 33.375 1.08253 -5
    endloop
  endfacet
  facet normal 0 0 -1
    outer loop
      vertex 32.8807 1.24315 -5
      vertex 35.2091 3.98904 -5
      vertex 33.1363 1.18882 -5
    endloop
  endfacet
  facet normal 0 0 -1
    outer loop
      vertex 32.6193 1.24315 -5
      vertex 35.2091 3.98904 -5
      vertex 32.8807 1.24315 -5
    endloop
  endfacet
  facet normal 0 0 -1
    outer loop
      vertex 32.3637 1.18882 -5
      vertex 35.2091 3.98904 -5
      vertex 32.6193 1.24315 -5
    endloop
  endfacet
  facet normal 0 0 -1
    outer loop
      vertex 32.125 1.08253 -5
      vertex 35.2091 3.98904 -5
      vertex 32.3637 1.18882 -5
    endloop
  endfacet
  facet normal 0 0 -1
    outer loop
      vertex 24.875 1.08253 -5
      vertex 32.125 1.08253 -5
      vertex 31.9136 0.92893 -5
    endloop
  endfacet
  facet normal 0 0 -1
    outer loop
      vertex 25.5 0 -5
      vertex 31.5273 0.25989 -5
      vertex 31.5 0 -5
    endloop
  endfacet
  facet normal 0 0 -1
    outer loop
      vertex 25.4727 0.25989 -5
      vertex 31.5273 0.25989 -5
      vertex 25.5 0 -5
    endloop
  endfacet
  facet normal 0 0 -1
    outer loop
      vertex 31.5273 0.25989 -5
      vertex 25.4727 0.25989 -5
      vertex 31.6081 0.50842 -5
    endloop
  endfacet
  facet normal 0 0 -1
    outer loop
      vertex 25.3919 0.50842 -5
      vertex 31.6081 0.50842 -5
      vertex 25.4727 0.25989 -5
    endloop
  endfacet
  facet normal 0 0 -1
    outer loop
      vertex 31.6081 0.50842 -5
      vertex 25.3919 0.50842 -5
      vertex 31.7387 0.734731 -5
    endloop
  endfacet
  facet normal 0 0 -1
    outer loop
      vertex 25.2613 0.734731 -5
      vertex 31.7387 0.734731 -5
      vertex 25.3919 0.50842 -5
    endloop
  endfacet
  facet normal 0 0 -1
    outer loop
      vertex 31.7387 0.734731 -5
      vertex 25.2613 0.734731 -5
      vertex 31.9136 0.92893 -5
    endloop
  endfacet
  facet normal 0 0 -1
    outer loop
      vertex 25.0864 0.92893 -5
      vertex 31.9136 0.92893 -5
      vertex 25.2613 0.734731 -5
    endloop
  endfacet
  facet normal 0 0 -1
    outer loop
      vertex 24.875 1.08253 -5
      vertex 31.9136 0.92893 -5
      vertex 25.0864 0.92893 -5
    endloop
  endfacet
  facet normal 0 0 -1
    outer loop
      vertex 32.125 1.08253 -5
      vertex 24.875 1.08253 -5
      vertex 35.2091 3.98904 -5
    endloop
  endfacet
  facet normal 0 0 -1
    outer loop
      vertex 24.6363 1.18882 -5
      vertex 35.2091 3.98904 -5
      vertex 24.875 1.08253 -5
    endloop
  endfacet
  facet normal 0 0 -1
    outer loop
      vertex 24.3807 1.24315 -5
      vertex 35.2091 3.98904 -5
      vertex 24.6363 1.18882 -5
    endloop
  endfacet
  facet normal 0 0 -1
    outer loop
      vertex 24.1193 1.24315 -5
      vertex 35.2091 3.98904 -5
      vertex 24.3807 1.24315 -5
    endloop
  endfacet
  facet normal 0 0 -1
    outer loop
      vertex 15.8807 1.24315 -5
      vertex 24.1193 1.24315 -5
      vertex 23.8637 1.18882 -5
    endloop
  endfacet
  facet normal 0 0 -1
    outer loop
      vertex 17 0 -5
      vertex 23.0273 0.25989 -5
      vertex 23 0 -5
    endloop
  endfacet
  facet normal 0 0 -1
    outer loop
      vertex 16.9727 0.25989 -5
      vertex 23.0273 0.25989 -5
      vertex 17 0 -5
    endloop
  endfacet
  facet normal 0 0 -1
    outer loop
      vertex 23.0273 0.25989 -5
      vertex 16.9727 0.25989 -5
      vertex 23.1081 0.50842 -5
    endloop
  endfacet
  facet normal 0 0 -1
    outer loop
      vertex 16.8919 0.50842 -5
      vertex 23.1081 0.50842 -5
      vertex 16.9727 0.25989 -5
    endloop
  endfacet
  facet normal 0 0 -1
    outer loop
      vertex 23.1081 0.50842 -5
      vertex 16.8919 0.50842 -5
      vertex 23.2387 0.734731 -5
    endloop
  endfacet
  facet normal 0 0 -1
    outer loop
      vertex 16.7613 0.734731 -5
      vertex 23.2387 0.734731 -5
      vertex 16.8919 0.50842 -5
    endloop
  endfacet
  facet normal 0 0 -1
    outer loop
      vertex 23.2387 0.734731 -5
      vertex 16.7613 0.734731 -5
      vertex 23.4136 0.92893 -5
    endloop
  endfacet
  facet normal 0 0 -1
    outer loop
      vertex 16.5864 0.92893 -5
      vertex 23.4136 0.92893 -5
      vertex 16.7613 0.734731 -5
    endloop
  endfacet
  facet normal 0 0 -1
    outer loop
      vertex 23.4136 0.92893 -5
      vertex 16.5864 0.92893 -5
      vertex 23.625 1.08253 -5
    endloop
  endfacet
  facet normal 0 0 -1
    outer loop
      vertex 16.375 1.08253 -5
      vertex 23.625 1.08253 -5
      vertex 16.5864 0.92893 -5
    endloop
  endfacet
  facet normal 0 0 -1
    outer loop
      vertex 23.625 1.08253 -5
      vertex 16.375 1.08253 -5
      vertex 23.8637 1.18882 -5
    endloop
  endfacet
  facet normal 0 0 -1
    outer loop
      vertex 16.1363 1.18882 -5
      vertex 23.8637 1.18882 -5
      vertex 16.375 1.08253 -5
    endloop
  endfacet
  facet normal 0 0 -1
    outer loop
      vertex 15.8807 1.24315 -5
      vertex 23.8637 1.18882 -5
      vertex 16.1363 1.18882 -5
    endloop
  endfacet
  facet normal 0 0 -1
    outer loop
      vertex 24.1193 1.24315 -5
      vertex 15.8807 1.24315 -5
      vertex 35.2091 3.98904 -5
    endloop
  endfacet
  facet normal 0 0 -1
    outer loop
      vertex -0.209057 3.98904 -5
      vertex 15.8807 1.24315 -5
      vertex 15.6193 1.24315 -5
    endloop
  endfacet
  facet normal 0 0 -1
    outer loop
      vertex 8.5 0 -5
      vertex 14.5273 0.25989 -5
      vertex 14.5 0 -5
    endloop
  endfacet
  facet normal 0 0 -1
    outer loop
      vertex 8.47268 0.25989 -5
      vertex 14.5273 0.25989 -5
      vertex 8.5 0 -5
    endloop
  endfacet
  facet normal 0 0 -1
    outer loop
      vertex 14.5273 0.25989 -5
      vertex 8.47268 0.25989 -5
      vertex 14.6081 0.50842 -5
    endloop
  endfacet
  facet normal 0 0 -1
    outer loop
      vertex 8.39193 0.50842 -5
      vertex 14.6081 0.50842 -5
      vertex 8.47268 0.25989 -5
    endloop
  endfacet
  facet normal 0 0 -1
    outer loop
      vertex 14.6081 0.50842 -5
      vertex 8.39193 0.50842 -5
      vertex 14.7387 0.734731 -5
    endloop
  endfacet
  facet normal 0 0 -1
    outer loop
      vertex 8.26127 0.734731 -5
      vertex 14.7387 0.734731 -5
      vertex 8.39193 0.50842 -5
    endloop
  endfacet
  facet normal 0 0 -1
    outer loop
      vertex 14.7387 0.734731 -5
      vertex 8.26127 0.734731 -5
      vertex 14.9136 0.92893 -5
    endloop
  endfacet
  facet normal 0 0 -1
    outer loop
      vertex 8.08641 0.92893 -5
      vertex 14.9136 0.92893 -5
      vertex 8.26127 0.734731 -5
    endloop
  endfacet
  facet normal 0 0 -1
    outer loop
      vertex 14.9136 0.92893 -5
      vertex 8.08641 0.92893 -5
      vertex 15.125 1.08253 -5
    endloop
  endfacet
  facet normal 0 0 -1
    outer loop
      vertex 7.875 1.08253 -5
      vertex 15.125 1.08253 -5
      vertex 8.08641 0.92893 -5
    endloop
  endfacet
  facet normal 0 0 -1
    outer loop
      vertex 15.125 1.08253 -5
      vertex 7.875 1.08253 -5
      vertex 15.3637 1.18882 -5
    endloop
  endfacet
  facet normal 0 0 -1
    outer loop
      vertex 7.63627 1.18882 -5
      vertex 15.3637 1.18882 -5
      vertex 7.875 1.08253 -5
    endloop
  endfacet
  facet normal 0 0 -1
    outer loop
      vertex 15.3637 1.18882 -5
      vertex 7.63627 1.18882 -5
      vertex 15.6193 1.24315 -5
    endloop
  endfacet
  facet normal 0 0 -1
    outer loop
      vertex 7.38066 1.24315 -5
      vertex 15.6193 1.24315 -5
      vertex 7.63627 1.18882 -5
    endloop
  endfacet
  facet normal 0 0 -1
    outer loop
      vertex 15.6193 1.24315 -5
      vertex 7.38066 1.24315 -5
      vertex -0.209057 3.98904 -5
    endloop
  endfacet
  facet normal 0 0 -1
    outer loop
      vertex -0.209057 3.98904 -5
      vertex 7.38066 1.24315 -5
      vertex 7.11934 1.24315 -5
    endloop
  endfacet
  facet normal 0 0 -1
    outer loop
      vertex -2 -2 -5
      vertex 6 0 -5
      vertex -0.209057 -3.98904 -5
    endloop
  endfacet
  facet normal 0 0 -1
    outer loop
      vertex -2 2 -5
      vertex 6 0 -5
      vertex -2 -2 -5
    endloop
  endfacet
  facet normal 0 -0 -1
    outer loop
      vertex -0.209057 3.98904 -5
      vertex 6 0 -5
      vertex -2 2 -5
    endloop
  endfacet
  facet normal 0 0 -1
    outer loop
      vertex 6 0 -5
      vertex -0.209057 3.98904 -5
      vertex 6.02732 0.25989 -5
    endloop
  endfacet
  facet normal 0 0 -1
    outer loop
      vertex 15.8807 1.24315 -5
      vertex -0.209057 3.98904 -5
      vertex 35.2091 3.98904 -5
    endloop
  endfacet
  facet normal 0 0 -1
    outer loop
      vertex 6.86373 1.18882 -5
      vertex -0.209057 3.98904 -5
      vertex 7.11934 1.24315 -5
    endloop
  endfacet
  facet normal 0 0 -1
    outer loop
      vertex 6.625 1.08253 -5
      vertex -0.209057 3.98904 -5
      vertex 6.86373 1.18882 -5
    endloop
  endfacet
  facet normal 0 0 -1
    outer loop
      vertex 6.41359 0.92893 -5
      vertex -0.209057 3.98904 -5
      vertex 6.625 1.08253 -5
    endloop
  endfacet
  facet normal 0 0 -1
    outer loop
      vertex 6.02732 0.25989 -5
      vertex -0.209057 3.98904 -5
      vertex 6.10807 0.50842 -5
    endloop
  endfacet
  facet normal 0 0 -1
    outer loop
      vertex -2 -2 -5
      vertex -0.209057 -3.98904 -5
      vertex -0.618033 -3.90211 -5
    endloop
  endfacet
  facet normal 0 0 -1
    outer loop
      vertex 6.10807 0.50842 -5
      vertex -0.209057 3.98904 -5
      vertex 6.23873 0.734731 -5
    endloop
  endfacet
  facet normal 0 0 -1
    outer loop
      vertex -0.209057 3.98904 -5
      vertex -2 2 -5
      vertex -0.618033 3.90211 -5
    endloop
  endfacet
  facet normal 0 0 -1
    outer loop
      vertex -2 -2 -5
      vertex -0.618033 -3.90211 -5
      vertex -1 -3.73205 -5
    endloop
  endfacet
  facet normal 0 0 -1
    outer loop
      vertex -2 -2 -5
      vertex -1 -3.73205 -5
      vertex -1.33826 -3.48629 -5
    endloop
  endfacet
  facet normal 0 0 -1
    outer loop
      vertex 6.23873 0.734731 -5
      vertex -0.209057 3.98904 -5
      vertex 6.41359 0.92893 -5
    endloop
  endfacet
  facet normal 0 0 -1
    outer loop
      vertex -2 -2 -5
      vertex -1.33826 -3.48629 -5
      vertex -1.61803 -3.17557 -5
    endloop
  endfacet
  facet normal 0 0 -1
    outer loop
      vertex -0.618033 3.90211 -5
      vertex -2 2 -5
      vertex -0.999999 3.73205 -5
    endloop
  endfacet
  facet normal 0 0 -1
    outer loop
      vertex -2 -2 -5
      vertex -1.61803 -3.17557 -5
      vertex -1.82709 -2.81347 -5
    endloop
  endfacet
  facet normal 0 0 -1
    outer loop
      vertex -0.999999 3.73205 -5
      vertex -2 2 -5
      vertex -1.33826 3.48629 -5
    endloop
  endfacet
  facet normal 0 0 -1
    outer loop
      vertex -2 -2 -5
      vertex -1.82709 -2.81347 -5
      vertex -1.9563 -2.41582 -5
    endloop
  endfacet
  facet normal 0 0 -1
    outer loop
      vertex -1.33826 3.48629 -5
      vertex -2 2 -5
      vertex -1.61803 3.17557 -5
    endloop
  endfacet
  facet normal 0 0 -1
    outer loop
      vertex -1.61803 3.17557 -5
      vertex -2 2 -5
      vertex -1.82709 2.81347 -5
    endloop
  endfacet
  facet normal 0 0 -1
    outer loop
      vertex -1.82709 2.81347 -5
      vertex -2 2 -5
      vertex -1.9563 2.41582 -5
    endloop
  endfacet
  facet normal 0 1 -0
    outer loop
      vertex 35.2091 3.98904 -5
      vertex -0.209057 3.98904 5
      vertex 35.2091 3.98904 5
    endloop
  endfacet
  facet normal 0 1 0
    outer loop
      vertex -0.209057 3.98904 5
      vertex 35.2091 3.98904 -5
      vertex -0.209057 3.98904 -5
    endloop
  endfacet
  facet normal -1 0 0
    outer loop
      vertex -2 -2 -5
      vertex -2 2 5
      vertex -2 2 -5
    endloop
  endfacet
  facet normal -1 -0 0
    outer loop
      vertex -2 2 5
      vertex -2 -2 -5
      vertex -2 -2 5
    endloop
  endfacet
  facet normal 0.20791 -0.978148 0
    outer loop
      vertex 35.2091 -3.98904 -5
      vertex 35.618 -3.90211 5
      vertex 35.2091 -3.98904 5
    endloop
  endfacet
  facet normal 0.20791 -0.978148 0
    outer loop
      vertex 35.618 -3.90211 5
      vertex 35.2091 -3.98904 -5
      vertex 35.618 -3.90211 -5
    endloop
  endfacet
  facet normal 0 -1 0
    outer loop
      vertex -0.209057 -3.98904 -5
      vertex 35.2091 -3.98904 5
      vertex -0.209057 -3.98904 5
    endloop
  endfacet
  facet normal 0 -1 -0
    outer loop
      vertex 35.2091 -3.98904 5
      vertex -0.209057 -3.98904 -5
      vertex 35.2091 -3.98904 -5
    endloop
  endfacet
  facet normal -0.994522 -0.104529 0
    outer loop
      vertex -1.9563 -2.41582 -5
      vertex -2 -2 5
      vertex -2 -2 -5
    endloop
  endfacet
  facet normal -0.994522 -0.104529 0
    outer loop
      vertex -2 -2 5
      vertex -1.9563 -2.41582 -5
      vertex -1.9563 -2.41582 5
    endloop
  endfacet
  facet normal 1 -0 0
    outer loop
      vertex 37 -2 5
      vertex 37 2 -5
      vertex 37 2 5
    endloop
  endfacet
  facet normal 1 0 0
    outer loop
      vertex 37 2 -5
      vertex 37 -2 5
      vertex 37 -2 -5
    endloop
  endfacet
  facet normal 0.587786 -0.809017 0
    outer loop
      vertex 36 -3.73205 -5
      vertex 36.3383 -3.48629 5
      vertex 36 -3.73205 5
    endloop
  endfacet
  facet normal 0.587786 -0.809017 0
    outer loop
      vertex 36.3383 -3.48629 5
      vertex 36 -3.73205 -5
      vertex 36.3383 -3.48629 -5
    endloop
  endfacet
  facet normal -0.207911 -0.978148 0
    outer loop
      vertex -0.618033 -3.90211 -5
      vertex -0.209057 -3.98904 5
      vertex -0.618033 -3.90211 5
    endloop
  endfacet
  facet normal -0.207911 -0.978148 -0
    outer loop
      vertex -0.209057 -3.98904 5
      vertex -0.618033 -3.90211 -5
      vertex -0.209057 -3.98904 -5
    endloop
  endfacet
  facet normal -0.994522 0.104529 0
    outer loop
      vertex -2 2 -5
      vertex -1.9563 2.41582 5
      vertex -1.9563 2.41582 -5
    endloop
  endfacet
  facet normal -0.994522 0.104529 0
    outer loop
      vertex -1.9563 2.41582 5
      vertex -2 2 -5
      vertex -2 2 5
    endloop
  endfacet
  facet normal -0.951056 0.309018 0
    outer loop
      vertex -1.9563 2.41582 -5
      vertex -1.82709 2.81347 5
      vertex -1.82709 2.81347 -5
    endloop
  endfacet
  facet normal -0.951056 0.309018 0
    outer loop
      vertex -1.82709 2.81347 5
      vertex -1.9563 2.41582 -5
      vertex -1.9563 2.41582 5
    endloop
  endfacet
  facet normal 0.994522 -0.104529 0
    outer loop
      vertex 36.9563 -2.41582 5
      vertex 37 -2 -5
      vertex 37 -2 5
    endloop
  endfacet
  facet normal 0.994522 -0.104529 0
    outer loop
      vertex 37 -2 -5
      vertex 36.9563 -2.41582 5
      vertex 36.9563 -2.41582 -5
    endloop
  endfacet
  facet normal -0.743144 -0.669131 0
    outer loop
      vertex -1.33826 -3.48629 -5
      vertex -1.61803 -3.17557 5
      vertex -1.61803 -3.17557 -5
    endloop
  endfacet
  facet normal -0.743144 -0.669131 0
    outer loop
      vertex -1.61803 -3.17557 5
      vertex -1.33826 -3.48629 -5
      vertex -1.33826 -3.48629 5
    endloop
  endfacet
  facet normal 0.406739 0.913545 -0
    outer loop
      vertex 36 3.73205 -5
      vertex 35.618 3.90211 5
      vertex 36 3.73205 5
    endloop
  endfacet
  facet normal 0.406739 0.913545 0
    outer loop
      vertex 35.618 3.90211 5
      vertex 36 3.73205 -5
      vertex 35.618 3.90211 -5
    endloop
  endfacet
  facet normal 0 0 1
    outer loop
      vertex 33.7613 0.734731 5
      vertex 37 2 5
      vertex 36.9563 2.41582 5
    endloop
  endfacet
  facet normal 0 0 1
    outer loop
      vertex 37 2 5
      vertex 34 0 5
      vertex 37 -2 5
    endloop
  endfacet
  facet normal 0 0 1
    outer loop
      vertex 33.7613 0.734731 5
      vertex 36.9563 2.41582 5
      vertex 36.8271 2.81347 5
    endloop
  endfacet
  facet normal -0 0 1
    outer loop
      vertex 33.9727 -0.25989 5
      vertex 37 -2 5
      vertex 34 0 5
    endloop
  endfacet
  facet normal 0 0 1
    outer loop
      vertex 33.7613 0.734731 5
      vertex 36.8271 2.81347 5
      vertex 36.618 3.17557 5
    endloop
  endfacet
  facet normal -0 0 1
    outer loop
      vertex 33.8919 -0.50842 5
      vertex 37 -2 5
      vertex 33.9727 -0.25989 5
    endloop
  endfacet
  facet normal 0 0 1
    outer loop
      vertex 33.7613 0.734731 5
      vertex 36.618 3.17557 5
      vertex 36.3383 3.48629 5
    endloop
  endfacet
  facet normal -0 0 1
    outer loop
      vertex 33.7613 -0.734731 5
      vertex 37 -2 5
      vertex 33.8919 -0.50842 5
    endloop
  endfacet
  facet normal 0 0 1
    outer loop
      vertex 33.7613 0.734731 5
      vertex 36.3383 3.48629 5
      vertex 36 3.73205 5
    endloop
  endfacet
  facet normal 0 0 1
    outer loop
      vertex 37 -2 5
      vertex 33.7613 -0.734731 5
      vertex 36.9563 -2.41582 5
    endloop
  endfacet
  facet normal 0 0 1
    outer loop
      vertex 33.5864 0.92893 5
      vertex 36 3.73205 5
      vertex 35.618 3.90211 5
    endloop
  endfacet
  facet normal 0 0 1
    outer loop
      vertex 36.9563 -2.41582 5
      vertex 33.7613 -0.734731 5
      vertex 36.8271 -2.81347 5
    endloop
  endfacet
  facet normal 0 0 1
    outer loop
      vertex 33.5864 0.92893 5
      vertex 35.618 3.90211 5
      vertex 35.2091 3.98904 5
    endloop
  endfacet
  facet normal 0 0 1
    outer loop
      vertex 36.8271 -2.81347 5
      vertex 33.7613 -0.734731 5
      vertex 36.618 -3.17557 5
    endloop
  endfacet
  facet normal 0 0 1
    outer loop
      vertex 36.618 -3.17557 5
      vertex 33.7613 -0.734731 5
      vertex 36.3383 -3.48629 5
    endloop
  endfacet
  facet normal 0 0 1
    outer loop
      vertex 37 2 5
      vertex 33.9727 0.25989 5
      vertex 34 0 5
    endloop
  endfacet
  facet normal 0 0 1
    outer loop
      vertex 37 2 5
      vertex 33.8919 0.50842 5
      vertex 33.9727 0.25989 5
    endloop
  endfacet
  facet normal 0 0 1
    outer loop
      vertex 37 2 5
      vertex 33.7613 0.734731 5
      vertex 33.8919 0.50842 5
    endloop
  endfacet
  facet normal 0 0 1
    outer loop
      vertex 36 3.73205 5
      vertex 33.5864 0.92893 5
      vertex 33.7613 0.734731 5
    endloop
  endfacet
  facet normal 0 0 1
    outer loop
      vertex 35.2091 3.98904 5
      vertex 33.375 1.08253 5
      vertex 33.5864 0.92893 5
    endloop
  endfacet
  facet normal 0 0 1
    outer loop
      vertex 35.2091 3.98904 5
      vertex 33.1363 1.18882 5
      vertex 33.375 1.08253 5
    endloop
  endfacet
  facet normal 0 0 1
    outer loop
      vertex 35.2091 3.98904 5
      vertex 32.8807 1.24315 5
      vertex 33.1363 1.18882 5
    endloop
  endfacet
  facet normal 0 0 1
    outer loop
      vertex 35.2091 3.98904 5
      vertex 32.6193 1.24315 5
      vertex 32.8807 1.24315 5
    endloop
  endfacet
  facet normal 0 0 1
    outer loop
      vertex 35.2091 3.98904 5
      vertex 32.3637 1.18882 5
      vertex 32.6193 1.24315 5
    endloop
  endfacet
  facet normal 0 0 1
    outer loop
      vertex 35.2091 3.98904 5
      vertex 32.125 1.08253 5
      vertex 32.3637 1.18882 5
    endloop
  endfacet
  facet normal 0 0 1
    outer loop
      vertex 24.875 1.08253 5
      vertex 32.125 1.08253 5
      vertex 35.2091 3.98904 5
    endloop
  endfacet
  facet normal 0 0 1
    outer loop
      vertex 31.5273 0.25989 5
      vertex 25.5 0 5
      vertex 31.5 0 5
    endloop
  endfacet
  facet normal 0 0 1
    outer loop
      vertex 25.4727 0.25989 5
      vertex 31.5273 0.25989 5
      vertex 31.6081 0.50842 5
    endloop
  endfacet
  facet normal 0 0 1
    outer loop
      vertex 25.3919 0.50842 5
      vertex 31.6081 0.50842 5
      vertex 31.7387 0.734731 5
    endloop
  endfacet
  facet normal 0 0 1
    outer loop
      vertex 25.2613 0.734731 5
      vertex 31.7387 0.734731 5
      vertex 31.9136 0.92893 5
    endloop
  endfacet
  facet normal 0 0 1
    outer loop
      vertex 32.125 1.08253 5
      vertex 24.875 1.08253 5
      vertex 31.9136 0.92893 5
    endloop
  endfacet
  facet normal 0 0 1
    outer loop
      vertex 31.5273 0.25989 5
      vertex 25.4727 0.25989 5
      vertex 25.5 0 5
    endloop
  endfacet
  facet normal 0 0 1
    outer loop
      vertex 31.6081 0.50842 5
      vertex 25.3919 0.50842 5
      vertex 25.4727 0.25989 5
    endloop
  endfacet
  facet normal 0 0 1
    outer loop
      vertex 31.7387 0.734731 5
      vertex 25.2613 0.734731 5
      vertex 25.3919 0.50842 5
    endloop
  endfacet
  facet normal 0 0 1
    outer loop
      vertex 31.9136 0.92893 5
      vertex 25.0864 0.92893 5
      vertex 25.2613 0.734731 5
    endloop
  endfacet
  facet normal 0 0 1
    outer loop
      vertex 31.9136 0.92893 5
      vertex 24.875 1.08253 5
      vertex 25.0864 0.92893 5
    endloop
  endfacet
  facet normal 0 0 1
    outer loop
      vertex 35.2091 3.98904 5
      vertex 24.6363 1.18882 5
      vertex 24.875 1.08253 5
    endloop
  endfacet
  facet normal 0 0 1
    outer loop
      vertex 35.2091 3.98904 5
      vertex 24.3807 1.24315 5
      vertex 24.6363 1.18882 5
    endloop
  endfacet
  facet normal 0 0 1
    outer loop
      vertex 35.2091 3.98904 5
      vertex 24.1193 1.24315 5
      vertex 24.3807 1.24315 5
    endloop
  endfacet
  facet normal 0 0 1
    outer loop
      vertex 15.8807 1.24315 5
      vertex 24.1193 1.24315 5
      vertex 35.2091 3.98904 5
    endloop
  endfacet
  facet normal 0 0 1
    outer loop
      vertex 23.0273 0.25989 5
      vertex 17 0 5
      vertex 23 0 5
    endloop
  endfacet
  facet normal 0 0 1
    outer loop
      vertex 16.9727 0.25989 5
      vertex 23.0273 0.25989 5
      vertex 23.1081 0.50842 5
    endloop
  endfacet
  facet normal 0 0 1
    outer loop
      vertex 16.8919 0.50842 5
      vertex 23.1081 0.50842 5
      vertex 23.2387 0.734731 5
    endloop
  endfacet
  facet normal 0 0 1
    outer loop
      vertex 16.7613 0.734731 5
      vertex 23.2387 0.734731 5
      vertex 23.4136 0.92893 5
    endloop
  endfacet
  facet normal 0 0 1
    outer loop
      vertex 16.5864 0.92893 5
      vertex 23.4136 0.92893 5
      vertex 23.625 1.08253 5
    endloop
  endfacet
  facet normal 0 0 1
    outer loop
      vertex 16.375 1.08253 5
      vertex 23.625 1.08253 5
      vertex 23.8637 1.18882 5
    endloop
  endfacet
  facet normal 0 0 1
    outer loop
      vertex 24.1193 1.24315 5
      vertex 15.8807 1.24315 5
      vertex 23.8637 1.18882 5
    endloop
  endfacet
  facet normal 0 0 1
    outer loop
      vertex 23.0273 0.25989 5
      vertex 16.9727 0.25989 5
      vertex 17 0 5
    endloop
  endfacet
  facet normal 0 0 1
    outer loop
      vertex 23.1081 0.50842 5
      vertex 16.8919 0.50842 5
      vertex 16.9727 0.25989 5
    endloop
  endfacet
  facet normal 0 0 1
    outer loop
      vertex 23.2387 0.734731 5
      vertex 16.7613 0.734731 5
      vertex 16.8919 0.50842 5
    endloop
  endfacet
  facet normal 0 0 1
    outer loop
      vertex 23.4136 0.92893 5
      vertex 16.5864 0.92893 5
      vertex 16.7613 0.734731 5
    endloop
  endfacet
  facet normal 0 0 1
    outer loop
      vertex 23.625 1.08253 5
      vertex 16.375 1.08253 5
      vertex 16.5864 0.92893 5
    endloop
  endfacet
  facet normal 0 0 1
    outer loop
      vertex 23.8637 1.18882 5
      vertex 16.1363 1.18882 5
      vertex 16.375 1.08253 5
    endloop
  endfacet
  facet normal 0 0 1
    outer loop
      vertex 23.8637 1.18882 5
      vertex 15.8807 1.24315 5
      vertex 16.1363 1.18882 5
    endloop
  endfacet
  facet normal -0 0 1
    outer loop
      vertex -0.209057 3.98904 5
      vertex 15.8807 1.24315 5
      vertex 35.2091 3.98904 5
    endloop
  endfacet
  facet normal 0 0 1
    outer loop
      vertex 14.5273 0.25989 5
      vertex 8.5 0 5
      vertex 14.5 0 5
    endloop
  endfacet
  facet normal 0 0 1
    outer loop
      vertex 8.47268 0.25989 5
      vertex 14.5273 0.25989 5
      vertex 14.6081 0.50842 5
    endloop
  endfacet
  facet normal 0 0 1
    outer loop
      vertex 8.39193 0.50842 5
      vertex 14.6081 0.50842 5
      vertex 14.7387 0.734731 5
    endloop
  endfacet
  facet normal 0 0 1
    outer loop
      vertex 8.26127 0.734731 5
      vertex 14.7387 0.734731 5
      vertex 14.9136 0.92893 5
    endloop
  endfacet
  facet normal 0 0 1
    outer loop
      vertex 8.08641 0.92893 5
      vertex 14.9136 0.92893 5
      vertex 15.125 1.08253 5
    endloop
  endfacet
  facet normal 0 0 1
    outer loop
      vertex 7.875 1.08253 5
      vertex 15.125 1.08253 5
      vertex 15.3637 1.18882 5
    endloop
  endfacet
  facet normal 0 0 1
    outer loop
      vertex 7.63627 1.18882 5
      vertex 15.3637 1.18882 5
      vertex 15.6193 1.24315 5
    endloop
  endfacet
  facet normal 0 0 1
    outer loop
      vertex 14.5273 0.25989 5
      vertex 8.47268 0.25989 5
      vertex 8.5 0 5
    endloop
  endfacet
  facet normal 0 0 1
    outer loop
      vertex 15.8807 1.24315 5
      vertex -0.209057 3.98904 5
      vertex 15.6193 1.24315 5
    endloop
  endfacet
  facet normal 0 0 1
    outer loop
      vertex 14.6081 0.50842 5
      vertex 8.39193 0.50842 5
      vertex 8.47268 0.25989 5
    endloop
  endfacet
  facet normal 0 0 1
    outer loop
      vertex 14.7387 0.734731 5
      vertex 8.26127 0.734731 5
      vertex 8.39193 0.50842 5
    endloop
  endfacet
  facet normal 0 0 1
    outer loop
      vertex 14.9136 0.92893 5
      vertex 8.08641 0.92893 5
      vertex 8.26127 0.734731 5
    endloop
  endfacet
  facet normal 0 0 1
    outer loop
      vertex 15.125 1.08253 5
      vertex 7.875 1.08253 5
      vertex 8.08641 0.92893 5
    endloop
  endfacet
  facet normal 0 0 1
    outer loop
      vertex 15.3637 1.18882 5
      vertex 7.63627 1.18882 5
      vertex 7.875 1.08253 5
    endloop
  endfacet
  facet normal 0 -0 1
    outer loop
      vertex 7.38066 1.24315 5
      vertex 15.6193 1.24315 5
      vertex -0.209057 3.98904 5
    endloop
  endfacet
  facet normal 0 0 1
    outer loop
      vertex 15.6193 1.24315 5
      vertex 7.38066 1.24315 5
      vertex 7.63627 1.18882 5
    endloop
  endfacet
  facet normal 0 0 1
    outer loop
      vertex 6.02732 0.25989 5
      vertex -0.209057 3.98904 5
      vertex 6 0 5
    endloop
  endfacet
  facet normal 0 0 1
    outer loop
      vertex 6.10807 0.50842 5
      vertex -0.209057 3.98904 5
      vertex 6.02732 0.25989 5
    endloop
  endfacet
  facet normal 0 0 1
    outer loop
      vertex 6.23873 0.734731 5
      vertex -0.209057 3.98904 5
      vertex 6.10807 0.50842 5
    endloop
  endfacet
  facet normal 0 0 1
    outer loop
      vertex 6.41359 0.92893 5
      vertex -0.209057 3.98904 5
      vertex 6.23873 0.734731 5
    endloop
  endfacet
  facet normal 0 0 1
    outer loop
      vertex 6.625 1.08253 5
      vertex -0.209057 3.98904 5
      vertex 6.41359 0.92893 5
    endloop
  endfacet
  facet normal 0 0 1
    outer loop
      vertex 6.86373 1.18882 5
      vertex -0.209057 3.98904 5
      vertex 6.625 1.08253 5
    endloop
  endfacet
  facet normal 0 0 1
    outer loop
      vertex 7.11934 1.24315 5
      vertex -0.209057 3.98904 5
      vertex 6.86373 1.18882 5
    endloop
  endfacet
  facet normal 0 0 1
    outer loop
      vertex 7.38066 1.24315 5
      vertex -0.209057 3.98904 5
      vertex 7.11934 1.24315 5
    endloop
  endfacet
  facet normal 0 0 1
    outer loop
      vertex 36.3383 -3.48629 5
      vertex 33.7613 -0.734731 5
      vertex 36 -3.73205 5
    endloop
  endfacet
  facet normal -0 0 1
    outer loop
      vertex 33.5864 -0.92893 5
      vertex 36 -3.73205 5
      vertex 33.7613 -0.734731 5
    endloop
  endfacet
  facet normal 0 0 1
    outer loop
      vertex 36 -3.73205 5
      vertex 33.5864 -0.92893 5
      vertex 35.618 -3.90211 5
    endloop
  endfacet
  facet normal 0 0 1
    outer loop
      vertex 35.618 -3.90211 5
      vertex 33.5864 -0.92893 5
      vertex 35.2091 -3.98904 5
    endloop
  endfacet
  facet normal -0 0 1
    outer loop
      vertex 33.375 -1.08253 5
      vertex 35.2091 -3.98904 5
      vertex 33.5864 -0.92893 5
    endloop
  endfacet
  facet normal -0 0 1
    outer loop
      vertex 33.1363 -1.18882 5
      vertex 35.2091 -3.98904 5
      vertex 33.375 -1.08253 5
    endloop
  endfacet
  facet normal -0 0 1
    outer loop
      vertex 32.8807 -1.24315 5
      vertex 35.2091 -3.98904 5
      vertex 33.1363 -1.18882 5
    endloop
  endfacet
  facet normal -0 0 1
    outer loop
      vertex 32.6193 -1.24315 5
      vertex 35.2091 -3.98904 5
      vertex 32.8807 -1.24315 5
    endloop
  endfacet
  facet normal 0 0 1
    outer loop
      vertex 32.3637 -1.18882 5
      vertex 35.2091 -3.98904 5
      vertex 32.6193 -1.24315 5
    endloop
  endfacet
  facet normal 0 0 1
    outer loop
      vertex 32.125 -1.08253 5
      vertex 35.2091 -3.98904 5
      vertex 32.3637 -1.18882 5
    endloop
  endfacet
  facet normal 0 0 1
    outer loop
      vertex 24.875 -1.08253 5
      vertex 32.125 -1.08253 5
      vertex 31.9136 -0.92893 5
    endloop
  endfacet
  facet normal -0 0 1
    outer loop
      vertex 25.5 0 5
      vertex 31.5273 -0.25989 5
      vertex 31.5 0 5
    endloop
  endfacet
  facet normal 0 0 1
    outer loop
      vertex 25.4727 -0.25989 5
      vertex 31.5273 -0.25989 5
      vertex 25.5 0 5
    endloop
  endfacet
  facet normal 0 0 1
    outer loop
      vertex 31.5273 -0.25989 5
      vertex 25.4727 -0.25989 5
      vertex 31.6081 -0.50842 5
    endloop
  endfacet
  facet normal 0 0 1
    outer loop
      vertex 25.3919 -0.50842 5
      vertex 31.6081 -0.50842 5
      vertex 25.4727 -0.25989 5
    endloop
  endfacet
  facet normal 0 0 1
    outer loop
      vertex 31.6081 -0.50842 5
      vertex 25.3919 -0.50842 5
      vertex 31.7387 -0.734731 5
    endloop
  endfacet
  facet normal 0 0 1
    outer loop
      vertex 25.2613 -0.734731 5
      vertex 31.7387 -0.734731 5
      vertex 25.3919 -0.50842 5
    endloop
  endfacet
  facet normal 0 0 1
    outer loop
      vertex 31.7387 -0.734731 5
      vertex 25.2613 -0.734731 5
      vertex 31.9136 -0.92893 5
    endloop
  endfacet
  facet normal 0 0 1
    outer loop
      vertex 25.0864 -0.92893 5
      vertex 31.9136 -0.92893 5
      vertex 25.2613 -0.734731 5
    endloop
  endfacet
  facet normal 0 0 1
    outer loop
      vertex 24.875 -1.08253 5
      vertex 31.9136 -0.92893 5
      vertex 25.0864 -0.92893 5
    endloop
  endfacet
  facet normal 0 0 1
    outer loop
      vertex 32.125 -1.08253 5
      vertex 24.875 -1.08253 5
      vertex 35.2091 -3.98904 5
    endloop
  endfacet
  facet normal -0 0 1
    outer loop
      vertex 24.6363 -1.18882 5
      vertex 35.2091 -3.98904 5
      vertex 24.875 -1.08253 5
    endloop
  endfacet
  facet normal -0 0 1
    outer loop
      vertex 24.3807 -1.24315 5
      vertex 35.2091 -3.98904 5
      vertex 24.6363 -1.18882 5
    endloop
  endfacet
  facet normal -0 0 1
    outer loop
      vertex 24.1193 -1.24315 5
      vertex 35.2091 -3.98904 5
      vertex 24.3807 -1.24315 5
    endloop
  endfacet
  facet normal 0 0 1
    outer loop
      vertex 15.8807 -1.24315 5
      vertex 24.1193 -1.24315 5
      vertex 23.8637 -1.18882 5
    endloop
  endfacet
  facet normal -0 0 1
    outer loop
      vertex 17 0 5
      vertex 23.0273 -0.25989 5
      vertex 23 0 5
    endloop
  endfacet
  facet normal 0 0 1
    outer loop
      vertex 16.9727 -0.25989 5
      vertex 23.0273 -0.25989 5
      vertex 17 0 5
    endloop
  endfacet
  facet normal 0 0 1
    outer loop
      vertex 23.0273 -0.25989 5
      vertex 16.9727 -0.25989 5
      vertex 23.1081 -0.50842 5
    endloop
  endfacet
  facet normal 0 0 1
    outer loop
      vertex 16.8919 -0.50842 5
      vertex 23.1081 -0.50842 5
      vertex 16.9727 -0.25989 5
    endloop
  endfacet
  facet normal 0 0 1
    outer loop
      vertex 23.1081 -0.50842 5
      vertex 16.8919 -0.50842 5
      vertex 23.2387 -0.734731 5
    endloop
  endfacet
  facet normal 0 0 1
    outer loop
      vertex 16.7613 -0.734731 5
      vertex 23.2387 -0.734731 5
      vertex 16.8919 -0.50842 5
    endloop
  endfacet
  facet normal 0 0 1
    outer loop
      vertex 23.2387 -0.734731 5
      vertex 16.7613 -0.734731 5
      vertex 23.4136 -0.92893 5
    endloop
  endfacet
  facet normal 0 0 1
    outer loop
      vertex 16.5864 -0.92893 5
      vertex 23.4136 -0.92893 5
      vertex 16.7613 -0.734731 5
    endloop
  endfacet
  facet normal 0 0 1
    outer loop
      vertex 23.4136 -0.92893 5
      vertex 16.5864 -0.92893 5
      vertex 23.625 -1.08253 5
    endloop
  endfacet
  facet normal 0 0 1
    outer loop
      vertex 16.375 -1.08253 5
      vertex 23.625 -1.08253 5
      vertex 16.5864 -0.92893 5
    endloop
  endfacet
  facet normal 0 0 1
    outer loop
      vertex 23.625 -1.08253 5
      vertex 16.375 -1.08253 5
      vertex 23.8637 -1.18882 5
    endloop
  endfacet
  facet normal 0 0 1
    outer loop
      vertex 16.1363 -1.18882 5
      vertex 23.8637 -1.18882 5
      vertex 16.375 -1.08253 5
    endloop
  endfacet
  facet normal 0 0 1
    outer loop
      vertex 15.8807 -1.24315 5
      vertex 23.8637 -1.18882 5
      vertex 16.1363 -1.18882 5
    endloop
  endfacet
  facet normal 0 0 1
    outer loop
      vertex 24.1193 -1.24315 5
      vertex 15.8807 -1.24315 5
      vertex 35.2091 -3.98904 5
    endloop
  endfacet
  facet normal 0 0 1
    outer loop
      vertex -0.209057 -3.98904 5
      vertex 15.8807 -1.24315 5
      vertex 15.6193 -1.24315 5
    endloop
  endfacet
  facet normal -0 0 1
    outer loop
      vertex 8.5 0 5
      vertex 14.5273 -0.25989 5
      vertex 14.5 0 5
    endloop
  endfacet
  facet normal 0 0 1
    outer loop
      vertex 8.47268 -0.25989 5
      vertex 14.5273 -0.25989 5
      vertex 8.5 0 5
    endloop
  endfacet
  facet normal 0 0 1
    outer loop
      vertex 14.5273 -0.25989 5
      vertex 8.47268 -0.25989 5
      vertex 14.6081 -0.50842 5
    endloop
  endfacet
  facet normal 0 0 1
    outer loop
      vertex 8.39193 -0.50842 5
      vertex 14.6081 -0.50842 5
      vertex 8.47268 -0.25989 5
    endloop
  endfacet
  facet normal 0 0 1
    outer loop
      vertex 14.6081 -0.50842 5
      vertex 8.39193 -0.50842 5
      vertex 14.7387 -0.734731 5
    endloop
  endfacet
  facet normal 0 0 1
    outer loop
      vertex 8.26127 -0.734731 5
      vertex 14.7387 -0.734731 5
      vertex 8.39193 -0.50842 5
    endloop
  endfacet
  facet normal 0 0 1
    outer loop
      vertex 14.7387 -0.734731 5
      vertex 8.26127 -0.734731 5
      vertex 14.9136 -0.92893 5
    endloop
  endfacet
  facet normal 0 0 1
    outer loop
      vertex 8.08641 -0.92893 5
      vertex 14.9136 -0.92893 5
      vertex 8.26127 -0.734731 5
    endloop
  endfacet
  facet normal 0 0 1
    outer loop
      vertex 14.9136 -0.92893 5
      vertex 8.08641 -0.92893 5
      vertex 15.125 -1.08253 5
    endloop
  endfacet
  facet normal 0 0 1
    outer loop
      vertex 7.875 -1.08253 5
      vertex 15.125 -1.08253 5
      vertex 8.08641 -0.92893 5
    endloop
  endfacet
  facet normal 0 0 1
    outer loop
      vertex 15.125 -1.08253 5
      vertex 7.875 -1.08253 5
      vertex 15.3637 -1.18882 5
    endloop
  endfacet
  facet normal 0 0 1
    outer loop
      vertex 7.63627 -1.18882 5
      vertex 15.3637 -1.18882 5
      vertex 7.875 -1.08253 5
    endloop
  endfacet
  facet normal 0 0 1
    outer loop
      vertex 15.3637 -1.18882 5
      vertex 7.63627 -1.18882 5
      vertex 15.6193 -1.24315 5
    endloop
  endfacet
  facet normal 0 0 1
    outer loop
      vertex 7.38066 -1.24315 5
      vertex 15.6193 -1.24315 5
      vertex 7.63627 -1.18882 5
    endloop
  endfacet
  facet normal 0 0 1
    outer loop
      vertex 15.6193 -1.24315 5
      vertex 7.38066 -1.24315 5
      vertex -0.209057 -3.98904 5
    endloop
  endfacet
  facet normal 0 0 1
    outer loop
      vertex -0.209057 -3.98904 5
      vertex 7.38066 -1.24315 5
      vertex 7.11934 -1.24315 5
    endloop
  endfacet
  facet normal -0 0 1
    outer loop
      vertex -2 2 5
      vertex 6 0 5
      vertex -0.209057 3.98904 5
    endloop
  endfacet
  facet normal 0 0 1
    outer loop
      vertex -2 -2 5
      vertex 6 0 5
      vertex -2 2 5
    endloop
  endfacet
  facet normal 0 -0 1
    outer loop
      vertex -0.209057 -3.98904 5
      vertex 6 0 5
      vertex -2 -2 5
    endloop
  endfacet
  facet normal 0 0 1
    outer loop
      vertex 6 0 5
      vertex -0.209057 -3.98904 5
      vertex 6.02732 -0.25989 5
    endloop
  endfacet
  facet normal 0 0 1
    outer loop
      vertex 15.8807 -1.24315 5
      vertex -0.209057 -3.98904 5
      vertex 35.2091 -3.98904 5
    endloop
  endfacet
  facet normal 0 0 1
    outer loop
      vertex 6.86373 -1.18882 5
      vertex -0.209057 -3.98904 5
      vertex 7.11934 -1.24315 5
    endloop
  endfacet
  facet normal 0 0 1
    outer loop
      vertex 6.625 -1.08253 5
      vertex -0.209057 -3.98904 5
      vertex 6.86373 -1.18882 5
    endloop
  endfacet
  facet normal 0 0 1
    outer loop
      vertex 6.41359 -0.92893 5
      vertex -0.209057 -3.98904 5
      vertex 6.625 -1.08253 5
    endloop
  endfacet
  facet normal 0 0 1
    outer loop
      vertex 6.02732 -0.25989 5
      vertex -0.209057 -3.98904 5
      vertex 6.10807 -0.50842 5
    endloop
  endfacet
  facet normal 0 0 1
    outer loop
      vertex -2 2 5
      vertex -0.209057 3.98904 5
      vertex -0.618033 3.90211 5
    endloop
  endfacet
  facet normal 0 0 1
    outer loop
      vertex 6.10807 -0.50842 5
      vertex -0.209057 -3.98904 5
      vertex 6.23873 -0.734731 5
    endloop
  endfacet
  facet normal 0 0 1
    outer loop
      vertex -2 2 5
      vertex -0.618033 3.90211 5
      vertex -0.999999 3.73205 5
    endloop
  endfacet
  facet normal 0 0 1
    outer loop
      vertex 6.23873 -0.734731 5
      vertex -0.209057 -3.98904 5
      vertex 6.41359 -0.92893 5
    endloop
  endfacet
  facet normal 0 0 1
    outer loop
      vertex -2 2 5
      vertex -0.999999 3.73205 5
      vertex -1.33826 3.48629 5
    endloop
  endfacet
  facet normal 0 0 1
    outer loop
      vertex -0.209057 -3.98904 5
      vertex -2 -2 5
      vertex -0.618033 -3.90211 5
    endloop
  endfacet
  facet normal 0 0 1
    outer loop
      vertex -2 2 5
      vertex -1.33826 3.48629 5
      vertex -1.61803 3.17557 5
    endloop
  endfacet
  facet normal 0 0 1
    outer loop
      vertex -0.618033 -3.90211 5
      vertex -2 -2 5
      vertex -1 -3.73205 5
    endloop
  endfacet
  facet normal 0 0 1
    outer loop
      vertex -2 2 5
      vertex -1.61803 3.17557 5
      vertex -1.82709 2.81347 5
    endloop
  endfacet
  facet normal 0 0 1
    outer loop
      vertex -1 -3.73205 5
      vertex -2 -2 5
      vertex -1.33826 -3.48629 5
    endloop
  endfacet
  facet normal 0 0 1
    outer loop
      vertex -2 2 5
      vertex -1.82709 2.81347 5
      vertex -1.9563 2.41582 5
    endloop
  endfacet
  facet normal 0 0 1
    outer loop
      vertex -1.33826 -3.48629 5
      vertex -2 -2 5
      vertex -1.61803 -3.17557 5
    endloop
  endfacet
  facet normal 0 0 1
    outer loop
      vertex -1.61803 -3.17557 5
      vertex -2 -2 5
      vertex -1.82709 -2.81347 5
    endloop
  endfacet
  facet normal 0 0 1
    outer loop
      vertex -1.82709 -2.81347 5
      vertex -2 -2 5
      vertex -1.9563 -2.41582 5
    endloop
  endfacet
  facet normal -0.743144 0.669131 0
    outer loop
      vertex -1.61803 3.17557 -5
      vertex -1.33826 3.48629 5
      vertex -1.33826 3.48629 -5
    endloop
  endfacet
  facet normal -0.743144 0.669131 0
    outer loop
      vertex -1.33826 3.48629 5
      vertex -1.61803 3.17557 -5
      vertex -1.61803 3.17557 5
    endloop
  endfacet
  facet normal -0.587784 0.809018 0
    outer loop
      vertex -0.999999 3.73205 -5
      vertex -1.33826 3.48629 5
      vertex -0.999999 3.73205 5
    endloop
  endfacet
  facet normal -0.587784 0.809018 0
    outer loop
      vertex -1.33826 3.48629 5
      vertex -0.999999 3.73205 -5
      vertex -1.33826 3.48629 -5
    endloop
  endfacet
  facet normal -0.207911 0.978148 0
    outer loop
      vertex -0.209057 3.98904 -5
      vertex -0.618033 3.90211 5
      vertex -0.209057 3.98904 5
    endloop
  endfacet
  facet normal -0.207911 0.978148 0
    outer loop
      vertex -0.618033 3.90211 5
      vertex -0.209057 3.98904 -5
      vertex -0.618033 3.90211 -5
    endloop
  endfacet
  facet normal 0.866026 0.499999 0
    outer loop
      vertex 36.8271 2.81347 5
      vertex 36.618 3.17557 -5
      vertex 36.618 3.17557 5
    endloop
  endfacet
  facet normal 0.866026 0.499999 0
    outer loop
      vertex 36.618 3.17557 -5
      vertex 36.8271 2.81347 5
      vertex 36.8271 2.81347 -5
    endloop
  endfacet
  facet normal 0.994522 0.104529 0
    outer loop
      vertex 37 2 5
      vertex 36.9563 2.41582 -5
      vertex 36.9563 2.41582 5
    endloop
  endfacet
  facet normal 0.994522 0.104529 0
    outer loop
      vertex 36.9563 2.41582 -5
      vertex 37 2 5
      vertex 37 2 -5
    endloop
  endfacet
  facet normal 0.743143 -0.669133 0
    outer loop
      vertex 36.3383 -3.48629 5
      vertex 36.618 -3.17557 -5
      vertex 36.618 -3.17557 5
    endloop
  endfacet
  facet normal 0.743143 -0.669133 0
    outer loop
      vertex 36.618 -3.17557 -5
      vertex 36.3383 -3.48629 5
      vertex 36.3383 -3.48629 -5
    endloop
  endfacet
  facet normal -0.406738 -0.913545 0
    outer loop
      vertex -1 -3.73205 -5
      vertex -0.618033 -3.90211 5
      vertex -1 -3.73205 5
    endloop
  endfacet
  facet normal -0.406738 -0.913545 -0
    outer loop
      vertex -0.618033 -3.90211 5
      vertex -1 -3.73205 -5
      vertex -0.618033 -3.90211 -5
    endloop
  endfacet
  facet normal -0.587786 -0.809017 0
    outer loop
      vertex -1.33826 -3.48629 -5
      vertex -1 -3.73205 5
      vertex -1.33826 -3.48629 5
    endloop
  endfacet
  facet normal -0.587786 -0.809017 -0
    outer loop
      vertex -1 -3.73205 5
      vertex -1.33826 -3.48629 -5
      vertex -1 -3.73205 -5
    endloop
  endfacet
  facet normal -0.866026 -0.499999 0
    outer loop
      vertex -1.61803 -3.17557 -5
      vertex -1.82709 -2.81347 5
      vertex -1.82709 -2.81347 -5
    endloop
  endfacet
  facet normal -0.866026 -0.499999 0
    outer loop
      vertex -1.82709 -2.81347 5
      vertex -1.61803 -3.17557 -5
      vertex -1.61803 -3.17557 5
    endloop
  endfacet
  facet normal -0.951056 -0.309018 0
    outer loop
      vertex -1.82709 -2.81347 -5
      vertex -1.9563 -2.41582 5
      vertex -1.9563 -2.41582 -5
    endloop
  endfacet
  facet normal -0.951056 -0.309018 0
    outer loop
      vertex -1.9563 -2.41582 5
      vertex -1.82709 -2.81347 -5
      vertex -1.82709 -2.81347 5
    endloop
  endfacet
  facet normal 0.20791 0.978148 -0
    outer loop
      vertex 35.618 3.90211 -5
      vertex 35.2091 3.98904 5
      vertex 35.618 3.90211 5
    endloop
  endfacet
  facet normal 0.20791 0.978148 0
    outer loop
      vertex 35.2091 3.98904 5
      vertex 35.618 3.90211 -5
      vertex 35.2091 3.98904 -5
    endloop
  endfacet
  facet normal -0.866026 0.499999 0
    outer loop
      vertex -1.82709 2.81347 -5
      vertex -1.61803 3.17557 5
      vertex -1.61803 3.17557 -5
    endloop
  endfacet
  facet normal -0.866026 0.499999 0
    outer loop
      vertex -1.61803 3.17557 5
      vertex -1.82709 2.81347 -5
      vertex -1.82709 2.81347 5
    endloop
  endfacet
  facet normal -0.406739 0.913545 0
    outer loop
      vertex -0.618033 3.90211 -5
      vertex -0.999999 3.73205 5
      vertex -0.618033 3.90211 5
    endloop
  endfacet
  facet normal -0.406739 0.913545 0
    outer loop
      vertex -0.999999 3.73205 5
      vertex -0.618033 3.90211 -5
      vertex -0.999999 3.73205 -5
    endloop
  endfacet
  facet normal 0.951057 0.309016 0
    outer loop
      vertex 36.9563 2.41582 5
      vertex 36.8271 2.81347 -5
      vertex 36.8271 2.81347 5
    endloop
  endfacet
  facet normal 0.951057 0.309016 0
    outer loop
      vertex 36.8271 2.81347 -5
      vertex 36.9563 2.41582 5
      vertex 36.9563 2.41582 -5
    endloop
  endfacet
  facet normal 0.406739 -0.913545 0
    outer loop
      vertex 35.618 -3.90211 -5
      vertex 36 -3.73205 5
      vertex 35.618 -3.90211 5
    endloop
  endfacet
  facet normal 0.406739 -0.913545 0
    outer loop
      vertex 36 -3.73205 5
      vertex 35.618 -3.90211 -5
      vertex 36 -3.73205 -5
    endloop
  endfacet
  facet normal 0.866026 -0.499999 0
    outer loop
      vertex 36.618 -3.17557 5
      vertex 36.8271 -2.81347 -5
      vertex 36.8271 -2.81347 5
    endloop
  endfacet
  facet normal 0.866026 -0.499999 0
    outer loop
      vertex 36.8271 -2.81347 -5
      vertex 36.618 -3.17557 5
      vertex 36.618 -3.17557 -5
    endloop
  endfacet
  facet normal 0.587786 0.809017 -0
    outer loop
      vertex 36.3383 3.48629 -5
      vertex 36 3.73205 5
      vertex 36.3383 3.48629 5
    endloop
  endfacet
  facet normal 0.587786 0.809017 0
    outer loop
      vertex 36 3.73205 5
      vertex 36.3383 3.48629 -5
      vertex 36 3.73205 -5
    endloop
  endfacet
  facet normal 0.743143 0.669133 0
    outer loop
      vertex 36.618 3.17557 5
      vertex 36.3383 3.48629 -5
      vertex 36.3383 3.48629 5
    endloop
  endfacet
  facet normal 0.743143 0.669133 0
    outer loop
      vertex 36.3383 3.48629 -5
      vertex 36.618 3.17557 5
      vertex 36.618 3.17557 -5
    endloop
  endfacet
  facet normal 0.951057 -0.309016 0
    outer loop
      vertex 36.8271 -2.81347 5
      vertex 36.9563 -2.41582 -5
      vertex 36.9563 -2.41582 5
    endloop
  endfacet
  facet normal 0.951057 -0.309016 0
    outer loop
      vertex 36.9563 -2.41582 -5
      vertex 36.8271 -2.81347 5
      vertex 36.8271 -2.81347 -5
    endloop
  endfacet
  facet normal -0.994522 -0.104531 0
    outer loop
      vertex 8.5 0 -5
      vertex 8.47268 0.25989 5
      vertex 8.47268 0.25989 -5
    endloop
  endfacet
  facet normal -0.994522 -0.104531 0
    outer loop
      vertex 8.47268 0.25989 5
      vertex 8.5 0 -5
      vertex 8.5 0 5
    endloop
  endfacet
  facet normal 0 -1 0
    outer loop
      vertex 7.11934 1.24315 -5
      vertex 7.38066 1.24315 5
      vertex 7.11934 1.24315 5
    endloop
  endfacet
  facet normal 0 -1 -0
    outer loop
      vertex 7.38066 1.24315 5
      vertex 7.11934 1.24315 -5
      vertex 7.38066 1.24315 -5
    endloop
  endfacet
  facet normal 0.587787 0.809016 -0
    outer loop
      vertex 6.625 -1.08253 -5
      vertex 6.41359 -0.92893 5
      vertex 6.625 -1.08253 5
    endloop
  endfacet
  facet normal 0.587787 0.809016 0
    outer loop
      vertex 6.41359 -0.92893 5
      vertex 6.625 -1.08253 -5
      vertex 6.41359 -0.92893 -5
    endloop
  endfacet
  facet normal -0.587787 -0.809016 0
    outer loop
      vertex 7.875 1.08253 -5
      vertex 8.08641 0.92893 5
      vertex 7.875 1.08253 5
    endloop
  endfacet
  facet normal -0.587787 -0.809016 -0
    outer loop
      vertex 8.08641 0.92893 5
      vertex 7.875 1.08253 -5
      vertex 8.08641 0.92893 -5
    endloop
  endfacet
  facet normal 0.743145 -0.669131 0
    outer loop
      vertex 6.23873 0.734731 5
      vertex 6.41359 0.92893 -5
      vertex 6.41359 0.92893 5
    endloop
  endfacet
  facet normal 0.743145 -0.669131 0
    outer loop
      vertex 6.41359 0.92893 -5
      vertex 6.23873 0.734731 5
      vertex 6.23873 0.734731 -5
    endloop
  endfacet
  facet normal 0.406737 -0.913545 0
    outer loop
      vertex 6.625 1.08253 -5
      vertex 6.86373 1.18882 5
      vertex 6.625 1.08253 5
    endloop
  endfacet
  facet normal 0.406737 -0.913545 0
    outer loop
      vertex 6.86373 1.18882 5
      vertex 6.625 1.08253 -5
      vertex 6.86373 1.18882 -5
    endloop
  endfacet
  facet normal -0.743145 0.669131 0
    outer loop
      vertex 8.08641 -0.92893 -5
      vertex 8.26127 -0.734731 5
      vertex 8.26127 -0.734731 -5
    endloop
  endfacet
  facet normal -0.743145 0.669131 0
    outer loop
      vertex 8.26127 -0.734731 5
      vertex 8.08641 -0.92893 -5
      vertex 8.08641 -0.92893 5
    endloop
  endfacet
  facet normal -0.866025 -0.500001 0
    outer loop
      vertex 8.39193 0.50842 -5
      vertex 8.26127 0.734731 5
      vertex 8.26127 0.734731 -5
    endloop
  endfacet
  facet normal -0.866025 -0.500001 0
    outer loop
      vertex 8.26127 0.734731 5
      vertex 8.39193 0.50842 -5
      vertex 8.39193 0.50842 5
    endloop
  endfacet
  facet normal -0.951057 -0.309017 0
    outer loop
      vertex 8.47268 0.25989 -5
      vertex 8.39193 0.50842 5
      vertex 8.39193 0.50842 -5
    endloop
  endfacet
  facet normal -0.951057 -0.309017 0
    outer loop
      vertex 8.39193 0.50842 5
      vertex 8.47268 0.25989 -5
      vertex 8.47268 0.25989 5
    endloop
  endfacet
  facet normal -0.743145 -0.669131 0
    outer loop
      vertex 8.26127 0.734731 -5
      vertex 8.08641 0.92893 5
      vertex 8.08641 0.92893 -5
    endloop
  endfacet
  facet normal -0.743145 -0.669131 0
    outer loop
      vertex 8.08641 0.92893 5
      vertex 8.26127 0.734731 -5
      vertex 8.26127 0.734731 5
    endloop
  endfacet
  facet normal -0.207912 -0.978148 0
    outer loop
      vertex 7.38066 1.24315 -5
      vertex 7.63627 1.18882 5
      vertex 7.38066 1.24315 5
    endloop
  endfacet
  facet normal -0.207912 -0.978148 -0
    outer loop
      vertex 7.63627 1.18882 5
      vertex 7.38066 1.24315 -5
      vertex 7.63627 1.18882 -5
    endloop
  endfacet
  facet normal -0.406736 -0.913546 0
    outer loop
      vertex 7.63627 1.18882 -5
      vertex 7.875 1.08253 5
      vertex 7.63627 1.18882 5
    endloop
  endfacet
  facet normal -0.406736 -0.913546 -0
    outer loop
      vertex 7.875 1.08253 5
      vertex 7.63627 1.18882 -5
      vertex 7.875 1.08253 -5
    endloop
  endfacet
  facet normal 0.951057 -0.309017 0
    outer loop
      vertex 6.02732 0.25989 5
      vertex 6.10807 0.50842 -5
      vertex 6.10807 0.50842 5
    endloop
  endfacet
  facet normal 0.951057 -0.309017 0
    outer loop
      vertex 6.10807 0.50842 -5
      vertex 6.02732 0.25989 5
      vertex 6.02732 0.25989 -5
    endloop
  endfacet
  facet normal 0.866025 -0.500001 0
    outer loop
      vertex 6.10807 0.50842 5
      vertex 6.23873 0.734731 -5
      vertex 6.23873 0.734731 5
    endloop
  endfacet
  facet normal 0.866025 -0.500001 0
    outer loop
      vertex 6.23873 0.734731 -5
      vertex 6.10807 0.50842 5
      vertex 6.10807 0.50842 -5
    endloop
  endfacet
  facet normal 0.994522 -0.104527 0
    outer loop
      vertex 6 0 5
      vertex 6.02732 0.25989 -5
      vertex 6.02732 0.25989 5
    endloop
  endfacet
  facet normal 0.994522 -0.104527 0
    outer loop
      vertex 6.02732 0.25989 -5
      vertex 6 0 5
      vertex 6 0 -5
    endloop
  endfacet
  facet normal 0.587785 -0.809017 0
    outer loop
      vertex 6.41359 0.92893 -5
      vertex 6.625 1.08253 5
      vertex 6.41359 0.92893 5
    endloop
  endfacet
  facet normal 0.587785 -0.809017 0
    outer loop
      vertex 6.625 1.08253 5
      vertex 6.41359 0.92893 -5
      vertex 6.625 1.08253 -5
    endloop
  endfacet
  facet normal 0.207912 -0.978148 0
    outer loop
      vertex 6.86373 1.18882 -5
      vertex 7.11934 1.24315 5
      vertex 6.86373 1.18882 5
    endloop
  endfacet
  facet normal 0.207912 -0.978148 0
    outer loop
      vertex 7.11934 1.24315 5
      vertex 6.86373 1.18882 -5
      vertex 7.11934 1.24315 -5
    endloop
  endfacet
  facet normal -0.207912 0.978148 0
    outer loop
      vertex 7.63627 -1.18882 -5
      vertex 7.38066 -1.24315 5
      vertex 7.63627 -1.18882 5
    endloop
  endfacet
  facet normal -0.207912 0.978148 0
    outer loop
      vertex 7.38066 -1.24315 5
      vertex 7.63627 -1.18882 -5
      vertex 7.38066 -1.24315 -5
    endloop
  endfacet
  facet normal -0.587787 0.809016 0
    outer loop
      vertex 8.08641 -0.92893 -5
      vertex 7.875 -1.08253 5
      vertex 8.08641 -0.92893 5
    endloop
  endfacet
  facet normal -0.587787 0.809016 0
    outer loop
      vertex 7.875 -1.08253 5
      vertex 8.08641 -0.92893 -5
      vertex 7.875 -1.08253 -5
    endloop
  endfacet
  facet normal 0.406736 0.913546 -0
    outer loop
      vertex 6.86373 -1.18882 -5
      vertex 6.625 -1.08253 5
      vertex 6.86373 -1.18882 5
    endloop
  endfacet
  facet normal 0.406736 0.913546 0
    outer loop
      vertex 6.625 -1.08253 5
      vertex 6.86373 -1.18882 -5
      vertex 6.625 -1.08253 -5
    endloop
  endfacet
  facet normal 0 1 -0
    outer loop
      vertex 7.38066 -1.24315 -5
      vertex 7.11934 -1.24315 5
      vertex 7.38066 -1.24315 5
    endloop
  endfacet
  facet normal 0 1 0
    outer loop
      vertex 7.11934 -1.24315 5
      vertex 7.38066 -1.24315 -5
      vertex 7.11934 -1.24315 -5
    endloop
  endfacet
  facet normal 0.743145 0.669131 0
    outer loop
      vertex 6.41359 -0.92893 5
      vertex 6.23873 -0.734731 -5
      vertex 6.23873 -0.734731 5
    endloop
  endfacet
  facet normal 0.743145 0.669131 0
    outer loop
      vertex 6.23873 -0.734731 -5
      vertex 6.41359 -0.92893 5
      vertex 6.41359 -0.92893 -5
    endloop
  endfacet
  facet normal 0.951057 0.309017 0
    outer loop
      vertex 6.10807 -0.50842 5
      vertex 6.02732 -0.25989 -5
      vertex 6.02732 -0.25989 5
    endloop
  endfacet
  facet normal 0.951057 0.309017 0
    outer loop
      vertex 6.02732 -0.25989 -5
      vertex 6.10807 -0.50842 5
      vertex 6.10807 -0.50842 -5
    endloop
  endfacet
  facet normal 0.994522 0.104527 0
    outer loop
      vertex 6.02732 -0.25989 5
      vertex 6 0 -5
      vertex 6 0 5
    endloop
  endfacet
  facet normal 0.994522 0.104527 0
    outer loop
      vertex 6 0 -5
      vertex 6.02732 -0.25989 5
      vertex 6.02732 -0.25989 -5
    endloop
  endfacet
  facet normal -0.406736 0.913546 0
    outer loop
      vertex 7.875 -1.08253 -5
      vertex 7.63627 -1.18882 5
      vertex 7.875 -1.08253 5
    endloop
  endfacet
  facet normal -0.406736 0.913546 0
    outer loop
      vertex 7.63627 -1.18882 5
      vertex 7.875 -1.08253 -5
      vertex 7.63627 -1.18882 -5
    endloop
  endfacet
  facet normal -0.951057 0.309017 0
    outer loop
      vertex 8.39193 -0.50842 -5
      vertex 8.47268 -0.25989 5
      vertex 8.47268 -0.25989 -5
    endloop
  endfacet
  facet normal -0.951057 0.309017 0
    outer loop
      vertex 8.47268 -0.25989 5
      vertex 8.39193 -0.50842 -5
      vertex 8.39193 -0.50842 5
    endloop
  endfacet
  facet normal -0.866025 0.500001 0
    outer loop
      vertex 8.26127 -0.734731 -5
      vertex 8.39193 -0.50842 5
      vertex 8.39193 -0.50842 -5
    endloop
  endfacet
  facet normal -0.866025 0.500001 0
    outer loop
      vertex 8.39193 -0.50842 5
      vertex 8.26127 -0.734731 -5
      vertex 8.26127 -0.734731 5
    endloop
  endfacet
  facet normal -0.994522 0.104531 0
    outer loop
      vertex 8.47268 -0.25989 -5
      vertex 8.5 0 5
      vertex 8.5 0 -5
    endloop
  endfacet
  facet normal -0.994522 0.104531 0
    outer loop
      vertex 8.5 0 5
      vertex 8.47268 -0.25989 -5
      vertex 8.47268 -0.25989 5
    endloop
  endfacet
  facet normal 0.207912 0.978148 -0
    outer loop
      vertex 7.11934 -1.24315 -5
      vertex 6.86373 -1.18882 5
      vertex 7.11934 -1.24315 5
    endloop
  endfacet
  facet normal 0.207912 0.978148 0
    outer loop
      vertex 6.86373 -1.18882 5
      vertex 7.11934 -1.24315 -5
      vertex 6.86373 -1.18882 -5
    endloop
  endfacet
  facet normal 0.866025 0.500001 0
    outer loop
      vertex 6.23873 -0.734731 5
      vertex 6.10807 -0.50842 -5
      vertex 6.10807 -0.50842 5
    endloop
  endfacet
  facet normal 0.866025 0.500001 0
    outer loop
      vertex 6.10807 -0.50842 -5
      vertex 6.23873 -0.734731 5
      vertex 6.23873 -0.734731 -5
    endloop
  endfacet
  facet normal -0.994521 -0.104534 0
    outer loop
      vertex 17 0 -5
      vertex 16.9727 0.25989 5
      vertex 16.9727 0.25989 -5
    endloop
  endfacet
  facet normal -0.994521 -0.104534 0
    outer loop
      vertex 16.9727 0.25989 5
      vertex 17 0 -5
      vertex 17 0 5
    endloop
  endfacet
  facet normal 0 -1 0
    outer loop
      vertex 15.6193 1.24315 -5
      vertex 15.8807 1.24315 5
      vertex 15.6193 1.24315 5
    endloop
  endfacet
  facet normal 0 -1 -0
    outer loop
      vertex 15.8807 1.24315 5
      vertex 15.6193 1.24315 -5
      vertex 15.8807 1.24315 -5
    endloop
  endfacet
  facet normal 0 1 -0
    outer loop
      vertex 15.8807 -1.24315 -5
      vertex 15.6193 -1.24315 5
      vertex 15.8807 -1.24315 5
    endloop
  endfacet
  facet normal 0 1 0
    outer loop
      vertex 15.6193 -1.24315 5
      vertex 15.8807 -1.24315 -5
      vertex 15.6193 -1.24315 -5
    endloop
  endfacet
  facet normal -0.587787 -0.809016 0
    outer loop
      vertex 16.375 1.08253 -5
      vertex 16.5864 0.92893 5
      vertex 16.375 1.08253 5
    endloop
  endfacet
  facet normal -0.587787 -0.809016 -0
    outer loop
      vertex 16.5864 0.92893 5
      vertex 16.375 1.08253 -5
      vertex 16.5864 0.92893 -5
    endloop
  endfacet
  facet normal 0.743145 -0.669131 0
    outer loop
      vertex 14.7387 0.734731 5
      vertex 14.9136 0.92893 -5
      vertex 14.9136 0.92893 5
    endloop
  endfacet
  facet normal 0.743145 -0.669131 0
    outer loop
      vertex 14.9136 0.92893 -5
      vertex 14.7387 0.734731 5
      vertex 14.7387 0.734731 -5
    endloop
  endfacet
  facet normal 0.406737 -0.913545 0
    outer loop
      vertex 15.125 1.08253 -5
      vertex 15.3637 1.18882 5
      vertex 15.125 1.08253 5
    endloop
  endfacet
  facet normal 0.406737 -0.913545 0
    outer loop
      vertex 15.3637 1.18882 5
      vertex 15.125 1.08253 -5
      vertex 15.3637 1.18882 -5
    endloop
  endfacet
  facet normal -0.866025 0.500001 0
    outer loop
      vertex 16.7613 -0.734731 -5
      vertex 16.8919 -0.50842 5
      vertex 16.8919 -0.50842 -5
    endloop
  endfacet
  facet normal -0.866025 0.500001 0
    outer loop
      vertex 16.8919 -0.50842 5
      vertex 16.7613 -0.734731 -5
      vertex 16.7613 -0.734731 5
    endloop
  endfacet
  facet normal 0.951057 0.309017 0
    outer loop
      vertex 14.6081 -0.50842 5
      vertex 14.5273 -0.25989 -5
      vertex 14.5273 -0.25989 5
    endloop
  endfacet
  facet normal 0.951057 0.309017 0
    outer loop
      vertex 14.5273 -0.25989 -5
      vertex 14.6081 -0.50842 5
      vertex 14.6081 -0.50842 -5
    endloop
  endfacet
  facet normal -0.866025 -0.500001 0
    outer loop
      vertex 16.8919 0.50842 -5
      vertex 16.7613 0.734731 5
      vertex 16.7613 0.734731 -5
    endloop
  endfacet
  facet normal -0.866025 -0.500001 0
    outer loop
      vertex 16.7613 0.734731 5
      vertex 16.8919 0.50842 -5
      vertex 16.8919 0.50842 5
    endloop
  endfacet
  facet normal -0.951058 -0.309014 0
    outer loop
      vertex 16.9727 0.25989 -5
      vertex 16.8919 0.50842 5
      vertex 16.8919 0.50842 -5
    endloop
  endfacet
  facet normal -0.951058 -0.309014 0
    outer loop
      vertex 16.8919 0.50842 5
      vertex 16.9727 0.25989 -5
      vertex 16.9727 0.25989 5
    endloop
  endfacet
  facet normal -0.743145 -0.669131 0
    outer loop
      vertex 16.7613 0.734731 -5
      vertex 16.5864 0.92893 5
      vertex 16.5864 0.92893 -5
    endloop
  endfacet
  facet normal -0.743145 -0.669131 0
    outer loop
      vertex 16.5864 0.92893 5
      vertex 16.7613 0.734731 -5
      vertex 16.7613 0.734731 5
    endloop
  endfacet
  facet normal -0.207912 -0.978148 0
    outer loop
      vertex 15.8807 1.24315 -5
      vertex 16.1363 1.18882 5
      vertex 15.8807 1.24315 5
    endloop
  endfacet
  facet normal -0.207912 -0.978148 -0
    outer loop
      vertex 16.1363 1.18882 5
      vertex 15.8807 1.24315 -5
      vertex 16.1363 1.18882 -5
    endloop
  endfacet
  facet normal -0.406736 -0.913546 0
    outer loop
      vertex 16.1363 1.18882 -5
      vertex 16.375 1.08253 5
      vertex 16.1363 1.18882 5
    endloop
  endfacet
  facet normal -0.406736 -0.913546 -0
    outer loop
      vertex 16.375 1.08253 5
      vertex 16.1363 1.18882 -5
      vertex 16.375 1.08253 -5
    endloop
  endfacet
  facet normal 0.951057 -0.309017 0
    outer loop
      vertex 14.5273 0.25989 5
      vertex 14.6081 0.50842 -5
      vertex 14.6081 0.50842 5
    endloop
  endfacet
  facet normal 0.951057 -0.309017 0
    outer loop
      vertex 14.6081 0.50842 -5
      vertex 14.5273 0.25989 5
      vertex 14.5273 0.25989 -5
    endloop
  endfacet
  facet normal 0.866025 -0.500001 0
    outer loop
      vertex 14.6081 0.50842 5
      vertex 14.7387 0.734731 -5
      vertex 14.7387 0.734731 5
    endloop
  endfacet
  facet normal 0.866025 -0.500001 0
    outer loop
      vertex 14.7387 0.734731 -5
      vertex 14.6081 0.50842 5
      vertex 14.6081 0.50842 -5
    endloop
  endfacet
  facet normal 0.994522 -0.104527 0
    outer loop
      vertex 14.5 0 5
      vertex 14.5273 0.25989 -5
      vertex 14.5273 0.25989 5
    endloop
  endfacet
  facet normal 0.994522 -0.104527 0
    outer loop
      vertex 14.5273 0.25989 -5
      vertex 14.5 0 5
      vertex 14.5 0 -5
    endloop
  endfacet
  facet normal 0.587785 -0.809017 0
    outer loop
      vertex 14.9136 0.92893 -5
      vertex 15.125 1.08253 5
      vertex 14.9136 0.92893 5
    endloop
  endfacet
  facet normal 0.587785 -0.809017 0
    outer loop
      vertex 15.125 1.08253 5
      vertex 14.9136 0.92893 -5
      vertex 15.125 1.08253 -5
    endloop
  endfacet
  facet normal 0.207912 -0.978148 0
    outer loop
      vertex 15.3637 1.18882 -5
      vertex 15.6193 1.24315 5
      vertex 15.3637 1.18882 5
    endloop
  endfacet
  facet normal 0.207912 -0.978148 0
    outer loop
      vertex 15.6193 1.24315 5
      vertex 15.3637 1.18882 -5
      vertex 15.6193 1.24315 -5
    endloop
  endfacet
  facet normal -0.207912 0.978148 0
    outer loop
      vertex 16.1363 -1.18882 -5
      vertex 15.8807 -1.24315 5
      vertex 16.1363 -1.18882 5
    endloop
  endfacet
  facet normal -0.207912 0.978148 0
    outer loop
      vertex 15.8807 -1.24315 5
      vertex 16.1363 -1.18882 -5
      vertex 15.8807 -1.24315 -5
    endloop
  endfacet
  facet normal -0.587787 0.809016 0
    outer loop
      vertex 16.5864 -0.92893 -5
      vertex 16.375 -1.08253 5
      vertex 16.5864 -0.92893 5
    endloop
  endfacet
  facet normal -0.587787 0.809016 0
    outer loop
      vertex 16.375 -1.08253 5
      vertex 16.5864 -0.92893 -5
      vertex 16.375 -1.08253 -5
    endloop
  endfacet
  facet normal 0.587785 0.809017 -0
    outer loop
      vertex 15.125 -1.08253 -5
      vertex 14.9136 -0.92893 5
      vertex 15.125 -1.08253 5
    endloop
  endfacet
  facet normal 0.587785 0.809017 0
    outer loop
      vertex 14.9136 -0.92893 5
      vertex 15.125 -1.08253 -5
      vertex 14.9136 -0.92893 -5
    endloop
  endfacet
  facet normal 0.207912 0.978148 -0
    outer loop
      vertex 15.6193 -1.24315 -5
      vertex 15.3637 -1.18882 5
      vertex 15.6193 -1.24315 5
    endloop
  endfacet
  facet normal 0.207912 0.978148 0
    outer loop
      vertex 15.3637 -1.18882 5
      vertex 15.6193 -1.24315 -5
      vertex 15.3637 -1.18882 -5
    endloop
  endfacet
  facet normal 0.866025 0.500001 0
    outer loop
      vertex 14.7387 -0.734731 5
      vertex 14.6081 -0.50842 -5
      vertex 14.6081 -0.50842 5
    endloop
  endfacet
  facet normal 0.866025 0.500001 0
    outer loop
      vertex 14.6081 -0.50842 -5
      vertex 14.7387 -0.734731 5
      vertex 14.7387 -0.734731 -5
    endloop
  endfacet
  facet normal 0.743145 0.669131 0
    outer loop
      vertex 14.9136 -0.92893 5
      vertex 14.7387 -0.734731 -5
      vertex 14.7387 -0.734731 5
    endloop
  endfacet
  facet normal 0.743145 0.669131 0
    outer loop
      vertex 14.7387 -0.734731 -5
      vertex 14.9136 -0.92893 5
      vertex 14.9136 -0.92893 -5
    endloop
  endfacet
  facet normal 0.994522 0.104527 0
    outer loop
      vertex 14.5273 -0.25989 5
      vertex 14.5 0 -5
      vertex 14.5 0 5
    endloop
  endfacet
  facet normal 0.994522 0.104527 0
    outer loop
      vertex 14.5 0 -5
      vertex 14.5273 -0.25989 5
      vertex 14.5273 -0.25989 -5
    endloop
  endfacet
  facet normal -0.406736 0.913546 0
    outer loop
      vertex 16.375 -1.08253 -5
      vertex 16.1363 -1.18882 5
      vertex 16.375 -1.08253 5
    endloop
  endfacet
  facet normal -0.406736 0.913546 0
    outer loop
      vertex 16.1363 -1.18882 5
      vertex 16.375 -1.08253 -5
      vertex 16.1363 -1.18882 -5
    endloop
  endfacet
  facet normal -0.743145 0.669131 0
    outer loop
      vertex 16.5864 -0.92893 -5
      vertex 16.7613 -0.734731 5
      vertex 16.7613 -0.734731 -5
    endloop
  endfacet
  facet normal -0.743145 0.669131 0
    outer loop
      vertex 16.7613 -0.734731 5
      vertex 16.5864 -0.92893 -5
      vertex 16.5864 -0.92893 5
    endloop
  endfacet
  facet normal -0.951058 0.309014 0
    outer loop
      vertex 16.8919 -0.50842 -5
      vertex 16.9727 -0.25989 5
      vertex 16.9727 -0.25989 -5
    endloop
  endfacet
  facet normal -0.951058 0.309014 0
    outer loop
      vertex 16.9727 -0.25989 5
      vertex 16.8919 -0.50842 -5
      vertex 16.8919 -0.50842 5
    endloop
  endfacet
  facet normal -0.994521 0.104534 0
    outer loop
      vertex 16.9727 -0.25989 -5
      vertex 17 0 5
      vertex 17 0 -5
    endloop
  endfacet
  facet normal -0.994521 0.104534 0
    outer loop
      vertex 17 0 5
      vertex 16.9727 -0.25989 -5
      vertex 16.9727 -0.25989 5
    endloop
  endfacet
  facet normal 0.406737 0.913545 -0
    outer loop
      vertex 15.3637 -1.18882 -5
      vertex 15.125 -1.08253 5
      vertex 15.3637 -1.18882 5
    endloop
  endfacet
  facet normal 0.406737 0.913545 0
    outer loop
      vertex 15.125 -1.08253 5
      vertex 15.3637 -1.18882 -5
      vertex 15.125 -1.08253 -5
    endloop
  endfacet
  facet normal -0.994521 -0.104534 0
    outer loop
      vertex 25.5 0 -5
      vertex 25.4727 0.25989 5
      vertex 25.4727 0.25989 -5
    endloop
  endfacet
  facet normal -0.994521 -0.104534 0
    outer loop
      vertex 25.4727 0.25989 5
      vertex 25.5 0 -5
      vertex 25.5 0 5
    endloop
  endfacet
  facet normal 0.994522 0.104527 0
    outer loop
      vertex 23.0273 -0.25989 5
      vertex 23 0 -5
      vertex 23 0 5
    endloop
  endfacet
  facet normal 0.994522 0.104527 0
    outer loop
      vertex 23 0 -5
      vertex 23.0273 -0.25989 5
      vertex 23.0273 -0.25989 -5
    endloop
  endfacet
  facet normal 0 -1 0
    outer loop
      vertex 24.1193 1.24315 -5
      vertex 24.3807 1.24315 5
      vertex 24.1193 1.24315 5
    endloop
  endfacet
  facet normal 0 -1 -0
    outer loop
      vertex 24.3807 1.24315 5
      vertex 24.1193 1.24315 -5
      vertex 24.3807 1.24315 -5
    endloop
  endfacet
  facet normal 0 1 -0
    outer loop
      vertex 24.3807 -1.24315 -5
      vertex 24.1193 -1.24315 5
      vertex 24.3807 -1.24315 5
    endloop
  endfacet
  facet normal 0 1 0
    outer loop
      vertex 24.1193 -1.24315 5
      vertex 24.3807 -1.24315 -5
      vertex 24.1193 -1.24315 -5
    endloop
  endfacet
  facet normal -0.587787 -0.809016 0
    outer loop
      vertex 24.875 1.08253 -5
      vertex 25.0864 0.92893 5
      vertex 24.875 1.08253 5
    endloop
  endfacet
  facet normal -0.587787 -0.809016 -0
    outer loop
      vertex 25.0864 0.92893 5
      vertex 24.875 1.08253 -5
      vertex 25.0864 0.92893 -5
    endloop
  endfacet
  facet normal 0.743145 -0.669131 0
    outer loop
      vertex 23.2387 0.734731 5
      vertex 23.4136 0.92893 -5
      vertex 23.4136 0.92893 5
    endloop
  endfacet
  facet normal 0.743145 -0.669131 0
    outer loop
      vertex 23.4136 0.92893 -5
      vertex 23.2387 0.734731 5
      vertex 23.2387 0.734731 -5
    endloop
  endfacet
  facet normal 0.406738 -0.913545 0
    outer loop
      vertex 23.625 1.08253 -5
      vertex 23.8637 1.18882 5
      vertex 23.625 1.08253 5
    endloop
  endfacet
  facet normal 0.406738 -0.913545 0
    outer loop
      vertex 23.8637 1.18882 5
      vertex 23.625 1.08253 -5
      vertex 23.8637 1.18882 -5
    endloop
  endfacet
  facet normal -0.743145 0.669131 0
    outer loop
      vertex 25.0864 -0.92893 -5
      vertex 25.2613 -0.734731 5
      vertex 25.2613 -0.734731 -5
    endloop
  endfacet
  facet normal -0.743145 0.669131 0
    outer loop
      vertex 25.2613 -0.734731 5
      vertex 25.0864 -0.92893 -5
      vertex 25.0864 -0.92893 5
    endloop
  endfacet
  facet normal 0.951058 0.309014 0
    outer loop
      vertex 23.1081 -0.50842 5
      vertex 23.0273 -0.25989 -5
      vertex 23.0273 -0.25989 5
    endloop
  endfacet
  facet normal 0.951058 0.309014 0
    outer loop
      vertex 23.0273 -0.25989 -5
      vertex 23.1081 -0.50842 5
      vertex 23.1081 -0.50842 -5
    endloop
  endfacet
  facet normal -0.866025 -0.500001 0
    outer loop
      vertex 25.3919 0.50842 -5
      vertex 25.2613 0.734731 5
      vertex 25.2613 0.734731 -5
    endloop
  endfacet
  facet normal -0.866025 -0.500001 0
    outer loop
      vertex 25.2613 0.734731 5
      vertex 25.3919 0.50842 -5
      vertex 25.3919 0.50842 5
    endloop
  endfacet
  facet normal -0.951058 -0.309014 0
    outer loop
      vertex 25.4727 0.25989 -5
      vertex 25.3919 0.50842 5
      vertex 25.3919 0.50842 -5
    endloop
  endfacet
  facet normal -0.951058 -0.309014 0
    outer loop
      vertex 25.3919 0.50842 5
      vertex 25.4727 0.25989 -5
      vertex 25.4727 0.25989 5
    endloop
  endfacet
  facet normal -0.743145 -0.669131 0
    outer loop
      vertex 25.2613 0.734731 -5
      vertex 25.0864 0.92893 5
      vertex 25.0864 0.92893 -5
    endloop
  endfacet
  facet normal -0.743145 -0.669131 0
    outer loop
      vertex 25.0864 0.92893 5
      vertex 25.2613 0.734731 -5
      vertex 25.2613 0.734731 5
    endloop
  endfacet
  facet normal -0.207913 -0.978147 0
    outer loop
      vertex 24.3807 1.24315 -5
      vertex 24.6363 1.18882 5
      vertex 24.3807 1.24315 5
    endloop
  endfacet
  facet normal -0.207913 -0.978147 -0
    outer loop
      vertex 24.6363 1.18882 5
      vertex 24.3807 1.24315 -5
      vertex 24.6363 1.18882 -5
    endloop
  endfacet
  facet normal -0.406736 -0.913546 0
    outer loop
      vertex 24.6363 1.18882 -5
      vertex 24.875 1.08253 5
      vertex 24.6363 1.18882 5
    endloop
  endfacet
  facet normal -0.406736 -0.913546 -0
    outer loop
      vertex 24.875 1.08253 5
      vertex 24.6363 1.18882 -5
      vertex 24.875 1.08253 -5
    endloop
  endfacet
  facet normal 0.951058 -0.309014 0
    outer loop
      vertex 23.0273 0.25989 5
      vertex 23.1081 0.50842 -5
      vertex 23.1081 0.50842 5
    endloop
  endfacet
  facet normal 0.951058 -0.309014 0
    outer loop
      vertex 23.1081 0.50842 -5
      vertex 23.0273 0.25989 5
      vertex 23.0273 0.25989 -5
    endloop
  endfacet
  facet normal 0.866025 -0.500001 0
    outer loop
      vertex 23.1081 0.50842 5
      vertex 23.2387 0.734731 -5
      vertex 23.2387 0.734731 5
    endloop
  endfacet
  facet normal 0.866025 -0.500001 0
    outer loop
      vertex 23.2387 0.734731 -5
      vertex 23.1081 0.50842 5
      vertex 23.1081 0.50842 -5
    endloop
  endfacet
  facet normal 0.994522 -0.104527 0
    outer loop
      vertex 23 0 5
      vertex 23.0273 0.25989 -5
      vertex 23.0273 0.25989 5
    endloop
  endfacet
  facet normal 0.994522 -0.104527 0
    outer loop
      vertex 23.0273 0.25989 -5
      vertex 23 0 5
      vertex 23 0 -5
    endloop
  endfacet
  facet normal 0.587783 -0.809018 0
    outer loop
      vertex 23.4136 0.92893 -5
      vertex 23.625 1.08253 5
      vertex 23.4136 0.92893 5
    endloop
  endfacet
  facet normal 0.587783 -0.809018 0
    outer loop
      vertex 23.625 1.08253 5
      vertex 23.4136 0.92893 -5
      vertex 23.625 1.08253 -5
    endloop
  endfacet
  facet normal 0.207911 -0.978148 0
    outer loop
      vertex 23.8637 1.18882 -5
      vertex 24.1193 1.24315 5
      vertex 23.8637 1.18882 5
    endloop
  endfacet
  facet normal 0.207911 -0.978148 0
    outer loop
      vertex 24.1193 1.24315 5
      vertex 23.8637 1.18882 -5
      vertex 24.1193 1.24315 -5
    endloop
  endfacet
  facet normal -0.994521 0.104534 0
    outer loop
      vertex 25.4727 -0.25989 -5
      vertex 25.5 0 5
      vertex 25.5 0 -5
    endloop
  endfacet
  facet normal -0.994521 0.104534 0
    outer loop
      vertex 25.5 0 5
      vertex 25.4727 -0.25989 -5
      vertex 25.4727 -0.25989 5
    endloop
  endfacet
  facet normal -0.207913 0.978147 0
    outer loop
      vertex 24.6363 -1.18882 -5
      vertex 24.3807 -1.24315 5
      vertex 24.6363 -1.18882 5
    endloop
  endfacet
  facet normal -0.207913 0.978147 0
    outer loop
      vertex 24.3807 -1.24315 5
      vertex 24.6363 -1.18882 -5
      vertex 24.3807 -1.24315 -5
    endloop
  endfacet
  facet normal -0.587787 0.809016 0
    outer loop
      vertex 25.0864 -0.92893 -5
      vertex 24.875 -1.08253 5
      vertex 25.0864 -0.92893 5
    endloop
  endfacet
  facet normal -0.587787 0.809016 0
    outer loop
      vertex 24.875 -1.08253 5
      vertex 25.0864 -0.92893 -5
      vertex 24.875 -1.08253 -5
    endloop
  endfacet
  facet normal 0.587783 0.809018 -0
    outer loop
      vertex 23.625 -1.08253 -5
      vertex 23.4136 -0.92893 5
      vertex 23.625 -1.08253 5
    endloop
  endfacet
  facet normal 0.587783 0.809018 0
    outer loop
      vertex 23.4136 -0.92893 5
      vertex 23.625 -1.08253 -5
      vertex 23.4136 -0.92893 -5
    endloop
  endfacet
  facet normal 0.207911 0.978148 -0
    outer loop
      vertex 24.1193 -1.24315 -5
      vertex 23.8637 -1.18882 5
      vertex 24.1193 -1.24315 5
    endloop
  endfacet
  facet normal 0.207911 0.978148 0
    outer loop
      vertex 23.8637 -1.18882 5
      vertex 24.1193 -1.24315 -5
      vertex 23.8637 -1.18882 -5
    endloop
  endfacet
  facet normal 0.866025 0.500001 0
    outer loop
      vertex 23.2387 -0.734731 5
      vertex 23.1081 -0.50842 -5
      vertex 23.1081 -0.50842 5
    endloop
  endfacet
  facet normal 0.866025 0.500001 0
    outer loop
      vertex 23.1081 -0.50842 -5
      vertex 23.2387 -0.734731 5
      vertex 23.2387 -0.734731 -5
    endloop
  endfacet
  facet normal 0.743145 0.669131 0
    outer loop
      vertex 23.4136 -0.92893 5
      vertex 23.2387 -0.734731 -5
      vertex 23.2387 -0.734731 5
    endloop
  endfacet
  facet normal 0.743145 0.669131 0
    outer loop
      vertex 23.2387 -0.734731 -5
      vertex 23.4136 -0.92893 5
      vertex 23.4136 -0.92893 -5
    endloop
  endfacet
  facet normal -0.406736 0.913546 0
    outer loop
      vertex 24.875 -1.08253 -5
      vertex 24.6363 -1.18882 5
      vertex 24.875 -1.08253 5
    endloop
  endfacet
  facet normal -0.406736 0.913546 0
    outer loop
      vertex 24.6363 -1.18882 5
      vertex 24.875 -1.08253 -5
      vertex 24.6363 -1.18882 -5
    endloop
  endfacet
  facet normal -0.951058 0.309014 0
    outer loop
      vertex 25.3919 -0.50842 -5
      vertex 25.4727 -0.25989 5
      vertex 25.4727 -0.25989 -5
    endloop
  endfacet
  facet normal -0.951058 0.309014 0
    outer loop
      vertex 25.4727 -0.25989 5
      vertex 25.3919 -0.50842 -5
      vertex 25.3919 -0.50842 5
    endloop
  endfacet
  facet normal -0.866025 0.500001 0
    outer loop
      vertex 25.2613 -0.734731 -5
      vertex 25.3919 -0.50842 5
      vertex 25.3919 -0.50842 -5
    endloop
  endfacet
  facet normal -0.866025 0.500001 0
    outer loop
      vertex 25.3919 -0.50842 5
      vertex 25.2613 -0.734731 -5
      vertex 25.2613 -0.734731 5
    endloop
  endfacet
  facet normal 0.406738 0.913545 -0
    outer loop
      vertex 23.8637 -1.18882 -5
      vertex 23.625 -1.08253 5
      vertex 23.8637 -1.18882 5
    endloop
  endfacet
  facet normal 0.406738 0.913545 0
    outer loop
      vertex 23.625 -1.08253 5
      vertex 23.8637 -1.18882 -5
      vertex 23.625 -1.08253 -5
    endloop
  endfacet
  facet normal -0.994521 -0.104534 0
    outer loop
      vertex 34 0 -5
      vertex 33.9727 0.25989 5
      vertex 33.9727 0.25989 -5
    endloop
  endfacet
  facet normal -0.994521 -0.104534 0
    outer loop
      vertex 33.9727 0.25989 5
      vertex 34 0 -5
      vertex 34 0 5
    endloop
  endfacet
  facet normal 0.994522 0.104527 0
    outer loop
      vertex 31.5273 -0.25989 5
      vertex 31.5 0 -5
      vertex 31.5 0 5
    endloop
  endfacet
  facet normal 0.994522 0.104527 0
    outer loop
      vertex 31.5 0 -5
      vertex 31.5273 -0.25989 5
      vertex 31.5273 -0.25989 -5
    endloop
  endfacet
  facet normal 0 -1 0
    outer loop
      vertex 32.6193 1.24315 -5
      vertex 32.8807 1.24315 5
      vertex 32.6193 1.24315 5
    endloop
  endfacet
  facet normal 0 -1 -0
    outer loop
      vertex 32.8807 1.24315 5
      vertex 32.6193 1.24315 -5
      vertex 32.8807 1.24315 -5
    endloop
  endfacet
  facet normal 0 1 -0
    outer loop
      vertex 32.8807 -1.24315 -5
      vertex 32.6193 -1.24315 5
      vertex 32.8807 -1.24315 5
    endloop
  endfacet
  facet normal 0 1 0
    outer loop
      vertex 32.6193 -1.24315 5
      vertex 32.8807 -1.24315 -5
      vertex 32.6193 -1.24315 -5
    endloop
  endfacet
  facet normal -0.58779 -0.809013 0
    outer loop
      vertex 33.375 1.08253 -5
      vertex 33.5864 0.92893 5
      vertex 33.375 1.08253 5
    endloop
  endfacet
  facet normal -0.58779 -0.809013 -0
    outer loop
      vertex 33.5864 0.92893 5
      vertex 33.375 1.08253 -5
      vertex 33.5864 0.92893 -5
    endloop
  endfacet
  facet normal 0.743145 -0.669131 0
    outer loop
      vertex 31.7387 0.734731 5
      vertex 31.9136 0.92893 -5
      vertex 31.9136 0.92893 5
    endloop
  endfacet
  facet normal 0.743145 -0.669131 0
    outer loop
      vertex 31.9136 0.92893 -5
      vertex 31.7387 0.734731 5
      vertex 31.7387 0.734731 -5
    endloop
  endfacet
  facet normal 0.406738 -0.913545 0
    outer loop
      vertex 32.125 1.08253 -5
      vertex 32.3637 1.18882 5
      vertex 32.125 1.08253 5
    endloop
  endfacet
  facet normal 0.406738 -0.913545 0
    outer loop
      vertex 32.3637 1.18882 5
      vertex 32.125 1.08253 -5
      vertex 32.3637 1.18882 -5
    endloop
  endfacet
  facet normal -0.743145 0.669131 0
    outer loop
      vertex 33.5864 -0.92893 -5
      vertex 33.7613 -0.734731 5
      vertex 33.7613 -0.734731 -5
    endloop
  endfacet
  facet normal -0.743145 0.669131 0
    outer loop
      vertex 33.7613 -0.734731 5
      vertex 33.5864 -0.92893 -5
      vertex 33.5864 -0.92893 5
    endloop
  endfacet
  facet normal 0.951058 0.309014 0
    outer loop
      vertex 31.6081 -0.50842 5
      vertex 31.5273 -0.25989 -5
      vertex 31.5273 -0.25989 5
    endloop
  endfacet
  facet normal 0.951058 0.309014 0
    outer loop
      vertex 31.5273 -0.25989 -5
      vertex 31.6081 -0.50842 5
      vertex 31.6081 -0.50842 -5
    endloop
  endfacet
  facet normal -0.866025 -0.500001 0
    outer loop
      vertex 33.8919 0.50842 -5
      vertex 33.7613 0.734731 5
      vertex 33.7613 0.734731 -5
    endloop
  endfacet
  facet normal -0.866025 -0.500001 0
    outer loop
      vertex 33.7613 0.734731 5
      vertex 33.8919 0.50842 -5
      vertex 33.8919 0.50842 5
    endloop
  endfacet
  facet normal -0.951055 -0.30902 0
    outer loop
      vertex 33.9727 0.25989 -5
      vertex 33.8919 0.50842 5
      vertex 33.8919 0.50842 -5
    endloop
  endfacet
  facet normal -0.951055 -0.30902 0
    outer loop
      vertex 33.8919 0.50842 5
      vertex 33.9727 0.25989 -5
      vertex 33.9727 0.25989 5
    endloop
  endfacet
  facet normal -0.743145 -0.669131 0
    outer loop
      vertex 33.7613 0.734731 -5
      vertex 33.5864 0.92893 5
      vertex 33.5864 0.92893 -5
    endloop
  endfacet
  facet normal -0.743145 -0.669131 0
    outer loop
      vertex 33.5864 0.92893 5
      vertex 33.7613 0.734731 -5
      vertex 33.7613 0.734731 5
    endloop
  endfacet
  facet normal -0.207914 -0.978147 0
    outer loop
      vertex 32.8807 1.24315 -5
      vertex 33.1363 1.18882 5
      vertex 32.8807 1.24315 5
    endloop
  endfacet
  facet normal -0.207914 -0.978147 -0
    outer loop
      vertex 33.1363 1.18882 5
      vertex 32.8807 1.24315 -5
      vertex 33.1363 1.18882 -5
    endloop
  endfacet
  facet normal -0.406733 -0.913547 0
    outer loop
      vertex 33.1363 1.18882 -5
      vertex 33.375 1.08253 5
      vertex 33.1363 1.18882 5
    endloop
  endfacet
  facet normal -0.406733 -0.913547 -0
    outer loop
      vertex 33.375 1.08253 5
      vertex 33.1363 1.18882 -5
      vertex 33.375 1.08253 -5
    endloop
  endfacet
  facet normal 0.951058 -0.309014 0
    outer loop
      vertex 31.5273 0.25989 5
      vertex 31.6081 0.50842 -5
      vertex 31.6081 0.50842 5
    endloop
  endfacet
  facet normal 0.951058 -0.309014 0
    outer loop
      vertex 31.6081 0.50842 -5
      vertex 31.5273 0.25989 5
      vertex 31.5273 0.25989 -5
    endloop
  endfacet
  facet normal 0.866025 -0.500001 0
    outer loop
      vertex 31.6081 0.50842 5
      vertex 31.7387 0.734731 -5
      vertex 31.7387 0.734731 5
    endloop
  endfacet
  facet normal 0.866025 -0.500001 0
    outer loop
      vertex 31.7387 0.734731 -5
      vertex 31.6081 0.50842 5
      vertex 31.6081 0.50842 -5
    endloop
  endfacet
  facet normal 0.994522 -0.104527 0
    outer loop
      vertex 31.5 0 5
      vertex 31.5273 0.25989 -5
      vertex 31.5273 0.25989 5
    endloop
  endfacet
  facet normal 0.994522 -0.104527 0
    outer loop
      vertex 31.5273 0.25989 -5
      vertex 31.5 0 5
      vertex 31.5 0 -5
    endloop
  endfacet
  facet normal 0.587783 -0.809018 0
    outer loop
      vertex 31.9136 0.92893 -5
      vertex 32.125 1.08253 5
      vertex 31.9136 0.92893 5
    endloop
  endfacet
  facet normal 0.587783 -0.809018 0
    outer loop
      vertex 32.125 1.08253 5
      vertex 31.9136 0.92893 -5
      vertex 32.125 1.08253 -5
    endloop
  endfacet
  facet normal 0.207911 -0.978148 0
    outer loop
      vertex 32.3637 1.18882 -5
      vertex 32.6193 1.24315 5
      vertex 32.3637 1.18882 5
    endloop
  endfacet
  facet normal 0.207911 -0.978148 0
    outer loop
      vertex 32.6193 1.24315 5
      vertex 32.3637 1.18882 -5
      vertex 32.6193 1.24315 -5
    endloop
  endfacet
  facet normal -0.994521 0.104534 0
    outer loop
      vertex 33.9727 -0.25989 -5
      vertex 34 0 5
      vertex 34 0 -5
    endloop
  endfacet
  facet normal -0.994521 0.104534 0
    outer loop
      vertex 34 0 5
      vertex 33.9727 -0.25989 -5
      vertex 33.9727 -0.25989 5
    endloop
  endfacet
  facet normal -0.207914 0.978147 0
    outer loop
      vertex 33.1363 -1.18882 -5
      vertex 32.8807 -1.24315 5
      vertex 33.1363 -1.18882 5
    endloop
  endfacet
  facet normal -0.207914 0.978147 0
    outer loop
      vertex 32.8807 -1.24315 5
      vertex 33.1363 -1.18882 -5
      vertex 32.8807 -1.24315 -5
    endloop
  endfacet
  facet normal -0.58779 0.809013 0
    outer loop
      vertex 33.5864 -0.92893 -5
      vertex 33.375 -1.08253 5
      vertex 33.5864 -0.92893 5
    endloop
  endfacet
  facet normal -0.58779 0.809013 0
    outer loop
      vertex 33.375 -1.08253 5
      vertex 33.5864 -0.92893 -5
      vertex 33.375 -1.08253 -5
    endloop
  endfacet
  facet normal 0.587783 0.809018 -0
    outer loop
      vertex 32.125 -1.08253 -5
      vertex 31.9136 -0.92893 5
      vertex 32.125 -1.08253 5
    endloop
  endfacet
  facet normal 0.587783 0.809018 0
    outer loop
      vertex 31.9136 -0.92893 5
      vertex 32.125 -1.08253 -5
      vertex 31.9136 -0.92893 -5
    endloop
  endfacet
  facet normal 0.207911 0.978148 -0
    outer loop
      vertex 32.6193 -1.24315 -5
      vertex 32.3637 -1.18882 5
      vertex 32.6193 -1.24315 5
    endloop
  endfacet
  facet normal 0.207911 0.978148 0
    outer loop
      vertex 32.3637 -1.18882 5
      vertex 32.6193 -1.24315 -5
      vertex 32.3637 -1.18882 -5
    endloop
  endfacet
  facet normal 0.866025 0.500001 0
    outer loop
      vertex 31.7387 -0.734731 5
      vertex 31.6081 -0.50842 -5
      vertex 31.6081 -0.50842 5
    endloop
  endfacet
  facet normal 0.866025 0.500001 0
    outer loop
      vertex 31.6081 -0.50842 -5
      vertex 31.7387 -0.734731 5
      vertex 31.7387 -0.734731 -5
    endloop
  endfacet
  facet normal 0.743145 0.669131 0
    outer loop
      vertex 31.9136 -0.92893 5
      vertex 31.7387 -0.734731 -5
      vertex 31.7387 -0.734731 5
    endloop
  endfacet
  facet normal 0.743145 0.669131 0
    outer loop
      vertex 31.7387 -0.734731 -5
      vertex 31.9136 -0.92893 5
      vertex 31.9136 -0.92893 -5
    endloop
  endfacet
  facet normal -0.406733 0.913547 0
    outer loop
      vertex 33.375 -1.08253 -5
      vertex 33.1363 -1.18882 5
      vertex 33.375 -1.08253 5
    endloop
  endfacet
  facet normal -0.406733 0.913547 0
    outer loop
      vertex 33.1363 -1.18882 5
      vertex 33.375 -1.08253 -5
      vertex 33.1363 -1.18882 -5
    endloop
  endfacet
  facet normal -0.951055 0.30902 0
    outer loop
      vertex 33.8919 -0.50842 -5
      vertex 33.9727 -0.25989 5
      vertex 33.9727 -0.25989 -5
    endloop
  endfacet
  facet normal -0.951055 0.30902 0
    outer loop
      vertex 33.9727 -0.25989 5
      vertex 33.8919 -0.50842 -5
      vertex 33.8919 -0.50842 5
    endloop
  endfacet
  facet normal -0.866025 0.500001 0
    outer loop
      vertex 33.7613 -0.734731 -5
      vertex 33.8919 -0.50842 5
      vertex 33.8919 -0.50842 -5
    endloop
  endfacet
  facet normal -0.866025 0.500001 0
    outer loop
      vertex 33.8919 -0.50842 5
      vertex 33.7613 -0.734731 -5
      vertex 33.7613 -0.734731 5
    endloop
  endfacet
  facet normal 0.406738 0.913545 -0
    outer loop
      vertex 32.3637 -1.18882 -5
      vertex 32.125 -1.08253 5
      vertex 32.3637 -1.18882 5
    endloop
  endfacet
  facet normal 0.406738 0.913545 0
    outer loop
      vertex 32.125 -1.08253 5
      vertex 32.3637 -1.18882 -5
      vertex 32.125 -1.08253 -5
    endloop
  endfacet
endsolid OpenSCAD_Model
