solid OpenSCAD_Model
  facet normal 0 0 -1
    outer loop
      vertex 29.625 -0.649519 -5
      vertex 32 -2 -5
      vertex 31.9563 -2.41582 -5
    endloop
  endfacet
  facet normal 0 0 -1
    outer loop
      vertex 32 -2 -5
      vertex 30 0 -5
      vertex 32 2 -5
    endloop
  endfacet
  facet normal 0 0 -1
    outer loop
      vertex 29.625 -0.649519 -5
      vertex 31.9563 -2.41582 -5
      vertex 31.8271 -2.81347 -5
    endloop
  endfacet
  facet normal 0 0 -1
    outer loop
      vertex 29.9836 0.155933 -5
      vertex 32 2 -5
      vertex 30 0 -5
    endloop
  endfacet
  facet normal 0 0 -1
    outer loop
      vertex 29.625 -0.649519 -5
      vertex 31.8271 -2.81347 -5
      vertex 31.618 -3.17557 -5
    endloop
  endfacet
  facet normal 0 0 -1
    outer loop
      vertex 29.9352 0.305052 -5
      vertex 32 2 -5
      vertex 29.9836 0.155933 -5
    endloop
  endfacet
  facet normal 0 0 -1
    outer loop
      vertex 29.625 -0.649519 -5
      vertex 31.618 -3.17557 -5
      vertex 31.3383 -3.48629 -5
    endloop
  endfacet
  facet normal 0 0 -1
    outer loop
      vertex 29.8568 0.440839 -5
      vertex 32 2 -5
      vertex 29.9352 0.305052 -5
    endloop
  endfacet
  facet normal 0 0 -1
    outer loop
      vertex 29.4818 -0.713292 -5
      vertex 31.3383 -3.48629 -5
      vertex 31 -3.73205 -5
    endloop
  endfacet
  facet normal 0 0 -1
    outer loop
      vertex 29.7518 0.557358 -5
      vertex 32 2 -5
      vertex 29.8568 0.440839 -5
    endloop
  endfacet
  facet normal 0 0 -1
    outer loop
      vertex 29.4818 -0.713292 -5
      vertex 31 -3.73205 -5
      vertex 30.618 -3.90211 -5
    endloop
  endfacet
  facet normal 0 0 -1
    outer loop
      vertex 29.625 0.649519 -5
      vertex 32 2 -5
      vertex 29.7518 0.557358 -5
    endloop
  endfacet
  facet normal 0 0 -1
    outer loop
      vertex 29.4818 -0.713292 -5
      vertex 30.618 -3.90211 -5
      vertex 30.2091 -3.98904 -5
    endloop
  endfacet
  facet normal -0 0 -1
    outer loop
      vertex 32 2 -5
      vertex 29.625 0.649519 -5
      vertex 31.9563 2.41582 -5
    endloop
  endfacet
  facet normal -0 0 -1
    outer loop
      vertex 31.9563 2.41582 -5
      vertex 29.625 0.649519 -5
      vertex 31.8271 2.81347 -5
    endloop
  endfacet
  facet normal 0 0 -1
    outer loop
      vertex 32 -2 -5
      vertex 29.9836 -0.155933 -5
      vertex 30 0 -5
    endloop
  endfacet
  facet normal 0 0 -1
    outer loop
      vertex 32 -2 -5
      vertex 29.9352 -0.305052 -5
      vertex 29.9836 -0.155933 -5
    endloop
  endfacet
  facet normal 0 0 -1
    outer loop
      vertex 32 -2 -5
      vertex 29.8568 -0.440839 -5
      vertex 29.9352 -0.305052 -5
    endloop
  endfacet
  facet normal 0 0 -1
    outer loop
      vertex 32 -2 -5
      vertex 29.7518 -0.557358 -5
      vertex 29.8568 -0.440839 -5
    endloop
  endfacet
  facet normal 0 0 -1
    outer loop
      vertex 32 -2 -5
      vertex 29.625 -0.649519 -5
      vertex 29.7518 -0.557358 -5
    endloop
  endfacet
  facet normal 0 0 -1
    outer loop
      vertex 31.3383 -3.48629 -5
      vertex 29.4818 -0.713292 -5
      vertex 29.625 -0.649519 -5
    endloop
  endfacet
  facet normal 0 0 -1
    outer loop
      vertex 30.2091 -3.98904 -5
      vertex 29.3284 -0.745891 -5
      vertex 29.4818 -0.713292 -5
    endloop
  endfacet
  facet normal 0 0 -1
    outer loop
      vertex 30.2091 -3.98904 -5
      vertex 29.1716 -0.745891 -5
      vertex 29.3284 -0.745891 -5
    endloop
  endfacet
  facet normal 0 0 -1
    outer loop
      vertex 30.2091 -3.98904 -5
      vertex 29.0182 -0.713292 -5
      vertex 29.1716 -0.745891 -5
    endloop
  endfacet
  facet normal 0 0 -1
    outer loop
      vertex 30.2091 -3.98904 -5
      vertex 28.875 -0.649519 -5
      vertex 29.0182 -0.713292 -5
    endloop
  endfacet
  facet normal 0 0 -1
    outer loop
      vertex 30.2091 -3.98904 -5
      vertex 28.7482 -0.557358 -5
      vertex 28.875 -0.649519 -5
    endloop
  endfacet
  facet normal 0 0 -1
    outer loop
      vertex 22.2518 -0.557358 -5
      vertex 28.7482 -0.557358 -5
      vertex 30.2091 -3.98904 -5
    endloop
  endfacet
  facet normal 0 0 -1
    outer loop
      vertex 28.7482 -0.557358 -5
      vertex 22.2518 -0.557358 -5
      vertex 28.6432 -0.440839 -5
    endloop
  endfacet
  facet normal 0 0 -1
    outer loop
      vertex 28.5164 -0.155933 -5
      vertex 22.5 0 -5
      vertex 28.5 0 -5
    endloop
  endfacet
  facet normal 0 0 -1
    outer loop
      vertex 22.4836 -0.155933 -5
      vertex 28.5164 -0.155933 -5
      vertex 28.5648 -0.305052 -5
    endloop
  endfacet
  facet normal 0 -0 -1
    outer loop
      vertex 22.3568 -0.440839 -5
      vertex 28.6432 -0.440839 -5
      vertex 22.2518 -0.557358 -5
    endloop
  endfacet
  facet normal 0 0 -1
    outer loop
      vertex 28.5164 -0.155933 -5
      vertex 22.4836 -0.155933 -5
      vertex 22.5 0 -5
    endloop
  endfacet
  facet normal 0 0 -1
    outer loop
      vertex 28.5648 -0.305052 -5
      vertex 22.4352 -0.305052 -5
      vertex 22.4836 -0.155933 -5
    endloop
  endfacet
  facet normal -0 0 -1
    outer loop
      vertex 28.5648 -0.305052 -5
      vertex 22.3568 -0.440839 -5
      vertex 22.4352 -0.305052 -5
    endloop
  endfacet
  facet normal 0 0 -1
    outer loop
      vertex 28.6432 -0.440839 -5
      vertex 22.3568 -0.440839 -5
      vertex 28.5648 -0.305052 -5
    endloop
  endfacet
  facet normal 0 0 -1
    outer loop
      vertex 30.2091 -3.98904 -5
      vertex 22.125 -0.649519 -5
      vertex 22.2518 -0.557358 -5
    endloop
  endfacet
  facet normal 0 0 -1
    outer loop
      vertex 30.2091 -3.98904 -5
      vertex 21.9818 -0.713292 -5
      vertex 22.125 -0.649519 -5
    endloop
  endfacet
  facet normal 0 0 -1
    outer loop
      vertex 30.2091 -3.98904 -5
      vertex 21.8284 -0.745891 -5
      vertex 21.9818 -0.713292 -5
    endloop
  endfacet
  facet normal 0 0 -1
    outer loop
      vertex 30.2091 -3.98904 -5
      vertex 21.6716 -0.745891 -5
      vertex 21.8284 -0.745891 -5
    endloop
  endfacet
  facet normal 0 0 -1
    outer loop
      vertex 14.3284 -0.745891 -5
      vertex 21.6716 -0.745891 -5
      vertex 30.2091 -3.98904 -5
    endloop
  endfacet
  facet normal 0 0 -1
    outer loop
      vertex 21.0164 -0.155933 -5
      vertex 15 0 -5
      vertex 21 0 -5
    endloop
  endfacet
  facet normal 0 0 -1
    outer loop
      vertex 14.9836 -0.155933 -5
      vertex 21.0164 -0.155933 -5
      vertex 21.0648 -0.305052 -5
    endloop
  endfacet
  facet normal 0 0 -1
    outer loop
      vertex 14.9352 -0.305052 -5
      vertex 21.0648 -0.305052 -5
      vertex 21.1432 -0.440839 -5
    endloop
  endfacet
  facet normal 0 0 -1
    outer loop
      vertex 14.8568 -0.440839 -5
      vertex 21.1432 -0.440839 -5
      vertex 21.2482 -0.557358 -5
    endloop
  endfacet
  facet normal 0 0 -1
    outer loop
      vertex 14.7518 -0.557358 -5
      vertex 21.2482 -0.557358 -5
      vertex 21.375 -0.649519 -5
    endloop
  endfacet
  facet normal 0 0 -1
    outer loop
      vertex 14.625 -0.649519 -5
      vertex 21.375 -0.649519 -5
      vertex 21.5182 -0.713292 -5
    endloop
  endfacet
  facet normal 0 0 -1
    outer loop
      vertex 21.6716 -0.745891 -5
      vertex 14.3284 -0.745891 -5
      vertex 21.5182 -0.713292 -5
    endloop
  endfacet
  facet normal 0 0 -1
    outer loop
      vertex 21.0164 -0.155933 -5
      vertex 14.9836 -0.155933 -5
      vertex 15 0 -5
    endloop
  endfacet
  facet normal 0 0 -1
    outer loop
      vertex 21.0648 -0.305052 -5
      vertex 14.9352 -0.305052 -5
      vertex 14.9836 -0.155933 -5
    endloop
  endfacet
  facet normal 0 0 -1
    outer loop
      vertex 21.1432 -0.440839 -5
      vertex 14.8568 -0.440839 -5
      vertex 14.9352 -0.305052 -5
    endloop
  endfacet
  facet normal 0 0 -1
    outer loop
      vertex 21.2482 -0.557358 -5
      vertex 14.7518 -0.557358 -5
      vertex 14.8568 -0.440839 -5
    endloop
  endfacet
  facet normal 0 0 -1
    outer loop
      vertex 21.375 -0.649519 -5
      vertex 14.625 -0.649519 -5
      vertex 14.7518 -0.557358 -5
    endloop
  endfacet
  facet normal 0 0 -1
    outer loop
      vertex 21.5182 -0.713292 -5
      vertex 14.4818 -0.713292 -5
      vertex 14.625 -0.649519 -5
    endloop
  endfacet
  facet normal -0 0 -1
    outer loop
      vertex 21.5182 -0.713292 -5
      vertex 14.3284 -0.745891 -5
      vertex 14.4818 -0.713292 -5
    endloop
  endfacet
  facet normal 0 0 -1
    outer loop
      vertex -0.209057 -3.98904 -5
      vertex 14.3284 -0.745891 -5
      vertex 30.2091 -3.98904 -5
    endloop
  endfacet
  facet normal 0 0 -1
    outer loop
      vertex 13.5164 -0.155933 -5
      vertex 7.5 0 -5
      vertex 13.5 0 -5
    endloop
  endfacet
  facet normal 0 0 -1
    outer loop
      vertex 7.48361 -0.155933 -5
      vertex 13.5164 -0.155933 -5
      vertex 13.5648 -0.305052 -5
    endloop
  endfacet
  facet normal 0 0 -1
    outer loop
      vertex 7.43516 -0.305052 -5
      vertex 13.5648 -0.305052 -5
      vertex 13.6432 -0.440839 -5
    endloop
  endfacet
  facet normal 0 0 -1
    outer loop
      vertex 7.35676 -0.440839 -5
      vertex 13.6432 -0.440839 -5
      vertex 13.7482 -0.557358 -5
    endloop
  endfacet
  facet normal 0 0 -1
    outer loop
      vertex 7.25185 -0.557358 -5
      vertex 13.7482 -0.557358 -5
      vertex 13.875 -0.649519 -5
    endloop
  endfacet
  facet normal 0 0 -1
    outer loop
      vertex 7.125 -0.649519 -5
      vertex 13.875 -0.649519 -5
      vertex 14.0182 -0.713292 -5
    endloop
  endfacet
  facet normal 0 0 -1
    outer loop
      vertex 6.98176 -0.713292 -5
      vertex 14.0182 -0.713292 -5
      vertex 14.1716 -0.745891 -5
    endloop
  endfacet
  facet normal -0 0 -1
    outer loop
      vertex 14.3284 -0.745891 -5
      vertex -0.209057 -3.98904 -5
      vertex 14.1716 -0.745891 -5
    endloop
  endfacet
  facet normal 0 0 -1
    outer loop
      vertex 13.5164 -0.155933 -5
      vertex 7.48361 -0.155933 -5
      vertex 7.5 0 -5
    endloop
  endfacet
  facet normal 0 0 -1
    outer loop
      vertex 13.5648 -0.305052 -5
      vertex 7.43516 -0.305052 -5
      vertex 7.48361 -0.155933 -5
    endloop
  endfacet
  facet normal 0 0 -1
    outer loop
      vertex 13.6432 -0.440839 -5
      vertex 7.35676 -0.440839 -5
      vertex 7.43516 -0.305052 -5
    endloop
  endfacet
  facet normal 0 0 -1
    outer loop
      vertex 13.7482 -0.557358 -5
      vertex 7.25185 -0.557358 -5
      vertex 7.35676 -0.440839 -5
    endloop
  endfacet
  facet normal 0 0 -1
    outer loop
      vertex 13.875 -0.649519 -5
      vertex 7.125 -0.649519 -5
      vertex 7.25185 -0.557358 -5
    endloop
  endfacet
  facet normal 0 0 -1
    outer loop
      vertex 14.0182 -0.713292 -5
      vertex 6.98176 -0.713292 -5
      vertex 7.125 -0.649519 -5
    endloop
  endfacet
  facet normal -0 0 -1
    outer loop
      vertex 14.1716 -0.745891 -5
      vertex -0.209057 -3.98904 -5
      vertex 6.98176 -0.713292 -5
    endloop
  endfacet
  facet normal 0 0 -1
    outer loop
      vertex 6.98176 -0.713292 -5
      vertex -0.209057 -3.98904 -5
      vertex 6.8284 -0.745891 -5
    endloop
  endfacet
  facet normal -0 0 -1
    outer loop
      vertex 6.01639 -0.155933 -5
      vertex -0.209057 -3.98904 -5
      vertex 6 0 -5
    endloop
  endfacet
  facet normal -0 0 -1
    outer loop
      vertex 6.06484 -0.305052 -5
      vertex -0.209057 -3.98904 -5
      vertex 6.01639 -0.155933 -5
    endloop
  endfacet
  facet normal -0 0 -1
    outer loop
      vertex 6.14324 -0.440839 -5
      vertex -0.209057 -3.98904 -5
      vertex 6.06484 -0.305052 -5
    endloop
  endfacet
  facet normal -0 0 -1
    outer loop
      vertex 6.24815 -0.557358 -5
      vertex -0.209057 -3.98904 -5
      vertex 6.14324 -0.440839 -5
    endloop
  endfacet
  facet normal -0 0 -1
    outer loop
      vertex 6.375 -0.649519 -5
      vertex -0.209057 -3.98904 -5
      vertex 6.24815 -0.557358 -5
    endloop
  endfacet
  facet normal -0 0 -1
    outer loop
      vertex 6.51824 -0.713292 -5
      vertex -0.209057 -3.98904 -5
      vertex 6.375 -0.649519 -5
    endloop
  endfacet
  facet normal -0 0 -1
    outer loop
      vertex 6.6716 -0.745891 -5
      vertex -0.209057 -3.98904 -5
      vertex 6.51824 -0.713292 -5
    endloop
  endfacet
  facet normal -0 0 -1
    outer loop
      vertex 6.8284 -0.745891 -5
      vertex -0.209057 -3.98904 -5
      vertex 6.6716 -0.745891 -5
    endloop
  endfacet
  facet normal -0 0 -1
    outer loop
      vertex 31.8271 2.81347 -5
      vertex 29.625 0.649519 -5
      vertex 31.618 3.17557 -5
    endloop
  endfacet
  facet normal -0 0 -1
    outer loop
      vertex 31.618 3.17557 -5
      vertex 29.625 0.649519 -5
      vertex 31.3383 3.48629 -5
    endloop
  endfacet
  facet normal 0 0 -1
    outer loop
      vertex 29.4818 0.713292 -5
      vertex 31.3383 3.48629 -5
      vertex 29.625 0.649519 -5
    endloop
  endfacet
  facet normal -0 0 -1
    outer loop
      vertex 31.3383 3.48629 -5
      vertex 29.4818 0.713292 -5
      vertex 31 3.73205 -5
    endloop
  endfacet
  facet normal -0 0 -1
    outer loop
      vertex 31 3.73205 -5
      vertex 29.4818 0.713292 -5
      vertex 30.618 3.90211 -5
    endloop
  endfacet
  facet normal -0 0 -1
    outer loop
      vertex 30.618 3.90211 -5
      vertex 29.4818 0.713292 -5
      vertex 30.2091 3.98904 -5
    endloop
  endfacet
  facet normal 0 0 -1
    outer loop
      vertex 29.3284 0.745891 -5
      vertex 30.2091 3.98904 -5
      vertex 29.4818 0.713292 -5
    endloop
  endfacet
  facet normal 0 0 -1
    outer loop
      vertex 29.1716 0.745891 -5
      vertex 30.2091 3.98904 -5
      vertex 29.3284 0.745891 -5
    endloop
  endfacet
  facet normal 0 0 -1
    outer loop
      vertex 29.0182 0.713292 -5
      vertex 30.2091 3.98904 -5
      vertex 29.1716 0.745891 -5
    endloop
  endfacet
  facet normal 0 0 -1
    outer loop
      vertex 28.875 0.649519 -5
      vertex 30.2091 3.98904 -5
      vertex 29.0182 0.713292 -5
    endloop
  endfacet
  facet normal 0 0 -1
    outer loop
      vertex 28.7482 0.557358 -5
      vertex 30.2091 3.98904 -5
      vertex 28.875 0.649519 -5
    endloop
  endfacet
  facet normal 0 0 -1
    outer loop
      vertex 22.2518 0.557358 -5
      vertex 28.7482 0.557358 -5
      vertex 28.6432 0.440839 -5
    endloop
  endfacet
  facet normal 0 0 -1
    outer loop
      vertex 22.3568 0.440839 -5
      vertex 28.6432 0.440839 -5
      vertex 28.5648 0.305052 -5
    endloop
  endfacet
  facet normal 0 0 -1
    outer loop
      vertex 22.5 0 -5
      vertex 28.5164 0.155933 -5
      vertex 28.5 0 -5
    endloop
  endfacet
  facet normal 0 0 -1
    outer loop
      vertex 22.4836 0.155933 -5
      vertex 28.5164 0.155933 -5
      vertex 22.5 0 -5
    endloop
  endfacet
  facet normal 0 0 -1
    outer loop
      vertex 28.5164 0.155933 -5
      vertex 22.4836 0.155933 -5
      vertex 28.5648 0.305052 -5
    endloop
  endfacet
  facet normal 0 0 -1
    outer loop
      vertex 22.4352 0.305052 -5
      vertex 28.5648 0.305052 -5
      vertex 22.4836 0.155933 -5
    endloop
  endfacet
  facet normal 0 0 -1
    outer loop
      vertex 22.3568 0.440839 -5
      vertex 28.5648 0.305052 -5
      vertex 22.4352 0.305052 -5
    endloop
  endfacet
  facet normal 0 0 -1
    outer loop
      vertex 28.6432 0.440839 -5
      vertex 22.3568 0.440839 -5
      vertex 22.2518 0.557358 -5
    endloop
  endfacet
  facet normal 0 0 -1
    outer loop
      vertex 28.7482 0.557358 -5
      vertex 22.2518 0.557358 -5
      vertex 30.2091 3.98904 -5
    endloop
  endfacet
  facet normal 0 0 -1
    outer loop
      vertex 22.125 0.649519 -5
      vertex 30.2091 3.98904 -5
      vertex 22.2518 0.557358 -5
    endloop
  endfacet
  facet normal 0 0 -1
    outer loop
      vertex 21.9818 0.713292 -5
      vertex 30.2091 3.98904 -5
      vertex 22.125 0.649519 -5
    endloop
  endfacet
  facet normal 0 0 -1
    outer loop
      vertex 21.8284 0.745891 -5
      vertex 30.2091 3.98904 -5
      vertex 21.9818 0.713292 -5
    endloop
  endfacet
  facet normal 0 0 -1
    outer loop
      vertex 21.6716 0.745891 -5
      vertex 30.2091 3.98904 -5
      vertex 21.8284 0.745891 -5
    endloop
  endfacet
  facet normal 0 0 -1
    outer loop
      vertex 14.3284 0.745891 -5
      vertex 21.6716 0.745891 -5
      vertex 21.5182 0.713292 -5
    endloop
  endfacet
  facet normal 0 0 -1
    outer loop
      vertex 15 0 -5
      vertex 21.0164 0.155933 -5
      vertex 21 0 -5
    endloop
  endfacet
  facet normal 0 0 -1
    outer loop
      vertex 14.9836 0.155933 -5
      vertex 21.0164 0.155933 -5
      vertex 15 0 -5
    endloop
  endfacet
  facet normal 0 0 -1
    outer loop
      vertex 21.0164 0.155933 -5
      vertex 14.9836 0.155933 -5
      vertex 21.0648 0.305052 -5
    endloop
  endfacet
  facet normal 0 0 -1
    outer loop
      vertex 14.9352 0.305052 -5
      vertex 21.0648 0.305052 -5
      vertex 14.9836 0.155933 -5
    endloop
  endfacet
  facet normal 0 0 -1
    outer loop
      vertex 21.0648 0.305052 -5
      vertex 14.9352 0.305052 -5
      vertex 21.1432 0.440839 -5
    endloop
  endfacet
  facet normal 0 0 -1
    outer loop
      vertex 14.8568 0.440839 -5
      vertex 21.1432 0.440839 -5
      vertex 14.9352 0.305052 -5
    endloop
  endfacet
  facet normal 0 0 -1
    outer loop
      vertex 21.1432 0.440839 -5
      vertex 14.8568 0.440839 -5
      vertex 21.2482 0.557358 -5
    endloop
  endfacet
  facet normal 0 0 -1
    outer loop
      vertex 14.7518 0.557358 -5
      vertex 21.2482 0.557358 -5
      vertex 14.8568 0.440839 -5
    endloop
  endfacet
  facet normal 0 0 -1
    outer loop
      vertex 21.2482 0.557358 -5
      vertex 14.7518 0.557358 -5
      vertex 21.375 0.649519 -5
    endloop
  endfacet
  facet normal 0 0 -1
    outer loop
      vertex 14.625 0.649519 -5
      vertex 21.375 0.649519 -5
      vertex 14.7518 0.557358 -5
    endloop
  endfacet
  facet normal 0 0 -1
    outer loop
      vertex 21.375 0.649519 -5
      vertex 14.625 0.649519 -5
      vertex 21.5182 0.713292 -5
    endloop
  endfacet
  facet normal 0 0 -1
    outer loop
      vertex 14.4818 0.713292 -5
      vertex 21.5182 0.713292 -5
      vertex 14.625 0.649519 -5
    endloop
  endfacet
  facet normal 0 0 -1
    outer loop
      vertex 14.3284 0.745891 -5
      vertex 21.5182 0.713292 -5
      vertex 14.4818 0.713292 -5
    endloop
  endfacet
  facet normal 0 0 -1
    outer loop
      vertex 21.6716 0.745891 -5
      vertex 14.3284 0.745891 -5
      vertex 30.2091 3.98904 -5
    endloop
  endfacet
  facet normal 0 0 -1
    outer loop
      vertex -0.209057 3.98904 -5
      vertex 14.3284 0.745891 -5
      vertex 14.1716 0.745891 -5
    endloop
  endfacet
  facet normal 0 0 -1
    outer loop
      vertex 7.5 0 -5
      vertex 13.5164 0.155933 -5
      vertex 13.5 0 -5
    endloop
  endfacet
  facet normal 0 0 -1
    outer loop
      vertex 7.48361 0.155933 -5
      vertex 13.5164 0.155933 -5
      vertex 7.5 0 -5
    endloop
  endfacet
  facet normal 0 0 -1
    outer loop
      vertex 13.5164 0.155933 -5
      vertex 7.48361 0.155933 -5
      vertex 13.5648 0.305052 -5
    endloop
  endfacet
  facet normal 0 0 -1
    outer loop
      vertex 7.43516 0.305052 -5
      vertex 13.5648 0.305052 -5
      vertex 7.48361 0.155933 -5
    endloop
  endfacet
  facet normal 0 0 -1
    outer loop
      vertex 13.5648 0.305052 -5
      vertex 7.43516 0.305052 -5
      vertex 13.6432 0.440839 -5
    endloop
  endfacet
  facet normal 0 0 -1
    outer loop
      vertex 7.35676 0.440839 -5
      vertex 13.6432 0.440839 -5
      vertex 7.43516 0.305052 -5
    endloop
  endfacet
  facet normal 0 0 -1
    outer loop
      vertex 13.6432 0.440839 -5
      vertex 7.35676 0.440839 -5
      vertex 13.7482 0.557358 -5
    endloop
  endfacet
  facet normal 0 0 -1
    outer loop
      vertex 7.25185 0.557358 -5
      vertex 13.7482 0.557358 -5
      vertex 7.35676 0.440839 -5
    endloop
  endfacet
  facet normal 0 0 -1
    outer loop
      vertex 13.7482 0.557358 -5
      vertex 7.25185 0.557358 -5
      vertex 13.875 0.649519 -5
    endloop
  endfacet
  facet normal 0 0 -1
    outer loop
      vertex 7.125 0.649519 -5
      vertex 13.875 0.649519 -5
      vertex 7.25185 0.557358 -5
    endloop
  endfacet
  facet normal 0 0 -1
    outer loop
      vertex 13.875 0.649519 -5
      vertex 7.125 0.649519 -5
      vertex 14.0182 0.713292 -5
    endloop
  endfacet
  facet normal 0 0 -1
    outer loop
      vertex 6.98176 0.713292 -5
      vertex 14.0182 0.713292 -5
      vertex 7.125 0.649519 -5
    endloop
  endfacet
  facet normal 0 0 -1
    outer loop
      vertex 14.0182 0.713292 -5
      vertex 6.98176 0.713292 -5
      vertex 14.1716 0.745891 -5
    endloop
  endfacet
  facet normal 0 0 -1
    outer loop
      vertex -0.209057 3.98904 -5
      vertex 14.1716 0.745891 -5
      vertex 6.98176 0.713292 -5
    endloop
  endfacet
  facet normal 0 0 -1
    outer loop
      vertex -0.209057 3.98904 -5
      vertex 6.98176 0.713292 -5
      vertex 6.8284 0.745891 -5
    endloop
  endfacet
  facet normal 0 0 -1
    outer loop
      vertex -0.209057 3.98904 -5
      vertex 6.8284 0.745891 -5
      vertex 6.6716 0.745891 -5
    endloop
  endfacet
  facet normal 0 0 -1
    outer loop
      vertex -2 -2 -5
      vertex 6 0 -5
      vertex -0.209057 -3.98904 -5
    endloop
  endfacet
  facet normal 0 0 -1
    outer loop
      vertex -2 2 -5
      vertex 6 0 -5
      vertex -2 -2 -5
    endloop
  endfacet
  facet normal 0 -0 -1
    outer loop
      vertex -0.209057 3.98904 -5
      vertex 6 0 -5
      vertex -2 2 -5
    endloop
  endfacet
  facet normal 0 0 -1
    outer loop
      vertex 6 0 -5
      vertex -0.209057 3.98904 -5
      vertex 6.01639 0.155933 -5
    endloop
  endfacet
  facet normal 0 0 -1
    outer loop
      vertex 6.01639 0.155933 -5
      vertex -0.209057 3.98904 -5
      vertex 6.06484 0.305052 -5
    endloop
  endfacet
  facet normal 0 0 -1
    outer loop
      vertex 14.3284 0.745891 -5
      vertex -0.209057 3.98904 -5
      vertex 30.2091 3.98904 -5
    endloop
  endfacet
  facet normal 0 0 -1
    outer loop
      vertex 6.51824 0.713292 -5
      vertex -0.209057 3.98904 -5
      vertex 6.6716 0.745891 -5
    endloop
  endfacet
  facet normal 0 0 -1
    outer loop
      vertex 6.375 0.649519 -5
      vertex -0.209057 3.98904 -5
      vertex 6.51824 0.713292 -5
    endloop
  endfacet
  facet normal 0 0 -1
    outer loop
      vertex 6.06484 0.305052 -5
      vertex -0.209057 3.98904 -5
      vertex 6.14324 0.440839 -5
    endloop
  endfacet
  facet normal 0 0 -1
    outer loop
      vertex -2 -2 -5
      vertex -0.209057 -3.98904 -5
      vertex -0.618033 -3.90211 -5
    endloop
  endfacet
  facet normal 0 0 -1
    outer loop
      vertex 6.14324 0.440839 -5
      vertex -0.209057 3.98904 -5
      vertex 6.24815 0.557358 -5
    endloop
  endfacet
  facet normal 0 0 -1
    outer loop
      vertex -0.209057 3.98904 -5
      vertex -2 2 -5
      vertex -0.618033 3.90211 -5
    endloop
  endfacet
  facet normal 0 0 -1
    outer loop
      vertex -2 -2 -5
      vertex -0.618033 -3.90211 -5
      vertex -1 -3.73205 -5
    endloop
  endfacet
  facet normal 0 0 -1
    outer loop
      vertex -2 -2 -5
      vertex -1 -3.73205 -5
      vertex -1.33826 -3.48629 -5
    endloop
  endfacet
  facet normal 0 0 -1
    outer loop
      vertex 6.24815 0.557358 -5
      vertex -0.209057 3.98904 -5
      vertex 6.375 0.649519 -5
    endloop
  endfacet
  facet normal 0 0 -1
    outer loop
      vertex -2 -2 -5
      vertex -1.33826 -3.48629 -5
      vertex -1.61803 -3.17557 -5
    endloop
  endfacet
  facet normal 0 0 -1
    outer loop
      vertex -0.618033 3.90211 -5
      vertex -2 2 -5
      vertex -0.999999 3.73205 -5
    endloop
  endfacet
  facet normal 0 0 -1
    outer loop
      vertex -2 -2 -5
      vertex -1.61803 -3.17557 -5
      vertex -1.82709 -2.81347 -5
    endloop
  endfacet
  facet normal 0 0 -1
    outer loop
      vertex -0.999999 3.73205 -5
      vertex -2 2 -5
      vertex -1.33826 3.48629 -5
    endloop
  endfacet
  facet normal 0 0 -1
    outer loop
      vertex -2 -2 -5
      vertex -1.82709 -2.81347 -5
      vertex -1.9563 -2.41582 -5
    endloop
  endfacet
  facet normal 0 0 -1
    outer loop
      vertex -1.33826 3.48629 -5
      vertex -2 2 -5
      vertex -1.61803 3.17557 -5
    endloop
  endfacet
  facet normal 0 0 -1
    outer loop
      vertex -1.61803 3.17557 -5
      vertex -2 2 -5
      vertex -1.82709 2.81347 -5
    endloop
  endfacet
  facet normal 0 0 -1
    outer loop
      vertex -1.82709 2.81347 -5
      vertex -2 2 -5
      vertex -1.9563 2.41582 -5
    endloop
  endfacet
  facet normal 0 1 -0
    outer loop
      vertex 30.2091 3.98904 -5
      vertex -0.209057 3.98904 5
      vertex 30.2091 3.98904 5
    endloop
  endfacet
  facet normal 0 1 0
    outer loop
      vertex -0.209057 3.98904 5
      vertex 30.2091 3.98904 -5
      vertex -0.209057 3.98904 -5
    endloop
  endfacet
  facet normal -1 0 0
    outer loop
      vertex -2 -2 -5
      vertex -2 2 5
      vertex -2 2 -5
    endloop
  endfacet
  facet normal -1 -0 0
    outer loop
      vertex -2 2 5
      vertex -2 -2 -5
      vertex -2 -2 5
    endloop
  endfacet
  facet normal 0.20791 -0.978148 0
    outer loop
      vertex 30.2091 -3.98904 -5
      vertex 30.618 -3.90211 5
      vertex 30.2091 -3.98904 5
    endloop
  endfacet
  facet normal 0.20791 -0.978148 0
    outer loop
      vertex 30.618 -3.90211 5
      vertex 30.2091 -3.98904 -5
      vertex 30.618 -3.90211 -5
    endloop
  endfacet
  facet normal 0 -1 0
    outer loop
      vertex -0.209057 -3.98904 -5
      vertex 30.2091 -3.98904 5
      vertex -0.209057 -3.98904 5
    endloop
  endfacet
  facet normal 0 -1 -0
    outer loop
      vertex 30.2091 -3.98904 5
      vertex -0.209057 -3.98904 -5
      vertex 30.2091 -3.98904 -5
    endloop
  endfacet
  facet normal -0.994522 -0.104529 0
    outer loop
      vertex -1.9563 -2.41582 -5
      vertex -2 -2 5
      vertex -2 -2 -5
    endloop
  endfacet
  facet normal -0.994522 -0.104529 0
    outer loop
      vertex -2 -2 5
      vertex -1.9563 -2.41582 -5
      vertex -1.9563 -2.41582 5
    endloop
  endfacet
  facet normal 1 -0 0
    outer loop
      vertex 32 -2 5
      vertex 32 2 -5
      vertex 32 2 5
    endloop
  endfacet
  facet normal 1 0 0
    outer loop
      vertex 32 2 -5
      vertex 32 -2 5
      vertex 32 -2 -5
    endloop
  endfacet
  facet normal -0.207911 -0.978148 0
    outer loop
      vertex -0.618033 -3.90211 -5
      vertex -0.209057 -3.98904 5
      vertex -0.618033 -3.90211 5
    endloop
  endfacet
  facet normal -0.207911 -0.978148 -0
    outer loop
      vertex -0.209057 -3.98904 5
      vertex -0.618033 -3.90211 -5
      vertex -0.209057 -3.98904 -5
    endloop
  endfacet
  facet normal 0.951057 0.309016 0
    outer loop
      vertex 31.9563 2.41582 5
      vertex 31.8271 2.81347 -5
      vertex 31.8271 2.81347 5
    endloop
  endfacet
  facet normal 0.951057 0.309016 0
    outer loop
      vertex 31.8271 2.81347 -5
      vertex 31.9563 2.41582 5
      vertex 31.9563 2.41582 -5
    endloop
  endfacet
  facet normal -0.994522 0.104529 0
    outer loop
      vertex -2 2 -5
      vertex -1.9563 2.41582 5
      vertex -1.9563 2.41582 -5
    endloop
  endfacet
  facet normal -0.994522 0.104529 0
    outer loop
      vertex -1.9563 2.41582 5
      vertex -2 2 -5
      vertex -2 2 5
    endloop
  endfacet
  facet normal -0.951056 0.309018 0
    outer loop
      vertex -1.9563 2.41582 -5
      vertex -1.82709 2.81347 5
      vertex -1.82709 2.81347 -5
    endloop
  endfacet
  facet normal -0.951056 0.309018 0
    outer loop
      vertex -1.82709 2.81347 5
      vertex -1.9563 2.41582 -5
      vertex -1.9563 2.41582 5
    endloop
  endfacet
  facet normal 0.951057 -0.309016 0
    outer loop
      vertex 31.8271 -2.81347 5
      vertex 31.9563 -2.41582 -5
      vertex 31.9563 -2.41582 5
    endloop
  endfacet
  facet normal 0.951057 -0.309016 0
    outer loop
      vertex 31.9563 -2.41582 -5
      vertex 31.8271 -2.81347 5
      vertex 31.8271 -2.81347 -5
    endloop
  endfacet
  facet normal 0.994522 -0.104529 0
    outer loop
      vertex 31.9563 -2.41582 5
      vertex 32 -2 -5
      vertex 32 -2 5
    endloop
  endfacet
  facet normal 0.994522 -0.104529 0
    outer loop
      vertex 32 -2 -5
      vertex 31.9563 -2.41582 5
      vertex 31.9563 -2.41582 -5
    endloop
  endfacet
  facet normal -0.743144 -0.669131 0
    outer loop
      vertex -1.33826 -3.48629 -5
      vertex -1.61803 -3.17557 5
      vertex -1.61803 -3.17557 -5
    endloop
  endfacet
  facet normal -0.743144 -0.669131 0
    outer loop
      vertex -1.61803 -3.17557 5
      vertex -1.33826 -3.48629 -5
      vertex -1.33826 -3.48629 5
    endloop
  endfacet
  facet normal 0.406739 0.913545 -0
    outer loop
      vertex 31 3.73205 -5
      vertex 30.618 3.90211 5
      vertex 31 3.73205 5
    endloop
  endfacet
  facet normal 0.406739 0.913545 0
    outer loop
      vertex 30.618 3.90211 5
      vertex 31 3.73205 -5
      vertex 30.618 3.90211 -5
    endloop
  endfacet
  facet normal 0 0 1
    outer loop
      vertex 29.625 0.649519 5
      vertex 32 2 5
      vertex 31.9563 2.41582 5
    endloop
  endfacet
  facet normal 0 0 1
    outer loop
      vertex 32 2 5
      vertex 30 0 5
      vertex 32 -2 5
    endloop
  endfacet
  facet normal 0 0 1
    outer loop
      vertex 29.625 0.649519 5
      vertex 31.9563 2.41582 5
      vertex 31.8271 2.81347 5
    endloop
  endfacet
  facet normal -0 0 1
    outer loop
      vertex 29.9836 -0.155933 5
      vertex 32 -2 5
      vertex 30 0 5
    endloop
  endfacet
  facet normal 0 0 1
    outer loop
      vertex 29.625 0.649519 5
      vertex 31.8271 2.81347 5
      vertex 31.618 3.17557 5
    endloop
  endfacet
  facet normal -0 0 1
    outer loop
      vertex 29.9352 -0.305052 5
      vertex 32 -2 5
      vertex 29.9836 -0.155933 5
    endloop
  endfacet
  facet normal 0 0 1
    outer loop
      vertex 29.625 0.649519 5
      vertex 31.618 3.17557 5
      vertex 31.3383 3.48629 5
    endloop
  endfacet
  facet normal -0 0 1
    outer loop
      vertex 29.8568 -0.440839 5
      vertex 32 -2 5
      vertex 29.9352 -0.305052 5
    endloop
  endfacet
  facet normal 0 0 1
    outer loop
      vertex 29.4818 0.713292 5
      vertex 31.3383 3.48629 5
      vertex 31 3.73205 5
    endloop
  endfacet
  facet normal -0 0 1
    outer loop
      vertex 29.7518 -0.557358 5
      vertex 32 -2 5
      vertex 29.8568 -0.440839 5
    endloop
  endfacet
  facet normal 0 0 1
    outer loop
      vertex 29.4818 0.713292 5
      vertex 31 3.73205 5
      vertex 30.618 3.90211 5
    endloop
  endfacet
  facet normal -0 0 1
    outer loop
      vertex 29.625 -0.649519 5
      vertex 32 -2 5
      vertex 29.7518 -0.557358 5
    endloop
  endfacet
  facet normal 0 0 1
    outer loop
      vertex 29.4818 0.713292 5
      vertex 30.618 3.90211 5
      vertex 30.2091 3.98904 5
    endloop
  endfacet
  facet normal 0 0 1
    outer loop
      vertex 32 -2 5
      vertex 29.625 -0.649519 5
      vertex 31.9563 -2.41582 5
    endloop
  endfacet
  facet normal 0 0 1
    outer loop
      vertex 31.9563 -2.41582 5
      vertex 29.625 -0.649519 5
      vertex 31.8271 -2.81347 5
    endloop
  endfacet
  facet normal 0 0 1
    outer loop
      vertex 32 2 5
      vertex 29.9836 0.155933 5
      vertex 30 0 5
    endloop
  endfacet
  facet normal 0 0 1
    outer loop
      vertex 32 2 5
      vertex 29.9352 0.305052 5
      vertex 29.9836 0.155933 5
    endloop
  endfacet
  facet normal 0 0 1
    outer loop
      vertex 32 2 5
      vertex 29.8568 0.440839 5
      vertex 29.9352 0.305052 5
    endloop
  endfacet
  facet normal 0 0 1
    outer loop
      vertex 32 2 5
      vertex 29.7518 0.557358 5
      vertex 29.8568 0.440839 5
    endloop
  endfacet
  facet normal 0 0 1
    outer loop
      vertex 32 2 5
      vertex 29.625 0.649519 5
      vertex 29.7518 0.557358 5
    endloop
  endfacet
  facet normal 0 0 1
    outer loop
      vertex 31.3383 3.48629 5
      vertex 29.4818 0.713292 5
      vertex 29.625 0.649519 5
    endloop
  endfacet
  facet normal 0 0 1
    outer loop
      vertex 30.2091 3.98904 5
      vertex 29.3284 0.745891 5
      vertex 29.4818 0.713292 5
    endloop
  endfacet
  facet normal 0 0 1
    outer loop
      vertex 30.2091 3.98904 5
      vertex 29.1716 0.745891 5
      vertex 29.3284 0.745891 5
    endloop
  endfacet
  facet normal 0 0 1
    outer loop
      vertex 30.2091 3.98904 5
      vertex 29.0182 0.713292 5
      vertex 29.1716 0.745891 5
    endloop
  endfacet
  facet normal 0 0 1
    outer loop
      vertex 30.2091 3.98904 5
      vertex 28.875 0.649519 5
      vertex 29.0182 0.713292 5
    endloop
  endfacet
  facet normal 0 0 1
    outer loop
      vertex 30.2091 3.98904 5
      vertex 28.7482 0.557358 5
      vertex 28.875 0.649519 5
    endloop
  endfacet
  facet normal 0 0 1
    outer loop
      vertex 22.2518 0.557358 5
      vertex 28.7482 0.557358 5
      vertex 30.2091 3.98904 5
    endloop
  endfacet
  facet normal 0 0 1
    outer loop
      vertex 28.7482 0.557358 5
      vertex 22.2518 0.557358 5
      vertex 28.6432 0.440839 5
    endloop
  endfacet
  facet normal 0 0 1
    outer loop
      vertex 28.5164 0.155933 5
      vertex 22.5 0 5
      vertex 28.5 0 5
    endloop
  endfacet
  facet normal 0 0 1
    outer loop
      vertex 22.4836 0.155933 5
      vertex 28.5164 0.155933 5
      vertex 28.5648 0.305052 5
    endloop
  endfacet
  facet normal 0 -0 1
    outer loop
      vertex 22.3568 0.440839 5
      vertex 28.6432 0.440839 5
      vertex 22.2518 0.557358 5
    endloop
  endfacet
  facet normal 0 0 1
    outer loop
      vertex 28.5164 0.155933 5
      vertex 22.4836 0.155933 5
      vertex 22.5 0 5
    endloop
  endfacet
  facet normal 0 0 1
    outer loop
      vertex 28.5648 0.305052 5
      vertex 22.4352 0.305052 5
      vertex 22.4836 0.155933 5
    endloop
  endfacet
  facet normal 0 0 1
    outer loop
      vertex 28.5648 0.305052 5
      vertex 22.3568 0.440839 5
      vertex 22.4352 0.305052 5
    endloop
  endfacet
  facet normal 0 0 1
    outer loop
      vertex 28.6432 0.440839 5
      vertex 22.3568 0.440839 5
      vertex 28.5648 0.305052 5
    endloop
  endfacet
  facet normal 0 0 1
    outer loop
      vertex 30.2091 3.98904 5
      vertex 22.125 0.649519 5
      vertex 22.2518 0.557358 5
    endloop
  endfacet
  facet normal 0 0 1
    outer loop
      vertex 30.2091 3.98904 5
      vertex 21.9818 0.713292 5
      vertex 22.125 0.649519 5
    endloop
  endfacet
  facet normal 0 0 1
    outer loop
      vertex 30.2091 3.98904 5
      vertex 21.8284 0.745891 5
      vertex 21.9818 0.713292 5
    endloop
  endfacet
  facet normal 0 0 1
    outer loop
      vertex 30.2091 3.98904 5
      vertex 21.6716 0.745891 5
      vertex 21.8284 0.745891 5
    endloop
  endfacet
  facet normal 0 0 1
    outer loop
      vertex 14.3284 0.745891 5
      vertex 21.6716 0.745891 5
      vertex 30.2091 3.98904 5
    endloop
  endfacet
  facet normal 0 0 1
    outer loop
      vertex 21.0164 0.155933 5
      vertex 15 0 5
      vertex 21 0 5
    endloop
  endfacet
  facet normal 0 0 1
    outer loop
      vertex 14.9836 0.155933 5
      vertex 21.0164 0.155933 5
      vertex 21.0648 0.305052 5
    endloop
  endfacet
  facet normal 0 0 1
    outer loop
      vertex 14.9352 0.305052 5
      vertex 21.0648 0.305052 5
      vertex 21.1432 0.440839 5
    endloop
  endfacet
  facet normal 0 0 1
    outer loop
      vertex 14.8568 0.440839 5
      vertex 21.1432 0.440839 5
      vertex 21.2482 0.557358 5
    endloop
  endfacet
  facet normal 0 0 1
    outer loop
      vertex 14.7518 0.557358 5
      vertex 21.2482 0.557358 5
      vertex 21.375 0.649519 5
    endloop
  endfacet
  facet normal 0 0 1
    outer loop
      vertex 14.625 0.649519 5
      vertex 21.375 0.649519 5
      vertex 21.5182 0.713292 5
    endloop
  endfacet
  facet normal 0 0 1
    outer loop
      vertex 21.6716 0.745891 5
      vertex 14.3284 0.745891 5
      vertex 21.5182 0.713292 5
    endloop
  endfacet
  facet normal 0 0 1
    outer loop
      vertex 21.0164 0.155933 5
      vertex 14.9836 0.155933 5
      vertex 15 0 5
    endloop
  endfacet
  facet normal 0 0 1
    outer loop
      vertex 21.0648 0.305052 5
      vertex 14.9352 0.305052 5
      vertex 14.9836 0.155933 5
    endloop
  endfacet
  facet normal 0 0 1
    outer loop
      vertex 21.1432 0.440839 5
      vertex 14.8568 0.440839 5
      vertex 14.9352 0.305052 5
    endloop
  endfacet
  facet normal 0 0 1
    outer loop
      vertex 21.2482 0.557358 5
      vertex 14.7518 0.557358 5
      vertex 14.8568 0.440839 5
    endloop
  endfacet
  facet normal 0 0 1
    outer loop
      vertex 21.375 0.649519 5
      vertex 14.625 0.649519 5
      vertex 14.7518 0.557358 5
    endloop
  endfacet
  facet normal 0 0 1
    outer loop
      vertex 21.5182 0.713292 5
      vertex 14.4818 0.713292 5
      vertex 14.625 0.649519 5
    endloop
  endfacet
  facet normal 0 0 1
    outer loop
      vertex 21.5182 0.713292 5
      vertex 14.3284 0.745891 5
      vertex 14.4818 0.713292 5
    endloop
  endfacet
  facet normal -0 0 1
    outer loop
      vertex -0.209057 3.98904 5
      vertex 14.3284 0.745891 5
      vertex 30.2091 3.98904 5
    endloop
  endfacet
  facet normal 0 0 1
    outer loop
      vertex 13.5164 0.155933 5
      vertex 7.5 0 5
      vertex 13.5 0 5
    endloop
  endfacet
  facet normal 0 0 1
    outer loop
      vertex 7.48361 0.155933 5
      vertex 13.5164 0.155933 5
      vertex 13.5648 0.305052 5
    endloop
  endfacet
  facet normal 0 0 1
    outer loop
      vertex 7.43516 0.305052 5
      vertex 13.5648 0.305052 5
      vertex 13.6432 0.440839 5
    endloop
  endfacet
  facet normal 0 0 1
    outer loop
      vertex 7.35676 0.440839 5
      vertex 13.6432 0.440839 5
      vertex 13.7482 0.557358 5
    endloop
  endfacet
  facet normal 0 0 1
    outer loop
      vertex 7.25185 0.557358 5
      vertex 13.7482 0.557358 5
      vertex 13.875 0.649519 5
    endloop
  endfacet
  facet normal 0 0 1
    outer loop
      vertex 7.125 0.649519 5
      vertex 13.875 0.649519 5
      vertex 14.0182 0.713292 5
    endloop
  endfacet
  facet normal 0 0 1
    outer loop
      vertex 6.98176 0.713292 5
      vertex 14.0182 0.713292 5
      vertex 14.1716 0.745891 5
    endloop
  endfacet
  facet normal 0 0 1
    outer loop
      vertex 14.3284 0.745891 5
      vertex -0.209057 3.98904 5
      vertex 14.1716 0.745891 5
    endloop
  endfacet
  facet normal 0 0 1
    outer loop
      vertex 13.5164 0.155933 5
      vertex 7.48361 0.155933 5
      vertex 7.5 0 5
    endloop
  endfacet
  facet normal 0 0 1
    outer loop
      vertex 13.5648 0.305052 5
      vertex 7.43516 0.305052 5
      vertex 7.48361 0.155933 5
    endloop
  endfacet
  facet normal 0 0 1
    outer loop
      vertex 13.6432 0.440839 5
      vertex 7.35676 0.440839 5
      vertex 7.43516 0.305052 5
    endloop
  endfacet
  facet normal 0 0 1
    outer loop
      vertex 13.7482 0.557358 5
      vertex 7.25185 0.557358 5
      vertex 7.35676 0.440839 5
    endloop
  endfacet
  facet normal 0 0 1
    outer loop
      vertex 13.875 0.649519 5
      vertex 7.125 0.649519 5
      vertex 7.25185 0.557358 5
    endloop
  endfacet
  facet normal 0 0 1
    outer loop
      vertex 14.0182 0.713292 5
      vertex 6.98176 0.713292 5
      vertex 7.125 0.649519 5
    endloop
  endfacet
  facet normal 0 0 1
    outer loop
      vertex 14.1716 0.745891 5
      vertex -0.209057 3.98904 5
      vertex 6.98176 0.713292 5
    endloop
  endfacet
  facet normal 0 0 1
    outer loop
      vertex 6.98176 0.713292 5
      vertex -0.209057 3.98904 5
      vertex 6.8284 0.745891 5
    endloop
  endfacet
  facet normal 0 0 1
    outer loop
      vertex 6.01639 0.155933 5
      vertex -0.209057 3.98904 5
      vertex 6 0 5
    endloop
  endfacet
  facet normal 0 0 1
    outer loop
      vertex 6.06484 0.305052 5
      vertex -0.209057 3.98904 5
      vertex 6.01639 0.155933 5
    endloop
  endfacet
  facet normal 0 0 1
    outer loop
      vertex 6.14324 0.440839 5
      vertex -0.209057 3.98904 5
      vertex 6.06484 0.305052 5
    endloop
  endfacet
  facet normal 0 0 1
    outer loop
      vertex 6.24815 0.557358 5
      vertex -0.209057 3.98904 5
      vertex 6.14324 0.440839 5
    endloop
  endfacet
  facet normal 0 0 1
    outer loop
      vertex 6.375 0.649519 5
      vertex -0.209057 3.98904 5
      vertex 6.24815 0.557358 5
    endloop
  endfacet
  facet normal 0 0 1
    outer loop
      vertex 6.51824 0.713292 5
      vertex -0.209057 3.98904 5
      vertex 6.375 0.649519 5
    endloop
  endfacet
  facet normal 0 0 1
    outer loop
      vertex 6.6716 0.745891 5
      vertex -0.209057 3.98904 5
      vertex 6.51824 0.713292 5
    endloop
  endfacet
  facet normal 0 0 1
    outer loop
      vertex 6.8284 0.745891 5
      vertex -0.209057 3.98904 5
      vertex 6.6716 0.745891 5
    endloop
  endfacet
  facet normal 0 0 1
    outer loop
      vertex 31.8271 -2.81347 5
      vertex 29.625 -0.649519 5
      vertex 31.618 -3.17557 5
    endloop
  endfacet
  facet normal 0 0 1
    outer loop
      vertex 31.618 -3.17557 5
      vertex 29.625 -0.649519 5
      vertex 31.3383 -3.48629 5
    endloop
  endfacet
  facet normal -0 0 1
    outer loop
      vertex 29.4818 -0.713292 5
      vertex 31.3383 -3.48629 5
      vertex 29.625 -0.649519 5
    endloop
  endfacet
  facet normal 0 0 1
    outer loop
      vertex 31.3383 -3.48629 5
      vertex 29.4818 -0.713292 5
      vertex 31 -3.73205 5
    endloop
  endfacet
  facet normal 0 0 1
    outer loop
      vertex 31 -3.73205 5
      vertex 29.4818 -0.713292 5
      vertex 30.618 -3.90211 5
    endloop
  endfacet
  facet normal 0 0 1
    outer loop
      vertex 30.618 -3.90211 5
      vertex 29.4818 -0.713292 5
      vertex 30.2091 -3.98904 5
    endloop
  endfacet
  facet normal -0 0 1
    outer loop
      vertex 29.3284 -0.745891 5
      vertex 30.2091 -3.98904 5
      vertex 29.4818 -0.713292 5
    endloop
  endfacet
  facet normal -0 0 1
    outer loop
      vertex 29.1716 -0.745891 5
      vertex 30.2091 -3.98904 5
      vertex 29.3284 -0.745891 5
    endloop
  endfacet
  facet normal 0 0 1
    outer loop
      vertex 29.0182 -0.713292 5
      vertex 30.2091 -3.98904 5
      vertex 29.1716 -0.745891 5
    endloop
  endfacet
  facet normal 0 0 1
    outer loop
      vertex 28.875 -0.649519 5
      vertex 30.2091 -3.98904 5
      vertex 29.0182 -0.713292 5
    endloop
  endfacet
  facet normal 0 0 1
    outer loop
      vertex 28.7482 -0.557358 5
      vertex 30.2091 -3.98904 5
      vertex 28.875 -0.649519 5
    endloop
  endfacet
  facet normal 0 0 1
    outer loop
      vertex 22.2518 -0.557358 5
      vertex 28.7482 -0.557358 5
      vertex 28.6432 -0.440839 5
    endloop
  endfacet
  facet normal 0 0 1
    outer loop
      vertex 22.3568 -0.440839 5
      vertex 28.6432 -0.440839 5
      vertex 28.5648 -0.305052 5
    endloop
  endfacet
  facet normal -0 0 1
    outer loop
      vertex 22.5 0 5
      vertex 28.5164 -0.155933 5
      vertex 28.5 0 5
    endloop
  endfacet
  facet normal 0 0 1
    outer loop
      vertex 22.4836 -0.155933 5
      vertex 28.5164 -0.155933 5
      vertex 22.5 0 5
    endloop
  endfacet
  facet normal 0 0 1
    outer loop
      vertex 28.5164 -0.155933 5
      vertex 22.4836 -0.155933 5
      vertex 28.5648 -0.305052 5
    endloop
  endfacet
  facet normal 0 0 1
    outer loop
      vertex 22.4352 -0.305052 5
      vertex 28.5648 -0.305052 5
      vertex 22.4836 -0.155933 5
    endloop
  endfacet
  facet normal 0 0 1
    outer loop
      vertex 22.3568 -0.440839 5
      vertex 28.5648 -0.305052 5
      vertex 22.4352 -0.305052 5
    endloop
  endfacet
  facet normal 0 0 1
    outer loop
      vertex 28.6432 -0.440839 5
      vertex 22.3568 -0.440839 5
      vertex 22.2518 -0.557358 5
    endloop
  endfacet
  facet normal 0 0 1
    outer loop
      vertex 28.7482 -0.557358 5
      vertex 22.2518 -0.557358 5
      vertex 30.2091 -3.98904 5
    endloop
  endfacet
  facet normal -0 0 1
    outer loop
      vertex 22.125 -0.649519 5
      vertex 30.2091 -3.98904 5
      vertex 22.2518 -0.557358 5
    endloop
  endfacet
  facet normal -0 0 1
    outer loop
      vertex 21.9818 -0.713292 5
      vertex 30.2091 -3.98904 5
      vertex 22.125 -0.649519 5
    endloop
  endfacet
  facet normal -0 0 1
    outer loop
      vertex 21.8284 -0.745891 5
      vertex 30.2091 -3.98904 5
      vertex 21.9818 -0.713292 5
    endloop
  endfacet
  facet normal -0 0 1
    outer loop
      vertex 21.6716 -0.745891 5
      vertex 30.2091 -3.98904 5
      vertex 21.8284 -0.745891 5
    endloop
  endfacet
  facet normal 0 0 1
    outer loop
      vertex 14.3284 -0.745891 5
      vertex 21.6716 -0.745891 5
      vertex 21.5182 -0.713292 5
    endloop
  endfacet
  facet normal -0 0 1
    outer loop
      vertex 15 0 5
      vertex 21.0164 -0.155933 5
      vertex 21 0 5
    endloop
  endfacet
  facet normal 0 0 1
    outer loop
      vertex 14.9836 -0.155933 5
      vertex 21.0164 -0.155933 5
      vertex 15 0 5
    endloop
  endfacet
  facet normal 0 0 1
    outer loop
      vertex 21.0164 -0.155933 5
      vertex 14.9836 -0.155933 5
      vertex 21.0648 -0.305052 5
    endloop
  endfacet
  facet normal 0 0 1
    outer loop
      vertex 14.9352 -0.305052 5
      vertex 21.0648 -0.305052 5
      vertex 14.9836 -0.155933 5
    endloop
  endfacet
  facet normal 0 0 1
    outer loop
      vertex 21.0648 -0.305052 5
      vertex 14.9352 -0.305052 5
      vertex 21.1432 -0.440839 5
    endloop
  endfacet
  facet normal 0 0 1
    outer loop
      vertex 14.8568 -0.440839 5
      vertex 21.1432 -0.440839 5
      vertex 14.9352 -0.305052 5
    endloop
  endfacet
  facet normal 0 0 1
    outer loop
      vertex 21.1432 -0.440839 5
      vertex 14.8568 -0.440839 5
      vertex 21.2482 -0.557358 5
    endloop
  endfacet
  facet normal 0 0 1
    outer loop
      vertex 14.7518 -0.557358 5
      vertex 21.2482 -0.557358 5
      vertex 14.8568 -0.440839 5
    endloop
  endfacet
  facet normal 0 0 1
    outer loop
      vertex 21.2482 -0.557358 5
      vertex 14.7518 -0.557358 5
      vertex 21.375 -0.649519 5
    endloop
  endfacet
  facet normal 0 0 1
    outer loop
      vertex 14.625 -0.649519 5
      vertex 21.375 -0.649519 5
      vertex 14.7518 -0.557358 5
    endloop
  endfacet
  facet normal 0 0 1
    outer loop
      vertex 21.375 -0.649519 5
      vertex 14.625 -0.649519 5
      vertex 21.5182 -0.713292 5
    endloop
  endfacet
  facet normal 0 0 1
    outer loop
      vertex 14.4818 -0.713292 5
      vertex 21.5182 -0.713292 5
      vertex 14.625 -0.649519 5
    endloop
  endfacet
  facet normal 0 0 1
    outer loop
      vertex 14.3284 -0.745891 5
      vertex 21.5182 -0.713292 5
      vertex 14.4818 -0.713292 5
    endloop
  endfacet
  facet normal 0 0 1
    outer loop
      vertex 21.6716 -0.745891 5
      vertex 14.3284 -0.745891 5
      vertex 30.2091 -3.98904 5
    endloop
  endfacet
  facet normal 0 0 1
    outer loop
      vertex -0.209057 -3.98904 5
      vertex 14.3284 -0.745891 5
      vertex 14.1716 -0.745891 5
    endloop
  endfacet
  facet normal -0 0 1
    outer loop
      vertex 7.5 0 5
      vertex 13.5164 -0.155933 5
      vertex 13.5 0 5
    endloop
  endfacet
  facet normal 0 0 1
    outer loop
      vertex 7.48361 -0.155933 5
      vertex 13.5164 -0.155933 5
      vertex 7.5 0 5
    endloop
  endfacet
  facet normal 0 0 1
    outer loop
      vertex 13.5164 -0.155933 5
      vertex 7.48361 -0.155933 5
      vertex 13.5648 -0.305052 5
    endloop
  endfacet
  facet normal 0 0 1
    outer loop
      vertex 7.43516 -0.305052 5
      vertex 13.5648 -0.305052 5
      vertex 7.48361 -0.155933 5
    endloop
  endfacet
  facet normal 0 0 1
    outer loop
      vertex 13.5648 -0.305052 5
      vertex 7.43516 -0.305052 5
      vertex 13.6432 -0.440839 5
    endloop
  endfacet
  facet normal 0 0 1
    outer loop
      vertex 7.35676 -0.440839 5
      vertex 13.6432 -0.440839 5
      vertex 7.43516 -0.305052 5
    endloop
  endfacet
  facet normal 0 0 1
    outer loop
      vertex 13.6432 -0.440839 5
      vertex 7.35676 -0.440839 5
      vertex 13.7482 -0.557358 5
    endloop
  endfacet
  facet normal 0 0 1
    outer loop
      vertex 7.25185 -0.557358 5
      vertex 13.7482 -0.557358 5
      vertex 7.35676 -0.440839 5
    endloop
  endfacet
  facet normal 0 0 1
    outer loop
      vertex 13.7482 -0.557358 5
      vertex 7.25185 -0.557358 5
      vertex 13.875 -0.649519 5
    endloop
  endfacet
  facet normal 0 0 1
    outer loop
      vertex 7.125 -0.649519 5
      vertex 13.875 -0.649519 5
      vertex 7.25185 -0.557358 5
    endloop
  endfacet
  facet normal 0 0 1
    outer loop
      vertex 13.875 -0.649519 5
      vertex 7.125 -0.649519 5
      vertex 14.0182 -0.713292 5
    endloop
  endfacet
  facet normal 0 0 1
    outer loop
      vertex 6.98176 -0.713292 5
      vertex 14.0182 -0.713292 5
      vertex 7.125 -0.649519 5
    endloop
  endfacet
  facet normal 0 0 1
    outer loop
      vertex 14.0182 -0.713292 5
      vertex 6.98176 -0.713292 5
      vertex 14.1716 -0.745891 5
    endloop
  endfacet
  facet normal 0 0 1
    outer loop
      vertex -0.209057 -3.98904 5
      vertex 14.1716 -0.745891 5
      vertex 6.98176 -0.713292 5
    endloop
  endfacet
  facet normal 0 0 1
    outer loop
      vertex -0.209057 -3.98904 5
      vertex 6.98176 -0.713292 5
      vertex 6.8284 -0.745891 5
    endloop
  endfacet
  facet normal 0 0 1
    outer loop
      vertex -0.209057 -3.98904 5
      vertex 6.8284 -0.745891 5
      vertex 6.6716 -0.745891 5
    endloop
  endfacet
  facet normal -0 0 1
    outer loop
      vertex -2 2 5
      vertex 6 0 5
      vertex -0.209057 3.98904 5
    endloop
  endfacet
  facet normal 0 0 1
    outer loop
      vertex -2 -2 5
      vertex 6 0 5
      vertex -2 2 5
    endloop
  endfacet
  facet normal 0 -0 1
    outer loop
      vertex -0.209057 -3.98904 5
      vertex 6 0 5
      vertex -2 -2 5
    endloop
  endfacet
  facet normal 0 0 1
    outer loop
      vertex 6 0 5
      vertex -0.209057 -3.98904 5
      vertex 6.01639 -0.155933 5
    endloop
  endfacet
  facet normal 0 0 1
    outer loop
      vertex 6.01639 -0.155933 5
      vertex -0.209057 -3.98904 5
      vertex 6.06484 -0.305052 5
    endloop
  endfacet
  facet normal 0 0 1
    outer loop
      vertex 14.3284 -0.745891 5
      vertex -0.209057 -3.98904 5
      vertex 30.2091 -3.98904 5
    endloop
  endfacet
  facet normal 0 0 1
    outer loop
      vertex 6.51824 -0.713292 5
      vertex -0.209057 -3.98904 5
      vertex 6.6716 -0.745891 5
    endloop
  endfacet
  facet normal 0 0 1
    outer loop
      vertex 6.375 -0.649519 5
      vertex -0.209057 -3.98904 5
      vertex 6.51824 -0.713292 5
    endloop
  endfacet
  facet normal 0 0 1
    outer loop
      vertex 6.06484 -0.305052 5
      vertex -0.209057 -3.98904 5
      vertex 6.14324 -0.440839 5
    endloop
  endfacet
  facet normal 0 0 1
    outer loop
      vertex -2 2 5
      vertex -0.209057 3.98904 5
      vertex -0.618033 3.90211 5
    endloop
  endfacet
  facet normal 0 0 1
    outer loop
      vertex 6.14324 -0.440839 5
      vertex -0.209057 -3.98904 5
      vertex 6.24815 -0.557358 5
    endloop
  endfacet
  facet normal 0 0 1
    outer loop
      vertex -2 2 5
      vertex -0.618033 3.90211 5
      vertex -0.999999 3.73205 5
    endloop
  endfacet
  facet normal 0 0 1
    outer loop
      vertex 6.24815 -0.557358 5
      vertex -0.209057 -3.98904 5
      vertex 6.375 -0.649519 5
    endloop
  endfacet
  facet normal 0 0 1
    outer loop
      vertex -2 2 5
      vertex -0.999999 3.73205 5
      vertex -1.33826 3.48629 5
    endloop
  endfacet
  facet normal 0 0 1
    outer loop
      vertex -0.209057 -3.98904 5
      vertex -2 -2 5
      vertex -0.618033 -3.90211 5
    endloop
  endfacet
  facet normal 0 0 1
    outer loop
      vertex -2 2 5
      vertex -1.33826 3.48629 5
      vertex -1.61803 3.17557 5
    endloop
  endfacet
  facet normal 0 0 1
    outer loop
      vertex -0.618033 -3.90211 5
      vertex -2 -2 5
      vertex -1 -3.73205 5
    endloop
  endfacet
  facet normal 0 0 1
    outer loop
      vertex -2 2 5
      vertex -1.61803 3.17557 5
      vertex -1.82709 2.81347 5
    endloop
  endfacet
  facet normal 0 0 1
    outer loop
      vertex -1 -3.73205 5
      vertex -2 -2 5
      vertex -1.33826 -3.48629 5
    endloop
  endfacet
  facet normal 0 0 1
    outer loop
      vertex -2 2 5
      vertex -1.82709 2.81347 5
      vertex -1.9563 2.41582 5
    endloop
  endfacet
  facet normal 0 0 1
    outer loop
      vertex -1.33826 -3.48629 5
      vertex -2 -2 5
      vertex -1.61803 -3.17557 5
    endloop
  endfacet
  facet normal 0 0 1
    outer loop
      vertex -1.61803 -3.17557 5
      vertex -2 -2 5
      vertex -1.82709 -2.81347 5
    endloop
  endfacet
  facet normal 0 0 1
    outer loop
      vertex -1.82709 -2.81347 5
      vertex -2 -2 5
      vertex -1.9563 -2.41582 5
    endloop
  endfacet
  facet normal -0.743144 0.669131 0
    outer loop
      vertex -1.61803 3.17557 -5
      vertex -1.33826 3.48629 5
      vertex -1.33826 3.48629 -5
    endloop
  endfacet
  facet normal -0.743144 0.669131 0
    outer loop
      vertex -1.33826 3.48629 5
      vertex -1.61803 3.17557 -5
      vertex -1.61803 3.17557 5
    endloop
  endfacet
  facet normal -0.587784 0.809018 0
    outer loop
      vertex -0.999999 3.73205 -5
      vertex -1.33826 3.48629 5
      vertex -0.999999 3.73205 5
    endloop
  endfacet
  facet normal -0.587784 0.809018 0
    outer loop
      vertex -1.33826 3.48629 5
      vertex -0.999999 3.73205 -5
      vertex -1.33826 3.48629 -5
    endloop
  endfacet
  facet normal -0.207911 0.978148 0
    outer loop
      vertex -0.209057 3.98904 -5
      vertex -0.618033 3.90211 5
      vertex -0.209057 3.98904 5
    endloop
  endfacet
  facet normal -0.207911 0.978148 0
    outer loop
      vertex -0.618033 3.90211 5
      vertex -0.209057 3.98904 -5
      vertex -0.618033 3.90211 -5
    endloop
  endfacet
  facet normal 0.994522 0.104529 0
    outer loop
      vertex 32 2 5
      vertex 31.9563 2.41582 -5
      vertex 31.9563 2.41582 5
    endloop
  endfacet
  facet normal 0.994522 0.104529 0
    outer loop
      vertex 31.9563 2.41582 -5
      vertex 32 2 5
      vertex 32 2 -5
    endloop
  endfacet
  facet normal -0.406738 -0.913545 0
    outer loop
      vertex -1 -3.73205 -5
      vertex -0.618033 -3.90211 5
      vertex -1 -3.73205 5
    endloop
  endfacet
  facet normal -0.406738 -0.913545 -0
    outer loop
      vertex -0.618033 -3.90211 5
      vertex -1 -3.73205 -5
      vertex -0.618033 -3.90211 -5
    endloop
  endfacet
  facet normal -0.587786 -0.809017 0
    outer loop
      vertex -1.33826 -3.48629 -5
      vertex -1 -3.73205 5
      vertex -1.33826 -3.48629 5
    endloop
  endfacet
  facet normal -0.587786 -0.809017 -0
    outer loop
      vertex -1 -3.73205 5
      vertex -1.33826 -3.48629 -5
      vertex -1 -3.73205 -5
    endloop
  endfacet
  facet normal -0.866026 -0.499999 0
    outer loop
      vertex -1.61803 -3.17557 -5
      vertex -1.82709 -2.81347 5
      vertex -1.82709 -2.81347 -5
    endloop
  endfacet
  facet normal -0.866026 -0.499999 0
    outer loop
      vertex -1.82709 -2.81347 5
      vertex -1.61803 -3.17557 -5
      vertex -1.61803 -3.17557 5
    endloop
  endfacet
  facet normal -0.951056 -0.309018 0
    outer loop
      vertex -1.82709 -2.81347 -5
      vertex -1.9563 -2.41582 5
      vertex -1.9563 -2.41582 -5
    endloop
  endfacet
  facet normal -0.951056 -0.309018 0
    outer loop
      vertex -1.9563 -2.41582 5
      vertex -1.82709 -2.81347 -5
      vertex -1.82709 -2.81347 5
    endloop
  endfacet
  facet normal 0.20791 0.978148 -0
    outer loop
      vertex 30.618 3.90211 -5
      vertex 30.2091 3.98904 5
      vertex 30.618 3.90211 5
    endloop
  endfacet
  facet normal 0.20791 0.978148 0
    outer loop
      vertex 30.2091 3.98904 5
      vertex 30.618 3.90211 -5
      vertex 30.2091 3.98904 -5
    endloop
  endfacet
  facet normal -0.866026 0.499999 0
    outer loop
      vertex -1.82709 2.81347 -5
      vertex -1.61803 3.17557 5
      vertex -1.61803 3.17557 -5
    endloop
  endfacet
  facet normal -0.866026 0.499999 0
    outer loop
      vertex -1.61803 3.17557 5
      vertex -1.82709 2.81347 -5
      vertex -1.82709 2.81347 5
    endloop
  endfacet
  facet normal -0.406739 0.913545 0
    outer loop
      vertex -0.618033 3.90211 -5
      vertex -0.999999 3.73205 5
      vertex -0.618033 3.90211 5
    endloop
  endfacet
  facet normal -0.406739 0.913545 0
    outer loop
      vertex -0.999999 3.73205 5
      vertex -0.618033 3.90211 -5
      vertex -0.999999 3.73205 -5
    endloop
  endfacet
  facet normal 0.866026 0.499999 0
    outer loop
      vertex 31.8271 2.81347 5
      vertex 31.618 3.17557 -5
      vertex 31.618 3.17557 5
    endloop
  endfacet
  facet normal 0.866026 0.499999 0
    outer loop
      vertex 31.618 3.17557 -5
      vertex 31.8271 2.81347 5
      vertex 31.8271 2.81347 -5
    endloop
  endfacet
  facet normal 0.743143 0.669133 0
    outer loop
      vertex 31.618 3.17557 5
      vertex 31.3383 3.48629 -5
      vertex 31.3383 3.48629 5
    endloop
  endfacet
  facet normal 0.743143 0.669133 0
    outer loop
      vertex 31.3383 3.48629 -5
      vertex 31.618 3.17557 5
      vertex 31.618 3.17557 -5
    endloop
  endfacet
  facet normal 0.406739 -0.913545 0
    outer loop
      vertex 30.618 -3.90211 -5
      vertex 31 -3.73205 5
      vertex 30.618 -3.90211 5
    endloop
  endfacet
  facet normal 0.406739 -0.913545 0
    outer loop
      vertex 31 -3.73205 5
      vertex 30.618 -3.90211 -5
      vertex 31 -3.73205 -5
    endloop
  endfacet
  facet normal 0.587786 -0.809017 0
    outer loop
      vertex 31 -3.73205 -5
      vertex 31.3383 -3.48629 5
      vertex 31 -3.73205 5
    endloop
  endfacet
  facet normal 0.587786 -0.809017 0
    outer loop
      vertex 31.3383 -3.48629 5
      vertex 31 -3.73205 -5
      vertex 31.3383 -3.48629 -5
    endloop
  endfacet
  facet normal 0.743143 -0.669133 0
    outer loop
      vertex 31.3383 -3.48629 5
      vertex 31.618 -3.17557 -5
      vertex 31.618 -3.17557 5
    endloop
  endfacet
  facet normal 0.743143 -0.669133 0
    outer loop
      vertex 31.618 -3.17557 -5
      vertex 31.3383 -3.48629 5
      vertex 31.3383 -3.48629 -5
    endloop
  endfacet
  facet normal 0.866026 -0.499999 0
    outer loop
      vertex 31.618 -3.17557 5
      vertex 31.8271 -2.81347 -5
      vertex 31.8271 -2.81347 5
    endloop
  endfacet
  facet normal 0.866026 -0.499999 0
    outer loop
      vertex 31.8271 -2.81347 -5
      vertex 31.618 -3.17557 5
      vertex 31.618 -3.17557 -5
    endloop
  endfacet
  facet normal 0.587786 0.809017 -0
    outer loop
      vertex 31.3383 3.48629 -5
      vertex 31 3.73205 5
      vertex 31.3383 3.48629 5
    endloop
  endfacet
  facet normal 0.587786 0.809017 0
    outer loop
      vertex 31 3.73205 5
      vertex 31.3383 3.48629 -5
      vertex 31 3.73205 -5
    endloop
  endfacet
  facet normal -0.994522 -0.104532 0
    outer loop
      vertex 7.5 0 -5
      vertex 7.48361 0.155933 5
      vertex 7.48361 0.155933 -5
    endloop
  endfacet
  facet normal -0.994522 -0.104532 0
    outer loop
      vertex 7.48361 0.155933 5
      vertex 7.5 0 -5
      vertex 7.5 0 5
    endloop
  endfacet
  facet normal 0.994522 -0.104532 0
    outer loop
      vertex 6 0 5
      vertex 6.01639 0.155933 -5
      vertex 6.01639 0.155933 5
    endloop
  endfacet
  facet normal 0.994522 -0.104532 0
    outer loop
      vertex 6.01639 0.155933 -5
      vertex 6 0 5
      vertex 6 0 -5
    endloop
  endfacet
  facet normal 0 -1 0
    outer loop
      vertex 6.6716 0.745891 -5
      vertex 6.8284 0.745891 5
      vertex 6.6716 0.745891 5
    endloop
  endfacet
  facet normal 0 -1 -0
    outer loop
      vertex 6.8284 0.745891 5
      vertex 6.6716 0.745891 -5
      vertex 6.8284 0.745891 -5
    endloop
  endfacet
  facet normal 0 1 -0
    outer loop
      vertex 6.8284 -0.745891 -5
      vertex 6.6716 -0.745891 5
      vertex 6.8284 -0.745891 5
    endloop
  endfacet
  facet normal 0 1 0
    outer loop
      vertex 6.6716 -0.745891 5
      vertex 6.8284 -0.745891 -5
      vertex 6.6716 -0.745891 -5
    endloop
  endfacet
  facet normal -0.58779 -0.809013 0
    outer loop
      vertex 7.125 0.649519 -5
      vertex 7.25185 0.557358 5
      vertex 7.125 0.649519 5
    endloop
  endfacet
  facet normal -0.58779 -0.809013 -0
    outer loop
      vertex 7.25185 0.557358 5
      vertex 7.125 0.649519 -5
      vertex 7.25185 0.557358 -5
    endloop
  endfacet
  facet normal -0.406734 -0.913547 0
    outer loop
      vertex 6.98176 0.713292 -5
      vertex 7.125 0.649519 5
      vertex 6.98176 0.713292 5
    endloop
  endfacet
  facet normal -0.406734 -0.913547 -0
    outer loop
      vertex 7.125 0.649519 5
      vertex 6.98176 0.713292 -5
      vertex 7.125 0.649519 -5
    endloop
  endfacet
  facet normal 0.743143 -0.669132 0
    outer loop
      vertex 6.14324 0.440839 5
      vertex 6.24815 0.557358 -5
      vertex 6.24815 0.557358 5
    endloop
  endfacet
  facet normal 0.743143 -0.669132 0
    outer loop
      vertex 6.24815 0.557358 -5
      vertex 6.14324 0.440839 5
      vertex 6.14324 0.440839 -5
    endloop
  endfacet
  facet normal 0.866025 -0.500001 0
    outer loop
      vertex 6.06484 0.305052 5
      vertex 6.14324 0.440839 -5
      vertex 6.14324 0.440839 5
    endloop
  endfacet
  facet normal 0.866025 -0.500001 0
    outer loop
      vertex 6.14324 0.440839 -5
      vertex 6.06484 0.305052 5
      vertex 6.06484 0.305052 -5
    endloop
  endfacet
  facet normal 0.406734 -0.913547 0
    outer loop
      vertex 6.375 0.649519 -5
      vertex 6.51824 0.713292 5
      vertex 6.375 0.649519 5
    endloop
  endfacet
  facet normal 0.406734 -0.913547 0
    outer loop
      vertex 6.51824 0.713292 5
      vertex 6.375 0.649519 -5
      vertex 6.51824 0.713292 -5
    endloop
  endfacet
  facet normal -0.866025 -0.500001 0
    outer loop
      vertex 7.43516 0.305052 -5
      vertex 7.35676 0.440839 5
      vertex 7.35676 0.440839 -5
    endloop
  endfacet
  facet normal -0.866025 -0.500001 0
    outer loop
      vertex 7.35676 0.440839 5
      vertex 7.43516 0.305052 -5
      vertex 7.43516 0.305052 5
    endloop
  endfacet
  facet normal -0.951057 -0.309016 0
    outer loop
      vertex 7.48361 0.155933 -5
      vertex 7.43516 0.305052 5
      vertex 7.43516 0.305052 -5
    endloop
  endfacet
  facet normal -0.951057 -0.309016 0
    outer loop
      vertex 7.43516 0.305052 5
      vertex 7.48361 0.155933 -5
      vertex 7.48361 0.155933 5
    endloop
  endfacet
  facet normal -0.743143 -0.669132 0
    outer loop
      vertex 7.35676 0.440839 -5
      vertex 7.25185 0.557358 5
      vertex 7.25185 0.557358 -5
    endloop
  endfacet
  facet normal -0.743143 -0.669132 0
    outer loop
      vertex 7.25185 0.557358 5
      vertex 7.35676 0.440839 -5
      vertex 7.35676 0.440839 5
    endloop
  endfacet
  facet normal -0.207909 -0.978148 0
    outer loop
      vertex 6.8284 0.745891 -5
      vertex 6.98176 0.713292 5
      vertex 6.8284 0.745891 5
    endloop
  endfacet
  facet normal -0.207909 -0.978148 -0
    outer loop
      vertex 6.98176 0.713292 5
      vertex 6.8284 0.745891 -5
      vertex 6.98176 0.713292 -5
    endloop
  endfacet
  facet normal 0.951057 -0.309016 0
    outer loop
      vertex 6.01639 0.155933 5
      vertex 6.06484 0.305052 -5
      vertex 6.06484 0.305052 5
    endloop
  endfacet
  facet normal 0.951057 -0.309016 0
    outer loop
      vertex 6.06484 0.305052 -5
      vertex 6.01639 0.155933 5
      vertex 6.01639 0.155933 -5
    endloop
  endfacet
  facet normal 0.58779 -0.809013 0
    outer loop
      vertex 6.24815 0.557358 -5
      vertex 6.375 0.649519 5
      vertex 6.24815 0.557358 5
    endloop
  endfacet
  facet normal 0.58779 -0.809013 0
    outer loop
      vertex 6.375 0.649519 5
      vertex 6.24815 0.557358 -5
      vertex 6.375 0.649519 -5
    endloop
  endfacet
  facet normal 0.207909 -0.978148 0
    outer loop
      vertex 6.51824 0.713292 -5
      vertex 6.6716 0.745891 5
      vertex 6.51824 0.713292 5
    endloop
  endfacet
  facet normal 0.207909 -0.978148 0
    outer loop
      vertex 6.6716 0.745891 5
      vertex 6.51824 0.713292 -5
      vertex 6.6716 0.745891 -5
    endloop
  endfacet
  facet normal -0.994522 0.104532 0
    outer loop
      vertex 7.48361 -0.155933 -5
      vertex 7.5 0 5
      vertex 7.5 0 -5
    endloop
  endfacet
  facet normal -0.994522 0.104532 0
    outer loop
      vertex 7.5 0 5
      vertex 7.48361 -0.155933 -5
      vertex 7.48361 -0.155933 5
    endloop
  endfacet
  facet normal -0.207909 0.978148 0
    outer loop
      vertex 6.98176 -0.713292 -5
      vertex 6.8284 -0.745891 5
      vertex 6.98176 -0.713292 5
    endloop
  endfacet
  facet normal -0.207909 0.978148 0
    outer loop
      vertex 6.8284 -0.745891 5
      vertex 6.98176 -0.713292 -5
      vertex 6.8284 -0.745891 -5
    endloop
  endfacet
  facet normal -0.866025 0.500001 0
    outer loop
      vertex 7.35676 -0.440839 -5
      vertex 7.43516 -0.305052 5
      vertex 7.43516 -0.305052 -5
    endloop
  endfacet
  facet normal -0.866025 0.500001 0
    outer loop
      vertex 7.43516 -0.305052 5
      vertex 7.35676 -0.440839 -5
      vertex 7.35676 -0.440839 5
    endloop
  endfacet
  facet normal 0.866025 0.500001 0
    outer loop
      vertex 6.14324 -0.440839 5
      vertex 6.06484 -0.305052 -5
      vertex 6.06484 -0.305052 5
    endloop
  endfacet
  facet normal 0.866025 0.500001 0
    outer loop
      vertex 6.06484 -0.305052 -5
      vertex 6.14324 -0.440839 5
      vertex 6.14324 -0.440839 -5
    endloop
  endfacet
  facet normal 0.994522 0.104532 0
    outer loop
      vertex 6.01639 -0.155933 5
      vertex 6 0 -5
      vertex 6 0 5
    endloop
  endfacet
  facet normal 0.994522 0.104532 0
    outer loop
      vertex 6 0 -5
      vertex 6.01639 -0.155933 5
      vertex 6.01639 -0.155933 -5
    endloop
  endfacet
  facet normal -0.58779 0.809013 0
    outer loop
      vertex 7.25185 -0.557358 -5
      vertex 7.125 -0.649519 5
      vertex 7.25185 -0.557358 5
    endloop
  endfacet
  facet normal -0.58779 0.809013 0
    outer loop
      vertex 7.125 -0.649519 5
      vertex 7.25185 -0.557358 -5
      vertex 7.125 -0.649519 -5
    endloop
  endfacet
  facet normal -0.406734 0.913547 0
    outer loop
      vertex 7.125 -0.649519 -5
      vertex 6.98176 -0.713292 5
      vertex 7.125 -0.649519 5
    endloop
  endfacet
  facet normal -0.406734 0.913547 0
    outer loop
      vertex 6.98176 -0.713292 5
      vertex 7.125 -0.649519 -5
      vertex 6.98176 -0.713292 -5
    endloop
  endfacet
  facet normal -0.951057 0.309016 0
    outer loop
      vertex 7.43516 -0.305052 -5
      vertex 7.48361 -0.155933 5
      vertex 7.48361 -0.155933 -5
    endloop
  endfacet
  facet normal -0.951057 0.309016 0
    outer loop
      vertex 7.48361 -0.155933 5
      vertex 7.43516 -0.305052 -5
      vertex 7.43516 -0.305052 5
    endloop
  endfacet
  facet normal 0.743143 0.669132 0
    outer loop
      vertex 6.24815 -0.557358 5
      vertex 6.14324 -0.440839 -5
      vertex 6.14324 -0.440839 5
    endloop
  endfacet
  facet normal 0.743143 0.669132 0
    outer loop
      vertex 6.14324 -0.440839 -5
      vertex 6.24815 -0.557358 5
      vertex 6.24815 -0.557358 -5
    endloop
  endfacet
  facet normal 0.951057 0.309016 0
    outer loop
      vertex 6.06484 -0.305052 5
      vertex 6.01639 -0.155933 -5
      vertex 6.01639 -0.155933 5
    endloop
  endfacet
  facet normal 0.951057 0.309016 0
    outer loop
      vertex 6.01639 -0.155933 -5
      vertex 6.06484 -0.305052 5
      vertex 6.06484 -0.305052 -5
    endloop
  endfacet
  facet normal -0.743143 0.669132 0
    outer loop
      vertex 7.25185 -0.557358 -5
      vertex 7.35676 -0.440839 5
      vertex 7.35676 -0.440839 -5
    endloop
  endfacet
  facet normal -0.743143 0.669132 0
    outer loop
      vertex 7.35676 -0.440839 5
      vertex 7.25185 -0.557358 -5
      vertex 7.25185 -0.557358 5
    endloop
  endfacet
  facet normal 0.58779 0.809013 -0
    outer loop
      vertex 6.375 -0.649519 -5
      vertex 6.24815 -0.557358 5
      vertex 6.375 -0.649519 5
    endloop
  endfacet
  facet normal 0.58779 0.809013 0
    outer loop
      vertex 6.24815 -0.557358 5
      vertex 6.375 -0.649519 -5
      vertex 6.24815 -0.557358 -5
    endloop
  endfacet
  facet normal 0.406734 0.913547 -0
    outer loop
      vertex 6.51824 -0.713292 -5
      vertex 6.375 -0.649519 5
      vertex 6.51824 -0.713292 5
    endloop
  endfacet
  facet normal 0.406734 0.913547 0
    outer loop
      vertex 6.375 -0.649519 5
      vertex 6.51824 -0.713292 -5
      vertex 6.375 -0.649519 -5
    endloop
  endfacet
  facet normal 0.207909 0.978148 -0
    outer loop
      vertex 6.6716 -0.745891 -5
      vertex 6.51824 -0.713292 5
      vertex 6.6716 -0.745891 5
    endloop
  endfacet
  facet normal 0.207909 0.978148 0
    outer loop
      vertex 6.51824 -0.713292 5
      vertex 6.6716 -0.745891 -5
      vertex 6.51824 -0.713292 -5
    endloop
  endfacet
  facet normal -0.994522 -0.104532 0
    outer loop
      vertex 15 0 -5
      vertex 14.9836 0.155933 5
      vertex 14.9836 0.155933 -5
    endloop
  endfacet
  facet normal -0.994522 -0.104532 0
    outer loop
      vertex 14.9836 0.155933 5
      vertex 15 0 -5
      vertex 15 0 5
    endloop
  endfacet
  facet normal 0.994522 -0.104532 0
    outer loop
      vertex 13.5 0 5
      vertex 13.5164 0.155933 -5
      vertex 13.5164 0.155933 5
    endloop
  endfacet
  facet normal 0.994522 -0.104532 0
    outer loop
      vertex 13.5164 0.155933 -5
      vertex 13.5 0 5
      vertex 13.5 0 -5
    endloop
  endfacet
  facet normal 0 -1 0
    outer loop
      vertex 14.1716 0.745891 -5
      vertex 14.3284 0.745891 5
      vertex 14.1716 0.745891 5
    endloop
  endfacet
  facet normal 0 -1 -0
    outer loop
      vertex 14.3284 0.745891 5
      vertex 14.1716 0.745891 -5
      vertex 14.3284 0.745891 -5
    endloop
  endfacet
  facet normal 0 1 -0
    outer loop
      vertex 14.3284 -0.745891 -5
      vertex 14.1716 -0.745891 5
      vertex 14.3284 -0.745891 5
    endloop
  endfacet
  facet normal 0 1 0
    outer loop
      vertex 14.1716 -0.745891 5
      vertex 14.3284 -0.745891 -5
      vertex 14.1716 -0.745891 -5
    endloop
  endfacet
  facet normal -0.58779 -0.809013 0
    outer loop
      vertex 14.625 0.649519 -5
      vertex 14.7518 0.557358 5
      vertex 14.625 0.649519 5
    endloop
  endfacet
  facet normal -0.58779 -0.809013 -0
    outer loop
      vertex 14.7518 0.557358 5
      vertex 14.625 0.649519 -5
      vertex 14.7518 0.557358 -5
    endloop
  endfacet
  facet normal -0.406734 -0.913547 0
    outer loop
      vertex 14.4818 0.713292 -5
      vertex 14.625 0.649519 5
      vertex 14.4818 0.713292 5
    endloop
  endfacet
  facet normal -0.406734 -0.913547 -0
    outer loop
      vertex 14.625 0.649519 5
      vertex 14.4818 0.713292 -5
      vertex 14.625 0.649519 -5
    endloop
  endfacet
  facet normal 0.743143 -0.669132 0
    outer loop
      vertex 13.6432 0.440839 5
      vertex 13.7482 0.557358 -5
      vertex 13.7482 0.557358 5
    endloop
  endfacet
  facet normal 0.743143 -0.669132 0
    outer loop
      vertex 13.7482 0.557358 -5
      vertex 13.6432 0.440839 5
      vertex 13.6432 0.440839 -5
    endloop
  endfacet
  facet normal 0.866025 -0.500001 0
    outer loop
      vertex 13.5648 0.305052 5
      vertex 13.6432 0.440839 -5
      vertex 13.6432 0.440839 5
    endloop
  endfacet
  facet normal 0.866025 -0.500001 0
    outer loop
      vertex 13.6432 0.440839 -5
      vertex 13.5648 0.305052 5
      vertex 13.5648 0.305052 -5
    endloop
  endfacet
  facet normal 0.406734 -0.913547 0
    outer loop
      vertex 13.875 0.649519 -5
      vertex 14.0182 0.713292 5
      vertex 13.875 0.649519 5
    endloop
  endfacet
  facet normal 0.406734 -0.913547 0
    outer loop
      vertex 14.0182 0.713292 5
      vertex 13.875 0.649519 -5
      vertex 14.0182 0.713292 -5
    endloop
  endfacet
  facet normal -0.951057 0.309016 0
    outer loop
      vertex 14.9352 -0.305052 -5
      vertex 14.9836 -0.155933 5
      vertex 14.9836 -0.155933 -5
    endloop
  endfacet
  facet normal -0.951057 0.309016 0
    outer loop
      vertex 14.9836 -0.155933 5
      vertex 14.9352 -0.305052 -5
      vertex 14.9352 -0.305052 5
    endloop
  endfacet
  facet normal -0.866025 -0.500001 0
    outer loop
      vertex 14.9352 0.305052 -5
      vertex 14.8568 0.440839 5
      vertex 14.8568 0.440839 -5
    endloop
  endfacet
  facet normal -0.866025 -0.500001 0
    outer loop
      vertex 14.8568 0.440839 5
      vertex 14.9352 0.305052 -5
      vertex 14.9352 0.305052 5
    endloop
  endfacet
  facet normal -0.951057 -0.309016 0
    outer loop
      vertex 14.9836 0.155933 -5
      vertex 14.9352 0.305052 5
      vertex 14.9352 0.305052 -5
    endloop
  endfacet
  facet normal -0.951057 -0.309016 0
    outer loop
      vertex 14.9352 0.305052 5
      vertex 14.9836 0.155933 -5
      vertex 14.9836 0.155933 5
    endloop
  endfacet
  facet normal -0.743143 -0.669132 0
    outer loop
      vertex 14.8568 0.440839 -5
      vertex 14.7518 0.557358 5
      vertex 14.7518 0.557358 -5
    endloop
  endfacet
  facet normal -0.743143 -0.669132 0
    outer loop
      vertex 14.7518 0.557358 5
      vertex 14.8568 0.440839 -5
      vertex 14.8568 0.440839 5
    endloop
  endfacet
  facet normal -0.207909 -0.978148 0
    outer loop
      vertex 14.3284 0.745891 -5
      vertex 14.4818 0.713292 5
      vertex 14.3284 0.745891 5
    endloop
  endfacet
  facet normal -0.207909 -0.978148 -0
    outer loop
      vertex 14.4818 0.713292 5
      vertex 14.3284 0.745891 -5
      vertex 14.4818 0.713292 -5
    endloop
  endfacet
  facet normal 0.951057 -0.309016 0
    outer loop
      vertex 13.5164 0.155933 5
      vertex 13.5648 0.305052 -5
      vertex 13.5648 0.305052 5
    endloop
  endfacet
  facet normal 0.951057 -0.309016 0
    outer loop
      vertex 13.5648 0.305052 -5
      vertex 13.5164 0.155933 5
      vertex 13.5164 0.155933 -5
    endloop
  endfacet
  facet normal 0.58779 -0.809013 0
    outer loop
      vertex 13.7482 0.557358 -5
      vertex 13.875 0.649519 5
      vertex 13.7482 0.557358 5
    endloop
  endfacet
  facet normal 0.58779 -0.809013 0
    outer loop
      vertex 13.875 0.649519 5
      vertex 13.7482 0.557358 -5
      vertex 13.875 0.649519 -5
    endloop
  endfacet
  facet normal 0.207909 -0.978148 0
    outer loop
      vertex 14.0182 0.713292 -5
      vertex 14.1716 0.745891 5
      vertex 14.0182 0.713292 5
    endloop
  endfacet
  facet normal 0.207909 -0.978148 0
    outer loop
      vertex 14.1716 0.745891 5
      vertex 14.0182 0.713292 -5
      vertex 14.1716 0.745891 -5
    endloop
  endfacet
  facet normal -0.994522 0.104532 0
    outer loop
      vertex 14.9836 -0.155933 -5
      vertex 15 0 5
      vertex 15 0 -5
    endloop
  endfacet
  facet normal -0.994522 0.104532 0
    outer loop
      vertex 15 0 5
      vertex 14.9836 -0.155933 -5
      vertex 14.9836 -0.155933 5
    endloop
  endfacet
  facet normal -0.207909 0.978148 0
    outer loop
      vertex 14.4818 -0.713292 -5
      vertex 14.3284 -0.745891 5
      vertex 14.4818 -0.713292 5
    endloop
  endfacet
  facet normal -0.207909 0.978148 0
    outer loop
      vertex 14.3284 -0.745891 5
      vertex 14.4818 -0.713292 -5
      vertex 14.3284 -0.745891 -5
    endloop
  endfacet
  facet normal -0.866025 0.500001 0
    outer loop
      vertex 14.8568 -0.440839 -5
      vertex 14.9352 -0.305052 5
      vertex 14.9352 -0.305052 -5
    endloop
  endfacet
  facet normal -0.866025 0.500001 0
    outer loop
      vertex 14.9352 -0.305052 5
      vertex 14.8568 -0.440839 -5
      vertex 14.8568 -0.440839 5
    endloop
  endfacet
  facet normal 0.866025 0.500001 0
    outer loop
      vertex 13.6432 -0.440839 5
      vertex 13.5648 -0.305052 -5
      vertex 13.5648 -0.305052 5
    endloop
  endfacet
  facet normal 0.866025 0.500001 0
    outer loop
      vertex 13.5648 -0.305052 -5
      vertex 13.6432 -0.440839 5
      vertex 13.6432 -0.440839 -5
    endloop
  endfacet
  facet normal 0.994522 0.104532 0
    outer loop
      vertex 13.5164 -0.155933 5
      vertex 13.5 0 -5
      vertex 13.5 0 5
    endloop
  endfacet
  facet normal 0.994522 0.104532 0
    outer loop
      vertex 13.5 0 -5
      vertex 13.5164 -0.155933 5
      vertex 13.5164 -0.155933 -5
    endloop
  endfacet
  facet normal -0.58779 0.809013 0
    outer loop
      vertex 14.7518 -0.557358 -5
      vertex 14.625 -0.649519 5
      vertex 14.7518 -0.557358 5
    endloop
  endfacet
  facet normal -0.58779 0.809013 0
    outer loop
      vertex 14.625 -0.649519 5
      vertex 14.7518 -0.557358 -5
      vertex 14.625 -0.649519 -5
    endloop
  endfacet
  facet normal -0.406734 0.913547 0
    outer loop
      vertex 14.625 -0.649519 -5
      vertex 14.4818 -0.713292 5
      vertex 14.625 -0.649519 5
    endloop
  endfacet
  facet normal -0.406734 0.913547 0
    outer loop
      vertex 14.4818 -0.713292 5
      vertex 14.625 -0.649519 -5
      vertex 14.4818 -0.713292 -5
    endloop
  endfacet
  facet normal 0.743143 0.669132 0
    outer loop
      vertex 13.7482 -0.557358 5
      vertex 13.6432 -0.440839 -5
      vertex 13.6432 -0.440839 5
    endloop
  endfacet
  facet normal 0.743143 0.669132 0
    outer loop
      vertex 13.6432 -0.440839 -5
      vertex 13.7482 -0.557358 5
      vertex 13.7482 -0.557358 -5
    endloop
  endfacet
  facet normal 0.951057 0.309016 0
    outer loop
      vertex 13.5648 -0.305052 5
      vertex 13.5164 -0.155933 -5
      vertex 13.5164 -0.155933 5
    endloop
  endfacet
  facet normal 0.951057 0.309016 0
    outer loop
      vertex 13.5164 -0.155933 -5
      vertex 13.5648 -0.305052 5
      vertex 13.5648 -0.305052 -5
    endloop
  endfacet
  facet normal -0.743143 0.669132 0
    outer loop
      vertex 14.7518 -0.557358 -5
      vertex 14.8568 -0.440839 5
      vertex 14.8568 -0.440839 -5
    endloop
  endfacet
  facet normal -0.743143 0.669132 0
    outer loop
      vertex 14.8568 -0.440839 5
      vertex 14.7518 -0.557358 -5
      vertex 14.7518 -0.557358 5
    endloop
  endfacet
  facet normal 0.58779 0.809013 -0
    outer loop
      vertex 13.875 -0.649519 -5
      vertex 13.7482 -0.557358 5
      vertex 13.875 -0.649519 5
    endloop
  endfacet
  facet normal 0.58779 0.809013 0
    outer loop
      vertex 13.7482 -0.557358 5
      vertex 13.875 -0.649519 -5
      vertex 13.7482 -0.557358 -5
    endloop
  endfacet
  facet normal 0.406734 0.913547 -0
    outer loop
      vertex 14.0182 -0.713292 -5
      vertex 13.875 -0.649519 5
      vertex 14.0182 -0.713292 5
    endloop
  endfacet
  facet normal 0.406734 0.913547 0
    outer loop
      vertex 13.875 -0.649519 5
      vertex 14.0182 -0.713292 -5
      vertex 13.875 -0.649519 -5
    endloop
  endfacet
  facet normal 0.207909 0.978148 -0
    outer loop
      vertex 14.1716 -0.745891 -5
      vertex 14.0182 -0.713292 5
      vertex 14.1716 -0.745891 5
    endloop
  endfacet
  facet normal 0.207909 0.978148 0
    outer loop
      vertex 14.0182 -0.713292 5
      vertex 14.1716 -0.745891 -5
      vertex 14.0182 -0.713292 -5
    endloop
  endfacet
  facet normal -0.994522 -0.104532 0
    outer loop
      vertex 22.5 0 -5
      vertex 22.4836 0.155933 5
      vertex 22.4836 0.155933 -5
    endloop
  endfacet
  facet normal -0.994522 -0.104532 0
    outer loop
      vertex 22.4836 0.155933 5
      vertex 22.5 0 -5
      vertex 22.5 0 5
    endloop
  endfacet
  facet normal 0.994523 -0.10452 0
    outer loop
      vertex 21 0 5
      vertex 21.0164 0.155933 -5
      vertex 21.0164 0.155933 5
    endloop
  endfacet
  facet normal 0.994523 -0.10452 0
    outer loop
      vertex 21.0164 0.155933 -5
      vertex 21 0 5
      vertex 21 0 -5
    endloop
  endfacet
  facet normal 0 -1 0
    outer loop
      vertex 21.6716 0.745891 -5
      vertex 21.8284 0.745891 5
      vertex 21.6716 0.745891 5
    endloop
  endfacet
  facet normal 0 -1 -0
    outer loop
      vertex 21.8284 0.745891 5
      vertex 21.6716 0.745891 -5
      vertex 21.8284 0.745891 -5
    endloop
  endfacet
  facet normal 0 1 -0
    outer loop
      vertex 21.8284 -0.745891 -5
      vertex 21.6716 -0.745891 5
      vertex 21.8284 -0.745891 5
    endloop
  endfacet
  facet normal 0 1 0
    outer loop
      vertex 21.6716 -0.745891 5
      vertex 21.8284 -0.745891 -5
      vertex 21.6716 -0.745891 -5
    endloop
  endfacet
  facet normal -0.587793 -0.809011 0
    outer loop
      vertex 22.125 0.649519 -5
      vertex 22.2518 0.557358 5
      vertex 22.125 0.649519 5
    endloop
  endfacet
  facet normal -0.587793 -0.809011 -0
    outer loop
      vertex 22.2518 0.557358 5
      vertex 22.125 0.649519 -5
      vertex 22.2518 0.557358 -5
    endloop
  endfacet
  facet normal -0.406734 -0.913547 0
    outer loop
      vertex 21.9818 0.713292 -5
      vertex 22.125 0.649519 5
      vertex 21.9818 0.713292 5
    endloop
  endfacet
  facet normal -0.406734 -0.913547 -0
    outer loop
      vertex 22.125 0.649519 5
      vertex 21.9818 0.713292 -5
      vertex 22.125 0.649519 -5
    endloop
  endfacet
  facet normal 0.743146 -0.669129 0
    outer loop
      vertex 21.1432 0.440839 5
      vertex 21.2482 0.557358 -5
      vertex 21.2482 0.557358 5
    endloop
  endfacet
  facet normal 0.743146 -0.669129 0
    outer loop
      vertex 21.2482 0.557358 -5
      vertex 21.1432 0.440839 5
      vertex 21.1432 0.440839 -5
    endloop
  endfacet
  facet normal 0.866022 -0.500005 0
    outer loop
      vertex 21.0648 0.305052 5
      vertex 21.1432 0.440839 -5
      vertex 21.1432 0.440839 5
    endloop
  endfacet
  facet normal 0.866022 -0.500005 0
    outer loop
      vertex 21.1432 0.440839 -5
      vertex 21.0648 0.305052 5
      vertex 21.0648 0.305052 -5
    endloop
  endfacet
  facet normal 0.406734 -0.913547 0
    outer loop
      vertex 21.375 0.649519 -5
      vertex 21.5182 0.713292 5
      vertex 21.375 0.649519 5
    endloop
  endfacet
  facet normal 0.406734 -0.913547 0
    outer loop
      vertex 21.5182 0.713292 5
      vertex 21.375 0.649519 -5
      vertex 21.5182 0.713292 -5
    endloop
  endfacet
  facet normal -0.866028 -0.499996 0
    outer loop
      vertex 22.4352 0.305052 -5
      vertex 22.3568 0.440839 5
      vertex 22.3568 0.440839 -5
    endloop
  endfacet
  facet normal -0.866028 -0.499996 0
    outer loop
      vertex 22.3568 0.440839 5
      vertex 22.4352 0.305052 -5
      vertex 22.4352 0.305052 5
    endloop
  endfacet
  facet normal -0.951055 -0.309022 0
    outer loop
      vertex 22.4836 0.155933 -5
      vertex 22.4352 0.305052 5
      vertex 22.4352 0.305052 -5
    endloop
  endfacet
  facet normal -0.951055 -0.309022 0
    outer loop
      vertex 22.4352 0.305052 5
      vertex 22.4836 0.155933 -5
      vertex 22.4836 0.155933 5
    endloop
  endfacet
  facet normal -0.74314 -0.669136 0
    outer loop
      vertex 22.3568 0.440839 -5
      vertex 22.2518 0.557358 5
      vertex 22.2518 0.557358 -5
    endloop
  endfacet
  facet normal -0.74314 -0.669136 0
    outer loop
      vertex 22.2518 0.557358 5
      vertex 22.3568 0.440839 -5
      vertex 22.3568 0.440839 5
    endloop
  endfacet
  facet normal -0.207909 -0.978148 0
    outer loop
      vertex 21.8284 0.745891 -5
      vertex 21.9818 0.713292 5
      vertex 21.8284 0.745891 5
    endloop
  endfacet
  facet normal -0.207909 -0.978148 -0
    outer loop
      vertex 21.9818 0.713292 5
      vertex 21.8284 0.745891 -5
      vertex 21.9818 0.713292 -5
    endloop
  endfacet
  facet normal 0.951055 -0.309022 0
    outer loop
      vertex 21.0164 0.155933 5
      vertex 21.0648 0.305052 -5
      vertex 21.0648 0.305052 5
    endloop
  endfacet
  facet normal 0.951055 -0.309022 0
    outer loop
      vertex 21.0648 0.305052 -5
      vertex 21.0164 0.155933 5
      vertex 21.0164 0.155933 -5
    endloop
  endfacet
  facet normal 0.587788 -0.809015 0
    outer loop
      vertex 21.2482 0.557358 -5
      vertex 21.375 0.649519 5
      vertex 21.2482 0.557358 5
    endloop
  endfacet
  facet normal 0.587788 -0.809015 0
    outer loop
      vertex 21.375 0.649519 5
      vertex 21.2482 0.557358 -5
      vertex 21.375 0.649519 -5
    endloop
  endfacet
  facet normal 0.207909 -0.978148 0
    outer loop
      vertex 21.5182 0.713292 -5
      vertex 21.6716 0.745891 5
      vertex 21.5182 0.713292 5
    endloop
  endfacet
  facet normal 0.207909 -0.978148 0
    outer loop
      vertex 21.6716 0.745891 5
      vertex 21.5182 0.713292 -5
      vertex 21.6716 0.745891 -5
    endloop
  endfacet
  facet normal -0.994522 0.104532 0
    outer loop
      vertex 22.4836 -0.155933 -5
      vertex 22.5 0 5
      vertex 22.5 0 -5
    endloop
  endfacet
  facet normal -0.994522 0.104532 0
    outer loop
      vertex 22.5 0 5
      vertex 22.4836 -0.155933 -5
      vertex 22.4836 -0.155933 5
    endloop
  endfacet
  facet normal -0.207909 0.978148 0
    outer loop
      vertex 21.9818 -0.713292 -5
      vertex 21.8284 -0.745891 5
      vertex 21.9818 -0.713292 5
    endloop
  endfacet
  facet normal -0.207909 0.978148 0
    outer loop
      vertex 21.8284 -0.745891 5
      vertex 21.9818 -0.713292 -5
      vertex 21.8284 -0.745891 -5
    endloop
  endfacet
  facet normal -0.74314 0.669136 0
    outer loop
      vertex 22.2518 -0.557358 -5
      vertex 22.3568 -0.440839 5
      vertex 22.3568 -0.440839 -5
    endloop
  endfacet
  facet normal -0.74314 0.669136 0
    outer loop
      vertex 22.3568 -0.440839 5
      vertex 22.2518 -0.557358 -5
      vertex 22.2518 -0.557358 5
    endloop
  endfacet
  facet normal -0.951055 0.309022 0
    outer loop
      vertex 22.4352 -0.305052 -5
      vertex 22.4836 -0.155933 5
      vertex 22.4836 -0.155933 -5
    endloop
  endfacet
  facet normal -0.951055 0.309022 0
    outer loop
      vertex 22.4836 -0.155933 5
      vertex 22.4352 -0.305052 -5
      vertex 22.4352 -0.305052 5
    endloop
  endfacet
  facet normal -0.866028 0.499996 0
    outer loop
      vertex 22.3568 -0.440839 -5
      vertex 22.4352 -0.305052 5
      vertex 22.4352 -0.305052 -5
    endloop
  endfacet
  facet normal -0.866028 0.499996 0
    outer loop
      vertex 22.4352 -0.305052 5
      vertex 22.3568 -0.440839 -5
      vertex 22.3568 -0.440839 5
    endloop
  endfacet
  facet normal 0.866022 0.500005 0
    outer loop
      vertex 21.1432 -0.440839 5
      vertex 21.0648 -0.305052 -5
      vertex 21.0648 -0.305052 5
    endloop
  endfacet
  facet normal 0.866022 0.500005 0
    outer loop
      vertex 21.0648 -0.305052 -5
      vertex 21.1432 -0.440839 5
      vertex 21.1432 -0.440839 -5
    endloop
  endfacet
  facet normal 0.994523 0.10452 0
    outer loop
      vertex 21.0164 -0.155933 5
      vertex 21 0 -5
      vertex 21 0 5
    endloop
  endfacet
  facet normal 0.994523 0.10452 0
    outer loop
      vertex 21 0 -5
      vertex 21.0164 -0.155933 5
      vertex 21.0164 -0.155933 -5
    endloop
  endfacet
  facet normal -0.587793 0.809011 0
    outer loop
      vertex 22.2518 -0.557358 -5
      vertex 22.125 -0.649519 5
      vertex 22.2518 -0.557358 5
    endloop
  endfacet
  facet normal -0.587793 0.809011 0
    outer loop
      vertex 22.125 -0.649519 5
      vertex 22.2518 -0.557358 -5
      vertex 22.125 -0.649519 -5
    endloop
  endfacet
  facet normal -0.406734 0.913547 0
    outer loop
      vertex 22.125 -0.649519 -5
      vertex 21.9818 -0.713292 5
      vertex 22.125 -0.649519 5
    endloop
  endfacet
  facet normal -0.406734 0.913547 0
    outer loop
      vertex 21.9818 -0.713292 5
      vertex 22.125 -0.649519 -5
      vertex 21.9818 -0.713292 -5
    endloop
  endfacet
  facet normal 0.406734 0.913547 -0
    outer loop
      vertex 21.5182 -0.713292 -5
      vertex 21.375 -0.649519 5
      vertex 21.5182 -0.713292 5
    endloop
  endfacet
  facet normal 0.406734 0.913547 0
    outer loop
      vertex 21.375 -0.649519 5
      vertex 21.5182 -0.713292 -5
      vertex 21.375 -0.649519 -5
    endloop
  endfacet
  facet normal 0.743146 0.669129 0
    outer loop
      vertex 21.2482 -0.557358 5
      vertex 21.1432 -0.440839 -5
      vertex 21.1432 -0.440839 5
    endloop
  endfacet
  facet normal 0.743146 0.669129 0
    outer loop
      vertex 21.1432 -0.440839 -5
      vertex 21.2482 -0.557358 5
      vertex 21.2482 -0.557358 -5
    endloop
  endfacet
  facet normal 0.951055 0.309022 0
    outer loop
      vertex 21.0648 -0.305052 5
      vertex 21.0164 -0.155933 -5
      vertex 21.0164 -0.155933 5
    endloop
  endfacet
  facet normal 0.951055 0.309022 0
    outer loop
      vertex 21.0164 -0.155933 -5
      vertex 21.0648 -0.305052 5
      vertex 21.0648 -0.305052 -5
    endloop
  endfacet
  facet normal 0.587788 0.809015 -0
    outer loop
      vertex 21.375 -0.649519 -5
      vertex 21.2482 -0.557358 5
      vertex 21.375 -0.649519 5
    endloop
  endfacet
  facet normal 0.587788 0.809015 0
    outer loop
      vertex 21.2482 -0.557358 5
      vertex 21.375 -0.649519 -5
      vertex 21.2482 -0.557358 -5
    endloop
  endfacet
  facet normal 0.207909 0.978148 -0
    outer loop
      vertex 21.6716 -0.745891 -5
      vertex 21.5182 -0.713292 5
      vertex 21.6716 -0.745891 5
    endloop
  endfacet
  facet normal 0.207909 0.978148 0
    outer loop
      vertex 21.5182 -0.713292 5
      vertex 21.6716 -0.745891 -5
      vertex 21.5182 -0.713292 -5
    endloop
  endfacet
  facet normal -0.994522 -0.104532 0
    outer loop
      vertex 30 0 -5
      vertex 29.9836 0.155933 5
      vertex 29.9836 0.155933 -5
    endloop
  endfacet
  facet normal -0.994522 -0.104532 0
    outer loop
      vertex 29.9836 0.155933 5
      vertex 30 0 -5
      vertex 30 0 5
    endloop
  endfacet
  facet normal 0.994523 -0.10452 0
    outer loop
      vertex 28.5 0 5
      vertex 28.5164 0.155933 -5
      vertex 28.5164 0.155933 5
    endloop
  endfacet
  facet normal 0.994523 -0.10452 0
    outer loop
      vertex 28.5164 0.155933 -5
      vertex 28.5 0 5
      vertex 28.5 0 -5
    endloop
  endfacet
  facet normal 0 -1 0
    outer loop
      vertex 29.1716 0.745891 -5
      vertex 29.3284 0.745891 5
      vertex 29.1716 0.745891 5
    endloop
  endfacet
  facet normal 0 -1 -0
    outer loop
      vertex 29.3284 0.745891 5
      vertex 29.1716 0.745891 -5
      vertex 29.3284 0.745891 -5
    endloop
  endfacet
  facet normal 0 1 -0
    outer loop
      vertex 29.3284 -0.745891 -5
      vertex 29.1716 -0.745891 5
      vertex 29.3284 -0.745891 5
    endloop
  endfacet
  facet normal 0 1 0
    outer loop
      vertex 29.1716 -0.745891 5
      vertex 29.3284 -0.745891 -5
      vertex 29.1716 -0.745891 -5
    endloop
  endfacet
  facet normal -0.587793 -0.809011 0
    outer loop
      vertex 29.625 0.649519 -5
      vertex 29.7518 0.557358 5
      vertex 29.625 0.649519 5
    endloop
  endfacet
  facet normal -0.587793 -0.809011 -0
    outer loop
      vertex 29.7518 0.557358 5
      vertex 29.625 0.649519 -5
      vertex 29.7518 0.557358 -5
    endloop
  endfacet
  facet normal -0.406734 -0.913547 0
    outer loop
      vertex 29.4818 0.713292 -5
      vertex 29.625 0.649519 5
      vertex 29.4818 0.713292 5
    endloop
  endfacet
  facet normal -0.406734 -0.913547 -0
    outer loop
      vertex 29.625 0.649519 5
      vertex 29.4818 0.713292 -5
      vertex 29.625 0.649519 -5
    endloop
  endfacet
  facet normal 0.743146 -0.669129 0
    outer loop
      vertex 28.6432 0.440839 5
      vertex 28.7482 0.557358 -5
      vertex 28.7482 0.557358 5
    endloop
  endfacet
  facet normal 0.743146 -0.669129 0
    outer loop
      vertex 28.7482 0.557358 -5
      vertex 28.6432 0.440839 5
      vertex 28.6432 0.440839 -5
    endloop
  endfacet
  facet normal 0.866022 -0.500005 0
    outer loop
      vertex 28.5648 0.305052 5
      vertex 28.6432 0.440839 -5
      vertex 28.6432 0.440839 5
    endloop
  endfacet
  facet normal 0.866022 -0.500005 0
    outer loop
      vertex 28.6432 0.440839 -5
      vertex 28.5648 0.305052 5
      vertex 28.5648 0.305052 -5
    endloop
  endfacet
  facet normal 0.406734 -0.913547 0
    outer loop
      vertex 28.875 0.649519 -5
      vertex 29.0182 0.713292 5
      vertex 28.875 0.649519 5
    endloop
  endfacet
  facet normal 0.406734 -0.913547 0
    outer loop
      vertex 29.0182 0.713292 5
      vertex 28.875 0.649519 -5
      vertex 29.0182 0.713292 -5
    endloop
  endfacet
  facet normal -0.866028 -0.499996 0
    outer loop
      vertex 29.9352 0.305052 -5
      vertex 29.8568 0.440839 5
      vertex 29.8568 0.440839 -5
    endloop
  endfacet
  facet normal -0.866028 -0.499996 0
    outer loop
      vertex 29.8568 0.440839 5
      vertex 29.9352 0.305052 -5
      vertex 29.9352 0.305052 5
    endloop
  endfacet
  facet normal -0.951055 -0.309022 0
    outer loop
      vertex 29.9836 0.155933 -5
      vertex 29.9352 0.305052 5
      vertex 29.9352 0.305052 -5
    endloop
  endfacet
  facet normal -0.951055 -0.309022 0
    outer loop
      vertex 29.9352 0.305052 5
      vertex 29.9836 0.155933 -5
      vertex 29.9836 0.155933 5
    endloop
  endfacet
  facet normal -0.74314 -0.669136 0
    outer loop
      vertex 29.8568 0.440839 -5
      vertex 29.7518 0.557358 5
      vertex 29.7518 0.557358 -5
    endloop
  endfacet
  facet normal -0.74314 -0.669136 0
    outer loop
      vertex 29.7518 0.557358 5
      vertex 29.8568 0.440839 -5
      vertex 29.8568 0.440839 5
    endloop
  endfacet
  facet normal -0.207909 -0.978148 0
    outer loop
      vertex 29.3284 0.745891 -5
      vertex 29.4818 0.713292 5
      vertex 29.3284 0.745891 5
    endloop
  endfacet
  facet normal -0.207909 -0.978148 -0
    outer loop
      vertex 29.4818 0.713292 5
      vertex 29.3284 0.745891 -5
      vertex 29.4818 0.713292 -5
    endloop
  endfacet
  facet normal 0.951055 -0.309022 0
    outer loop
      vertex 28.5164 0.155933 5
      vertex 28.5648 0.305052 -5
      vertex 28.5648 0.305052 5
    endloop
  endfacet
  facet normal 0.951055 -0.309022 0
    outer loop
      vertex 28.5648 0.305052 -5
      vertex 28.5164 0.155933 5
      vertex 28.5164 0.155933 -5
    endloop
  endfacet
  facet normal 0.587788 -0.809015 0
    outer loop
      vertex 28.7482 0.557358 -5
      vertex 28.875 0.649519 5
      vertex 28.7482 0.557358 5
    endloop
  endfacet
  facet normal 0.587788 -0.809015 0
    outer loop
      vertex 28.875 0.649519 5
      vertex 28.7482 0.557358 -5
      vertex 28.875 0.649519 -5
    endloop
  endfacet
  facet normal 0.207909 -0.978148 0
    outer loop
      vertex 29.0182 0.713292 -5
      vertex 29.1716 0.745891 5
      vertex 29.0182 0.713292 5
    endloop
  endfacet
  facet normal 0.207909 -0.978148 0
    outer loop
      vertex 29.1716 0.745891 5
      vertex 29.0182 0.713292 -5
      vertex 29.1716 0.745891 -5
    endloop
  endfacet
  facet normal -0.994522 0.104532 0
    outer loop
      vertex 29.9836 -0.155933 -5
      vertex 30 0 5
      vertex 30 0 -5
    endloop
  endfacet
  facet normal -0.994522 0.104532 0
    outer loop
      vertex 30 0 5
      vertex 29.9836 -0.155933 -5
      vertex 29.9836 -0.155933 5
    endloop
  endfacet
  facet normal -0.207909 0.978148 0
    outer loop
      vertex 29.4818 -0.713292 -5
      vertex 29.3284 -0.745891 5
      vertex 29.4818 -0.713292 5
    endloop
  endfacet
  facet normal -0.207909 0.978148 0
    outer loop
      vertex 29.3284 -0.745891 5
      vertex 29.4818 -0.713292 -5
      vertex 29.3284 -0.745891 -5
    endloop
  endfacet
  facet normal -0.866028 0.499996 0
    outer loop
      vertex 29.8568 -0.440839 -5
      vertex 29.9352 -0.305052 5
      vertex 29.9352 -0.305052 -5
    endloop
  endfacet
  facet normal -0.866028 0.499996 0
    outer loop
      vertex 29.9352 -0.305052 5
      vertex 29.8568 -0.440839 -5
      vertex 29.8568 -0.440839 5
    endloop
  endfacet
  facet normal 0.866022 0.500005 0
    outer loop
      vertex 28.6432 -0.440839 5
      vertex 28.5648 -0.305052 -5
      vertex 28.5648 -0.305052 5
    endloop
  endfacet
  facet normal 0.866022 0.500005 0
    outer loop
      vertex 28.5648 -0.305052 -5
      vertex 28.6432 -0.440839 5
      vertex 28.6432 -0.440839 -5
    endloop
  endfacet
  facet normal 0.994523 0.10452 0
    outer loop
      vertex 28.5164 -0.155933 5
      vertex 28.5 0 -5
      vertex 28.5 0 5
    endloop
  endfacet
  facet normal 0.994523 0.10452 0
    outer loop
      vertex 28.5 0 -5
      vertex 28.5164 -0.155933 5
      vertex 28.5164 -0.155933 -5
    endloop
  endfacet
  facet normal -0.587793 0.809011 0
    outer loop
      vertex 29.7518 -0.557358 -5
      vertex 29.625 -0.649519 5
      vertex 29.7518 -0.557358 5
    endloop
  endfacet
  facet normal -0.587793 0.809011 0
    outer loop
      vertex 29.625 -0.649519 5
      vertex 29.7518 -0.557358 -5
      vertex 29.625 -0.649519 -5
    endloop
  endfacet
  facet normal -0.406734 0.913547 0
    outer loop
      vertex 29.625 -0.649519 -5
      vertex 29.4818 -0.713292 5
      vertex 29.625 -0.649519 5
    endloop
  endfacet
  facet normal -0.406734 0.913547 0
    outer loop
      vertex 29.4818 -0.713292 5
      vertex 29.625 -0.649519 -5
      vertex 29.4818 -0.713292 -5
    endloop
  endfacet
  facet normal -0.951055 0.309022 0
    outer loop
      vertex 29.9352 -0.305052 -5
      vertex 29.9836 -0.155933 5
      vertex 29.9836 -0.155933 -5
    endloop
  endfacet
  facet normal -0.951055 0.309022 0
    outer loop
      vertex 29.9836 -0.155933 5
      vertex 29.9352 -0.305052 -5
      vertex 29.9352 -0.305052 5
    endloop
  endfacet
  facet normal 0.743146 0.669129 0
    outer loop
      vertex 28.7482 -0.557358 5
      vertex 28.6432 -0.440839 -5
      vertex 28.6432 -0.440839 5
    endloop
  endfacet
  facet normal 0.743146 0.669129 0
    outer loop
      vertex 28.6432 -0.440839 -5
      vertex 28.7482 -0.557358 5
      vertex 28.7482 -0.557358 -5
    endloop
  endfacet
  facet normal 0.951055 0.309022 0
    outer loop
      vertex 28.5648 -0.305052 5
      vertex 28.5164 -0.155933 -5
      vertex 28.5164 -0.155933 5
    endloop
  endfacet
  facet normal 0.951055 0.309022 0
    outer loop
      vertex 28.5164 -0.155933 -5
      vertex 28.5648 -0.305052 5
      vertex 28.5648 -0.305052 -5
    endloop
  endfacet
  facet normal -0.74314 0.669136 0
    outer loop
      vertex 29.7518 -0.557358 -5
      vertex 29.8568 -0.440839 5
      vertex 29.8568 -0.440839 -5
    endloop
  endfacet
  facet normal -0.74314 0.669136 0
    outer loop
      vertex 29.8568 -0.440839 5
      vertex 29.7518 -0.557358 -5
      vertex 29.7518 -0.557358 5
    endloop
  endfacet
  facet normal 0.587788 0.809015 -0
    outer loop
      vertex 28.875 -0.649519 -5
      vertex 28.7482 -0.557358 5
      vertex 28.875 -0.649519 5
    endloop
  endfacet
  facet normal 0.587788 0.809015 0
    outer loop
      vertex 28.7482 -0.557358 5
      vertex 28.875 -0.649519 -5
      vertex 28.7482 -0.557358 -5
    endloop
  endfacet
  facet normal 0.406734 0.913547 -0
    outer loop
      vertex 29.0182 -0.713292 -5
      vertex 28.875 -0.649519 5
      vertex 29.0182 -0.713292 5
    endloop
  endfacet
  facet normal 0.406734 0.913547 0
    outer loop
      vertex 28.875 -0.649519 5
      vertex 29.0182 -0.713292 -5
      vertex 28.875 -0.649519 -5
    endloop
  endfacet
  facet normal 0.207909 0.978148 -0
    outer loop
      vertex 29.1716 -0.745891 -5
      vertex 29.0182 -0.713292 5
      vertex 29.1716 -0.745891 5
    endloop
  endfacet
  facet normal 0.207909 0.978148 0
    outer loop
      vertex 29.0182 -0.713292 5
      vertex 29.1716 -0.745891 -5
      vertex 29.0182 -0.713292 -5
    endloop
  endfacet
endsolid OpenSCAD_Model
