solid OpenSCAD_Model
  facet normal 0 0 -1
    outer loop
      vertex 31.5 -0.866025 -5
      vertex 34 -2 -5
      vertex 33.9563 -2.41582 -5
    endloop
  endfacet
  facet normal 0 0 -1
    outer loop
      vertex 34 -2 -5
      vertex 32 0 -5
      vertex 34 2 -5
    endloop
  endfacet
  facet normal 0 0 -1
    outer loop
      vertex 31.5 -0.866025 -5
      vertex 33.9563 -2.41582 -5
      vertex 33.8271 -2.81347 -5
    endloop
  endfacet
  facet normal 0 0 -1
    outer loop
      vertex 31.9781 0.207911 -5
      vertex 34 2 -5
      vertex 32 0 -5
    endloop
  endfacet
  facet normal 0 0 -1
    outer loop
      vertex 31.5 -0.866025 -5
      vertex 33.8271 -2.81347 -5
      vertex 33.618 -3.17557 -5
    endloop
  endfacet
  facet normal 0 0 -1
    outer loop
      vertex 31.9135 0.406736 -5
      vertex 34 2 -5
      vertex 31.9781 0.207911 -5
    endloop
  endfacet
  facet normal 0 0 -1
    outer loop
      vertex 31.5 -0.866025 -5
      vertex 33.618 -3.17557 -5
      vertex 33.3383 -3.48629 -5
    endloop
  endfacet
  facet normal 0 0 -1
    outer loop
      vertex 31.809 0.587785 -5
      vertex 34 2 -5
      vertex 31.9135 0.406736 -5
    endloop
  endfacet
  facet normal 0 0 -1
    outer loop
      vertex 31.5 -0.866025 -5
      vertex 33.3383 -3.48629 -5
      vertex 33 -3.73205 -5
    endloop
  endfacet
  facet normal 0 0 -1
    outer loop
      vertex 31.6691 0.743144 -5
      vertex 34 2 -5
      vertex 31.809 0.587785 -5
    endloop
  endfacet
  facet normal 0 0 -1
    outer loop
      vertex 31.5 -0.866025 -5
      vertex 33 -3.73205 -5
      vertex 32.618 -3.90211 -5
    endloop
  endfacet
  facet normal 0 0 -1
    outer loop
      vertex 31.5 0.866025 -5
      vertex 34 2 -5
      vertex 31.6691 0.743144 -5
    endloop
  endfacet
  facet normal 0 0 -1
    outer loop
      vertex 31.5 -0.866025 -5
      vertex 32.618 -3.90211 -5
      vertex 32.2091 -3.98904 -5
    endloop
  endfacet
  facet normal -0 0 -1
    outer loop
      vertex 34 2 -5
      vertex 31.5 0.866025 -5
      vertex 33.9563 2.41582 -5
    endloop
  endfacet
  facet normal -0 0 -1
    outer loop
      vertex 33.9563 2.41582 -5
      vertex 31.5 0.866025 -5
      vertex 33.8271 2.81347 -5
    endloop
  endfacet
  facet normal 0 0 -1
    outer loop
      vertex 34 -2 -5
      vertex 31.9781 -0.207911 -5
      vertex 32 0 -5
    endloop
  endfacet
  facet normal 0 0 -1
    outer loop
      vertex 34 -2 -5
      vertex 31.9135 -0.406736 -5
      vertex 31.9781 -0.207911 -5
    endloop
  endfacet
  facet normal 0 0 -1
    outer loop
      vertex 34 -2 -5
      vertex 31.809 -0.587785 -5
      vertex 31.9135 -0.406736 -5
    endloop
  endfacet
  facet normal 0 0 -1
    outer loop
      vertex 34 -2 -5
      vertex 31.6691 -0.743144 -5
      vertex 31.809 -0.587785 -5
    endloop
  endfacet
  facet normal 0 0 -1
    outer loop
      vertex 34 -2 -5
      vertex 31.5 -0.866025 -5
      vertex 31.6691 -0.743144 -5
    endloop
  endfacet
  facet normal 0 0 -1
    outer loop
      vertex 32.2091 -3.98904 -5
      vertex 31.309 -0.951056 -5
      vertex 31.5 -0.866025 -5
    endloop
  endfacet
  facet normal 0 0 -1
    outer loop
      vertex 32.2091 -3.98904 -5
      vertex 31.1045 -0.994521 -5
      vertex 31.309 -0.951056 -5
    endloop
  endfacet
  facet normal 0 0 -1
    outer loop
      vertex 32.2091 -3.98904 -5
      vertex 30.8955 -0.994521 -5
      vertex 31.1045 -0.994521 -5
    endloop
  endfacet
  facet normal 0 0 -1
    outer loop
      vertex 32.2091 -3.98904 -5
      vertex 30.691 -0.951056 -5
      vertex 30.8955 -0.994521 -5
    endloop
  endfacet
  facet normal 0 0 -1
    outer loop
      vertex 32.2091 -3.98904 -5
      vertex 30.5 -0.866025 -5
      vertex 30.691 -0.951056 -5
    endloop
  endfacet
  facet normal 0 0 -1
    outer loop
      vertex 32.2091 -3.98904 -5
      vertex 30.3309 -0.743144 -5
      vertex 30.5 -0.866025 -5
    endloop
  endfacet
  facet normal 0 0 -1
    outer loop
      vertex 24.6691 -0.743144 -5
      vertex 30.3309 -0.743144 -5
      vertex 32.2091 -3.98904 -5
    endloop
  endfacet
  facet normal 0 0 -1
    outer loop
      vertex 30.0219 -0.207911 -5
      vertex 25 0 -5
      vertex 30 0 -5
    endloop
  endfacet
  facet normal 0 0 -1
    outer loop
      vertex 24.9781 -0.207911 -5
      vertex 30.0219 -0.207911 -5
      vertex 30.0865 -0.406736 -5
    endloop
  endfacet
  facet normal 0 0 -1
    outer loop
      vertex 24.9135 -0.406736 -5
      vertex 30.0865 -0.406736 -5
      vertex 30.191 -0.587785 -5
    endloop
  endfacet
  facet normal 0 0 -1
    outer loop
      vertex 30.3309 -0.743144 -5
      vertex 24.6691 -0.743144 -5
      vertex 30.191 -0.587785 -5
    endloop
  endfacet
  facet normal 0 0 -1
    outer loop
      vertex 30.0219 -0.207911 -5
      vertex 24.9781 -0.207911 -5
      vertex 25 0 -5
    endloop
  endfacet
  facet normal 0 0 -1
    outer loop
      vertex 30.0865 -0.406736 -5
      vertex 24.9135 -0.406736 -5
      vertex 24.9781 -0.207911 -5
    endloop
  endfacet
  facet normal 0 0 -1
    outer loop
      vertex 30.191 -0.587785 -5
      vertex 24.809 -0.587785 -5
      vertex 24.9135 -0.406736 -5
    endloop
  endfacet
  facet normal -0 0 -1
    outer loop
      vertex 30.191 -0.587785 -5
      vertex 24.6691 -0.743144 -5
      vertex 24.809 -0.587785 -5
    endloop
  endfacet
  facet normal 0 0 -1
    outer loop
      vertex 32.2091 -3.98904 -5
      vertex 24.5 -0.866025 -5
      vertex 24.6691 -0.743144 -5
    endloop
  endfacet
  facet normal 0 0 -1
    outer loop
      vertex 32.2091 -3.98904 -5
      vertex 24.309 -0.951056 -5
      vertex 24.5 -0.866025 -5
    endloop
  endfacet
  facet normal 0 0 -1
    outer loop
      vertex 32.2091 -3.98904 -5
      vertex 24.1045 -0.994521 -5
      vertex 24.309 -0.951056 -5
    endloop
  endfacet
  facet normal 0 0 -1
    outer loop
      vertex 32.2091 -3.98904 -5
      vertex 23.8955 -0.994521 -5
      vertex 24.1045 -0.994521 -5
    endloop
  endfacet
  facet normal 0 0 -1
    outer loop
      vertex 15.1045 -0.994521 -5
      vertex 23.8955 -0.994521 -5
      vertex 32.2091 -3.98904 -5
    endloop
  endfacet
  facet normal 0 0 -1
    outer loop
      vertex 23.0219 -0.207911 -5
      vertex 16 0 -5
      vertex 23 0 -5
    endloop
  endfacet
  facet normal 0 0 -1
    outer loop
      vertex 15.9781 -0.207911 -5
      vertex 23.0219 -0.207911 -5
      vertex 23.0865 -0.406736 -5
    endloop
  endfacet
  facet normal 0 0 -1
    outer loop
      vertex 15.9135 -0.406736 -5
      vertex 23.0865 -0.406736 -5
      vertex 23.191 -0.587785 -5
    endloop
  endfacet
  facet normal 0 0 -1
    outer loop
      vertex 15.809 -0.587785 -5
      vertex 23.191 -0.587785 -5
      vertex 23.3309 -0.743144 -5
    endloop
  endfacet
  facet normal 0 0 -1
    outer loop
      vertex 15.6691 -0.743144 -5
      vertex 23.3309 -0.743144 -5
      vertex 23.5 -0.866025 -5
    endloop
  endfacet
  facet normal 0 0 -1
    outer loop
      vertex 15.5 -0.866025 -5
      vertex 23.5 -0.866025 -5
      vertex 23.691 -0.951056 -5
    endloop
  endfacet
  facet normal 0 0 -1
    outer loop
      vertex 23.8955 -0.994521 -5
      vertex 15.1045 -0.994521 -5
      vertex 23.691 -0.951056 -5
    endloop
  endfacet
  facet normal 0 0 -1
    outer loop
      vertex 23.0219 -0.207911 -5
      vertex 15.9781 -0.207911 -5
      vertex 16 0 -5
    endloop
  endfacet
  facet normal 0 0 -1
    outer loop
      vertex 23.0865 -0.406736 -5
      vertex 15.9135 -0.406736 -5
      vertex 15.9781 -0.207911 -5
    endloop
  endfacet
  facet normal 0 0 -1
    outer loop
      vertex 23.191 -0.587785 -5
      vertex 15.809 -0.587785 -5
      vertex 15.9135 -0.406736 -5
    endloop
  endfacet
  facet normal 0 0 -1
    outer loop
      vertex 23.3309 -0.743144 -5
      vertex 15.6691 -0.743144 -5
      vertex 15.809 -0.587785 -5
    endloop
  endfacet
  facet normal 0 0 -1
    outer loop
      vertex 23.5 -0.866025 -5
      vertex 15.5 -0.866025 -5
      vertex 15.6691 -0.743144 -5
    endloop
  endfacet
  facet normal 0 0 -1
    outer loop
      vertex 23.691 -0.951056 -5
      vertex 15.309 -0.951056 -5
      vertex 15.5 -0.866025 -5
    endloop
  endfacet
  facet normal -0 0 -1
    outer loop
      vertex 23.691 -0.951056 -5
      vertex 15.1045 -0.994521 -5
      vertex 15.309 -0.951056 -5
    endloop
  endfacet
  facet normal 0 0 -1
    outer loop
      vertex -0.209057 -3.98904 -5
      vertex 15.1045 -0.994521 -5
      vertex 32.2091 -3.98904 -5
    endloop
  endfacet
  facet normal 0 0 -1
    outer loop
      vertex 14.0219 -0.207911 -5
      vertex 8 0 -5
      vertex 14 0 -5
    endloop
  endfacet
  facet normal 0 0 -1
    outer loop
      vertex 7.97815 -0.207911 -5
      vertex 14.0219 -0.207911 -5
      vertex 14.0865 -0.406736 -5
    endloop
  endfacet
  facet normal 0 0 -1
    outer loop
      vertex 7.91354 -0.406736 -5
      vertex 14.0865 -0.406736 -5
      vertex 14.191 -0.587785 -5
    endloop
  endfacet
  facet normal 0 0 -1
    outer loop
      vertex 7.80902 -0.587785 -5
      vertex 14.191 -0.587785 -5
      vertex 14.3309 -0.743144 -5
    endloop
  endfacet
  facet normal 0 0 -1
    outer loop
      vertex 7.66913 -0.743144 -5
      vertex 14.3309 -0.743144 -5
      vertex 14.5 -0.866025 -5
    endloop
  endfacet
  facet normal 0 0 -1
    outer loop
      vertex 7.5 -0.866025 -5
      vertex 14.5 -0.866025 -5
      vertex 14.691 -0.951056 -5
    endloop
  endfacet
  facet normal 0 0 -1
    outer loop
      vertex 7.30902 -0.951056 -5
      vertex 14.691 -0.951056 -5
      vertex 14.8955 -0.994521 -5
    endloop
  endfacet
  facet normal -0 0 -1
    outer loop
      vertex 15.1045 -0.994521 -5
      vertex -0.209057 -3.98904 -5
      vertex 14.8955 -0.994521 -5
    endloop
  endfacet
  facet normal 0 0 -1
    outer loop
      vertex 14.0219 -0.207911 -5
      vertex 7.97815 -0.207911 -5
      vertex 8 0 -5
    endloop
  endfacet
  facet normal 0 0 -1
    outer loop
      vertex 14.0865 -0.406736 -5
      vertex 7.91354 -0.406736 -5
      vertex 7.97815 -0.207911 -5
    endloop
  endfacet
  facet normal 0 0 -1
    outer loop
      vertex 14.191 -0.587785 -5
      vertex 7.80902 -0.587785 -5
      vertex 7.91354 -0.406736 -5
    endloop
  endfacet
  facet normal 0 0 -1
    outer loop
      vertex 14.3309 -0.743144 -5
      vertex 7.66913 -0.743144 -5
      vertex 7.80902 -0.587785 -5
    endloop
  endfacet
  facet normal 0 0 -1
    outer loop
      vertex 14.5 -0.866025 -5
      vertex 7.5 -0.866025 -5
      vertex 7.66913 -0.743144 -5
    endloop
  endfacet
  facet normal 0 0 -1
    outer loop
      vertex 14.691 -0.951056 -5
      vertex 7.30902 -0.951056 -5
      vertex 7.5 -0.866025 -5
    endloop
  endfacet
  facet normal 0 -0 -1
    outer loop
      vertex 7.10453 -0.994521 -5
      vertex 14.8955 -0.994521 -5
      vertex -0.209057 -3.98904 -5
    endloop
  endfacet
  facet normal 0 0 -1
    outer loop
      vertex 14.8955 -0.994521 -5
      vertex 7.10453 -0.994521 -5
      vertex 7.30902 -0.951056 -5
    endloop
  endfacet
  facet normal -0 0 -1
    outer loop
      vertex 6.02185 -0.207911 -5
      vertex -0.209057 -3.98904 -5
      vertex 6 0 -5
    endloop
  endfacet
  facet normal -0 0 -1
    outer loop
      vertex 6.08645 -0.406736 -5
      vertex -0.209057 -3.98904 -5
      vertex 6.02185 -0.207911 -5
    endloop
  endfacet
  facet normal -0 0 -1
    outer loop
      vertex 6.19098 -0.587785 -5
      vertex -0.209057 -3.98904 -5
      vertex 6.08645 -0.406736 -5
    endloop
  endfacet
  facet normal -0 0 -1
    outer loop
      vertex 6.33087 -0.743144 -5
      vertex -0.209057 -3.98904 -5
      vertex 6.19098 -0.587785 -5
    endloop
  endfacet
  facet normal -0 0 -1
    outer loop
      vertex 6.5 -0.866025 -5
      vertex -0.209057 -3.98904 -5
      vertex 6.33087 -0.743144 -5
    endloop
  endfacet
  facet normal -0 0 -1
    outer loop
      vertex 6.69098 -0.951056 -5
      vertex -0.209057 -3.98904 -5
      vertex 6.5 -0.866025 -5
    endloop
  endfacet
  facet normal -0 0 -1
    outer loop
      vertex 6.89547 -0.994521 -5
      vertex -0.209057 -3.98904 -5
      vertex 6.69098 -0.951056 -5
    endloop
  endfacet
  facet normal -0 0 -1
    outer loop
      vertex 7.10453 -0.994521 -5
      vertex -0.209057 -3.98904 -5
      vertex 6.89547 -0.994521 -5
    endloop
  endfacet
  facet normal -0 0 -1
    outer loop
      vertex 33.8271 2.81347 -5
      vertex 31.5 0.866025 -5
      vertex 33.618 3.17557 -5
    endloop
  endfacet
  facet normal -0 0 -1
    outer loop
      vertex 33.618 3.17557 -5
      vertex 31.5 0.866025 -5
      vertex 33.3383 3.48629 -5
    endloop
  endfacet
  facet normal -0 0 -1
    outer loop
      vertex 33.3383 3.48629 -5
      vertex 31.5 0.866025 -5
      vertex 33 3.73205 -5
    endloop
  endfacet
  facet normal -0 0 -1
    outer loop
      vertex 33 3.73205 -5
      vertex 31.5 0.866025 -5
      vertex 32.618 3.90211 -5
    endloop
  endfacet
  facet normal -0 0 -1
    outer loop
      vertex 32.618 3.90211 -5
      vertex 31.5 0.866025 -5
      vertex 32.2091 3.98904 -5
    endloop
  endfacet
  facet normal 0 0 -1
    outer loop
      vertex 31.309 0.951056 -5
      vertex 32.2091 3.98904 -5
      vertex 31.5 0.866025 -5
    endloop
  endfacet
  facet normal 0 0 -1
    outer loop
      vertex 31.1045 0.994521 -5
      vertex 32.2091 3.98904 -5
      vertex 31.309 0.951056 -5
    endloop
  endfacet
  facet normal 0 0 -1
    outer loop
      vertex 30.8955 0.994521 -5
      vertex 32.2091 3.98904 -5
      vertex 31.1045 0.994521 -5
    endloop
  endfacet
  facet normal 0 0 -1
    outer loop
      vertex 30.691 0.951056 -5
      vertex 32.2091 3.98904 -5
      vertex 30.8955 0.994521 -5
    endloop
  endfacet
  facet normal 0 0 -1
    outer loop
      vertex 30.5 0.866025 -5
      vertex 32.2091 3.98904 -5
      vertex 30.691 0.951056 -5
    endloop
  endfacet
  facet normal 0 0 -1
    outer loop
      vertex 30.3309 0.743144 -5
      vertex 32.2091 3.98904 -5
      vertex 30.5 0.866025 -5
    endloop
  endfacet
  facet normal 0 0 -1
    outer loop
      vertex 24.6691 0.743144 -5
      vertex 30.3309 0.743144 -5
      vertex 30.191 0.587785 -5
    endloop
  endfacet
  facet normal 0 0 -1
    outer loop
      vertex 25 0 -5
      vertex 30.0219 0.207911 -5
      vertex 30 0 -5
    endloop
  endfacet
  facet normal 0 0 -1
    outer loop
      vertex 24.9781 0.207911 -5
      vertex 30.0219 0.207911 -5
      vertex 25 0 -5
    endloop
  endfacet
  facet normal 0 0 -1
    outer loop
      vertex 30.0219 0.207911 -5
      vertex 24.9781 0.207911 -5
      vertex 30.0865 0.406736 -5
    endloop
  endfacet
  facet normal 0 0 -1
    outer loop
      vertex 24.9135 0.406736 -5
      vertex 30.0865 0.406736 -5
      vertex 24.9781 0.207911 -5
    endloop
  endfacet
  facet normal 0 0 -1
    outer loop
      vertex 30.0865 0.406736 -5
      vertex 24.9135 0.406736 -5
      vertex 30.191 0.587785 -5
    endloop
  endfacet
  facet normal 0 0 -1
    outer loop
      vertex 24.809 0.587785 -5
      vertex 30.191 0.587785 -5
      vertex 24.9135 0.406736 -5
    endloop
  endfacet
  facet normal 0 0 -1
    outer loop
      vertex 24.6691 0.743144 -5
      vertex 30.191 0.587785 -5
      vertex 24.809 0.587785 -5
    endloop
  endfacet
  facet normal 0 0 -1
    outer loop
      vertex 30.3309 0.743144 -5
      vertex 24.6691 0.743144 -5
      vertex 32.2091 3.98904 -5
    endloop
  endfacet
  facet normal 0 0 -1
    outer loop
      vertex 24.5 0.866025 -5
      vertex 32.2091 3.98904 -5
      vertex 24.6691 0.743144 -5
    endloop
  endfacet
  facet normal 0 0 -1
    outer loop
      vertex 24.309 0.951056 -5
      vertex 32.2091 3.98904 -5
      vertex 24.5 0.866025 -5
    endloop
  endfacet
  facet normal 0 0 -1
    outer loop
      vertex 24.1045 0.994521 -5
      vertex 32.2091 3.98904 -5
      vertex 24.309 0.951056 -5
    endloop
  endfacet
  facet normal 0 0 -1
    outer loop
      vertex 23.8955 0.994521 -5
      vertex 32.2091 3.98904 -5
      vertex 24.1045 0.994521 -5
    endloop
  endfacet
  facet normal 0 0 -1
    outer loop
      vertex 15.1045 0.994521 -5
      vertex 23.8955 0.994521 -5
      vertex 23.691 0.951056 -5
    endloop
  endfacet
  facet normal 0 0 -1
    outer loop
      vertex 16 0 -5
      vertex 23.0219 0.207911 -5
      vertex 23 0 -5
    endloop
  endfacet
  facet normal 0 0 -1
    outer loop
      vertex 15.9781 0.207911 -5
      vertex 23.0219 0.207911 -5
      vertex 16 0 -5
    endloop
  endfacet
  facet normal 0 0 -1
    outer loop
      vertex 23.0219 0.207911 -5
      vertex 15.9781 0.207911 -5
      vertex 23.0865 0.406736 -5
    endloop
  endfacet
  facet normal 0 0 -1
    outer loop
      vertex 15.9135 0.406736 -5
      vertex 23.0865 0.406736 -5
      vertex 15.9781 0.207911 -5
    endloop
  endfacet
  facet normal 0 0 -1
    outer loop
      vertex 23.0865 0.406736 -5
      vertex 15.9135 0.406736 -5
      vertex 23.191 0.587785 -5
    endloop
  endfacet
  facet normal 0 0 -1
    outer loop
      vertex 15.809 0.587785 -5
      vertex 23.191 0.587785 -5
      vertex 15.9135 0.406736 -5
    endloop
  endfacet
  facet normal 0 0 -1
    outer loop
      vertex 23.191 0.587785 -5
      vertex 15.809 0.587785 -5
      vertex 23.3309 0.743144 -5
    endloop
  endfacet
  facet normal 0 0 -1
    outer loop
      vertex 15.6691 0.743144 -5
      vertex 23.3309 0.743144 -5
      vertex 15.809 0.587785 -5
    endloop
  endfacet
  facet normal 0 0 -1
    outer loop
      vertex 23.3309 0.743144 -5
      vertex 15.6691 0.743144 -5
      vertex 23.5 0.866025 -5
    endloop
  endfacet
  facet normal 0 0 -1
    outer loop
      vertex 15.5 0.866025 -5
      vertex 23.5 0.866025 -5
      vertex 15.6691 0.743144 -5
    endloop
  endfacet
  facet normal 0 0 -1
    outer loop
      vertex 23.5 0.866025 -5
      vertex 15.5 0.866025 -5
      vertex 23.691 0.951056 -5
    endloop
  endfacet
  facet normal 0 0 -1
    outer loop
      vertex 15.309 0.951056 -5
      vertex 23.691 0.951056 -5
      vertex 15.5 0.866025 -5
    endloop
  endfacet
  facet normal 0 0 -1
    outer loop
      vertex 15.1045 0.994521 -5
      vertex 23.691 0.951056 -5
      vertex 15.309 0.951056 -5
    endloop
  endfacet
  facet normal 0 0 -1
    outer loop
      vertex 23.8955 0.994521 -5
      vertex 15.1045 0.994521 -5
      vertex 32.2091 3.98904 -5
    endloop
  endfacet
  facet normal 0 0 -1
    outer loop
      vertex -0.209057 3.98904 -5
      vertex 15.1045 0.994521 -5
      vertex 14.8955 0.994521 -5
    endloop
  endfacet
  facet normal 0 0 -1
    outer loop
      vertex 8 0 -5
      vertex 14.0219 0.207911 -5
      vertex 14 0 -5
    endloop
  endfacet
  facet normal 0 0 -1
    outer loop
      vertex 7.97815 0.207911 -5
      vertex 14.0219 0.207911 -5
      vertex 8 0 -5
    endloop
  endfacet
  facet normal 0 0 -1
    outer loop
      vertex 14.0219 0.207911 -5
      vertex 7.97815 0.207911 -5
      vertex 14.0865 0.406736 -5
    endloop
  endfacet
  facet normal 0 0 -1
    outer loop
      vertex 7.91354 0.406736 -5
      vertex 14.0865 0.406736 -5
      vertex 7.97815 0.207911 -5
    endloop
  endfacet
  facet normal 0 0 -1
    outer loop
      vertex 14.0865 0.406736 -5
      vertex 7.91354 0.406736 -5
      vertex 14.191 0.587785 -5
    endloop
  endfacet
  facet normal 0 0 -1
    outer loop
      vertex 7.80902 0.587785 -5
      vertex 14.191 0.587785 -5
      vertex 7.91354 0.406736 -5
    endloop
  endfacet
  facet normal 0 0 -1
    outer loop
      vertex 14.191 0.587785 -5
      vertex 7.80902 0.587785 -5
      vertex 14.3309 0.743144 -5
    endloop
  endfacet
  facet normal 0 0 -1
    outer loop
      vertex 7.66913 0.743144 -5
      vertex 14.3309 0.743144 -5
      vertex 7.80902 0.587785 -5
    endloop
  endfacet
  facet normal 0 0 -1
    outer loop
      vertex 14.3309 0.743144 -5
      vertex 7.66913 0.743144 -5
      vertex 14.5 0.866025 -5
    endloop
  endfacet
  facet normal 0 0 -1
    outer loop
      vertex 7.5 0.866025 -5
      vertex 14.5 0.866025 -5
      vertex 7.66913 0.743144 -5
    endloop
  endfacet
  facet normal 0 0 -1
    outer loop
      vertex 14.5 0.866025 -5
      vertex 7.5 0.866025 -5
      vertex 14.691 0.951056 -5
    endloop
  endfacet
  facet normal 0 0 -1
    outer loop
      vertex 7.30902 0.951056 -5
      vertex 14.691 0.951056 -5
      vertex 7.5 0.866025 -5
    endloop
  endfacet
  facet normal 0 0 -1
    outer loop
      vertex 14.691 0.951056 -5
      vertex 7.30902 0.951056 -5
      vertex 14.8955 0.994521 -5
    endloop
  endfacet
  facet normal 0 0 -1
    outer loop
      vertex 7.10453 0.994521 -5
      vertex 14.8955 0.994521 -5
      vertex 7.30902 0.951056 -5
    endloop
  endfacet
  facet normal 0 0 -1
    outer loop
      vertex 14.8955 0.994521 -5
      vertex 7.10453 0.994521 -5
      vertex -0.209057 3.98904 -5
    endloop
  endfacet
  facet normal 0 0 -1
    outer loop
      vertex -0.209057 3.98904 -5
      vertex 7.10453 0.994521 -5
      vertex 6.89547 0.994521 -5
    endloop
  endfacet
  facet normal 0 0 -1
    outer loop
      vertex -2 -2 -5
      vertex 6 0 -5
      vertex -0.209057 -3.98904 -5
    endloop
  endfacet
  facet normal 0 0 -1
    outer loop
      vertex -2 2 -5
      vertex 6 0 -5
      vertex -2 -2 -5
    endloop
  endfacet
  facet normal 0 -0 -1
    outer loop
      vertex -0.209057 3.98904 -5
      vertex 6 0 -5
      vertex -2 2 -5
    endloop
  endfacet
  facet normal 0 0 -1
    outer loop
      vertex 6 0 -5
      vertex -0.209057 3.98904 -5
      vertex 6.02185 0.207911 -5
    endloop
  endfacet
  facet normal 0 0 -1
    outer loop
      vertex 6.02185 0.207911 -5
      vertex -0.209057 3.98904 -5
      vertex 6.08645 0.406736 -5
    endloop
  endfacet
  facet normal 0 0 -1
    outer loop
      vertex 15.1045 0.994521 -5
      vertex -0.209057 3.98904 -5
      vertex 32.2091 3.98904 -5
    endloop
  endfacet
  facet normal 0 0 -1
    outer loop
      vertex 6.69098 0.951056 -5
      vertex -0.209057 3.98904 -5
      vertex 6.89547 0.994521 -5
    endloop
  endfacet
  facet normal 0 0 -1
    outer loop
      vertex 6.5 0.866025 -5
      vertex -0.209057 3.98904 -5
      vertex 6.69098 0.951056 -5
    endloop
  endfacet
  facet normal 0 0 -1
    outer loop
      vertex 6.08645 0.406736 -5
      vertex -0.209057 3.98904 -5
      vertex 6.19098 0.587785 -5
    endloop
  endfacet
  facet normal 0 0 -1
    outer loop
      vertex -2 -2 -5
      vertex -0.209057 -3.98904 -5
      vertex -0.618033 -3.90211 -5
    endloop
  endfacet
  facet normal 0 0 -1
    outer loop
      vertex 6.19098 0.587785 -5
      vertex -0.209057 3.98904 -5
      vertex 6.33087 0.743144 -5
    endloop
  endfacet
  facet normal 0 0 -1
    outer loop
      vertex -0.209057 3.98904 -5
      vertex -2 2 -5
      vertex -0.618033 3.90211 -5
    endloop
  endfacet
  facet normal 0 0 -1
    outer loop
      vertex -2 -2 -5
      vertex -0.618033 -3.90211 -5
      vertex -1 -3.73205 -5
    endloop
  endfacet
  facet normal 0 0 -1
    outer loop
      vertex -2 -2 -5
      vertex -1 -3.73205 -5
      vertex -1.33826 -3.48629 -5
    endloop
  endfacet
  facet normal 0 0 -1
    outer loop
      vertex 6.33087 0.743144 -5
      vertex -0.209057 3.98904 -5
      vertex 6.5 0.866025 -5
    endloop
  endfacet
  facet normal 0 0 -1
    outer loop
      vertex -2 -2 -5
      vertex -1.33826 -3.48629 -5
      vertex -1.61803 -3.17557 -5
    endloop
  endfacet
  facet normal 0 0 -1
    outer loop
      vertex -0.618033 3.90211 -5
      vertex -2 2 -5
      vertex -0.999999 3.73205 -5
    endloop
  endfacet
  facet normal 0 0 -1
    outer loop
      vertex -2 -2 -5
      vertex -1.61803 -3.17557 -5
      vertex -1.82709 -2.81347 -5
    endloop
  endfacet
  facet normal 0 0 -1
    outer loop
      vertex -0.999999 3.73205 -5
      vertex -2 2 -5
      vertex -1.33826 3.48629 -5
    endloop
  endfacet
  facet normal 0 0 -1
    outer loop
      vertex -2 -2 -5
      vertex -1.82709 -2.81347 -5
      vertex -1.9563 -2.41582 -5
    endloop
  endfacet
  facet normal 0 0 -1
    outer loop
      vertex -1.33826 3.48629 -5
      vertex -2 2 -5
      vertex -1.61803 3.17557 -5
    endloop
  endfacet
  facet normal 0 0 -1
    outer loop
      vertex -1.61803 3.17557 -5
      vertex -2 2 -5
      vertex -1.82709 2.81347 -5
    endloop
  endfacet
  facet normal 0 0 -1
    outer loop
      vertex -1.82709 2.81347 -5
      vertex -2 2 -5
      vertex -1.9563 2.41582 -5
    endloop
  endfacet
  facet normal 0 1 -0
    outer loop
      vertex 32.2091 3.98904 -5
      vertex -0.209057 3.98904 5
      vertex 32.2091 3.98904 5
    endloop
  endfacet
  facet normal 0 1 0
    outer loop
      vertex -0.209057 3.98904 5
      vertex 32.2091 3.98904 -5
      vertex -0.209057 3.98904 -5
    endloop
  endfacet
  facet normal -1 0 0
    outer loop
      vertex -2 -2 -5
      vertex -2 2 5
      vertex -2 2 -5
    endloop
  endfacet
  facet normal -1 -0 0
    outer loop
      vertex -2 2 5
      vertex -2 -2 -5
      vertex -2 -2 5
    endloop
  endfacet
  facet normal 0.20791 -0.978148 0
    outer loop
      vertex 32.2091 -3.98904 -5
      vertex 32.618 -3.90211 5
      vertex 32.2091 -3.98904 5
    endloop
  endfacet
  facet normal 0.20791 -0.978148 0
    outer loop
      vertex 32.618 -3.90211 5
      vertex 32.2091 -3.98904 -5
      vertex 32.618 -3.90211 -5
    endloop
  endfacet
  facet normal 0 -1 0
    outer loop
      vertex -0.209057 -3.98904 -5
      vertex 32.2091 -3.98904 5
      vertex -0.209057 -3.98904 5
    endloop
  endfacet
  facet normal 0 -1 -0
    outer loop
      vertex 32.2091 -3.98904 5
      vertex -0.209057 -3.98904 -5
      vertex 32.2091 -3.98904 -5
    endloop
  endfacet
  facet normal -0.994522 -0.104529 0
    outer loop
      vertex -1.9563 -2.41582 -5
      vertex -2 -2 5
      vertex -2 -2 -5
    endloop
  endfacet
  facet normal -0.994522 -0.104529 0
    outer loop
      vertex -2 -2 5
      vertex -1.9563 -2.41582 -5
      vertex -1.9563 -2.41582 5
    endloop
  endfacet
  facet normal 1 -0 0
    outer loop
      vertex 34 -2 5
      vertex 34 2 -5
      vertex 34 2 5
    endloop
  endfacet
  facet normal 1 0 0
    outer loop
      vertex 34 2 -5
      vertex 34 -2 5
      vertex 34 -2 -5
    endloop
  endfacet
  facet normal -0.207911 -0.978148 0
    outer loop
      vertex -0.618033 -3.90211 -5
      vertex -0.209057 -3.98904 5
      vertex -0.618033 -3.90211 5
    endloop
  endfacet
  facet normal -0.207911 -0.978148 -0
    outer loop
      vertex -0.209057 -3.98904 5
      vertex -0.618033 -3.90211 -5
      vertex -0.209057 -3.98904 -5
    endloop
  endfacet
  facet normal 0.951057 0.309016 0
    outer loop
      vertex 33.9563 2.41582 5
      vertex 33.8271 2.81347 -5
      vertex 33.8271 2.81347 5
    endloop
  endfacet
  facet normal 0.951057 0.309016 0
    outer loop
      vertex 33.8271 2.81347 -5
      vertex 33.9563 2.41582 5
      vertex 33.9563 2.41582 -5
    endloop
  endfacet
  facet normal -0.994522 0.104529 0
    outer loop
      vertex -2 2 -5
      vertex -1.9563 2.41582 5
      vertex -1.9563 2.41582 -5
    endloop
  endfacet
  facet normal -0.994522 0.104529 0
    outer loop
      vertex -1.9563 2.41582 5
      vertex -2 2 -5
      vertex -2 2 5
    endloop
  endfacet
  facet normal -0.951056 0.309018 0
    outer loop
      vertex -1.9563 2.41582 -5
      vertex -1.82709 2.81347 5
      vertex -1.82709 2.81347 -5
    endloop
  endfacet
  facet normal -0.951056 0.309018 0
    outer loop
      vertex -1.82709 2.81347 5
      vertex -1.9563 2.41582 -5
      vertex -1.9563 2.41582 5
    endloop
  endfacet
  facet normal 0.994522 -0.104529 0
    outer loop
      vertex 33.9563 -2.41582 5
      vertex 34 -2 -5
      vertex 34 -2 5
    endloop
  endfacet
  facet normal 0.994522 -0.104529 0
    outer loop
      vertex 34 -2 -5
      vertex 33.9563 -2.41582 5
      vertex 33.9563 -2.41582 -5
    endloop
  endfacet
  facet normal -0.743144 -0.669131 0
    outer loop
      vertex -1.33826 -3.48629 -5
      vertex -1.61803 -3.17557 5
      vertex -1.61803 -3.17557 -5
    endloop
  endfacet
  facet normal -0.743144 -0.669131 0
    outer loop
      vertex -1.61803 -3.17557 5
      vertex -1.33826 -3.48629 -5
      vertex -1.33826 -3.48629 5
    endloop
  endfacet
  facet normal 0.406739 0.913545 -0
    outer loop
      vertex 33 3.73205 -5
      vertex 32.618 3.90211 5
      vertex 33 3.73205 5
    endloop
  endfacet
  facet normal 0.406739 0.913545 0
    outer loop
      vertex 32.618 3.90211 5
      vertex 33 3.73205 -5
      vertex 32.618 3.90211 -5
    endloop
  endfacet
  facet normal 0 0 1
    outer loop
      vertex 31.5 0.866025 5
      vertex 34 2 5
      vertex 33.9563 2.41582 5
    endloop
  endfacet
  facet normal 0 0 1
    outer loop
      vertex 34 2 5
      vertex 32 0 5
      vertex 34 -2 5
    endloop
  endfacet
  facet normal 0 0 1
    outer loop
      vertex 31.5 0.866025 5
      vertex 33.9563 2.41582 5
      vertex 33.8271 2.81347 5
    endloop
  endfacet
  facet normal -0 0 1
    outer loop
      vertex 31.9781 -0.207911 5
      vertex 34 -2 5
      vertex 32 0 5
    endloop
  endfacet
  facet normal 0 0 1
    outer loop
      vertex 31.5 0.866025 5
      vertex 33.8271 2.81347 5
      vertex 33.618 3.17557 5
    endloop
  endfacet
  facet normal -0 0 1
    outer loop
      vertex 31.9135 -0.406736 5
      vertex 34 -2 5
      vertex 31.9781 -0.207911 5
    endloop
  endfacet
  facet normal 0 0 1
    outer loop
      vertex 31.5 0.866025 5
      vertex 33.618 3.17557 5
      vertex 33.3383 3.48629 5
    endloop
  endfacet
  facet normal -0 0 1
    outer loop
      vertex 31.809 -0.587785 5
      vertex 34 -2 5
      vertex 31.9135 -0.406736 5
    endloop
  endfacet
  facet normal 0 0 1
    outer loop
      vertex 31.5 0.866025 5
      vertex 33.3383 3.48629 5
      vertex 33 3.73205 5
    endloop
  endfacet
  facet normal -0 0 1
    outer loop
      vertex 31.6691 -0.743144 5
      vertex 34 -2 5
      vertex 31.809 -0.587785 5
    endloop
  endfacet
  facet normal 0 0 1
    outer loop
      vertex 31.5 0.866025 5
      vertex 33 3.73205 5
      vertex 32.618 3.90211 5
    endloop
  endfacet
  facet normal -0 0 1
    outer loop
      vertex 31.5 -0.866025 5
      vertex 34 -2 5
      vertex 31.6691 -0.743144 5
    endloop
  endfacet
  facet normal 0 0 1
    outer loop
      vertex 31.5 0.866025 5
      vertex 32.618 3.90211 5
      vertex 32.2091 3.98904 5
    endloop
  endfacet
  facet normal 0 0 1
    outer loop
      vertex 34 -2 5
      vertex 31.5 -0.866025 5
      vertex 33.9563 -2.41582 5
    endloop
  endfacet
  facet normal 0 0 1
    outer loop
      vertex 33.9563 -2.41582 5
      vertex 31.5 -0.866025 5
      vertex 33.8271 -2.81347 5
    endloop
  endfacet
  facet normal 0 0 1
    outer loop
      vertex 34 2 5
      vertex 31.9781 0.207911 5
      vertex 32 0 5
    endloop
  endfacet
  facet normal 0 0 1
    outer loop
      vertex 34 2 5
      vertex 31.9135 0.406736 5
      vertex 31.9781 0.207911 5
    endloop
  endfacet
  facet normal 0 0 1
    outer loop
      vertex 34 2 5
      vertex 31.809 0.587785 5
      vertex 31.9135 0.406736 5
    endloop
  endfacet
  facet normal 0 0 1
    outer loop
      vertex 34 2 5
      vertex 31.6691 0.743144 5
      vertex 31.809 0.587785 5
    endloop
  endfacet
  facet normal 0 0 1
    outer loop
      vertex 34 2 5
      vertex 31.5 0.866025 5
      vertex 31.6691 0.743144 5
    endloop
  endfacet
  facet normal 0 0 1
    outer loop
      vertex 32.2091 3.98904 5
      vertex 31.309 0.951056 5
      vertex 31.5 0.866025 5
    endloop
  endfacet
  facet normal 0 0 1
    outer loop
      vertex 32.2091 3.98904 5
      vertex 31.1045 0.994521 5
      vertex 31.309 0.951056 5
    endloop
  endfacet
  facet normal 0 0 1
    outer loop
      vertex 32.2091 3.98904 5
      vertex 30.8955 0.994521 5
      vertex 31.1045 0.994521 5
    endloop
  endfacet
  facet normal 0 0 1
    outer loop
      vertex 32.2091 3.98904 5
      vertex 30.691 0.951056 5
      vertex 30.8955 0.994521 5
    endloop
  endfacet
  facet normal 0 0 1
    outer loop
      vertex 32.2091 3.98904 5
      vertex 30.5 0.866025 5
      vertex 30.691 0.951056 5
    endloop
  endfacet
  facet normal 0 0 1
    outer loop
      vertex 32.2091 3.98904 5
      vertex 30.3309 0.743144 5
      vertex 30.5 0.866025 5
    endloop
  endfacet
  facet normal 0 0 1
    outer loop
      vertex 24.6691 0.743144 5
      vertex 30.3309 0.743144 5
      vertex 32.2091 3.98904 5
    endloop
  endfacet
  facet normal 0 0 1
    outer loop
      vertex 30.0219 0.207911 5
      vertex 25 0 5
      vertex 30 0 5
    endloop
  endfacet
  facet normal 0 0 1
    outer loop
      vertex 24.9781 0.207911 5
      vertex 30.0219 0.207911 5
      vertex 30.0865 0.406736 5
    endloop
  endfacet
  facet normal 0 0 1
    outer loop
      vertex 24.9135 0.406736 5
      vertex 30.0865 0.406736 5
      vertex 30.191 0.587785 5
    endloop
  endfacet
  facet normal 0 0 1
    outer loop
      vertex 30.3309 0.743144 5
      vertex 24.6691 0.743144 5
      vertex 30.191 0.587785 5
    endloop
  endfacet
  facet normal 0 0 1
    outer loop
      vertex 30.0219 0.207911 5
      vertex 24.9781 0.207911 5
      vertex 25 0 5
    endloop
  endfacet
  facet normal 0 0 1
    outer loop
      vertex 30.0865 0.406736 5
      vertex 24.9135 0.406736 5
      vertex 24.9781 0.207911 5
    endloop
  endfacet
  facet normal 0 0 1
    outer loop
      vertex 30.191 0.587785 5
      vertex 24.809 0.587785 5
      vertex 24.9135 0.406736 5
    endloop
  endfacet
  facet normal 0 0 1
    outer loop
      vertex 30.191 0.587785 5
      vertex 24.6691 0.743144 5
      vertex 24.809 0.587785 5
    endloop
  endfacet
  facet normal 0 0 1
    outer loop
      vertex 32.2091 3.98904 5
      vertex 24.5 0.866025 5
      vertex 24.6691 0.743144 5
    endloop
  endfacet
  facet normal 0 0 1
    outer loop
      vertex 32.2091 3.98904 5
      vertex 24.309 0.951056 5
      vertex 24.5 0.866025 5
    endloop
  endfacet
  facet normal 0 0 1
    outer loop
      vertex 32.2091 3.98904 5
      vertex 24.1045 0.994521 5
      vertex 24.309 0.951056 5
    endloop
  endfacet
  facet normal 0 0 1
    outer loop
      vertex 32.2091 3.98904 5
      vertex 23.8955 0.994521 5
      vertex 24.1045 0.994521 5
    endloop
  endfacet
  facet normal 0 0 1
    outer loop
      vertex 15.1045 0.994521 5
      vertex 23.8955 0.994521 5
      vertex 32.2091 3.98904 5
    endloop
  endfacet
  facet normal 0 0 1
    outer loop
      vertex 23.0219 0.207911 5
      vertex 16 0 5
      vertex 23 0 5
    endloop
  endfacet
  facet normal 0 0 1
    outer loop
      vertex 15.9781 0.207911 5
      vertex 23.0219 0.207911 5
      vertex 23.0865 0.406736 5
    endloop
  endfacet
  facet normal 0 0 1
    outer loop
      vertex 15.9135 0.406736 5
      vertex 23.0865 0.406736 5
      vertex 23.191 0.587785 5
    endloop
  endfacet
  facet normal 0 0 1
    outer loop
      vertex 15.809 0.587785 5
      vertex 23.191 0.587785 5
      vertex 23.3309 0.743144 5
    endloop
  endfacet
  facet normal 0 0 1
    outer loop
      vertex 15.6691 0.743144 5
      vertex 23.3309 0.743144 5
      vertex 23.5 0.866025 5
    endloop
  endfacet
  facet normal 0 0 1
    outer loop
      vertex 15.5 0.866025 5
      vertex 23.5 0.866025 5
      vertex 23.691 0.951056 5
    endloop
  endfacet
  facet normal 0 0 1
    outer loop
      vertex 23.8955 0.994521 5
      vertex 15.1045 0.994521 5
      vertex 23.691 0.951056 5
    endloop
  endfacet
  facet normal 0 0 1
    outer loop
      vertex 23.0219 0.207911 5
      vertex 15.9781 0.207911 5
      vertex 16 0 5
    endloop
  endfacet
  facet normal 0 0 1
    outer loop
      vertex 23.0865 0.406736 5
      vertex 15.9135 0.406736 5
      vertex 15.9781 0.207911 5
    endloop
  endfacet
  facet normal 0 0 1
    outer loop
      vertex 23.191 0.587785 5
      vertex 15.809 0.587785 5
      vertex 15.9135 0.406736 5
    endloop
  endfacet
  facet normal 0 0 1
    outer loop
      vertex 23.3309 0.743144 5
      vertex 15.6691 0.743144 5
      vertex 15.809 0.587785 5
    endloop
  endfacet
  facet normal 0 0 1
    outer loop
      vertex 23.5 0.866025 5
      vertex 15.5 0.866025 5
      vertex 15.6691 0.743144 5
    endloop
  endfacet
  facet normal 0 0 1
    outer loop
      vertex 23.691 0.951056 5
      vertex 15.309 0.951056 5
      vertex 15.5 0.866025 5
    endloop
  endfacet
  facet normal 0 0 1
    outer loop
      vertex 23.691 0.951056 5
      vertex 15.1045 0.994521 5
      vertex 15.309 0.951056 5
    endloop
  endfacet
  facet normal -0 0 1
    outer loop
      vertex -0.209057 3.98904 5
      vertex 15.1045 0.994521 5
      vertex 32.2091 3.98904 5
    endloop
  endfacet
  facet normal 0 0 1
    outer loop
      vertex 14.0219 0.207911 5
      vertex 8 0 5
      vertex 14 0 5
    endloop
  endfacet
  facet normal 0 0 1
    outer loop
      vertex 7.97815 0.207911 5
      vertex 14.0219 0.207911 5
      vertex 14.0865 0.406736 5
    endloop
  endfacet
  facet normal 0 0 1
    outer loop
      vertex 7.91354 0.406736 5
      vertex 14.0865 0.406736 5
      vertex 14.191 0.587785 5
    endloop
  endfacet
  facet normal 0 0 1
    outer loop
      vertex 7.80902 0.587785 5
      vertex 14.191 0.587785 5
      vertex 14.3309 0.743144 5
    endloop
  endfacet
  facet normal 0 0 1
    outer loop
      vertex 7.66913 0.743144 5
      vertex 14.3309 0.743144 5
      vertex 14.5 0.866025 5
    endloop
  endfacet
  facet normal 0 0 1
    outer loop
      vertex 7.5 0.866025 5
      vertex 14.5 0.866025 5
      vertex 14.691 0.951056 5
    endloop
  endfacet
  facet normal 0 0 1
    outer loop
      vertex 7.30902 0.951056 5
      vertex 14.691 0.951056 5
      vertex 14.8955 0.994521 5
    endloop
  endfacet
  facet normal 0 0 1
    outer loop
      vertex 15.1045 0.994521 5
      vertex -0.209057 3.98904 5
      vertex 14.8955 0.994521 5
    endloop
  endfacet
  facet normal 0 0 1
    outer loop
      vertex 14.0219 0.207911 5
      vertex 7.97815 0.207911 5
      vertex 8 0 5
    endloop
  endfacet
  facet normal 0 0 1
    outer loop
      vertex 14.0865 0.406736 5
      vertex 7.91354 0.406736 5
      vertex 7.97815 0.207911 5
    endloop
  endfacet
  facet normal 0 0 1
    outer loop
      vertex 14.191 0.587785 5
      vertex 7.80902 0.587785 5
      vertex 7.91354 0.406736 5
    endloop
  endfacet
  facet normal 0 0 1
    outer loop
      vertex 14.3309 0.743144 5
      vertex 7.66913 0.743144 5
      vertex 7.80902 0.587785 5
    endloop
  endfacet
  facet normal 0 0 1
    outer loop
      vertex 14.5 0.866025 5
      vertex 7.5 0.866025 5
      vertex 7.66913 0.743144 5
    endloop
  endfacet
  facet normal 0 0 1
    outer loop
      vertex 14.691 0.951056 5
      vertex 7.30902 0.951056 5
      vertex 7.5 0.866025 5
    endloop
  endfacet
  facet normal 0 -0 1
    outer loop
      vertex 7.10453 0.994521 5
      vertex 14.8955 0.994521 5
      vertex -0.209057 3.98904 5
    endloop
  endfacet
  facet normal 0 0 1
    outer loop
      vertex 14.8955 0.994521 5
      vertex 7.10453 0.994521 5
      vertex 7.30902 0.951056 5
    endloop
  endfacet
  facet normal 0 0 1
    outer loop
      vertex 6.02185 0.207911 5
      vertex -0.209057 3.98904 5
      vertex 6 0 5
    endloop
  endfacet
  facet normal 0 0 1
    outer loop
      vertex 6.08645 0.406736 5
      vertex -0.209057 3.98904 5
      vertex 6.02185 0.207911 5
    endloop
  endfacet
  facet normal 0 0 1
    outer loop
      vertex 6.19098 0.587785 5
      vertex -0.209057 3.98904 5
      vertex 6.08645 0.406736 5
    endloop
  endfacet
  facet normal 0 0 1
    outer loop
      vertex 6.33087 0.743144 5
      vertex -0.209057 3.98904 5
      vertex 6.19098 0.587785 5
    endloop
  endfacet
  facet normal 0 0 1
    outer loop
      vertex 6.5 0.866025 5
      vertex -0.209057 3.98904 5
      vertex 6.33087 0.743144 5
    endloop
  endfacet
  facet normal 0 0 1
    outer loop
      vertex 6.69098 0.951056 5
      vertex -0.209057 3.98904 5
      vertex 6.5 0.866025 5
    endloop
  endfacet
  facet normal 0 0 1
    outer loop
      vertex 6.89547 0.994521 5
      vertex -0.209057 3.98904 5
      vertex 6.69098 0.951056 5
    endloop
  endfacet
  facet normal 0 0 1
    outer loop
      vertex 7.10453 0.994521 5
      vertex -0.209057 3.98904 5
      vertex 6.89547 0.994521 5
    endloop
  endfacet
  facet normal 0 0 1
    outer loop
      vertex 33.8271 -2.81347 5
      vertex 31.5 -0.866025 5
      vertex 33.618 -3.17557 5
    endloop
  endfacet
  facet normal 0 0 1
    outer loop
      vertex 33.618 -3.17557 5
      vertex 31.5 -0.866025 5
      vertex 33.3383 -3.48629 5
    endloop
  endfacet
  facet normal 0 0 1
    outer loop
      vertex 33.3383 -3.48629 5
      vertex 31.5 -0.866025 5
      vertex 33 -3.73205 5
    endloop
  endfacet
  facet normal 0 0 1
    outer loop
      vertex 33 -3.73205 5
      vertex 31.5 -0.866025 5
      vertex 32.618 -3.90211 5
    endloop
  endfacet
  facet normal 0 0 1
    outer loop
      vertex 32.618 -3.90211 5
      vertex 31.5 -0.866025 5
      vertex 32.2091 -3.98904 5
    endloop
  endfacet
  facet normal -0 0 1
    outer loop
      vertex 31.309 -0.951056 5
      vertex 32.2091 -3.98904 5
      vertex 31.5 -0.866025 5
    endloop
  endfacet
  facet normal -0 0 1
    outer loop
      vertex 31.1045 -0.994521 5
      vertex 32.2091 -3.98904 5
      vertex 31.309 -0.951056 5
    endloop
  endfacet
  facet normal -0 0 1
    outer loop
      vertex 30.8955 -0.994521 5
      vertex 32.2091 -3.98904 5
      vertex 31.1045 -0.994521 5
    endloop
  endfacet
  facet normal 0 0 1
    outer loop
      vertex 30.691 -0.951056 5
      vertex 32.2091 -3.98904 5
      vertex 30.8955 -0.994521 5
    endloop
  endfacet
  facet normal 0 0 1
    outer loop
      vertex 30.5 -0.866025 5
      vertex 32.2091 -3.98904 5
      vertex 30.691 -0.951056 5
    endloop
  endfacet
  facet normal 0 0 1
    outer loop
      vertex 30.3309 -0.743144 5
      vertex 32.2091 -3.98904 5
      vertex 30.5 -0.866025 5
    endloop
  endfacet
  facet normal 0 0 1
    outer loop
      vertex 24.6691 -0.743144 5
      vertex 30.3309 -0.743144 5
      vertex 30.191 -0.587785 5
    endloop
  endfacet
  facet normal -0 0 1
    outer loop
      vertex 25 0 5
      vertex 30.0219 -0.207911 5
      vertex 30 0 5
    endloop
  endfacet
  facet normal 0 0 1
    outer loop
      vertex 24.9781 -0.207911 5
      vertex 30.0219 -0.207911 5
      vertex 25 0 5
    endloop
  endfacet
  facet normal 0 0 1
    outer loop
      vertex 30.0219 -0.207911 5
      vertex 24.9781 -0.207911 5
      vertex 30.0865 -0.406736 5
    endloop
  endfacet
  facet normal 0 0 1
    outer loop
      vertex 24.9135 -0.406736 5
      vertex 30.0865 -0.406736 5
      vertex 24.9781 -0.207911 5
    endloop
  endfacet
  facet normal 0 0 1
    outer loop
      vertex 30.0865 -0.406736 5
      vertex 24.9135 -0.406736 5
      vertex 30.191 -0.587785 5
    endloop
  endfacet
  facet normal 0 0 1
    outer loop
      vertex 24.809 -0.587785 5
      vertex 30.191 -0.587785 5
      vertex 24.9135 -0.406736 5
    endloop
  endfacet
  facet normal 0 0 1
    outer loop
      vertex 24.6691 -0.743144 5
      vertex 30.191 -0.587785 5
      vertex 24.809 -0.587785 5
    endloop
  endfacet
  facet normal 0 0 1
    outer loop
      vertex 30.3309 -0.743144 5
      vertex 24.6691 -0.743144 5
      vertex 32.2091 -3.98904 5
    endloop
  endfacet
  facet normal -0 0 1
    outer loop
      vertex 24.5 -0.866025 5
      vertex 32.2091 -3.98904 5
      vertex 24.6691 -0.743144 5
    endloop
  endfacet
  facet normal -0 0 1
    outer loop
      vertex 24.309 -0.951056 5
      vertex 32.2091 -3.98904 5
      vertex 24.5 -0.866025 5
    endloop
  endfacet
  facet normal -0 0 1
    outer loop
      vertex 24.1045 -0.994521 5
      vertex 32.2091 -3.98904 5
      vertex 24.309 -0.951056 5
    endloop
  endfacet
  facet normal -0 0 1
    outer loop
      vertex 23.8955 -0.994521 5
      vertex 32.2091 -3.98904 5
      vertex 24.1045 -0.994521 5
    endloop
  endfacet
  facet normal 0 0 1
    outer loop
      vertex 15.1045 -0.994521 5
      vertex 23.8955 -0.994521 5
      vertex 23.691 -0.951056 5
    endloop
  endfacet
  facet normal -0 0 1
    outer loop
      vertex 16 0 5
      vertex 23.0219 -0.207911 5
      vertex 23 0 5
    endloop
  endfacet
  facet normal 0 0 1
    outer loop
      vertex 15.9781 -0.207911 5
      vertex 23.0219 -0.207911 5
      vertex 16 0 5
    endloop
  endfacet
  facet normal 0 0 1
    outer loop
      vertex 23.0219 -0.207911 5
      vertex 15.9781 -0.207911 5
      vertex 23.0865 -0.406736 5
    endloop
  endfacet
  facet normal 0 0 1
    outer loop
      vertex 15.9135 -0.406736 5
      vertex 23.0865 -0.406736 5
      vertex 15.9781 -0.207911 5
    endloop
  endfacet
  facet normal 0 0 1
    outer loop
      vertex 23.0865 -0.406736 5
      vertex 15.9135 -0.406736 5
      vertex 23.191 -0.587785 5
    endloop
  endfacet
  facet normal 0 0 1
    outer loop
      vertex 15.809 -0.587785 5
      vertex 23.191 -0.587785 5
      vertex 15.9135 -0.406736 5
    endloop
  endfacet
  facet normal 0 0 1
    outer loop
      vertex 23.191 -0.587785 5
      vertex 15.809 -0.587785 5
      vertex 23.3309 -0.743144 5
    endloop
  endfacet
  facet normal 0 0 1
    outer loop
      vertex 15.6691 -0.743144 5
      vertex 23.3309 -0.743144 5
      vertex 15.809 -0.587785 5
    endloop
  endfacet
  facet normal 0 0 1
    outer loop
      vertex 23.3309 -0.743144 5
      vertex 15.6691 -0.743144 5
      vertex 23.5 -0.866025 5
    endloop
  endfacet
  facet normal 0 0 1
    outer loop
      vertex 15.5 -0.866025 5
      vertex 23.5 -0.866025 5
      vertex 15.6691 -0.743144 5
    endloop
  endfacet
  facet normal 0 0 1
    outer loop
      vertex 23.5 -0.866025 5
      vertex 15.5 -0.866025 5
      vertex 23.691 -0.951056 5
    endloop
  endfacet
  facet normal 0 0 1
    outer loop
      vertex 15.309 -0.951056 5
      vertex 23.691 -0.951056 5
      vertex 15.5 -0.866025 5
    endloop
  endfacet
  facet normal 0 0 1
    outer loop
      vertex 15.1045 -0.994521 5
      vertex 23.691 -0.951056 5
      vertex 15.309 -0.951056 5
    endloop
  endfacet
  facet normal 0 0 1
    outer loop
      vertex 23.8955 -0.994521 5
      vertex 15.1045 -0.994521 5
      vertex 32.2091 -3.98904 5
    endloop
  endfacet
  facet normal 0 0 1
    outer loop
      vertex -0.209057 -3.98904 5
      vertex 15.1045 -0.994521 5
      vertex 14.8955 -0.994521 5
    endloop
  endfacet
  facet normal -0 0 1
    outer loop
      vertex 8 0 5
      vertex 14.0219 -0.207911 5
      vertex 14 0 5
    endloop
  endfacet
  facet normal 0 0 1
    outer loop
      vertex 7.97815 -0.207911 5
      vertex 14.0219 -0.207911 5
      vertex 8 0 5
    endloop
  endfacet
  facet normal 0 0 1
    outer loop
      vertex 14.0219 -0.207911 5
      vertex 7.97815 -0.207911 5
      vertex 14.0865 -0.406736 5
    endloop
  endfacet
  facet normal 0 0 1
    outer loop
      vertex 7.91354 -0.406736 5
      vertex 14.0865 -0.406736 5
      vertex 7.97815 -0.207911 5
    endloop
  endfacet
  facet normal 0 0 1
    outer loop
      vertex 14.0865 -0.406736 5
      vertex 7.91354 -0.406736 5
      vertex 14.191 -0.587785 5
    endloop
  endfacet
  facet normal 0 0 1
    outer loop
      vertex 7.80902 -0.587785 5
      vertex 14.191 -0.587785 5
      vertex 7.91354 -0.406736 5
    endloop
  endfacet
  facet normal 0 0 1
    outer loop
      vertex 14.191 -0.587785 5
      vertex 7.80902 -0.587785 5
      vertex 14.3309 -0.743144 5
    endloop
  endfacet
  facet normal 0 0 1
    outer loop
      vertex 7.66913 -0.743144 5
      vertex 14.3309 -0.743144 5
      vertex 7.80902 -0.587785 5
    endloop
  endfacet
  facet normal 0 0 1
    outer loop
      vertex 14.3309 -0.743144 5
      vertex 7.66913 -0.743144 5
      vertex 14.5 -0.866025 5
    endloop
  endfacet
  facet normal 0 0 1
    outer loop
      vertex 7.5 -0.866025 5
      vertex 14.5 -0.866025 5
      vertex 7.66913 -0.743144 5
    endloop
  endfacet
  facet normal 0 0 1
    outer loop
      vertex 14.5 -0.866025 5
      vertex 7.5 -0.866025 5
      vertex 14.691 -0.951056 5
    endloop
  endfacet
  facet normal 0 0 1
    outer loop
      vertex 7.30902 -0.951056 5
      vertex 14.691 -0.951056 5
      vertex 7.5 -0.866025 5
    endloop
  endfacet
  facet normal 0 0 1
    outer loop
      vertex 14.691 -0.951056 5
      vertex 7.30902 -0.951056 5
      vertex 14.8955 -0.994521 5
    endloop
  endfacet
  facet normal 0 0 1
    outer loop
      vertex 7.10453 -0.994521 5
      vertex 14.8955 -0.994521 5
      vertex 7.30902 -0.951056 5
    endloop
  endfacet
  facet normal 0 0 1
    outer loop
      vertex 14.8955 -0.994521 5
      vertex 7.10453 -0.994521 5
      vertex -0.209057 -3.98904 5
    endloop
  endfacet
  facet normal 0 0 1
    outer loop
      vertex -0.209057 -3.98904 5
      vertex 7.10453 -0.994521 5
      vertex 6.89547 -0.994521 5
    endloop
  endfacet
  facet normal -0 0 1
    outer loop
      vertex -2 2 5
      vertex 6 0 5
      vertex -0.209057 3.98904 5
    endloop
  endfacet
  facet normal 0 0 1
    outer loop
      vertex -2 -2 5
      vertex 6 0 5
      vertex -2 2 5
    endloop
  endfacet
  facet normal 0 -0 1
    outer loop
      vertex -0.209057 -3.98904 5
      vertex 6 0 5
      vertex -2 -2 5
    endloop
  endfacet
  facet normal 0 0 1
    outer loop
      vertex 6 0 5
      vertex -0.209057 -3.98904 5
      vertex 6.02185 -0.207911 5
    endloop
  endfacet
  facet normal 0 0 1
    outer loop
      vertex 6.02185 -0.207911 5
      vertex -0.209057 -3.98904 5
      vertex 6.08645 -0.406736 5
    endloop
  endfacet
  facet normal 0 0 1
    outer loop
      vertex 15.1045 -0.994521 5
      vertex -0.209057 -3.98904 5
      vertex 32.2091 -3.98904 5
    endloop
  endfacet
  facet normal 0 0 1
    outer loop
      vertex 6.69098 -0.951056 5
      vertex -0.209057 -3.98904 5
      vertex 6.89547 -0.994521 5
    endloop
  endfacet
  facet normal 0 0 1
    outer loop
      vertex 6.5 -0.866025 5
      vertex -0.209057 -3.98904 5
      vertex 6.69098 -0.951056 5
    endloop
  endfacet
  facet normal 0 0 1
    outer loop
      vertex 6.08645 -0.406736 5
      vertex -0.209057 -3.98904 5
      vertex 6.19098 -0.587785 5
    endloop
  endfacet
  facet normal 0 0 1
    outer loop
      vertex -2 2 5
      vertex -0.209057 3.98904 5
      vertex -0.618033 3.90211 5
    endloop
  endfacet
  facet normal 0 0 1
    outer loop
      vertex 6.19098 -0.587785 5
      vertex -0.209057 -3.98904 5
      vertex 6.33087 -0.743144 5
    endloop
  endfacet
  facet normal 0 0 1
    outer loop
      vertex -2 2 5
      vertex -0.618033 3.90211 5
      vertex -0.999999 3.73205 5
    endloop
  endfacet
  facet normal 0 0 1
    outer loop
      vertex 6.33087 -0.743144 5
      vertex -0.209057 -3.98904 5
      vertex 6.5 -0.866025 5
    endloop
  endfacet
  facet normal 0 0 1
    outer loop
      vertex -2 2 5
      vertex -0.999999 3.73205 5
      vertex -1.33826 3.48629 5
    endloop
  endfacet
  facet normal 0 0 1
    outer loop
      vertex -0.209057 -3.98904 5
      vertex -2 -2 5
      vertex -0.618033 -3.90211 5
    endloop
  endfacet
  facet normal 0 0 1
    outer loop
      vertex -2 2 5
      vertex -1.33826 3.48629 5
      vertex -1.61803 3.17557 5
    endloop
  endfacet
  facet normal 0 0 1
    outer loop
      vertex -0.618033 -3.90211 5
      vertex -2 -2 5
      vertex -1 -3.73205 5
    endloop
  endfacet
  facet normal 0 0 1
    outer loop
      vertex -2 2 5
      vertex -1.61803 3.17557 5
      vertex -1.82709 2.81347 5
    endloop
  endfacet
  facet normal 0 0 1
    outer loop
      vertex -1 -3.73205 5
      vertex -2 -2 5
      vertex -1.33826 -3.48629 5
    endloop
  endfacet
  facet normal 0 0 1
    outer loop
      vertex -2 2 5
      vertex -1.82709 2.81347 5
      vertex -1.9563 2.41582 5
    endloop
  endfacet
  facet normal 0 0 1
    outer loop
      vertex -1.33826 -3.48629 5
      vertex -2 -2 5
      vertex -1.61803 -3.17557 5
    endloop
  endfacet
  facet normal 0 0 1
    outer loop
      vertex -1.61803 -3.17557 5
      vertex -2 -2 5
      vertex -1.82709 -2.81347 5
    endloop
  endfacet
  facet normal 0 0 1
    outer loop
      vertex -1.82709 -2.81347 5
      vertex -2 -2 5
      vertex -1.9563 -2.41582 5
    endloop
  endfacet
  facet normal -0.743144 0.669131 0
    outer loop
      vertex -1.61803 3.17557 -5
      vertex -1.33826 3.48629 5
      vertex -1.33826 3.48629 -5
    endloop
  endfacet
  facet normal -0.743144 0.669131 0
    outer loop
      vertex -1.33826 3.48629 5
      vertex -1.61803 3.17557 -5
      vertex -1.61803 3.17557 5
    endloop
  endfacet
  facet normal -0.587784 0.809018 0
    outer loop
      vertex -0.999999 3.73205 -5
      vertex -1.33826 3.48629 5
      vertex -0.999999 3.73205 5
    endloop
  endfacet
  facet normal -0.587784 0.809018 0
    outer loop
      vertex -1.33826 3.48629 5
      vertex -0.999999 3.73205 -5
      vertex -1.33826 3.48629 -5
    endloop
  endfacet
  facet normal -0.207911 0.978148 0
    outer loop
      vertex -0.209057 3.98904 -5
      vertex -0.618033 3.90211 5
      vertex -0.209057 3.98904 5
    endloop
  endfacet
  facet normal -0.207911 0.978148 0
    outer loop
      vertex -0.618033 3.90211 5
      vertex -0.209057 3.98904 -5
      vertex -0.618033 3.90211 -5
    endloop
  endfacet
  facet normal 0.994522 0.104529 0
    outer loop
      vertex 34 2 5
      vertex 33.9563 2.41582 -5
      vertex 33.9563 2.41582 5
    endloop
  endfacet
  facet normal 0.994522 0.104529 0
    outer loop
      vertex 33.9563 2.41582 -5
      vertex 34 2 5
      vertex 34 2 -5
    endloop
  endfacet
  facet normal 0.743143 0.669133 0
    outer loop
      vertex 33.618 3.17557 5
      vertex 33.3383 3.48629 -5
      vertex 33.3383 3.48629 5
    endloop
  endfacet
  facet normal 0.743143 0.669133 0
    outer loop
      vertex 33.3383 3.48629 -5
      vertex 33.618 3.17557 5
      vertex 33.618 3.17557 -5
    endloop
  endfacet
  facet normal -0.406738 -0.913545 0
    outer loop
      vertex -1 -3.73205 -5
      vertex -0.618033 -3.90211 5
      vertex -1 -3.73205 5
    endloop
  endfacet
  facet normal -0.406738 -0.913545 -0
    outer loop
      vertex -0.618033 -3.90211 5
      vertex -1 -3.73205 -5
      vertex -0.618033 -3.90211 -5
    endloop
  endfacet
  facet normal -0.587786 -0.809017 0
    outer loop
      vertex -1.33826 -3.48629 -5
      vertex -1 -3.73205 5
      vertex -1.33826 -3.48629 5
    endloop
  endfacet
  facet normal -0.587786 -0.809017 -0
    outer loop
      vertex -1 -3.73205 5
      vertex -1.33826 -3.48629 -5
      vertex -1 -3.73205 -5
    endloop
  endfacet
  facet normal -0.866026 -0.499999 0
    outer loop
      vertex -1.61803 -3.17557 -5
      vertex -1.82709 -2.81347 5
      vertex -1.82709 -2.81347 -5
    endloop
  endfacet
  facet normal -0.866026 -0.499999 0
    outer loop
      vertex -1.82709 -2.81347 5
      vertex -1.61803 -3.17557 -5
      vertex -1.61803 -3.17557 5
    endloop
  endfacet
  facet normal -0.951056 -0.309018 0
    outer loop
      vertex -1.82709 -2.81347 -5
      vertex -1.9563 -2.41582 5
      vertex -1.9563 -2.41582 -5
    endloop
  endfacet
  facet normal -0.951056 -0.309018 0
    outer loop
      vertex -1.9563 -2.41582 5
      vertex -1.82709 -2.81347 -5
      vertex -1.82709 -2.81347 5
    endloop
  endfacet
  facet normal 0.20791 0.978148 -0
    outer loop
      vertex 32.618 3.90211 -5
      vertex 32.2091 3.98904 5
      vertex 32.618 3.90211 5
    endloop
  endfacet
  facet normal 0.20791 0.978148 0
    outer loop
      vertex 32.2091 3.98904 5
      vertex 32.618 3.90211 -5
      vertex 32.2091 3.98904 -5
    endloop
  endfacet
  facet normal -0.866026 0.499999 0
    outer loop
      vertex -1.82709 2.81347 -5
      vertex -1.61803 3.17557 5
      vertex -1.61803 3.17557 -5
    endloop
  endfacet
  facet normal -0.866026 0.499999 0
    outer loop
      vertex -1.61803 3.17557 5
      vertex -1.82709 2.81347 -5
      vertex -1.82709 2.81347 5
    endloop
  endfacet
  facet normal -0.406739 0.913545 0
    outer loop
      vertex -0.618033 3.90211 -5
      vertex -0.999999 3.73205 5
      vertex -0.618033 3.90211 5
    endloop
  endfacet
  facet normal -0.406739 0.913545 0
    outer loop
      vertex -0.999999 3.73205 5
      vertex -0.618033 3.90211 -5
      vertex -0.999999 3.73205 -5
    endloop
  endfacet
  facet normal 0.866026 0.499999 0
    outer loop
      vertex 33.8271 2.81347 5
      vertex 33.618 3.17557 -5
      vertex 33.618 3.17557 5
    endloop
  endfacet
  facet normal 0.866026 0.499999 0
    outer loop
      vertex 33.618 3.17557 -5
      vertex 33.8271 2.81347 5
      vertex 33.8271 2.81347 -5
    endloop
  endfacet
  facet normal 0.406739 -0.913545 0
    outer loop
      vertex 32.618 -3.90211 -5
      vertex 33 -3.73205 5
      vertex 32.618 -3.90211 5
    endloop
  endfacet
  facet normal 0.406739 -0.913545 0
    outer loop
      vertex 33 -3.73205 5
      vertex 32.618 -3.90211 -5
      vertex 33 -3.73205 -5
    endloop
  endfacet
  facet normal 0.587786 -0.809017 0
    outer loop
      vertex 33 -3.73205 -5
      vertex 33.3383 -3.48629 5
      vertex 33 -3.73205 5
    endloop
  endfacet
  facet normal 0.587786 -0.809017 0
    outer loop
      vertex 33.3383 -3.48629 5
      vertex 33 -3.73205 -5
      vertex 33.3383 -3.48629 -5
    endloop
  endfacet
  facet normal 0.743143 -0.669133 0
    outer loop
      vertex 33.3383 -3.48629 5
      vertex 33.618 -3.17557 -5
      vertex 33.618 -3.17557 5
    endloop
  endfacet
  facet normal 0.743143 -0.669133 0
    outer loop
      vertex 33.618 -3.17557 -5
      vertex 33.3383 -3.48629 5
      vertex 33.3383 -3.48629 -5
    endloop
  endfacet
  facet normal 0.866026 -0.499999 0
    outer loop
      vertex 33.618 -3.17557 5
      vertex 33.8271 -2.81347 -5
      vertex 33.8271 -2.81347 5
    endloop
  endfacet
  facet normal 0.866026 -0.499999 0
    outer loop
      vertex 33.8271 -2.81347 -5
      vertex 33.618 -3.17557 5
      vertex 33.618 -3.17557 -5
    endloop
  endfacet
  facet normal 0.587786 0.809017 -0
    outer loop
      vertex 33.3383 3.48629 -5
      vertex 33 3.73205 5
      vertex 33.3383 3.48629 5
    endloop
  endfacet
  facet normal 0.587786 0.809017 0
    outer loop
      vertex 33 3.73205 5
      vertex 33.3383 3.48629 -5
      vertex 33 3.73205 -5
    endloop
  endfacet
  facet normal 0.951057 -0.309016 0
    outer loop
      vertex 33.8271 -2.81347 5
      vertex 33.9563 -2.41582 -5
      vertex 33.9563 -2.41582 5
    endloop
  endfacet
  facet normal 0.951057 -0.309016 0
    outer loop
      vertex 33.9563 -2.41582 -5
      vertex 33.8271 -2.81347 5
      vertex 33.8271 -2.81347 -5
    endloop
  endfacet
  facet normal -0.994522 -0.104529 0
    outer loop
      vertex 8 0 -5
      vertex 7.97815 0.207911 5
      vertex 7.97815 0.207911 -5
    endloop
  endfacet
  facet normal -0.994522 -0.104529 0
    outer loop
      vertex 7.97815 0.207911 5
      vertex 8 0 -5
      vertex 8 0 5
    endloop
  endfacet
  facet normal 0.207909 -0.978148 0
    outer loop
      vertex 6.69098 0.951056 -5
      vertex 6.89547 0.994521 5
      vertex 6.69098 0.951056 5
    endloop
  endfacet
  facet normal 0.207909 -0.978148 0
    outer loop
      vertex 6.89547 0.994521 5
      vertex 6.69098 0.951056 -5
      vertex 6.89547 0.994521 -5
    endloop
  endfacet
  facet normal -0.406737 0.913545 0
    outer loop
      vertex 7.5 -0.866025 -5
      vertex 7.30902 -0.951056 5
      vertex 7.5 -0.866025 5
    endloop
  endfacet
  facet normal -0.406737 0.913545 0
    outer loop
      vertex 7.30902 -0.951056 5
      vertex 7.5 -0.866025 -5
      vertex 7.30902 -0.951056 -5
    endloop
  endfacet
  facet normal -0.587787 -0.809016 0
    outer loop
      vertex 7.5 0.866025 -5
      vertex 7.66913 0.743144 5
      vertex 7.5 0.866025 5
    endloop
  endfacet
  facet normal -0.587787 -0.809016 -0
    outer loop
      vertex 7.66913 0.743144 5
      vertex 7.5 0.866025 -5
      vertex 7.66913 0.743144 -5
    endloop
  endfacet
  facet normal 0.743145 -0.66913 0
    outer loop
      vertex 6.19098 0.587785 5
      vertex 6.33087 0.743144 -5
      vertex 6.33087 0.743144 5
    endloop
  endfacet
  facet normal 0.743145 -0.66913 0
    outer loop
      vertex 6.33087 0.743144 -5
      vertex 6.19098 0.587785 5
      vertex 6.19098 0.587785 -5
    endloop
  endfacet
  facet normal 0.587785 -0.809017 0
    outer loop
      vertex 6.33087 0.743144 -5
      vertex 6.5 0.866025 5
      vertex 6.33087 0.743144 5
    endloop
  endfacet
  facet normal 0.587785 -0.809017 0
    outer loop
      vertex 6.5 0.866025 5
      vertex 6.33087 0.743144 -5
      vertex 6.5 0.866025 -5
    endloop
  endfacet
  facet normal -0.866025 -0.5 0
    outer loop
      vertex 7.91354 0.406736 -5
      vertex 7.80902 0.587785 5
      vertex 7.80902 0.587785 -5
    endloop
  endfacet
  facet normal -0.866025 -0.5 0
    outer loop
      vertex 7.80902 0.587785 5
      vertex 7.91354 0.406736 -5
      vertex 7.91354 0.406736 5
    endloop
  endfacet
  facet normal -0.951055 -0.30902 0
    outer loop
      vertex 7.97815 0.207911 -5
      vertex 7.91354 0.406736 5
      vertex 7.91354 0.406736 -5
    endloop
  endfacet
  facet normal -0.951055 -0.30902 0
    outer loop
      vertex 7.91354 0.406736 5
      vertex 7.97815 0.207911 -5
      vertex 7.97815 0.207911 5
    endloop
  endfacet
  facet normal -0.743145 -0.66913 0
    outer loop
      vertex 7.80902 0.587785 -5
      vertex 7.66913 0.743144 5
      vertex 7.66913 0.743144 -5
    endloop
  endfacet
  facet normal -0.743145 -0.66913 0
    outer loop
      vertex 7.66913 0.743144 5
      vertex 7.80902 0.587785 -5
      vertex 7.80902 0.587785 5
    endloop
  endfacet
  facet normal -0.207909 -0.978148 0
    outer loop
      vertex 7.10453 0.994521 -5
      vertex 7.30902 0.951056 5
      vertex 7.10453 0.994521 5
    endloop
  endfacet
  facet normal -0.207909 -0.978148 -0
    outer loop
      vertex 7.30902 0.951056 5
      vertex 7.10453 0.994521 -5
      vertex 7.30902 0.951056 -5
    endloop
  endfacet
  facet normal 0 -1 0
    outer loop
      vertex 6.89547 0.994521 -5
      vertex 7.10453 0.994521 5
      vertex 6.89547 0.994521 5
    endloop
  endfacet
  facet normal 0 -1 -0
    outer loop
      vertex 7.10453 0.994521 5
      vertex 6.89547 0.994521 -5
      vertex 7.10453 0.994521 -5
    endloop
  endfacet
  facet normal -0.406737 -0.913545 0
    outer loop
      vertex 7.30902 0.951056 -5
      vertex 7.5 0.866025 5
      vertex 7.30902 0.951056 5
    endloop
  endfacet
  facet normal -0.406737 -0.913545 -0
    outer loop
      vertex 7.5 0.866025 5
      vertex 7.30902 0.951056 -5
      vertex 7.5 0.866025 -5
    endloop
  endfacet
  facet normal 0.951055 -0.30902 0
    outer loop
      vertex 6.02185 0.207911 5
      vertex 6.08645 0.406736 -5
      vertex 6.08645 0.406736 5
    endloop
  endfacet
  facet normal 0.951055 -0.30902 0
    outer loop
      vertex 6.08645 0.406736 -5
      vertex 6.02185 0.207911 5
      vertex 6.02185 0.207911 -5
    endloop
  endfacet
  facet normal 0.866025 -0.5 0
    outer loop
      vertex 6.08645 0.406736 5
      vertex 6.19098 0.587785 -5
      vertex 6.19098 0.587785 5
    endloop
  endfacet
  facet normal 0.866025 -0.5 0
    outer loop
      vertex 6.19098 0.587785 -5
      vertex 6.08645 0.406736 5
      vertex 6.08645 0.406736 -5
    endloop
  endfacet
  facet normal 0.994522 -0.104524 0
    outer loop
      vertex 6 0 5
      vertex 6.02185 0.207911 -5
      vertex 6.02185 0.207911 5
    endloop
  endfacet
  facet normal 0.994522 -0.104524 0
    outer loop
      vertex 6.02185 0.207911 -5
      vertex 6 0 5
      vertex 6 0 -5
    endloop
  endfacet
  facet normal 0.406739 -0.913545 0
    outer loop
      vertex 6.5 0.866025 -5
      vertex 6.69098 0.951056 5
      vertex 6.5 0.866025 5
    endloop
  endfacet
  facet normal 0.406739 -0.913545 0
    outer loop
      vertex 6.69098 0.951056 5
      vertex 6.5 0.866025 -5
      vertex 6.69098 0.951056 -5
    endloop
  endfacet
  facet normal -0.866025 0.5 0
    outer loop
      vertex 7.80902 -0.587785 -5
      vertex 7.91354 -0.406736 5
      vertex 7.91354 -0.406736 -5
    endloop
  endfacet
  facet normal -0.866025 0.5 0
    outer loop
      vertex 7.91354 -0.406736 5
      vertex 7.80902 -0.587785 -5
      vertex 7.80902 -0.587785 5
    endloop
  endfacet
  facet normal -0.994522 0.104529 0
    outer loop
      vertex 7.97815 -0.207911 -5
      vertex 8 0 5
      vertex 8 0 -5
    endloop
  endfacet
  facet normal -0.994522 0.104529 0
    outer loop
      vertex 8 0 5
      vertex 7.97815 -0.207911 -5
      vertex 7.97815 -0.207911 5
    endloop
  endfacet
  facet normal 0 1 -0
    outer loop
      vertex 7.10453 -0.994521 -5
      vertex 6.89547 -0.994521 5
      vertex 7.10453 -0.994521 5
    endloop
  endfacet
  facet normal 0 1 0
    outer loop
      vertex 6.89547 -0.994521 5
      vertex 7.10453 -0.994521 -5
      vertex 6.89547 -0.994521 -5
    endloop
  endfacet
  facet normal 0.994522 0.104524 0
    outer loop
      vertex 6.02185 -0.207911 5
      vertex 6 0 -5
      vertex 6 0 5
    endloop
  endfacet
  facet normal 0.994522 0.104524 0
    outer loop
      vertex 6 0 -5
      vertex 6.02185 -0.207911 5
      vertex 6.02185 -0.207911 -5
    endloop
  endfacet
  facet normal -0.587787 0.809016 0
    outer loop
      vertex 7.66913 -0.743144 -5
      vertex 7.5 -0.866025 5
      vertex 7.66913 -0.743144 5
    endloop
  endfacet
  facet normal -0.587787 0.809016 0
    outer loop
      vertex 7.5 -0.866025 5
      vertex 7.66913 -0.743144 -5
      vertex 7.5 -0.866025 -5
    endloop
  endfacet
  facet normal 0.743145 0.66913 0
    outer loop
      vertex 6.33087 -0.743144 5
      vertex 6.19098 -0.587785 -5
      vertex 6.19098 -0.587785 5
    endloop
  endfacet
  facet normal 0.743145 0.66913 0
    outer loop
      vertex 6.19098 -0.587785 -5
      vertex 6.33087 -0.743144 5
      vertex 6.33087 -0.743144 -5
    endloop
  endfacet
  facet normal 0.951055 0.30902 0
    outer loop
      vertex 6.08645 -0.406736 5
      vertex 6.02185 -0.207911 -5
      vertex 6.02185 -0.207911 5
    endloop
  endfacet
  facet normal 0.951055 0.30902 0
    outer loop
      vertex 6.02185 -0.207911 -5
      vertex 6.08645 -0.406736 5
      vertex 6.08645 -0.406736 -5
    endloop
  endfacet
  facet normal 0.866025 0.5 0
    outer loop
      vertex 6.19098 -0.587785 5
      vertex 6.08645 -0.406736 -5
      vertex 6.08645 -0.406736 5
    endloop
  endfacet
  facet normal 0.866025 0.5 0
    outer loop
      vertex 6.08645 -0.406736 -5
      vertex 6.19098 -0.587785 5
      vertex 6.19098 -0.587785 -5
    endloop
  endfacet
  facet normal -0.951055 0.30902 0
    outer loop
      vertex 7.91354 -0.406736 -5
      vertex 7.97815 -0.207911 5
      vertex 7.97815 -0.207911 -5
    endloop
  endfacet
  facet normal -0.951055 0.30902 0
    outer loop
      vertex 7.97815 -0.207911 5
      vertex 7.91354 -0.406736 -5
      vertex 7.91354 -0.406736 5
    endloop
  endfacet
  facet normal -0.207909 0.978148 0
    outer loop
      vertex 7.30902 -0.951056 -5
      vertex 7.10453 -0.994521 5
      vertex 7.30902 -0.951056 5
    endloop
  endfacet
  facet normal -0.207909 0.978148 0
    outer loop
      vertex 7.10453 -0.994521 5
      vertex 7.30902 -0.951056 -5
      vertex 7.10453 -0.994521 -5
    endloop
  endfacet
  facet normal 0.406739 0.913545 -0
    outer loop
      vertex 6.69098 -0.951056 -5
      vertex 6.5 -0.866025 5
      vertex 6.69098 -0.951056 5
    endloop
  endfacet
  facet normal 0.406739 0.913545 0
    outer loop
      vertex 6.5 -0.866025 5
      vertex 6.69098 -0.951056 -5
      vertex 6.5 -0.866025 -5
    endloop
  endfacet
  facet normal 0.207909 0.978148 -0
    outer loop
      vertex 6.89547 -0.994521 -5
      vertex 6.69098 -0.951056 5
      vertex 6.89547 -0.994521 5
    endloop
  endfacet
  facet normal 0.207909 0.978148 0
    outer loop
      vertex 6.69098 -0.951056 5
      vertex 6.89547 -0.994521 -5
      vertex 6.69098 -0.951056 -5
    endloop
  endfacet
  facet normal 0.587785 0.809017 -0
    outer loop
      vertex 6.5 -0.866025 -5
      vertex 6.33087 -0.743144 5
      vertex 6.5 -0.866025 5
    endloop
  endfacet
  facet normal 0.587785 0.809017 0
    outer loop
      vertex 6.33087 -0.743144 5
      vertex 6.5 -0.866025 -5
      vertex 6.33087 -0.743144 -5
    endloop
  endfacet
  facet normal -0.743145 0.66913 0
    outer loop
      vertex 7.66913 -0.743144 -5
      vertex 7.80902 -0.587785 5
      vertex 7.80902 -0.587785 -5
    endloop
  endfacet
  facet normal -0.743145 0.66913 0
    outer loop
      vertex 7.80902 -0.587785 5
      vertex 7.66913 -0.743144 -5
      vertex 7.66913 -0.743144 5
    endloop
  endfacet
  facet normal -0.866025 -0.5 0
    outer loop
      vertex 15.9135 0.406736 -5
      vertex 15.809 0.587785 5
      vertex 15.809 0.587785 -5
    endloop
  endfacet
  facet normal -0.866025 -0.5 0
    outer loop
      vertex 15.809 0.587785 5
      vertex 15.9135 0.406736 -5
      vertex 15.9135 0.406736 5
    endloop
  endfacet
  facet normal -0.743145 -0.66913 0
    outer loop
      vertex 15.809 0.587785 -5
      vertex 15.6691 0.743144 5
      vertex 15.6691 0.743144 -5
    endloop
  endfacet
  facet normal -0.743145 -0.66913 0
    outer loop
      vertex 15.6691 0.743144 5
      vertex 15.809 0.587785 -5
      vertex 15.809 0.587785 5
    endloop
  endfacet
  facet normal -0.207909 -0.978148 0
    outer loop
      vertex 15.1045 0.994521 -5
      vertex 15.309 0.951056 5
      vertex 15.1045 0.994521 5
    endloop
  endfacet
  facet normal -0.207909 -0.978148 -0
    outer loop
      vertex 15.309 0.951056 5
      vertex 15.1045 0.994521 -5
      vertex 15.309 0.951056 -5
    endloop
  endfacet
  facet normal 0.587785 -0.809017 0
    outer loop
      vertex 14.3309 0.743144 -5
      vertex 14.5 0.866025 5
      vertex 14.3309 0.743144 5
    endloop
  endfacet
  facet normal 0.587785 -0.809017 0
    outer loop
      vertex 14.5 0.866025 5
      vertex 14.3309 0.743144 -5
      vertex 14.5 0.866025 -5
    endloop
  endfacet
  facet normal 0.951055 -0.30902 0
    outer loop
      vertex 14.0219 0.207911 5
      vertex 14.0865 0.406736 -5
      vertex 14.0865 0.406736 5
    endloop
  endfacet
  facet normal 0.951055 -0.30902 0
    outer loop
      vertex 14.0865 0.406736 -5
      vertex 14.0219 0.207911 5
      vertex 14.0219 0.207911 -5
    endloop
  endfacet
  facet normal 0.743145 -0.66913 0
    outer loop
      vertex 14.191 0.587785 5
      vertex 14.3309 0.743144 -5
      vertex 14.3309 0.743144 5
    endloop
  endfacet
  facet normal 0.743145 -0.66913 0
    outer loop
      vertex 14.3309 0.743144 -5
      vertex 14.191 0.587785 5
      vertex 14.191 0.587785 -5
    endloop
  endfacet
  facet normal -0.994522 0.104529 0
    outer loop
      vertex 15.9781 -0.207911 -5
      vertex 16 0 5
      vertex 16 0 -5
    endloop
  endfacet
  facet normal -0.994522 0.104529 0
    outer loop
      vertex 16 0 5
      vertex 15.9781 -0.207911 -5
      vertex 15.9781 -0.207911 5
    endloop
  endfacet
  facet normal -0.951055 -0.30902 0
    outer loop
      vertex 15.9781 0.207911 -5
      vertex 15.9135 0.406736 5
      vertex 15.9135 0.406736 -5
    endloop
  endfacet
  facet normal -0.951055 -0.30902 0
    outer loop
      vertex 15.9135 0.406736 5
      vertex 15.9781 0.207911 -5
      vertex 15.9781 0.207911 5
    endloop
  endfacet
  facet normal -0.587787 -0.809016 0
    outer loop
      vertex 15.5 0.866025 -5
      vertex 15.6691 0.743144 5
      vertex 15.5 0.866025 5
    endloop
  endfacet
  facet normal -0.587787 -0.809016 -0
    outer loop
      vertex 15.6691 0.743144 5
      vertex 15.5 0.866025 -5
      vertex 15.6691 0.743144 -5
    endloop
  endfacet
  facet normal 0.207909 -0.978148 0
    outer loop
      vertex 14.691 0.951056 -5
      vertex 14.8955 0.994521 5
      vertex 14.691 0.951056 5
    endloop
  endfacet
  facet normal 0.207909 -0.978148 0
    outer loop
      vertex 14.8955 0.994521 5
      vertex 14.691 0.951056 -5
      vertex 14.8955 0.994521 -5
    endloop
  endfacet
  facet normal -0.406737 -0.913545 0
    outer loop
      vertex 15.309 0.951056 -5
      vertex 15.5 0.866025 5
      vertex 15.309 0.951056 5
    endloop
  endfacet
  facet normal -0.406737 -0.913545 -0
    outer loop
      vertex 15.5 0.866025 5
      vertex 15.309 0.951056 -5
      vertex 15.5 0.866025 -5
    endloop
  endfacet
  facet normal 0.994522 0.104524 0
    outer loop
      vertex 14.0219 -0.207911 5
      vertex 14 0 -5
      vertex 14 0 5
    endloop
  endfacet
  facet normal 0.994522 0.104524 0
    outer loop
      vertex 14 0 -5
      vertex 14.0219 -0.207911 5
      vertex 14.0219 -0.207911 -5
    endloop
  endfacet
  facet normal 0.866025 -0.5 0
    outer loop
      vertex 14.0865 0.406736 5
      vertex 14.191 0.587785 -5
      vertex 14.191 0.587785 5
    endloop
  endfacet
  facet normal 0.866025 -0.5 0
    outer loop
      vertex 14.191 0.587785 -5
      vertex 14.0865 0.406736 5
      vertex 14.0865 0.406736 -5
    endloop
  endfacet
  facet normal 0.406739 -0.913545 0
    outer loop
      vertex 14.5 0.866025 -5
      vertex 14.691 0.951056 5
      vertex 14.5 0.866025 5
    endloop
  endfacet
  facet normal 0.406739 -0.913545 0
    outer loop
      vertex 14.691 0.951056 5
      vertex 14.5 0.866025 -5
      vertex 14.691 0.951056 -5
    endloop
  endfacet
  facet normal -0.994522 -0.104529 0
    outer loop
      vertex 16 0 -5
      vertex 15.9781 0.207911 5
      vertex 15.9781 0.207911 -5
    endloop
  endfacet
  facet normal -0.994522 -0.104529 0
    outer loop
      vertex 15.9781 0.207911 5
      vertex 16 0 -5
      vertex 16 0 5
    endloop
  endfacet
  facet normal -0.951055 0.30902 0
    outer loop
      vertex 15.9135 -0.406736 -5
      vertex 15.9781 -0.207911 5
      vertex 15.9781 -0.207911 -5
    endloop
  endfacet
  facet normal -0.951055 0.30902 0
    outer loop
      vertex 15.9781 -0.207911 5
      vertex 15.9135 -0.406736 -5
      vertex 15.9135 -0.406736 5
    endloop
  endfacet
  facet normal 0.406739 0.913545 -0
    outer loop
      vertex 14.691 -0.951056 -5
      vertex 14.5 -0.866025 5
      vertex 14.691 -0.951056 5
    endloop
  endfacet
  facet normal 0.406739 0.913545 0
    outer loop
      vertex 14.5 -0.866025 5
      vertex 14.691 -0.951056 -5
      vertex 14.5 -0.866025 -5
    endloop
  endfacet
  facet normal 0.743145 0.66913 0
    outer loop
      vertex 14.3309 -0.743144 5
      vertex 14.191 -0.587785 -5
      vertex 14.191 -0.587785 5
    endloop
  endfacet
  facet normal 0.743145 0.66913 0
    outer loop
      vertex 14.191 -0.587785 -5
      vertex 14.3309 -0.743144 5
      vertex 14.3309 -0.743144 -5
    endloop
  endfacet
  facet normal -0.406737 0.913545 0
    outer loop
      vertex 15.5 -0.866025 -5
      vertex 15.309 -0.951056 5
      vertex 15.5 -0.866025 5
    endloop
  endfacet
  facet normal -0.406737 0.913545 0
    outer loop
      vertex 15.309 -0.951056 5
      vertex 15.5 -0.866025 -5
      vertex 15.309 -0.951056 -5
    endloop
  endfacet
  facet normal -0.587787 0.809016 0
    outer loop
      vertex 15.6691 -0.743144 -5
      vertex 15.5 -0.866025 5
      vertex 15.6691 -0.743144 5
    endloop
  endfacet
  facet normal -0.587787 0.809016 0
    outer loop
      vertex 15.5 -0.866025 5
      vertex 15.6691 -0.743144 -5
      vertex 15.5 -0.866025 -5
    endloop
  endfacet
  facet normal 0 -1 0
    outer loop
      vertex 14.8955 0.994521 -5
      vertex 15.1045 0.994521 5
      vertex 14.8955 0.994521 5
    endloop
  endfacet
  facet normal 0 -1 -0
    outer loop
      vertex 15.1045 0.994521 5
      vertex 14.8955 0.994521 -5
      vertex 15.1045 0.994521 -5
    endloop
  endfacet
  facet normal 0.994522 -0.104524 0
    outer loop
      vertex 14 0 5
      vertex 14.0219 0.207911 -5
      vertex 14.0219 0.207911 5
    endloop
  endfacet
  facet normal 0.994522 -0.104524 0
    outer loop
      vertex 14.0219 0.207911 -5
      vertex 14 0 5
      vertex 14 0 -5
    endloop
  endfacet
  facet normal -0.866025 0.5 0
    outer loop
      vertex 15.809 -0.587785 -5
      vertex 15.9135 -0.406736 5
      vertex 15.9135 -0.406736 -5
    endloop
  endfacet
  facet normal -0.866025 0.5 0
    outer loop
      vertex 15.9135 -0.406736 5
      vertex 15.809 -0.587785 -5
      vertex 15.809 -0.587785 5
    endloop
  endfacet
  facet normal -0.207909 0.978148 0
    outer loop
      vertex 15.309 -0.951056 -5
      vertex 15.1045 -0.994521 5
      vertex 15.309 -0.951056 5
    endloop
  endfacet
  facet normal -0.207909 0.978148 0
    outer loop
      vertex 15.1045 -0.994521 5
      vertex 15.309 -0.951056 -5
      vertex 15.1045 -0.994521 -5
    endloop
  endfacet
  facet normal 0.951055 0.30902 0
    outer loop
      vertex 14.0865 -0.406736 5
      vertex 14.0219 -0.207911 -5
      vertex 14.0219 -0.207911 5
    endloop
  endfacet
  facet normal 0.951055 0.30902 0
    outer loop
      vertex 14.0219 -0.207911 -5
      vertex 14.0865 -0.406736 5
      vertex 14.0865 -0.406736 -5
    endloop
  endfacet
  facet normal 0.587785 0.809017 -0
    outer loop
      vertex 14.5 -0.866025 -5
      vertex 14.3309 -0.743144 5
      vertex 14.5 -0.866025 5
    endloop
  endfacet
  facet normal 0.587785 0.809017 0
    outer loop
      vertex 14.3309 -0.743144 5
      vertex 14.5 -0.866025 -5
      vertex 14.3309 -0.743144 -5
    endloop
  endfacet
  facet normal 0.207909 0.978148 -0
    outer loop
      vertex 14.8955 -0.994521 -5
      vertex 14.691 -0.951056 5
      vertex 14.8955 -0.994521 5
    endloop
  endfacet
  facet normal 0.207909 0.978148 0
    outer loop
      vertex 14.691 -0.951056 5
      vertex 14.8955 -0.994521 -5
      vertex 14.691 -0.951056 -5
    endloop
  endfacet
  facet normal 0 1 -0
    outer loop
      vertex 15.1045 -0.994521 -5
      vertex 14.8955 -0.994521 5
      vertex 15.1045 -0.994521 5
    endloop
  endfacet
  facet normal 0 1 0
    outer loop
      vertex 14.8955 -0.994521 5
      vertex 15.1045 -0.994521 -5
      vertex 14.8955 -0.994521 -5
    endloop
  endfacet
  facet normal 0.866025 0.5 0
    outer loop
      vertex 14.191 -0.587785 5
      vertex 14.0865 -0.406736 -5
      vertex 14.0865 -0.406736 5
    endloop
  endfacet
  facet normal 0.866025 0.5 0
    outer loop
      vertex 14.0865 -0.406736 -5
      vertex 14.191 -0.587785 5
      vertex 14.191 -0.587785 -5
    endloop
  endfacet
  facet normal -0.743145 0.66913 0
    outer loop
      vertex 15.6691 -0.743144 -5
      vertex 15.809 -0.587785 5
      vertex 15.809 -0.587785 -5
    endloop
  endfacet
  facet normal -0.743145 0.66913 0
    outer loop
      vertex 15.809 -0.587785 5
      vertex 15.6691 -0.743144 -5
      vertex 15.6691 -0.743144 5
    endloop
  endfacet
  facet normal -0.994522 -0.104529 0
    outer loop
      vertex 25 0 -5
      vertex 24.9781 0.207911 5
      vertex 24.9781 0.207911 -5
    endloop
  endfacet
  facet normal -0.994522 -0.104529 0
    outer loop
      vertex 24.9781 0.207911 5
      vertex 25 0 -5
      vertex 25 0 5
    endloop
  endfacet
  facet normal 0.20791 -0.978148 0
    outer loop
      vertex 23.691 0.951056 -5
      vertex 23.8955 0.994521 5
      vertex 23.691 0.951056 5
    endloop
  endfacet
  facet normal 0.20791 -0.978148 0
    outer loop
      vertex 23.8955 0.994521 5
      vertex 23.691 0.951056 -5
      vertex 23.8955 0.994521 -5
    endloop
  endfacet
  facet normal -0.207908 0.978148 0
    outer loop
      vertex 24.309 -0.951056 -5
      vertex 24.1045 -0.994521 5
      vertex 24.309 -0.951056 5
    endloop
  endfacet
  facet normal -0.207908 0.978148 0
    outer loop
      vertex 24.1045 -0.994521 5
      vertex 24.309 -0.951056 -5
      vertex 24.1045 -0.994521 -5
    endloop
  endfacet
  facet normal -0.406739 0.913545 0
    outer loop
      vertex 24.5 -0.866025 -5
      vertex 24.309 -0.951056 5
      vertex 24.5 -0.866025 5
    endloop
  endfacet
  facet normal -0.406739 0.913545 0
    outer loop
      vertex 24.309 -0.951056 5
      vertex 24.5 -0.866025 -5
      vertex 24.309 -0.951056 -5
    endloop
  endfacet
  facet normal -0.587787 -0.809016 0
    outer loop
      vertex 24.5 0.866025 -5
      vertex 24.6691 0.743144 5
      vertex 24.5 0.866025 5
    endloop
  endfacet
  facet normal -0.587787 -0.809016 -0
    outer loop
      vertex 24.6691 0.743144 5
      vertex 24.5 0.866025 -5
      vertex 24.6691 0.743144 -5
    endloop
  endfacet
  facet normal 0.743148 -0.669128 0
    outer loop
      vertex 23.191 0.587785 5
      vertex 23.3309 0.743144 -5
      vertex 23.3309 0.743144 5
    endloop
  endfacet
  facet normal 0.743148 -0.669128 0
    outer loop
      vertex 23.3309 0.743144 -5
      vertex 23.191 0.587785 5
      vertex 23.191 0.587785 -5
    endloop
  endfacet
  facet normal 0.587783 -0.809019 0
    outer loop
      vertex 23.3309 0.743144 -5
      vertex 23.5 0.866025 5
      vertex 23.3309 0.743144 5
    endloop
  endfacet
  facet normal 0.587783 -0.809019 0
    outer loop
      vertex 23.5 0.866025 5
      vertex 23.3309 0.743144 -5
      vertex 23.5 0.866025 -5
    endloop
  endfacet
  facet normal -0.951054 0.309024 0
    outer loop
      vertex 24.9135 -0.406736 -5
      vertex 24.9781 -0.207911 5
      vertex 24.9781 -0.207911 -5
    endloop
  endfacet
  facet normal -0.951054 0.309024 0
    outer loop
      vertex 24.9781 -0.207911 5
      vertex 24.9135 -0.406736 -5
      vertex 24.9135 -0.406736 5
    endloop
  endfacet
  facet normal -0.866029 -0.499993 0
    outer loop
      vertex 24.9135 0.406736 -5
      vertex 24.809 0.587785 5
      vertex 24.809 0.587785 -5
    endloop
  endfacet
  facet normal -0.866029 -0.499993 0
    outer loop
      vertex 24.809 0.587785 5
      vertex 24.9135 0.406736 -5
      vertex 24.9135 0.406736 5
    endloop
  endfacet
  facet normal -0.951054 -0.309024 0
    outer loop
      vertex 24.9781 0.207911 -5
      vertex 24.9135 0.406736 5
      vertex 24.9135 0.406736 -5
    endloop
  endfacet
  facet normal -0.951054 -0.309024 0
    outer loop
      vertex 24.9135 0.406736 5
      vertex 24.9781 0.207911 -5
      vertex 24.9781 0.207911 5
    endloop
  endfacet
  facet normal -0.743143 -0.669133 0
    outer loop
      vertex 24.809 0.587785 -5
      vertex 24.6691 0.743144 5
      vertex 24.6691 0.743144 -5
    endloop
  endfacet
  facet normal -0.743143 -0.669133 0
    outer loop
      vertex 24.6691 0.743144 5
      vertex 24.809 0.587785 -5
      vertex 24.809 0.587785 5
    endloop
  endfacet
  facet normal -0.207908 -0.978148 0
    outer loop
      vertex 24.1045 0.994521 -5
      vertex 24.309 0.951056 5
      vertex 24.1045 0.994521 5
    endloop
  endfacet
  facet normal -0.207908 -0.978148 -0
    outer loop
      vertex 24.309 0.951056 5
      vertex 24.1045 0.994521 -5
      vertex 24.309 0.951056 -5
    endloop
  endfacet
  facet normal 0 -1 0
    outer loop
      vertex 23.8955 0.994521 -5
      vertex 24.1045 0.994521 5
      vertex 23.8955 0.994521 5
    endloop
  endfacet
  facet normal 0 -1 -0
    outer loop
      vertex 24.1045 0.994521 5
      vertex 23.8955 0.994521 -5
      vertex 24.1045 0.994521 -5
    endloop
  endfacet
  facet normal -0.406739 -0.913545 0
    outer loop
      vertex 24.309 0.951056 -5
      vertex 24.5 0.866025 5
      vertex 24.309 0.951056 5
    endloop
  endfacet
  facet normal -0.406739 -0.913545 -0
    outer loop
      vertex 24.5 0.866025 5
      vertex 24.309 0.951056 -5
      vertex 24.5 0.866025 -5
    endloop
  endfacet
  facet normal 0.951054 -0.309024 0
    outer loop
      vertex 23.0219 0.207911 5
      vertex 23.0865 0.406736 -5
      vertex 23.0865 0.406736 5
    endloop
  endfacet
  facet normal 0.951054 -0.309024 0
    outer loop
      vertex 23.0865 0.406736 -5
      vertex 23.0219 0.207911 5
      vertex 23.0219 0.207911 -5
    endloop
  endfacet
  facet normal 0.866025 -0.5 0
    outer loop
      vertex 23.0865 0.406736 5
      vertex 23.191 0.587785 -5
      vertex 23.191 0.587785 5
    endloop
  endfacet
  facet normal 0.866025 -0.5 0
    outer loop
      vertex 23.191 0.587785 -5
      vertex 23.0865 0.406736 5
      vertex 23.0865 0.406736 -5
    endloop
  endfacet
  facet normal 0.994523 -0.10452 0
    outer loop
      vertex 23 0 5
      vertex 23.0219 0.207911 -5
      vertex 23.0219 0.207911 5
    endloop
  endfacet
  facet normal 0.994523 -0.10452 0
    outer loop
      vertex 23.0219 0.207911 -5
      vertex 23 0 5
      vertex 23 0 -5
    endloop
  endfacet
  facet normal 0.406739 -0.913545 0
    outer loop
      vertex 23.5 0.866025 -5
      vertex 23.691 0.951056 5
      vertex 23.5 0.866025 5
    endloop
  endfacet
  facet normal 0.406739 -0.913545 0
    outer loop
      vertex 23.691 0.951056 5
      vertex 23.5 0.866025 -5
      vertex 23.691 0.951056 -5
    endloop
  endfacet
  facet normal -0.994522 0.104529 0
    outer loop
      vertex 24.9781 -0.207911 -5
      vertex 25 0 5
      vertex 25 0 -5
    endloop
  endfacet
  facet normal -0.994522 0.104529 0
    outer loop
      vertex 25 0 5
      vertex 24.9781 -0.207911 -5
      vertex 24.9781 -0.207911 5
    endloop
  endfacet
  facet normal 0.994523 0.10452 0
    outer loop
      vertex 23.0219 -0.207911 5
      vertex 23 0 -5
      vertex 23 0 5
    endloop
  endfacet
  facet normal 0.994523 0.10452 0
    outer loop
      vertex 23 0 -5
      vertex 23.0219 -0.207911 5
      vertex 23.0219 -0.207911 -5
    endloop
  endfacet
  facet normal -0.866029 0.499993 0
    outer loop
      vertex 24.809 -0.587785 -5
      vertex 24.9135 -0.406736 5
      vertex 24.9135 -0.406736 -5
    endloop
  endfacet
  facet normal -0.866029 0.499993 0
    outer loop
      vertex 24.9135 -0.406736 5
      vertex 24.809 -0.587785 -5
      vertex 24.809 -0.587785 5
    endloop
  endfacet
  facet normal 0.743148 0.669128 0
    outer loop
      vertex 23.3309 -0.743144 5
      vertex 23.191 -0.587785 -5
      vertex 23.191 -0.587785 5
    endloop
  endfacet
  facet normal 0.743148 0.669128 0
    outer loop
      vertex 23.191 -0.587785 -5
      vertex 23.3309 -0.743144 5
      vertex 23.3309 -0.743144 -5
    endloop
  endfacet
  facet normal 0.587783 0.809019 -0
    outer loop
      vertex 23.5 -0.866025 -5
      vertex 23.3309 -0.743144 5
      vertex 23.5 -0.866025 5
    endloop
  endfacet
  facet normal 0.587783 0.809019 0
    outer loop
      vertex 23.3309 -0.743144 5
      vertex 23.5 -0.866025 -5
      vertex 23.3309 -0.743144 -5
    endloop
  endfacet
  facet normal -0.587787 0.809016 0
    outer loop
      vertex 24.6691 -0.743144 -5
      vertex 24.5 -0.866025 5
      vertex 24.6691 -0.743144 5
    endloop
  endfacet
  facet normal -0.587787 0.809016 0
    outer loop
      vertex 24.5 -0.866025 5
      vertex 24.6691 -0.743144 -5
      vertex 24.5 -0.866025 -5
    endloop
  endfacet
  facet normal 0 1 -0
    outer loop
      vertex 24.1045 -0.994521 -5
      vertex 23.8955 -0.994521 5
      vertex 24.1045 -0.994521 5
    endloop
  endfacet
  facet normal 0 1 0
    outer loop
      vertex 23.8955 -0.994521 5
      vertex 24.1045 -0.994521 -5
      vertex 23.8955 -0.994521 -5
    endloop
  endfacet
  facet normal 0.866025 0.5 0
    outer loop
      vertex 23.191 -0.587785 5
      vertex 23.0865 -0.406736 -5
      vertex 23.0865 -0.406736 5
    endloop
  endfacet
  facet normal 0.866025 0.5 0
    outer loop
      vertex 23.0865 -0.406736 -5
      vertex 23.191 -0.587785 5
      vertex 23.191 -0.587785 -5
    endloop
  endfacet
  facet normal 0.951054 0.309024 0
    outer loop
      vertex 23.0865 -0.406736 5
      vertex 23.0219 -0.207911 -5
      vertex 23.0219 -0.207911 5
    endloop
  endfacet
  facet normal 0.951054 0.309024 0
    outer loop
      vertex 23.0219 -0.207911 -5
      vertex 23.0865 -0.406736 5
      vertex 23.0865 -0.406736 -5
    endloop
  endfacet
  facet normal -0.743143 0.669133 0
    outer loop
      vertex 24.6691 -0.743144 -5
      vertex 24.809 -0.587785 5
      vertex 24.809 -0.587785 -5
    endloop
  endfacet
  facet normal -0.743143 0.669133 0
    outer loop
      vertex 24.809 -0.587785 5
      vertex 24.6691 -0.743144 -5
      vertex 24.6691 -0.743144 5
    endloop
  endfacet
  facet normal 0.20791 0.978148 -0
    outer loop
      vertex 23.8955 -0.994521 -5
      vertex 23.691 -0.951056 5
      vertex 23.8955 -0.994521 5
    endloop
  endfacet
  facet normal 0.20791 0.978148 0
    outer loop
      vertex 23.691 -0.951056 5
      vertex 23.8955 -0.994521 -5
      vertex 23.691 -0.951056 -5
    endloop
  endfacet
  facet normal 0.406739 0.913545 -0
    outer loop
      vertex 23.691 -0.951056 -5
      vertex 23.5 -0.866025 5
      vertex 23.691 -0.951056 5
    endloop
  endfacet
  facet normal 0.406739 0.913545 0
    outer loop
      vertex 23.5 -0.866025 5
      vertex 23.691 -0.951056 -5
      vertex 23.5 -0.866025 -5
    endloop
  endfacet
  facet normal -0.994522 -0.104529 0
    outer loop
      vertex 32 0 -5
      vertex 31.9781 0.207911 5
      vertex 31.9781 0.207911 -5
    endloop
  endfacet
  facet normal -0.994522 -0.104529 0
    outer loop
      vertex 31.9781 0.207911 5
      vertex 32 0 -5
      vertex 32 0 5
    endloop
  endfacet
  facet normal 0.20791 -0.978148 0
    outer loop
      vertex 30.691 0.951056 -5
      vertex 30.8955 0.994521 5
      vertex 30.691 0.951056 5
    endloop
  endfacet
  facet normal 0.20791 -0.978148 0
    outer loop
      vertex 30.8955 0.994521 5
      vertex 30.691 0.951056 -5
      vertex 30.8955 0.994521 -5
    endloop
  endfacet
  facet normal -0.406739 0.913545 0
    outer loop
      vertex 31.5 -0.866025 -5
      vertex 31.309 -0.951056 5
      vertex 31.5 -0.866025 5
    endloop
  endfacet
  facet normal -0.406739 0.913545 0
    outer loop
      vertex 31.309 -0.951056 5
      vertex 31.5 -0.866025 -5
      vertex 31.309 -0.951056 -5
    endloop
  endfacet
  facet normal -0.587787 -0.809016 0
    outer loop
      vertex 31.5 0.866025 -5
      vertex 31.6691 0.743144 5
      vertex 31.5 0.866025 5
    endloop
  endfacet
  facet normal -0.587787 -0.809016 -0
    outer loop
      vertex 31.6691 0.743144 5
      vertex 31.5 0.866025 -5
      vertex 31.6691 0.743144 -5
    endloop
  endfacet
  facet normal 0.743148 -0.669128 0
    outer loop
      vertex 30.191 0.587785 5
      vertex 30.3309 0.743144 -5
      vertex 30.3309 0.743144 5
    endloop
  endfacet
  facet normal 0.743148 -0.669128 0
    outer loop
      vertex 30.3309 0.743144 -5
      vertex 30.191 0.587785 5
      vertex 30.191 0.587785 -5
    endloop
  endfacet
  facet normal 0.587783 -0.809019 0
    outer loop
      vertex 30.3309 0.743144 -5
      vertex 30.5 0.866025 5
      vertex 30.3309 0.743144 5
    endloop
  endfacet
  facet normal 0.587783 -0.809019 0
    outer loop
      vertex 30.5 0.866025 5
      vertex 30.3309 0.743144 -5
      vertex 30.5 0.866025 -5
    endloop
  endfacet
  facet normal -0.866029 -0.499993 0
    outer loop
      vertex 31.9135 0.406736 -5
      vertex 31.809 0.587785 5
      vertex 31.809 0.587785 -5
    endloop
  endfacet
  facet normal -0.866029 -0.499993 0
    outer loop
      vertex 31.809 0.587785 5
      vertex 31.9135 0.406736 -5
      vertex 31.9135 0.406736 5
    endloop
  endfacet
  facet normal -0.951054 -0.309024 0
    outer loop
      vertex 31.9781 0.207911 -5
      vertex 31.9135 0.406736 5
      vertex 31.9135 0.406736 -5
    endloop
  endfacet
  facet normal -0.951054 -0.309024 0
    outer loop
      vertex 31.9135 0.406736 5
      vertex 31.9781 0.207911 -5
      vertex 31.9781 0.207911 5
    endloop
  endfacet
  facet normal -0.743143 -0.669133 0
    outer loop
      vertex 31.809 0.587785 -5
      vertex 31.6691 0.743144 5
      vertex 31.6691 0.743144 -5
    endloop
  endfacet
  facet normal -0.743143 -0.669133 0
    outer loop
      vertex 31.6691 0.743144 5
      vertex 31.809 0.587785 -5
      vertex 31.809 0.587785 5
    endloop
  endfacet
  facet normal -0.207908 -0.978148 0
    outer loop
      vertex 31.1045 0.994521 -5
      vertex 31.309 0.951056 5
      vertex 31.1045 0.994521 5
    endloop
  endfacet
  facet normal -0.207908 -0.978148 -0
    outer loop
      vertex 31.309 0.951056 5
      vertex 31.1045 0.994521 -5
      vertex 31.309 0.951056 -5
    endloop
  endfacet
  facet normal 0 -1 0
    outer loop
      vertex 30.8955 0.994521 -5
      vertex 31.1045 0.994521 5
      vertex 30.8955 0.994521 5
    endloop
  endfacet
  facet normal 0 -1 -0
    outer loop
      vertex 31.1045 0.994521 5
      vertex 30.8955 0.994521 -5
      vertex 31.1045 0.994521 -5
    endloop
  endfacet
  facet normal -0.406739 -0.913545 0
    outer loop
      vertex 31.309 0.951056 -5
      vertex 31.5 0.866025 5
      vertex 31.309 0.951056 5
    endloop
  endfacet
  facet normal -0.406739 -0.913545 -0
    outer loop
      vertex 31.5 0.866025 5
      vertex 31.309 0.951056 -5
      vertex 31.5 0.866025 -5
    endloop
  endfacet
  facet normal 0.951054 -0.309024 0
    outer loop
      vertex 30.0219 0.207911 5
      vertex 30.0865 0.406736 -5
      vertex 30.0865 0.406736 5
    endloop
  endfacet
  facet normal 0.951054 -0.309024 0
    outer loop
      vertex 30.0865 0.406736 -5
      vertex 30.0219 0.207911 5
      vertex 30.0219 0.207911 -5
    endloop
  endfacet
  facet normal 0.866025 -0.5 0
    outer loop
      vertex 30.0865 0.406736 5
      vertex 30.191 0.587785 -5
      vertex 30.191 0.587785 5
    endloop
  endfacet
  facet normal 0.866025 -0.5 0
    outer loop
      vertex 30.191 0.587785 -5
      vertex 30.0865 0.406736 5
      vertex 30.0865 0.406736 -5
    endloop
  endfacet
  facet normal 0.994523 -0.10452 0
    outer loop
      vertex 30 0 5
      vertex 30.0219 0.207911 -5
      vertex 30.0219 0.207911 5
    endloop
  endfacet
  facet normal 0.994523 -0.10452 0
    outer loop
      vertex 30.0219 0.207911 -5
      vertex 30 0 5
      vertex 30 0 -5
    endloop
  endfacet
  facet normal 0.406739 -0.913545 0
    outer loop
      vertex 30.5 0.866025 -5
      vertex 30.691 0.951056 5
      vertex 30.5 0.866025 5
    endloop
  endfacet
  facet normal 0.406739 -0.913545 0
    outer loop
      vertex 30.691 0.951056 5
      vertex 30.5 0.866025 -5
      vertex 30.691 0.951056 -5
    endloop
  endfacet
  facet normal -0.866029 0.499993 0
    outer loop
      vertex 31.809 -0.587785 -5
      vertex 31.9135 -0.406736 5
      vertex 31.9135 -0.406736 -5
    endloop
  endfacet
  facet normal -0.866029 0.499993 0
    outer loop
      vertex 31.9135 -0.406736 5
      vertex 31.809 -0.587785 -5
      vertex 31.809 -0.587785 5
    endloop
  endfacet
  facet normal -0.994522 0.104529 0
    outer loop
      vertex 31.9781 -0.207911 -5
      vertex 32 0 5
      vertex 32 0 -5
    endloop
  endfacet
  facet normal -0.994522 0.104529 0
    outer loop
      vertex 32 0 5
      vertex 31.9781 -0.207911 -5
      vertex 31.9781 -0.207911 5
    endloop
  endfacet
  facet normal 0 1 -0
    outer loop
      vertex 31.1045 -0.994521 -5
      vertex 30.8955 -0.994521 5
      vertex 31.1045 -0.994521 5
    endloop
  endfacet
  facet normal 0 1 0
    outer loop
      vertex 30.8955 -0.994521 5
      vertex 31.1045 -0.994521 -5
      vertex 30.8955 -0.994521 -5
    endloop
  endfacet
  facet normal 0.994523 0.10452 0
    outer loop
      vertex 30.0219 -0.207911 5
      vertex 30 0 -5
      vertex 30 0 5
    endloop
  endfacet
  facet normal 0.994523 0.10452 0
    outer loop
      vertex 30 0 -5
      vertex 30.0219 -0.207911 5
      vertex 30.0219 -0.207911 -5
    endloop
  endfacet
  facet normal -0.587787 0.809016 0
    outer loop
      vertex 31.6691 -0.743144 -5
      vertex 31.5 -0.866025 5
      vertex 31.6691 -0.743144 5
    endloop
  endfacet
  facet normal -0.587787 0.809016 0
    outer loop
      vertex 31.5 -0.866025 5
      vertex 31.6691 -0.743144 -5
      vertex 31.5 -0.866025 -5
    endloop
  endfacet
  facet normal 0.743148 0.669128 0
    outer loop
      vertex 30.3309 -0.743144 5
      vertex 30.191 -0.587785 -5
      vertex 30.191 -0.587785 5
    endloop
  endfacet
  facet normal 0.743148 0.669128 0
    outer loop
      vertex 30.191 -0.587785 -5
      vertex 30.3309 -0.743144 5
      vertex 30.3309 -0.743144 -5
    endloop
  endfacet
  facet normal 0.951054 0.309024 0
    outer loop
      vertex 30.0865 -0.406736 5
      vertex 30.0219 -0.207911 -5
      vertex 30.0219 -0.207911 5
    endloop
  endfacet
  facet normal 0.951054 0.309024 0
    outer loop
      vertex 30.0219 -0.207911 -5
      vertex 30.0865 -0.406736 5
      vertex 30.0865 -0.406736 -5
    endloop
  endfacet
  facet normal 0.866025 0.5 0
    outer loop
      vertex 30.191 -0.587785 5
      vertex 30.0865 -0.406736 -5
      vertex 30.0865 -0.406736 5
    endloop
  endfacet
  facet normal 0.866025 0.5 0
    outer loop
      vertex 30.0865 -0.406736 -5
      vertex 30.191 -0.587785 5
      vertex 30.191 -0.587785 -5
    endloop
  endfacet
  facet normal -0.743143 0.669133 0
    outer loop
      vertex 31.6691 -0.743144 -5
      vertex 31.809 -0.587785 5
      vertex 31.809 -0.587785 -5
    endloop
  endfacet
  facet normal -0.743143 0.669133 0
    outer loop
      vertex 31.809 -0.587785 5
      vertex 31.6691 -0.743144 -5
      vertex 31.6691 -0.743144 5
    endloop
  endfacet
  facet normal -0.951054 0.309024 0
    outer loop
      vertex 31.9135 -0.406736 -5
      vertex 31.9781 -0.207911 5
      vertex 31.9781 -0.207911 -5
    endloop
  endfacet
  facet normal -0.951054 0.309024 0
    outer loop
      vertex 31.9781 -0.207911 5
      vertex 31.9135 -0.406736 -5
      vertex 31.9135 -0.406736 5
    endloop
  endfacet
  facet normal -0.207908 0.978148 0
    outer loop
      vertex 31.309 -0.951056 -5
      vertex 31.1045 -0.994521 5
      vertex 31.309 -0.951056 5
    endloop
  endfacet
  facet normal -0.207908 0.978148 0
    outer loop
      vertex 31.1045 -0.994521 5
      vertex 31.309 -0.951056 -5
      vertex 31.1045 -0.994521 -5
    endloop
  endfacet
  facet normal 0.406739 0.913545 -0
    outer loop
      vertex 30.691 -0.951056 -5
      vertex 30.5 -0.866025 5
      vertex 30.691 -0.951056 5
    endloop
  endfacet
  facet normal 0.406739 0.913545 0
    outer loop
      vertex 30.5 -0.866025 5
      vertex 30.691 -0.951056 -5
      vertex 30.5 -0.866025 -5
    endloop
  endfacet
  facet normal 0.20791 0.978148 -0
    outer loop
      vertex 30.8955 -0.994521 -5
      vertex 30.691 -0.951056 5
      vertex 30.8955 -0.994521 5
    endloop
  endfacet
  facet normal 0.20791 0.978148 0
    outer loop
      vertex 30.691 -0.951056 5
      vertex 30.8955 -0.994521 -5
      vertex 30.691 -0.951056 -5
    endloop
  endfacet
  facet normal 0.587783 0.809019 -0
    outer loop
      vertex 30.5 -0.866025 -5
      vertex 30.3309 -0.743144 5
      vertex 30.5 -0.866025 5
    endloop
  endfacet
  facet normal 0.587783 0.809019 0
    outer loop
      vertex 30.3309 -0.743144 5
      vertex 30.5 -0.866025 -5
      vertex 30.3309 -0.743144 -5
    endloop
  endfacet
endsolid OpenSCAD_Model
