solid OpenSCAD_Model
  facet normal 0 0 -1
    outer loop
      vertex 28.2091 -3.98904 -5
      vertex 30 -2 -5
      vertex 29.9563 -2.41582 -5
    endloop
  endfacet
  facet normal 0 0 -1
    outer loop
      vertex 30 -2 -5
      vertex 26 0 -5
      vertex 30 2 -5
    endloop
  endfacet
  facet normal 0 0 -1
    outer loop
      vertex 28.2091 -3.98904 -5
      vertex 29.9563 -2.41582 -5
      vertex 29.8271 -2.81347 -5
    endloop
  endfacet
  facet normal 0 0 -1
    outer loop
      vertex 25.9945 0.0519772 -5
      vertex 30 2 -5
      vertex 26 0 -5
    endloop
  endfacet
  facet normal 0 0 -1
    outer loop
      vertex 28.2091 -3.98904 -5
      vertex 29.8271 -2.81347 -5
      vertex 29.618 -3.17557 -5
    endloop
  endfacet
  facet normal 0 0 -1
    outer loop
      vertex 25.9784 0.101684 -5
      vertex 30 2 -5
      vertex 25.9945 0.0519772 -5
    endloop
  endfacet
  facet normal 0 0 -1
    outer loop
      vertex 28.2091 -3.98904 -5
      vertex 29.618 -3.17557 -5
      vertex 29.3383 -3.48629 -5
    endloop
  endfacet
  facet normal 0 0 -1
    outer loop
      vertex 25.9523 0.146946 -5
      vertex 30 2 -5
      vertex 25.9784 0.101684 -5
    endloop
  endfacet
  facet normal 0 0 -1
    outer loop
      vertex 28.2091 -3.98904 -5
      vertex 29.3383 -3.48629 -5
      vertex 29 -3.73205 -5
    endloop
  endfacet
  facet normal 0 -0 -1
    outer loop
      vertex 28.2091 3.98904 -5
      vertex 30 2 -5
      vertex 25.9523 0.146946 -5
    endloop
  endfacet
  facet normal 0 0 -1
    outer loop
      vertex 28.2091 -3.98904 -5
      vertex 29 -3.73205 -5
      vertex 28.618 -3.90211 -5
    endloop
  endfacet
  facet normal 0 0 -1
    outer loop
      vertex 30 2 -5
      vertex 28.2091 3.98904 -5
      vertex 29.9563 2.41582 -5
    endloop
  endfacet
  facet normal -0 0 -1
    outer loop
      vertex 30 -2 -5
      vertex 28.2091 -3.98904 -5
      vertex 25.9523 -0.146946 -5
    endloop
  endfacet
  facet normal 0 0 -1
    outer loop
      vertex 29.9563 2.41582 -5
      vertex 28.2091 3.98904 -5
      vertex 29.8271 2.81347 -5
    endloop
  endfacet
  facet normal 0 0 -1
    outer loop
      vertex 29.8271 2.81347 -5
      vertex 28.2091 3.98904 -5
      vertex 29.618 3.17557 -5
    endloop
  endfacet
  facet normal 0 0 -1
    outer loop
      vertex 30 -2 -5
      vertex 25.9945 -0.0519772 -5
      vertex 26 0 -5
    endloop
  endfacet
  facet normal 0 0 -1
    outer loop
      vertex 30 -2 -5
      vertex 25.9784 -0.101684 -5
      vertex 25.9945 -0.0519772 -5
    endloop
  endfacet
  facet normal 0 0 -1
    outer loop
      vertex 30 -2 -5
      vertex 25.9523 -0.146946 -5
      vertex 25.9784 -0.101684 -5
    endloop
  endfacet
  facet normal 0 0 -1
    outer loop
      vertex 28.2091 -3.98904 -5
      vertex 25.9173 -0.185785 -5
      vertex 25.9523 -0.146946 -5
    endloop
  endfacet
  facet normal 0 0 -1
    outer loop
      vertex 28.2091 -3.98904 -5
      vertex 25.875 -0.216506 -5
      vertex 25.9173 -0.185785 -5
    endloop
  endfacet
  facet normal 0 0 -1
    outer loop
      vertex 28.2091 -3.98904 -5
      vertex 25.8273 -0.237763 -5
      vertex 25.875 -0.216506 -5
    endloop
  endfacet
  facet normal 0 0 -1
    outer loop
      vertex 28.2091 -3.98904 -5
      vertex 25.7761 -0.24863 -5
      vertex 25.8273 -0.237763 -5
    endloop
  endfacet
  facet normal 0 0 -1
    outer loop
      vertex 28.2091 -3.98904 -5
      vertex 25.7239 -0.24863 -5
      vertex 25.7761 -0.24863 -5
    endloop
  endfacet
  facet normal 0 0 -1
    outer loop
      vertex 28.2091 -3.98904 -5
      vertex 25.6727 -0.237763 -5
      vertex 25.7239 -0.24863 -5
    endloop
  endfacet
  facet normal 0 0 -1
    outer loop
      vertex 28.2091 -3.98904 -5
      vertex 25.625 -0.216506 -5
      vertex 25.6727 -0.237763 -5
    endloop
  endfacet
  facet normal 0 0 -1
    outer loop
      vertex 19.375 -0.216506 -5
      vertex 25.625 -0.216506 -5
      vertex 28.2091 -3.98904 -5
    endloop
  endfacet
  facet normal 0 0 -1
    outer loop
      vertex 25.625 -0.216506 -5
      vertex 19.375 -0.216506 -5
      vertex 25.5827 -0.185785 -5
    endloop
  endfacet
  facet normal 0 0 -1
    outer loop
      vertex 25.5055 -0.0519772 -5
      vertex 19.5 0 -5
      vertex 25.5 0 -5
    endloop
  endfacet
  facet normal 0 0 -1
    outer loop
      vertex 19.4945 -0.0519772 -5
      vertex 25.5055 -0.0519772 -5
      vertex 25.5216 -0.101684 -5
    endloop
  endfacet
  facet normal 0 0 -1
    outer loop
      vertex 19.4784 -0.101684 -5
      vertex 25.5216 -0.101684 -5
      vertex 25.5477 -0.146946 -5
    endloop
  endfacet
  facet normal 0 -0 -1
    outer loop
      vertex 19.4173 -0.185785 -5
      vertex 25.5827 -0.185785 -5
      vertex 19.375 -0.216506 -5
    endloop
  endfacet
  facet normal 0 0 -1
    outer loop
      vertex 25.5055 -0.0519772 -5
      vertex 19.4945 -0.0519772 -5
      vertex 19.5 0 -5
    endloop
  endfacet
  facet normal 0 0 -1
    outer loop
      vertex 25.5216 -0.101684 -5
      vertex 19.4784 -0.101684 -5
      vertex 19.4945 -0.0519772 -5
    endloop
  endfacet
  facet normal 0 0 -1
    outer loop
      vertex 25.5477 -0.146946 -5
      vertex 19.4523 -0.146946 -5
      vertex 19.4784 -0.101684 -5
    endloop
  endfacet
  facet normal -0 0 -1
    outer loop
      vertex 25.5477 -0.146946 -5
      vertex 19.4173 -0.185785 -5
      vertex 19.4523 -0.146946 -5
    endloop
  endfacet
  facet normal 0 0 -1
    outer loop
      vertex 25.5827 -0.185785 -5
      vertex 19.4173 -0.185785 -5
      vertex 25.5477 -0.146946 -5
    endloop
  endfacet
  facet normal 0 0 -1
    outer loop
      vertex 28.2091 -3.98904 -5
      vertex 19.3273 -0.237763 -5
      vertex 19.375 -0.216506 -5
    endloop
  endfacet
  facet normal 0 0 -1
    outer loop
      vertex 28.2091 -3.98904 -5
      vertex 19.2761 -0.24863 -5
      vertex 19.3273 -0.237763 -5
    endloop
  endfacet
  facet normal 0 0 -1
    outer loop
      vertex 28.2091 -3.98904 -5
      vertex 19.2239 -0.24863 -5
      vertex 19.2761 -0.24863 -5
    endloop
  endfacet
  facet normal 0 0 -1
    outer loop
      vertex 12.7761 -0.24863 -5
      vertex 19.2239 -0.24863 -5
      vertex 28.2091 -3.98904 -5
    endloop
  endfacet
  facet normal 0 0 -1
    outer loop
      vertex 19.0055 -0.0519772 -5
      vertex 13 0 -5
      vertex 19 0 -5
    endloop
  endfacet
  facet normal 0 0 -1
    outer loop
      vertex 12.9945 -0.0519772 -5
      vertex 19.0055 -0.0519772 -5
      vertex 19.0216 -0.101684 -5
    endloop
  endfacet
  facet normal 0 0 -1
    outer loop
      vertex 12.9784 -0.101684 -5
      vertex 19.0216 -0.101684 -5
      vertex 19.0477 -0.146946 -5
    endloop
  endfacet
  facet normal 0 0 -1
    outer loop
      vertex 12.9523 -0.146946 -5
      vertex 19.0477 -0.146946 -5
      vertex 19.0827 -0.185785 -5
    endloop
  endfacet
  facet normal 0 0 -1
    outer loop
      vertex 12.9173 -0.185785 -5
      vertex 19.0827 -0.185785 -5
      vertex 19.125 -0.216506 -5
    endloop
  endfacet
  facet normal 0 0 -1
    outer loop
      vertex 12.875 -0.216506 -5
      vertex 19.125 -0.216506 -5
      vertex 19.1727 -0.237763 -5
    endloop
  endfacet
  facet normal 0 0 -1
    outer loop
      vertex 19.2239 -0.24863 -5
      vertex 12.7761 -0.24863 -5
      vertex 19.1727 -0.237763 -5
    endloop
  endfacet
  facet normal 0 0 -1
    outer loop
      vertex 19.0055 -0.0519772 -5
      vertex 12.9945 -0.0519772 -5
      vertex 13 0 -5
    endloop
  endfacet
  facet normal 0 0 -1
    outer loop
      vertex 19.0216 -0.101684 -5
      vertex 12.9784 -0.101684 -5
      vertex 12.9945 -0.0519772 -5
    endloop
  endfacet
  facet normal 0 0 -1
    outer loop
      vertex 19.0477 -0.146946 -5
      vertex 12.9523 -0.146946 -5
      vertex 12.9784 -0.101684 -5
    endloop
  endfacet
  facet normal 0 0 -1
    outer loop
      vertex 19.0827 -0.185785 -5
      vertex 12.9173 -0.185785 -5
      vertex 12.9523 -0.146946 -5
    endloop
  endfacet
  facet normal 0 0 -1
    outer loop
      vertex 19.125 -0.216506 -5
      vertex 12.875 -0.216506 -5
      vertex 12.9173 -0.185785 -5
    endloop
  endfacet
  facet normal 0 0 -1
    outer loop
      vertex 19.1727 -0.237763 -5
      vertex 12.8273 -0.237763 -5
      vertex 12.875 -0.216506 -5
    endloop
  endfacet
  facet normal -0 0 -1
    outer loop
      vertex 19.1727 -0.237763 -5
      vertex 12.7761 -0.24863 -5
      vertex 12.8273 -0.237763 -5
    endloop
  endfacet
  facet normal 0 0 -1
    outer loop
      vertex -0.209057 -3.98904 -5
      vertex 12.7761 -0.24863 -5
      vertex 28.2091 -3.98904 -5
    endloop
  endfacet
  facet normal -0 0 -1
    outer loop
      vertex 12.7761 -0.24863 -5
      vertex -0.209057 -3.98904 -5
      vertex 12.7239 -0.24863 -5
    endloop
  endfacet
  facet normal 0 0 -1
    outer loop
      vertex 12.5055 -0.0519772 -5
      vertex 6.5 0 -5
      vertex 12.5 0 -5
    endloop
  endfacet
  facet normal 0 0 -1
    outer loop
      vertex 6.49454 -0.0519772 -5
      vertex 12.5055 -0.0519772 -5
      vertex 12.5216 -0.101684 -5
    endloop
  endfacet
  facet normal 0 0 -1
    outer loop
      vertex 6.47839 -0.101684 -5
      vertex 12.5216 -0.101684 -5
      vertex 12.5477 -0.146946 -5
    endloop
  endfacet
  facet normal 0 0 -1
    outer loop
      vertex 6.45225 -0.146946 -5
      vertex 12.5477 -0.146946 -5
      vertex 12.5827 -0.185785 -5
    endloop
  endfacet
  facet normal 0 0 -1
    outer loop
      vertex 6.41728 -0.185785 -5
      vertex 12.5827 -0.185785 -5
      vertex 12.625 -0.216506 -5
    endloop
  endfacet
  facet normal 0 0 -1
    outer loop
      vertex 6.375 -0.216506 -5
      vertex 12.625 -0.216506 -5
      vertex 12.6727 -0.237763 -5
    endloop
  endfacet
  facet normal -0 0 -1
    outer loop
      vertex 12.7239 -0.24863 -5
      vertex -0.209057 -3.98904 -5
      vertex 12.6727 -0.237763 -5
    endloop
  endfacet
  facet normal 0 0 -1
    outer loop
      vertex 12.5055 -0.0519772 -5
      vertex 6.49454 -0.0519772 -5
      vertex 6.5 0 -5
    endloop
  endfacet
  facet normal 0 0 -1
    outer loop
      vertex 12.5216 -0.101684 -5
      vertex 6.47839 -0.101684 -5
      vertex 6.49454 -0.0519772 -5
    endloop
  endfacet
  facet normal 0 0 -1
    outer loop
      vertex 12.5477 -0.146946 -5
      vertex 6.45225 -0.146946 -5
      vertex 6.47839 -0.101684 -5
    endloop
  endfacet
  facet normal 0 0 -1
    outer loop
      vertex 12.5827 -0.185785 -5
      vertex 6.41728 -0.185785 -5
      vertex 6.45225 -0.146946 -5
    endloop
  endfacet
  facet normal 0 0 -1
    outer loop
      vertex 12.625 -0.216506 -5
      vertex 6.375 -0.216506 -5
      vertex 6.41728 -0.185785 -5
    endloop
  endfacet
  facet normal 0 0 -1
    outer loop
      vertex 12.6727 -0.237763 -5
      vertex 6.32725 -0.237763 -5
      vertex 6.375 -0.216506 -5
    endloop
  endfacet
  facet normal -0 0 -1
    outer loop
      vertex 12.6727 -0.237763 -5
      vertex -0.209057 -3.98904 -5
      vertex 6.32725 -0.237763 -5
    endloop
  endfacet
  facet normal 0 0 -1
    outer loop
      vertex 6.32725 -0.237763 -5
      vertex -0.209057 -3.98904 -5
      vertex 6.27613 -0.24863 -5
    endloop
  endfacet
  facet normal -0 0 -1
    outer loop
      vertex 6.00546 -0.0519772 -5
      vertex -0.209057 -3.98904 -5
      vertex 6 0 -5
    endloop
  endfacet
  facet normal -0 0 -1
    outer loop
      vertex 6.02161 -0.101684 -5
      vertex -0.209057 -3.98904 -5
      vertex 6.00546 -0.0519772 -5
    endloop
  endfacet
  facet normal -0 0 -1
    outer loop
      vertex 6.04775 -0.146946 -5
      vertex -0.209057 -3.98904 -5
      vertex 6.02161 -0.101684 -5
    endloop
  endfacet
  facet normal -0 0 -1
    outer loop
      vertex 6.08272 -0.185785 -5
      vertex -0.209057 -3.98904 -5
      vertex 6.04775 -0.146946 -5
    endloop
  endfacet
  facet normal -0 0 -1
    outer loop
      vertex 6.125 -0.216506 -5
      vertex -0.209057 -3.98904 -5
      vertex 6.08272 -0.185785 -5
    endloop
  endfacet
  facet normal -0 0 -1
    outer loop
      vertex 6.17275 -0.237763 -5
      vertex -0.209057 -3.98904 -5
      vertex 6.125 -0.216506 -5
    endloop
  endfacet
  facet normal -0 0 -1
    outer loop
      vertex 6.22387 -0.24863 -5
      vertex -0.209057 -3.98904 -5
      vertex 6.17275 -0.237763 -5
    endloop
  endfacet
  facet normal -0 0 -1
    outer loop
      vertex 6.27613 -0.24863 -5
      vertex -0.209057 -3.98904 -5
      vertex 6.22387 -0.24863 -5
    endloop
  endfacet
  facet normal 0 0 -1
    outer loop
      vertex 29.618 3.17557 -5
      vertex 28.2091 3.98904 -5
      vertex 29.3383 3.48629 -5
    endloop
  endfacet
  facet normal 0 0 -1
    outer loop
      vertex 29.3383 3.48629 -5
      vertex 28.2091 3.98904 -5
      vertex 29 3.73205 -5
    endloop
  endfacet
  facet normal 0 0 -1
    outer loop
      vertex 29 3.73205 -5
      vertex 28.2091 3.98904 -5
      vertex 28.618 3.90211 -5
    endloop
  endfacet
  facet normal 0 0 -1
    outer loop
      vertex 25.9173 0.185785 -5
      vertex 28.2091 3.98904 -5
      vertex 25.9523 0.146946 -5
    endloop
  endfacet
  facet normal 0 0 -1
    outer loop
      vertex 25.875 0.216506 -5
      vertex 28.2091 3.98904 -5
      vertex 25.9173 0.185785 -5
    endloop
  endfacet
  facet normal 0 0 -1
    outer loop
      vertex 25.8273 0.237763 -5
      vertex 28.2091 3.98904 -5
      vertex 25.875 0.216506 -5
    endloop
  endfacet
  facet normal 0 0 -1
    outer loop
      vertex 25.7761 0.24863 -5
      vertex 28.2091 3.98904 -5
      vertex 25.8273 0.237763 -5
    endloop
  endfacet
  facet normal 0 0 -1
    outer loop
      vertex 25.7239 0.24863 -5
      vertex 28.2091 3.98904 -5
      vertex 25.7761 0.24863 -5
    endloop
  endfacet
  facet normal 0 0 -1
    outer loop
      vertex 25.6727 0.237763 -5
      vertex 28.2091 3.98904 -5
      vertex 25.7239 0.24863 -5
    endloop
  endfacet
  facet normal 0 0 -1
    outer loop
      vertex 25.625 0.216506 -5
      vertex 28.2091 3.98904 -5
      vertex 25.6727 0.237763 -5
    endloop
  endfacet
  facet normal 0 0 -1
    outer loop
      vertex 19.375 0.216506 -5
      vertex 25.625 0.216506 -5
      vertex 25.5827 0.185785 -5
    endloop
  endfacet
  facet normal 0 0 -1
    outer loop
      vertex 19.4173 0.185785 -5
      vertex 25.5827 0.185785 -5
      vertex 25.5477 0.146946 -5
    endloop
  endfacet
  facet normal 0 0 -1
    outer loop
      vertex 19.5 0 -5
      vertex 25.5055 0.0519772 -5
      vertex 25.5 0 -5
    endloop
  endfacet
  facet normal 0 0 -1
    outer loop
      vertex 19.4945 0.0519772 -5
      vertex 25.5055 0.0519772 -5
      vertex 19.5 0 -5
    endloop
  endfacet
  facet normal 0 0 -1
    outer loop
      vertex 25.5055 0.0519772 -5
      vertex 19.4945 0.0519772 -5
      vertex 25.5216 0.101684 -5
    endloop
  endfacet
  facet normal 0 0 -1
    outer loop
      vertex 19.4784 0.101684 -5
      vertex 25.5216 0.101684 -5
      vertex 19.4945 0.0519772 -5
    endloop
  endfacet
  facet normal 0 0 -1
    outer loop
      vertex 25.5216 0.101684 -5
      vertex 19.4784 0.101684 -5
      vertex 25.5477 0.146946 -5
    endloop
  endfacet
  facet normal 0 0 -1
    outer loop
      vertex 19.4523 0.146946 -5
      vertex 25.5477 0.146946 -5
      vertex 19.4784 0.101684 -5
    endloop
  endfacet
  facet normal 0 0 -1
    outer loop
      vertex 19.4173 0.185785 -5
      vertex 25.5477 0.146946 -5
      vertex 19.4523 0.146946 -5
    endloop
  endfacet
  facet normal 0 0 -1
    outer loop
      vertex 25.5827 0.185785 -5
      vertex 19.4173 0.185785 -5
      vertex 19.375 0.216506 -5
    endloop
  endfacet
  facet normal 0 0 -1
    outer loop
      vertex 25.625 0.216506 -5
      vertex 19.375 0.216506 -5
      vertex 28.2091 3.98904 -5
    endloop
  endfacet
  facet normal 0 0 -1
    outer loop
      vertex 19.3273 0.237763 -5
      vertex 28.2091 3.98904 -5
      vertex 19.375 0.216506 -5
    endloop
  endfacet
  facet normal 0 0 -1
    outer loop
      vertex 19.2761 0.24863 -5
      vertex 28.2091 3.98904 -5
      vertex 19.3273 0.237763 -5
    endloop
  endfacet
  facet normal 0 0 -1
    outer loop
      vertex 19.2239 0.24863 -5
      vertex 28.2091 3.98904 -5
      vertex 19.2761 0.24863 -5
    endloop
  endfacet
  facet normal 0 0 -1
    outer loop
      vertex 12.7761 0.24863 -5
      vertex 19.2239 0.24863 -5
      vertex 19.1727 0.237763 -5
    endloop
  endfacet
  facet normal 0 0 -1
    outer loop
      vertex 13 0 -5
      vertex 19.0055 0.0519772 -5
      vertex 19 0 -5
    endloop
  endfacet
  facet normal 0 0 -1
    outer loop
      vertex 12.9945 0.0519772 -5
      vertex 19.0055 0.0519772 -5
      vertex 13 0 -5
    endloop
  endfacet
  facet normal 0 0 -1
    outer loop
      vertex 19.0055 0.0519772 -5
      vertex 12.9945 0.0519772 -5
      vertex 19.0216 0.101684 -5
    endloop
  endfacet
  facet normal 0 0 -1
    outer loop
      vertex 12.9784 0.101684 -5
      vertex 19.0216 0.101684 -5
      vertex 12.9945 0.0519772 -5
    endloop
  endfacet
  facet normal 0 0 -1
    outer loop
      vertex 19.0216 0.101684 -5
      vertex 12.9784 0.101684 -5
      vertex 19.0477 0.146946 -5
    endloop
  endfacet
  facet normal 0 0 -1
    outer loop
      vertex 12.9523 0.146946 -5
      vertex 19.0477 0.146946 -5
      vertex 12.9784 0.101684 -5
    endloop
  endfacet
  facet normal 0 0 -1
    outer loop
      vertex 19.0477 0.146946 -5
      vertex 12.9523 0.146946 -5
      vertex 19.0827 0.185785 -5
    endloop
  endfacet
  facet normal 0 0 -1
    outer loop
      vertex 12.9173 0.185785 -5
      vertex 19.0827 0.185785 -5
      vertex 12.9523 0.146946 -5
    endloop
  endfacet
  facet normal 0 0 -1
    outer loop
      vertex 19.0827 0.185785 -5
      vertex 12.9173 0.185785 -5
      vertex 19.125 0.216506 -5
    endloop
  endfacet
  facet normal 0 0 -1
    outer loop
      vertex 12.875 0.216506 -5
      vertex 19.125 0.216506 -5
      vertex 12.9173 0.185785 -5
    endloop
  endfacet
  facet normal 0 0 -1
    outer loop
      vertex 19.125 0.216506 -5
      vertex 12.875 0.216506 -5
      vertex 19.1727 0.237763 -5
    endloop
  endfacet
  facet normal 0 0 -1
    outer loop
      vertex 12.8273 0.237763 -5
      vertex 19.1727 0.237763 -5
      vertex 12.875 0.216506 -5
    endloop
  endfacet
  facet normal 0 0 -1
    outer loop
      vertex 12.7761 0.24863 -5
      vertex 19.1727 0.237763 -5
      vertex 12.8273 0.237763 -5
    endloop
  endfacet
  facet normal 0 0 -1
    outer loop
      vertex 19.2239 0.24863 -5
      vertex 12.7761 0.24863 -5
      vertex 28.2091 3.98904 -5
    endloop
  endfacet
  facet normal 0 0 -1
    outer loop
      vertex -0.209057 3.98904 -5
      vertex 12.7761 0.24863 -5
      vertex 12.7239 0.24863 -5
    endloop
  endfacet
  facet normal 0 0 -1
    outer loop
      vertex -0.209057 3.98904 -5
      vertex 12.7239 0.24863 -5
      vertex 12.6727 0.237763 -5
    endloop
  endfacet
  facet normal 0 0 -1
    outer loop
      vertex 6.5 0 -5
      vertex 12.5055 0.0519772 -5
      vertex 12.5 0 -5
    endloop
  endfacet
  facet normal 0 0 -1
    outer loop
      vertex 6.49454 0.0519772 -5
      vertex 12.5055 0.0519772 -5
      vertex 6.5 0 -5
    endloop
  endfacet
  facet normal 0 0 -1
    outer loop
      vertex 12.5055 0.0519772 -5
      vertex 6.49454 0.0519772 -5
      vertex 12.5216 0.101684 -5
    endloop
  endfacet
  facet normal 0 0 -1
    outer loop
      vertex 6.47839 0.101684 -5
      vertex 12.5216 0.101684 -5
      vertex 6.49454 0.0519772 -5
    endloop
  endfacet
  facet normal 0 0 -1
    outer loop
      vertex 12.5216 0.101684 -5
      vertex 6.47839 0.101684 -5
      vertex 12.5477 0.146946 -5
    endloop
  endfacet
  facet normal 0 0 -1
    outer loop
      vertex 6.45225 0.146946 -5
      vertex 12.5477 0.146946 -5
      vertex 6.47839 0.101684 -5
    endloop
  endfacet
  facet normal 0 0 -1
    outer loop
      vertex 12.5477 0.146946 -5
      vertex 6.45225 0.146946 -5
      vertex 12.5827 0.185785 -5
    endloop
  endfacet
  facet normal 0 0 -1
    outer loop
      vertex 6.41728 0.185785 -5
      vertex 12.5827 0.185785 -5
      vertex 6.45225 0.146946 -5
    endloop
  endfacet
  facet normal 0 0 -1
    outer loop
      vertex 12.5827 0.185785 -5
      vertex 6.41728 0.185785 -5
      vertex 12.625 0.216506 -5
    endloop
  endfacet
  facet normal 0 0 -1
    outer loop
      vertex 6.375 0.216506 -5
      vertex 12.625 0.216506 -5
      vertex 6.41728 0.185785 -5
    endloop
  endfacet
  facet normal 0 0 -1
    outer loop
      vertex 12.625 0.216506 -5
      vertex 6.375 0.216506 -5
      vertex 12.6727 0.237763 -5
    endloop
  endfacet
  facet normal 0 0 -1
    outer loop
      vertex 6.32725 0.237763 -5
      vertex 12.6727 0.237763 -5
      vertex 6.375 0.216506 -5
    endloop
  endfacet
  facet normal 0 0 -1
    outer loop
      vertex -0.209057 3.98904 -5
      vertex 12.6727 0.237763 -5
      vertex 6.32725 0.237763 -5
    endloop
  endfacet
  facet normal 0 0 -1
    outer loop
      vertex -0.209057 3.98904 -5
      vertex 6.32725 0.237763 -5
      vertex 6.27613 0.24863 -5
    endloop
  endfacet
  facet normal 0 0 -1
    outer loop
      vertex -0.209057 3.98904 -5
      vertex 6.27613 0.24863 -5
      vertex 6.22387 0.24863 -5
    endloop
  endfacet
  facet normal 0 0 -1
    outer loop
      vertex -2 -2 -5
      vertex 6 0 -5
      vertex -0.209057 -3.98904 -5
    endloop
  endfacet
  facet normal 0 0 -1
    outer loop
      vertex -2 2 -5
      vertex 6 0 -5
      vertex -2 -2 -5
    endloop
  endfacet
  facet normal 0 -0 -1
    outer loop
      vertex -0.209057 3.98904 -5
      vertex 6 0 -5
      vertex -2 2 -5
    endloop
  endfacet
  facet normal 0 0 -1
    outer loop
      vertex 6 0 -5
      vertex -0.209057 3.98904 -5
      vertex 6.00546 0.0519772 -5
    endloop
  endfacet
  facet normal 0 0 -1
    outer loop
      vertex 6.00546 0.0519772 -5
      vertex -0.209057 3.98904 -5
      vertex 6.02161 0.101684 -5
    endloop
  endfacet
  facet normal 0 0 -1
    outer loop
      vertex 12.7761 0.24863 -5
      vertex -0.209057 3.98904 -5
      vertex 28.2091 3.98904 -5
    endloop
  endfacet
  facet normal 0 0 -1
    outer loop
      vertex 6.17275 0.237763 -5
      vertex -0.209057 3.98904 -5
      vertex 6.22387 0.24863 -5
    endloop
  endfacet
  facet normal 0 0 -1
    outer loop
      vertex 6.125 0.216506 -5
      vertex -0.209057 3.98904 -5
      vertex 6.17275 0.237763 -5
    endloop
  endfacet
  facet normal 0 0 -1
    outer loop
      vertex 6.02161 0.101684 -5
      vertex -0.209057 3.98904 -5
      vertex 6.04775 0.146946 -5
    endloop
  endfacet
  facet normal 0 0 -1
    outer loop
      vertex -2 -2 -5
      vertex -0.209057 -3.98904 -5
      vertex -0.618033 -3.90211 -5
    endloop
  endfacet
  facet normal 0 0 -1
    outer loop
      vertex 6.04775 0.146946 -5
      vertex -0.209057 3.98904 -5
      vertex 6.08272 0.185785 -5
    endloop
  endfacet
  facet normal 0 0 -1
    outer loop
      vertex -0.209057 3.98904 -5
      vertex -2 2 -5
      vertex -0.618033 3.90211 -5
    endloop
  endfacet
  facet normal 0 0 -1
    outer loop
      vertex -2 -2 -5
      vertex -0.618033 -3.90211 -5
      vertex -1 -3.73205 -5
    endloop
  endfacet
  facet normal 0 0 -1
    outer loop
      vertex -2 -2 -5
      vertex -1 -3.73205 -5
      vertex -1.33826 -3.48629 -5
    endloop
  endfacet
  facet normal 0 0 -1
    outer loop
      vertex 6.08272 0.185785 -5
      vertex -0.209057 3.98904 -5
      vertex 6.125 0.216506 -5
    endloop
  endfacet
  facet normal 0 0 -1
    outer loop
      vertex -2 -2 -5
      vertex -1.33826 -3.48629 -5
      vertex -1.61803 -3.17557 -5
    endloop
  endfacet
  facet normal 0 0 -1
    outer loop
      vertex -0.618033 3.90211 -5
      vertex -2 2 -5
      vertex -0.999999 3.73205 -5
    endloop
  endfacet
  facet normal 0 0 -1
    outer loop
      vertex -2 -2 -5
      vertex -1.61803 -3.17557 -5
      vertex -1.82709 -2.81347 -5
    endloop
  endfacet
  facet normal 0 0 -1
    outer loop
      vertex -0.999999 3.73205 -5
      vertex -2 2 -5
      vertex -1.33826 3.48629 -5
    endloop
  endfacet
  facet normal 0 0 -1
    outer loop
      vertex -2 -2 -5
      vertex -1.82709 -2.81347 -5
      vertex -1.9563 -2.41582 -5
    endloop
  endfacet
  facet normal 0 0 -1
    outer loop
      vertex -1.33826 3.48629 -5
      vertex -2 2 -5
      vertex -1.61803 3.17557 -5
    endloop
  endfacet
  facet normal 0 0 -1
    outer loop
      vertex -1.61803 3.17557 -5
      vertex -2 2 -5
      vertex -1.82709 2.81347 -5
    endloop
  endfacet
  facet normal 0 0 -1
    outer loop
      vertex -1.82709 2.81347 -5
      vertex -2 2 -5
      vertex -1.9563 2.41582 -5
    endloop
  endfacet
  facet normal 0 1 -0
    outer loop
      vertex 28.2091 3.98904 -5
      vertex -0.209057 3.98904 5
      vertex 28.2091 3.98904 5
    endloop
  endfacet
  facet normal 0 1 0
    outer loop
      vertex -0.209057 3.98904 5
      vertex 28.2091 3.98904 -5
      vertex -0.209057 3.98904 -5
    endloop
  endfacet
  facet normal -1 0 0
    outer loop
      vertex -2 -2 -5
      vertex -2 2 5
      vertex -2 2 -5
    endloop
  endfacet
  facet normal -1 -0 0
    outer loop
      vertex -2 2 5
      vertex -2 -2 -5
      vertex -2 -2 5
    endloop
  endfacet
  facet normal 0.20791 -0.978148 0
    outer loop
      vertex 28.2091 -3.98904 -5
      vertex 28.618 -3.90211 5
      vertex 28.2091 -3.98904 5
    endloop
  endfacet
  facet normal 0.20791 -0.978148 0
    outer loop
      vertex 28.618 -3.90211 5
      vertex 28.2091 -3.98904 -5
      vertex 28.618 -3.90211 -5
    endloop
  endfacet
  facet normal 0 -1 0
    outer loop
      vertex -0.209057 -3.98904 -5
      vertex 28.2091 -3.98904 5
      vertex -0.209057 -3.98904 5
    endloop
  endfacet
  facet normal 0 -1 -0
    outer loop
      vertex 28.2091 -3.98904 5
      vertex -0.209057 -3.98904 -5
      vertex 28.2091 -3.98904 -5
    endloop
  endfacet
  facet normal -0.994522 -0.104529 0
    outer loop
      vertex -1.9563 -2.41582 -5
      vertex -2 -2 5
      vertex -2 -2 -5
    endloop
  endfacet
  facet normal -0.994522 -0.104529 0
    outer loop
      vertex -2 -2 5
      vertex -1.9563 -2.41582 -5
      vertex -1.9563 -2.41582 5
    endloop
  endfacet
  facet normal 1 -0 0
    outer loop
      vertex 30 -2 5
      vertex 30 2 -5
      vertex 30 2 5
    endloop
  endfacet
  facet normal 1 0 0
    outer loop
      vertex 30 2 -5
      vertex 30 -2 5
      vertex 30 -2 -5
    endloop
  endfacet
  facet normal 0.587786 -0.809017 0
    outer loop
      vertex 29 -3.73205 -5
      vertex 29.3383 -3.48629 5
      vertex 29 -3.73205 5
    endloop
  endfacet
  facet normal 0.587786 -0.809017 0
    outer loop
      vertex 29.3383 -3.48629 5
      vertex 29 -3.73205 -5
      vertex 29.3383 -3.48629 -5
    endloop
  endfacet
  facet normal -0.587786 -0.809017 0
    outer loop
      vertex -1.33826 -3.48629 -5
      vertex -1 -3.73205 5
      vertex -1.33826 -3.48629 5
    endloop
  endfacet
  facet normal -0.587786 -0.809017 -0
    outer loop
      vertex -1 -3.73205 5
      vertex -1.33826 -3.48629 -5
      vertex -1 -3.73205 -5
    endloop
  endfacet
  facet normal -0.207911 -0.978148 0
    outer loop
      vertex -0.618033 -3.90211 -5
      vertex -0.209057 -3.98904 5
      vertex -0.618033 -3.90211 5
    endloop
  endfacet
  facet normal -0.207911 -0.978148 -0
    outer loop
      vertex -0.209057 -3.98904 5
      vertex -0.618033 -3.90211 -5
      vertex -0.209057 -3.98904 -5
    endloop
  endfacet
  facet normal -0.994522 0.104529 0
    outer loop
      vertex -2 2 -5
      vertex -1.9563 2.41582 5
      vertex -1.9563 2.41582 -5
    endloop
  endfacet
  facet normal -0.994522 0.104529 0
    outer loop
      vertex -1.9563 2.41582 5
      vertex -2 2 -5
      vertex -2 2 5
    endloop
  endfacet
  facet normal -0.951056 0.309018 0
    outer loop
      vertex -1.9563 2.41582 -5
      vertex -1.82709 2.81347 5
      vertex -1.82709 2.81347 -5
    endloop
  endfacet
  facet normal -0.951056 0.309018 0
    outer loop
      vertex -1.82709 2.81347 5
      vertex -1.9563 2.41582 -5
      vertex -1.9563 2.41582 5
    endloop
  endfacet
  facet normal 0.994522 -0.104529 0
    outer loop
      vertex 29.9563 -2.41582 5
      vertex 30 -2 -5
      vertex 30 -2 5
    endloop
  endfacet
  facet normal 0.994522 -0.104529 0
    outer loop
      vertex 30 -2 -5
      vertex 29.9563 -2.41582 5
      vertex 29.9563 -2.41582 -5
    endloop
  endfacet
  facet normal -0.743144 -0.669131 0
    outer loop
      vertex -1.33826 -3.48629 -5
      vertex -1.61803 -3.17557 5
      vertex -1.61803 -3.17557 -5
    endloop
  endfacet
  facet normal -0.743144 -0.669131 0
    outer loop
      vertex -1.61803 -3.17557 5
      vertex -1.33826 -3.48629 -5
      vertex -1.33826 -3.48629 5
    endloop
  endfacet
  facet normal -0.951056 -0.309018 0
    outer loop
      vertex -1.82709 -2.81347 -5
      vertex -1.9563 -2.41582 5
      vertex -1.9563 -2.41582 -5
    endloop
  endfacet
  facet normal -0.951056 -0.309018 0
    outer loop
      vertex -1.9563 -2.41582 5
      vertex -1.82709 -2.81347 -5
      vertex -1.82709 -2.81347 5
    endloop
  endfacet
  facet normal 0.406739 0.913545 -0
    outer loop
      vertex 29 3.73205 -5
      vertex 28.618 3.90211 5
      vertex 29 3.73205 5
    endloop
  endfacet
  facet normal 0.406739 0.913545 0
    outer loop
      vertex 28.618 3.90211 5
      vertex 29 3.73205 -5
      vertex 28.618 3.90211 -5
    endloop
  endfacet
  facet normal 0 0 1
    outer loop
      vertex 28.2091 3.98904 5
      vertex 30 2 5
      vertex 29.9563 2.41582 5
    endloop
  endfacet
  facet normal 0 0 1
    outer loop
      vertex 30 2 5
      vertex 26 0 5
      vertex 30 -2 5
    endloop
  endfacet
  facet normal 0 0 1
    outer loop
      vertex 28.2091 3.98904 5
      vertex 29.9563 2.41582 5
      vertex 29.8271 2.81347 5
    endloop
  endfacet
  facet normal -0 0 1
    outer loop
      vertex 25.9945 -0.0519772 5
      vertex 30 -2 5
      vertex 26 0 5
    endloop
  endfacet
  facet normal 0 0 1
    outer loop
      vertex 28.2091 3.98904 5
      vertex 29.8271 2.81347 5
      vertex 29.618 3.17557 5
    endloop
  endfacet
  facet normal -0 0 1
    outer loop
      vertex 25.9784 -0.101684 5
      vertex 30 -2 5
      vertex 25.9945 -0.0519772 5
    endloop
  endfacet
  facet normal 0 0 1
    outer loop
      vertex 28.2091 3.98904 5
      vertex 29.618 3.17557 5
      vertex 29.3383 3.48629 5
    endloop
  endfacet
  facet normal -0 0 1
    outer loop
      vertex 25.9523 -0.146946 5
      vertex 30 -2 5
      vertex 25.9784 -0.101684 5
    endloop
  endfacet
  facet normal 0 0 1
    outer loop
      vertex 28.2091 3.98904 5
      vertex 29.3383 3.48629 5
      vertex 29 3.73205 5
    endloop
  endfacet
  facet normal 0 -0 1
    outer loop
      vertex 28.2091 -3.98904 5
      vertex 30 -2 5
      vertex 25.9523 -0.146946 5
    endloop
  endfacet
  facet normal 0 0 1
    outer loop
      vertex 28.2091 3.98904 5
      vertex 29 3.73205 5
      vertex 28.618 3.90211 5
    endloop
  endfacet
  facet normal 0 0 1
    outer loop
      vertex 30 -2 5
      vertex 28.2091 -3.98904 5
      vertex 29.9563 -2.41582 5
    endloop
  endfacet
  facet normal 0 0 1
    outer loop
      vertex 30 2 5
      vertex 28.2091 3.98904 5
      vertex 25.9523 0.146946 5
    endloop
  endfacet
  facet normal 0 0 1
    outer loop
      vertex 29.9563 -2.41582 5
      vertex 28.2091 -3.98904 5
      vertex 29.8271 -2.81347 5
    endloop
  endfacet
  facet normal 0 0 1
    outer loop
      vertex 29.8271 -2.81347 5
      vertex 28.2091 -3.98904 5
      vertex 29.618 -3.17557 5
    endloop
  endfacet
  facet normal 0 0 1
    outer loop
      vertex 30 2 5
      vertex 25.9945 0.0519772 5
      vertex 26 0 5
    endloop
  endfacet
  facet normal 0 0 1
    outer loop
      vertex 30 2 5
      vertex 25.9784 0.101684 5
      vertex 25.9945 0.0519772 5
    endloop
  endfacet
  facet normal 0 0 1
    outer loop
      vertex 30 2 5
      vertex 25.9523 0.146946 5
      vertex 25.9784 0.101684 5
    endloop
  endfacet
  facet normal 0 0 1
    outer loop
      vertex 28.2091 3.98904 5
      vertex 25.9173 0.185785 5
      vertex 25.9523 0.146946 5
    endloop
  endfacet
  facet normal 0 0 1
    outer loop
      vertex 28.2091 3.98904 5
      vertex 25.875 0.216506 5
      vertex 25.9173 0.185785 5
    endloop
  endfacet
  facet normal 0 0 1
    outer loop
      vertex 28.2091 3.98904 5
      vertex 25.8273 0.237763 5
      vertex 25.875 0.216506 5
    endloop
  endfacet
  facet normal 0 0 1
    outer loop
      vertex 28.2091 3.98904 5
      vertex 25.7761 0.24863 5
      vertex 25.8273 0.237763 5
    endloop
  endfacet
  facet normal 0 0 1
    outer loop
      vertex 28.2091 3.98904 5
      vertex 25.7239 0.24863 5
      vertex 25.7761 0.24863 5
    endloop
  endfacet
  facet normal 0 0 1
    outer loop
      vertex 28.2091 3.98904 5
      vertex 25.6727 0.237763 5
      vertex 25.7239 0.24863 5
    endloop
  endfacet
  facet normal 0 0 1
    outer loop
      vertex 28.2091 3.98904 5
      vertex 25.625 0.216506 5
      vertex 25.6727 0.237763 5
    endloop
  endfacet
  facet normal 0 0 1
    outer loop
      vertex 19.375 0.216506 5
      vertex 25.625 0.216506 5
      vertex 28.2091 3.98904 5
    endloop
  endfacet
  facet normal 0 0 1
    outer loop
      vertex 25.625 0.216506 5
      vertex 19.375 0.216506 5
      vertex 25.5827 0.185785 5
    endloop
  endfacet
  facet normal 0 0 1
    outer loop
      vertex 25.5055 0.0519772 5
      vertex 19.5 0 5
      vertex 25.5 0 5
    endloop
  endfacet
  facet normal 0 0 1
    outer loop
      vertex 19.4945 0.0519772 5
      vertex 25.5055 0.0519772 5
      vertex 25.5216 0.101684 5
    endloop
  endfacet
  facet normal 0 0 1
    outer loop
      vertex 19.4784 0.101684 5
      vertex 25.5216 0.101684 5
      vertex 25.5477 0.146946 5
    endloop
  endfacet
  facet normal 0 -0 1
    outer loop
      vertex 19.4173 0.185785 5
      vertex 25.5827 0.185785 5
      vertex 19.375 0.216506 5
    endloop
  endfacet
  facet normal 0 0 1
    outer loop
      vertex 25.5055 0.0519772 5
      vertex 19.4945 0.0519772 5
      vertex 19.5 0 5
    endloop
  endfacet
  facet normal 0 0 1
    outer loop
      vertex 25.5216 0.101684 5
      vertex 19.4784 0.101684 5
      vertex 19.4945 0.0519772 5
    endloop
  endfacet
  facet normal 0 0 1
    outer loop
      vertex 25.5477 0.146946 5
      vertex 19.4523 0.146946 5
      vertex 19.4784 0.101684 5
    endloop
  endfacet
  facet normal 0 0 1
    outer loop
      vertex 25.5477 0.146946 5
      vertex 19.4173 0.185785 5
      vertex 19.4523 0.146946 5
    endloop
  endfacet
  facet normal 0 0 1
    outer loop
      vertex 25.5827 0.185785 5
      vertex 19.4173 0.185785 5
      vertex 25.5477 0.146946 5
    endloop
  endfacet
  facet normal 0 0 1
    outer loop
      vertex 28.2091 3.98904 5
      vertex 19.3273 0.237763 5
      vertex 19.375 0.216506 5
    endloop
  endfacet
  facet normal 0 0 1
    outer loop
      vertex 28.2091 3.98904 5
      vertex 19.2761 0.24863 5
      vertex 19.3273 0.237763 5
    endloop
  endfacet
  facet normal 0 0 1
    outer loop
      vertex 28.2091 3.98904 5
      vertex 19.2239 0.24863 5
      vertex 19.2761 0.24863 5
    endloop
  endfacet
  facet normal 0 0 1
    outer loop
      vertex 12.7761 0.24863 5
      vertex 19.2239 0.24863 5
      vertex 28.2091 3.98904 5
    endloop
  endfacet
  facet normal 0 0 1
    outer loop
      vertex 19.0055 0.0519772 5
      vertex 13 0 5
      vertex 19 0 5
    endloop
  endfacet
  facet normal 0 0 1
    outer loop
      vertex 12.9945 0.0519772 5
      vertex 19.0055 0.0519772 5
      vertex 19.0216 0.101684 5
    endloop
  endfacet
  facet normal 0 0 1
    outer loop
      vertex 12.9784 0.101684 5
      vertex 19.0216 0.101684 5
      vertex 19.0477 0.146946 5
    endloop
  endfacet
  facet normal 0 0 1
    outer loop
      vertex 12.9523 0.146946 5
      vertex 19.0477 0.146946 5
      vertex 19.0827 0.185785 5
    endloop
  endfacet
  facet normal 0 0 1
    outer loop
      vertex 12.9173 0.185785 5
      vertex 19.0827 0.185785 5
      vertex 19.125 0.216506 5
    endloop
  endfacet
  facet normal 0 0 1
    outer loop
      vertex 12.875 0.216506 5
      vertex 19.125 0.216506 5
      vertex 19.1727 0.237763 5
    endloop
  endfacet
  facet normal 0 0 1
    outer loop
      vertex 19.2239 0.24863 5
      vertex 12.7761 0.24863 5
      vertex 19.1727 0.237763 5
    endloop
  endfacet
  facet normal 0 0 1
    outer loop
      vertex 19.0055 0.0519772 5
      vertex 12.9945 0.0519772 5
      vertex 13 0 5
    endloop
  endfacet
  facet normal 0 0 1
    outer loop
      vertex 19.0216 0.101684 5
      vertex 12.9784 0.101684 5
      vertex 12.9945 0.0519772 5
    endloop
  endfacet
  facet normal 0 0 1
    outer loop
      vertex 19.0477 0.146946 5
      vertex 12.9523 0.146946 5
      vertex 12.9784 0.101684 5
    endloop
  endfacet
  facet normal 0 0 1
    outer loop
      vertex 19.0827 0.185785 5
      vertex 12.9173 0.185785 5
      vertex 12.9523 0.146946 5
    endloop
  endfacet
  facet normal 0 0 1
    outer loop
      vertex 19.125 0.216506 5
      vertex 12.875 0.216506 5
      vertex 12.9173 0.185785 5
    endloop
  endfacet
  facet normal 0 0 1
    outer loop
      vertex 19.1727 0.237763 5
      vertex 12.8273 0.237763 5
      vertex 12.875 0.216506 5
    endloop
  endfacet
  facet normal 0 0 1
    outer loop
      vertex 19.1727 0.237763 5
      vertex 12.7761 0.24863 5
      vertex 12.8273 0.237763 5
    endloop
  endfacet
  facet normal -0 0 1
    outer loop
      vertex -0.209057 3.98904 5
      vertex 12.7761 0.24863 5
      vertex 28.2091 3.98904 5
    endloop
  endfacet
  facet normal 0 0 1
    outer loop
      vertex 12.7761 0.24863 5
      vertex -0.209057 3.98904 5
      vertex 12.7239 0.24863 5
    endloop
  endfacet
  facet normal 0 0 1
    outer loop
      vertex 12.5055 0.0519772 5
      vertex 6.5 0 5
      vertex 12.5 0 5
    endloop
  endfacet
  facet normal 0 0 1
    outer loop
      vertex 6.49454 0.0519772 5
      vertex 12.5055 0.0519772 5
      vertex 12.5216 0.101684 5
    endloop
  endfacet
  facet normal 0 0 1
    outer loop
      vertex 6.47839 0.101684 5
      vertex 12.5216 0.101684 5
      vertex 12.5477 0.146946 5
    endloop
  endfacet
  facet normal 0 0 1
    outer loop
      vertex 6.45225 0.146946 5
      vertex 12.5477 0.146946 5
      vertex 12.5827 0.185785 5
    endloop
  endfacet
  facet normal 0 0 1
    outer loop
      vertex 6.41728 0.185785 5
      vertex 12.5827 0.185785 5
      vertex 12.625 0.216506 5
    endloop
  endfacet
  facet normal 0 0 1
    outer loop
      vertex 6.375 0.216506 5
      vertex 12.625 0.216506 5
      vertex 12.6727 0.237763 5
    endloop
  endfacet
  facet normal 0 0 1
    outer loop
      vertex 12.7239 0.24863 5
      vertex -0.209057 3.98904 5
      vertex 12.6727 0.237763 5
    endloop
  endfacet
  facet normal 0 0 1
    outer loop
      vertex 12.5055 0.0519772 5
      vertex 6.49454 0.0519772 5
      vertex 6.5 0 5
    endloop
  endfacet
  facet normal 0 0 1
    outer loop
      vertex 12.5216 0.101684 5
      vertex 6.47839 0.101684 5
      vertex 6.49454 0.0519772 5
    endloop
  endfacet
  facet normal 0 0 1
    outer loop
      vertex 12.5477 0.146946 5
      vertex 6.45225 0.146946 5
      vertex 6.47839 0.101684 5
    endloop
  endfacet
  facet normal 0 0 1
    outer loop
      vertex 12.5827 0.185785 5
      vertex 6.41728 0.185785 5
      vertex 6.45225 0.146946 5
    endloop
  endfacet
  facet normal 0 0 1
    outer loop
      vertex 12.625 0.216506 5
      vertex 6.375 0.216506 5
      vertex 6.41728 0.185785 5
    endloop
  endfacet
  facet normal 0 0 1
    outer loop
      vertex 12.6727 0.237763 5
      vertex 6.32725 0.237763 5
      vertex 6.375 0.216506 5
    endloop
  endfacet
  facet normal 0 0 1
    outer loop
      vertex 12.6727 0.237763 5
      vertex -0.209057 3.98904 5
      vertex 6.32725 0.237763 5
    endloop
  endfacet
  facet normal 0 0 1
    outer loop
      vertex 6.32725 0.237763 5
      vertex -0.209057 3.98904 5
      vertex 6.27613 0.24863 5
    endloop
  endfacet
  facet normal 0 0 1
    outer loop
      vertex 6.00546 0.0519772 5
      vertex -0.209057 3.98904 5
      vertex 6 0 5
    endloop
  endfacet
  facet normal 0 0 1
    outer loop
      vertex 6.02161 0.101684 5
      vertex -0.209057 3.98904 5
      vertex 6.00546 0.0519772 5
    endloop
  endfacet
  facet normal 0 0 1
    outer loop
      vertex 6.04775 0.146946 5
      vertex -0.209057 3.98904 5
      vertex 6.02161 0.101684 5
    endloop
  endfacet
  facet normal 0 0 1
    outer loop
      vertex 6.08272 0.185785 5
      vertex -0.209057 3.98904 5
      vertex 6.04775 0.146946 5
    endloop
  endfacet
  facet normal 0 0 1
    outer loop
      vertex 6.125 0.216506 5
      vertex -0.209057 3.98904 5
      vertex 6.08272 0.185785 5
    endloop
  endfacet
  facet normal 0 0 1
    outer loop
      vertex 6.17275 0.237763 5
      vertex -0.209057 3.98904 5
      vertex 6.125 0.216506 5
    endloop
  endfacet
  facet normal 0 0 1
    outer loop
      vertex 6.22387 0.24863 5
      vertex -0.209057 3.98904 5
      vertex 6.17275 0.237763 5
    endloop
  endfacet
  facet normal 0 0 1
    outer loop
      vertex 6.27613 0.24863 5
      vertex -0.209057 3.98904 5
      vertex 6.22387 0.24863 5
    endloop
  endfacet
  facet normal 0 0 1
    outer loop
      vertex 29.618 -3.17557 5
      vertex 28.2091 -3.98904 5
      vertex 29.3383 -3.48629 5
    endloop
  endfacet
  facet normal 0 0 1
    outer loop
      vertex 29.3383 -3.48629 5
      vertex 28.2091 -3.98904 5
      vertex 29 -3.73205 5
    endloop
  endfacet
  facet normal 0 0 1
    outer loop
      vertex 29 -3.73205 5
      vertex 28.2091 -3.98904 5
      vertex 28.618 -3.90211 5
    endloop
  endfacet
  facet normal -0 0 1
    outer loop
      vertex 25.9173 -0.185785 5
      vertex 28.2091 -3.98904 5
      vertex 25.9523 -0.146946 5
    endloop
  endfacet
  facet normal -0 0 1
    outer loop
      vertex 25.875 -0.216506 5
      vertex 28.2091 -3.98904 5
      vertex 25.9173 -0.185785 5
    endloop
  endfacet
  facet normal -0 0 1
    outer loop
      vertex 25.8273 -0.237763 5
      vertex 28.2091 -3.98904 5
      vertex 25.875 -0.216506 5
    endloop
  endfacet
  facet normal -0 0 1
    outer loop
      vertex 25.7761 -0.24863 5
      vertex 28.2091 -3.98904 5
      vertex 25.8273 -0.237763 5
    endloop
  endfacet
  facet normal -0 0 1
    outer loop
      vertex 25.7239 -0.24863 5
      vertex 28.2091 -3.98904 5
      vertex 25.7761 -0.24863 5
    endloop
  endfacet
  facet normal 0 0 1
    outer loop
      vertex 25.6727 -0.237763 5
      vertex 28.2091 -3.98904 5
      vertex 25.7239 -0.24863 5
    endloop
  endfacet
  facet normal 0 0 1
    outer loop
      vertex 25.625 -0.216506 5
      vertex 28.2091 -3.98904 5
      vertex 25.6727 -0.237763 5
    endloop
  endfacet
  facet normal 0 0 1
    outer loop
      vertex 19.375 -0.216506 5
      vertex 25.625 -0.216506 5
      vertex 25.5827 -0.185785 5
    endloop
  endfacet
  facet normal 0 0 1
    outer loop
      vertex 19.4173 -0.185785 5
      vertex 25.5827 -0.185785 5
      vertex 25.5477 -0.146946 5
    endloop
  endfacet
  facet normal -0 0 1
    outer loop
      vertex 19.5 0 5
      vertex 25.5055 -0.0519772 5
      vertex 25.5 0 5
    endloop
  endfacet
  facet normal 0 0 1
    outer loop
      vertex 19.4945 -0.0519772 5
      vertex 25.5055 -0.0519772 5
      vertex 19.5 0 5
    endloop
  endfacet
  facet normal 0 0 1
    outer loop
      vertex 25.5055 -0.0519772 5
      vertex 19.4945 -0.0519772 5
      vertex 25.5216 -0.101684 5
    endloop
  endfacet
  facet normal 0 0 1
    outer loop
      vertex 19.4784 -0.101684 5
      vertex 25.5216 -0.101684 5
      vertex 19.4945 -0.0519772 5
    endloop
  endfacet
  facet normal 0 0 1
    outer loop
      vertex 25.5216 -0.101684 5
      vertex 19.4784 -0.101684 5
      vertex 25.5477 -0.146946 5
    endloop
  endfacet
  facet normal 0 0 1
    outer loop
      vertex 19.4523 -0.146946 5
      vertex 25.5477 -0.146946 5
      vertex 19.4784 -0.101684 5
    endloop
  endfacet
  facet normal 0 0 1
    outer loop
      vertex 19.4173 -0.185785 5
      vertex 25.5477 -0.146946 5
      vertex 19.4523 -0.146946 5
    endloop
  endfacet
  facet normal 0 0 1
    outer loop
      vertex 25.5827 -0.185785 5
      vertex 19.4173 -0.185785 5
      vertex 19.375 -0.216506 5
    endloop
  endfacet
  facet normal 0 0 1
    outer loop
      vertex 25.625 -0.216506 5
      vertex 19.375 -0.216506 5
      vertex 28.2091 -3.98904 5
    endloop
  endfacet
  facet normal -0 0 1
    outer loop
      vertex 19.3273 -0.237763 5
      vertex 28.2091 -3.98904 5
      vertex 19.375 -0.216506 5
    endloop
  endfacet
  facet normal -0 0 1
    outer loop
      vertex 19.2761 -0.24863 5
      vertex 28.2091 -3.98904 5
      vertex 19.3273 -0.237763 5
    endloop
  endfacet
  facet normal -0 0 1
    outer loop
      vertex 19.2239 -0.24863 5
      vertex 28.2091 -3.98904 5
      vertex 19.2761 -0.24863 5
    endloop
  endfacet
  facet normal 0 0 1
    outer loop
      vertex 12.7761 -0.24863 5
      vertex 19.2239 -0.24863 5
      vertex 19.1727 -0.237763 5
    endloop
  endfacet
  facet normal -0 0 1
    outer loop
      vertex 13 0 5
      vertex 19.0055 -0.0519772 5
      vertex 19 0 5
    endloop
  endfacet
  facet normal 0 0 1
    outer loop
      vertex 12.9945 -0.0519772 5
      vertex 19.0055 -0.0519772 5
      vertex 13 0 5
    endloop
  endfacet
  facet normal 0 0 1
    outer loop
      vertex 19.0055 -0.0519772 5
      vertex 12.9945 -0.0519772 5
      vertex 19.0216 -0.101684 5
    endloop
  endfacet
  facet normal 0 0 1
    outer loop
      vertex 12.9784 -0.101684 5
      vertex 19.0216 -0.101684 5
      vertex 12.9945 -0.0519772 5
    endloop
  endfacet
  facet normal 0 0 1
    outer loop
      vertex 19.0216 -0.101684 5
      vertex 12.9784 -0.101684 5
      vertex 19.0477 -0.146946 5
    endloop
  endfacet
  facet normal 0 0 1
    outer loop
      vertex 12.9523 -0.146946 5
      vertex 19.0477 -0.146946 5
      vertex 12.9784 -0.101684 5
    endloop
  endfacet
  facet normal 0 0 1
    outer loop
      vertex 19.0477 -0.146946 5
      vertex 12.9523 -0.146946 5
      vertex 19.0827 -0.185785 5
    endloop
  endfacet
  facet normal 0 0 1
    outer loop
      vertex 12.9173 -0.185785 5
      vertex 19.0827 -0.185785 5
      vertex 12.9523 -0.146946 5
    endloop
  endfacet
  facet normal 0 0 1
    outer loop
      vertex 19.0827 -0.185785 5
      vertex 12.9173 -0.185785 5
      vertex 19.125 -0.216506 5
    endloop
  endfacet
  facet normal 0 0 1
    outer loop
      vertex 12.875 -0.216506 5
      vertex 19.125 -0.216506 5
      vertex 12.9173 -0.185785 5
    endloop
  endfacet
  facet normal 0 0 1
    outer loop
      vertex 19.125 -0.216506 5
      vertex 12.875 -0.216506 5
      vertex 19.1727 -0.237763 5
    endloop
  endfacet
  facet normal 0 0 1
    outer loop
      vertex 12.8273 -0.237763 5
      vertex 19.1727 -0.237763 5
      vertex 12.875 -0.216506 5
    endloop
  endfacet
  facet normal 0 0 1
    outer loop
      vertex 12.7761 -0.24863 5
      vertex 19.1727 -0.237763 5
      vertex 12.8273 -0.237763 5
    endloop
  endfacet
  facet normal 0 0 1
    outer loop
      vertex 19.2239 -0.24863 5
      vertex 12.7761 -0.24863 5
      vertex 28.2091 -3.98904 5
    endloop
  endfacet
  facet normal 0 0 1
    outer loop
      vertex -0.209057 -3.98904 5
      vertex 12.7761 -0.24863 5
      vertex 12.7239 -0.24863 5
    endloop
  endfacet
  facet normal 0 0 1
    outer loop
      vertex -0.209057 -3.98904 5
      vertex 12.7239 -0.24863 5
      vertex 12.6727 -0.237763 5
    endloop
  endfacet
  facet normal -0 0 1
    outer loop
      vertex 6.5 0 5
      vertex 12.5055 -0.0519772 5
      vertex 12.5 0 5
    endloop
  endfacet
  facet normal 0 0 1
    outer loop
      vertex 6.49454 -0.0519772 5
      vertex 12.5055 -0.0519772 5
      vertex 6.5 0 5
    endloop
  endfacet
  facet normal 0 0 1
    outer loop
      vertex 12.5055 -0.0519772 5
      vertex 6.49454 -0.0519772 5
      vertex 12.5216 -0.101684 5
    endloop
  endfacet
  facet normal 0 0 1
    outer loop
      vertex 6.47839 -0.101684 5
      vertex 12.5216 -0.101684 5
      vertex 6.49454 -0.0519772 5
    endloop
  endfacet
  facet normal 0 0 1
    outer loop
      vertex 12.5216 -0.101684 5
      vertex 6.47839 -0.101684 5
      vertex 12.5477 -0.146946 5
    endloop
  endfacet
  facet normal 0 0 1
    outer loop
      vertex 6.45225 -0.146946 5
      vertex 12.5477 -0.146946 5
      vertex 6.47839 -0.101684 5
    endloop
  endfacet
  facet normal 0 0 1
    outer loop
      vertex 12.5477 -0.146946 5
      vertex 6.45225 -0.146946 5
      vertex 12.5827 -0.185785 5
    endloop
  endfacet
  facet normal 0 0 1
    outer loop
      vertex 6.41728 -0.185785 5
      vertex 12.5827 -0.185785 5
      vertex 6.45225 -0.146946 5
    endloop
  endfacet
  facet normal 0 0 1
    outer loop
      vertex 12.5827 -0.185785 5
      vertex 6.41728 -0.185785 5
      vertex 12.625 -0.216506 5
    endloop
  endfacet
  facet normal 0 0 1
    outer loop
      vertex 6.375 -0.216506 5
      vertex 12.625 -0.216506 5
      vertex 6.41728 -0.185785 5
    endloop
  endfacet
  facet normal 0 0 1
    outer loop
      vertex 12.625 -0.216506 5
      vertex 6.375 -0.216506 5
      vertex 12.6727 -0.237763 5
    endloop
  endfacet
  facet normal 0 0 1
    outer loop
      vertex 6.32725 -0.237763 5
      vertex 12.6727 -0.237763 5
      vertex 6.375 -0.216506 5
    endloop
  endfacet
  facet normal 0 0 1
    outer loop
      vertex -0.209057 -3.98904 5
      vertex 12.6727 -0.237763 5
      vertex 6.32725 -0.237763 5
    endloop
  endfacet
  facet normal 0 0 1
    outer loop
      vertex -0.209057 -3.98904 5
      vertex 6.32725 -0.237763 5
      vertex 6.27613 -0.24863 5
    endloop
  endfacet
  facet normal 0 0 1
    outer loop
      vertex -0.209057 -3.98904 5
      vertex 6.27613 -0.24863 5
      vertex 6.22387 -0.24863 5
    endloop
  endfacet
  facet normal -0 0 1
    outer loop
      vertex -2 2 5
      vertex 6 0 5
      vertex -0.209057 3.98904 5
    endloop
  endfacet
  facet normal 0 0 1
    outer loop
      vertex -2 -2 5
      vertex 6 0 5
      vertex -2 2 5
    endloop
  endfacet
  facet normal 0 -0 1
    outer loop
      vertex -0.209057 -3.98904 5
      vertex 6 0 5
      vertex -2 -2 5
    endloop
  endfacet
  facet normal 0 0 1
    outer loop
      vertex 6 0 5
      vertex -0.209057 -3.98904 5
      vertex 6.00546 -0.0519772 5
    endloop
  endfacet
  facet normal 0 0 1
    outer loop
      vertex 6.00546 -0.0519772 5
      vertex -0.209057 -3.98904 5
      vertex 6.02161 -0.101684 5
    endloop
  endfacet
  facet normal 0 0 1
    outer loop
      vertex 12.7761 -0.24863 5
      vertex -0.209057 -3.98904 5
      vertex 28.2091 -3.98904 5
    endloop
  endfacet
  facet normal 0 0 1
    outer loop
      vertex 6.17275 -0.237763 5
      vertex -0.209057 -3.98904 5
      vertex 6.22387 -0.24863 5
    endloop
  endfacet
  facet normal 0 0 1
    outer loop
      vertex 6.125 -0.216506 5
      vertex -0.209057 -3.98904 5
      vertex 6.17275 -0.237763 5
    endloop
  endfacet
  facet normal 0 0 1
    outer loop
      vertex 6.02161 -0.101684 5
      vertex -0.209057 -3.98904 5
      vertex 6.04775 -0.146946 5
    endloop
  endfacet
  facet normal 0 0 1
    outer loop
      vertex -2 2 5
      vertex -0.209057 3.98904 5
      vertex -0.618033 3.90211 5
    endloop
  endfacet
  facet normal 0 0 1
    outer loop
      vertex 6.04775 -0.146946 5
      vertex -0.209057 -3.98904 5
      vertex 6.08272 -0.185785 5
    endloop
  endfacet
  facet normal 0 0 1
    outer loop
      vertex -2 2 5
      vertex -0.618033 3.90211 5
      vertex -0.999999 3.73205 5
    endloop
  endfacet
  facet normal 0 0 1
    outer loop
      vertex 6.08272 -0.185785 5
      vertex -0.209057 -3.98904 5
      vertex 6.125 -0.216506 5
    endloop
  endfacet
  facet normal 0 0 1
    outer loop
      vertex -2 2 5
      vertex -0.999999 3.73205 5
      vertex -1.33826 3.48629 5
    endloop
  endfacet
  facet normal 0 0 1
    outer loop
      vertex -0.209057 -3.98904 5
      vertex -2 -2 5
      vertex -0.618033 -3.90211 5
    endloop
  endfacet
  facet normal 0 0 1
    outer loop
      vertex -2 2 5
      vertex -1.33826 3.48629 5
      vertex -1.61803 3.17557 5
    endloop
  endfacet
  facet normal 0 0 1
    outer loop
      vertex -0.618033 -3.90211 5
      vertex -2 -2 5
      vertex -1 -3.73205 5
    endloop
  endfacet
  facet normal 0 0 1
    outer loop
      vertex -2 2 5
      vertex -1.61803 3.17557 5
      vertex -1.82709 2.81347 5
    endloop
  endfacet
  facet normal 0 0 1
    outer loop
      vertex -1 -3.73205 5
      vertex -2 -2 5
      vertex -1.33826 -3.48629 5
    endloop
  endfacet
  facet normal 0 0 1
    outer loop
      vertex -2 2 5
      vertex -1.82709 2.81347 5
      vertex -1.9563 2.41582 5
    endloop
  endfacet
  facet normal 0 0 1
    outer loop
      vertex -1.33826 -3.48629 5
      vertex -2 -2 5
      vertex -1.61803 -3.17557 5
    endloop
  endfacet
  facet normal 0 0 1
    outer loop
      vertex -1.61803 -3.17557 5
      vertex -2 -2 5
      vertex -1.82709 -2.81347 5
    endloop
  endfacet
  facet normal 0 0 1
    outer loop
      vertex -1.82709 -2.81347 5
      vertex -2 -2 5
      vertex -1.9563 -2.41582 5
    endloop
  endfacet
  facet normal -0.743144 0.669131 0
    outer loop
      vertex -1.61803 3.17557 -5
      vertex -1.33826 3.48629 5
      vertex -1.33826 3.48629 -5
    endloop
  endfacet
  facet normal -0.743144 0.669131 0
    outer loop
      vertex -1.33826 3.48629 5
      vertex -1.61803 3.17557 -5
      vertex -1.61803 3.17557 5
    endloop
  endfacet
  facet normal -0.587784 0.809018 0
    outer loop
      vertex -0.999999 3.73205 -5
      vertex -1.33826 3.48629 5
      vertex -0.999999 3.73205 5
    endloop
  endfacet
  facet normal -0.587784 0.809018 0
    outer loop
      vertex -1.33826 3.48629 5
      vertex -0.999999 3.73205 -5
      vertex -1.33826 3.48629 -5
    endloop
  endfacet
  facet normal -0.207911 0.978148 0
    outer loop
      vertex -0.209057 3.98904 -5
      vertex -0.618033 3.90211 5
      vertex -0.209057 3.98904 5
    endloop
  endfacet
  facet normal -0.207911 0.978148 0
    outer loop
      vertex -0.618033 3.90211 5
      vertex -0.209057 3.98904 -5
      vertex -0.618033 3.90211 -5
    endloop
  endfacet
  facet normal 0.866026 0.499999 0
    outer loop
      vertex 29.8271 2.81347 5
      vertex 29.618 3.17557 -5
      vertex 29.618 3.17557 5
    endloop
  endfacet
  facet normal 0.866026 0.499999 0
    outer loop
      vertex 29.618 3.17557 -5
      vertex 29.8271 2.81347 5
      vertex 29.8271 2.81347 -5
    endloop
  endfacet
  facet normal 0.994522 0.104529 0
    outer loop
      vertex 30 2 5
      vertex 29.9563 2.41582 -5
      vertex 29.9563 2.41582 5
    endloop
  endfacet
  facet normal 0.994522 0.104529 0
    outer loop
      vertex 29.9563 2.41582 -5
      vertex 30 2 5
      vertex 30 2 -5
    endloop
  endfacet
  facet normal 0.743143 -0.669133 0
    outer loop
      vertex 29.3383 -3.48629 5
      vertex 29.618 -3.17557 -5
      vertex 29.618 -3.17557 5
    endloop
  endfacet
  facet normal 0.743143 -0.669133 0
    outer loop
      vertex 29.618 -3.17557 -5
      vertex 29.3383 -3.48629 5
      vertex 29.3383 -3.48629 -5
    endloop
  endfacet
  facet normal -0.406738 -0.913545 0
    outer loop
      vertex -1 -3.73205 -5
      vertex -0.618033 -3.90211 5
      vertex -1 -3.73205 5
    endloop
  endfacet
  facet normal -0.406738 -0.913545 -0
    outer loop
      vertex -0.618033 -3.90211 5
      vertex -1 -3.73205 -5
      vertex -0.618033 -3.90211 -5
    endloop
  endfacet
  facet normal -0.866026 -0.499999 0
    outer loop
      vertex -1.61803 -3.17557 -5
      vertex -1.82709 -2.81347 5
      vertex -1.82709 -2.81347 -5
    endloop
  endfacet
  facet normal -0.866026 -0.499999 0
    outer loop
      vertex -1.82709 -2.81347 5
      vertex -1.61803 -3.17557 -5
      vertex -1.61803 -3.17557 5
    endloop
  endfacet
  facet normal 0.20791 0.978148 -0
    outer loop
      vertex 28.618 3.90211 -5
      vertex 28.2091 3.98904 5
      vertex 28.618 3.90211 5
    endloop
  endfacet
  facet normal 0.20791 0.978148 0
    outer loop
      vertex 28.2091 3.98904 5
      vertex 28.618 3.90211 -5
      vertex 28.2091 3.98904 -5
    endloop
  endfacet
  facet normal -0.866026 0.499999 0
    outer loop
      vertex -1.82709 2.81347 -5
      vertex -1.61803 3.17557 5
      vertex -1.61803 3.17557 -5
    endloop
  endfacet
  facet normal -0.866026 0.499999 0
    outer loop
      vertex -1.61803 3.17557 5
      vertex -1.82709 2.81347 -5
      vertex -1.82709 2.81347 5
    endloop
  endfacet
  facet normal -0.406739 0.913545 0
    outer loop
      vertex -0.618033 3.90211 -5
      vertex -0.999999 3.73205 5
      vertex -0.618033 3.90211 5
    endloop
  endfacet
  facet normal -0.406739 0.913545 0
    outer loop
      vertex -0.999999 3.73205 5
      vertex -0.618033 3.90211 -5
      vertex -0.999999 3.73205 -5
    endloop
  endfacet
  facet normal 0.951057 0.309016 0
    outer loop
      vertex 29.9563 2.41582 5
      vertex 29.8271 2.81347 -5
      vertex 29.8271 2.81347 5
    endloop
  endfacet
  facet normal 0.951057 0.309016 0
    outer loop
      vertex 29.8271 2.81347 -5
      vertex 29.9563 2.41582 5
      vertex 29.9563 2.41582 -5
    endloop
  endfacet
  facet normal 0.406739 -0.913545 0
    outer loop
      vertex 28.618 -3.90211 -5
      vertex 29 -3.73205 5
      vertex 28.618 -3.90211 5
    endloop
  endfacet
  facet normal 0.406739 -0.913545 0
    outer loop
      vertex 29 -3.73205 5
      vertex 28.618 -3.90211 -5
      vertex 29 -3.73205 -5
    endloop
  endfacet
  facet normal 0.866026 -0.499999 0
    outer loop
      vertex 29.618 -3.17557 5
      vertex 29.8271 -2.81347 -5
      vertex 29.8271 -2.81347 5
    endloop
  endfacet
  facet normal 0.866026 -0.499999 0
    outer loop
      vertex 29.8271 -2.81347 -5
      vertex 29.618 -3.17557 5
      vertex 29.618 -3.17557 -5
    endloop
  endfacet
  facet normal 0.587786 0.809017 -0
    outer loop
      vertex 29.3383 3.48629 -5
      vertex 29 3.73205 5
      vertex 29.3383 3.48629 5
    endloop
  endfacet
  facet normal 0.587786 0.809017 0
    outer loop
      vertex 29 3.73205 5
      vertex 29.3383 3.48629 -5
      vertex 29 3.73205 -5
    endloop
  endfacet
  facet normal 0.743143 0.669133 0
    outer loop
      vertex 29.618 3.17557 5
      vertex 29.3383 3.48629 -5
      vertex 29.3383 3.48629 5
    endloop
  endfacet
  facet normal 0.743143 0.669133 0
    outer loop
      vertex 29.3383 3.48629 -5
      vertex 29.618 3.17557 5
      vertex 29.618 3.17557 -5
    endloop
  endfacet
  facet normal 0.951057 -0.309016 0
    outer loop
      vertex 29.8271 -2.81347 5
      vertex 29.9563 -2.41582 -5
      vertex 29.9563 -2.41582 5
    endloop
  endfacet
  facet normal 0.951057 -0.309016 0
    outer loop
      vertex 29.9563 -2.41582 -5
      vertex 29.8271 -2.81347 5
      vertex 29.8271 -2.81347 -5
    endloop
  endfacet
  facet normal -0.994521 -0.104539 0
    outer loop
      vertex 6.5 0 -5
      vertex 6.49454 0.0519772 5
      vertex 6.49454 0.0519772 -5
    endloop
  endfacet
  facet normal -0.994521 -0.104539 0
    outer loop
      vertex 6.49454 0.0519772 5
      vertex 6.5 0 -5
      vertex 6.5 0 5
    endloop
  endfacet
  facet normal 0 -1 0
    outer loop
      vertex 6.22387 0.24863 -5
      vertex 6.27613 0.24863 5
      vertex 6.22387 0.24863 5
    endloop
  endfacet
  facet normal 0 -1 -0
    outer loop
      vertex 6.27613 0.24863 5
      vertex 6.22387 0.24863 -5
      vertex 6.27613 0.24863 -5
    endloop
  endfacet
  facet normal 0.587789 0.809015 -0
    outer loop
      vertex 6.125 -0.216506 -5
      vertex 6.08272 -0.185785 5
      vertex 6.125 -0.216506 5
    endloop
  endfacet
  facet normal 0.587789 0.809015 0
    outer loop
      vertex 6.08272 -0.185785 5
      vertex 6.125 -0.216506 -5
      vertex 6.08272 -0.185785 -5
    endloop
  endfacet
  facet normal -0.587797 -0.809008 0
    outer loop
      vertex 6.375 0.216506 -5
      vertex 6.41728 0.185785 5
      vertex 6.375 0.216506 5
    endloop
  endfacet
  facet normal -0.587797 -0.809008 -0
    outer loop
      vertex 6.41728 0.185785 5
      vertex 6.375 0.216506 -5
      vertex 6.41728 0.185785 -5
    endloop
  endfacet
  facet normal 0.743144 -0.669132 0
    outer loop
      vertex 6.04775 0.146946 5
      vertex 6.08272 0.185785 -5
      vertex 6.08272 0.185785 5
    endloop
  endfacet
  facet normal 0.743144 -0.669132 0
    outer loop
      vertex 6.08272 0.185785 -5
      vertex 6.04775 0.146946 5
      vertex 6.04775 0.146946 -5
    endloop
  endfacet
  facet normal 0.406731 -0.913548 0
    outer loop
      vertex 6.125 0.216506 -5
      vertex 6.17275 0.237763 5
      vertex 6.125 0.216506 5
    endloop
  endfacet
  facet normal 0.406731 -0.913548 0
    outer loop
      vertex 6.17275 0.237763 5
      vertex 6.125 0.216506 -5
      vertex 6.17275 0.237763 -5
    endloop
  endfacet
  facet normal -0.743144 0.669132 0
    outer loop
      vertex 6.41728 -0.185785 -5
      vertex 6.45225 -0.146946 5
      vertex 6.45225 -0.146946 -5
    endloop
  endfacet
  facet normal -0.743144 0.669132 0
    outer loop
      vertex 6.45225 -0.146946 5
      vertex 6.41728 -0.185785 -5
      vertex 6.41728 -0.185785 5
    endloop
  endfacet
  facet normal -0.866022 -0.500005 0
    outer loop
      vertex 6.47839 0.101684 -5
      vertex 6.45225 0.146946 5
      vertex 6.45225 0.146946 -5
    endloop
  endfacet
  facet normal -0.866022 -0.500005 0
    outer loop
      vertex 6.45225 0.146946 5
      vertex 6.47839 0.101684 -5
      vertex 6.47839 0.101684 5
    endloop
  endfacet
  facet normal -0.951057 -0.309015 0
    outer loop
      vertex 6.49454 0.0519772 -5
      vertex 6.47839 0.101684 5
      vertex 6.47839 0.101684 -5
    endloop
  endfacet
  facet normal -0.951057 -0.309015 0
    outer loop
      vertex 6.47839 0.101684 5
      vertex 6.49454 0.0519772 -5
      vertex 6.49454 0.0519772 5
    endloop
  endfacet
  facet normal -0.743144 -0.669132 0
    outer loop
      vertex 6.45225 0.146946 -5
      vertex 6.41728 0.185785 5
      vertex 6.41728 0.185785 -5
    endloop
  endfacet
  facet normal -0.743144 -0.669132 0
    outer loop
      vertex 6.41728 0.185785 5
      vertex 6.45225 0.146946 -5
      vertex 6.45225 0.146946 5
    endloop
  endfacet
  facet normal -0.20791 -0.978148 0
    outer loop
      vertex 6.27613 0.24863 -5
      vertex 6.32725 0.237763 5
      vertex 6.27613 0.24863 5
    endloop
  endfacet
  facet normal -0.20791 -0.978148 -0
    outer loop
      vertex 6.32725 0.237763 5
      vertex 6.27613 0.24863 -5
      vertex 6.32725 0.237763 -5
    endloop
  endfacet
  facet normal -0.406724 -0.913551 0
    outer loop
      vertex 6.32725 0.237763 -5
      vertex 6.375 0.216506 5
      vertex 6.32725 0.237763 5
    endloop
  endfacet
  facet normal -0.406724 -0.913551 -0
    outer loop
      vertex 6.375 0.216506 5
      vertex 6.32725 0.237763 -5
      vertex 6.375 0.216506 -5
    endloop
  endfacet
  facet normal 0.951057 -0.309015 0
    outer loop
      vertex 6.00546 0.0519772 5
      vertex 6.02161 0.101684 -5
      vertex 6.02161 0.101684 5
    endloop
  endfacet
  facet normal 0.951057 -0.309015 0
    outer loop
      vertex 6.02161 0.101684 -5
      vertex 6.00546 0.0519772 5
      vertex 6.00546 0.0519772 -5
    endloop
  endfacet
  facet normal 0.866022 -0.500005 0
    outer loop
      vertex 6.02161 0.101684 5
      vertex 6.04775 0.146946 -5
      vertex 6.04775 0.146946 5
    endloop
  endfacet
  facet normal 0.866022 -0.500005 0
    outer loop
      vertex 6.04775 0.146946 -5
      vertex 6.02161 0.101684 5
      vertex 6.02161 0.101684 -5
    endloop
  endfacet
  facet normal 0.994523 -0.104521 0
    outer loop
      vertex 6 0 5
      vertex 6.00546 0.0519772 -5
      vertex 6.00546 0.0519772 5
    endloop
  endfacet
  facet normal 0.994523 -0.104521 0
    outer loop
      vertex 6.00546 0.0519772 -5
      vertex 6 0 5
      vertex 6 0 -5
    endloop
  endfacet
  facet normal 0.587789 -0.809015 0
    outer loop
      vertex 6.08272 0.185785 -5
      vertex 6.125 0.216506 5
      vertex 6.08272 0.185785 5
    endloop
  endfacet
  facet normal 0.587789 -0.809015 0
    outer loop
      vertex 6.125 0.216506 5
      vertex 6.08272 0.185785 -5
      vertex 6.125 0.216506 -5
    endloop
  endfacet
  facet normal 0.20791 -0.978148 0
    outer loop
      vertex 6.17275 0.237763 -5
      vertex 6.22387 0.24863 5
      vertex 6.17275 0.237763 5
    endloop
  endfacet
  facet normal 0.20791 -0.978148 0
    outer loop
      vertex 6.22387 0.24863 5
      vertex 6.17275 0.237763 -5
      vertex 6.22387 0.24863 -5
    endloop
  endfacet
  facet normal -0.994521 0.104539 0
    outer loop
      vertex 6.49454 -0.0519772 -5
      vertex 6.5 0 5
      vertex 6.5 0 -5
    endloop
  endfacet
  facet normal -0.994521 0.104539 0
    outer loop
      vertex 6.5 0 5
      vertex 6.49454 -0.0519772 -5
      vertex 6.49454 -0.0519772 5
    endloop
  endfacet
  facet normal -0.20791 0.978148 0
    outer loop
      vertex 6.32725 -0.237763 -5
      vertex 6.27613 -0.24863 5
      vertex 6.32725 -0.237763 5
    endloop
  endfacet
  facet normal -0.20791 0.978148 0
    outer loop
      vertex 6.27613 -0.24863 5
      vertex 6.32725 -0.237763 -5
      vertex 6.27613 -0.24863 -5
    endloop
  endfacet
  facet normal -0.587797 0.809008 0
    outer loop
      vertex 6.41728 -0.185785 -5
      vertex 6.375 -0.216506 5
      vertex 6.41728 -0.185785 5
    endloop
  endfacet
  facet normal -0.587797 0.809008 0
    outer loop
      vertex 6.375 -0.216506 5
      vertex 6.41728 -0.185785 -5
      vertex 6.375 -0.216506 -5
    endloop
  endfacet
  facet normal 0.406731 0.913548 -0
    outer loop
      vertex 6.17275 -0.237763 -5
      vertex 6.125 -0.216506 5
      vertex 6.17275 -0.237763 5
    endloop
  endfacet
  facet normal 0.406731 0.913548 0
    outer loop
      vertex 6.125 -0.216506 5
      vertex 6.17275 -0.237763 -5
      vertex 6.125 -0.216506 -5
    endloop
  endfacet
  facet normal 0 1 -0
    outer loop
      vertex 6.27613 -0.24863 -5
      vertex 6.22387 -0.24863 5
      vertex 6.27613 -0.24863 5
    endloop
  endfacet
  facet normal 0 1 0
    outer loop
      vertex 6.22387 -0.24863 5
      vertex 6.27613 -0.24863 -5
      vertex 6.22387 -0.24863 -5
    endloop
  endfacet
  facet normal 0.743144 0.669132 0
    outer loop
      vertex 6.08272 -0.185785 5
      vertex 6.04775 -0.146946 -5
      vertex 6.04775 -0.146946 5
    endloop
  endfacet
  facet normal 0.743144 0.669132 0
    outer loop
      vertex 6.04775 -0.146946 -5
      vertex 6.08272 -0.185785 5
      vertex 6.08272 -0.185785 -5
    endloop
  endfacet
  facet normal 0.951057 0.309015 0
    outer loop
      vertex 6.02161 -0.101684 5
      vertex 6.00546 -0.0519772 -5
      vertex 6.00546 -0.0519772 5
    endloop
  endfacet
  facet normal 0.951057 0.309015 0
    outer loop
      vertex 6.00546 -0.0519772 -5
      vertex 6.02161 -0.101684 5
      vertex 6.02161 -0.101684 -5
    endloop
  endfacet
  facet normal 0.994523 0.104521 0
    outer loop
      vertex 6.00546 -0.0519772 5
      vertex 6 0 -5
      vertex 6 0 5
    endloop
  endfacet
  facet normal 0.994523 0.104521 0
    outer loop
      vertex 6 0 -5
      vertex 6.00546 -0.0519772 5
      vertex 6.00546 -0.0519772 -5
    endloop
  endfacet
  facet normal -0.406724 0.913551 0
    outer loop
      vertex 6.375 -0.216506 -5
      vertex 6.32725 -0.237763 5
      vertex 6.375 -0.216506 5
    endloop
  endfacet
  facet normal -0.406724 0.913551 0
    outer loop
      vertex 6.32725 -0.237763 5
      vertex 6.375 -0.216506 -5
      vertex 6.32725 -0.237763 -5
    endloop
  endfacet
  facet normal -0.951057 0.309015 0
    outer loop
      vertex 6.47839 -0.101684 -5
      vertex 6.49454 -0.0519772 5
      vertex 6.49454 -0.0519772 -5
    endloop
  endfacet
  facet normal -0.951057 0.309015 0
    outer loop
      vertex 6.49454 -0.0519772 5
      vertex 6.47839 -0.101684 -5
      vertex 6.47839 -0.101684 5
    endloop
  endfacet
  facet normal -0.866022 0.500005 0
    outer loop
      vertex 6.45225 -0.146946 -5
      vertex 6.47839 -0.101684 5
      vertex 6.47839 -0.101684 -5
    endloop
  endfacet
  facet normal -0.866022 0.500005 0
    outer loop
      vertex 6.47839 -0.101684 5
      vertex 6.45225 -0.146946 -5
      vertex 6.45225 -0.146946 5
    endloop
  endfacet
  facet normal 0.20791 0.978148 -0
    outer loop
      vertex 6.22387 -0.24863 -5
      vertex 6.17275 -0.237763 5
      vertex 6.22387 -0.24863 5
    endloop
  endfacet
  facet normal 0.20791 0.978148 0
    outer loop
      vertex 6.17275 -0.237763 5
      vertex 6.22387 -0.24863 -5
      vertex 6.17275 -0.237763 -5
    endloop
  endfacet
  facet normal 0.866022 0.500005 0
    outer loop
      vertex 6.04775 -0.146946 5
      vertex 6.02161 -0.101684 -5
      vertex 6.02161 -0.101684 5
    endloop
  endfacet
  facet normal 0.866022 0.500005 0
    outer loop
      vertex 6.02161 -0.101684 -5
      vertex 6.04775 -0.146946 5
      vertex 6.04775 -0.146946 -5
    endloop
  endfacet
  facet normal -0.994521 -0.104539 0
    outer loop
      vertex 13 0 -5
      vertex 12.9945 0.0519772 5
      vertex 12.9945 0.0519772 -5
    endloop
  endfacet
  facet normal -0.994521 -0.104539 0
    outer loop
      vertex 12.9945 0.0519772 5
      vertex 13 0 -5
      vertex 13 0 5
    endloop
  endfacet
  facet normal 0 -1 0
    outer loop
      vertex 12.7239 0.24863 -5
      vertex 12.7761 0.24863 5
      vertex 12.7239 0.24863 5
    endloop
  endfacet
  facet normal 0 -1 -0
    outer loop
      vertex 12.7761 0.24863 5
      vertex 12.7239 0.24863 -5
      vertex 12.7761 0.24863 -5
    endloop
  endfacet
  facet normal -0.587797 -0.809008 0
    outer loop
      vertex 12.875 0.216506 -5
      vertex 12.9173 0.185785 5
      vertex 12.875 0.216506 5
    endloop
  endfacet
  facet normal -0.587797 -0.809008 -0
    outer loop
      vertex 12.9173 0.185785 5
      vertex 12.875 0.216506 -5
      vertex 12.9173 0.185785 -5
    endloop
  endfacet
  facet normal 0.743144 -0.669132 0
    outer loop
      vertex 12.5477 0.146946 5
      vertex 12.5827 0.185785 -5
      vertex 12.5827 0.185785 5
    endloop
  endfacet
  facet normal 0.743144 -0.669132 0
    outer loop
      vertex 12.5827 0.185785 -5
      vertex 12.5477 0.146946 5
      vertex 12.5477 0.146946 -5
    endloop
  endfacet
  facet normal 0.406731 -0.913548 0
    outer loop
      vertex 12.625 0.216506 -5
      vertex 12.6727 0.237763 5
      vertex 12.625 0.216506 5
    endloop
  endfacet
  facet normal 0.406731 -0.913548 0
    outer loop
      vertex 12.6727 0.237763 5
      vertex 12.625 0.216506 -5
      vertex 12.6727 0.237763 -5
    endloop
  endfacet
  facet normal -0.743144 0.669132 0
    outer loop
      vertex 12.9173 -0.185785 -5
      vertex 12.9523 -0.146946 5
      vertex 12.9523 -0.146946 -5
    endloop
  endfacet
  facet normal -0.743144 0.669132 0
    outer loop
      vertex 12.9523 -0.146946 5
      vertex 12.9173 -0.185785 -5
      vertex 12.9173 -0.185785 5
    endloop
  endfacet
  facet normal -0.866022 -0.500005 0
    outer loop
      vertex 12.9784 0.101684 -5
      vertex 12.9523 0.146946 5
      vertex 12.9523 0.146946 -5
    endloop
  endfacet
  facet normal -0.866022 -0.500005 0
    outer loop
      vertex 12.9523 0.146946 5
      vertex 12.9784 0.101684 -5
      vertex 12.9784 0.101684 5
    endloop
  endfacet
  facet normal -0.951057 -0.309015 0
    outer loop
      vertex 12.9945 0.0519772 -5
      vertex 12.9784 0.101684 5
      vertex 12.9784 0.101684 -5
    endloop
  endfacet
  facet normal -0.951057 -0.309015 0
    outer loop
      vertex 12.9784 0.101684 5
      vertex 12.9945 0.0519772 -5
      vertex 12.9945 0.0519772 5
    endloop
  endfacet
  facet normal -0.743144 -0.669132 0
    outer loop
      vertex 12.9523 0.146946 -5
      vertex 12.9173 0.185785 5
      vertex 12.9173 0.185785 -5
    endloop
  endfacet
  facet normal -0.743144 -0.669132 0
    outer loop
      vertex 12.9173 0.185785 5
      vertex 12.9523 0.146946 -5
      vertex 12.9523 0.146946 5
    endloop
  endfacet
  facet normal -0.20791 -0.978148 0
    outer loop
      vertex 12.7761 0.24863 -5
      vertex 12.8273 0.237763 5
      vertex 12.7761 0.24863 5
    endloop
  endfacet
  facet normal -0.20791 -0.978148 -0
    outer loop
      vertex 12.8273 0.237763 5
      vertex 12.7761 0.24863 -5
      vertex 12.8273 0.237763 -5
    endloop
  endfacet
  facet normal -0.406724 -0.913551 0
    outer loop
      vertex 12.8273 0.237763 -5
      vertex 12.875 0.216506 5
      vertex 12.8273 0.237763 5
    endloop
  endfacet
  facet normal -0.406724 -0.913551 -0
    outer loop
      vertex 12.875 0.216506 5
      vertex 12.8273 0.237763 -5
      vertex 12.875 0.216506 -5
    endloop
  endfacet
  facet normal 0.951057 -0.309015 0
    outer loop
      vertex 12.5055 0.0519772 5
      vertex 12.5216 0.101684 -5
      vertex 12.5216 0.101684 5
    endloop
  endfacet
  facet normal 0.951057 -0.309015 0
    outer loop
      vertex 12.5216 0.101684 -5
      vertex 12.5055 0.0519772 5
      vertex 12.5055 0.0519772 -5
    endloop
  endfacet
  facet normal 0.866022 -0.500005 0
    outer loop
      vertex 12.5216 0.101684 5
      vertex 12.5477 0.146946 -5
      vertex 12.5477 0.146946 5
    endloop
  endfacet
  facet normal 0.866022 -0.500005 0
    outer loop
      vertex 12.5477 0.146946 -5
      vertex 12.5216 0.101684 5
      vertex 12.5216 0.101684 -5
    endloop
  endfacet
  facet normal 0.994523 -0.104521 0
    outer loop
      vertex 12.5 0 5
      vertex 12.5055 0.0519772 -5
      vertex 12.5055 0.0519772 5
    endloop
  endfacet
  facet normal 0.994523 -0.104521 0
    outer loop
      vertex 12.5055 0.0519772 -5
      vertex 12.5 0 5
      vertex 12.5 0 -5
    endloop
  endfacet
  facet normal 0.587789 -0.809015 0
    outer loop
      vertex 12.5827 0.185785 -5
      vertex 12.625 0.216506 5
      vertex 12.5827 0.185785 5
    endloop
  endfacet
  facet normal 0.587789 -0.809015 0
    outer loop
      vertex 12.625 0.216506 5
      vertex 12.5827 0.185785 -5
      vertex 12.625 0.216506 -5
    endloop
  endfacet
  facet normal 0.20791 -0.978148 0
    outer loop
      vertex 12.6727 0.237763 -5
      vertex 12.7239 0.24863 5
      vertex 12.6727 0.237763 5
    endloop
  endfacet
  facet normal 0.20791 -0.978148 0
    outer loop
      vertex 12.7239 0.24863 5
      vertex 12.6727 0.237763 -5
      vertex 12.7239 0.24863 -5
    endloop
  endfacet
  facet normal -0.994521 0.104539 0
    outer loop
      vertex 12.9945 -0.0519772 -5
      vertex 13 0 5
      vertex 13 0 -5
    endloop
  endfacet
  facet normal -0.994521 0.104539 0
    outer loop
      vertex 13 0 5
      vertex 12.9945 -0.0519772 -5
      vertex 12.9945 -0.0519772 5
    endloop
  endfacet
  facet normal -0.20791 0.978148 0
    outer loop
      vertex 12.8273 -0.237763 -5
      vertex 12.7761 -0.24863 5
      vertex 12.8273 -0.237763 5
    endloop
  endfacet
  facet normal -0.20791 0.978148 0
    outer loop
      vertex 12.7761 -0.24863 5
      vertex 12.8273 -0.237763 -5
      vertex 12.7761 -0.24863 -5
    endloop
  endfacet
  facet normal -0.587797 0.809008 0
    outer loop
      vertex 12.9173 -0.185785 -5
      vertex 12.875 -0.216506 5
      vertex 12.9173 -0.185785 5
    endloop
  endfacet
  facet normal -0.587797 0.809008 0
    outer loop
      vertex 12.875 -0.216506 5
      vertex 12.9173 -0.185785 -5
      vertex 12.875 -0.216506 -5
    endloop
  endfacet
  facet normal 0.406731 0.913548 -0
    outer loop
      vertex 12.6727 -0.237763 -5
      vertex 12.625 -0.216506 5
      vertex 12.6727 -0.237763 5
    endloop
  endfacet
  facet normal 0.406731 0.913548 0
    outer loop
      vertex 12.625 -0.216506 5
      vertex 12.6727 -0.237763 -5
      vertex 12.625 -0.216506 -5
    endloop
  endfacet
  facet normal 0 1 -0
    outer loop
      vertex 12.7761 -0.24863 -5
      vertex 12.7239 -0.24863 5
      vertex 12.7761 -0.24863 5
    endloop
  endfacet
  facet normal 0 1 0
    outer loop
      vertex 12.7239 -0.24863 5
      vertex 12.7761 -0.24863 -5
      vertex 12.7239 -0.24863 -5
    endloop
  endfacet
  facet normal 0.743144 0.669132 0
    outer loop
      vertex 12.5827 -0.185785 5
      vertex 12.5477 -0.146946 -5
      vertex 12.5477 -0.146946 5
    endloop
  endfacet
  facet normal 0.743144 0.669132 0
    outer loop
      vertex 12.5477 -0.146946 -5
      vertex 12.5827 -0.185785 5
      vertex 12.5827 -0.185785 -5
    endloop
  endfacet
  facet normal 0.951057 0.309015 0
    outer loop
      vertex 12.5216 -0.101684 5
      vertex 12.5055 -0.0519772 -5
      vertex 12.5055 -0.0519772 5
    endloop
  endfacet
  facet normal 0.951057 0.309015 0
    outer loop
      vertex 12.5055 -0.0519772 -5
      vertex 12.5216 -0.101684 5
      vertex 12.5216 -0.101684 -5
    endloop
  endfacet
  facet normal 0.994523 0.104521 0
    outer loop
      vertex 12.5055 -0.0519772 5
      vertex 12.5 0 -5
      vertex 12.5 0 5
    endloop
  endfacet
  facet normal 0.994523 0.104521 0
    outer loop
      vertex 12.5 0 -5
      vertex 12.5055 -0.0519772 5
      vertex 12.5055 -0.0519772 -5
    endloop
  endfacet
  facet normal -0.406724 0.913551 0
    outer loop
      vertex 12.875 -0.216506 -5
      vertex 12.8273 -0.237763 5
      vertex 12.875 -0.216506 5
    endloop
  endfacet
  facet normal -0.406724 0.913551 0
    outer loop
      vertex 12.8273 -0.237763 5
      vertex 12.875 -0.216506 -5
      vertex 12.8273 -0.237763 -5
    endloop
  endfacet
  facet normal -0.951057 0.309015 0
    outer loop
      vertex 12.9784 -0.101684 -5
      vertex 12.9945 -0.0519772 5
      vertex 12.9945 -0.0519772 -5
    endloop
  endfacet
  facet normal -0.951057 0.309015 0
    outer loop
      vertex 12.9945 -0.0519772 5
      vertex 12.9784 -0.101684 -5
      vertex 12.9784 -0.101684 5
    endloop
  endfacet
  facet normal -0.866022 0.500005 0
    outer loop
      vertex 12.9523 -0.146946 -5
      vertex 12.9784 -0.101684 5
      vertex 12.9784 -0.101684 -5
    endloop
  endfacet
  facet normal -0.866022 0.500005 0
    outer loop
      vertex 12.9784 -0.101684 5
      vertex 12.9523 -0.146946 -5
      vertex 12.9523 -0.146946 5
    endloop
  endfacet
  facet normal 0.20791 0.978148 -0
    outer loop
      vertex 12.7239 -0.24863 -5
      vertex 12.6727 -0.237763 5
      vertex 12.7239 -0.24863 5
    endloop
  endfacet
  facet normal 0.20791 0.978148 0
    outer loop
      vertex 12.6727 -0.237763 5
      vertex 12.7239 -0.24863 -5
      vertex 12.6727 -0.237763 -5
    endloop
  endfacet
  facet normal 0.587789 0.809015 -0
    outer loop
      vertex 12.625 -0.216506 -5
      vertex 12.5827 -0.185785 5
      vertex 12.625 -0.216506 5
    endloop
  endfacet
  facet normal 0.587789 0.809015 0
    outer loop
      vertex 12.5827 -0.185785 5
      vertex 12.625 -0.216506 -5
      vertex 12.5827 -0.185785 -5
    endloop
  endfacet
  facet normal 0.866022 0.500005 0
    outer loop
      vertex 12.5477 -0.146946 5
      vertex 12.5216 -0.101684 -5
      vertex 12.5216 -0.101684 5
    endloop
  endfacet
  facet normal 0.866022 0.500005 0
    outer loop
      vertex 12.5216 -0.101684 -5
      vertex 12.5477 -0.146946 5
      vertex 12.5477 -0.146946 -5
    endloop
  endfacet
  facet normal -0.994523 -0.104521 0
    outer loop
      vertex 19.5 0 -5
      vertex 19.4945 0.0519772 5
      vertex 19.4945 0.0519772 -5
    endloop
  endfacet
  facet normal -0.994523 -0.104521 0
    outer loop
      vertex 19.4945 0.0519772 5
      vertex 19.5 0 -5
      vertex 19.5 0 5
    endloop
  endfacet
  facet normal 0 -1 0
    outer loop
      vertex 19.2239 0.24863 -5
      vertex 19.2761 0.24863 5
      vertex 19.2239 0.24863 5
    endloop
  endfacet
  facet normal 0 -1 -0
    outer loop
      vertex 19.2761 0.24863 5
      vertex 19.2239 0.24863 -5
      vertex 19.2761 0.24863 -5
    endloop
  endfacet
  facet normal -0.587797 -0.809008 0
    outer loop
      vertex 19.375 0.216506 -5
      vertex 19.4173 0.185785 5
      vertex 19.375 0.216506 5
    endloop
  endfacet
  facet normal -0.587797 -0.809008 -0
    outer loop
      vertex 19.4173 0.185785 5
      vertex 19.375 0.216506 -5
      vertex 19.4173 0.185785 -5
    endloop
  endfacet
  facet normal 0.743125 -0.669152 0
    outer loop
      vertex 19.0477 0.146946 5
      vertex 19.0827 0.185785 -5
      vertex 19.0827 0.185785 5
    endloop
  endfacet
  facet normal 0.743125 -0.669152 0
    outer loop
      vertex 19.0827 0.185785 -5
      vertex 19.0477 0.146946 5
      vertex 19.0477 0.146946 -5
    endloop
  endfacet
  facet normal 0.406738 -0.913545 0
    outer loop
      vertex 19.125 0.216506 -5
      vertex 19.1727 0.237763 5
      vertex 19.125 0.216506 5
    endloop
  endfacet
  facet normal 0.406738 -0.913545 0
    outer loop
      vertex 19.1727 0.237763 5
      vertex 19.125 0.216506 -5
      vertex 19.1727 0.237763 -5
    endloop
  endfacet
  facet normal -0.743144 0.669132 0
    outer loop
      vertex 19.4173 -0.185785 -5
      vertex 19.4523 -0.146946 5
      vertex 19.4523 -0.146946 -5
    endloop
  endfacet
  facet normal -0.743144 0.669132 0
    outer loop
      vertex 19.4523 -0.146946 5
      vertex 19.4173 -0.185785 -5
      vertex 19.4173 -0.185785 5
    endloop
  endfacet
  facet normal -0.866022 -0.500005 0
    outer loop
      vertex 19.4784 0.101684 -5
      vertex 19.4523 0.146946 5
      vertex 19.4523 0.146946 -5
    endloop
  endfacet
  facet normal -0.866022 -0.500005 0
    outer loop
      vertex 19.4523 0.146946 5
      vertex 19.4784 0.101684 -5
      vertex 19.4784 0.101684 5
    endloop
  endfacet
  facet normal -0.951052 -0.309031 0
    outer loop
      vertex 19.4945 0.0519772 -5
      vertex 19.4784 0.101684 5
      vertex 19.4784 0.101684 -5
    endloop
  endfacet
  facet normal -0.951052 -0.309031 0
    outer loop
      vertex 19.4784 0.101684 5
      vertex 19.4945 0.0519772 -5
      vertex 19.4945 0.0519772 5
    endloop
  endfacet
  facet normal -0.743144 -0.669132 0
    outer loop
      vertex 19.4523 0.146946 -5
      vertex 19.4173 0.185785 5
      vertex 19.4173 0.185785 -5
    endloop
  endfacet
  facet normal -0.743144 -0.669132 0
    outer loop
      vertex 19.4173 0.185785 5
      vertex 19.4523 0.146946 -5
      vertex 19.4523 0.146946 5
    endloop
  endfacet
  facet normal -0.207906 -0.978149 0
    outer loop
      vertex 19.2761 0.24863 -5
      vertex 19.3273 0.237763 5
      vertex 19.2761 0.24863 5
    endloop
  endfacet
  facet normal -0.207906 -0.978149 -0
    outer loop
      vertex 19.3273 0.237763 5
      vertex 19.2761 0.24863 -5
      vertex 19.3273 0.237763 -5
    endloop
  endfacet
  facet normal -0.406724 -0.913551 0
    outer loop
      vertex 19.3273 0.237763 -5
      vertex 19.375 0.216506 5
      vertex 19.3273 0.237763 5
    endloop
  endfacet
  facet normal -0.406724 -0.913551 -0
    outer loop
      vertex 19.375 0.216506 5
      vertex 19.3273 0.237763 -5
      vertex 19.375 0.216506 -5
    endloop
  endfacet
  facet normal 0.951052 -0.309031 0
    outer loop
      vertex 19.0055 0.0519772 5
      vertex 19.0216 0.101684 -5
      vertex 19.0216 0.101684 5
    endloop
  endfacet
  facet normal 0.951052 -0.309031 0
    outer loop
      vertex 19.0216 0.101684 -5
      vertex 19.0055 0.0519772 5
      vertex 19.0055 0.0519772 -5
    endloop
  endfacet
  facet normal 0.866038 -0.499978 0
    outer loop
      vertex 19.0216 0.101684 5
      vertex 19.0477 0.146946 -5
      vertex 19.0477 0.146946 5
    endloop
  endfacet
  facet normal 0.866038 -0.499978 0
    outer loop
      vertex 19.0477 0.146946 -5
      vertex 19.0216 0.101684 5
      vertex 19.0216 0.101684 -5
    endloop
  endfacet
  facet normal 0.994523 -0.104521 0
    outer loop
      vertex 19 0 5
      vertex 19.0055 0.0519772 -5
      vertex 19.0055 0.0519772 5
    endloop
  endfacet
  facet normal 0.994523 -0.104521 0
    outer loop
      vertex 19.0055 0.0519772 -5
      vertex 19 0 5
      vertex 19 0 -5
    endloop
  endfacet
  facet normal 0.587797 -0.809008 0
    outer loop
      vertex 19.0827 0.185785 -5
      vertex 19.125 0.216506 5
      vertex 19.0827 0.185785 5
    endloop
  endfacet
  facet normal 0.587797 -0.809008 0
    outer loop
      vertex 19.125 0.216506 5
      vertex 19.0827 0.185785 -5
      vertex 19.125 0.216506 -5
    endloop
  endfacet
  facet normal 0.207906 -0.978149 0
    outer loop
      vertex 19.1727 0.237763 -5
      vertex 19.2239 0.24863 5
      vertex 19.1727 0.237763 5
    endloop
  endfacet
  facet normal 0.207906 -0.978149 0
    outer loop
      vertex 19.2239 0.24863 5
      vertex 19.1727 0.237763 -5
      vertex 19.2239 0.24863 -5
    endloop
  endfacet
  facet normal -0.994523 0.104521 0
    outer loop
      vertex 19.4945 -0.0519772 -5
      vertex 19.5 0 5
      vertex 19.5 0 -5
    endloop
  endfacet
  facet normal -0.994523 0.104521 0
    outer loop
      vertex 19.5 0 5
      vertex 19.4945 -0.0519772 -5
      vertex 19.4945 -0.0519772 5
    endloop
  endfacet
  facet normal -0.207906 0.978149 0
    outer loop
      vertex 19.3273 -0.237763 -5
      vertex 19.2761 -0.24863 5
      vertex 19.3273 -0.237763 5
    endloop
  endfacet
  facet normal -0.207906 0.978149 0
    outer loop
      vertex 19.2761 -0.24863 5
      vertex 19.3273 -0.237763 -5
      vertex 19.2761 -0.24863 -5
    endloop
  endfacet
  facet normal -0.587797 0.809008 0
    outer loop
      vertex 19.4173 -0.185785 -5
      vertex 19.375 -0.216506 5
      vertex 19.4173 -0.185785 5
    endloop
  endfacet
  facet normal -0.587797 0.809008 0
    outer loop
      vertex 19.375 -0.216506 5
      vertex 19.4173 -0.185785 -5
      vertex 19.375 -0.216506 -5
    endloop
  endfacet
  facet normal 0.406738 0.913545 -0
    outer loop
      vertex 19.1727 -0.237763 -5
      vertex 19.125 -0.216506 5
      vertex 19.1727 -0.237763 5
    endloop
  endfacet
  facet normal 0.406738 0.913545 0
    outer loop
      vertex 19.125 -0.216506 5
      vertex 19.1727 -0.237763 -5
      vertex 19.125 -0.216506 -5
    endloop
  endfacet
  facet normal 0 1 -0
    outer loop
      vertex 19.2761 -0.24863 -5
      vertex 19.2239 -0.24863 5
      vertex 19.2761 -0.24863 5
    endloop
  endfacet
  facet normal 0 1 0
    outer loop
      vertex 19.2239 -0.24863 5
      vertex 19.2761 -0.24863 -5
      vertex 19.2239 -0.24863 -5
    endloop
  endfacet
  facet normal 0.743125 0.669152 0
    outer loop
      vertex 19.0827 -0.185785 5
      vertex 19.0477 -0.146946 -5
      vertex 19.0477 -0.146946 5
    endloop
  endfacet
  facet normal 0.743125 0.669152 0
    outer loop
      vertex 19.0477 -0.146946 -5
      vertex 19.0827 -0.185785 5
      vertex 19.0827 -0.185785 -5
    endloop
  endfacet
  facet normal 0.951052 0.309031 0
    outer loop
      vertex 19.0216 -0.101684 5
      vertex 19.0055 -0.0519772 -5
      vertex 19.0055 -0.0519772 5
    endloop
  endfacet
  facet normal 0.951052 0.309031 0
    outer loop
      vertex 19.0055 -0.0519772 -5
      vertex 19.0216 -0.101684 5
      vertex 19.0216 -0.101684 -5
    endloop
  endfacet
  facet normal 0.994523 0.104521 0
    outer loop
      vertex 19.0055 -0.0519772 5
      vertex 19 0 -5
      vertex 19 0 5
    endloop
  endfacet
  facet normal 0.994523 0.104521 0
    outer loop
      vertex 19 0 -5
      vertex 19.0055 -0.0519772 5
      vertex 19.0055 -0.0519772 -5
    endloop
  endfacet
  facet normal -0.406724 0.913551 0
    outer loop
      vertex 19.375 -0.216506 -5
      vertex 19.3273 -0.237763 5
      vertex 19.375 -0.216506 5
    endloop
  endfacet
  facet normal -0.406724 0.913551 0
    outer loop
      vertex 19.3273 -0.237763 5
      vertex 19.375 -0.216506 -5
      vertex 19.3273 -0.237763 -5
    endloop
  endfacet
  facet normal -0.951052 0.309031 0
    outer loop
      vertex 19.4784 -0.101684 -5
      vertex 19.4945 -0.0519772 5
      vertex 19.4945 -0.0519772 -5
    endloop
  endfacet
  facet normal -0.951052 0.309031 0
    outer loop
      vertex 19.4945 -0.0519772 5
      vertex 19.4784 -0.101684 -5
      vertex 19.4784 -0.101684 5
    endloop
  endfacet
  facet normal -0.866022 0.500005 0
    outer loop
      vertex 19.4523 -0.146946 -5
      vertex 19.4784 -0.101684 5
      vertex 19.4784 -0.101684 -5
    endloop
  endfacet
  facet normal -0.866022 0.500005 0
    outer loop
      vertex 19.4784 -0.101684 5
      vertex 19.4523 -0.146946 -5
      vertex 19.4523 -0.146946 5
    endloop
  endfacet
  facet normal 0.207906 0.978149 -0
    outer loop
      vertex 19.2239 -0.24863 -5
      vertex 19.1727 -0.237763 5
      vertex 19.2239 -0.24863 5
    endloop
  endfacet
  facet normal 0.207906 0.978149 0
    outer loop
      vertex 19.1727 -0.237763 5
      vertex 19.2239 -0.24863 -5
      vertex 19.1727 -0.237763 -5
    endloop
  endfacet
  facet normal 0.587797 0.809008 -0
    outer loop
      vertex 19.125 -0.216506 -5
      vertex 19.0827 -0.185785 5
      vertex 19.125 -0.216506 5
    endloop
  endfacet
  facet normal 0.587797 0.809008 0
    outer loop
      vertex 19.0827 -0.185785 5
      vertex 19.125 -0.216506 -5
      vertex 19.0827 -0.185785 -5
    endloop
  endfacet
  facet normal 0.866038 0.499978 0
    outer loop
      vertex 19.0477 -0.146946 5
      vertex 19.0216 -0.101684 -5
      vertex 19.0216 -0.101684 5
    endloop
  endfacet
  facet normal 0.866038 0.499978 0
    outer loop
      vertex 19.0216 -0.101684 -5
      vertex 19.0477 -0.146946 5
      vertex 19.0477 -0.146946 -5
    endloop
  endfacet
  facet normal -0.994523 -0.104521 0
    outer loop
      vertex 26 0 -5
      vertex 25.9945 0.0519772 5
      vertex 25.9945 0.0519772 -5
    endloop
  endfacet
  facet normal -0.994523 -0.104521 0
    outer loop
      vertex 25.9945 0.0519772 5
      vertex 26 0 -5
      vertex 26 0 5
    endloop
  endfacet
  facet normal 0 -1 0
    outer loop
      vertex 25.7239 0.24863 -5
      vertex 25.7761 0.24863 5
      vertex 25.7239 0.24863 5
    endloop
  endfacet
  facet normal 0 -1 -0
    outer loop
      vertex 25.7761 0.24863 5
      vertex 25.7239 0.24863 -5
      vertex 25.7761 0.24863 -5
    endloop
  endfacet
  facet normal -0.587797 -0.809008 0
    outer loop
      vertex 25.875 0.216506 -5
      vertex 25.9173 0.185785 5
      vertex 25.875 0.216506 5
    endloop
  endfacet
  facet normal -0.587797 -0.809008 -0
    outer loop
      vertex 25.9173 0.185785 5
      vertex 25.875 0.216506 -5
      vertex 25.9173 0.185785 -5
    endloop
  endfacet
  facet normal 0.743125 -0.669152 0
    outer loop
      vertex 25.5477 0.146946 5
      vertex 25.5827 0.185785 -5
      vertex 25.5827 0.185785 5
    endloop
  endfacet
  facet normal 0.743125 -0.669152 0
    outer loop
      vertex 25.5827 0.185785 -5
      vertex 25.5477 0.146946 5
      vertex 25.5477 0.146946 -5
    endloop
  endfacet
  facet normal 0.406738 -0.913545 0
    outer loop
      vertex 25.625 0.216506 -5
      vertex 25.6727 0.237763 5
      vertex 25.625 0.216506 5
    endloop
  endfacet
  facet normal 0.406738 -0.913545 0
    outer loop
      vertex 25.6727 0.237763 5
      vertex 25.625 0.216506 -5
      vertex 25.6727 0.237763 -5
    endloop
  endfacet
  facet normal -0.743144 0.669132 0
    outer loop
      vertex 25.9173 -0.185785 -5
      vertex 25.9523 -0.146946 5
      vertex 25.9523 -0.146946 -5
    endloop
  endfacet
  facet normal -0.743144 0.669132 0
    outer loop
      vertex 25.9523 -0.146946 5
      vertex 25.9173 -0.185785 -5
      vertex 25.9173 -0.185785 5
    endloop
  endfacet
  facet normal -0.866022 -0.500005 0
    outer loop
      vertex 25.9784 0.101684 -5
      vertex 25.9523 0.146946 5
      vertex 25.9523 0.146946 -5
    endloop
  endfacet
  facet normal -0.866022 -0.500005 0
    outer loop
      vertex 25.9523 0.146946 5
      vertex 25.9784 0.101684 -5
      vertex 25.9784 0.101684 5
    endloop
  endfacet
  facet normal -0.951052 -0.309031 0
    outer loop
      vertex 25.9945 0.0519772 -5
      vertex 25.9784 0.101684 5
      vertex 25.9784 0.101684 -5
    endloop
  endfacet
  facet normal -0.951052 -0.309031 0
    outer loop
      vertex 25.9784 0.101684 5
      vertex 25.9945 0.0519772 -5
      vertex 25.9945 0.0519772 5
    endloop
  endfacet
  facet normal -0.743144 -0.669132 0
    outer loop
      vertex 25.9523 0.146946 -5
      vertex 25.9173 0.185785 5
      vertex 25.9173 0.185785 -5
    endloop
  endfacet
  facet normal -0.743144 -0.669132 0
    outer loop
      vertex 25.9173 0.185785 5
      vertex 25.9523 0.146946 -5
      vertex 25.9523 0.146946 5
    endloop
  endfacet
  facet normal -0.207906 -0.978149 0
    outer loop
      vertex 25.7761 0.24863 -5
      vertex 25.8273 0.237763 5
      vertex 25.7761 0.24863 5
    endloop
  endfacet
  facet normal -0.207906 -0.978149 -0
    outer loop
      vertex 25.8273 0.237763 5
      vertex 25.7761 0.24863 -5
      vertex 25.8273 0.237763 -5
    endloop
  endfacet
  facet normal -0.406724 -0.913551 0
    outer loop
      vertex 25.8273 0.237763 -5
      vertex 25.875 0.216506 5
      vertex 25.8273 0.237763 5
    endloop
  endfacet
  facet normal -0.406724 -0.913551 -0
    outer loop
      vertex 25.875 0.216506 5
      vertex 25.8273 0.237763 -5
      vertex 25.875 0.216506 -5
    endloop
  endfacet
  facet normal 0.951052 -0.309031 0
    outer loop
      vertex 25.5055 0.0519772 5
      vertex 25.5216 0.101684 -5
      vertex 25.5216 0.101684 5
    endloop
  endfacet
  facet normal 0.951052 -0.309031 0
    outer loop
      vertex 25.5216 0.101684 -5
      vertex 25.5055 0.0519772 5
      vertex 25.5055 0.0519772 -5
    endloop
  endfacet
  facet normal 0.866038 -0.499978 0
    outer loop
      vertex 25.5216 0.101684 5
      vertex 25.5477 0.146946 -5
      vertex 25.5477 0.146946 5
    endloop
  endfacet
  facet normal 0.866038 -0.499978 0
    outer loop
      vertex 25.5477 0.146946 -5
      vertex 25.5216 0.101684 5
      vertex 25.5216 0.101684 -5
    endloop
  endfacet
  facet normal 0.994523 -0.104521 0
    outer loop
      vertex 25.5 0 5
      vertex 25.5055 0.0519772 -5
      vertex 25.5055 0.0519772 5
    endloop
  endfacet
  facet normal 0.994523 -0.104521 0
    outer loop
      vertex 25.5055 0.0519772 -5
      vertex 25.5 0 5
      vertex 25.5 0 -5
    endloop
  endfacet
  facet normal 0.587797 -0.809008 0
    outer loop
      vertex 25.5827 0.185785 -5
      vertex 25.625 0.216506 5
      vertex 25.5827 0.185785 5
    endloop
  endfacet
  facet normal 0.587797 -0.809008 0
    outer loop
      vertex 25.625 0.216506 5
      vertex 25.5827 0.185785 -5
      vertex 25.625 0.216506 -5
    endloop
  endfacet
  facet normal 0.207906 -0.978149 0
    outer loop
      vertex 25.6727 0.237763 -5
      vertex 25.7239 0.24863 5
      vertex 25.6727 0.237763 5
    endloop
  endfacet
  facet normal 0.207906 -0.978149 0
    outer loop
      vertex 25.7239 0.24863 5
      vertex 25.6727 0.237763 -5
      vertex 25.7239 0.24863 -5
    endloop
  endfacet
  facet normal -0.207906 0.978149 0
    outer loop
      vertex 25.8273 -0.237763 -5
      vertex 25.7761 -0.24863 5
      vertex 25.8273 -0.237763 5
    endloop
  endfacet
  facet normal -0.207906 0.978149 0
    outer loop
      vertex 25.7761 -0.24863 5
      vertex 25.8273 -0.237763 -5
      vertex 25.7761 -0.24863 -5
    endloop
  endfacet
  facet normal -0.587797 0.809008 0
    outer loop
      vertex 25.9173 -0.185785 -5
      vertex 25.875 -0.216506 5
      vertex 25.9173 -0.185785 5
    endloop
  endfacet
  facet normal -0.587797 0.809008 0
    outer loop
      vertex 25.875 -0.216506 5
      vertex 25.9173 -0.185785 -5
      vertex 25.875 -0.216506 -5
    endloop
  endfacet
  facet normal 0.406738 0.913545 -0
    outer loop
      vertex 25.6727 -0.237763 -5
      vertex 25.625 -0.216506 5
      vertex 25.6727 -0.237763 5
    endloop
  endfacet
  facet normal 0.406738 0.913545 0
    outer loop
      vertex 25.625 -0.216506 5
      vertex 25.6727 -0.237763 -5
      vertex 25.625 -0.216506 -5
    endloop
  endfacet
  facet normal 0 1 -0
    outer loop
      vertex 25.7761 -0.24863 -5
      vertex 25.7239 -0.24863 5
      vertex 25.7761 -0.24863 5
    endloop
  endfacet
  facet normal 0 1 0
    outer loop
      vertex 25.7239 -0.24863 5
      vertex 25.7761 -0.24863 -5
      vertex 25.7239 -0.24863 -5
    endloop
  endfacet
  facet normal 0.743125 0.669152 0
    outer loop
      vertex 25.5827 -0.185785 5
      vertex 25.5477 -0.146946 -5
      vertex 25.5477 -0.146946 5
    endloop
  endfacet
  facet normal 0.743125 0.669152 0
    outer loop
      vertex 25.5477 -0.146946 -5
      vertex 25.5827 -0.185785 5
      vertex 25.5827 -0.185785 -5
    endloop
  endfacet
  facet normal 0.951052 0.309031 0
    outer loop
      vertex 25.5216 -0.101684 5
      vertex 25.5055 -0.0519772 -5
      vertex 25.5055 -0.0519772 5
    endloop
  endfacet
  facet normal 0.951052 0.309031 0
    outer loop
      vertex 25.5055 -0.0519772 -5
      vertex 25.5216 -0.101684 5
      vertex 25.5216 -0.101684 -5
    endloop
  endfacet
  facet normal 0.994523 0.104521 0
    outer loop
      vertex 25.5055 -0.0519772 5
      vertex 25.5 0 -5
      vertex 25.5 0 5
    endloop
  endfacet
  facet normal 0.994523 0.104521 0
    outer loop
      vertex 25.5 0 -5
      vertex 25.5055 -0.0519772 5
      vertex 25.5055 -0.0519772 -5
    endloop
  endfacet
  facet normal -0.406724 0.913551 0
    outer loop
      vertex 25.875 -0.216506 -5
      vertex 25.8273 -0.237763 5
      vertex 25.875 -0.216506 5
    endloop
  endfacet
  facet normal -0.406724 0.913551 0
    outer loop
      vertex 25.8273 -0.237763 5
      vertex 25.875 -0.216506 -5
      vertex 25.8273 -0.237763 -5
    endloop
  endfacet
  facet normal -0.951052 0.309031 0
    outer loop
      vertex 25.9784 -0.101684 -5
      vertex 25.9945 -0.0519772 5
      vertex 25.9945 -0.0519772 -5
    endloop
  endfacet
  facet normal -0.951052 0.309031 0
    outer loop
      vertex 25.9945 -0.0519772 5
      vertex 25.9784 -0.101684 -5
      vertex 25.9784 -0.101684 5
    endloop
  endfacet
  facet normal -0.866022 0.500005 0
    outer loop
      vertex 25.9523 -0.146946 -5
      vertex 25.9784 -0.101684 5
      vertex 25.9784 -0.101684 -5
    endloop
  endfacet
  facet normal -0.866022 0.500005 0
    outer loop
      vertex 25.9784 -0.101684 5
      vertex 25.9523 -0.146946 -5
      vertex 25.9523 -0.146946 5
    endloop
  endfacet
  facet normal -0.994523 0.104521 0
    outer loop
      vertex 25.9945 -0.0519772 -5
      vertex 26 0 5
      vertex 26 0 -5
    endloop
  endfacet
  facet normal -0.994523 0.104521 0
    outer loop
      vertex 26 0 5
      vertex 25.9945 -0.0519772 -5
      vertex 25.9945 -0.0519772 5
    endloop
  endfacet
  facet normal 0.207906 0.978149 -0
    outer loop
      vertex 25.7239 -0.24863 -5
      vertex 25.6727 -0.237763 5
      vertex 25.7239 -0.24863 5
    endloop
  endfacet
  facet normal 0.207906 0.978149 0
    outer loop
      vertex 25.6727 -0.237763 5
      vertex 25.7239 -0.24863 -5
      vertex 25.6727 -0.237763 -5
    endloop
  endfacet
  facet normal 0.587797 0.809008 -0
    outer loop
      vertex 25.625 -0.216506 -5
      vertex 25.5827 -0.185785 5
      vertex 25.625 -0.216506 5
    endloop
  endfacet
  facet normal 0.587797 0.809008 0
    outer loop
      vertex 25.5827 -0.185785 5
      vertex 25.625 -0.216506 -5
      vertex 25.5827 -0.185785 -5
    endloop
  endfacet
  facet normal 0.866038 0.499978 0
    outer loop
      vertex 25.5477 -0.146946 5
      vertex 25.5216 -0.101684 -5
      vertex 25.5216 -0.101684 5
    endloop
  endfacet
  facet normal 0.866038 0.499978 0
    outer loop
      vertex 25.5216 -0.101684 -5
      vertex 25.5477 -0.146946 5
      vertex 25.5477 -0.146946 -5
    endloop
  endfacet
endsolid OpenSCAD_Model
