solid OpenSCAD_Model
  facet normal 0.207911 -0.978148 0
    outer loop
      vertex 0.209057 -6.48904 -6
      vertex 0.618033 -6.40211 6
      vertex 0.209057 -6.48904 6
    endloop
  endfacet
  facet normal 0.207911 -0.978148 0
    outer loop
      vertex 0.618033 -6.40211 6
      vertex 0.209057 -6.48904 -6
      vertex 0.618033 -6.40211 -6
    endloop
  endfacet
  facet normal 0.866026 -0.499999 0
    outer loop
      vertex 1.61803 -5.67557 6
      vertex 1.82709 -5.31347 -6
      vertex 1.82709 -5.31347 6
    endloop
  endfacet
  facet normal 0.866026 -0.499999 0
    outer loop
      vertex 1.82709 -5.31347 -6
      vertex 1.61803 -5.67557 6
      vertex 1.61803 -5.67557 -6
    endloop
  endfacet
  facet normal -0.951056 0.309018 0
    outer loop
      vertex -3.9563 4.91582 -6
      vertex -3.82709 5.31347 6
      vertex -3.82709 5.31347 -6
    endloop
  endfacet
  facet normal -0.951056 0.309018 0
    outer loop
      vertex -3.82709 5.31347 6
      vertex -3.9563 4.91582 -6
      vertex -3.9563 4.91582 6
    endloop
  endfacet
  facet normal 0.994522 0.104529 -0
    outer loop
      vertex 2 4.5 2
      vertex 1.9563 4.91582 6
      vertex 2 4.5 6
    endloop
  endfacet
  facet normal 0.994522 0.104529 0
    outer loop
      vertex 1.9563 4.91582 6
      vertex 2 4.5 2
      vertex 1.9563 4.91582 -6
    endloop
  endfacet
  facet normal 0.994522 0.104529 -0
    outer loop
      vertex 2 4.5 -2
      vertex 1.9563 4.91582 -6
      vertex 2 4.5 2
    endloop
  endfacet
  facet normal 0.994522 0.104529 0
    outer loop
      vertex 1.9563 4.91582 -6
      vertex 2 4.5 -2
      vertex 2 4.5 -6
    endloop
  endfacet
  facet normal -0.994522 0.104529 0
    outer loop
      vertex -4 4.5 -6
      vertex -3.9563 4.91582 6
      vertex -3.9563 4.91582 -6
    endloop
  endfacet
  facet normal -0.994522 0.104529 0
    outer loop
      vertex -3.9563 4.91582 6
      vertex -4 4.5 -6
      vertex -4 4.5 6
    endloop
  endfacet
  facet normal 0.207911 0.978148 -0
    outer loop
      vertex 0.618033 6.40211 -6
      vertex 0.209057 6.48904 6
      vertex 0.618033 6.40211 6
    endloop
  endfacet
  facet normal 0.207911 0.978148 0
    outer loop
      vertex 0.209057 6.48904 6
      vertex 0.618033 6.40211 -6
      vertex 0.209057 6.48904 -6
    endloop
  endfacet
  facet normal 1 -0 0
    outer loop
      vertex 2 -4.5 6
      vertex 2 4.5 2
      vertex 2 4.5 6
    endloop
  endfacet
  facet normal 1 0 0
    outer loop
      vertex 2 4.5 2
      vertex 2 -4.5 6
      vertex 2 -4.5 2
    endloop
  endfacet
  facet normal 1 -0 0
    outer loop
      vertex 2 -4.5 -2
      vertex 2 4.5 -6
      vertex 2 4.5 -2
    endloop
  endfacet
  facet normal 1 0 0
    outer loop
      vertex 2 4.5 -6
      vertex 2 -4.5 -2
      vertex 2 -4.5 -6
    endloop
  endfacet
  facet normal 0.951056 -0.309018 0
    outer loop
      vertex 1.82709 -5.31347 6
      vertex 1.9563 -4.91582 -6
      vertex 1.9563 -4.91582 6
    endloop
  endfacet
  facet normal 0.951056 -0.309018 0
    outer loop
      vertex 1.9563 -4.91582 -6
      vertex 1.82709 -5.31347 6
      vertex 1.82709 -5.31347 -6
    endloop
  endfacet
  facet normal 0.994522 -0.104529 0
    outer loop
      vertex 1.9563 -4.91582 6
      vertex 2 -4.5 2
      vertex 2 -4.5 6
    endloop
  endfacet
  facet normal 0.994522 -0.104529 0
    outer loop
      vertex 2 -4.5 2
      vertex 1.9563 -4.91582 6
      vertex 2 -4.5 -2
    endloop
  endfacet
  facet normal 0.994522 -0.104529 0
    outer loop
      vertex 1.9563 -4.91582 -6
      vertex 2 -4.5 -2
      vertex 1.9563 -4.91582 6
    endloop
  endfacet
  facet normal 0.994522 -0.104529 0
    outer loop
      vertex 2 -4.5 -2
      vertex 1.9563 -4.91582 -6
      vertex 2 -4.5 -6
    endloop
  endfacet
  facet normal 0.406738 -0.913545 0
    outer loop
      vertex 0.618033 -6.40211 -6
      vertex 1 -6.23205 6
      vertex 0.618033 -6.40211 6
    endloop
  endfacet
  facet normal 0.406738 -0.913545 0
    outer loop
      vertex 1 -6.23205 6
      vertex 0.618033 -6.40211 -6
      vertex 1 -6.23205 -6
    endloop
  endfacet
  facet normal 0.587786 -0.809017 0
    outer loop
      vertex 1 -6.23205 -6
      vertex 1.33826 -5.98629 6
      vertex 1 -6.23205 6
    endloop
  endfacet
  facet normal 0.587786 -0.809017 0
    outer loop
      vertex 1.33826 -5.98629 6
      vertex 1 -6.23205 -6
      vertex 1.33826 -5.98629 -6
    endloop
  endfacet
  facet normal -0.587786 -0.809017 0
    outer loop
      vertex -3.33826 -5.98629 -6
      vertex -3 -6.23205 6
      vertex -3.33826 -5.98629 6
    endloop
  endfacet
  facet normal -0.587786 -0.809017 -0
    outer loop
      vertex -3 -6.23205 6
      vertex -3.33826 -5.98629 -6
      vertex -3 -6.23205 -6
    endloop
  endfacet
  facet normal 0 -1 0
    outer loop
      vertex -2.20906 -6.48904 -6
      vertex 0.209057 -6.48904 6
      vertex -2.20906 -6.48904 6
    endloop
  endfacet
  facet normal 0 -1 -0
    outer loop
      vertex 0.209057 -6.48904 6
      vertex -2.20906 -6.48904 -6
      vertex 0.209057 -6.48904 -6
    endloop
  endfacet
  facet normal -0.743144 -0.669131 0
    outer loop
      vertex -3.33826 -5.98629 -6
      vertex -3.61803 -5.67557 6
      vertex -3.61803 -5.67557 -6
    endloop
  endfacet
  facet normal -0.743144 -0.669131 0
    outer loop
      vertex -3.61803 -5.67557 6
      vertex -3.33826 -5.98629 -6
      vertex -3.33826 -5.98629 6
    endloop
  endfacet
  facet normal 0 0 1
    outer loop
      vertex 0.209057 6.48904 6
      vertex 2 4.5 6
      vertex 1.9563 4.91582 6
    endloop
  endfacet
  facet normal 0 0 1
    outer loop
      vertex 2 4.5 6
      vertex -4 4.5 6
      vertex 2 -4.5 6
    endloop
  endfacet
  facet normal 0 0 1
    outer loop
      vertex 0.209057 6.48904 6
      vertex 1.9563 4.91582 6
      vertex 1.82709 5.31347 6
    endloop
  endfacet
  facet normal -0 0 1
    outer loop
      vertex -4 -4.5 6
      vertex 2 -4.5 6
      vertex -4 4.5 6
    endloop
  endfacet
  facet normal 0 0 1
    outer loop
      vertex 0.209057 6.48904 6
      vertex 1.82709 5.31347 6
      vertex 1.61803 5.67557 6
    endloop
  endfacet
  facet normal 0 -0 1
    outer loop
      vertex 0.209057 -6.48904 6
      vertex 2 -4.5 6
      vertex -4 -4.5 6
    endloop
  endfacet
  facet normal 0 0 1
    outer loop
      vertex 0.209057 6.48904 6
      vertex 1.61803 5.67557 6
      vertex 1.33826 5.98629 6
    endloop
  endfacet
  facet normal 0 0 1
    outer loop
      vertex 2 -4.5 6
      vertex 0.209057 -6.48904 6
      vertex 1.9563 -4.91582 6
    endloop
  endfacet
  facet normal 0 0 1
    outer loop
      vertex 0.209057 6.48904 6
      vertex 1.33826 5.98629 6
      vertex 1 6.23205 6
    endloop
  endfacet
  facet normal 0 0 1
    outer loop
      vertex 1.9563 -4.91582 6
      vertex 0.209057 -6.48904 6
      vertex 1.82709 -5.31347 6
    endloop
  endfacet
  facet normal 0 0 1
    outer loop
      vertex 0.209057 6.48904 6
      vertex 1 6.23205 6
      vertex 0.618033 6.40211 6
    endloop
  endfacet
  facet normal 0 0 1
    outer loop
      vertex 1.82709 -5.31347 6
      vertex 0.209057 -6.48904 6
      vertex 1.61803 -5.67557 6
    endloop
  endfacet
  facet normal 0 0 1
    outer loop
      vertex 2 4.5 6
      vertex 0.209057 6.48904 6
      vertex -4 4.5 6
    endloop
  endfacet
  facet normal 0 0 1
    outer loop
      vertex 1.61803 -5.67557 6
      vertex 0.209057 -6.48904 6
      vertex 1.33826 -5.98629 6
    endloop
  endfacet
  facet normal 0 0 1
    outer loop
      vertex -4 4.5 6
      vertex 0.209057 6.48904 6
      vertex -2.20906 6.48904 6
    endloop
  endfacet
  facet normal 0 0 1
    outer loop
      vertex 1.33826 -5.98629 6
      vertex 0.209057 -6.48904 6
      vertex 1 -6.23205 6
    endloop
  endfacet
  facet normal 0 0 1
    outer loop
      vertex -4 4.5 6
      vertex -2.20906 6.48904 6
      vertex -2.61803 6.40211 6
    endloop
  endfacet
  facet normal 0 0 1
    outer loop
      vertex 1 -6.23205 6
      vertex 0.209057 -6.48904 6
      vertex 0.618033 -6.40211 6
    endloop
  endfacet
  facet normal 0 0 1
    outer loop
      vertex -4 4.5 6
      vertex -2.61803 6.40211 6
      vertex -3 6.23205 6
    endloop
  endfacet
  facet normal 0 0 1
    outer loop
      vertex 0.209057 -6.48904 6
      vertex -4 -4.5 6
      vertex -2.20906 -6.48904 6
    endloop
  endfacet
  facet normal 0 0 1
    outer loop
      vertex -4 4.5 6
      vertex -3 6.23205 6
      vertex -3.33826 5.98629 6
    endloop
  endfacet
  facet normal 0 0 1
    outer loop
      vertex -2.20906 -6.48904 6
      vertex -4 -4.5 6
      vertex -2.61803 -6.40211 6
    endloop
  endfacet
  facet normal 0 0 1
    outer loop
      vertex -4 4.5 6
      vertex -3.33826 5.98629 6
      vertex -3.61803 5.67557 6
    endloop
  endfacet
  facet normal 0 0 1
    outer loop
      vertex -2.61803 -6.40211 6
      vertex -4 -4.5 6
      vertex -3 -6.23205 6
    endloop
  endfacet
  facet normal 0 0 1
    outer loop
      vertex -4 4.5 6
      vertex -3.61803 5.67557 6
      vertex -3.82709 5.31347 6
    endloop
  endfacet
  facet normal 0 0 1
    outer loop
      vertex -3 -6.23205 6
      vertex -4 -4.5 6
      vertex -3.33826 -5.98629 6
    endloop
  endfacet
  facet normal 0 0 1
    outer loop
      vertex -4 4.5 6
      vertex -3.82709 5.31347 6
      vertex -3.9563 4.91582 6
    endloop
  endfacet
  facet normal 0 0 1
    outer loop
      vertex -3.33826 -5.98629 6
      vertex -4 -4.5 6
      vertex -3.61803 -5.67557 6
    endloop
  endfacet
  facet normal 0 0 1
    outer loop
      vertex -3.61803 -5.67557 6
      vertex -4 -4.5 6
      vertex -3.82709 -5.31347 6
    endloop
  endfacet
  facet normal 0 0 1
    outer loop
      vertex -3.82709 -5.31347 6
      vertex -4 -4.5 6
      vertex -3.9563 -4.91582 6
    endloop
  endfacet
  facet normal -1 0 0
    outer loop
      vertex -4 -4.5 -6
      vertex -4 4.5 6
      vertex -4 4.5 -6
    endloop
  endfacet
  facet normal -1 -0 0
    outer loop
      vertex -4 4.5 6
      vertex -4 -4.5 -6
      vertex -4 -4.5 6
    endloop
  endfacet
  facet normal 0.743144 0.669131 0
    outer loop
      vertex 1.61803 5.67557 6
      vertex 1.33826 5.98629 -6
      vertex 1.33826 5.98629 6
    endloop
  endfacet
  facet normal 0.743144 0.669131 0
    outer loop
      vertex 1.33826 5.98629 -6
      vertex 1.61803 5.67557 6
      vertex 1.61803 5.67557 -6
    endloop
  endfacet
  facet normal 0.743144 -0.669131 0
    outer loop
      vertex 1.33826 -5.98629 6
      vertex 1.61803 -5.67557 -6
      vertex 1.61803 -5.67557 6
    endloop
  endfacet
  facet normal 0.743144 -0.669131 0
    outer loop
      vertex 1.61803 -5.67557 -6
      vertex 1.33826 -5.98629 6
      vertex 1.33826 -5.98629 -6
    endloop
  endfacet
  facet normal -0.951056 -0.309018 0
    outer loop
      vertex -3.82709 -5.31347 -6
      vertex -3.9563 -4.91582 6
      vertex -3.9563 -4.91582 -6
    endloop
  endfacet
  facet normal -0.951056 -0.309018 0
    outer loop
      vertex -3.9563 -4.91582 6
      vertex -3.82709 -5.31347 -6
      vertex -3.82709 -5.31347 6
    endloop
  endfacet
  facet normal -0.866026 0.499999 0
    outer loop
      vertex -3.82709 5.31347 -6
      vertex -3.61803 5.67557 6
      vertex -3.61803 5.67557 -6
    endloop
  endfacet
  facet normal -0.866026 0.499999 0
    outer loop
      vertex -3.61803 5.67557 6
      vertex -3.82709 5.31347 -6
      vertex -3.82709 5.31347 6
    endloop
  endfacet
  facet normal 0 0 -1
    outer loop
      vertex 0.209057 -6.48904 -6
      vertex 2 -4.5 -6
      vertex 1.9563 -4.91582 -6
    endloop
  endfacet
  facet normal 0 0 -1
    outer loop
      vertex 2 -4.5 -6
      vertex -4 -4.5 -6
      vertex 2 4.5 -6
    endloop
  endfacet
  facet normal 0 0 -1
    outer loop
      vertex 0.209057 -6.48904 -6
      vertex 1.9563 -4.91582 -6
      vertex 1.82709 -5.31347 -6
    endloop
  endfacet
  facet normal 0 0 -1
    outer loop
      vertex -4 4.5 -6
      vertex 2 4.5 -6
      vertex -4 -4.5 -6
    endloop
  endfacet
  facet normal 0 0 -1
    outer loop
      vertex 0.209057 -6.48904 -6
      vertex 1.82709 -5.31347 -6
      vertex 1.61803 -5.67557 -6
    endloop
  endfacet
  facet normal 0 -0 -1
    outer loop
      vertex 0.209057 6.48904 -6
      vertex 2 4.5 -6
      vertex -4 4.5 -6
    endloop
  endfacet
  facet normal 0 0 -1
    outer loop
      vertex 0.209057 -6.48904 -6
      vertex 1.61803 -5.67557 -6
      vertex 1.33826 -5.98629 -6
    endloop
  endfacet
  facet normal 0 0 -1
    outer loop
      vertex 2 4.5 -6
      vertex 0.209057 6.48904 -6
      vertex 1.9563 4.91582 -6
    endloop
  endfacet
  facet normal 0 0 -1
    outer loop
      vertex 0.209057 -6.48904 -6
      vertex 1.33826 -5.98629 -6
      vertex 1 -6.23205 -6
    endloop
  endfacet
  facet normal 0 0 -1
    outer loop
      vertex 1.9563 4.91582 -6
      vertex 0.209057 6.48904 -6
      vertex 1.82709 5.31347 -6
    endloop
  endfacet
  facet normal 0 0 -1
    outer loop
      vertex 0.209057 -6.48904 -6
      vertex 1 -6.23205 -6
      vertex 0.618033 -6.40211 -6
    endloop
  endfacet
  facet normal 0 0 -1
    outer loop
      vertex 1.82709 5.31347 -6
      vertex 0.209057 6.48904 -6
      vertex 1.61803 5.67557 -6
    endloop
  endfacet
  facet normal -0 0 -1
    outer loop
      vertex 2 -4.5 -6
      vertex 0.209057 -6.48904 -6
      vertex -4 -4.5 -6
    endloop
  endfacet
  facet normal 0 0 -1
    outer loop
      vertex 1.61803 5.67557 -6
      vertex 0.209057 6.48904 -6
      vertex 1.33826 5.98629 -6
    endloop
  endfacet
  facet normal 0 0 -1
    outer loop
      vertex -4 -4.5 -6
      vertex 0.209057 -6.48904 -6
      vertex -2.20906 -6.48904 -6
    endloop
  endfacet
  facet normal 0 0 -1
    outer loop
      vertex 1.33826 5.98629 -6
      vertex 0.209057 6.48904 -6
      vertex 1 6.23205 -6
    endloop
  endfacet
  facet normal 0 0 -1
    outer loop
      vertex -4 -4.5 -6
      vertex -2.20906 -6.48904 -6
      vertex -2.61803 -6.40211 -6
    endloop
  endfacet
  facet normal 0 0 -1
    outer loop
      vertex 1 6.23205 -6
      vertex 0.209057 6.48904 -6
      vertex 0.618033 6.40211 -6
    endloop
  endfacet
  facet normal 0 0 -1
    outer loop
      vertex -2.20906 6.48904 -6
      vertex -4 4.5 -6
      vertex -2.61803 6.40211 -6
    endloop
  endfacet
  facet normal 0 0 -1
    outer loop
      vertex -4 -4.5 -6
      vertex -2.61803 -6.40211 -6
      vertex -3 -6.23205 -6
    endloop
  endfacet
  facet normal 0 0 -1
    outer loop
      vertex -4 -4.5 -6
      vertex -3 -6.23205 -6
      vertex -3.33826 -5.98629 -6
    endloop
  endfacet
  facet normal -0 0 -1
    outer loop
      vertex 0.209057 6.48904 -6
      vertex -4 4.5 -6
      vertex -2.20906 6.48904 -6
    endloop
  endfacet
  facet normal 0 0 -1
    outer loop
      vertex -4 -4.5 -6
      vertex -3.33826 -5.98629 -6
      vertex -3.61803 -5.67557 -6
    endloop
  endfacet
  facet normal 0 0 -1
    outer loop
      vertex -2.61803 6.40211 -6
      vertex -4 4.5 -6
      vertex -3 6.23205 -6
    endloop
  endfacet
  facet normal 0 0 -1
    outer loop
      vertex -4 -4.5 -6
      vertex -3.61803 -5.67557 -6
      vertex -3.82709 -5.31347 -6
    endloop
  endfacet
  facet normal 0 0 -1
    outer loop
      vertex -3 6.23205 -6
      vertex -4 4.5 -6
      vertex -3.33826 5.98629 -6
    endloop
  endfacet
  facet normal 0 0 -1
    outer loop
      vertex -4 -4.5 -6
      vertex -3.82709 -5.31347 -6
      vertex -3.9563 -4.91582 -6
    endloop
  endfacet
  facet normal 0 0 -1
    outer loop
      vertex -3.33826 5.98629 -6
      vertex -4 4.5 -6
      vertex -3.61803 5.67557 -6
    endloop
  endfacet
  facet normal 0 0 -1
    outer loop
      vertex -3.61803 5.67557 -6
      vertex -4 4.5 -6
      vertex -3.82709 5.31347 -6
    endloop
  endfacet
  facet normal 0 0 -1
    outer loop
      vertex -3.82709 5.31347 -6
      vertex -4 4.5 -6
      vertex -3.9563 4.91582 -6
    endloop
  endfacet
  facet normal -0.994522 -0.104529 0
    outer loop
      vertex -3.9563 -4.91582 -6
      vertex -4 -4.5 6
      vertex -4 -4.5 -6
    endloop
  endfacet
  facet normal -0.994522 -0.104529 0
    outer loop
      vertex -4 -4.5 6
      vertex -3.9563 -4.91582 -6
      vertex -3.9563 -4.91582 6
    endloop
  endfacet
  facet normal -0.743144 0.669131 0
    outer loop
      vertex -3.61803 5.67557 -6
      vertex -3.33826 5.98629 6
      vertex -3.33826 5.98629 -6
    endloop
  endfacet
  facet normal -0.743144 0.669131 0
    outer loop
      vertex -3.33826 5.98629 6
      vertex -3.61803 5.67557 -6
      vertex -3.61803 5.67557 6
    endloop
  endfacet
  facet normal 0 1 -0
    outer loop
      vertex 0.209057 6.48904 -6
      vertex -2.20906 6.48904 6
      vertex 0.209057 6.48904 6
    endloop
  endfacet
  facet normal 0 1 0
    outer loop
      vertex -2.20906 6.48904 6
      vertex 0.209057 6.48904 -6
      vertex -2.20906 6.48904 -6
    endloop
  endfacet
  facet normal -0.207911 0.978148 0
    outer loop
      vertex -2.20906 6.48904 -6
      vertex -2.61803 6.40211 6
      vertex -2.20906 6.48904 6
    endloop
  endfacet
  facet normal -0.207911 0.978148 0
    outer loop
      vertex -2.61803 6.40211 6
      vertex -2.20906 6.48904 -6
      vertex -2.61803 6.40211 -6
    endloop
  endfacet
  facet normal -0.207911 -0.978148 0
    outer loop
      vertex -2.61803 -6.40211 -6
      vertex -2.20906 -6.48904 6
      vertex -2.61803 -6.40211 6
    endloop
  endfacet
  facet normal -0.207911 -0.978148 -0
    outer loop
      vertex -2.20906 -6.48904 6
      vertex -2.61803 -6.40211 -6
      vertex -2.20906 -6.48904 -6
    endloop
  endfacet
  facet normal -0.866026 -0.499999 0
    outer loop
      vertex -3.61803 -5.67557 -6
      vertex -3.82709 -5.31347 6
      vertex -3.82709 -5.31347 -6
    endloop
  endfacet
  facet normal -0.866026 -0.499999 0
    outer loop
      vertex -3.82709 -5.31347 6
      vertex -3.61803 -5.67557 -6
      vertex -3.61803 -5.67557 6
    endloop
  endfacet
  facet normal -0.406739 0.913545 0
    outer loop
      vertex -2.61803 6.40211 -6
      vertex -3 6.23205 6
      vertex -2.61803 6.40211 6
    endloop
  endfacet
  facet normal -0.406739 0.913545 0
    outer loop
      vertex -3 6.23205 6
      vertex -2.61803 6.40211 -6
      vertex -3 6.23205 -6
    endloop
  endfacet
  facet normal -0.587784 0.809018 0
    outer loop
      vertex -3 6.23205 -6
      vertex -3.33826 5.98629 6
      vertex -3 6.23205 6
    endloop
  endfacet
  facet normal -0.587784 0.809018 0
    outer loop
      vertex -3.33826 5.98629 6
      vertex -3 6.23205 -6
      vertex -3.33826 5.98629 -6
    endloop
  endfacet
  facet normal 0.587786 0.809017 -0
    outer loop
      vertex 1.33826 5.98629 -6
      vertex 1 6.23205 6
      vertex 1.33826 5.98629 6
    endloop
  endfacet
  facet normal 0.587786 0.809017 0
    outer loop
      vertex 1 6.23205 6
      vertex 1.33826 5.98629 -6
      vertex 1 6.23205 -6
    endloop
  endfacet
  facet normal 0.406738 0.913545 -0
    outer loop
      vertex 1 6.23205 -6
      vertex 0.618033 6.40211 6
      vertex 1 6.23205 6
    endloop
  endfacet
  facet normal 0.406738 0.913545 0
    outer loop
      vertex 0.618033 6.40211 6
      vertex 1 6.23205 -6
      vertex 0.618033 6.40211 -6
    endloop
  endfacet
  facet normal 0.866026 0.499999 0
    outer loop
      vertex 1.82709 5.31347 6
      vertex 1.61803 5.67557 -6
      vertex 1.61803 5.67557 6
    endloop
  endfacet
  facet normal 0.866026 0.499999 0
    outer loop
      vertex 1.61803 5.67557 -6
      vertex 1.82709 5.31347 6
      vertex 1.82709 5.31347 -6
    endloop
  endfacet
  facet normal 0.951056 0.309018 0
    outer loop
      vertex 1.9563 4.91582 6
      vertex 1.82709 5.31347 -6
      vertex 1.82709 5.31347 6
    endloop
  endfacet
  facet normal 0.951056 0.309018 0
    outer loop
      vertex 1.82709 5.31347 -6
      vertex 1.9563 4.91582 6
      vertex 1.9563 4.91582 -6
    endloop
  endfacet
  facet normal -0.406738 -0.913545 0
    outer loop
      vertex -3 -6.23205 -6
      vertex -2.61803 -6.40211 6
      vertex -3 -6.23205 6
    endloop
  endfacet
  facet normal -0.406738 -0.913545 -0
    outer loop
      vertex -2.61803 -6.40211 6
      vertex -3 -6.23205 -6
      vertex -2.61803 -6.40211 -6
    endloop
  endfacet
  facet normal -0 0 1
    outer loop
      vertex 2 4.5 2
      vertex 2.8 -4.5 2
      vertex 2.8 4.5 2
    endloop
  endfacet
  facet normal 0 0 1
    outer loop
      vertex 2 -4.5 2
      vertex 2.8 -4.5 2
      vertex 2 4.5 2
    endloop
  endfacet
  facet normal -1 0 0
    outer loop
      vertex 2.8 -4.5 2
      vertex 2.8 4.5 6
      vertex 2.8 4.5 2
    endloop
  endfacet
  facet normal -1 -0 0
    outer loop
      vertex 2.8 4.5 6
      vertex 2.8 -4.5 2
      vertex 2.8 -4.5 6
    endloop
  endfacet
  facet normal -1 0 0
    outer loop
      vertex 2.8 -4.5 -6
      vertex 2.8 4.5 -2
      vertex 2.8 4.5 -6
    endloop
  endfacet
  facet normal -1 -0 0
    outer loop
      vertex 2.8 4.5 -2
      vertex 2.8 -4.5 -6
      vertex 2.8 -4.5 -2
    endloop
  endfacet
  facet normal -0 0 -1
    outer loop
      vertex 2.8 -4.5 -2
      vertex 2 -4.5 -2
      vertex 2.8 4.5 -2
    endloop
  endfacet
  facet normal -0 0 -1
    outer loop
      vertex 2.8 4.5 -2
      vertex 2 -4.5 -2
      vertex 2 4.5 -2
    endloop
  endfacet
  facet normal 0 -1 0
    outer loop
      vertex 2 -4.5 -2
      vertex 2.8 -4.5 2
      vertex 2 -4.5 2
    endloop
  endfacet
  facet normal 0 -1 -0
    outer loop
      vertex 2.8 -4.5 2
      vertex 2 -4.5 -2
      vertex 2.8 -4.5 -2
    endloop
  endfacet
  facet normal 0 1 -0
    outer loop
      vertex 2.8 4.5 -2
      vertex 2 4.5 2
      vertex 2.8 4.5 2
    endloop
  endfacet
  facet normal 0 1 0
    outer loop
      vertex 2 4.5 2
      vertex 2.8 4.5 -2
      vertex 2 4.5 -2
    endloop
  endfacet
  facet normal 0.20791 -0.978148 0
    outer loop
      vertex 7.00906 -6.48904 -6
      vertex 7.41803 -6.40211 6
      vertex 7.00906 -6.48904 6
    endloop
  endfacet
  facet normal 0.20791 -0.978148 0
    outer loop
      vertex 7.41803 -6.40211 6
      vertex 7.00906 -6.48904 -6
      vertex 7.41803 -6.40211 -6
    endloop
  endfacet
  facet normal 0.866026 -0.499999 0
    outer loop
      vertex 8.41803 -5.67557 6
      vertex 8.62709 -5.31347 -6
      vertex 8.62709 -5.31347 6
    endloop
  endfacet
  facet normal 0.866026 -0.499999 0
    outer loop
      vertex 8.62709 -5.31347 -6
      vertex 8.41803 -5.67557 6
      vertex 8.41803 -5.67557 -6
    endloop
  endfacet
  facet normal -0.951056 0.309018 0
    outer loop
      vertex 2.8437 4.91582 -6
      vertex 2.97291 5.31347 6
      vertex 2.97291 5.31347 -6
    endloop
  endfacet
  facet normal -0.951056 0.309018 0
    outer loop
      vertex 2.97291 5.31347 6
      vertex 2.8437 4.91582 -6
      vertex 2.8437 4.91582 6
    endloop
  endfacet
  facet normal 0.994522 0.104529 -0
    outer loop
      vertex 8.8 4.5 2
      vertex 8.75629 4.91582 6
      vertex 8.8 4.5 6
    endloop
  endfacet
  facet normal 0.994522 0.104529 0
    outer loop
      vertex 8.75629 4.91582 6
      vertex 8.8 4.5 2
      vertex 8.75629 4.91582 -6
    endloop
  endfacet
  facet normal 0.994522 0.104529 -0
    outer loop
      vertex 8.8 4.5 -2
      vertex 8.75629 4.91582 -6
      vertex 8.8 4.5 2
    endloop
  endfacet
  facet normal 0.994522 0.104529 0
    outer loop
      vertex 8.75629 4.91582 -6
      vertex 8.8 4.5 -2
      vertex 8.8 4.5 -6
    endloop
  endfacet
  facet normal -0.994522 0.104529 0
    outer loop
      vertex 2.8 4.5 -2
      vertex 2.8437 4.91582 -6
      vertex 2.8 4.5 -6
    endloop
  endfacet
  facet normal -0.994522 0.104529 0
    outer loop
      vertex 2.8437 4.91582 -6
      vertex 2.8 4.5 -2
      vertex 2.8437 4.91582 6
    endloop
  endfacet
  facet normal -0.994522 0.104529 0
    outer loop
      vertex 2.8 4.5 2
      vertex 2.8437 4.91582 6
      vertex 2.8 4.5 -2
    endloop
  endfacet
  facet normal -0.994522 0.104529 0
    outer loop
      vertex 2.8437 4.91582 6
      vertex 2.8 4.5 2
      vertex 2.8 4.5 6
    endloop
  endfacet
  facet normal 0.20791 0.978148 -0
    outer loop
      vertex 7.41803 6.40211 -6
      vertex 7.00906 6.48904 6
      vertex 7.41803 6.40211 6
    endloop
  endfacet
  facet normal 0.20791 0.978148 0
    outer loop
      vertex 7.00906 6.48904 6
      vertex 7.41803 6.40211 -6
      vertex 7.00906 6.48904 -6
    endloop
  endfacet
  facet normal 1 -0 0
    outer loop
      vertex 8.8 -4.5 6
      vertex 8.8 4.5 2
      vertex 8.8 4.5 6
    endloop
  endfacet
  facet normal 1 0 0
    outer loop
      vertex 8.8 4.5 2
      vertex 8.8 -4.5 6
      vertex 8.8 -4.5 2
    endloop
  endfacet
  facet normal 1 -0 0
    outer loop
      vertex 8.8 -4.5 -2
      vertex 8.8 4.5 -6
      vertex 8.8 4.5 -2
    endloop
  endfacet
  facet normal 1 0 0
    outer loop
      vertex 8.8 4.5 -6
      vertex 8.8 -4.5 -2
      vertex 8.8 -4.5 -6
    endloop
  endfacet
  facet normal 0.951057 -0.309016 0
    outer loop
      vertex 8.62709 -5.31347 6
      vertex 8.75629 -4.91582 -6
      vertex 8.75629 -4.91582 6
    endloop
  endfacet
  facet normal 0.951057 -0.309016 0
    outer loop
      vertex 8.75629 -4.91582 -6
      vertex 8.62709 -5.31347 6
      vertex 8.62709 -5.31347 -6
    endloop
  endfacet
  facet normal 0.994522 -0.104529 0
    outer loop
      vertex 8.75629 -4.91582 6
      vertex 8.8 -4.5 2
      vertex 8.8 -4.5 6
    endloop
  endfacet
  facet normal 0.994522 -0.104529 0
    outer loop
      vertex 8.8 -4.5 2
      vertex 8.75629 -4.91582 6
      vertex 8.8 -4.5 -2
    endloop
  endfacet
  facet normal 0.994522 -0.104529 0
    outer loop
      vertex 8.75629 -4.91582 -6
      vertex 8.8 -4.5 -2
      vertex 8.75629 -4.91582 6
    endloop
  endfacet
  facet normal 0.994522 -0.104529 0
    outer loop
      vertex 8.8 -4.5 -2
      vertex 8.75629 -4.91582 -6
      vertex 8.8 -4.5 -6
    endloop
  endfacet
  facet normal 0.406739 -0.913545 0
    outer loop
      vertex 7.41803 -6.40211 -6
      vertex 7.8 -6.23205 6
      vertex 7.41803 -6.40211 6
    endloop
  endfacet
  facet normal 0.406739 -0.913545 0
    outer loop
      vertex 7.8 -6.23205 6
      vertex 7.41803 -6.40211 -6
      vertex 7.8 -6.23205 -6
    endloop
  endfacet
  facet normal -0.587786 -0.809017 0
    outer loop
      vertex 3.46174 -5.98629 -6
      vertex 3.8 -6.23205 6
      vertex 3.46174 -5.98629 6
    endloop
  endfacet
  facet normal -0.587786 -0.809017 -0
    outer loop
      vertex 3.8 -6.23205 6
      vertex 3.46174 -5.98629 -6
      vertex 3.8 -6.23205 -6
    endloop
  endfacet
  facet normal 0 -1 0
    outer loop
      vertex 4.59094 -6.48904 -6
      vertex 7.00906 -6.48904 6
      vertex 4.59094 -6.48904 6
    endloop
  endfacet
  facet normal 0 -1 -0
    outer loop
      vertex 7.00906 -6.48904 6
      vertex 4.59094 -6.48904 -6
      vertex 7.00906 -6.48904 -6
    endloop
  endfacet
  facet normal -0.743144 -0.669131 0
    outer loop
      vertex 3.46174 -5.98629 -6
      vertex 3.18197 -5.67557 6
      vertex 3.18197 -5.67557 -6
    endloop
  endfacet
  facet normal -0.743144 -0.669131 0
    outer loop
      vertex 3.18197 -5.67557 6
      vertex 3.46174 -5.98629 -6
      vertex 3.46174 -5.98629 6
    endloop
  endfacet
  facet normal 0 0 1
    outer loop
      vertex 7.00906 6.48904 6
      vertex 8.8 4.5 6
      vertex 8.75629 4.91582 6
    endloop
  endfacet
  facet normal 0 0 1
    outer loop
      vertex 8.8 4.5 6
      vertex 2.8 4.5 6
      vertex 8.8 -4.5 6
    endloop
  endfacet
  facet normal 0 0 1
    outer loop
      vertex 7.00906 6.48904 6
      vertex 8.75629 4.91582 6
      vertex 8.62709 5.31347 6
    endloop
  endfacet
  facet normal -0 0 1
    outer loop
      vertex 2.8 -4.5 6
      vertex 8.8 -4.5 6
      vertex 2.8 4.5 6
    endloop
  endfacet
  facet normal 0 0 1
    outer loop
      vertex 7.00906 6.48904 6
      vertex 8.62709 5.31347 6
      vertex 8.41803 5.67557 6
    endloop
  endfacet
  facet normal 0 -0 1
    outer loop
      vertex 7.00906 -6.48904 6
      vertex 8.8 -4.5 6
      vertex 2.8 -4.5 6
    endloop
  endfacet
  facet normal 0 0 1
    outer loop
      vertex 7.00906 6.48904 6
      vertex 8.41803 5.67557 6
      vertex 8.13826 5.98629 6
    endloop
  endfacet
  facet normal 0 0 1
    outer loop
      vertex 8.8 -4.5 6
      vertex 7.00906 -6.48904 6
      vertex 8.75629 -4.91582 6
    endloop
  endfacet
  facet normal 0 0 1
    outer loop
      vertex 7.00906 6.48904 6
      vertex 8.13826 5.98629 6
      vertex 7.8 6.23205 6
    endloop
  endfacet
  facet normal 0 0 1
    outer loop
      vertex 8.75629 -4.91582 6
      vertex 7.00906 -6.48904 6
      vertex 8.62709 -5.31347 6
    endloop
  endfacet
  facet normal 0 0 1
    outer loop
      vertex 7.00906 6.48904 6
      vertex 7.8 6.23205 6
      vertex 7.41803 6.40211 6
    endloop
  endfacet
  facet normal 0 0 1
    outer loop
      vertex 8.62709 -5.31347 6
      vertex 7.00906 -6.48904 6
      vertex 8.41803 -5.67557 6
    endloop
  endfacet
  facet normal 0 0 1
    outer loop
      vertex 8.8 4.5 6
      vertex 7.00906 6.48904 6
      vertex 2.8 4.5 6
    endloop
  endfacet
  facet normal 0 0 1
    outer loop
      vertex 8.41803 -5.67557 6
      vertex 7.00906 -6.48904 6
      vertex 8.13826 -5.98629 6
    endloop
  endfacet
  facet normal 0 0 1
    outer loop
      vertex 2.8 4.5 6
      vertex 7.00906 6.48904 6
      vertex 4.59094 6.48904 6
    endloop
  endfacet
  facet normal 0 0 1
    outer loop
      vertex 8.13826 -5.98629 6
      vertex 7.00906 -6.48904 6
      vertex 7.8 -6.23205 6
    endloop
  endfacet
  facet normal 0 0 1
    outer loop
      vertex 2.8 4.5 6
      vertex 4.59094 6.48904 6
      vertex 4.18197 6.40211 6
    endloop
  endfacet
  facet normal 0 0 1
    outer loop
      vertex 7.8 -6.23205 6
      vertex 7.00906 -6.48904 6
      vertex 7.41803 -6.40211 6
    endloop
  endfacet
  facet normal 0 0 1
    outer loop
      vertex 2.8 4.5 6
      vertex 4.18197 6.40211 6
      vertex 3.8 6.23205 6
    endloop
  endfacet
  facet normal 0 0 1
    outer loop
      vertex 7.00906 -6.48904 6
      vertex 2.8 -4.5 6
      vertex 4.59094 -6.48904 6
    endloop
  endfacet
  facet normal 0 0 1
    outer loop
      vertex 2.8 4.5 6
      vertex 3.8 6.23205 6
      vertex 3.46174 5.98629 6
    endloop
  endfacet
  facet normal 0 0 1
    outer loop
      vertex 4.59094 -6.48904 6
      vertex 2.8 -4.5 6
      vertex 4.18197 -6.40211 6
    endloop
  endfacet
  facet normal 0 0 1
    outer loop
      vertex 2.8 4.5 6
      vertex 3.46174 5.98629 6
      vertex 3.18197 5.67557 6
    endloop
  endfacet
  facet normal 0 0 1
    outer loop
      vertex 4.18197 -6.40211 6
      vertex 2.8 -4.5 6
      vertex 3.8 -6.23205 6
    endloop
  endfacet
  facet normal 0 0 1
    outer loop
      vertex 2.8 4.5 6
      vertex 3.18197 5.67557 6
      vertex 2.97291 5.31347 6
    endloop
  endfacet
  facet normal 0 0 1
    outer loop
      vertex 3.8 -6.23205 6
      vertex 2.8 -4.5 6
      vertex 3.46174 -5.98629 6
    endloop
  endfacet
  facet normal 0 0 1
    outer loop
      vertex 2.8 4.5 6
      vertex 2.97291 5.31347 6
      vertex 2.8437 4.91582 6
    endloop
  endfacet
  facet normal 0 0 1
    outer loop
      vertex 3.46174 -5.98629 6
      vertex 2.8 -4.5 6
      vertex 3.18197 -5.67557 6
    endloop
  endfacet
  facet normal 0 0 1
    outer loop
      vertex 3.18197 -5.67557 6
      vertex 2.8 -4.5 6
      vertex 2.97291 -5.31347 6
    endloop
  endfacet
  facet normal 0 0 1
    outer loop
      vertex 2.97291 -5.31347 6
      vertex 2.8 -4.5 6
      vertex 2.8437 -4.91582 6
    endloop
  endfacet
  facet normal -0.406738 0.913545 0
    outer loop
      vertex 4.18197 6.40211 -6
      vertex 3.8 6.23205 6
      vertex 4.18197 6.40211 6
    endloop
  endfacet
  facet normal -0.406738 0.913545 0
    outer loop
      vertex 3.8 6.23205 6
      vertex 4.18197 6.40211 -6
      vertex 3.8 6.23205 -6
    endloop
  endfacet
  facet normal 0.743144 0.669131 0
    outer loop
      vertex 8.41803 5.67557 6
      vertex 8.13826 5.98629 -6
      vertex 8.13826 5.98629 6
    endloop
  endfacet
  facet normal 0.743144 0.669131 0
    outer loop
      vertex 8.13826 5.98629 -6
      vertex 8.41803 5.67557 6
      vertex 8.41803 5.67557 -6
    endloop
  endfacet
  facet normal 0.587784 -0.809018 0
    outer loop
      vertex 7.8 -6.23205 -6
      vertex 8.13826 -5.98629 6
      vertex 7.8 -6.23205 6
    endloop
  endfacet
  facet normal 0.587784 -0.809018 0
    outer loop
      vertex 8.13826 -5.98629 6
      vertex 7.8 -6.23205 -6
      vertex 8.13826 -5.98629 -6
    endloop
  endfacet
  facet normal -0.951056 -0.309018 0
    outer loop
      vertex 2.97291 -5.31347 -6
      vertex 2.8437 -4.91582 6
      vertex 2.8437 -4.91582 -6
    endloop
  endfacet
  facet normal -0.951056 -0.309018 0
    outer loop
      vertex 2.8437 -4.91582 6
      vertex 2.97291 -5.31347 -6
      vertex 2.97291 -5.31347 6
    endloop
  endfacet
  facet normal -0.866026 0.499999 0
    outer loop
      vertex 2.97291 5.31347 -6
      vertex 3.18197 5.67557 6
      vertex 3.18197 5.67557 -6
    endloop
  endfacet
  facet normal -0.866026 0.499999 0
    outer loop
      vertex 3.18197 5.67557 6
      vertex 2.97291 5.31347 -6
      vertex 2.97291 5.31347 6
    endloop
  endfacet
  facet normal 0 0 -1
    outer loop
      vertex 7.00906 -6.48904 -6
      vertex 8.8 -4.5 -6
      vertex 8.75629 -4.91582 -6
    endloop
  endfacet
  facet normal 0 0 -1
    outer loop
      vertex 8.8 -4.5 -6
      vertex 2.8 -4.5 -6
      vertex 8.8 4.5 -6
    endloop
  endfacet
  facet normal 0 0 -1
    outer loop
      vertex 7.00906 -6.48904 -6
      vertex 8.75629 -4.91582 -6
      vertex 8.62709 -5.31347 -6
    endloop
  endfacet
  facet normal 0 0 -1
    outer loop
      vertex 2.8 4.5 -6
      vertex 8.8 4.5 -6
      vertex 2.8 -4.5 -6
    endloop
  endfacet
  facet normal 0 0 -1
    outer loop
      vertex 7.00906 -6.48904 -6
      vertex 8.62709 -5.31347 -6
      vertex 8.41803 -5.67557 -6
    endloop
  endfacet
  facet normal 0 -0 -1
    outer loop
      vertex 7.00906 6.48904 -6
      vertex 8.8 4.5 -6
      vertex 2.8 4.5 -6
    endloop
  endfacet
  facet normal 0 0 -1
    outer loop
      vertex 7.00906 -6.48904 -6
      vertex 8.41803 -5.67557 -6
      vertex 8.13826 -5.98629 -6
    endloop
  endfacet
  facet normal 0 0 -1
    outer loop
      vertex 8.8 4.5 -6
      vertex 7.00906 6.48904 -6
      vertex 8.75629 4.91582 -6
    endloop
  endfacet
  facet normal 0 0 -1
    outer loop
      vertex 7.00906 -6.48904 -6
      vertex 8.13826 -5.98629 -6
      vertex 7.8 -6.23205 -6
    endloop
  endfacet
  facet normal 0 0 -1
    outer loop
      vertex 8.75629 4.91582 -6
      vertex 7.00906 6.48904 -6
      vertex 8.62709 5.31347 -6
    endloop
  endfacet
  facet normal 0 0 -1
    outer loop
      vertex 7.00906 -6.48904 -6
      vertex 7.8 -6.23205 -6
      vertex 7.41803 -6.40211 -6
    endloop
  endfacet
  facet normal 0 0 -1
    outer loop
      vertex 8.62709 5.31347 -6
      vertex 7.00906 6.48904 -6
      vertex 8.41803 5.67557 -6
    endloop
  endfacet
  facet normal -0 0 -1
    outer loop
      vertex 8.8 -4.5 -6
      vertex 7.00906 -6.48904 -6
      vertex 2.8 -4.5 -6
    endloop
  endfacet
  facet normal 0 0 -1
    outer loop
      vertex 8.41803 5.67557 -6
      vertex 7.00906 6.48904 -6
      vertex 8.13826 5.98629 -6
    endloop
  endfacet
  facet normal 0 0 -1
    outer loop
      vertex 2.8 -4.5 -6
      vertex 7.00906 -6.48904 -6
      vertex 4.59094 -6.48904 -6
    endloop
  endfacet
  facet normal 0 0 -1
    outer loop
      vertex 8.13826 5.98629 -6
      vertex 7.00906 6.48904 -6
      vertex 7.8 6.23205 -6
    endloop
  endfacet
  facet normal 0 0 -1
    outer loop
      vertex 2.8 -4.5 -6
      vertex 4.59094 -6.48904 -6
      vertex 4.18197 -6.40211 -6
    endloop
  endfacet
  facet normal 0 0 -1
    outer loop
      vertex 7.8 6.23205 -6
      vertex 7.00906 6.48904 -6
      vertex 7.41803 6.40211 -6
    endloop
  endfacet
  facet normal 0 0 -1
    outer loop
      vertex 2.8 -4.5 -6
      vertex 4.18197 -6.40211 -6
      vertex 3.8 -6.23205 -6
    endloop
  endfacet
  facet normal -0 0 -1
    outer loop
      vertex 7.00906 6.48904 -6
      vertex 2.8 4.5 -6
      vertex 4.59094 6.48904 -6
    endloop
  endfacet
  facet normal 0 0 -1
    outer loop
      vertex 2.8 -4.5 -6
      vertex 3.8 -6.23205 -6
      vertex 3.46174 -5.98629 -6
    endloop
  endfacet
  facet normal 0 0 -1
    outer loop
      vertex 4.59094 6.48904 -6
      vertex 2.8 4.5 -6
      vertex 4.18197 6.40211 -6
    endloop
  endfacet
  facet normal 0 0 -1
    outer loop
      vertex 2.8 -4.5 -6
      vertex 3.46174 -5.98629 -6
      vertex 3.18197 -5.67557 -6
    endloop
  endfacet
  facet normal 0 0 -1
    outer loop
      vertex 4.18197 6.40211 -6
      vertex 2.8 4.5 -6
      vertex 3.8 6.23205 -6
    endloop
  endfacet
  facet normal 0 0 -1
    outer loop
      vertex 2.8 -4.5 -6
      vertex 3.18197 -5.67557 -6
      vertex 2.97291 -5.31347 -6
    endloop
  endfacet
  facet normal 0 0 -1
    outer loop
      vertex 3.8 6.23205 -6
      vertex 2.8 4.5 -6
      vertex 3.46174 5.98629 -6
    endloop
  endfacet
  facet normal 0 0 -1
    outer loop
      vertex 2.8 -4.5 -6
      vertex 2.97291 -5.31347 -6
      vertex 2.8437 -4.91582 -6
    endloop
  endfacet
  facet normal 0 0 -1
    outer loop
      vertex 3.46174 5.98629 -6
      vertex 2.8 4.5 -6
      vertex 3.18197 5.67557 -6
    endloop
  endfacet
  facet normal 0 0 -1
    outer loop
      vertex 3.18197 5.67557 -6
      vertex 2.8 4.5 -6
      vertex 2.97291 5.31347 -6
    endloop
  endfacet
  facet normal 0 0 -1
    outer loop
      vertex 2.97291 5.31347 -6
      vertex 2.8 4.5 -6
      vertex 2.8437 4.91582 -6
    endloop
  endfacet
  facet normal -0.994522 -0.104529 0
    outer loop
      vertex 2.8437 -4.91582 -6
      vertex 2.8 -4.5 -2
      vertex 2.8 -4.5 -6
    endloop
  endfacet
  facet normal -0.994522 -0.104529 0
    outer loop
      vertex 2.8 -4.5 -2
      vertex 2.8437 -4.91582 -6
      vertex 2.8 -4.5 2
    endloop
  endfacet
  facet normal -0.994522 -0.104529 -0
    outer loop
      vertex 2.8437 -4.91582 6
      vertex 2.8 -4.5 2
      vertex 2.8437 -4.91582 -6
    endloop
  endfacet
  facet normal -0.994522 -0.104529 0
    outer loop
      vertex 2.8 -4.5 2
      vertex 2.8437 -4.91582 6
      vertex 2.8 -4.5 6
    endloop
  endfacet
  facet normal 0 1 -0
    outer loop
      vertex 7.00906 6.48904 -6
      vertex 4.59094 6.48904 6
      vertex 7.00906 6.48904 6
    endloop
  endfacet
  facet normal 0 1 0
    outer loop
      vertex 4.59094 6.48904 6
      vertex 7.00906 6.48904 -6
      vertex 4.59094 6.48904 -6
    endloop
  endfacet
  facet normal -0.207911 0.978148 0
    outer loop
      vertex 4.59094 6.48904 -6
      vertex 4.18197 6.40211 6
      vertex 4.59094 6.48904 6
    endloop
  endfacet
  facet normal -0.207911 0.978148 0
    outer loop
      vertex 4.18197 6.40211 6
      vertex 4.59094 6.48904 -6
      vertex 4.18197 6.40211 -6
    endloop
  endfacet
  facet normal 0.743144 -0.669131 0
    outer loop
      vertex 8.13826 -5.98629 6
      vertex 8.41803 -5.67557 -6
      vertex 8.41803 -5.67557 6
    endloop
  endfacet
  facet normal 0.743144 -0.669131 0
    outer loop
      vertex 8.41803 -5.67557 -6
      vertex 8.13826 -5.98629 6
      vertex 8.13826 -5.98629 -6
    endloop
  endfacet
  facet normal -0.207911 -0.978148 0
    outer loop
      vertex 4.18197 -6.40211 -6
      vertex 4.59094 -6.48904 6
      vertex 4.18197 -6.40211 6
    endloop
  endfacet
  facet normal -0.207911 -0.978148 -0
    outer loop
      vertex 4.59094 -6.48904 6
      vertex 4.18197 -6.40211 -6
      vertex 4.59094 -6.48904 -6
    endloop
  endfacet
  facet normal -0.866026 -0.499999 0
    outer loop
      vertex 3.18197 -5.67557 -6
      vertex 2.97291 -5.31347 6
      vertex 2.97291 -5.31347 -6
    endloop
  endfacet
  facet normal -0.866026 -0.499999 0
    outer loop
      vertex 2.97291 -5.31347 6
      vertex 3.18197 -5.67557 -6
      vertex 3.18197 -5.67557 6
    endloop
  endfacet
  facet normal -0.743144 0.669131 0
    outer loop
      vertex 3.18197 5.67557 -6
      vertex 3.46174 5.98629 6
      vertex 3.46174 5.98629 -6
    endloop
  endfacet
  facet normal -0.743144 0.669131 0
    outer loop
      vertex 3.46174 5.98629 6
      vertex 3.18197 5.67557 -6
      vertex 3.18197 5.67557 6
    endloop
  endfacet
  facet normal -0.587786 0.809017 0
    outer loop
      vertex 3.8 6.23205 -6
      vertex 3.46174 5.98629 6
      vertex 3.8 6.23205 6
    endloop
  endfacet
  facet normal -0.587786 0.809017 0
    outer loop
      vertex 3.46174 5.98629 6
      vertex 3.8 6.23205 -6
      vertex 3.46174 5.98629 -6
    endloop
  endfacet
  facet normal 0.587784 0.809018 -0
    outer loop
      vertex 8.13826 5.98629 -6
      vertex 7.8 6.23205 6
      vertex 8.13826 5.98629 6
    endloop
  endfacet
  facet normal 0.587784 0.809018 0
    outer loop
      vertex 7.8 6.23205 6
      vertex 8.13826 5.98629 -6
      vertex 7.8 6.23205 -6
    endloop
  endfacet
  facet normal 0.406739 0.913545 -0
    outer loop
      vertex 7.8 6.23205 -6
      vertex 7.41803 6.40211 6
      vertex 7.8 6.23205 6
    endloop
  endfacet
  facet normal 0.406739 0.913545 0
    outer loop
      vertex 7.41803 6.40211 6
      vertex 7.8 6.23205 -6
      vertex 7.41803 6.40211 -6
    endloop
  endfacet
  facet normal 0.866026 0.499999 0
    outer loop
      vertex 8.62709 5.31347 6
      vertex 8.41803 5.67557 -6
      vertex 8.41803 5.67557 6
    endloop
  endfacet
  facet normal 0.866026 0.499999 0
    outer loop
      vertex 8.41803 5.67557 -6
      vertex 8.62709 5.31347 6
      vertex 8.62709 5.31347 -6
    endloop
  endfacet
  facet normal 0.951057 0.309016 0
    outer loop
      vertex 8.75629 4.91582 6
      vertex 8.62709 5.31347 -6
      vertex 8.62709 5.31347 6
    endloop
  endfacet
  facet normal 0.951057 0.309016 0
    outer loop
      vertex 8.62709 5.31347 -6
      vertex 8.75629 4.91582 6
      vertex 8.75629 4.91582 -6
    endloop
  endfacet
  facet normal -0.406738 -0.913545 0
    outer loop
      vertex 3.8 -6.23205 -6
      vertex 4.18197 -6.40211 6
      vertex 3.8 -6.23205 6
    endloop
  endfacet
  facet normal -0.406738 -0.913545 -0
    outer loop
      vertex 4.18197 -6.40211 6
      vertex 3.8 -6.23205 -6
      vertex 4.18197 -6.40211 -6
    endloop
  endfacet
  facet normal -0 0 1
    outer loop
      vertex 8.8 4.5 2
      vertex 9.6 -4.5 2
      vertex 9.6 4.5 2
    endloop
  endfacet
  facet normal 0 0 1
    outer loop
      vertex 8.8 -4.5 2
      vertex 9.6 -4.5 2
      vertex 8.8 4.5 2
    endloop
  endfacet
  facet normal -1 0 0
    outer loop
      vertex 9.6 -4.5 2
      vertex 9.6 4.5 6
      vertex 9.6 4.5 2
    endloop
  endfacet
  facet normal -1 -0 0
    outer loop
      vertex 9.6 4.5 6
      vertex 9.6 -4.5 2
      vertex 9.6 -4.5 6
    endloop
  endfacet
  facet normal -1 0 0
    outer loop
      vertex 9.6 -4.5 -6
      vertex 9.6 4.5 -2
      vertex 9.6 4.5 -6
    endloop
  endfacet
  facet normal -1 -0 0
    outer loop
      vertex 9.6 4.5 -2
      vertex 9.6 -4.5 -6
      vertex 9.6 -4.5 -2
    endloop
  endfacet
  facet normal 0 1 -0
    outer loop
      vertex 9.6 4.5 -2
      vertex 8.8 4.5 2
      vertex 9.6 4.5 2
    endloop
  endfacet
  facet normal 0 1 0
    outer loop
      vertex 8.8 4.5 2
      vertex 9.6 4.5 -2
      vertex 8.8 4.5 -2
    endloop
  endfacet
  facet normal -0 0 -1
    outer loop
      vertex 9.6 -4.5 -2
      vertex 8.8 -4.5 -2
      vertex 9.6 4.5 -2
    endloop
  endfacet
  facet normal -0 0 -1
    outer loop
      vertex 9.6 4.5 -2
      vertex 8.8 -4.5 -2
      vertex 8.8 4.5 -2
    endloop
  endfacet
  facet normal 0 -1 0
    outer loop
      vertex 8.8 -4.5 -2
      vertex 9.6 -4.5 2
      vertex 8.8 -4.5 2
    endloop
  endfacet
  facet normal 0 -1 -0
    outer loop
      vertex 9.6 -4.5 2
      vertex 8.8 -4.5 -2
      vertex 9.6 -4.5 -2
    endloop
  endfacet
  facet normal 0.20791 -0.978148 0
    outer loop
      vertex 13.8091 -6.48904 -6
      vertex 14.218 -6.40211 6
      vertex 13.8091 -6.48904 6
    endloop
  endfacet
  facet normal 0.20791 -0.978148 0
    outer loop
      vertex 14.218 -6.40211 6
      vertex 13.8091 -6.48904 -6
      vertex 14.218 -6.40211 -6
    endloop
  endfacet
  facet normal 0.866026 -0.499999 0
    outer loop
      vertex 15.218 -5.67557 6
      vertex 15.4271 -5.31347 -6
      vertex 15.4271 -5.31347 6
    endloop
  endfacet
  facet normal 0.866026 -0.499999 0
    outer loop
      vertex 15.4271 -5.31347 -6
      vertex 15.218 -5.67557 6
      vertex 15.218 -5.67557 -6
    endloop
  endfacet
  facet normal -0.866026 0.499999 0
    outer loop
      vertex 9.77291 5.31347 -6
      vertex 9.98197 5.67557 6
      vertex 9.98197 5.67557 -6
    endloop
  endfacet
  facet normal -0.866026 0.499999 0
    outer loop
      vertex 9.98197 5.67557 6
      vertex 9.77291 5.31347 -6
      vertex 9.77291 5.31347 6
    endloop
  endfacet
  facet normal 0.994522 0.104529 0
    outer loop
      vertex 15.6 4.5 6
      vertex 15.5563 4.91582 -6
      vertex 15.5563 4.91582 6
    endloop
  endfacet
  facet normal 0.994522 0.104529 0
    outer loop
      vertex 15.5563 4.91582 -6
      vertex 15.6 4.5 6
      vertex 15.6 4.5 -6
    endloop
  endfacet
  facet normal 0.20791 0.978148 -0
    outer loop
      vertex 14.218 6.40211 -6
      vertex 13.8091 6.48904 6
      vertex 14.218 6.40211 6
    endloop
  endfacet
  facet normal 0.20791 0.978148 0
    outer loop
      vertex 13.8091 6.48904 6
      vertex 14.218 6.40211 -6
      vertex 13.8091 6.48904 -6
    endloop
  endfacet
  facet normal 1 -0 0
    outer loop
      vertex 15.6 -4.5 6
      vertex 15.6 4.5 -6
      vertex 15.6 4.5 6
    endloop
  endfacet
  facet normal 1 0 0
    outer loop
      vertex 15.6 4.5 -6
      vertex 15.6 -4.5 6
      vertex 15.6 -4.5 -6
    endloop
  endfacet
  facet normal 0.951057 -0.309016 0
    outer loop
      vertex 15.4271 -5.31347 6
      vertex 15.5563 -4.91582 -6
      vertex 15.5563 -4.91582 6
    endloop
  endfacet
  facet normal 0.951057 -0.309016 0
    outer loop
      vertex 15.5563 -4.91582 -6
      vertex 15.4271 -5.31347 6
      vertex 15.4271 -5.31347 -6
    endloop
  endfacet
  facet normal 0.994522 -0.104529 0
    outer loop
      vertex 15.5563 -4.91582 6
      vertex 15.6 -4.5 -6
      vertex 15.6 -4.5 6
    endloop
  endfacet
  facet normal 0.994522 -0.104529 0
    outer loop
      vertex 15.6 -4.5 -6
      vertex 15.5563 -4.91582 6
      vertex 15.5563 -4.91582 -6
    endloop
  endfacet
  facet normal 0.406739 -0.913545 0
    outer loop
      vertex 14.218 -6.40211 -6
      vertex 14.6 -6.23205 6
      vertex 14.218 -6.40211 6
    endloop
  endfacet
  facet normal 0.406739 -0.913545 0
    outer loop
      vertex 14.6 -6.23205 6
      vertex 14.218 -6.40211 -6
      vertex 14.6 -6.23205 -6
    endloop
  endfacet
  facet normal -0.587786 -0.809017 0
    outer loop
      vertex 10.2617 -5.98629 -6
      vertex 10.6 -6.23205 6
      vertex 10.2617 -5.98629 6
    endloop
  endfacet
  facet normal -0.587786 -0.809017 -0
    outer loop
      vertex 10.6 -6.23205 6
      vertex 10.2617 -5.98629 -6
      vertex 10.6 -6.23205 -6
    endloop
  endfacet
  facet normal 0 -1 0
    outer loop
      vertex 11.3909 -6.48904 -6
      vertex 13.8091 -6.48904 6
      vertex 11.3909 -6.48904 6
    endloop
  endfacet
  facet normal 0 -1 -0
    outer loop
      vertex 13.8091 -6.48904 6
      vertex 11.3909 -6.48904 -6
      vertex 13.8091 -6.48904 -6
    endloop
  endfacet
  facet normal -0.743143 -0.669133 0
    outer loop
      vertex 10.2617 -5.98629 -6
      vertex 9.98197 -5.67557 6
      vertex 9.98197 -5.67557 -6
    endloop
  endfacet
  facet normal -0.743143 -0.669133 0
    outer loop
      vertex 9.98197 -5.67557 6
      vertex 10.2617 -5.98629 -6
      vertex 10.2617 -5.98629 6
    endloop
  endfacet
  facet normal 0 0 1
    outer loop
      vertex 13.8091 6.48904 6
      vertex 15.6 4.5 6
      vertex 15.5563 4.91582 6
    endloop
  endfacet
  facet normal 0 0 1
    outer loop
      vertex 15.6 4.5 6
      vertex 9.6 4.5 6
      vertex 15.6 -4.5 6
    endloop
  endfacet
  facet normal 0 0 1
    outer loop
      vertex 13.8091 6.48904 6
      vertex 15.5563 4.91582 6
      vertex 15.4271 5.31347 6
    endloop
  endfacet
  facet normal -0 0 1
    outer loop
      vertex 9.6 -4.5 6
      vertex 15.6 -4.5 6
      vertex 9.6 4.5 6
    endloop
  endfacet
  facet normal 0 0 1
    outer loop
      vertex 13.8091 6.48904 6
      vertex 15.4271 5.31347 6
      vertex 15.218 5.67557 6
    endloop
  endfacet
  facet normal 0 -0 1
    outer loop
      vertex 13.8091 -6.48904 6
      vertex 15.6 -4.5 6
      vertex 9.6 -4.5 6
    endloop
  endfacet
  facet normal 0 0 1
    outer loop
      vertex 13.8091 6.48904 6
      vertex 15.218 5.67557 6
      vertex 14.9383 5.98629 6
    endloop
  endfacet
  facet normal 0 0 1
    outer loop
      vertex 15.6 -4.5 6
      vertex 13.8091 -6.48904 6
      vertex 15.5563 -4.91582 6
    endloop
  endfacet
  facet normal 0 0 1
    outer loop
      vertex 13.8091 6.48904 6
      vertex 14.9383 5.98629 6
      vertex 14.6 6.23205 6
    endloop
  endfacet
  facet normal 0 0 1
    outer loop
      vertex 15.5563 -4.91582 6
      vertex 13.8091 -6.48904 6
      vertex 15.4271 -5.31347 6
    endloop
  endfacet
  facet normal 0 0 1
    outer loop
      vertex 13.8091 6.48904 6
      vertex 14.6 6.23205 6
      vertex 14.218 6.40211 6
    endloop
  endfacet
  facet normal 0 0 1
    outer loop
      vertex 15.4271 -5.31347 6
      vertex 13.8091 -6.48904 6
      vertex 15.218 -5.67557 6
    endloop
  endfacet
  facet normal 0 0 1
    outer loop
      vertex 15.6 4.5 6
      vertex 13.8091 6.48904 6
      vertex 9.6 4.5 6
    endloop
  endfacet
  facet normal 0 0 1
    outer loop
      vertex 15.218 -5.67557 6
      vertex 13.8091 -6.48904 6
      vertex 14.9383 -5.98629 6
    endloop
  endfacet
  facet normal 0 0 1
    outer loop
      vertex 9.6 4.5 6
      vertex 13.8091 6.48904 6
      vertex 11.3909 6.48904 6
    endloop
  endfacet
  facet normal 0 0 1
    outer loop
      vertex 14.9383 -5.98629 6
      vertex 13.8091 -6.48904 6
      vertex 14.6 -6.23205 6
    endloop
  endfacet
  facet normal 0 0 1
    outer loop
      vertex 9.6 4.5 6
      vertex 11.3909 6.48904 6
      vertex 10.982 6.40211 6
    endloop
  endfacet
  facet normal 0 0 1
    outer loop
      vertex 14.6 -6.23205 6
      vertex 13.8091 -6.48904 6
      vertex 14.218 -6.40211 6
    endloop
  endfacet
  facet normal 0 0 1
    outer loop
      vertex 9.6 4.5 6
      vertex 10.982 6.40211 6
      vertex 10.6 6.23205 6
    endloop
  endfacet
  facet normal 0 0 1
    outer loop
      vertex 13.8091 -6.48904 6
      vertex 9.6 -4.5 6
      vertex 11.3909 -6.48904 6
    endloop
  endfacet
  facet normal 0 0 1
    outer loop
      vertex 9.6 4.5 6
      vertex 10.6 6.23205 6
      vertex 10.2617 5.98629 6
    endloop
  endfacet
  facet normal 0 0 1
    outer loop
      vertex 11.3909 -6.48904 6
      vertex 9.6 -4.5 6
      vertex 10.982 -6.40211 6
    endloop
  endfacet
  facet normal 0 0 1
    outer loop
      vertex 9.6 4.5 6
      vertex 10.2617 5.98629 6
      vertex 9.98197 5.67557 6
    endloop
  endfacet
  facet normal 0 0 1
    outer loop
      vertex 10.982 -6.40211 6
      vertex 9.6 -4.5 6
      vertex 10.6 -6.23205 6
    endloop
  endfacet
  facet normal 0 0 1
    outer loop
      vertex 9.6 4.5 6
      vertex 9.98197 5.67557 6
      vertex 9.77291 5.31347 6
    endloop
  endfacet
  facet normal 0 0 1
    outer loop
      vertex 10.6 -6.23205 6
      vertex 9.6 -4.5 6
      vertex 10.2617 -5.98629 6
    endloop
  endfacet
  facet normal 0 0 1
    outer loop
      vertex 9.6 4.5 6
      vertex 9.77291 5.31347 6
      vertex 9.6437 4.91582 6
    endloop
  endfacet
  facet normal 0 0 1
    outer loop
      vertex 10.2617 -5.98629 6
      vertex 9.6 -4.5 6
      vertex 9.98197 -5.67557 6
    endloop
  endfacet
  facet normal 0 0 1
    outer loop
      vertex 9.98197 -5.67557 6
      vertex 9.6 -4.5 6
      vertex 9.77291 -5.31347 6
    endloop
  endfacet
  facet normal 0 0 1
    outer loop
      vertex 9.77291 -5.31347 6
      vertex 9.6 -4.5 6
      vertex 9.6437 -4.91582 6
    endloop
  endfacet
  facet normal -0.406739 0.913545 0
    outer loop
      vertex 10.982 6.40211 -6
      vertex 10.6 6.23205 6
      vertex 10.982 6.40211 6
    endloop
  endfacet
  facet normal -0.406739 0.913545 0
    outer loop
      vertex 10.6 6.23205 6
      vertex 10.982 6.40211 -6
      vertex 10.6 6.23205 -6
    endloop
  endfacet
  facet normal 0.743144 0.669131 0
    outer loop
      vertex 15.218 5.67557 6
      vertex 14.9383 5.98629 -6
      vertex 14.9383 5.98629 6
    endloop
  endfacet
  facet normal 0.743144 0.669131 0
    outer loop
      vertex 14.9383 5.98629 -6
      vertex 15.218 5.67557 6
      vertex 15.218 5.67557 -6
    endloop
  endfacet
  facet normal 0.587784 -0.809018 0
    outer loop
      vertex 14.6 -6.23205 -6
      vertex 14.9383 -5.98629 6
      vertex 14.6 -6.23205 6
    endloop
  endfacet
  facet normal 0.587784 -0.809018 0
    outer loop
      vertex 14.9383 -5.98629 6
      vertex 14.6 -6.23205 -6
      vertex 14.9383 -5.98629 -6
    endloop
  endfacet
  facet normal -0.951057 -0.309016 0
    outer loop
      vertex 9.77291 -5.31347 -6
      vertex 9.6437 -4.91582 6
      vertex 9.6437 -4.91582 -6
    endloop
  endfacet
  facet normal -0.951057 -0.309016 0
    outer loop
      vertex 9.6437 -4.91582 6
      vertex 9.77291 -5.31347 -6
      vertex 9.77291 -5.31347 6
    endloop
  endfacet
  facet normal -0.994522 0.104529 0
    outer loop
      vertex 9.6 4.5 -2
      vertex 9.6437 4.91582 -6
      vertex 9.6 4.5 -6
    endloop
  endfacet
  facet normal -0.994522 0.104529 0
    outer loop
      vertex 9.6437 4.91582 -6
      vertex 9.6 4.5 -2
      vertex 9.6437 4.91582 6
    endloop
  endfacet
  facet normal -0.994522 0.104529 0
    outer loop
      vertex 9.6 4.5 2
      vertex 9.6437 4.91582 6
      vertex 9.6 4.5 -2
    endloop
  endfacet
  facet normal -0.994522 0.104529 0
    outer loop
      vertex 9.6437 4.91582 6
      vertex 9.6 4.5 2
      vertex 9.6 4.5 6
    endloop
  endfacet
  facet normal 0 0 -1
    outer loop
      vertex 13.8091 -6.48904 -6
      vertex 15.6 -4.5 -6
      vertex 15.5563 -4.91582 -6
    endloop
  endfacet
  facet normal 0 0 -1
    outer loop
      vertex 15.6 -4.5 -6
      vertex 9.6 -4.5 -6
      vertex 15.6 4.5 -6
    endloop
  endfacet
  facet normal 0 0 -1
    outer loop
      vertex 13.8091 -6.48904 -6
      vertex 15.5563 -4.91582 -6
      vertex 15.4271 -5.31347 -6
    endloop
  endfacet
  facet normal 0 0 -1
    outer loop
      vertex 9.6 4.5 -6
      vertex 15.6 4.5 -6
      vertex 9.6 -4.5 -6
    endloop
  endfacet
  facet normal 0 0 -1
    outer loop
      vertex 13.8091 -6.48904 -6
      vertex 15.4271 -5.31347 -6
      vertex 15.218 -5.67557 -6
    endloop
  endfacet
  facet normal 0 -0 -1
    outer loop
      vertex 13.8091 6.48904 -6
      vertex 15.6 4.5 -6
      vertex 9.6 4.5 -6
    endloop
  endfacet
  facet normal 0 0 -1
    outer loop
      vertex 13.8091 -6.48904 -6
      vertex 15.218 -5.67557 -6
      vertex 14.9383 -5.98629 -6
    endloop
  endfacet
  facet normal 0 0 -1
    outer loop
      vertex 15.6 4.5 -6
      vertex 13.8091 6.48904 -6
      vertex 15.5563 4.91582 -6
    endloop
  endfacet
  facet normal 0 0 -1
    outer loop
      vertex 13.8091 -6.48904 -6
      vertex 14.9383 -5.98629 -6
      vertex 14.6 -6.23205 -6
    endloop
  endfacet
  facet normal 0 0 -1
    outer loop
      vertex 15.5563 4.91582 -6
      vertex 13.8091 6.48904 -6
      vertex 15.4271 5.31347 -6
    endloop
  endfacet
  facet normal 0 0 -1
    outer loop
      vertex 13.8091 -6.48904 -6
      vertex 14.6 -6.23205 -6
      vertex 14.218 -6.40211 -6
    endloop
  endfacet
  facet normal 0 0 -1
    outer loop
      vertex 15.4271 5.31347 -6
      vertex 13.8091 6.48904 -6
      vertex 15.218 5.67557 -6
    endloop
  endfacet
  facet normal -0 0 -1
    outer loop
      vertex 15.6 -4.5 -6
      vertex 13.8091 -6.48904 -6
      vertex 9.6 -4.5 -6
    endloop
  endfacet
  facet normal 0 0 -1
    outer loop
      vertex 15.218 5.67557 -6
      vertex 13.8091 6.48904 -6
      vertex 14.9383 5.98629 -6
    endloop
  endfacet
  facet normal 0 0 -1
    outer loop
      vertex 9.6 -4.5 -6
      vertex 13.8091 -6.48904 -6
      vertex 11.3909 -6.48904 -6
    endloop
  endfacet
  facet normal 0 0 -1
    outer loop
      vertex 14.9383 5.98629 -6
      vertex 13.8091 6.48904 -6
      vertex 14.6 6.23205 -6
    endloop
  endfacet
  facet normal 0 0 -1
    outer loop
      vertex 9.6 -4.5 -6
      vertex 11.3909 -6.48904 -6
      vertex 10.982 -6.40211 -6
    endloop
  endfacet
  facet normal 0 0 -1
    outer loop
      vertex 14.6 6.23205 -6
      vertex 13.8091 6.48904 -6
      vertex 14.218 6.40211 -6
    endloop
  endfacet
  facet normal 0 0 -1
    outer loop
      vertex 9.6 -4.5 -6
      vertex 10.982 -6.40211 -6
      vertex 10.6 -6.23205 -6
    endloop
  endfacet
  facet normal -0 0 -1
    outer loop
      vertex 13.8091 6.48904 -6
      vertex 9.6 4.5 -6
      vertex 11.3909 6.48904 -6
    endloop
  endfacet
  facet normal 0 0 -1
    outer loop
      vertex 9.6 -4.5 -6
      vertex 10.6 -6.23205 -6
      vertex 10.2617 -5.98629 -6
    endloop
  endfacet
  facet normal 0 0 -1
    outer loop
      vertex 11.3909 6.48904 -6
      vertex 9.6 4.5 -6
      vertex 10.982 6.40211 -6
    endloop
  endfacet
  facet normal 0 0 -1
    outer loop
      vertex 9.6 -4.5 -6
      vertex 10.2617 -5.98629 -6
      vertex 9.98197 -5.67557 -6
    endloop
  endfacet
  facet normal 0 0 -1
    outer loop
      vertex 10.982 6.40211 -6
      vertex 9.6 4.5 -6
      vertex 10.6 6.23205 -6
    endloop
  endfacet
  facet normal 0 0 -1
    outer loop
      vertex 9.6 -4.5 -6
      vertex 9.98197 -5.67557 -6
      vertex 9.77291 -5.31347 -6
    endloop
  endfacet
  facet normal 0 0 -1
    outer loop
      vertex 10.6 6.23205 -6
      vertex 9.6 4.5 -6
      vertex 10.2617 5.98629 -6
    endloop
  endfacet
  facet normal 0 0 -1
    outer loop
      vertex 9.6 -4.5 -6
      vertex 9.77291 -5.31347 -6
      vertex 9.6437 -4.91582 -6
    endloop
  endfacet
  facet normal 0 0 -1
    outer loop
      vertex 10.2617 5.98629 -6
      vertex 9.6 4.5 -6
      vertex 9.98197 5.67557 -6
    endloop
  endfacet
  facet normal 0 0 -1
    outer loop
      vertex 9.98197 5.67557 -6
      vertex 9.6 4.5 -6
      vertex 9.77291 5.31347 -6
    endloop
  endfacet
  facet normal 0 0 -1
    outer loop
      vertex 9.77291 5.31347 -6
      vertex 9.6 4.5 -6
      vertex 9.6437 4.91582 -6
    endloop
  endfacet
  facet normal -0.994522 -0.104529 0
    outer loop
      vertex 9.6437 -4.91582 -6
      vertex 9.6 -4.5 -2
      vertex 9.6 -4.5 -6
    endloop
  endfacet
  facet normal -0.994522 -0.104529 0
    outer loop
      vertex 9.6 -4.5 -2
      vertex 9.6437 -4.91582 -6
      vertex 9.6 -4.5 2
    endloop
  endfacet
  facet normal -0.994522 -0.104529 -0
    outer loop
      vertex 9.6437 -4.91582 6
      vertex 9.6 -4.5 2
      vertex 9.6437 -4.91582 -6
    endloop
  endfacet
  facet normal -0.994522 -0.104529 0
    outer loop
      vertex 9.6 -4.5 2
      vertex 9.6437 -4.91582 6
      vertex 9.6 -4.5 6
    endloop
  endfacet
  facet normal 0 1 -0
    outer loop
      vertex 13.8091 6.48904 -6
      vertex 11.3909 6.48904 6
      vertex 13.8091 6.48904 6
    endloop
  endfacet
  facet normal 0 1 0
    outer loop
      vertex 11.3909 6.48904 6
      vertex 13.8091 6.48904 -6
      vertex 11.3909 6.48904 -6
    endloop
  endfacet
  facet normal -0.20791 0.978148 0
    outer loop
      vertex 11.3909 6.48904 -6
      vertex 10.982 6.40211 6
      vertex 11.3909 6.48904 6
    endloop
  endfacet
  facet normal -0.20791 0.978148 0
    outer loop
      vertex 10.982 6.40211 6
      vertex 11.3909 6.48904 -6
      vertex 10.982 6.40211 -6
    endloop
  endfacet
  facet normal 0.743144 -0.669131 0
    outer loop
      vertex 14.9383 -5.98629 6
      vertex 15.218 -5.67557 -6
      vertex 15.218 -5.67557 6
    endloop
  endfacet
  facet normal 0.743144 -0.669131 0
    outer loop
      vertex 15.218 -5.67557 -6
      vertex 14.9383 -5.98629 6
      vertex 14.9383 -5.98629 -6
    endloop
  endfacet
  facet normal -0.20791 -0.978148 0
    outer loop
      vertex 10.982 -6.40211 -6
      vertex 11.3909 -6.48904 6
      vertex 10.982 -6.40211 6
    endloop
  endfacet
  facet normal -0.20791 -0.978148 -0
    outer loop
      vertex 11.3909 -6.48904 6
      vertex 10.982 -6.40211 -6
      vertex 11.3909 -6.48904 -6
    endloop
  endfacet
  facet normal -0.866026 -0.499999 0
    outer loop
      vertex 9.98197 -5.67557 -6
      vertex 9.77291 -5.31347 6
      vertex 9.77291 -5.31347 -6
    endloop
  endfacet
  facet normal -0.866026 -0.499999 0
    outer loop
      vertex 9.77291 -5.31347 6
      vertex 9.98197 -5.67557 -6
      vertex 9.98197 -5.67557 6
    endloop
  endfacet
  facet normal -0.951057 0.309016 0
    outer loop
      vertex 9.6437 4.91582 -6
      vertex 9.77291 5.31347 6
      vertex 9.77291 5.31347 -6
    endloop
  endfacet
  facet normal -0.951057 0.309016 0
    outer loop
      vertex 9.77291 5.31347 6
      vertex 9.6437 4.91582 -6
      vertex 9.6437 4.91582 6
    endloop
  endfacet
  facet normal -0.743143 0.669133 0
    outer loop
      vertex 9.98197 5.67557 -6
      vertex 10.2617 5.98629 6
      vertex 10.2617 5.98629 -6
    endloop
  endfacet
  facet normal -0.743143 0.669133 0
    outer loop
      vertex 10.2617 5.98629 6
      vertex 9.98197 5.67557 -6
      vertex 9.98197 5.67557 6
    endloop
  endfacet
  facet normal -0.587786 0.809017 0
    outer loop
      vertex 10.6 6.23205 -6
      vertex 10.2617 5.98629 6
      vertex 10.6 6.23205 6
    endloop
  endfacet
  facet normal -0.587786 0.809017 0
    outer loop
      vertex 10.2617 5.98629 6
      vertex 10.6 6.23205 -6
      vertex 10.2617 5.98629 -6
    endloop
  endfacet
  facet normal 0.587784 0.809018 -0
    outer loop
      vertex 14.9383 5.98629 -6
      vertex 14.6 6.23205 6
      vertex 14.9383 5.98629 6
    endloop
  endfacet
  facet normal 0.587784 0.809018 0
    outer loop
      vertex 14.6 6.23205 6
      vertex 14.9383 5.98629 -6
      vertex 14.6 6.23205 -6
    endloop
  endfacet
  facet normal 0.406739 0.913545 -0
    outer loop
      vertex 14.6 6.23205 -6
      vertex 14.218 6.40211 6
      vertex 14.6 6.23205 6
    endloop
  endfacet
  facet normal 0.406739 0.913545 0
    outer loop
      vertex 14.218 6.40211 6
      vertex 14.6 6.23205 -6
      vertex 14.218 6.40211 -6
    endloop
  endfacet
  facet normal 0.866026 0.499999 0
    outer loop
      vertex 15.4271 5.31347 6
      vertex 15.218 5.67557 -6
      vertex 15.218 5.67557 6
    endloop
  endfacet
  facet normal 0.866026 0.499999 0
    outer loop
      vertex 15.218 5.67557 -6
      vertex 15.4271 5.31347 6
      vertex 15.4271 5.31347 -6
    endloop
  endfacet
  facet normal 0.951057 0.309016 0
    outer loop
      vertex 15.5563 4.91582 6
      vertex 15.4271 5.31347 -6
      vertex 15.4271 5.31347 6
    endloop
  endfacet
  facet normal 0.951057 0.309016 0
    outer loop
      vertex 15.4271 5.31347 -6
      vertex 15.5563 4.91582 6
      vertex 15.5563 4.91582 -6
    endloop
  endfacet
  facet normal -0.406739 -0.913545 0
    outer loop
      vertex 10.6 -6.23205 -6
      vertex 10.982 -6.40211 6
      vertex 10.6 -6.23205 6
    endloop
  endfacet
  facet normal -0.406739 -0.913545 -0
    outer loop
      vertex 10.982 -6.40211 6
      vertex 10.6 -6.23205 -6
      vertex 10.982 -6.40211 -6
    endloop
  endfacet
endsolid OpenSCAD_Model
