solid OpenSCAD_Model
  facet normal 0 0 -1
    outer loop
      vertex 39.618 -1.17557 -5
      vertex 42 -2 -5
      vertex 41.9563 -2.41582 -5
    endloop
  endfacet
  facet normal 0 0 -1
    outer loop
      vertex 42 -2 -5
      vertex 40 0 -5
      vertex 42 2 -5
    endloop
  endfacet
  facet normal 0 0 -1
    outer loop
      vertex 39.618 -1.17557 -5
      vertex 41.9563 -2.41582 -5
      vertex 41.8271 -2.81347 -5
    endloop
  endfacet
  facet normal 0 0 -1
    outer loop
      vertex 39.9563 0.415823 -5
      vertex 42 2 -5
      vertex 40 0 -5
    endloop
  endfacet
  facet normal 0 0 -1
    outer loop
      vertex 39.3383 -1.48629 -5
      vertex 41.8271 -2.81347 -5
      vertex 41.618 -3.17557 -5
    endloop
  endfacet
  facet normal 0 0 -1
    outer loop
      vertex 39.8271 0.813473 -5
      vertex 42 2 -5
      vertex 39.9563 0.415823 -5
    endloop
  endfacet
  facet normal 0 0 -1
    outer loop
      vertex 39.3383 -1.48629 -5
      vertex 41.618 -3.17557 -5
      vertex 41.3383 -3.48629 -5
    endloop
  endfacet
  facet normal 0 0 -1
    outer loop
      vertex 39.618 1.17557 -5
      vertex 42 2 -5
      vertex 39.8271 0.813473 -5
    endloop
  endfacet
  facet normal 0 0 -1
    outer loop
      vertex 39.3383 -1.48629 -5
      vertex 41.3383 -3.48629 -5
      vertex 41 -3.73205 -5
    endloop
  endfacet
  facet normal -0 0 -1
    outer loop
      vertex 42 2 -5
      vertex 39.618 1.17557 -5
      vertex 41.9563 2.41582 -5
    endloop
  endfacet
  facet normal 0 0 -1
    outer loop
      vertex 39.3383 -1.48629 -5
      vertex 41 -3.73205 -5
      vertex 40.618 -3.90211 -5
    endloop
  endfacet
  facet normal -0 0 -1
    outer loop
      vertex 41.9563 2.41582 -5
      vertex 39.618 1.17557 -5
      vertex 41.8271 2.81347 -5
    endloop
  endfacet
  facet normal 0 0 -1
    outer loop
      vertex 39.3383 -1.48629 -5
      vertex 40.618 -3.90211 -5
      vertex 40.2091 -3.98904 -5
    endloop
  endfacet
  facet normal 0 0 -1
    outer loop
      vertex 39.3383 1.48629 -5
      vertex 41.8271 2.81347 -5
      vertex 39.618 1.17557 -5
    endloop
  endfacet
  facet normal -0 0 -1
    outer loop
      vertex 41.8271 2.81347 -5
      vertex 39.3383 1.48629 -5
      vertex 41.618 3.17557 -5
    endloop
  endfacet
  facet normal 0 0 -1
    outer loop
      vertex 42 -2 -5
      vertex 39.9563 -0.415823 -5
      vertex 40 0 -5
    endloop
  endfacet
  facet normal 0 0 -1
    outer loop
      vertex 42 -2 -5
      vertex 39.8271 -0.813473 -5
      vertex 39.9563 -0.415823 -5
    endloop
  endfacet
  facet normal 0 0 -1
    outer loop
      vertex 42 -2 -5
      vertex 39.618 -1.17557 -5
      vertex 39.8271 -0.813473 -5
    endloop
  endfacet
  facet normal 0 0 -1
    outer loop
      vertex 41.8271 -2.81347 -5
      vertex 39.3383 -1.48629 -5
      vertex 39.618 -1.17557 -5
    endloop
  endfacet
  facet normal 0 0 -1
    outer loop
      vertex 40.2091 -3.98904 -5
      vertex 39 -1.73205 -5
      vertex 39.3383 -1.48629 -5
    endloop
  endfacet
  facet normal 0 0 -1
    outer loop
      vertex 40.2091 -3.98904 -5
      vertex 38.618 -1.90211 -5
      vertex 39 -1.73205 -5
    endloop
  endfacet
  facet normal 0 0 -1
    outer loop
      vertex 40.2091 -3.98904 -5
      vertex 38.2091 -1.98904 -5
      vertex 38.618 -1.90211 -5
    endloop
  endfacet
  facet normal 0 0 -1
    outer loop
      vertex 40.2091 -3.98904 -5
      vertex 37.7909 -1.98904 -5
      vertex 38.2091 -1.98904 -5
    endloop
  endfacet
  facet normal 0 0 -1
    outer loop
      vertex 40.2091 -3.98904 -5
      vertex 37.382 -1.90211 -5
      vertex 37.7909 -1.98904 -5
    endloop
  endfacet
  facet normal 0 0 -1
    outer loop
      vertex 40.2091 -3.98904 -5
      vertex 37 -1.73205 -5
      vertex 37.382 -1.90211 -5
    endloop
  endfacet
  facet normal 0 0 -1
    outer loop
      vertex 36.0437 -0.415823 -5
      vertex 30 0 -5
      vertex 36 0 -5
    endloop
  endfacet
  facet normal 0 0 -1
    outer loop
      vertex 29.9563 -0.415823 -5
      vertex 36.0437 -0.415823 -5
      vertex 36.1729 -0.813473 -5
    endloop
  endfacet
  facet normal 0 0 -1
    outer loop
      vertex 29.8271 -0.813473 -5
      vertex 36.1729 -0.813473 -5
      vertex 36.382 -1.17557 -5
    endloop
  endfacet
  facet normal 0 0 -1
    outer loop
      vertex 29.618 -1.17557 -5
      vertex 36.382 -1.17557 -5
      vertex 36.6617 -1.48629 -5
    endloop
  endfacet
  facet normal 0 0 -1
    outer loop
      vertex 29.3383 -1.48629 -5
      vertex 36.6617 -1.48629 -5
      vertex 37 -1.73205 -5
    endloop
  endfacet
  facet normal 0 0 -1
    outer loop
      vertex 29 -1.73205 -5
      vertex 37 -1.73205 -5
      vertex 40.2091 -3.98904 -5
    endloop
  endfacet
  facet normal 0 0 -1
    outer loop
      vertex 36.0437 -0.415823 -5
      vertex 29.9563 -0.415823 -5
      vertex 30 0 -5
    endloop
  endfacet
  facet normal 0 0 -1
    outer loop
      vertex 36.1729 -0.813473 -5
      vertex 29.8271 -0.813473 -5
      vertex 29.9563 -0.415823 -5
    endloop
  endfacet
  facet normal 0 0 -1
    outer loop
      vertex 36.382 -1.17557 -5
      vertex 29.618 -1.17557 -5
      vertex 29.8271 -0.813473 -5
    endloop
  endfacet
  facet normal 0 0 -1
    outer loop
      vertex 36.6617 -1.48629 -5
      vertex 29.3383 -1.48629 -5
      vertex 29.618 -1.17557 -5
    endloop
  endfacet
  facet normal 0 0 -1
    outer loop
      vertex 37 -1.73205 -5
      vertex 29 -1.73205 -5
      vertex 29.3383 -1.48629 -5
    endloop
  endfacet
  facet normal 0 0 -1
    outer loop
      vertex 40.2091 -3.98904 -5
      vertex 28.618 -1.90211 -5
      vertex 29 -1.73205 -5
    endloop
  endfacet
  facet normal 0 0 -1
    outer loop
      vertex 40.2091 -3.98904 -5
      vertex 28.2091 -1.98904 -5
      vertex 28.618 -1.90211 -5
    endloop
  endfacet
  facet normal 0 0 -1
    outer loop
      vertex 40.2091 -3.98904 -5
      vertex 27.7909 -1.98904 -5
      vertex 28.2091 -1.98904 -5
    endloop
  endfacet
  facet normal 0 0 -1
    outer loop
      vertex 26.0437 -0.415823 -5
      vertex 20 0 -5
      vertex 26 0 -5
    endloop
  endfacet
  facet normal 0 0 -1
    outer loop
      vertex 19.9563 -0.415823 -5
      vertex 26.0437 -0.415823 -5
      vertex 26.1729 -0.813473 -5
    endloop
  endfacet
  facet normal 0 0 -1
    outer loop
      vertex 19.8271 -0.813473 -5
      vertex 26.1729 -0.813473 -5
      vertex 26.382 -1.17557 -5
    endloop
  endfacet
  facet normal 0 0 -1
    outer loop
      vertex 19.618 -1.17557 -5
      vertex 26.382 -1.17557 -5
      vertex 26.6617 -1.48629 -5
    endloop
  endfacet
  facet normal 0 0 -1
    outer loop
      vertex 19.3383 -1.48629 -5
      vertex 26.6617 -1.48629 -5
      vertex 27 -1.73205 -5
    endloop
  endfacet
  facet normal 0 0 -1
    outer loop
      vertex 19 -1.73205 -5
      vertex 27 -1.73205 -5
      vertex 27.382 -1.90211 -5
    endloop
  endfacet
  facet normal 0 0 -1
    outer loop
      vertex 26.0437 -0.415823 -5
      vertex 19.9563 -0.415823 -5
      vertex 20 0 -5
    endloop
  endfacet
  facet normal 0 0 -1
    outer loop
      vertex 18.618 -1.90211 -5
      vertex 27.382 -1.90211 -5
      vertex 27.7909 -1.98904 -5
    endloop
  endfacet
  facet normal 0 0 -1
    outer loop
      vertex 26.1729 -0.813473 -5
      vertex 19.8271 -0.813473 -5
      vertex 19.9563 -0.415823 -5
    endloop
  endfacet
  facet normal 0 0 -1
    outer loop
      vertex 18.2091 -1.98904 -5
      vertex 27.7909 -1.98904 -5
      vertex 40.2091 -3.98904 -5
    endloop
  endfacet
  facet normal 0 0 -1
    outer loop
      vertex 26.382 -1.17557 -5
      vertex 19.618 -1.17557 -5
      vertex 19.8271 -0.813473 -5
    endloop
  endfacet
  facet normal 0 0 -1
    outer loop
      vertex 26.6617 -1.48629 -5
      vertex 19.3383 -1.48629 -5
      vertex 19.618 -1.17557 -5
    endloop
  endfacet
  facet normal 0 0 -1
    outer loop
      vertex 27 -1.73205 -5
      vertex 19 -1.73205 -5
      vertex 19.3383 -1.48629 -5
    endloop
  endfacet
  facet normal 0 0 -1
    outer loop
      vertex 27.382 -1.90211 -5
      vertex 18.618 -1.90211 -5
      vertex 19 -1.73205 -5
    endloop
  endfacet
  facet normal 0 0 -1
    outer loop
      vertex 27.7909 -1.98904 -5
      vertex 18.2091 -1.98904 -5
      vertex 18.618 -1.90211 -5
    endloop
  endfacet
  facet normal 0 0 -1
    outer loop
      vertex -0.209057 -3.98904 -5
      vertex 18.2091 -1.98904 -5
      vertex 40.2091 -3.98904 -5
    endloop
  endfacet
  facet normal 0 0 -1
    outer loop
      vertex 16.0437 -0.415823 -5
      vertex 10 0 -5
      vertex 16 0 -5
    endloop
  endfacet
  facet normal 0 0 -1
    outer loop
      vertex 9.9563 -0.415823 -5
      vertex 16.0437 -0.415823 -5
      vertex 16.1729 -0.813473 -5
    endloop
  endfacet
  facet normal 0 0 -1
    outer loop
      vertex 9.82709 -0.813473 -5
      vertex 16.1729 -0.813473 -5
      vertex 16.382 -1.17557 -5
    endloop
  endfacet
  facet normal 0 0 -1
    outer loop
      vertex 9.61803 -1.17557 -5
      vertex 16.382 -1.17557 -5
      vertex 16.6617 -1.48629 -5
    endloop
  endfacet
  facet normal 0 0 -1
    outer loop
      vertex 9.33826 -1.48629 -5
      vertex 16.6617 -1.48629 -5
      vertex 17 -1.73205 -5
    endloop
  endfacet
  facet normal 0 0 -1
    outer loop
      vertex 9 -1.73205 -5
      vertex 17 -1.73205 -5
      vertex 17.382 -1.90211 -5
    endloop
  endfacet
  facet normal 0 0 -1
    outer loop
      vertex 16.0437 -0.415823 -5
      vertex 9.9563 -0.415823 -5
      vertex 10 0 -5
    endloop
  endfacet
  facet normal 0 0 -1
    outer loop
      vertex 8.61803 -1.90211 -5
      vertex 17.382 -1.90211 -5
      vertex 17.7909 -1.98904 -5
    endloop
  endfacet
  facet normal 0 0 -1
    outer loop
      vertex 16.1729 -0.813473 -5
      vertex 9.82709 -0.813473 -5
      vertex 9.9563 -0.415823 -5
    endloop
  endfacet
  facet normal 0 0 -1
    outer loop
      vertex 16.382 -1.17557 -5
      vertex 9.61803 -1.17557 -5
      vertex 9.82709 -0.813473 -5
    endloop
  endfacet
  facet normal 0 0 -1
    outer loop
      vertex 16.6617 -1.48629 -5
      vertex 9.33826 -1.48629 -5
      vertex 9.61803 -1.17557 -5
    endloop
  endfacet
  facet normal -0 0 -1
    outer loop
      vertex 18.2091 -1.98904 -5
      vertex -0.209057 -3.98904 -5
      vertex 17.7909 -1.98904 -5
    endloop
  endfacet
  facet normal 0 0 -1
    outer loop
      vertex 17 -1.73205 -5
      vertex 9 -1.73205 -5
      vertex 9.33826 -1.48629 -5
    endloop
  endfacet
  facet normal 0 0 -1
    outer loop
      vertex 17.382 -1.90211 -5
      vertex 8.61803 -1.90211 -5
      vertex 9 -1.73205 -5
    endloop
  endfacet
  facet normal 0 0 -1
    outer loop
      vertex 17.7909 -1.98904 -5
      vertex 8.20906 -1.98904 -5
      vertex 8.61803 -1.90211 -5
    endloop
  endfacet
  facet normal -0 0 -1
    outer loop
      vertex 17.7909 -1.98904 -5
      vertex -0.209057 -3.98904 -5
      vertex 8.20906 -1.98904 -5
    endloop
  endfacet
  facet normal -0 0 -1
    outer loop
      vertex 6.0437 -0.415823 -5
      vertex -0.209057 -3.98904 -5
      vertex 6 0 -5
    endloop
  endfacet
  facet normal -0 0 -1
    outer loop
      vertex 6.17291 -0.813473 -5
      vertex -0.209057 -3.98904 -5
      vertex 6.0437 -0.415823 -5
    endloop
  endfacet
  facet normal -0 0 -1
    outer loop
      vertex 6.38197 -1.17557 -5
      vertex -0.209057 -3.98904 -5
      vertex 6.17291 -0.813473 -5
    endloop
  endfacet
  facet normal -0 0 -1
    outer loop
      vertex 6.66174 -1.48629 -5
      vertex -0.209057 -3.98904 -5
      vertex 6.38197 -1.17557 -5
    endloop
  endfacet
  facet normal -0 0 -1
    outer loop
      vertex 7 -1.73205 -5
      vertex -0.209057 -3.98904 -5
      vertex 6.66174 -1.48629 -5
    endloop
  endfacet
  facet normal -0 0 -1
    outer loop
      vertex 7.38197 -1.90211 -5
      vertex -0.209057 -3.98904 -5
      vertex 7 -1.73205 -5
    endloop
  endfacet
  facet normal -0 0 -1
    outer loop
      vertex 7.79094 -1.98904 -5
      vertex -0.209057 -3.98904 -5
      vertex 7.38197 -1.90211 -5
    endloop
  endfacet
  facet normal -0 0 -1
    outer loop
      vertex 8.20906 -1.98904 -5
      vertex -0.209057 -3.98904 -5
      vertex 7.79094 -1.98904 -5
    endloop
  endfacet
  facet normal -0 0 -1
    outer loop
      vertex 41.618 3.17557 -5
      vertex 39.3383 1.48629 -5
      vertex 41.3383 3.48629 -5
    endloop
  endfacet
  facet normal -0 0 -1
    outer loop
      vertex 41.3383 3.48629 -5
      vertex 39.3383 1.48629 -5
      vertex 41 3.73205 -5
    endloop
  endfacet
  facet normal -0 0 -1
    outer loop
      vertex 41 3.73205 -5
      vertex 39.3383 1.48629 -5
      vertex 40.618 3.90211 -5
    endloop
  endfacet
  facet normal -0 0 -1
    outer loop
      vertex 40.618 3.90211 -5
      vertex 39.3383 1.48629 -5
      vertex 40.2091 3.98904 -5
    endloop
  endfacet
  facet normal 0 0 -1
    outer loop
      vertex 39 1.73205 -5
      vertex 40.2091 3.98904 -5
      vertex 39.3383 1.48629 -5
    endloop
  endfacet
  facet normal 0 0 -1
    outer loop
      vertex 38.618 1.90211 -5
      vertex 40.2091 3.98904 -5
      vertex 39 1.73205 -5
    endloop
  endfacet
  facet normal 0 0 -1
    outer loop
      vertex 38.2091 1.98904 -5
      vertex 40.2091 3.98904 -5
      vertex 38.618 1.90211 -5
    endloop
  endfacet
  facet normal 0 0 -1
    outer loop
      vertex 37.7909 1.98904 -5
      vertex 40.2091 3.98904 -5
      vertex 38.2091 1.98904 -5
    endloop
  endfacet
  facet normal 0 0 -1
    outer loop
      vertex 37.382 1.90211 -5
      vertex 40.2091 3.98904 -5
      vertex 37.7909 1.98904 -5
    endloop
  endfacet
  facet normal 0 0 -1
    outer loop
      vertex 37 1.73205 -5
      vertex 40.2091 3.98904 -5
      vertex 37.382 1.90211 -5
    endloop
  endfacet
  facet normal 0 0 -1
    outer loop
      vertex 30 0 -5
      vertex 36.0437 0.415823 -5
      vertex 36 0 -5
    endloop
  endfacet
  facet normal 0 0 -1
    outer loop
      vertex 29.9563 0.415823 -5
      vertex 36.0437 0.415823 -5
      vertex 30 0 -5
    endloop
  endfacet
  facet normal 0 0 -1
    outer loop
      vertex 36.0437 0.415823 -5
      vertex 29.9563 0.415823 -5
      vertex 36.1729 0.813473 -5
    endloop
  endfacet
  facet normal 0 0 -1
    outer loop
      vertex 29.8271 0.813473 -5
      vertex 36.1729 0.813473 -5
      vertex 29.9563 0.415823 -5
    endloop
  endfacet
  facet normal 0 0 -1
    outer loop
      vertex 36.1729 0.813473 -5
      vertex 29.8271 0.813473 -5
      vertex 36.382 1.17557 -5
    endloop
  endfacet
  facet normal 0 0 -1
    outer loop
      vertex 29.618 1.17557 -5
      vertex 36.382 1.17557 -5
      vertex 29.8271 0.813473 -5
    endloop
  endfacet
  facet normal 0 0 -1
    outer loop
      vertex 36.382 1.17557 -5
      vertex 29.618 1.17557 -5
      vertex 36.6617 1.48629 -5
    endloop
  endfacet
  facet normal 0 0 -1
    outer loop
      vertex 29.3383 1.48629 -5
      vertex 36.6617 1.48629 -5
      vertex 29.618 1.17557 -5
    endloop
  endfacet
  facet normal 0 0 -1
    outer loop
      vertex 36.6617 1.48629 -5
      vertex 29.3383 1.48629 -5
      vertex 37 1.73205 -5
    endloop
  endfacet
  facet normal 0 0 -1
    outer loop
      vertex 29 1.73205 -5
      vertex 37 1.73205 -5
      vertex 29.3383 1.48629 -5
    endloop
  endfacet
  facet normal 0 0 -1
    outer loop
      vertex 37 1.73205 -5
      vertex 29 1.73205 -5
      vertex 40.2091 3.98904 -5
    endloop
  endfacet
  facet normal 0 0 -1
    outer loop
      vertex 28.618 1.90211 -5
      vertex 40.2091 3.98904 -5
      vertex 29 1.73205 -5
    endloop
  endfacet
  facet normal 0 0 -1
    outer loop
      vertex 28.2091 1.98904 -5
      vertex 40.2091 3.98904 -5
      vertex 28.618 1.90211 -5
    endloop
  endfacet
  facet normal 0 0 -1
    outer loop
      vertex 27.7909 1.98904 -5
      vertex 40.2091 3.98904 -5
      vertex 28.2091 1.98904 -5
    endloop
  endfacet
  facet normal 0 0 -1
    outer loop
      vertex 20 0 -5
      vertex 26.0437 0.415823 -5
      vertex 26 0 -5
    endloop
  endfacet
  facet normal 0 0 -1
    outer loop
      vertex 19.9563 0.415823 -5
      vertex 26.0437 0.415823 -5
      vertex 20 0 -5
    endloop
  endfacet
  facet normal 0 0 -1
    outer loop
      vertex 26.0437 0.415823 -5
      vertex 19.9563 0.415823 -5
      vertex 26.1729 0.813473 -5
    endloop
  endfacet
  facet normal 0 0 -1
    outer loop
      vertex 19.8271 0.813473 -5
      vertex 26.1729 0.813473 -5
      vertex 19.9563 0.415823 -5
    endloop
  endfacet
  facet normal 0 0 -1
    outer loop
      vertex 26.1729 0.813473 -5
      vertex 19.8271 0.813473 -5
      vertex 26.382 1.17557 -5
    endloop
  endfacet
  facet normal 0 0 -1
    outer loop
      vertex 19.618 1.17557 -5
      vertex 26.382 1.17557 -5
      vertex 19.8271 0.813473 -5
    endloop
  endfacet
  facet normal 0 0 -1
    outer loop
      vertex 26.382 1.17557 -5
      vertex 19.618 1.17557 -5
      vertex 26.6617 1.48629 -5
    endloop
  endfacet
  facet normal 0 0 -1
    outer loop
      vertex 19.3383 1.48629 -5
      vertex 26.6617 1.48629 -5
      vertex 19.618 1.17557 -5
    endloop
  endfacet
  facet normal 0 0 -1
    outer loop
      vertex 26.6617 1.48629 -5
      vertex 19.3383 1.48629 -5
      vertex 27 1.73205 -5
    endloop
  endfacet
  facet normal 0 0 -1
    outer loop
      vertex 19 1.73205 -5
      vertex 27 1.73205 -5
      vertex 19.3383 1.48629 -5
    endloop
  endfacet
  facet normal 0 0 -1
    outer loop
      vertex 27 1.73205 -5
      vertex 19 1.73205 -5
      vertex 27.382 1.90211 -5
    endloop
  endfacet
  facet normal 0 0 -1
    outer loop
      vertex 18.618 1.90211 -5
      vertex 27.382 1.90211 -5
      vertex 19 1.73205 -5
    endloop
  endfacet
  facet normal 0 0 -1
    outer loop
      vertex 27.382 1.90211 -5
      vertex 18.618 1.90211 -5
      vertex 27.7909 1.98904 -5
    endloop
  endfacet
  facet normal 0 0 -1
    outer loop
      vertex 18.2091 1.98904 -5
      vertex 27.7909 1.98904 -5
      vertex 18.618 1.90211 -5
    endloop
  endfacet
  facet normal 0 0 -1
    outer loop
      vertex 27.7909 1.98904 -5
      vertex 18.2091 1.98904 -5
      vertex 40.2091 3.98904 -5
    endloop
  endfacet
  facet normal 0 0 -1
    outer loop
      vertex -0.209057 3.98904 -5
      vertex 18.2091 1.98904 -5
      vertex 17.7909 1.98904 -5
    endloop
  endfacet
  facet normal 0 0 -1
    outer loop
      vertex 10 0 -5
      vertex 16.0437 0.415823 -5
      vertex 16 0 -5
    endloop
  endfacet
  facet normal 0 0 -1
    outer loop
      vertex 9.9563 0.415823 -5
      vertex 16.0437 0.415823 -5
      vertex 10 0 -5
    endloop
  endfacet
  facet normal 0 0 -1
    outer loop
      vertex 16.0437 0.415823 -5
      vertex 9.9563 0.415823 -5
      vertex 16.1729 0.813473 -5
    endloop
  endfacet
  facet normal 0 0 -1
    outer loop
      vertex 9.82709 0.813473 -5
      vertex 16.1729 0.813473 -5
      vertex 9.9563 0.415823 -5
    endloop
  endfacet
  facet normal 0 0 -1
    outer loop
      vertex 16.1729 0.813473 -5
      vertex 9.82709 0.813473 -5
      vertex 16.382 1.17557 -5
    endloop
  endfacet
  facet normal 0 0 -1
    outer loop
      vertex 9.61803 1.17557 -5
      vertex 16.382 1.17557 -5
      vertex 9.82709 0.813473 -5
    endloop
  endfacet
  facet normal 0 0 -1
    outer loop
      vertex 16.382 1.17557 -5
      vertex 9.61803 1.17557 -5
      vertex 16.6617 1.48629 -5
    endloop
  endfacet
  facet normal 0 0 -1
    outer loop
      vertex 9.33826 1.48629 -5
      vertex 16.6617 1.48629 -5
      vertex 9.61803 1.17557 -5
    endloop
  endfacet
  facet normal 0 0 -1
    outer loop
      vertex 16.6617 1.48629 -5
      vertex 9.33826 1.48629 -5
      vertex 17 1.73205 -5
    endloop
  endfacet
  facet normal 0 0 -1
    outer loop
      vertex 9 1.73205 -5
      vertex 17 1.73205 -5
      vertex 9.33826 1.48629 -5
    endloop
  endfacet
  facet normal 0 0 -1
    outer loop
      vertex 17 1.73205 -5
      vertex 9 1.73205 -5
      vertex 17.382 1.90211 -5
    endloop
  endfacet
  facet normal 0 0 -1
    outer loop
      vertex 8.61803 1.90211 -5
      vertex 17.382 1.90211 -5
      vertex 9 1.73205 -5
    endloop
  endfacet
  facet normal 0 0 -1
    outer loop
      vertex 17.382 1.90211 -5
      vertex 8.61803 1.90211 -5
      vertex 17.7909 1.98904 -5
    endloop
  endfacet
  facet normal 0 0 -1
    outer loop
      vertex 8.20906 1.98904 -5
      vertex 17.7909 1.98904 -5
      vertex 8.61803 1.90211 -5
    endloop
  endfacet
  facet normal 0 0 -1
    outer loop
      vertex -0.209057 3.98904 -5
      vertex 17.7909 1.98904 -5
      vertex 8.20906 1.98904 -5
    endloop
  endfacet
  facet normal 0 0 -1
    outer loop
      vertex -0.209057 3.98904 -5
      vertex 8.20906 1.98904 -5
      vertex 7.79094 1.98904 -5
    endloop
  endfacet
  facet normal 0 0 -1
    outer loop
      vertex -2 -2 -5
      vertex 6 0 -5
      vertex -0.209057 -3.98904 -5
    endloop
  endfacet
  facet normal 0 0 -1
    outer loop
      vertex -2 2 -5
      vertex 6 0 -5
      vertex -2 -2 -5
    endloop
  endfacet
  facet normal 0 -0 -1
    outer loop
      vertex -0.209057 3.98904 -5
      vertex 6 0 -5
      vertex -2 2 -5
    endloop
  endfacet
  facet normal 0 0 -1
    outer loop
      vertex 6 0 -5
      vertex -0.209057 3.98904 -5
      vertex 6.0437 0.415823 -5
    endloop
  endfacet
  facet normal 0 0 -1
    outer loop
      vertex 18.2091 1.98904 -5
      vertex -0.209057 3.98904 -5
      vertex 40.2091 3.98904 -5
    endloop
  endfacet
  facet normal 0 0 -1
    outer loop
      vertex 7.38197 1.90211 -5
      vertex -0.209057 3.98904 -5
      vertex 7.79094 1.98904 -5
    endloop
  endfacet
  facet normal 0 0 -1
    outer loop
      vertex 7 1.73205 -5
      vertex -0.209057 3.98904 -5
      vertex 7.38197 1.90211 -5
    endloop
  endfacet
  facet normal 0 0 -1
    outer loop
      vertex 6.66174 1.48629 -5
      vertex -0.209057 3.98904 -5
      vertex 7 1.73205 -5
    endloop
  endfacet
  facet normal 0 0 -1
    outer loop
      vertex 6.38197 1.17557 -5
      vertex -0.209057 3.98904 -5
      vertex 6.66174 1.48629 -5
    endloop
  endfacet
  facet normal 0 0 -1
    outer loop
      vertex -2 -2 -5
      vertex -0.209057 -3.98904 -5
      vertex -0.618033 -3.90211 -5
    endloop
  endfacet
  facet normal 0 0 -1
    outer loop
      vertex 6.0437 0.415823 -5
      vertex -0.209057 3.98904 -5
      vertex 6.17291 0.813473 -5
    endloop
  endfacet
  facet normal 0 0 -1
    outer loop
      vertex -0.209057 3.98904 -5
      vertex -2 2 -5
      vertex -0.618033 3.90211 -5
    endloop
  endfacet
  facet normal 0 0 -1
    outer loop
      vertex -2 -2 -5
      vertex -0.618033 -3.90211 -5
      vertex -1 -3.73205 -5
    endloop
  endfacet
  facet normal 0 0 -1
    outer loop
      vertex -2 -2 -5
      vertex -1 -3.73205 -5
      vertex -1.33826 -3.48629 -5
    endloop
  endfacet
  facet normal 0 0 -1
    outer loop
      vertex 6.17291 0.813473 -5
      vertex -0.209057 3.98904 -5
      vertex 6.38197 1.17557 -5
    endloop
  endfacet
  facet normal 0 0 -1
    outer loop
      vertex -2 -2 -5
      vertex -1.33826 -3.48629 -5
      vertex -1.61803 -3.17557 -5
    endloop
  endfacet
  facet normal 0 0 -1
    outer loop
      vertex -0.618033 3.90211 -5
      vertex -2 2 -5
      vertex -0.999999 3.73205 -5
    endloop
  endfacet
  facet normal 0 0 -1
    outer loop
      vertex -2 -2 -5
      vertex -1.61803 -3.17557 -5
      vertex -1.82709 -2.81347 -5
    endloop
  endfacet
  facet normal 0 0 -1
    outer loop
      vertex -0.999999 3.73205 -5
      vertex -2 2 -5
      vertex -1.33826 3.48629 -5
    endloop
  endfacet
  facet normal 0 0 -1
    outer loop
      vertex -2 -2 -5
      vertex -1.82709 -2.81347 -5
      vertex -1.9563 -2.41582 -5
    endloop
  endfacet
  facet normal 0 0 -1
    outer loop
      vertex -1.33826 3.48629 -5
      vertex -2 2 -5
      vertex -1.61803 3.17557 -5
    endloop
  endfacet
  facet normal 0 0 -1
    outer loop
      vertex -1.61803 3.17557 -5
      vertex -2 2 -5
      vertex -1.82709 2.81347 -5
    endloop
  endfacet
  facet normal 0 0 -1
    outer loop
      vertex -1.82709 2.81347 -5
      vertex -2 2 -5
      vertex -1.9563 2.41582 -5
    endloop
  endfacet
  facet normal -1 0 0
    outer loop
      vertex -2 -2 -5
      vertex -2 2 5
      vertex -2 2 -5
    endloop
  endfacet
  facet normal -1 -0 0
    outer loop
      vertex -2 2 5
      vertex -2 -2 -5
      vertex -2 -2 5
    endloop
  endfacet
  facet normal 0.20791 -0.978148 0
    outer loop
      vertex 40.2091 -3.98904 -5
      vertex 40.618 -3.90211 5
      vertex 40.2091 -3.98904 5
    endloop
  endfacet
  facet normal 0.20791 -0.978148 0
    outer loop
      vertex 40.618 -3.90211 5
      vertex 40.2091 -3.98904 -5
      vertex 40.618 -3.90211 -5
    endloop
  endfacet
  facet normal 0 -1 0
    outer loop
      vertex -0.209057 -3.98904 -5
      vertex 40.2091 -3.98904 5
      vertex -0.209057 -3.98904 5
    endloop
  endfacet
  facet normal 0 -1 -0
    outer loop
      vertex 40.2091 -3.98904 5
      vertex -0.209057 -3.98904 -5
      vertex 40.2091 -3.98904 -5
    endloop
  endfacet
  facet normal 1 -0 0
    outer loop
      vertex 42 -2 5
      vertex 42 2 -5
      vertex 42 2 5
    endloop
  endfacet
  facet normal 1 0 0
    outer loop
      vertex 42 2 -5
      vertex 42 -2 5
      vertex 42 -2 -5
    endloop
  endfacet
  facet normal 0 1 -0
    outer loop
      vertex 40.2091 3.98904 -5
      vertex -0.209057 3.98904 5
      vertex 40.2091 3.98904 5
    endloop
  endfacet
  facet normal 0 1 0
    outer loop
      vertex -0.209057 3.98904 5
      vertex 40.2091 3.98904 -5
      vertex -0.209057 3.98904 -5
    endloop
  endfacet
  facet normal -0.994522 -0.104529 0
    outer loop
      vertex -1.9563 -2.41582 -5
      vertex -2 -2 5
      vertex -2 -2 -5
    endloop
  endfacet
  facet normal -0.994522 -0.104529 0
    outer loop
      vertex -2 -2 5
      vertex -1.9563 -2.41582 -5
      vertex -1.9563 -2.41582 5
    endloop
  endfacet
  facet normal -0.207911 -0.978148 0
    outer loop
      vertex -0.618033 -3.90211 -5
      vertex -0.209057 -3.98904 5
      vertex -0.618033 -3.90211 5
    endloop
  endfacet
  facet normal -0.207911 -0.978148 -0
    outer loop
      vertex -0.209057 -3.98904 5
      vertex -0.618033 -3.90211 -5
      vertex -0.209057 -3.98904 -5
    endloop
  endfacet
  facet normal 0.994522 -0.104529 0
    outer loop
      vertex 41.9563 -2.41582 5
      vertex 42 -2 -5
      vertex 42 -2 5
    endloop
  endfacet
  facet normal 0.994522 -0.104529 0
    outer loop
      vertex 42 -2 -5
      vertex 41.9563 -2.41582 5
      vertex 41.9563 -2.41582 -5
    endloop
  endfacet
  facet normal -0.994522 0.104529 0
    outer loop
      vertex -2 2 -5
      vertex -1.9563 2.41582 5
      vertex -1.9563 2.41582 -5
    endloop
  endfacet
  facet normal -0.994522 0.104529 0
    outer loop
      vertex -1.9563 2.41582 5
      vertex -2 2 -5
      vertex -2 2 5
    endloop
  endfacet
  facet normal -0.951056 0.309018 0
    outer loop
      vertex -1.9563 2.41582 -5
      vertex -1.82709 2.81347 5
      vertex -1.82709 2.81347 -5
    endloop
  endfacet
  facet normal -0.951056 0.309018 0
    outer loop
      vertex -1.82709 2.81347 5
      vertex -1.9563 2.41582 -5
      vertex -1.9563 2.41582 5
    endloop
  endfacet
  facet normal 0.406739 -0.913545 0
    outer loop
      vertex 40.618 -3.90211 -5
      vertex 41 -3.73205 5
      vertex 40.618 -3.90211 5
    endloop
  endfacet
  facet normal 0.406739 -0.913545 0
    outer loop
      vertex 41 -3.73205 5
      vertex 40.618 -3.90211 -5
      vertex 41 -3.73205 -5
    endloop
  endfacet
  facet normal -0.743144 -0.669131 0
    outer loop
      vertex -1.33826 -3.48629 -5
      vertex -1.61803 -3.17557 5
      vertex -1.61803 -3.17557 -5
    endloop
  endfacet
  facet normal -0.743144 -0.669131 0
    outer loop
      vertex -1.61803 -3.17557 5
      vertex -1.33826 -3.48629 -5
      vertex -1.33826 -3.48629 5
    endloop
  endfacet
  facet normal 0.743143 0.669133 0
    outer loop
      vertex 41.618 3.17557 5
      vertex 41.3383 3.48629 -5
      vertex 41.3383 3.48629 5
    endloop
  endfacet
  facet normal 0.743143 0.669133 0
    outer loop
      vertex 41.3383 3.48629 -5
      vertex 41.618 3.17557 5
      vertex 41.618 3.17557 -5
    endloop
  endfacet
  facet normal 0.951057 -0.309016 0
    outer loop
      vertex 41.8271 -2.81347 5
      vertex 41.9563 -2.41582 -5
      vertex 41.9563 -2.41582 5
    endloop
  endfacet
  facet normal 0.951057 -0.309016 0
    outer loop
      vertex 41.9563 -2.41582 -5
      vertex 41.8271 -2.81347 5
      vertex 41.8271 -2.81347 -5
    endloop
  endfacet
  facet normal 0.743143 -0.669133 0
    outer loop
      vertex 41.3383 -3.48629 5
      vertex 41.618 -3.17557 -5
      vertex 41.618 -3.17557 5
    endloop
  endfacet
  facet normal 0.743143 -0.669133 0
    outer loop
      vertex 41.618 -3.17557 -5
      vertex 41.3383 -3.48629 5
      vertex 41.3383 -3.48629 -5
    endloop
  endfacet
  facet normal 0 0 1
    outer loop
      vertex 39.618 1.17557 5
      vertex 42 2 5
      vertex 41.9563 2.41582 5
    endloop
  endfacet
  facet normal 0 0 1
    outer loop
      vertex 42 2 5
      vertex 40 0 5
      vertex 42 -2 5
    endloop
  endfacet
  facet normal 0 0 1
    outer loop
      vertex 39.618 1.17557 5
      vertex 41.9563 2.41582 5
      vertex 41.8271 2.81347 5
    endloop
  endfacet
  facet normal -0 0 1
    outer loop
      vertex 39.9563 -0.415823 5
      vertex 42 -2 5
      vertex 40 0 5
    endloop
  endfacet
  facet normal 0 0 1
    outer loop
      vertex 39.3383 1.48629 5
      vertex 41.8271 2.81347 5
      vertex 41.618 3.17557 5
    endloop
  endfacet
  facet normal -0 0 1
    outer loop
      vertex 39.8271 -0.813473 5
      vertex 42 -2 5
      vertex 39.9563 -0.415823 5
    endloop
  endfacet
  facet normal 0 0 1
    outer loop
      vertex 39.3383 1.48629 5
      vertex 41.618 3.17557 5
      vertex 41.3383 3.48629 5
    endloop
  endfacet
  facet normal -0 0 1
    outer loop
      vertex 39.618 -1.17557 5
      vertex 42 -2 5
      vertex 39.8271 -0.813473 5
    endloop
  endfacet
  facet normal 0 0 1
    outer loop
      vertex 39.3383 1.48629 5
      vertex 41.3383 3.48629 5
      vertex 41 3.73205 5
    endloop
  endfacet
  facet normal 0 0 1
    outer loop
      vertex 42 -2 5
      vertex 39.618 -1.17557 5
      vertex 41.9563 -2.41582 5
    endloop
  endfacet
  facet normal 0 0 1
    outer loop
      vertex 39.3383 1.48629 5
      vertex 41 3.73205 5
      vertex 40.618 3.90211 5
    endloop
  endfacet
  facet normal 0 0 1
    outer loop
      vertex 41.9563 -2.41582 5
      vertex 39.618 -1.17557 5
      vertex 41.8271 -2.81347 5
    endloop
  endfacet
  facet normal 0 0 1
    outer loop
      vertex 39.3383 1.48629 5
      vertex 40.618 3.90211 5
      vertex 40.2091 3.98904 5
    endloop
  endfacet
  facet normal -0 0 1
    outer loop
      vertex 39.3383 -1.48629 5
      vertex 41.8271 -2.81347 5
      vertex 39.618 -1.17557 5
    endloop
  endfacet
  facet normal 0 0 1
    outer loop
      vertex 41.8271 -2.81347 5
      vertex 39.3383 -1.48629 5
      vertex 41.618 -3.17557 5
    endloop
  endfacet
  facet normal 0 0 1
    outer loop
      vertex 42 2 5
      vertex 39.9563 0.415823 5
      vertex 40 0 5
    endloop
  endfacet
  facet normal 0 0 1
    outer loop
      vertex 42 2 5
      vertex 39.8271 0.813473 5
      vertex 39.9563 0.415823 5
    endloop
  endfacet
  facet normal 0 0 1
    outer loop
      vertex 42 2 5
      vertex 39.618 1.17557 5
      vertex 39.8271 0.813473 5
    endloop
  endfacet
  facet normal 0 0 1
    outer loop
      vertex 41.8271 2.81347 5
      vertex 39.3383 1.48629 5
      vertex 39.618 1.17557 5
    endloop
  endfacet
  facet normal 0 0 1
    outer loop
      vertex 40.2091 3.98904 5
      vertex 39 1.73205 5
      vertex 39.3383 1.48629 5
    endloop
  endfacet
  facet normal 0 0 1
    outer loop
      vertex 40.2091 3.98904 5
      vertex 38.618 1.90211 5
      vertex 39 1.73205 5
    endloop
  endfacet
  facet normal 0 0 1
    outer loop
      vertex 40.2091 3.98904 5
      vertex 38.2091 1.98904 5
      vertex 38.618 1.90211 5
    endloop
  endfacet
  facet normal 0 0 1
    outer loop
      vertex 40.2091 3.98904 5
      vertex 37.7909 1.98904 5
      vertex 38.2091 1.98904 5
    endloop
  endfacet
  facet normal 0 0 1
    outer loop
      vertex 40.2091 3.98904 5
      vertex 37.382 1.90211 5
      vertex 37.7909 1.98904 5
    endloop
  endfacet
  facet normal 0 0 1
    outer loop
      vertex 40.2091 3.98904 5
      vertex 37 1.73205 5
      vertex 37.382 1.90211 5
    endloop
  endfacet
  facet normal 0 0 1
    outer loop
      vertex 36.0437 0.415823 5
      vertex 30 0 5
      vertex 36 0 5
    endloop
  endfacet
  facet normal 0 0 1
    outer loop
      vertex 29.9563 0.415823 5
      vertex 36.0437 0.415823 5
      vertex 36.1729 0.813473 5
    endloop
  endfacet
  facet normal 0 0 1
    outer loop
      vertex 29.8271 0.813473 5
      vertex 36.1729 0.813473 5
      vertex 36.382 1.17557 5
    endloop
  endfacet
  facet normal 0 0 1
    outer loop
      vertex 29.618 1.17557 5
      vertex 36.382 1.17557 5
      vertex 36.6617 1.48629 5
    endloop
  endfacet
  facet normal 0 0 1
    outer loop
      vertex 29.3383 1.48629 5
      vertex 36.6617 1.48629 5
      vertex 37 1.73205 5
    endloop
  endfacet
  facet normal 0 0 1
    outer loop
      vertex 29 1.73205 5
      vertex 37 1.73205 5
      vertex 40.2091 3.98904 5
    endloop
  endfacet
  facet normal 0 0 1
    outer loop
      vertex 36.0437 0.415823 5
      vertex 29.9563 0.415823 5
      vertex 30 0 5
    endloop
  endfacet
  facet normal 0 0 1
    outer loop
      vertex 36.1729 0.813473 5
      vertex 29.8271 0.813473 5
      vertex 29.9563 0.415823 5
    endloop
  endfacet
  facet normal 0 0 1
    outer loop
      vertex 36.382 1.17557 5
      vertex 29.618 1.17557 5
      vertex 29.8271 0.813473 5
    endloop
  endfacet
  facet normal 0 0 1
    outer loop
      vertex 36.6617 1.48629 5
      vertex 29.3383 1.48629 5
      vertex 29.618 1.17557 5
    endloop
  endfacet
  facet normal 0 0 1
    outer loop
      vertex 37 1.73205 5
      vertex 29 1.73205 5
      vertex 29.3383 1.48629 5
    endloop
  endfacet
  facet normal 0 0 1
    outer loop
      vertex 40.2091 3.98904 5
      vertex 28.618 1.90211 5
      vertex 29 1.73205 5
    endloop
  endfacet
  facet normal 0 0 1
    outer loop
      vertex 40.2091 3.98904 5
      vertex 28.2091 1.98904 5
      vertex 28.618 1.90211 5
    endloop
  endfacet
  facet normal 0 0 1
    outer loop
      vertex 40.2091 3.98904 5
      vertex 27.7909 1.98904 5
      vertex 28.2091 1.98904 5
    endloop
  endfacet
  facet normal 0 0 1
    outer loop
      vertex 26.0437 0.415823 5
      vertex 20 0 5
      vertex 26 0 5
    endloop
  endfacet
  facet normal 0 0 1
    outer loop
      vertex 19.9563 0.415823 5
      vertex 26.0437 0.415823 5
      vertex 26.1729 0.813473 5
    endloop
  endfacet
  facet normal 0 0 1
    outer loop
      vertex 19.8271 0.813473 5
      vertex 26.1729 0.813473 5
      vertex 26.382 1.17557 5
    endloop
  endfacet
  facet normal 0 0 1
    outer loop
      vertex 19.618 1.17557 5
      vertex 26.382 1.17557 5
      vertex 26.6617 1.48629 5
    endloop
  endfacet
  facet normal 0 0 1
    outer loop
      vertex 19.3383 1.48629 5
      vertex 26.6617 1.48629 5
      vertex 27 1.73205 5
    endloop
  endfacet
  facet normal 0 0 1
    outer loop
      vertex 19 1.73205 5
      vertex 27 1.73205 5
      vertex 27.382 1.90211 5
    endloop
  endfacet
  facet normal 0 0 1
    outer loop
      vertex 26.0437 0.415823 5
      vertex 19.9563 0.415823 5
      vertex 20 0 5
    endloop
  endfacet
  facet normal 0 0 1
    outer loop
      vertex 18.618 1.90211 5
      vertex 27.382 1.90211 5
      vertex 27.7909 1.98904 5
    endloop
  endfacet
  facet normal 0 0 1
    outer loop
      vertex 26.1729 0.813473 5
      vertex 19.8271 0.813473 5
      vertex 19.9563 0.415823 5
    endloop
  endfacet
  facet normal 0 0 1
    outer loop
      vertex 18.2091 1.98904 5
      vertex 27.7909 1.98904 5
      vertex 40.2091 3.98904 5
    endloop
  endfacet
  facet normal 0 0 1
    outer loop
      vertex 26.382 1.17557 5
      vertex 19.618 1.17557 5
      vertex 19.8271 0.813473 5
    endloop
  endfacet
  facet normal 0 0 1
    outer loop
      vertex 26.6617 1.48629 5
      vertex 19.3383 1.48629 5
      vertex 19.618 1.17557 5
    endloop
  endfacet
  facet normal 0 0 1
    outer loop
      vertex 27 1.73205 5
      vertex 19 1.73205 5
      vertex 19.3383 1.48629 5
    endloop
  endfacet
  facet normal 0 0 1
    outer loop
      vertex 27.382 1.90211 5
      vertex 18.618 1.90211 5
      vertex 19 1.73205 5
    endloop
  endfacet
  facet normal 0 0 1
    outer loop
      vertex 27.7909 1.98904 5
      vertex 18.2091 1.98904 5
      vertex 18.618 1.90211 5
    endloop
  endfacet
  facet normal -0 0 1
    outer loop
      vertex -0.209057 3.98904 5
      vertex 18.2091 1.98904 5
      vertex 40.2091 3.98904 5
    endloop
  endfacet
  facet normal 0 0 1
    outer loop
      vertex 16.0437 0.415823 5
      vertex 10 0 5
      vertex 16 0 5
    endloop
  endfacet
  facet normal 0 0 1
    outer loop
      vertex 9.9563 0.415823 5
      vertex 16.0437 0.415823 5
      vertex 16.1729 0.813473 5
    endloop
  endfacet
  facet normal 0 0 1
    outer loop
      vertex 9.82709 0.813473 5
      vertex 16.1729 0.813473 5
      vertex 16.382 1.17557 5
    endloop
  endfacet
  facet normal 0 0 1
    outer loop
      vertex 9.61803 1.17557 5
      vertex 16.382 1.17557 5
      vertex 16.6617 1.48629 5
    endloop
  endfacet
  facet normal 0 0 1
    outer loop
      vertex 9.33826 1.48629 5
      vertex 16.6617 1.48629 5
      vertex 17 1.73205 5
    endloop
  endfacet
  facet normal 0 0 1
    outer loop
      vertex 9 1.73205 5
      vertex 17 1.73205 5
      vertex 17.382 1.90211 5
    endloop
  endfacet
  facet normal 0 0 1
    outer loop
      vertex 16.0437 0.415823 5
      vertex 9.9563 0.415823 5
      vertex 10 0 5
    endloop
  endfacet
  facet normal 0 0 1
    outer loop
      vertex 8.61803 1.90211 5
      vertex 17.382 1.90211 5
      vertex 17.7909 1.98904 5
    endloop
  endfacet
  facet normal 0 0 1
    outer loop
      vertex 16.1729 0.813473 5
      vertex 9.82709 0.813473 5
      vertex 9.9563 0.415823 5
    endloop
  endfacet
  facet normal 0 0 1
    outer loop
      vertex 16.382 1.17557 5
      vertex 9.61803 1.17557 5
      vertex 9.82709 0.813473 5
    endloop
  endfacet
  facet normal 0 0 1
    outer loop
      vertex 16.6617 1.48629 5
      vertex 9.33826 1.48629 5
      vertex 9.61803 1.17557 5
    endloop
  endfacet
  facet normal 0 0 1
    outer loop
      vertex 18.2091 1.98904 5
      vertex -0.209057 3.98904 5
      vertex 17.7909 1.98904 5
    endloop
  endfacet
  facet normal 0 0 1
    outer loop
      vertex 17 1.73205 5
      vertex 9 1.73205 5
      vertex 9.33826 1.48629 5
    endloop
  endfacet
  facet normal 0 0 1
    outer loop
      vertex 17.382 1.90211 5
      vertex 8.61803 1.90211 5
      vertex 9 1.73205 5
    endloop
  endfacet
  facet normal 0 0 1
    outer loop
      vertex 17.7909 1.98904 5
      vertex 8.20906 1.98904 5
      vertex 8.61803 1.90211 5
    endloop
  endfacet
  facet normal 0 0 1
    outer loop
      vertex 17.7909 1.98904 5
      vertex -0.209057 3.98904 5
      vertex 8.20906 1.98904 5
    endloop
  endfacet
  facet normal 0 0 1
    outer loop
      vertex 6.0437 0.415823 5
      vertex -0.209057 3.98904 5
      vertex 6 0 5
    endloop
  endfacet
  facet normal 0 0 1
    outer loop
      vertex 6.17291 0.813473 5
      vertex -0.209057 3.98904 5
      vertex 6.0437 0.415823 5
    endloop
  endfacet
  facet normal 0 0 1
    outer loop
      vertex 6.38197 1.17557 5
      vertex -0.209057 3.98904 5
      vertex 6.17291 0.813473 5
    endloop
  endfacet
  facet normal 0 0 1
    outer loop
      vertex 6.66174 1.48629 5
      vertex -0.209057 3.98904 5
      vertex 6.38197 1.17557 5
    endloop
  endfacet
  facet normal 0 0 1
    outer loop
      vertex 7 1.73205 5
      vertex -0.209057 3.98904 5
      vertex 6.66174 1.48629 5
    endloop
  endfacet
  facet normal 0 0 1
    outer loop
      vertex 7.38197 1.90211 5
      vertex -0.209057 3.98904 5
      vertex 7 1.73205 5
    endloop
  endfacet
  facet normal 0 0 1
    outer loop
      vertex 7.79094 1.98904 5
      vertex -0.209057 3.98904 5
      vertex 7.38197 1.90211 5
    endloop
  endfacet
  facet normal 0 0 1
    outer loop
      vertex 8.20906 1.98904 5
      vertex -0.209057 3.98904 5
      vertex 7.79094 1.98904 5
    endloop
  endfacet
  facet normal 0 0 1
    outer loop
      vertex 41.618 -3.17557 5
      vertex 39.3383 -1.48629 5
      vertex 41.3383 -3.48629 5
    endloop
  endfacet
  facet normal 0 0 1
    outer loop
      vertex 41.3383 -3.48629 5
      vertex 39.3383 -1.48629 5
      vertex 41 -3.73205 5
    endloop
  endfacet
  facet normal 0 0 1
    outer loop
      vertex 41 -3.73205 5
      vertex 39.3383 -1.48629 5
      vertex 40.618 -3.90211 5
    endloop
  endfacet
  facet normal 0 0 1
    outer loop
      vertex 40.618 -3.90211 5
      vertex 39.3383 -1.48629 5
      vertex 40.2091 -3.98904 5
    endloop
  endfacet
  facet normal -0 0 1
    outer loop
      vertex 39 -1.73205 5
      vertex 40.2091 -3.98904 5
      vertex 39.3383 -1.48629 5
    endloop
  endfacet
  facet normal -0 0 1
    outer loop
      vertex 38.618 -1.90211 5
      vertex 40.2091 -3.98904 5
      vertex 39 -1.73205 5
    endloop
  endfacet
  facet normal -0 0 1
    outer loop
      vertex 38.2091 -1.98904 5
      vertex 40.2091 -3.98904 5
      vertex 38.618 -1.90211 5
    endloop
  endfacet
  facet normal -0 0 1
    outer loop
      vertex 37.7909 -1.98904 5
      vertex 40.2091 -3.98904 5
      vertex 38.2091 -1.98904 5
    endloop
  endfacet
  facet normal 0 0 1
    outer loop
      vertex 37.382 -1.90211 5
      vertex 40.2091 -3.98904 5
      vertex 37.7909 -1.98904 5
    endloop
  endfacet
  facet normal 0 0 1
    outer loop
      vertex 37 -1.73205 5
      vertex 40.2091 -3.98904 5
      vertex 37.382 -1.90211 5
    endloop
  endfacet
  facet normal -0 0 1
    outer loop
      vertex 30 0 5
      vertex 36.0437 -0.415823 5
      vertex 36 0 5
    endloop
  endfacet
  facet normal 0 0 1
    outer loop
      vertex 29.9563 -0.415823 5
      vertex 36.0437 -0.415823 5
      vertex 30 0 5
    endloop
  endfacet
  facet normal 0 0 1
    outer loop
      vertex 36.0437 -0.415823 5
      vertex 29.9563 -0.415823 5
      vertex 36.1729 -0.813473 5
    endloop
  endfacet
  facet normal 0 0 1
    outer loop
      vertex 29.8271 -0.813473 5
      vertex 36.1729 -0.813473 5
      vertex 29.9563 -0.415823 5
    endloop
  endfacet
  facet normal 0 0 1
    outer loop
      vertex 36.1729 -0.813473 5
      vertex 29.8271 -0.813473 5
      vertex 36.382 -1.17557 5
    endloop
  endfacet
  facet normal 0 0 1
    outer loop
      vertex 29.618 -1.17557 5
      vertex 36.382 -1.17557 5
      vertex 29.8271 -0.813473 5
    endloop
  endfacet
  facet normal 0 0 1
    outer loop
      vertex 36.382 -1.17557 5
      vertex 29.618 -1.17557 5
      vertex 36.6617 -1.48629 5
    endloop
  endfacet
  facet normal 0 0 1
    outer loop
      vertex 29.3383 -1.48629 5
      vertex 36.6617 -1.48629 5
      vertex 29.618 -1.17557 5
    endloop
  endfacet
  facet normal 0 0 1
    outer loop
      vertex 36.6617 -1.48629 5
      vertex 29.3383 -1.48629 5
      vertex 37 -1.73205 5
    endloop
  endfacet
  facet normal 0 0 1
    outer loop
      vertex 29 -1.73205 5
      vertex 37 -1.73205 5
      vertex 29.3383 -1.48629 5
    endloop
  endfacet
  facet normal 0 0 1
    outer loop
      vertex 37 -1.73205 5
      vertex 29 -1.73205 5
      vertex 40.2091 -3.98904 5
    endloop
  endfacet
  facet normal -0 0 1
    outer loop
      vertex 28.618 -1.90211 5
      vertex 40.2091 -3.98904 5
      vertex 29 -1.73205 5
    endloop
  endfacet
  facet normal -0 0 1
    outer loop
      vertex 28.2091 -1.98904 5
      vertex 40.2091 -3.98904 5
      vertex 28.618 -1.90211 5
    endloop
  endfacet
  facet normal -0 0 1
    outer loop
      vertex 27.7909 -1.98904 5
      vertex 40.2091 -3.98904 5
      vertex 28.2091 -1.98904 5
    endloop
  endfacet
  facet normal -0 0 1
    outer loop
      vertex 20 0 5
      vertex 26.0437 -0.415823 5
      vertex 26 0 5
    endloop
  endfacet
  facet normal 0 0 1
    outer loop
      vertex 19.9563 -0.415823 5
      vertex 26.0437 -0.415823 5
      vertex 20 0 5
    endloop
  endfacet
  facet normal 0 0 1
    outer loop
      vertex 26.0437 -0.415823 5
      vertex 19.9563 -0.415823 5
      vertex 26.1729 -0.813473 5
    endloop
  endfacet
  facet normal 0 0 1
    outer loop
      vertex 19.8271 -0.813473 5
      vertex 26.1729 -0.813473 5
      vertex 19.9563 -0.415823 5
    endloop
  endfacet
  facet normal 0 0 1
    outer loop
      vertex 26.1729 -0.813473 5
      vertex 19.8271 -0.813473 5
      vertex 26.382 -1.17557 5
    endloop
  endfacet
  facet normal 0 0 1
    outer loop
      vertex 19.618 -1.17557 5
      vertex 26.382 -1.17557 5
      vertex 19.8271 -0.813473 5
    endloop
  endfacet
  facet normal 0 0 1
    outer loop
      vertex 26.382 -1.17557 5
      vertex 19.618 -1.17557 5
      vertex 26.6617 -1.48629 5
    endloop
  endfacet
  facet normal 0 0 1
    outer loop
      vertex 19.3383 -1.48629 5
      vertex 26.6617 -1.48629 5
      vertex 19.618 -1.17557 5
    endloop
  endfacet
  facet normal 0 0 1
    outer loop
      vertex 26.6617 -1.48629 5
      vertex 19.3383 -1.48629 5
      vertex 27 -1.73205 5
    endloop
  endfacet
  facet normal 0 0 1
    outer loop
      vertex 19 -1.73205 5
      vertex 27 -1.73205 5
      vertex 19.3383 -1.48629 5
    endloop
  endfacet
  facet normal 0 0 1
    outer loop
      vertex 27 -1.73205 5
      vertex 19 -1.73205 5
      vertex 27.382 -1.90211 5
    endloop
  endfacet
  facet normal 0 0 1
    outer loop
      vertex 18.618 -1.90211 5
      vertex 27.382 -1.90211 5
      vertex 19 -1.73205 5
    endloop
  endfacet
  facet normal 0 0 1
    outer loop
      vertex 27.382 -1.90211 5
      vertex 18.618 -1.90211 5
      vertex 27.7909 -1.98904 5
    endloop
  endfacet
  facet normal 0 0 1
    outer loop
      vertex 18.2091 -1.98904 5
      vertex 27.7909 -1.98904 5
      vertex 18.618 -1.90211 5
    endloop
  endfacet
  facet normal 0 0 1
    outer loop
      vertex 27.7909 -1.98904 5
      vertex 18.2091 -1.98904 5
      vertex 40.2091 -3.98904 5
    endloop
  endfacet
  facet normal 0 0 1
    outer loop
      vertex -0.209057 -3.98904 5
      vertex 18.2091 -1.98904 5
      vertex 17.7909 -1.98904 5
    endloop
  endfacet
  facet normal -0 0 1
    outer loop
      vertex 10 0 5
      vertex 16.0437 -0.415823 5
      vertex 16 0 5
    endloop
  endfacet
  facet normal 0 0 1
    outer loop
      vertex 9.9563 -0.415823 5
      vertex 16.0437 -0.415823 5
      vertex 10 0 5
    endloop
  endfacet
  facet normal 0 0 1
    outer loop
      vertex 16.0437 -0.415823 5
      vertex 9.9563 -0.415823 5
      vertex 16.1729 -0.813473 5
    endloop
  endfacet
  facet normal 0 0 1
    outer loop
      vertex 9.82709 -0.813473 5
      vertex 16.1729 -0.813473 5
      vertex 9.9563 -0.415823 5
    endloop
  endfacet
  facet normal 0 0 1
    outer loop
      vertex 16.1729 -0.813473 5
      vertex 9.82709 -0.813473 5
      vertex 16.382 -1.17557 5
    endloop
  endfacet
  facet normal 0 0 1
    outer loop
      vertex 9.61803 -1.17557 5
      vertex 16.382 -1.17557 5
      vertex 9.82709 -0.813473 5
    endloop
  endfacet
  facet normal 0 0 1
    outer loop
      vertex 16.382 -1.17557 5
      vertex 9.61803 -1.17557 5
      vertex 16.6617 -1.48629 5
    endloop
  endfacet
  facet normal 0 0 1
    outer loop
      vertex 9.33826 -1.48629 5
      vertex 16.6617 -1.48629 5
      vertex 9.61803 -1.17557 5
    endloop
  endfacet
  facet normal 0 0 1
    outer loop
      vertex 16.6617 -1.48629 5
      vertex 9.33826 -1.48629 5
      vertex 17 -1.73205 5
    endloop
  endfacet
  facet normal 0 0 1
    outer loop
      vertex 9 -1.73205 5
      vertex 17 -1.73205 5
      vertex 9.33826 -1.48629 5
    endloop
  endfacet
  facet normal 0 0 1
    outer loop
      vertex 17 -1.73205 5
      vertex 9 -1.73205 5
      vertex 17.382 -1.90211 5
    endloop
  endfacet
  facet normal 0 0 1
    outer loop
      vertex 8.61803 -1.90211 5
      vertex 17.382 -1.90211 5
      vertex 9 -1.73205 5
    endloop
  endfacet
  facet normal 0 0 1
    outer loop
      vertex 17.382 -1.90211 5
      vertex 8.61803 -1.90211 5
      vertex 17.7909 -1.98904 5
    endloop
  endfacet
  facet normal 0 0 1
    outer loop
      vertex 8.20906 -1.98904 5
      vertex 17.7909 -1.98904 5
      vertex 8.61803 -1.90211 5
    endloop
  endfacet
  facet normal 0 0 1
    outer loop
      vertex -0.209057 -3.98904 5
      vertex 17.7909 -1.98904 5
      vertex 8.20906 -1.98904 5
    endloop
  endfacet
  facet normal 0 0 1
    outer loop
      vertex -0.209057 -3.98904 5
      vertex 8.20906 -1.98904 5
      vertex 7.79094 -1.98904 5
    endloop
  endfacet
  facet normal -0 0 1
    outer loop
      vertex -2 2 5
      vertex 6 0 5
      vertex -0.209057 3.98904 5
    endloop
  endfacet
  facet normal 0 0 1
    outer loop
      vertex -2 -2 5
      vertex 6 0 5
      vertex -2 2 5
    endloop
  endfacet
  facet normal 0 -0 1
    outer loop
      vertex -0.209057 -3.98904 5
      vertex 6 0 5
      vertex -2 -2 5
    endloop
  endfacet
  facet normal 0 0 1
    outer loop
      vertex 6 0 5
      vertex -0.209057 -3.98904 5
      vertex 6.0437 -0.415823 5
    endloop
  endfacet
  facet normal 0 0 1
    outer loop
      vertex 18.2091 -1.98904 5
      vertex -0.209057 -3.98904 5
      vertex 40.2091 -3.98904 5
    endloop
  endfacet
  facet normal 0 0 1
    outer loop
      vertex 7.38197 -1.90211 5
      vertex -0.209057 -3.98904 5
      vertex 7.79094 -1.98904 5
    endloop
  endfacet
  facet normal 0 0 1
    outer loop
      vertex 7 -1.73205 5
      vertex -0.209057 -3.98904 5
      vertex 7.38197 -1.90211 5
    endloop
  endfacet
  facet normal 0 0 1
    outer loop
      vertex 6.66174 -1.48629 5
      vertex -0.209057 -3.98904 5
      vertex 7 -1.73205 5
    endloop
  endfacet
  facet normal 0 0 1
    outer loop
      vertex 6.38197 -1.17557 5
      vertex -0.209057 -3.98904 5
      vertex 6.66174 -1.48629 5
    endloop
  endfacet
  facet normal 0 0 1
    outer loop
      vertex -2 2 5
      vertex -0.209057 3.98904 5
      vertex -0.618033 3.90211 5
    endloop
  endfacet
  facet normal 0 0 1
    outer loop
      vertex 6.0437 -0.415823 5
      vertex -0.209057 -3.98904 5
      vertex 6.17291 -0.813473 5
    endloop
  endfacet
  facet normal 0 0 1
    outer loop
      vertex -2 2 5
      vertex -0.618033 3.90211 5
      vertex -0.999999 3.73205 5
    endloop
  endfacet
  facet normal 0 0 1
    outer loop
      vertex 6.17291 -0.813473 5
      vertex -0.209057 -3.98904 5
      vertex 6.38197 -1.17557 5
    endloop
  endfacet
  facet normal 0 0 1
    outer loop
      vertex -2 2 5
      vertex -0.999999 3.73205 5
      vertex -1.33826 3.48629 5
    endloop
  endfacet
  facet normal 0 0 1
    outer loop
      vertex -0.209057 -3.98904 5
      vertex -2 -2 5
      vertex -0.618033 -3.90211 5
    endloop
  endfacet
  facet normal 0 0 1
    outer loop
      vertex -2 2 5
      vertex -1.33826 3.48629 5
      vertex -1.61803 3.17557 5
    endloop
  endfacet
  facet normal 0 0 1
    outer loop
      vertex -0.618033 -3.90211 5
      vertex -2 -2 5
      vertex -1 -3.73205 5
    endloop
  endfacet
  facet normal 0 0 1
    outer loop
      vertex -2 2 5
      vertex -1.61803 3.17557 5
      vertex -1.82709 2.81347 5
    endloop
  endfacet
  facet normal 0 0 1
    outer loop
      vertex -1 -3.73205 5
      vertex -2 -2 5
      vertex -1.33826 -3.48629 5
    endloop
  endfacet
  facet normal 0 0 1
    outer loop
      vertex -2 2 5
      vertex -1.82709 2.81347 5
      vertex -1.9563 2.41582 5
    endloop
  endfacet
  facet normal 0 0 1
    outer loop
      vertex -1.33826 -3.48629 5
      vertex -2 -2 5
      vertex -1.61803 -3.17557 5
    endloop
  endfacet
  facet normal 0 0 1
    outer loop
      vertex -1.61803 -3.17557 5
      vertex -2 -2 5
      vertex -1.82709 -2.81347 5
    endloop
  endfacet
  facet normal 0 0 1
    outer loop
      vertex -1.82709 -2.81347 5
      vertex -2 -2 5
      vertex -1.9563 -2.41582 5
    endloop
  endfacet
  facet normal -0.743144 0.669131 0
    outer loop
      vertex -1.61803 3.17557 -5
      vertex -1.33826 3.48629 5
      vertex -1.33826 3.48629 -5
    endloop
  endfacet
  facet normal -0.743144 0.669131 0
    outer loop
      vertex -1.33826 3.48629 5
      vertex -1.61803 3.17557 -5
      vertex -1.61803 3.17557 5
    endloop
  endfacet
  facet normal -0.406739 0.913545 0
    outer loop
      vertex -0.618033 3.90211 -5
      vertex -0.999999 3.73205 5
      vertex -0.618033 3.90211 5
    endloop
  endfacet
  facet normal -0.406739 0.913545 0
    outer loop
      vertex -0.999999 3.73205 5
      vertex -0.618033 3.90211 -5
      vertex -0.999999 3.73205 -5
    endloop
  endfacet
  facet normal -0.207911 0.978148 0
    outer loop
      vertex -0.209057 3.98904 -5
      vertex -0.618033 3.90211 5
      vertex -0.209057 3.98904 5
    endloop
  endfacet
  facet normal -0.207911 0.978148 0
    outer loop
      vertex -0.618033 3.90211 5
      vertex -0.209057 3.98904 -5
      vertex -0.618033 3.90211 -5
    endloop
  endfacet
  facet normal -0.406738 -0.913545 0
    outer loop
      vertex -1 -3.73205 -5
      vertex -0.618033 -3.90211 5
      vertex -1 -3.73205 5
    endloop
  endfacet
  facet normal -0.406738 -0.913545 -0
    outer loop
      vertex -0.618033 -3.90211 5
      vertex -1 -3.73205 -5
      vertex -0.618033 -3.90211 -5
    endloop
  endfacet
  facet normal -0.587786 -0.809017 0
    outer loop
      vertex -1.33826 -3.48629 -5
      vertex -1 -3.73205 5
      vertex -1.33826 -3.48629 5
    endloop
  endfacet
  facet normal -0.587786 -0.809017 -0
    outer loop
      vertex -1 -3.73205 5
      vertex -1.33826 -3.48629 -5
      vertex -1 -3.73205 -5
    endloop
  endfacet
  facet normal -0.866026 -0.499999 0
    outer loop
      vertex -1.61803 -3.17557 -5
      vertex -1.82709 -2.81347 5
      vertex -1.82709 -2.81347 -5
    endloop
  endfacet
  facet normal -0.866026 -0.499999 0
    outer loop
      vertex -1.82709 -2.81347 5
      vertex -1.61803 -3.17557 -5
      vertex -1.61803 -3.17557 5
    endloop
  endfacet
  facet normal -0.951056 -0.309018 0
    outer loop
      vertex -1.82709 -2.81347 -5
      vertex -1.9563 -2.41582 5
      vertex -1.9563 -2.41582 -5
    endloop
  endfacet
  facet normal -0.951056 -0.309018 0
    outer loop
      vertex -1.9563 -2.41582 5
      vertex -1.82709 -2.81347 -5
      vertex -1.82709 -2.81347 5
    endloop
  endfacet
  facet normal 0.587786 0.809017 -0
    outer loop
      vertex 41.3383 3.48629 -5
      vertex 41 3.73205 5
      vertex 41.3383 3.48629 5
    endloop
  endfacet
  facet normal 0.587786 0.809017 0
    outer loop
      vertex 41 3.73205 5
      vertex 41.3383 3.48629 -5
      vertex 41 3.73205 -5
    endloop
  endfacet
  facet normal 0.994522 0.104529 0
    outer loop
      vertex 42 2 5
      vertex 41.9563 2.41582 -5
      vertex 41.9563 2.41582 5
    endloop
  endfacet
  facet normal 0.994522 0.104529 0
    outer loop
      vertex 41.9563 2.41582 -5
      vertex 42 2 5
      vertex 42 2 -5
    endloop
  endfacet
  facet normal 0.866026 -0.499999 0
    outer loop
      vertex 41.618 -3.17557 5
      vertex 41.8271 -2.81347 -5
      vertex 41.8271 -2.81347 5
    endloop
  endfacet
  facet normal 0.866026 -0.499999 0
    outer loop
      vertex 41.8271 -2.81347 -5
      vertex 41.618 -3.17557 5
      vertex 41.618 -3.17557 -5
    endloop
  endfacet
  facet normal -0.866026 0.499999 0
    outer loop
      vertex -1.82709 2.81347 -5
      vertex -1.61803 3.17557 5
      vertex -1.61803 3.17557 -5
    endloop
  endfacet
  facet normal -0.866026 0.499999 0
    outer loop
      vertex -1.61803 3.17557 5
      vertex -1.82709 2.81347 -5
      vertex -1.82709 2.81347 5
    endloop
  endfacet
  facet normal -0.587784 0.809018 0
    outer loop
      vertex -0.999999 3.73205 -5
      vertex -1.33826 3.48629 5
      vertex -0.999999 3.73205 5
    endloop
  endfacet
  facet normal -0.587784 0.809018 0
    outer loop
      vertex -1.33826 3.48629 5
      vertex -0.999999 3.73205 -5
      vertex -1.33826 3.48629 -5
    endloop
  endfacet
  facet normal 0.20791 0.978148 -0
    outer loop
      vertex 40.618 3.90211 -5
      vertex 40.2091 3.98904 5
      vertex 40.618 3.90211 5
    endloop
  endfacet
  facet normal 0.20791 0.978148 0
    outer loop
      vertex 40.2091 3.98904 5
      vertex 40.618 3.90211 -5
      vertex 40.2091 3.98904 -5
    endloop
  endfacet
  facet normal 0.406739 0.913545 -0
    outer loop
      vertex 41 3.73205 -5
      vertex 40.618 3.90211 5
      vertex 41 3.73205 5
    endloop
  endfacet
  facet normal 0.406739 0.913545 0
    outer loop
      vertex 40.618 3.90211 5
      vertex 41 3.73205 -5
      vertex 40.618 3.90211 -5
    endloop
  endfacet
  facet normal 0.866026 0.499999 0
    outer loop
      vertex 41.8271 2.81347 5
      vertex 41.618 3.17557 -5
      vertex 41.618 3.17557 5
    endloop
  endfacet
  facet normal 0.866026 0.499999 0
    outer loop
      vertex 41.618 3.17557 -5
      vertex 41.8271 2.81347 5
      vertex 41.8271 2.81347 -5
    endloop
  endfacet
  facet normal 0.951057 0.309016 0
    outer loop
      vertex 41.9563 2.41582 5
      vertex 41.8271 2.81347 -5
      vertex 41.8271 2.81347 5
    endloop
  endfacet
  facet normal 0.951057 0.309016 0
    outer loop
      vertex 41.8271 2.81347 -5
      vertex 41.9563 2.41582 5
      vertex 41.9563 2.41582 -5
    endloop
  endfacet
  facet normal 0.587786 -0.809017 0
    outer loop
      vertex 41 -3.73205 -5
      vertex 41.3383 -3.48629 5
      vertex 41 -3.73205 5
    endloop
  endfacet
  facet normal 0.587786 -0.809017 0
    outer loop
      vertex 41.3383 -3.48629 5
      vertex 41 -3.73205 -5
      vertex 41.3383 -3.48629 -5
    endloop
  endfacet
  facet normal -0.994522 -0.104529 0
    outer loop
      vertex 10 0 -5
      vertex 9.9563 0.415823 5
      vertex 9.9563 0.415823 -5
    endloop
  endfacet
  facet normal -0.994522 -0.104529 0
    outer loop
      vertex 9.9563 0.415823 5
      vertex 10 0 -5
      vertex 10 0 5
    endloop
  endfacet
  facet normal 0.207911 -0.978148 0
    outer loop
      vertex 7.38197 1.90211 -5
      vertex 7.79094 1.98904 5
      vertex 7.38197 1.90211 5
    endloop
  endfacet
  facet normal 0.207911 -0.978148 0
    outer loop
      vertex 7.79094 1.98904 5
      vertex 7.38197 1.90211 -5
      vertex 7.79094 1.98904 -5
    endloop
  endfacet
  facet normal -0.207911 0.978148 0
    outer loop
      vertex 8.61803 -1.90211 -5
      vertex 8.20906 -1.98904 5
      vertex 8.61803 -1.90211 5
    endloop
  endfacet
  facet normal -0.207911 0.978148 0
    outer loop
      vertex 8.20906 -1.98904 5
      vertex 8.61803 -1.90211 -5
      vertex 8.20906 -1.98904 -5
    endloop
  endfacet
  facet normal -0.406738 0.913545 0
    outer loop
      vertex 9 -1.73205 -5
      vertex 8.61803 -1.90211 5
      vertex 9 -1.73205 5
    endloop
  endfacet
  facet normal -0.406738 0.913545 0
    outer loop
      vertex 8.61803 -1.90211 5
      vertex 9 -1.73205 -5
      vertex 8.61803 -1.90211 -5
    endloop
  endfacet
  facet normal -0.587786 -0.809017 0
    outer loop
      vertex 9 1.73205 -5
      vertex 9.33826 1.48629 5
      vertex 9 1.73205 5
    endloop
  endfacet
  facet normal -0.587786 -0.809017 -0
    outer loop
      vertex 9.33826 1.48629 5
      vertex 9 1.73205 -5
      vertex 9.33826 1.48629 -5
    endloop
  endfacet
  facet normal 0.743144 -0.669131 0
    outer loop
      vertex 6.38197 1.17557 5
      vertex 6.66174 1.48629 -5
      vertex 6.66174 1.48629 5
    endloop
  endfacet
  facet normal 0.743144 -0.669131 0
    outer loop
      vertex 6.66174 1.48629 -5
      vertex 6.38197 1.17557 5
      vertex 6.38197 1.17557 -5
    endloop
  endfacet
  facet normal 0.587784 -0.809018 0
    outer loop
      vertex 6.66174 1.48629 -5
      vertex 7 1.73205 5
      vertex 6.66174 1.48629 5
    endloop
  endfacet
  facet normal 0.587784 -0.809018 0
    outer loop
      vertex 7 1.73205 5
      vertex 6.66174 1.48629 -5
      vertex 7 1.73205 -5
    endloop
  endfacet
  facet normal -0.866026 -0.499999 0
    outer loop
      vertex 9.82709 0.813473 -5
      vertex 9.61803 1.17557 5
      vertex 9.61803 1.17557 -5
    endloop
  endfacet
  facet normal -0.866026 -0.499999 0
    outer loop
      vertex 9.61803 1.17557 5
      vertex 9.82709 0.813473 -5
      vertex 9.82709 0.813473 5
    endloop
  endfacet
  facet normal -0.951056 -0.309018 0
    outer loop
      vertex 9.9563 0.415823 -5
      vertex 9.82709 0.813473 5
      vertex 9.82709 0.813473 -5
    endloop
  endfacet
  facet normal -0.951056 -0.309018 0
    outer loop
      vertex 9.82709 0.813473 5
      vertex 9.9563 0.415823 -5
      vertex 9.9563 0.415823 5
    endloop
  endfacet
  facet normal -0.743144 -0.669131 0
    outer loop
      vertex 9.61803 1.17557 -5
      vertex 9.33826 1.48629 5
      vertex 9.33826 1.48629 -5
    endloop
  endfacet
  facet normal -0.743144 -0.669131 0
    outer loop
      vertex 9.33826 1.48629 5
      vertex 9.61803 1.17557 -5
      vertex 9.61803 1.17557 5
    endloop
  endfacet
  facet normal -0.207911 -0.978148 0
    outer loop
      vertex 8.20906 1.98904 -5
      vertex 8.61803 1.90211 5
      vertex 8.20906 1.98904 5
    endloop
  endfacet
  facet normal -0.207911 -0.978148 -0
    outer loop
      vertex 8.61803 1.90211 5
      vertex 8.20906 1.98904 -5
      vertex 8.61803 1.90211 -5
    endloop
  endfacet
  facet normal 0 -1 0
    outer loop
      vertex 7.79094 1.98904 -5
      vertex 8.20906 1.98904 5
      vertex 7.79094 1.98904 5
    endloop
  endfacet
  facet normal 0 -1 -0
    outer loop
      vertex 8.20906 1.98904 5
      vertex 7.79094 1.98904 -5
      vertex 8.20906 1.98904 -5
    endloop
  endfacet
  facet normal -0.406738 -0.913545 0
    outer loop
      vertex 8.61803 1.90211 -5
      vertex 9 1.73205 5
      vertex 8.61803 1.90211 5
    endloop
  endfacet
  facet normal -0.406738 -0.913545 -0
    outer loop
      vertex 9 1.73205 5
      vertex 8.61803 1.90211 -5
      vertex 9 1.73205 -5
    endloop
  endfacet
  facet normal 0.951056 -0.309018 0
    outer loop
      vertex 6.0437 0.415823 5
      vertex 6.17291 0.813473 -5
      vertex 6.17291 0.813473 5
    endloop
  endfacet
  facet normal 0.951056 -0.309018 0
    outer loop
      vertex 6.17291 0.813473 -5
      vertex 6.0437 0.415823 5
      vertex 6.0437 0.415823 -5
    endloop
  endfacet
  facet normal 0.866026 -0.499999 0
    outer loop
      vertex 6.17291 0.813473 5
      vertex 6.38197 1.17557 -5
      vertex 6.38197 1.17557 5
    endloop
  endfacet
  facet normal 0.866026 -0.499999 0
    outer loop
      vertex 6.38197 1.17557 -5
      vertex 6.17291 0.813473 5
      vertex 6.17291 0.813473 -5
    endloop
  endfacet
  facet normal 0.994522 -0.104527 0
    outer loop
      vertex 6 0 5
      vertex 6.0437 0.415823 -5
      vertex 6.0437 0.415823 5
    endloop
  endfacet
  facet normal 0.994522 -0.104527 0
    outer loop
      vertex 6.0437 0.415823 -5
      vertex 6 0 5
      vertex 6 0 -5
    endloop
  endfacet
  facet normal 0.406739 -0.913545 0
    outer loop
      vertex 7 1.73205 -5
      vertex 7.38197 1.90211 5
      vertex 7 1.73205 5
    endloop
  endfacet
  facet normal 0.406739 -0.913545 0
    outer loop
      vertex 7.38197 1.90211 5
      vertex 7 1.73205 -5
      vertex 7.38197 1.90211 -5
    endloop
  endfacet
  facet normal -0.994522 0.104529 0
    outer loop
      vertex 9.9563 -0.415823 -5
      vertex 10 0 5
      vertex 10 0 -5
    endloop
  endfacet
  facet normal -0.994522 0.104529 0
    outer loop
      vertex 10 0 5
      vertex 9.9563 -0.415823 -5
      vertex 9.9563 -0.415823 5
    endloop
  endfacet
  facet normal 0.994522 0.104527 0
    outer loop
      vertex 6.0437 -0.415823 5
      vertex 6 0 -5
      vertex 6 0 5
    endloop
  endfacet
  facet normal 0.994522 0.104527 0
    outer loop
      vertex 6 0 -5
      vertex 6.0437 -0.415823 5
      vertex 6.0437 -0.415823 -5
    endloop
  endfacet
  facet normal -0.866026 0.499999 0
    outer loop
      vertex 9.61803 -1.17557 -5
      vertex 9.82709 -0.813473 5
      vertex 9.82709 -0.813473 -5
    endloop
  endfacet
  facet normal -0.866026 0.499999 0
    outer loop
      vertex 9.82709 -0.813473 5
      vertex 9.61803 -1.17557 -5
      vertex 9.61803 -1.17557 5
    endloop
  endfacet
  facet normal 0.406738 0.913545 -0
    outer loop
      vertex 7.38197 -1.90211 -5
      vertex 7 -1.73205 5
      vertex 7.38197 -1.90211 5
    endloop
  endfacet
  facet normal 0.406738 0.913545 0
    outer loop
      vertex 7 -1.73205 5
      vertex 7.38197 -1.90211 -5
      vertex 7 -1.73205 -5
    endloop
  endfacet
  facet normal 0.743144 0.669131 0
    outer loop
      vertex 6.66174 -1.48629 5
      vertex 6.38197 -1.17557 -5
      vertex 6.38197 -1.17557 5
    endloop
  endfacet
  facet normal 0.743144 0.669131 0
    outer loop
      vertex 6.38197 -1.17557 -5
      vertex 6.66174 -1.48629 5
      vertex 6.66174 -1.48629 -5
    endloop
  endfacet
  facet normal -0.587786 0.809017 0
    outer loop
      vertex 9.33826 -1.48629 -5
      vertex 9 -1.73205 5
      vertex 9.33826 -1.48629 5
    endloop
  endfacet
  facet normal -0.587786 0.809017 0
    outer loop
      vertex 9 -1.73205 5
      vertex 9.33826 -1.48629 -5
      vertex 9 -1.73205 -5
    endloop
  endfacet
  facet normal -0.951056 0.309018 0
    outer loop
      vertex 9.82709 -0.813473 -5
      vertex 9.9563 -0.415823 5
      vertex 9.9563 -0.415823 -5
    endloop
  endfacet
  facet normal -0.951056 0.309018 0
    outer loop
      vertex 9.9563 -0.415823 5
      vertex 9.82709 -0.813473 -5
      vertex 9.82709 -0.813473 5
    endloop
  endfacet
  facet normal 0 1 -0
    outer loop
      vertex 8.20906 -1.98904 -5
      vertex 7.79094 -1.98904 5
      vertex 8.20906 -1.98904 5
    endloop
  endfacet
  facet normal 0 1 0
    outer loop
      vertex 7.79094 -1.98904 5
      vertex 8.20906 -1.98904 -5
      vertex 7.79094 -1.98904 -5
    endloop
  endfacet
  facet normal 0.207911 0.978148 -0
    outer loop
      vertex 7.79094 -1.98904 -5
      vertex 7.38197 -1.90211 5
      vertex 7.79094 -1.98904 5
    endloop
  endfacet
  facet normal 0.207911 0.978148 0
    outer loop
      vertex 7.38197 -1.90211 5
      vertex 7.79094 -1.98904 -5
      vertex 7.38197 -1.90211 -5
    endloop
  endfacet
  facet normal 0.587786 0.809017 -0
    outer loop
      vertex 7 -1.73205 -5
      vertex 6.66174 -1.48629 5
      vertex 7 -1.73205 5
    endloop
  endfacet
  facet normal 0.587786 0.809017 0
    outer loop
      vertex 6.66174 -1.48629 5
      vertex 7 -1.73205 -5
      vertex 6.66174 -1.48629 -5
    endloop
  endfacet
  facet normal 0.866026 0.499999 0
    outer loop
      vertex 6.38197 -1.17557 5
      vertex 6.17291 -0.813473 -5
      vertex 6.17291 -0.813473 5
    endloop
  endfacet
  facet normal 0.866026 0.499999 0
    outer loop
      vertex 6.17291 -0.813473 -5
      vertex 6.38197 -1.17557 5
      vertex 6.38197 -1.17557 -5
    endloop
  endfacet
  facet normal 0.951056 0.309018 0
    outer loop
      vertex 6.17291 -0.813473 5
      vertex 6.0437 -0.415823 -5
      vertex 6.0437 -0.415823 5
    endloop
  endfacet
  facet normal 0.951056 0.309018 0
    outer loop
      vertex 6.0437 -0.415823 -5
      vertex 6.17291 -0.813473 5
      vertex 6.17291 -0.813473 -5
    endloop
  endfacet
  facet normal -0.743144 0.669131 0
    outer loop
      vertex 9.33826 -1.48629 -5
      vertex 9.61803 -1.17557 5
      vertex 9.61803 -1.17557 -5
    endloop
  endfacet
  facet normal -0.743144 0.669131 0
    outer loop
      vertex 9.61803 -1.17557 5
      vertex 9.33826 -1.48629 -5
      vertex 9.33826 -1.48629 5
    endloop
  endfacet
  facet normal -0.994522 -0.104529 0
    outer loop
      vertex 20 0 -5
      vertex 19.9563 0.415823 5
      vertex 19.9563 0.415823 -5
    endloop
  endfacet
  facet normal -0.994522 -0.104529 0
    outer loop
      vertex 19.9563 0.415823 5
      vertex 20 0 -5
      vertex 20 0 5
    endloop
  endfacet
  facet normal 0.20791 -0.978148 0
    outer loop
      vertex 17.382 1.90211 -5
      vertex 17.7909 1.98904 5
      vertex 17.382 1.90211 5
    endloop
  endfacet
  facet normal 0.20791 -0.978148 0
    outer loop
      vertex 17.7909 1.98904 5
      vertex 17.382 1.90211 -5
      vertex 17.7909 1.98904 -5
    endloop
  endfacet
  facet normal -0.20791 0.978148 0
    outer loop
      vertex 18.618 -1.90211 -5
      vertex 18.2091 -1.98904 5
      vertex 18.618 -1.90211 5
    endloop
  endfacet
  facet normal -0.20791 0.978148 0
    outer loop
      vertex 18.2091 -1.98904 5
      vertex 18.618 -1.90211 -5
      vertex 18.2091 -1.98904 -5
    endloop
  endfacet
  facet normal -0.406739 0.913545 0
    outer loop
      vertex 19 -1.73205 -5
      vertex 18.618 -1.90211 5
      vertex 19 -1.73205 5
    endloop
  endfacet
  facet normal -0.406739 0.913545 0
    outer loop
      vertex 18.618 -1.90211 5
      vertex 19 -1.73205 -5
      vertex 18.618 -1.90211 -5
    endloop
  endfacet
  facet normal -0.587786 -0.809017 0
    outer loop
      vertex 19 1.73205 -5
      vertex 19.3383 1.48629 5
      vertex 19 1.73205 5
    endloop
  endfacet
  facet normal -0.587786 -0.809017 -0
    outer loop
      vertex 19.3383 1.48629 5
      vertex 19 1.73205 -5
      vertex 19.3383 1.48629 -5
    endloop
  endfacet
  facet normal 0.743143 -0.669133 0
    outer loop
      vertex 16.382 1.17557 5
      vertex 16.6617 1.48629 -5
      vertex 16.6617 1.48629 5
    endloop
  endfacet
  facet normal 0.743143 -0.669133 0
    outer loop
      vertex 16.6617 1.48629 -5
      vertex 16.382 1.17557 5
      vertex 16.382 1.17557 -5
    endloop
  endfacet
  facet normal 0.587786 -0.809017 0
    outer loop
      vertex 16.6617 1.48629 -5
      vertex 17 1.73205 5
      vertex 16.6617 1.48629 5
    endloop
  endfacet
  facet normal 0.587786 -0.809017 0
    outer loop
      vertex 17 1.73205 5
      vertex 16.6617 1.48629 -5
      vertex 17 1.73205 -5
    endloop
  endfacet
  facet normal -0.866026 -0.499999 0
    outer loop
      vertex 19.8271 0.813473 -5
      vertex 19.618 1.17557 5
      vertex 19.618 1.17557 -5
    endloop
  endfacet
  facet normal -0.866026 -0.499999 0
    outer loop
      vertex 19.618 1.17557 5
      vertex 19.8271 0.813473 -5
      vertex 19.8271 0.813473 5
    endloop
  endfacet
  facet normal -0.951057 -0.309016 0
    outer loop
      vertex 19.9563 0.415823 -5
      vertex 19.8271 0.813473 5
      vertex 19.8271 0.813473 -5
    endloop
  endfacet
  facet normal -0.951057 -0.309016 0
    outer loop
      vertex 19.8271 0.813473 5
      vertex 19.9563 0.415823 -5
      vertex 19.9563 0.415823 5
    endloop
  endfacet
  facet normal -0.743143 -0.669133 0
    outer loop
      vertex 19.618 1.17557 -5
      vertex 19.3383 1.48629 5
      vertex 19.3383 1.48629 -5
    endloop
  endfacet
  facet normal -0.743143 -0.669133 0
    outer loop
      vertex 19.3383 1.48629 5
      vertex 19.618 1.17557 -5
      vertex 19.618 1.17557 5
    endloop
  endfacet
  facet normal -0.20791 -0.978148 0
    outer loop
      vertex 18.2091 1.98904 -5
      vertex 18.618 1.90211 5
      vertex 18.2091 1.98904 5
    endloop
  endfacet
  facet normal -0.20791 -0.978148 -0
    outer loop
      vertex 18.618 1.90211 5
      vertex 18.2091 1.98904 -5
      vertex 18.618 1.90211 -5
    endloop
  endfacet
  facet normal 0 -1 0
    outer loop
      vertex 17.7909 1.98904 -5
      vertex 18.2091 1.98904 5
      vertex 17.7909 1.98904 5
    endloop
  endfacet
  facet normal 0 -1 -0
    outer loop
      vertex 18.2091 1.98904 5
      vertex 17.7909 1.98904 -5
      vertex 18.2091 1.98904 -5
    endloop
  endfacet
  facet normal -0.406739 -0.913545 0
    outer loop
      vertex 18.618 1.90211 -5
      vertex 19 1.73205 5
      vertex 18.618 1.90211 5
    endloop
  endfacet
  facet normal -0.406739 -0.913545 -0
    outer loop
      vertex 19 1.73205 5
      vertex 18.618 1.90211 -5
      vertex 19 1.73205 -5
    endloop
  endfacet
  facet normal 0.951057 -0.309016 0
    outer loop
      vertex 16.0437 0.415823 5
      vertex 16.1729 0.813473 -5
      vertex 16.1729 0.813473 5
    endloop
  endfacet
  facet normal 0.951057 -0.309016 0
    outer loop
      vertex 16.1729 0.813473 -5
      vertex 16.0437 0.415823 5
      vertex 16.0437 0.415823 -5
    endloop
  endfacet
  facet normal 0.866026 -0.499999 0
    outer loop
      vertex 16.1729 0.813473 5
      vertex 16.382 1.17557 -5
      vertex 16.382 1.17557 5
    endloop
  endfacet
  facet normal 0.866026 -0.499999 0
    outer loop
      vertex 16.382 1.17557 -5
      vertex 16.1729 0.813473 5
      vertex 16.1729 0.813473 -5
    endloop
  endfacet
  facet normal 0.994522 -0.104529 0
    outer loop
      vertex 16 0 5
      vertex 16.0437 0.415823 -5
      vertex 16.0437 0.415823 5
    endloop
  endfacet
  facet normal 0.994522 -0.104529 0
    outer loop
      vertex 16.0437 0.415823 -5
      vertex 16 0 5
      vertex 16 0 -5
    endloop
  endfacet
  facet normal 0.406739 -0.913545 0
    outer loop
      vertex 17 1.73205 -5
      vertex 17.382 1.90211 5
      vertex 17 1.73205 5
    endloop
  endfacet
  facet normal 0.406739 -0.913545 0
    outer loop
      vertex 17.382 1.90211 5
      vertex 17 1.73205 -5
      vertex 17.382 1.90211 -5
    endloop
  endfacet
  facet normal -0.994522 0.104529 0
    outer loop
      vertex 19.9563 -0.415823 -5
      vertex 20 0 5
      vertex 20 0 -5
    endloop
  endfacet
  facet normal -0.994522 0.104529 0
    outer loop
      vertex 20 0 5
      vertex 19.9563 -0.415823 -5
      vertex 19.9563 -0.415823 5
    endloop
  endfacet
  facet normal 0.994522 0.104529 0
    outer loop
      vertex 16.0437 -0.415823 5
      vertex 16 0 -5
      vertex 16 0 5
    endloop
  endfacet
  facet normal 0.994522 0.104529 0
    outer loop
      vertex 16 0 -5
      vertex 16.0437 -0.415823 5
      vertex 16.0437 -0.415823 -5
    endloop
  endfacet
  facet normal -0.866026 0.499999 0
    outer loop
      vertex 19.618 -1.17557 -5
      vertex 19.8271 -0.813473 5
      vertex 19.8271 -0.813473 -5
    endloop
  endfacet
  facet normal -0.866026 0.499999 0
    outer loop
      vertex 19.8271 -0.813473 5
      vertex 19.618 -1.17557 -5
      vertex 19.618 -1.17557 5
    endloop
  endfacet
  facet normal 0.743143 0.669133 0
    outer loop
      vertex 16.6617 -1.48629 5
      vertex 16.382 -1.17557 -5
      vertex 16.382 -1.17557 5
    endloop
  endfacet
  facet normal 0.743143 0.669133 0
    outer loop
      vertex 16.382 -1.17557 -5
      vertex 16.6617 -1.48629 5
      vertex 16.6617 -1.48629 -5
    endloop
  endfacet
  facet normal -0.587786 0.809017 0
    outer loop
      vertex 19.3383 -1.48629 -5
      vertex 19 -1.73205 5
      vertex 19.3383 -1.48629 5
    endloop
  endfacet
  facet normal -0.587786 0.809017 0
    outer loop
      vertex 19 -1.73205 5
      vertex 19.3383 -1.48629 -5
      vertex 19 -1.73205 -5
    endloop
  endfacet
  facet normal -0.951057 0.309016 0
    outer loop
      vertex 19.8271 -0.813473 -5
      vertex 19.9563 -0.415823 5
      vertex 19.9563 -0.415823 -5
    endloop
  endfacet
  facet normal -0.951057 0.309016 0
    outer loop
      vertex 19.9563 -0.415823 5
      vertex 19.8271 -0.813473 -5
      vertex 19.8271 -0.813473 5
    endloop
  endfacet
  facet normal 0 1 -0
    outer loop
      vertex 18.2091 -1.98904 -5
      vertex 17.7909 -1.98904 5
      vertex 18.2091 -1.98904 5
    endloop
  endfacet
  facet normal 0 1 0
    outer loop
      vertex 17.7909 -1.98904 5
      vertex 18.2091 -1.98904 -5
      vertex 17.7909 -1.98904 -5
    endloop
  endfacet
  facet normal 0.20791 0.978148 -0
    outer loop
      vertex 17.7909 -1.98904 -5
      vertex 17.382 -1.90211 5
      vertex 17.7909 -1.98904 5
    endloop
  endfacet
  facet normal 0.20791 0.978148 0
    outer loop
      vertex 17.382 -1.90211 5
      vertex 17.7909 -1.98904 -5
      vertex 17.382 -1.90211 -5
    endloop
  endfacet
  facet normal 0.587786 0.809017 -0
    outer loop
      vertex 17 -1.73205 -5
      vertex 16.6617 -1.48629 5
      vertex 17 -1.73205 5
    endloop
  endfacet
  facet normal 0.587786 0.809017 0
    outer loop
      vertex 16.6617 -1.48629 5
      vertex 17 -1.73205 -5
      vertex 16.6617 -1.48629 -5
    endloop
  endfacet
  facet normal 0.866026 0.499999 0
    outer loop
      vertex 16.382 -1.17557 5
      vertex 16.1729 -0.813473 -5
      vertex 16.1729 -0.813473 5
    endloop
  endfacet
  facet normal 0.866026 0.499999 0
    outer loop
      vertex 16.1729 -0.813473 -5
      vertex 16.382 -1.17557 5
      vertex 16.382 -1.17557 -5
    endloop
  endfacet
  facet normal 0.951057 0.309016 0
    outer loop
      vertex 16.1729 -0.813473 5
      vertex 16.0437 -0.415823 -5
      vertex 16.0437 -0.415823 5
    endloop
  endfacet
  facet normal 0.951057 0.309016 0
    outer loop
      vertex 16.0437 -0.415823 -5
      vertex 16.1729 -0.813473 5
      vertex 16.1729 -0.813473 -5
    endloop
  endfacet
  facet normal -0.743143 0.669133 0
    outer loop
      vertex 19.3383 -1.48629 -5
      vertex 19.618 -1.17557 5
      vertex 19.618 -1.17557 -5
    endloop
  endfacet
  facet normal -0.743143 0.669133 0
    outer loop
      vertex 19.618 -1.17557 5
      vertex 19.3383 -1.48629 -5
      vertex 19.3383 -1.48629 5
    endloop
  endfacet
  facet normal 0.406739 0.913545 -0
    outer loop
      vertex 17.382 -1.90211 -5
      vertex 17 -1.73205 5
      vertex 17.382 -1.90211 5
    endloop
  endfacet
  facet normal 0.406739 0.913545 0
    outer loop
      vertex 17 -1.73205 5
      vertex 17.382 -1.90211 -5
      vertex 17 -1.73205 -5
    endloop
  endfacet
  facet normal -0.994522 -0.104529 0
    outer loop
      vertex 30 0 -5
      vertex 29.9563 0.415823 5
      vertex 29.9563 0.415823 -5
    endloop
  endfacet
  facet normal -0.994522 -0.104529 0
    outer loop
      vertex 29.9563 0.415823 5
      vertex 30 0 -5
      vertex 30 0 5
    endloop
  endfacet
  facet normal 0.20791 -0.978148 0
    outer loop
      vertex 27.382 1.90211 -5
      vertex 27.7909 1.98904 5
      vertex 27.382 1.90211 5
    endloop
  endfacet
  facet normal 0.20791 -0.978148 0
    outer loop
      vertex 27.7909 1.98904 5
      vertex 27.382 1.90211 -5
      vertex 27.7909 1.98904 -5
    endloop
  endfacet
  facet normal -0.20791 0.978148 0
    outer loop
      vertex 28.618 -1.90211 -5
      vertex 28.2091 -1.98904 5
      vertex 28.618 -1.90211 5
    endloop
  endfacet
  facet normal -0.20791 0.978148 0
    outer loop
      vertex 28.2091 -1.98904 5
      vertex 28.618 -1.90211 -5
      vertex 28.2091 -1.98904 -5
    endloop
  endfacet
  facet normal -0.406739 0.913545 0
    outer loop
      vertex 29 -1.73205 -5
      vertex 28.618 -1.90211 5
      vertex 29 -1.73205 5
    endloop
  endfacet
  facet normal -0.406739 0.913545 0
    outer loop
      vertex 28.618 -1.90211 5
      vertex 29 -1.73205 -5
      vertex 28.618 -1.90211 -5
    endloop
  endfacet
  facet normal -0.587786 -0.809017 0
    outer loop
      vertex 29 1.73205 -5
      vertex 29.3383 1.48629 5
      vertex 29 1.73205 5
    endloop
  endfacet
  facet normal -0.587786 -0.809017 -0
    outer loop
      vertex 29.3383 1.48629 5
      vertex 29 1.73205 -5
      vertex 29.3383 1.48629 -5
    endloop
  endfacet
  facet normal 0.743143 -0.669133 0
    outer loop
      vertex 26.382 1.17557 5
      vertex 26.6617 1.48629 -5
      vertex 26.6617 1.48629 5
    endloop
  endfacet
  facet normal 0.743143 -0.669133 0
    outer loop
      vertex 26.6617 1.48629 -5
      vertex 26.382 1.17557 5
      vertex 26.382 1.17557 -5
    endloop
  endfacet
  facet normal 0.587786 -0.809017 0
    outer loop
      vertex 26.6617 1.48629 -5
      vertex 27 1.73205 5
      vertex 26.6617 1.48629 5
    endloop
  endfacet
  facet normal 0.587786 -0.809017 0
    outer loop
      vertex 27 1.73205 5
      vertex 26.6617 1.48629 -5
      vertex 27 1.73205 -5
    endloop
  endfacet
  facet normal -0.866026 -0.499999 0
    outer loop
      vertex 29.8271 0.813473 -5
      vertex 29.618 1.17557 5
      vertex 29.618 1.17557 -5
    endloop
  endfacet
  facet normal -0.866026 -0.499999 0
    outer loop
      vertex 29.618 1.17557 5
      vertex 29.8271 0.813473 -5
      vertex 29.8271 0.813473 5
    endloop
  endfacet
  facet normal -0.951057 -0.309016 0
    outer loop
      vertex 29.9563 0.415823 -5
      vertex 29.8271 0.813473 5
      vertex 29.8271 0.813473 -5
    endloop
  endfacet
  facet normal -0.951057 -0.309016 0
    outer loop
      vertex 29.8271 0.813473 5
      vertex 29.9563 0.415823 -5
      vertex 29.9563 0.415823 5
    endloop
  endfacet
  facet normal -0.743143 -0.669133 0
    outer loop
      vertex 29.618 1.17557 -5
      vertex 29.3383 1.48629 5
      vertex 29.3383 1.48629 -5
    endloop
  endfacet
  facet normal -0.743143 -0.669133 0
    outer loop
      vertex 29.3383 1.48629 5
      vertex 29.618 1.17557 -5
      vertex 29.618 1.17557 5
    endloop
  endfacet
  facet normal -0.20791 -0.978148 0
    outer loop
      vertex 28.2091 1.98904 -5
      vertex 28.618 1.90211 5
      vertex 28.2091 1.98904 5
    endloop
  endfacet
  facet normal -0.20791 -0.978148 -0
    outer loop
      vertex 28.618 1.90211 5
      vertex 28.2091 1.98904 -5
      vertex 28.618 1.90211 -5
    endloop
  endfacet
  facet normal 0 -1 0
    outer loop
      vertex 27.7909 1.98904 -5
      vertex 28.2091 1.98904 5
      vertex 27.7909 1.98904 5
    endloop
  endfacet
  facet normal 0 -1 -0
    outer loop
      vertex 28.2091 1.98904 5
      vertex 27.7909 1.98904 -5
      vertex 28.2091 1.98904 -5
    endloop
  endfacet
  facet normal -0.406739 -0.913545 0
    outer loop
      vertex 28.618 1.90211 -5
      vertex 29 1.73205 5
      vertex 28.618 1.90211 5
    endloop
  endfacet
  facet normal -0.406739 -0.913545 -0
    outer loop
      vertex 29 1.73205 5
      vertex 28.618 1.90211 -5
      vertex 29 1.73205 -5
    endloop
  endfacet
  facet normal 0.951057 -0.309016 0
    outer loop
      vertex 26.0437 0.415823 5
      vertex 26.1729 0.813473 -5
      vertex 26.1729 0.813473 5
    endloop
  endfacet
  facet normal 0.951057 -0.309016 0
    outer loop
      vertex 26.1729 0.813473 -5
      vertex 26.0437 0.415823 5
      vertex 26.0437 0.415823 -5
    endloop
  endfacet
  facet normal 0.866026 -0.499999 0
    outer loop
      vertex 26.1729 0.813473 5
      vertex 26.382 1.17557 -5
      vertex 26.382 1.17557 5
    endloop
  endfacet
  facet normal 0.866026 -0.499999 0
    outer loop
      vertex 26.382 1.17557 -5
      vertex 26.1729 0.813473 5
      vertex 26.1729 0.813473 -5
    endloop
  endfacet
  facet normal 0.994522 -0.104529 0
    outer loop
      vertex 26 0 5
      vertex 26.0437 0.415823 -5
      vertex 26.0437 0.415823 5
    endloop
  endfacet
  facet normal 0.994522 -0.104529 0
    outer loop
      vertex 26.0437 0.415823 -5
      vertex 26 0 5
      vertex 26 0 -5
    endloop
  endfacet
  facet normal 0.406739 -0.913545 0
    outer loop
      vertex 27 1.73205 -5
      vertex 27.382 1.90211 5
      vertex 27 1.73205 5
    endloop
  endfacet
  facet normal 0.406739 -0.913545 0
    outer loop
      vertex 27.382 1.90211 5
      vertex 27 1.73205 -5
      vertex 27.382 1.90211 -5
    endloop
  endfacet
  facet normal -0.994522 0.104529 0
    outer loop
      vertex 29.9563 -0.415823 -5
      vertex 30 0 5
      vertex 30 0 -5
    endloop
  endfacet
  facet normal -0.994522 0.104529 0
    outer loop
      vertex 30 0 5
      vertex 29.9563 -0.415823 -5
      vertex 29.9563 -0.415823 5
    endloop
  endfacet
  facet normal 0.994522 0.104529 0
    outer loop
      vertex 26.0437 -0.415823 5
      vertex 26 0 -5
      vertex 26 0 5
    endloop
  endfacet
  facet normal 0.994522 0.104529 0
    outer loop
      vertex 26 0 -5
      vertex 26.0437 -0.415823 5
      vertex 26.0437 -0.415823 -5
    endloop
  endfacet
  facet normal -0.866026 0.499999 0
    outer loop
      vertex 29.618 -1.17557 -5
      vertex 29.8271 -0.813473 5
      vertex 29.8271 -0.813473 -5
    endloop
  endfacet
  facet normal -0.866026 0.499999 0
    outer loop
      vertex 29.8271 -0.813473 5
      vertex 29.618 -1.17557 -5
      vertex 29.618 -1.17557 5
    endloop
  endfacet
  facet normal 0.743143 0.669133 0
    outer loop
      vertex 26.6617 -1.48629 5
      vertex 26.382 -1.17557 -5
      vertex 26.382 -1.17557 5
    endloop
  endfacet
  facet normal 0.743143 0.669133 0
    outer loop
      vertex 26.382 -1.17557 -5
      vertex 26.6617 -1.48629 5
      vertex 26.6617 -1.48629 -5
    endloop
  endfacet
  facet normal -0.587786 0.809017 0
    outer loop
      vertex 29.3383 -1.48629 -5
      vertex 29 -1.73205 5
      vertex 29.3383 -1.48629 5
    endloop
  endfacet
  facet normal -0.587786 0.809017 0
    outer loop
      vertex 29 -1.73205 5
      vertex 29.3383 -1.48629 -5
      vertex 29 -1.73205 -5
    endloop
  endfacet
  facet normal -0.951057 0.309016 0
    outer loop
      vertex 29.8271 -0.813473 -5
      vertex 29.9563 -0.415823 5
      vertex 29.9563 -0.415823 -5
    endloop
  endfacet
  facet normal -0.951057 0.309016 0
    outer loop
      vertex 29.9563 -0.415823 5
      vertex 29.8271 -0.813473 -5
      vertex 29.8271 -0.813473 5
    endloop
  endfacet
  facet normal 0 1 -0
    outer loop
      vertex 28.2091 -1.98904 -5
      vertex 27.7909 -1.98904 5
      vertex 28.2091 -1.98904 5
    endloop
  endfacet
  facet normal 0 1 0
    outer loop
      vertex 27.7909 -1.98904 5
      vertex 28.2091 -1.98904 -5
      vertex 27.7909 -1.98904 -5
    endloop
  endfacet
  facet normal 0.20791 0.978148 -0
    outer loop
      vertex 27.7909 -1.98904 -5
      vertex 27.382 -1.90211 5
      vertex 27.7909 -1.98904 5
    endloop
  endfacet
  facet normal 0.20791 0.978148 0
    outer loop
      vertex 27.382 -1.90211 5
      vertex 27.7909 -1.98904 -5
      vertex 27.382 -1.90211 -5
    endloop
  endfacet
  facet normal 0.587786 0.809017 -0
    outer loop
      vertex 27 -1.73205 -5
      vertex 26.6617 -1.48629 5
      vertex 27 -1.73205 5
    endloop
  endfacet
  facet normal 0.587786 0.809017 0
    outer loop
      vertex 26.6617 -1.48629 5
      vertex 27 -1.73205 -5
      vertex 26.6617 -1.48629 -5
    endloop
  endfacet
  facet normal 0.866026 0.499999 0
    outer loop
      vertex 26.382 -1.17557 5
      vertex 26.1729 -0.813473 -5
      vertex 26.1729 -0.813473 5
    endloop
  endfacet
  facet normal 0.866026 0.499999 0
    outer loop
      vertex 26.1729 -0.813473 -5
      vertex 26.382 -1.17557 5
      vertex 26.382 -1.17557 -5
    endloop
  endfacet
  facet normal 0.951057 0.309016 0
    outer loop
      vertex 26.1729 -0.813473 5
      vertex 26.0437 -0.415823 -5
      vertex 26.0437 -0.415823 5
    endloop
  endfacet
  facet normal 0.951057 0.309016 0
    outer loop
      vertex 26.0437 -0.415823 -5
      vertex 26.1729 -0.813473 5
      vertex 26.1729 -0.813473 -5
    endloop
  endfacet
  facet normal -0.743143 0.669133 0
    outer loop
      vertex 29.3383 -1.48629 -5
      vertex 29.618 -1.17557 5
      vertex 29.618 -1.17557 -5
    endloop
  endfacet
  facet normal -0.743143 0.669133 0
    outer loop
      vertex 29.618 -1.17557 5
      vertex 29.3383 -1.48629 -5
      vertex 29.3383 -1.48629 5
    endloop
  endfacet
  facet normal 0.406739 0.913545 -0
    outer loop
      vertex 27.382 -1.90211 -5
      vertex 27 -1.73205 5
      vertex 27.382 -1.90211 5
    endloop
  endfacet
  facet normal 0.406739 0.913545 0
    outer loop
      vertex 27 -1.73205 5
      vertex 27.382 -1.90211 -5
      vertex 27 -1.73205 -5
    endloop
  endfacet
  facet normal -0.994522 -0.104529 0
    outer loop
      vertex 40 0 -5
      vertex 39.9563 0.415823 5
      vertex 39.9563 0.415823 -5
    endloop
  endfacet
  facet normal -0.994522 -0.104529 0
    outer loop
      vertex 39.9563 0.415823 5
      vertex 40 0 -5
      vertex 40 0 5
    endloop
  endfacet
  facet normal 0.20791 -0.978148 0
    outer loop
      vertex 37.382 1.90211 -5
      vertex 37.7909 1.98904 5
      vertex 37.382 1.90211 5
    endloop
  endfacet
  facet normal 0.20791 -0.978148 0
    outer loop
      vertex 37.7909 1.98904 5
      vertex 37.382 1.90211 -5
      vertex 37.7909 1.98904 -5
    endloop
  endfacet
  facet normal -0.20791 0.978148 0
    outer loop
      vertex 38.618 -1.90211 -5
      vertex 38.2091 -1.98904 5
      vertex 38.618 -1.90211 5
    endloop
  endfacet
  facet normal -0.20791 0.978148 0
    outer loop
      vertex 38.2091 -1.98904 5
      vertex 38.618 -1.90211 -5
      vertex 38.2091 -1.98904 -5
    endloop
  endfacet
  facet normal -0.406739 0.913545 0
    outer loop
      vertex 39 -1.73205 -5
      vertex 38.618 -1.90211 5
      vertex 39 -1.73205 5
    endloop
  endfacet
  facet normal -0.406739 0.913545 0
    outer loop
      vertex 38.618 -1.90211 5
      vertex 39 -1.73205 -5
      vertex 38.618 -1.90211 -5
    endloop
  endfacet
  facet normal -0.587786 -0.809017 0
    outer loop
      vertex 39 1.73205 -5
      vertex 39.3383 1.48629 5
      vertex 39 1.73205 5
    endloop
  endfacet
  facet normal -0.587786 -0.809017 -0
    outer loop
      vertex 39.3383 1.48629 5
      vertex 39 1.73205 -5
      vertex 39.3383 1.48629 -5
    endloop
  endfacet
  facet normal 0.743143 -0.669133 0
    outer loop
      vertex 36.382 1.17557 5
      vertex 36.6617 1.48629 -5
      vertex 36.6617 1.48629 5
    endloop
  endfacet
  facet normal 0.743143 -0.669133 0
    outer loop
      vertex 36.6617 1.48629 -5
      vertex 36.382 1.17557 5
      vertex 36.382 1.17557 -5
    endloop
  endfacet
  facet normal 0.587786 -0.809017 0
    outer loop
      vertex 36.6617 1.48629 -5
      vertex 37 1.73205 5
      vertex 36.6617 1.48629 5
    endloop
  endfacet
  facet normal 0.587786 -0.809017 0
    outer loop
      vertex 37 1.73205 5
      vertex 36.6617 1.48629 -5
      vertex 37 1.73205 -5
    endloop
  endfacet
  facet normal -0.866026 -0.499999 0
    outer loop
      vertex 39.8271 0.813473 -5
      vertex 39.618 1.17557 5
      vertex 39.618 1.17557 -5
    endloop
  endfacet
  facet normal -0.866026 -0.499999 0
    outer loop
      vertex 39.618 1.17557 5
      vertex 39.8271 0.813473 -5
      vertex 39.8271 0.813473 5
    endloop
  endfacet
  facet normal -0.951057 -0.309016 0
    outer loop
      vertex 39.9563 0.415823 -5
      vertex 39.8271 0.813473 5
      vertex 39.8271 0.813473 -5
    endloop
  endfacet
  facet normal -0.951057 -0.309016 0
    outer loop
      vertex 39.8271 0.813473 5
      vertex 39.9563 0.415823 -5
      vertex 39.9563 0.415823 5
    endloop
  endfacet
  facet normal -0.743143 -0.669133 0
    outer loop
      vertex 39.618 1.17557 -5
      vertex 39.3383 1.48629 5
      vertex 39.3383 1.48629 -5
    endloop
  endfacet
  facet normal -0.743143 -0.669133 0
    outer loop
      vertex 39.3383 1.48629 5
      vertex 39.618 1.17557 -5
      vertex 39.618 1.17557 5
    endloop
  endfacet
  facet normal -0.20791 -0.978148 0
    outer loop
      vertex 38.2091 1.98904 -5
      vertex 38.618 1.90211 5
      vertex 38.2091 1.98904 5
    endloop
  endfacet
  facet normal -0.20791 -0.978148 -0
    outer loop
      vertex 38.618 1.90211 5
      vertex 38.2091 1.98904 -5
      vertex 38.618 1.90211 -5
    endloop
  endfacet
  facet normal 0 -1 0
    outer loop
      vertex 37.7909 1.98904 -5
      vertex 38.2091 1.98904 5
      vertex 37.7909 1.98904 5
    endloop
  endfacet
  facet normal 0 -1 -0
    outer loop
      vertex 38.2091 1.98904 5
      vertex 37.7909 1.98904 -5
      vertex 38.2091 1.98904 -5
    endloop
  endfacet
  facet normal -0.406739 -0.913545 0
    outer loop
      vertex 38.618 1.90211 -5
      vertex 39 1.73205 5
      vertex 38.618 1.90211 5
    endloop
  endfacet
  facet normal -0.406739 -0.913545 -0
    outer loop
      vertex 39 1.73205 5
      vertex 38.618 1.90211 -5
      vertex 39 1.73205 -5
    endloop
  endfacet
  facet normal 0.951057 -0.309016 0
    outer loop
      vertex 36.0437 0.415823 5
      vertex 36.1729 0.813473 -5
      vertex 36.1729 0.813473 5
    endloop
  endfacet
  facet normal 0.951057 -0.309016 0
    outer loop
      vertex 36.1729 0.813473 -5
      vertex 36.0437 0.415823 5
      vertex 36.0437 0.415823 -5
    endloop
  endfacet
  facet normal 0.866026 -0.499999 0
    outer loop
      vertex 36.1729 0.813473 5
      vertex 36.382 1.17557 -5
      vertex 36.382 1.17557 5
    endloop
  endfacet
  facet normal 0.866026 -0.499999 0
    outer loop
      vertex 36.382 1.17557 -5
      vertex 36.1729 0.813473 5
      vertex 36.1729 0.813473 -5
    endloop
  endfacet
  facet normal 0.994522 -0.104529 0
    outer loop
      vertex 36 0 5
      vertex 36.0437 0.415823 -5
      vertex 36.0437 0.415823 5
    endloop
  endfacet
  facet normal 0.994522 -0.104529 0
    outer loop
      vertex 36.0437 0.415823 -5
      vertex 36 0 5
      vertex 36 0 -5
    endloop
  endfacet
  facet normal 0.406739 -0.913545 0
    outer loop
      vertex 37 1.73205 -5
      vertex 37.382 1.90211 5
      vertex 37 1.73205 5
    endloop
  endfacet
  facet normal 0.406739 -0.913545 0
    outer loop
      vertex 37.382 1.90211 5
      vertex 37 1.73205 -5
      vertex 37.382 1.90211 -5
    endloop
  endfacet
  facet normal -0.994522 0.104529 0
    outer loop
      vertex 39.9563 -0.415823 -5
      vertex 40 0 5
      vertex 40 0 -5
    endloop
  endfacet
  facet normal -0.994522 0.104529 0
    outer loop
      vertex 40 0 5
      vertex 39.9563 -0.415823 -5
      vertex 39.9563 -0.415823 5
    endloop
  endfacet
  facet normal -0.743143 0.669133 0
    outer loop
      vertex 39.3383 -1.48629 -5
      vertex 39.618 -1.17557 5
      vertex 39.618 -1.17557 -5
    endloop
  endfacet
  facet normal -0.743143 0.669133 0
    outer loop
      vertex 39.618 -1.17557 5
      vertex 39.3383 -1.48629 -5
      vertex 39.3383 -1.48629 5
    endloop
  endfacet
  facet normal 0.994522 0.104529 0
    outer loop
      vertex 36.0437 -0.415823 5
      vertex 36 0 -5
      vertex 36 0 5
    endloop
  endfacet
  facet normal 0.994522 0.104529 0
    outer loop
      vertex 36 0 -5
      vertex 36.0437 -0.415823 5
      vertex 36.0437 -0.415823 -5
    endloop
  endfacet
  facet normal -0.866026 0.499999 0
    outer loop
      vertex 39.618 -1.17557 -5
      vertex 39.8271 -0.813473 5
      vertex 39.8271 -0.813473 -5
    endloop
  endfacet
  facet normal -0.866026 0.499999 0
    outer loop
      vertex 39.8271 -0.813473 5
      vertex 39.618 -1.17557 -5
      vertex 39.618 -1.17557 5
    endloop
  endfacet
  facet normal 0.743143 0.669133 0
    outer loop
      vertex 36.6617 -1.48629 5
      vertex 36.382 -1.17557 -5
      vertex 36.382 -1.17557 5
    endloop
  endfacet
  facet normal 0.743143 0.669133 0
    outer loop
      vertex 36.382 -1.17557 -5
      vertex 36.6617 -1.48629 5
      vertex 36.6617 -1.48629 -5
    endloop
  endfacet
  facet normal 0.951057 0.309016 0
    outer loop
      vertex 36.1729 -0.813473 5
      vertex 36.0437 -0.415823 -5
      vertex 36.0437 -0.415823 5
    endloop
  endfacet
  facet normal 0.951057 0.309016 0
    outer loop
      vertex 36.0437 -0.415823 -5
      vertex 36.1729 -0.813473 5
      vertex 36.1729 -0.813473 -5
    endloop
  endfacet
  facet normal -0.587786 0.809017 0
    outer loop
      vertex 39.3383 -1.48629 -5
      vertex 39 -1.73205 5
      vertex 39.3383 -1.48629 5
    endloop
  endfacet
  facet normal -0.587786 0.809017 0
    outer loop
      vertex 39 -1.73205 5
      vertex 39.3383 -1.48629 -5
      vertex 39 -1.73205 -5
    endloop
  endfacet
  facet normal -0.951057 0.309016 0
    outer loop
      vertex 39.8271 -0.813473 -5
      vertex 39.9563 -0.415823 5
      vertex 39.9563 -0.415823 -5
    endloop
  endfacet
  facet normal -0.951057 0.309016 0
    outer loop
      vertex 39.9563 -0.415823 5
      vertex 39.8271 -0.813473 -5
      vertex 39.8271 -0.813473 5
    endloop
  endfacet
  facet normal 0.20791 0.978148 -0
    outer loop
      vertex 37.7909 -1.98904 -5
      vertex 37.382 -1.90211 5
      vertex 37.7909 -1.98904 5
    endloop
  endfacet
  facet normal 0.20791 0.978148 0
    outer loop
      vertex 37.382 -1.90211 5
      vertex 37.7909 -1.98904 -5
      vertex 37.382 -1.90211 -5
    endloop
  endfacet
  facet normal 0.587786 0.809017 -0
    outer loop
      vertex 37 -1.73205 -5
      vertex 36.6617 -1.48629 5
      vertex 37 -1.73205 5
    endloop
  endfacet
  facet normal 0.587786 0.809017 0
    outer loop
      vertex 36.6617 -1.48629 5
      vertex 37 -1.73205 -5
      vertex 36.6617 -1.48629 -5
    endloop
  endfacet
  facet normal 0.866026 0.499999 0
    outer loop
      vertex 36.382 -1.17557 5
      vertex 36.1729 -0.813473 -5
      vertex 36.1729 -0.813473 5
    endloop
  endfacet
  facet normal 0.866026 0.499999 0
    outer loop
      vertex 36.1729 -0.813473 -5
      vertex 36.382 -1.17557 5
      vertex 36.382 -1.17557 -5
    endloop
  endfacet
  facet normal 0.406739 0.913545 -0
    outer loop
      vertex 37.382 -1.90211 -5
      vertex 37 -1.73205 5
      vertex 37.382 -1.90211 5
    endloop
  endfacet
  facet normal 0.406739 0.913545 0
    outer loop
      vertex 37 -1.73205 5
      vertex 37.382 -1.90211 -5
      vertex 37 -1.73205 -5
    endloop
  endfacet
  facet normal 0 1 -0
    outer loop
      vertex 38.2091 -1.98904 -5
      vertex 37.7909 -1.98904 5
      vertex 38.2091 -1.98904 5
    endloop
  endfacet
  facet normal 0 1 0
    outer loop
      vertex 37.7909 -1.98904 5
      vertex 38.2091 -1.98904 -5
      vertex 37.7909 -1.98904 -5
    endloop
  endfacet
endsolid OpenSCAD_Model
