solid OpenSCAD_Model
  facet normal 0.994522 -0.104529 0
    outer loop
      vertex 1.9563 -4.91582 6
      vertex 2 -4.5 2
      vertex 2 -4.5 6
    endloop
  endfacet
  facet normal 0.994522 -0.104529 0
    outer loop
      vertex 2 -4.5 2
      vertex 1.9563 -4.91582 6
      vertex 2 -4.5 -2
    endloop
  endfacet
  facet normal 0.994522 -0.104529 0
    outer loop
      vertex 1.9563 -4.91582 -6
      vertex 2 -4.5 -2
      vertex 1.9563 -4.91582 6
    endloop
  endfacet
  facet normal 0.994522 -0.104529 0
    outer loop
      vertex 2 -4.5 -2
      vertex 1.9563 -4.91582 -6
      vertex 2 -4.5 -6
    endloop
  endfacet
  facet normal 1 -0 0
    outer loop
      vertex 2 -4.5 -2
      vertex 2 4.5 -6
      vertex 2 4.5 -2
    endloop
  endfacet
  facet normal 1 0 0
    outer loop
      vertex 2 4.5 -6
      vertex 2 -4.5 -2
      vertex 2 -4.5 -6
    endloop
  endfacet
  facet normal 1 -0 0
    outer loop
      vertex 2 -4.5 6
      vertex 2 4.5 2
      vertex 2 4.5 6
    endloop
  endfacet
  facet normal 1 0 0
    outer loop
      vertex 2 4.5 2
      vertex 2 -4.5 6
      vertex 2 -4.5 2
    endloop
  endfacet
  facet normal 0.207911 0.978148 -0
    outer loop
      vertex 0.618033 6.40211 -6
      vertex 0.209057 6.48904 6
      vertex 0.618033 6.40211 6
    endloop
  endfacet
  facet normal 0.207911 0.978148 0
    outer loop
      vertex 0.209057 6.48904 6
      vertex 0.618033 6.40211 -6
      vertex 0.209057 6.48904 -6
    endloop
  endfacet
  facet normal 0.866026 -0.499999 0
    outer loop
      vertex 1.61803 -5.67557 6
      vertex 1.82709 -5.31347 -6
      vertex 1.82709 -5.31347 6
    endloop
  endfacet
  facet normal 0.866026 -0.499999 0
    outer loop
      vertex 1.82709 -5.31347 -6
      vertex 1.61803 -5.67557 6
      vertex 1.61803 -5.67557 -6
    endloop
  endfacet
  facet normal 0.743144 -0.669131 0
    outer loop
      vertex 1.33826 -5.98629 6
      vertex 1.61803 -5.67557 -6
      vertex 1.61803 -5.67557 6
    endloop
  endfacet
  facet normal 0.743144 -0.669131 0
    outer loop
      vertex 1.61803 -5.67557 -6
      vertex 1.33826 -5.98629 6
      vertex 1.33826 -5.98629 -6
    endloop
  endfacet
  facet normal -0.994522 -0.104529 0
    outer loop
      vertex -3.9563 -4.91582 -6
      vertex -4 -4.5 6
      vertex -4 -4.5 -6
    endloop
  endfacet
  facet normal -0.994522 -0.104529 0
    outer loop
      vertex -4 -4.5 6
      vertex -3.9563 -4.91582 -6
      vertex -3.9563 -4.91582 6
    endloop
  endfacet
  facet normal 0.994522 0.104529 -0
    outer loop
      vertex 2 4.5 2
      vertex 1.9563 4.91582 6
      vertex 2 4.5 6
    endloop
  endfacet
  facet normal 0.994522 0.104529 0
    outer loop
      vertex 1.9563 4.91582 6
      vertex 2 4.5 2
      vertex 1.9563 4.91582 -6
    endloop
  endfacet
  facet normal 0.994522 0.104529 -0
    outer loop
      vertex 2 4.5 -2
      vertex 1.9563 4.91582 -6
      vertex 2 4.5 2
    endloop
  endfacet
  facet normal 0.994522 0.104529 0
    outer loop
      vertex 1.9563 4.91582 -6
      vertex 2 4.5 -2
      vertex 2 4.5 -6
    endloop
  endfacet
  facet normal 0.587786 -0.809017 0
    outer loop
      vertex 1 -6.23205 -6
      vertex 1.33826 -5.98629 6
      vertex 1 -6.23205 6
    endloop
  endfacet
  facet normal 0.587786 -0.809017 0
    outer loop
      vertex 1.33826 -5.98629 6
      vertex 1 -6.23205 -6
      vertex 1.33826 -5.98629 -6
    endloop
  endfacet
  facet normal 0.951056 -0.309018 0
    outer loop
      vertex 1.82709 -5.31347 6
      vertex 1.9563 -4.91582 -6
      vertex 1.9563 -4.91582 6
    endloop
  endfacet
  facet normal 0.951056 -0.309018 0
    outer loop
      vertex 1.9563 -4.91582 -6
      vertex 1.82709 -5.31347 6
      vertex 1.82709 -5.31347 -6
    endloop
  endfacet
  facet normal 0.207911 -0.978148 0
    outer loop
      vertex 0.209057 -6.48904 -6
      vertex 0.618033 -6.40211 6
      vertex 0.209057 -6.48904 6
    endloop
  endfacet
  facet normal 0.207911 -0.978148 0
    outer loop
      vertex 0.618033 -6.40211 6
      vertex 0.209057 -6.48904 -6
      vertex 0.618033 -6.40211 -6
    endloop
  endfacet
  facet normal 0.406738 -0.913545 0
    outer loop
      vertex 0.618033 -6.40211 -6
      vertex 1 -6.23205 6
      vertex 0.618033 -6.40211 6
    endloop
  endfacet
  facet normal 0.406738 -0.913545 0
    outer loop
      vertex 1 -6.23205 6
      vertex 0.618033 -6.40211 -6
      vertex 1 -6.23205 -6
    endloop
  endfacet
  facet normal -0.587786 -0.809017 0
    outer loop
      vertex -3.33826 -5.98629 -6
      vertex -3 -6.23205 6
      vertex -3.33826 -5.98629 6
    endloop
  endfacet
  facet normal -0.587786 -0.809017 -0
    outer loop
      vertex -3 -6.23205 6
      vertex -3.33826 -5.98629 -6
      vertex -3 -6.23205 -6
    endloop
  endfacet
  facet normal 0 -1 0
    outer loop
      vertex -2.20906 -6.48904 -6
      vertex 0.209057 -6.48904 6
      vertex -2.20906 -6.48904 6
    endloop
  endfacet
  facet normal 0 -1 -0
    outer loop
      vertex 0.209057 -6.48904 6
      vertex -2.20906 -6.48904 -6
      vertex 0.209057 -6.48904 -6
    endloop
  endfacet
  facet normal 0 0 1
    outer loop
      vertex 0.209057 6.48904 6
      vertex 2 4.5 6
      vertex 1.9563 4.91582 6
    endloop
  endfacet
  facet normal 0 0 1
    outer loop
      vertex 2 4.5 6
      vertex -4 4.5 6
      vertex 2 -4.5 6
    endloop
  endfacet
  facet normal 0 0 1
    outer loop
      vertex 0.209057 6.48904 6
      vertex 1.9563 4.91582 6
      vertex 1.82709 5.31347 6
    endloop
  endfacet
  facet normal -0 0 1
    outer loop
      vertex -4 -4.5 6
      vertex 2 -4.5 6
      vertex -4 4.5 6
    endloop
  endfacet
  facet normal 0 0 1
    outer loop
      vertex 0.209057 6.48904 6
      vertex 1.82709 5.31347 6
      vertex 1.61803 5.67557 6
    endloop
  endfacet
  facet normal 0 -0 1
    outer loop
      vertex 0.209057 -6.48904 6
      vertex 2 -4.5 6
      vertex -4 -4.5 6
    endloop
  endfacet
  facet normal 0 0 1
    outer loop
      vertex 0.209057 6.48904 6
      vertex 1.61803 5.67557 6
      vertex 1.33826 5.98629 6
    endloop
  endfacet
  facet normal 0 0 1
    outer loop
      vertex 2 -4.5 6
      vertex 0.209057 -6.48904 6
      vertex 1.9563 -4.91582 6
    endloop
  endfacet
  facet normal 0 0 1
    outer loop
      vertex 0.209057 6.48904 6
      vertex 1.33826 5.98629 6
      vertex 1 6.23205 6
    endloop
  endfacet
  facet normal 0 0 1
    outer loop
      vertex 1.9563 -4.91582 6
      vertex 0.209057 -6.48904 6
      vertex 1.82709 -5.31347 6
    endloop
  endfacet
  facet normal 0 0 1
    outer loop
      vertex 0.209057 6.48904 6
      vertex 1 6.23205 6
      vertex 0.618033 6.40211 6
    endloop
  endfacet
  facet normal 0 0 1
    outer loop
      vertex 1.82709 -5.31347 6
      vertex 0.209057 -6.48904 6
      vertex 1.61803 -5.67557 6
    endloop
  endfacet
  facet normal 0 0 1
    outer loop
      vertex 2 4.5 6
      vertex 0.209057 6.48904 6
      vertex -4 4.5 6
    endloop
  endfacet
  facet normal 0 0 1
    outer loop
      vertex 1.61803 -5.67557 6
      vertex 0.209057 -6.48904 6
      vertex 1.33826 -5.98629 6
    endloop
  endfacet
  facet normal 0 0 1
    outer loop
      vertex -4 4.5 6
      vertex 0.209057 6.48904 6
      vertex -2.20906 6.48904 6
    endloop
  endfacet
  facet normal 0 0 1
    outer loop
      vertex 1.33826 -5.98629 6
      vertex 0.209057 -6.48904 6
      vertex 1 -6.23205 6
    endloop
  endfacet
  facet normal 0 0 1
    outer loop
      vertex -4 4.5 6
      vertex -2.20906 6.48904 6
      vertex -2.61803 6.40211 6
    endloop
  endfacet
  facet normal 0 0 1
    outer loop
      vertex 1 -6.23205 6
      vertex 0.209057 -6.48904 6
      vertex 0.618033 -6.40211 6
    endloop
  endfacet
  facet normal 0 0 1
    outer loop
      vertex -4 4.5 6
      vertex -2.61803 6.40211 6
      vertex -3 6.23205 6
    endloop
  endfacet
  facet normal 0 0 1
    outer loop
      vertex 0.209057 -6.48904 6
      vertex -4 -4.5 6
      vertex -2.20906 -6.48904 6
    endloop
  endfacet
  facet normal 0 0 1
    outer loop
      vertex -4 4.5 6
      vertex -3 6.23205 6
      vertex -3.33826 5.98629 6
    endloop
  endfacet
  facet normal 0 0 1
    outer loop
      vertex -2.20906 -6.48904 6
      vertex -4 -4.5 6
      vertex -2.61803 -6.40211 6
    endloop
  endfacet
  facet normal 0 0 1
    outer loop
      vertex -4 4.5 6
      vertex -3.33826 5.98629 6
      vertex -3.61803 5.67557 6
    endloop
  endfacet
  facet normal 0 0 1
    outer loop
      vertex -2.61803 -6.40211 6
      vertex -4 -4.5 6
      vertex -3 -6.23205 6
    endloop
  endfacet
  facet normal 0 0 1
    outer loop
      vertex -4 4.5 6
      vertex -3.61803 5.67557 6
      vertex -3.82709 5.31347 6
    endloop
  endfacet
  facet normal 0 0 1
    outer loop
      vertex -3 -6.23205 6
      vertex -4 -4.5 6
      vertex -3.33826 -5.98629 6
    endloop
  endfacet
  facet normal 0 0 1
    outer loop
      vertex -4 4.5 6
      vertex -3.82709 5.31347 6
      vertex -3.9563 4.91582 6
    endloop
  endfacet
  facet normal 0 0 1
    outer loop
      vertex -3.33826 -5.98629 6
      vertex -4 -4.5 6
      vertex -3.61803 -5.67557 6
    endloop
  endfacet
  facet normal 0 0 1
    outer loop
      vertex -3.61803 -5.67557 6
      vertex -4 -4.5 6
      vertex -3.82709 -5.31347 6
    endloop
  endfacet
  facet normal 0 0 1
    outer loop
      vertex -3.82709 -5.31347 6
      vertex -4 -4.5 6
      vertex -3.9563 -4.91582 6
    endloop
  endfacet
  facet normal -0.207911 0.978148 0
    outer loop
      vertex -2.20906 6.48904 -6
      vertex -2.61803 6.40211 6
      vertex -2.20906 6.48904 6
    endloop
  endfacet
  facet normal -0.207911 0.978148 0
    outer loop
      vertex -2.61803 6.40211 6
      vertex -2.20906 6.48904 -6
      vertex -2.61803 6.40211 -6
    endloop
  endfacet
  facet normal 0.743144 0.669131 0
    outer loop
      vertex 1.61803 5.67557 6
      vertex 1.33826 5.98629 -6
      vertex 1.33826 5.98629 6
    endloop
  endfacet
  facet normal 0.743144 0.669131 0
    outer loop
      vertex 1.33826 5.98629 -6
      vertex 1.61803 5.67557 6
      vertex 1.61803 5.67557 -6
    endloop
  endfacet
  facet normal -0.743144 -0.669131 0
    outer loop
      vertex -3.33826 -5.98629 -6
      vertex -3.61803 -5.67557 6
      vertex -3.61803 -5.67557 -6
    endloop
  endfacet
  facet normal -0.743144 -0.669131 0
    outer loop
      vertex -3.61803 -5.67557 6
      vertex -3.33826 -5.98629 -6
      vertex -3.33826 -5.98629 6
    endloop
  endfacet
  facet normal -0.994522 0.104529 0
    outer loop
      vertex -4 4.5 -6
      vertex -3.9563 4.91582 6
      vertex -3.9563 4.91582 -6
    endloop
  endfacet
  facet normal -0.994522 0.104529 0
    outer loop
      vertex -3.9563 4.91582 6
      vertex -4 4.5 -6
      vertex -4 4.5 6
    endloop
  endfacet
  facet normal -1 0 0
    outer loop
      vertex -4 -4.5 -6
      vertex -4 4.5 6
      vertex -4 4.5 -6
    endloop
  endfacet
  facet normal -1 -0 0
    outer loop
      vertex -4 4.5 6
      vertex -4 -4.5 -6
      vertex -4 -4.5 6
    endloop
  endfacet
  facet normal 0 0 -1
    outer loop
      vertex 0.209057 -6.48904 -6
      vertex 2 -4.5 -6
      vertex 1.9563 -4.91582 -6
    endloop
  endfacet
  facet normal 0 0 -1
    outer loop
      vertex 2 -4.5 -6
      vertex -4 -4.5 -6
      vertex 2 4.5 -6
    endloop
  endfacet
  facet normal 0 0 -1
    outer loop
      vertex 0.209057 -6.48904 -6
      vertex 1.9563 -4.91582 -6
      vertex 1.82709 -5.31347 -6
    endloop
  endfacet
  facet normal 0 0 -1
    outer loop
      vertex -4 4.5 -6
      vertex 2 4.5 -6
      vertex -4 -4.5 -6
    endloop
  endfacet
  facet normal 0 0 -1
    outer loop
      vertex 0.209057 -6.48904 -6
      vertex 1.82709 -5.31347 -6
      vertex 1.61803 -5.67557 -6
    endloop
  endfacet
  facet normal 0 -0 -1
    outer loop
      vertex 0.209057 6.48904 -6
      vertex 2 4.5 -6
      vertex -4 4.5 -6
    endloop
  endfacet
  facet normal 0 0 -1
    outer loop
      vertex 0.209057 -6.48904 -6
      vertex 1.61803 -5.67557 -6
      vertex 1.33826 -5.98629 -6
    endloop
  endfacet
  facet normal 0 0 -1
    outer loop
      vertex 2 4.5 -6
      vertex 0.209057 6.48904 -6
      vertex 1.9563 4.91582 -6
    endloop
  endfacet
  facet normal 0 0 -1
    outer loop
      vertex 0.209057 -6.48904 -6
      vertex 1.33826 -5.98629 -6
      vertex 1 -6.23205 -6
    endloop
  endfacet
  facet normal 0 0 -1
    outer loop
      vertex 1.9563 4.91582 -6
      vertex 0.209057 6.48904 -6
      vertex 1.82709 5.31347 -6
    endloop
  endfacet
  facet normal 0 0 -1
    outer loop
      vertex 0.209057 -6.48904 -6
      vertex 1 -6.23205 -6
      vertex 0.618033 -6.40211 -6
    endloop
  endfacet
  facet normal 0 0 -1
    outer loop
      vertex 1.82709 5.31347 -6
      vertex 0.209057 6.48904 -6
      vertex 1.61803 5.67557 -6
    endloop
  endfacet
  facet normal -0 0 -1
    outer loop
      vertex 2 -4.5 -6
      vertex 0.209057 -6.48904 -6
      vertex -4 -4.5 -6
    endloop
  endfacet
  facet normal 0 0 -1
    outer loop
      vertex 1.61803 5.67557 -6
      vertex 0.209057 6.48904 -6
      vertex 1.33826 5.98629 -6
    endloop
  endfacet
  facet normal 0 0 -1
    outer loop
      vertex -4 -4.5 -6
      vertex 0.209057 -6.48904 -6
      vertex -2.20906 -6.48904 -6
    endloop
  endfacet
  facet normal 0 0 -1
    outer loop
      vertex 1.33826 5.98629 -6
      vertex 0.209057 6.48904 -6
      vertex 1 6.23205 -6
    endloop
  endfacet
  facet normal 0 0 -1
    outer loop
      vertex -4 -4.5 -6
      vertex -2.20906 -6.48904 -6
      vertex -2.61803 -6.40211 -6
    endloop
  endfacet
  facet normal 0 0 -1
    outer loop
      vertex 1 6.23205 -6
      vertex 0.209057 6.48904 -6
      vertex 0.618033 6.40211 -6
    endloop
  endfacet
  facet normal 0 0 -1
    outer loop
      vertex -2.20906 6.48904 -6
      vertex -4 4.5 -6
      vertex -2.61803 6.40211 -6
    endloop
  endfacet
  facet normal 0 0 -1
    outer loop
      vertex -4 -4.5 -6
      vertex -2.61803 -6.40211 -6
      vertex -3 -6.23205 -6
    endloop
  endfacet
  facet normal 0 0 -1
    outer loop
      vertex -4 -4.5 -6
      vertex -3 -6.23205 -6
      vertex -3.33826 -5.98629 -6
    endloop
  endfacet
  facet normal -0 0 -1
    outer loop
      vertex 0.209057 6.48904 -6
      vertex -4 4.5 -6
      vertex -2.20906 6.48904 -6
    endloop
  endfacet
  facet normal 0 0 -1
    outer loop
      vertex -4 -4.5 -6
      vertex -3.33826 -5.98629 -6
      vertex -3.61803 -5.67557 -6
    endloop
  endfacet
  facet normal 0 0 -1
    outer loop
      vertex -2.61803 6.40211 -6
      vertex -4 4.5 -6
      vertex -3 6.23205 -6
    endloop
  endfacet
  facet normal 0 0 -1
    outer loop
      vertex -4 -4.5 -6
      vertex -3.61803 -5.67557 -6
      vertex -3.82709 -5.31347 -6
    endloop
  endfacet
  facet normal 0 0 -1
    outer loop
      vertex -3 6.23205 -6
      vertex -4 4.5 -6
      vertex -3.33826 5.98629 -6
    endloop
  endfacet
  facet normal 0 0 -1
    outer loop
      vertex -4 -4.5 -6
      vertex -3.82709 -5.31347 -6
      vertex -3.9563 -4.91582 -6
    endloop
  endfacet
  facet normal 0 0 -1
    outer loop
      vertex -3.33826 5.98629 -6
      vertex -4 4.5 -6
      vertex -3.61803 5.67557 -6
    endloop
  endfacet
  facet normal 0 0 -1
    outer loop
      vertex -3.61803 5.67557 -6
      vertex -4 4.5 -6
      vertex -3.82709 5.31347 -6
    endloop
  endfacet
  facet normal 0 0 -1
    outer loop
      vertex -3.82709 5.31347 -6
      vertex -4 4.5 -6
      vertex -3.9563 4.91582 -6
    endloop
  endfacet
  facet normal -0.743144 0.669131 0
    outer loop
      vertex -3.61803 5.67557 -6
      vertex -3.33826 5.98629 6
      vertex -3.33826 5.98629 -6
    endloop
  endfacet
  facet normal -0.743144 0.669131 0
    outer loop
      vertex -3.33826 5.98629 6
      vertex -3.61803 5.67557 -6
      vertex -3.61803 5.67557 6
    endloop
  endfacet
  facet normal 0 1 -0
    outer loop
      vertex 0.209057 6.48904 -6
      vertex -2.20906 6.48904 6
      vertex 0.209057 6.48904 6
    endloop
  endfacet
  facet normal 0 1 0
    outer loop
      vertex -2.20906 6.48904 6
      vertex 0.209057 6.48904 -6
      vertex -2.20906 6.48904 -6
    endloop
  endfacet
  facet normal -0.207911 -0.978148 0
    outer loop
      vertex -2.61803 -6.40211 -6
      vertex -2.20906 -6.48904 6
      vertex -2.61803 -6.40211 6
    endloop
  endfacet
  facet normal -0.207911 -0.978148 -0
    outer loop
      vertex -2.20906 -6.48904 6
      vertex -2.61803 -6.40211 -6
      vertex -2.20906 -6.48904 -6
    endloop
  endfacet
  facet normal -0.406738 -0.913545 0
    outer loop
      vertex -3 -6.23205 -6
      vertex -2.61803 -6.40211 6
      vertex -3 -6.23205 6
    endloop
  endfacet
  facet normal -0.406738 -0.913545 -0
    outer loop
      vertex -2.61803 -6.40211 6
      vertex -3 -6.23205 -6
      vertex -2.61803 -6.40211 -6
    endloop
  endfacet
  facet normal -0.866026 -0.499999 0
    outer loop
      vertex -3.61803 -5.67557 -6
      vertex -3.82709 -5.31347 6
      vertex -3.82709 -5.31347 -6
    endloop
  endfacet
  facet normal -0.866026 -0.499999 0
    outer loop
      vertex -3.82709 -5.31347 6
      vertex -3.61803 -5.67557 -6
      vertex -3.61803 -5.67557 6
    endloop
  endfacet
  facet normal -0.951056 -0.309018 0
    outer loop
      vertex -3.82709 -5.31347 -6
      vertex -3.9563 -4.91582 6
      vertex -3.9563 -4.91582 -6
    endloop
  endfacet
  facet normal -0.951056 -0.309018 0
    outer loop
      vertex -3.9563 -4.91582 6
      vertex -3.82709 -5.31347 -6
      vertex -3.82709 -5.31347 6
    endloop
  endfacet
  facet normal -0.951056 0.309018 0
    outer loop
      vertex -3.9563 4.91582 -6
      vertex -3.82709 5.31347 6
      vertex -3.82709 5.31347 -6
    endloop
  endfacet
  facet normal -0.951056 0.309018 0
    outer loop
      vertex -3.82709 5.31347 6
      vertex -3.9563 4.91582 -6
      vertex -3.9563 4.91582 6
    endloop
  endfacet
  facet normal -0.866026 0.499999 0
    outer loop
      vertex -3.82709 5.31347 -6
      vertex -3.61803 5.67557 6
      vertex -3.61803 5.67557 -6
    endloop
  endfacet
  facet normal -0.866026 0.499999 0
    outer loop
      vertex -3.61803 5.67557 6
      vertex -3.82709 5.31347 -6
      vertex -3.82709 5.31347 6
    endloop
  endfacet
  facet normal -0.587784 0.809018 0
    outer loop
      vertex -3 6.23205 -6
      vertex -3.33826 5.98629 6
      vertex -3 6.23205 6
    endloop
  endfacet
  facet normal -0.587784 0.809018 0
    outer loop
      vertex -3.33826 5.98629 6
      vertex -3 6.23205 -6
      vertex -3.33826 5.98629 -6
    endloop
  endfacet
  facet normal 0.587786 0.809017 -0
    outer loop
      vertex 1.33826 5.98629 -6
      vertex 1 6.23205 6
      vertex 1.33826 5.98629 6
    endloop
  endfacet
  facet normal 0.587786 0.809017 0
    outer loop
      vertex 1 6.23205 6
      vertex 1.33826 5.98629 -6
      vertex 1 6.23205 -6
    endloop
  endfacet
  facet normal 0.406738 0.913545 -0
    outer loop
      vertex 1 6.23205 -6
      vertex 0.618033 6.40211 6
      vertex 1 6.23205 6
    endloop
  endfacet
  facet normal 0.406738 0.913545 0
    outer loop
      vertex 0.618033 6.40211 6
      vertex 1 6.23205 -6
      vertex 0.618033 6.40211 -6
    endloop
  endfacet
  facet normal 0.866026 0.499999 0
    outer loop
      vertex 1.82709 5.31347 6
      vertex 1.61803 5.67557 -6
      vertex 1.61803 5.67557 6
    endloop
  endfacet
  facet normal 0.866026 0.499999 0
    outer loop
      vertex 1.61803 5.67557 -6
      vertex 1.82709 5.31347 6
      vertex 1.82709 5.31347 -6
    endloop
  endfacet
  facet normal 0.951056 0.309018 0
    outer loop
      vertex 1.9563 4.91582 6
      vertex 1.82709 5.31347 -6
      vertex 1.82709 5.31347 6
    endloop
  endfacet
  facet normal 0.951056 0.309018 0
    outer loop
      vertex 1.82709 5.31347 -6
      vertex 1.9563 4.91582 6
      vertex 1.9563 4.91582 -6
    endloop
  endfacet
  facet normal -0.406739 0.913545 0
    outer loop
      vertex -2.61803 6.40211 -6
      vertex -3 6.23205 6
      vertex -2.61803 6.40211 6
    endloop
  endfacet
  facet normal -0.406739 0.913545 0
    outer loop
      vertex -3 6.23205 6
      vertex -2.61803 6.40211 -6
      vertex -3 6.23205 -6
    endloop
  endfacet
  facet normal -0 0 1
    outer loop
      vertex 2 4.5 2
      vertex 2.05 -4.5 2
      vertex 2.05 4.5 2
    endloop
  endfacet
  facet normal 0 0 1
    outer loop
      vertex 2.05 -4.5 2
      vertex 2 4.5 2
      vertex 2 -4.5 2
    endloop
  endfacet
  facet normal 1 -0 0
    outer loop
      vertex 2.05 -4.5 2
      vertex 2.05 4.5 -2
      vertex 2.05 4.5 2
    endloop
  endfacet
  facet normal 1 0 0
    outer loop
      vertex 2.05 4.5 -2
      vertex 2.05 -4.5 2
      vertex 2.05 -4.5 -2
    endloop
  endfacet
  facet normal 0 1 -0
    outer loop
      vertex 2.05 4.5 -2
      vertex 2 4.5 2
      vertex 2.05 4.5 2
    endloop
  endfacet
  facet normal 0 1 0
    outer loop
      vertex 2 4.5 2
      vertex 2.05 4.5 -2
      vertex 2 4.5 -2
    endloop
  endfacet
  facet normal 0 0 -1
    outer loop
      vertex 2 -4.5 -2
      vertex 2.05 4.5 -2
      vertex 2.05 -4.5 -2
    endloop
  endfacet
  facet normal -0 0 -1
    outer loop
      vertex 2.05 4.5 -2
      vertex 2 -4.5 -2
      vertex 2 4.5 -2
    endloop
  endfacet
  facet normal 0 -1 0
    outer loop
      vertex 2 -4.5 -2
      vertex 2.05 -4.5 2
      vertex 2 -4.5 2
    endloop
  endfacet
  facet normal 0 -1 -0
    outer loop
      vertex 2.05 -4.5 2
      vertex 2 -4.5 -2
      vertex 2.05 -4.5 -2
    endloop
  endfacet
  facet normal 0.994522 -0.104529 0
    outer loop
      vertex 8.01629 -4.91582 6
      vertex 8.06 -4.5 2
      vertex 8.06 -4.5 6
    endloop
  endfacet
  facet normal 0.994522 -0.104529 0
    outer loop
      vertex 8.06 -4.5 2
      vertex 8.01629 -4.91582 6
      vertex 8.06 -4.5 -2
    endloop
  endfacet
  facet normal 0.994522 -0.104529 0
    outer loop
      vertex 8.01629 -4.91582 -6
      vertex 8.06 -4.5 -2
      vertex 8.01629 -4.91582 6
    endloop
  endfacet
  facet normal 0.994522 -0.104529 0
    outer loop
      vertex 8.06 -4.5 -2
      vertex 8.01629 -4.91582 -6
      vertex 8.06 -4.5 -6
    endloop
  endfacet
  facet normal 1 -0 0
    outer loop
      vertex 8.06 -4.5 -2
      vertex 8.06 4.5 -6
      vertex 8.06 4.5 -2
    endloop
  endfacet
  facet normal 1 0 0
    outer loop
      vertex 8.06 4.5 -6
      vertex 8.06 -4.5 -2
      vertex 8.06 -4.5 -6
    endloop
  endfacet
  facet normal 1 -0 0
    outer loop
      vertex 8.06 -4.5 6
      vertex 8.06 4.5 2
      vertex 8.06 4.5 6
    endloop
  endfacet
  facet normal 1 0 0
    outer loop
      vertex 8.06 4.5 2
      vertex 8.06 -4.5 6
      vertex 8.06 -4.5 2
    endloop
  endfacet
  facet normal 0.20791 0.978148 -0
    outer loop
      vertex 6.67803 6.40211 -6
      vertex 6.26906 6.48904 6
      vertex 6.67803 6.40211 6
    endloop
  endfacet
  facet normal 0.20791 0.978148 0
    outer loop
      vertex 6.26906 6.48904 6
      vertex 6.67803 6.40211 -6
      vertex 6.26906 6.48904 -6
    endloop
  endfacet
  facet normal 0.866026 -0.499999 0
    outer loop
      vertex 7.67803 -5.67557 6
      vertex 7.88709 -5.31347 -6
      vertex 7.88709 -5.31347 6
    endloop
  endfacet
  facet normal 0.866026 -0.499999 0
    outer loop
      vertex 7.88709 -5.31347 -6
      vertex 7.67803 -5.67557 6
      vertex 7.67803 -5.67557 -6
    endloop
  endfacet
  facet normal -0.994522 -0.104529 0
    outer loop
      vertex 2.1037 -4.91582 -6
      vertex 2.06 -4.5 6
      vertex 2.06 -4.5 -6
    endloop
  endfacet
  facet normal -0.994522 -0.104529 0
    outer loop
      vertex 2.06 -4.5 6
      vertex 2.1037 -4.91582 -6
      vertex 2.1037 -4.91582 6
    endloop
  endfacet
  facet normal 0.994522 0.104529 -0
    outer loop
      vertex 8.06 4.5 2
      vertex 8.01629 4.91582 6
      vertex 8.06 4.5 6
    endloop
  endfacet
  facet normal 0.994522 0.104529 0
    outer loop
      vertex 8.01629 4.91582 6
      vertex 8.06 4.5 2
      vertex 8.01629 4.91582 -6
    endloop
  endfacet
  facet normal 0.994522 0.104529 -0
    outer loop
      vertex 8.06 4.5 -2
      vertex 8.01629 4.91582 -6
      vertex 8.06 4.5 2
    endloop
  endfacet
  facet normal 0.994522 0.104529 0
    outer loop
      vertex 8.01629 4.91582 -6
      vertex 8.06 4.5 -2
      vertex 8.06 4.5 -6
    endloop
  endfacet
  facet normal 0.743144 -0.669131 0
    outer loop
      vertex 7.39826 -5.98629 6
      vertex 7.67803 -5.67557 -6
      vertex 7.67803 -5.67557 6
    endloop
  endfacet
  facet normal 0.743144 -0.669131 0
    outer loop
      vertex 7.67803 -5.67557 -6
      vertex 7.39826 -5.98629 6
      vertex 7.39826 -5.98629 -6
    endloop
  endfacet
  facet normal 0.587784 -0.809018 0
    outer loop
      vertex 7.06 -6.23205 -6
      vertex 7.39826 -5.98629 6
      vertex 7.06 -6.23205 6
    endloop
  endfacet
  facet normal 0.587784 -0.809018 0
    outer loop
      vertex 7.39826 -5.98629 6
      vertex 7.06 -6.23205 -6
      vertex 7.39826 -5.98629 -6
    endloop
  endfacet
  facet normal 0.951057 -0.309016 0
    outer loop
      vertex 7.88709 -5.31347 6
      vertex 8.01629 -4.91582 -6
      vertex 8.01629 -4.91582 6
    endloop
  endfacet
  facet normal 0.951057 -0.309016 0
    outer loop
      vertex 8.01629 -4.91582 -6
      vertex 7.88709 -5.31347 6
      vertex 7.88709 -5.31347 -6
    endloop
  endfacet
  facet normal 0.20791 -0.978148 0
    outer loop
      vertex 6.26906 -6.48904 -6
      vertex 6.67803 -6.40211 6
      vertex 6.26906 -6.48904 6
    endloop
  endfacet
  facet normal 0.20791 -0.978148 0
    outer loop
      vertex 6.67803 -6.40211 6
      vertex 6.26906 -6.48904 -6
      vertex 6.67803 -6.40211 -6
    endloop
  endfacet
  facet normal 0.406739 -0.913545 0
    outer loop
      vertex 6.67803 -6.40211 -6
      vertex 7.06 -6.23205 6
      vertex 6.67803 -6.40211 6
    endloop
  endfacet
  facet normal 0.406739 -0.913545 0
    outer loop
      vertex 7.06 -6.23205 6
      vertex 6.67803 -6.40211 -6
      vertex 7.06 -6.23205 -6
    endloop
  endfacet
  facet normal -0.587784 -0.809018 0
    outer loop
      vertex 2.72174 -5.98629 -6
      vertex 3.06 -6.23205 6
      vertex 2.72174 -5.98629 6
    endloop
  endfacet
  facet normal -0.587784 -0.809018 -0
    outer loop
      vertex 3.06 -6.23205 6
      vertex 2.72174 -5.98629 -6
      vertex 3.06 -6.23205 -6
    endloop
  endfacet
  facet normal 0 -1 0
    outer loop
      vertex 3.85094 -6.48904 -6
      vertex 6.26906 -6.48904 6
      vertex 3.85094 -6.48904 6
    endloop
  endfacet
  facet normal 0 -1 -0
    outer loop
      vertex 6.26906 -6.48904 6
      vertex 3.85094 -6.48904 -6
      vertex 6.26906 -6.48904 -6
    endloop
  endfacet
  facet normal 0 0 1
    outer loop
      vertex 6.26906 6.48904 6
      vertex 8.06 4.5 6
      vertex 8.01629 4.91582 6
    endloop
  endfacet
  facet normal 0 0 1
    outer loop
      vertex 8.06 4.5 6
      vertex 2.06 4.5 6
      vertex 8.06 -4.5 6
    endloop
  endfacet
  facet normal 0 0 1
    outer loop
      vertex 6.26906 6.48904 6
      vertex 8.01629 4.91582 6
      vertex 7.88709 5.31347 6
    endloop
  endfacet
  facet normal -0 0 1
    outer loop
      vertex 2.06 -4.5 6
      vertex 8.06 -4.5 6
      vertex 2.06 4.5 6
    endloop
  endfacet
  facet normal 0 0 1
    outer loop
      vertex 6.26906 6.48904 6
      vertex 7.88709 5.31347 6
      vertex 7.67803 5.67557 6
    endloop
  endfacet
  facet normal 0 -0 1
    outer loop
      vertex 6.26906 -6.48904 6
      vertex 8.06 -4.5 6
      vertex 2.06 -4.5 6
    endloop
  endfacet
  facet normal 0 0 1
    outer loop
      vertex 6.26906 6.48904 6
      vertex 7.67803 5.67557 6
      vertex 7.39826 5.98629 6
    endloop
  endfacet
  facet normal 0 0 1
    outer loop
      vertex 8.06 -4.5 6
      vertex 6.26906 -6.48904 6
      vertex 8.01629 -4.91582 6
    endloop
  endfacet
  facet normal 0 0 1
    outer loop
      vertex 6.26906 6.48904 6
      vertex 7.39826 5.98629 6
      vertex 7.06 6.23205 6
    endloop
  endfacet
  facet normal 0 0 1
    outer loop
      vertex 8.01629 -4.91582 6
      vertex 6.26906 -6.48904 6
      vertex 7.88709 -5.31347 6
    endloop
  endfacet
  facet normal 0 0 1
    outer loop
      vertex 6.26906 6.48904 6
      vertex 7.06 6.23205 6
      vertex 6.67803 6.40211 6
    endloop
  endfacet
  facet normal 0 0 1
    outer loop
      vertex 7.88709 -5.31347 6
      vertex 6.26906 -6.48904 6
      vertex 7.67803 -5.67557 6
    endloop
  endfacet
  facet normal 0 0 1
    outer loop
      vertex 8.06 4.5 6
      vertex 6.26906 6.48904 6
      vertex 2.06 4.5 6
    endloop
  endfacet
  facet normal 0 0 1
    outer loop
      vertex 7.67803 -5.67557 6
      vertex 6.26906 -6.48904 6
      vertex 7.39826 -5.98629 6
    endloop
  endfacet
  facet normal 0 0 1
    outer loop
      vertex 2.06 4.5 6
      vertex 6.26906 6.48904 6
      vertex 3.85094 6.48904 6
    endloop
  endfacet
  facet normal 0 0 1
    outer loop
      vertex 7.39826 -5.98629 6
      vertex 6.26906 -6.48904 6
      vertex 7.06 -6.23205 6
    endloop
  endfacet
  facet normal 0 0 1
    outer loop
      vertex 2.06 4.5 6
      vertex 3.85094 6.48904 6
      vertex 3.44197 6.40211 6
    endloop
  endfacet
  facet normal 0 0 1
    outer loop
      vertex 7.06 -6.23205 6
      vertex 6.26906 -6.48904 6
      vertex 6.67803 -6.40211 6
    endloop
  endfacet
  facet normal 0 0 1
    outer loop
      vertex 2.06 4.5 6
      vertex 3.44197 6.40211 6
      vertex 3.06 6.23205 6
    endloop
  endfacet
  facet normal 0 0 1
    outer loop
      vertex 6.26906 -6.48904 6
      vertex 2.06 -4.5 6
      vertex 3.85094 -6.48904 6
    endloop
  endfacet
  facet normal 0 0 1
    outer loop
      vertex 2.06 4.5 6
      vertex 3.06 6.23205 6
      vertex 2.72174 5.98629 6
    endloop
  endfacet
  facet normal 0 0 1
    outer loop
      vertex 3.85094 -6.48904 6
      vertex 2.06 -4.5 6
      vertex 3.44197 -6.40211 6
    endloop
  endfacet
  facet normal 0 0 1
    outer loop
      vertex 2.06 4.5 6
      vertex 2.72174 5.98629 6
      vertex 2.44197 5.67557 6
    endloop
  endfacet
  facet normal 0 0 1
    outer loop
      vertex 3.44197 -6.40211 6
      vertex 2.06 -4.5 6
      vertex 3.06 -6.23205 6
    endloop
  endfacet
  facet normal 0 0 1
    outer loop
      vertex 2.06 4.5 6
      vertex 2.44197 5.67557 6
      vertex 2.23291 5.31347 6
    endloop
  endfacet
  facet normal 0 0 1
    outer loop
      vertex 3.06 -6.23205 6
      vertex 2.06 -4.5 6
      vertex 2.72174 -5.98629 6
    endloop
  endfacet
  facet normal 0 0 1
    outer loop
      vertex 2.06 4.5 6
      vertex 2.23291 5.31347 6
      vertex 2.1037 4.91582 6
    endloop
  endfacet
  facet normal 0 0 1
    outer loop
      vertex 2.72174 -5.98629 6
      vertex 2.06 -4.5 6
      vertex 2.44197 -5.67557 6
    endloop
  endfacet
  facet normal 0 0 1
    outer loop
      vertex 2.44197 -5.67557 6
      vertex 2.06 -4.5 6
      vertex 2.23291 -5.31347 6
    endloop
  endfacet
  facet normal 0 0 1
    outer loop
      vertex 2.23291 -5.31347 6
      vertex 2.06 -4.5 6
      vertex 2.1037 -4.91582 6
    endloop
  endfacet
  facet normal -0.20791 0.978148 0
    outer loop
      vertex 3.85094 6.48904 -6
      vertex 3.44197 6.40211 6
      vertex 3.85094 6.48904 6
    endloop
  endfacet
  facet normal -0.20791 0.978148 0
    outer loop
      vertex 3.44197 6.40211 6
      vertex 3.85094 6.48904 -6
      vertex 3.44197 6.40211 -6
    endloop
  endfacet
  facet normal 0.743144 0.669131 0
    outer loop
      vertex 7.67803 5.67557 6
      vertex 7.39826 5.98629 -6
      vertex 7.39826 5.98629 6
    endloop
  endfacet
  facet normal 0.743144 0.669131 0
    outer loop
      vertex 7.39826 5.98629 -6
      vertex 7.67803 5.67557 6
      vertex 7.67803 5.67557 -6
    endloop
  endfacet
  facet normal -0.743144 -0.669131 0
    outer loop
      vertex 2.72174 -5.98629 -6
      vertex 2.44197 -5.67557 6
      vertex 2.44197 -5.67557 -6
    endloop
  endfacet
  facet normal -0.743144 -0.669131 0
    outer loop
      vertex 2.44197 -5.67557 6
      vertex 2.72174 -5.98629 -6
      vertex 2.72174 -5.98629 6
    endloop
  endfacet
  facet normal -1 0 0
    outer loop
      vertex 2.06 -4.5 -6
      vertex 2.06 4.5 6
      vertex 2.06 4.5 -6
    endloop
  endfacet
  facet normal -1 -0 0
    outer loop
      vertex 2.06 4.5 6
      vertex 2.06 -4.5 -6
      vertex 2.06 -4.5 6
    endloop
  endfacet
  facet normal 0 0 -1
    outer loop
      vertex 6.26906 -6.48904 -6
      vertex 8.06 -4.5 -6
      vertex 8.01629 -4.91582 -6
    endloop
  endfacet
  facet normal 0 0 -1
    outer loop
      vertex 8.06 -4.5 -6
      vertex 2.06 -4.5 -6
      vertex 8.06 4.5 -6
    endloop
  endfacet
  facet normal 0 0 -1
    outer loop
      vertex 6.26906 -6.48904 -6
      vertex 8.01629 -4.91582 -6
      vertex 7.88709 -5.31347 -6
    endloop
  endfacet
  facet normal 0 0 -1
    outer loop
      vertex 2.06 4.5 -6
      vertex 8.06 4.5 -6
      vertex 2.06 -4.5 -6
    endloop
  endfacet
  facet normal 0 0 -1
    outer loop
      vertex 6.26906 -6.48904 -6
      vertex 7.88709 -5.31347 -6
      vertex 7.67803 -5.67557 -6
    endloop
  endfacet
  facet normal 0 -0 -1
    outer loop
      vertex 6.26906 6.48904 -6
      vertex 8.06 4.5 -6
      vertex 2.06 4.5 -6
    endloop
  endfacet
  facet normal 0 0 -1
    outer loop
      vertex 6.26906 -6.48904 -6
      vertex 7.67803 -5.67557 -6
      vertex 7.39826 -5.98629 -6
    endloop
  endfacet
  facet normal 0 0 -1
    outer loop
      vertex 8.06 4.5 -6
      vertex 6.26906 6.48904 -6
      vertex 8.01629 4.91582 -6
    endloop
  endfacet
  facet normal 0 0 -1
    outer loop
      vertex 6.26906 -6.48904 -6
      vertex 7.39826 -5.98629 -6
      vertex 7.06 -6.23205 -6
    endloop
  endfacet
  facet normal 0 0 -1
    outer loop
      vertex 8.01629 4.91582 -6
      vertex 6.26906 6.48904 -6
      vertex 7.88709 5.31347 -6
    endloop
  endfacet
  facet normal 0 0 -1
    outer loop
      vertex 6.26906 -6.48904 -6
      vertex 7.06 -6.23205 -6
      vertex 6.67803 -6.40211 -6
    endloop
  endfacet
  facet normal 0 0 -1
    outer loop
      vertex 7.88709 5.31347 -6
      vertex 6.26906 6.48904 -6
      vertex 7.67803 5.67557 -6
    endloop
  endfacet
  facet normal -0 0 -1
    outer loop
      vertex 8.06 -4.5 -6
      vertex 6.26906 -6.48904 -6
      vertex 2.06 -4.5 -6
    endloop
  endfacet
  facet normal 0 0 -1
    outer loop
      vertex 7.67803 5.67557 -6
      vertex 6.26906 6.48904 -6
      vertex 7.39826 5.98629 -6
    endloop
  endfacet
  facet normal 0 0 -1
    outer loop
      vertex 2.06 -4.5 -6
      vertex 6.26906 -6.48904 -6
      vertex 3.85094 -6.48904 -6
    endloop
  endfacet
  facet normal 0 0 -1
    outer loop
      vertex 7.39826 5.98629 -6
      vertex 6.26906 6.48904 -6
      vertex 7.06 6.23205 -6
    endloop
  endfacet
  facet normal 0 0 -1
    outer loop
      vertex 2.06 -4.5 -6
      vertex 3.85094 -6.48904 -6
      vertex 3.44197 -6.40211 -6
    endloop
  endfacet
  facet normal 0 0 -1
    outer loop
      vertex 7.06 6.23205 -6
      vertex 6.26906 6.48904 -6
      vertex 6.67803 6.40211 -6
    endloop
  endfacet
  facet normal 0 0 -1
    outer loop
      vertex 2.06 -4.5 -6
      vertex 3.44197 -6.40211 -6
      vertex 3.06 -6.23205 -6
    endloop
  endfacet
  facet normal -0 0 -1
    outer loop
      vertex 6.26906 6.48904 -6
      vertex 2.06 4.5 -6
      vertex 3.85094 6.48904 -6
    endloop
  endfacet
  facet normal 0 0 -1
    outer loop
      vertex 2.06 -4.5 -6
      vertex 3.06 -6.23205 -6
      vertex 2.72174 -5.98629 -6
    endloop
  endfacet
  facet normal 0 0 -1
    outer loop
      vertex 3.85094 6.48904 -6
      vertex 2.06 4.5 -6
      vertex 3.44197 6.40211 -6
    endloop
  endfacet
  facet normal 0 0 -1
    outer loop
      vertex 2.06 -4.5 -6
      vertex 2.72174 -5.98629 -6
      vertex 2.44197 -5.67557 -6
    endloop
  endfacet
  facet normal 0 0 -1
    outer loop
      vertex 3.44197 6.40211 -6
      vertex 2.06 4.5 -6
      vertex 3.06 6.23205 -6
    endloop
  endfacet
  facet normal 0 0 -1
    outer loop
      vertex 2.06 -4.5 -6
      vertex 2.44197 -5.67557 -6
      vertex 2.23291 -5.31347 -6
    endloop
  endfacet
  facet normal 0 0 -1
    outer loop
      vertex 3.06 6.23205 -6
      vertex 2.06 4.5 -6
      vertex 2.72174 5.98629 -6
    endloop
  endfacet
  facet normal 0 0 -1
    outer loop
      vertex 2.06 -4.5 -6
      vertex 2.23291 -5.31347 -6
      vertex 2.1037 -4.91582 -6
    endloop
  endfacet
  facet normal 0 0 -1
    outer loop
      vertex 2.72174 5.98629 -6
      vertex 2.06 4.5 -6
      vertex 2.44197 5.67557 -6
    endloop
  endfacet
  facet normal 0 0 -1
    outer loop
      vertex 2.44197 5.67557 -6
      vertex 2.06 4.5 -6
      vertex 2.23291 5.31347 -6
    endloop
  endfacet
  facet normal 0 0 -1
    outer loop
      vertex 2.23291 5.31347 -6
      vertex 2.06 4.5 -6
      vertex 2.1037 4.91582 -6
    endloop
  endfacet
  facet normal -0.866026 0.499999 0
    outer loop
      vertex 2.23291 5.31347 -6
      vertex 2.44197 5.67557 6
      vertex 2.44197 5.67557 -6
    endloop
  endfacet
  facet normal -0.866026 0.499999 0
    outer loop
      vertex 2.44197 5.67557 6
      vertex 2.23291 5.31347 -6
      vertex 2.23291 5.31347 6
    endloop
  endfacet
  facet normal -0.743144 0.669131 0
    outer loop
      vertex 2.44197 5.67557 -6
      vertex 2.72174 5.98629 6
      vertex 2.72174 5.98629 -6
    endloop
  endfacet
  facet normal -0.743144 0.669131 0
    outer loop
      vertex 2.72174 5.98629 6
      vertex 2.44197 5.67557 -6
      vertex 2.44197 5.67557 6
    endloop
  endfacet
  facet normal -0.20791 -0.978148 0
    outer loop
      vertex 3.44197 -6.40211 -6
      vertex 3.85094 -6.48904 6
      vertex 3.44197 -6.40211 6
    endloop
  endfacet
  facet normal -0.20791 -0.978148 -0
    outer loop
      vertex 3.85094 -6.48904 6
      vertex 3.44197 -6.40211 -6
      vertex 3.85094 -6.48904 -6
    endloop
  endfacet
  facet normal -0.866026 -0.499999 0
    outer loop
      vertex 2.44197 -5.67557 -6
      vertex 2.23291 -5.31347 6
      vertex 2.23291 -5.31347 -6
    endloop
  endfacet
  facet normal -0.866026 -0.499999 0
    outer loop
      vertex 2.23291 -5.31347 6
      vertex 2.44197 -5.67557 -6
      vertex 2.44197 -5.67557 6
    endloop
  endfacet
  facet normal -0.951057 -0.309016 0
    outer loop
      vertex 2.23291 -5.31347 -6
      vertex 2.1037 -4.91582 6
      vertex 2.1037 -4.91582 -6
    endloop
  endfacet
  facet normal -0.951057 -0.309016 0
    outer loop
      vertex 2.1037 -4.91582 6
      vertex 2.23291 -5.31347 -6
      vertex 2.23291 -5.31347 6
    endloop
  endfacet
  facet normal -0.994522 0.104529 0
    outer loop
      vertex 2.06 4.5 -6
      vertex 2.1037 4.91582 6
      vertex 2.1037 4.91582 -6
    endloop
  endfacet
  facet normal -0.994522 0.104529 0
    outer loop
      vertex 2.1037 4.91582 6
      vertex 2.06 4.5 -6
      vertex 2.06 4.5 6
    endloop
  endfacet
  facet normal -0.951057 0.309016 0
    outer loop
      vertex 2.1037 4.91582 -6
      vertex 2.23291 5.31347 6
      vertex 2.23291 5.31347 -6
    endloop
  endfacet
  facet normal -0.951057 0.309016 0
    outer loop
      vertex 2.23291 5.31347 6
      vertex 2.1037 4.91582 -6
      vertex 2.1037 4.91582 6
    endloop
  endfacet
  facet normal 0 1 -0
    outer loop
      vertex 6.26906 6.48904 -6
      vertex 3.85094 6.48904 6
      vertex 6.26906 6.48904 6
    endloop
  endfacet
  facet normal 0 1 0
    outer loop
      vertex 3.85094 6.48904 6
      vertex 6.26906 6.48904 -6
      vertex 3.85094 6.48904 -6
    endloop
  endfacet
  facet normal -0.587784 0.809018 0
    outer loop
      vertex 3.06 6.23205 -6
      vertex 2.72174 5.98629 6
      vertex 3.06 6.23205 6
    endloop
  endfacet
  facet normal -0.587784 0.809018 0
    outer loop
      vertex 2.72174 5.98629 6
      vertex 3.06 6.23205 -6
      vertex 2.72174 5.98629 -6
    endloop
  endfacet
  facet normal 0.587784 0.809018 -0
    outer loop
      vertex 7.39826 5.98629 -6
      vertex 7.06 6.23205 6
      vertex 7.39826 5.98629 6
    endloop
  endfacet
  facet normal 0.587784 0.809018 0
    outer loop
      vertex 7.06 6.23205 6
      vertex 7.39826 5.98629 -6
      vertex 7.06 6.23205 -6
    endloop
  endfacet
  facet normal 0.406739 0.913545 -0
    outer loop
      vertex 7.06 6.23205 -6
      vertex 6.67803 6.40211 6
      vertex 7.06 6.23205 6
    endloop
  endfacet
  facet normal 0.406739 0.913545 0
    outer loop
      vertex 6.67803 6.40211 6
      vertex 7.06 6.23205 -6
      vertex 6.67803 6.40211 -6
    endloop
  endfacet
  facet normal 0.866026 0.499999 0
    outer loop
      vertex 7.88709 5.31347 6
      vertex 7.67803 5.67557 -6
      vertex 7.67803 5.67557 6
    endloop
  endfacet
  facet normal 0.866026 0.499999 0
    outer loop
      vertex 7.67803 5.67557 -6
      vertex 7.88709 5.31347 6
      vertex 7.88709 5.31347 -6
    endloop
  endfacet
  facet normal 0.951057 0.309016 0
    outer loop
      vertex 8.01629 4.91582 6
      vertex 7.88709 5.31347 -6
      vertex 7.88709 5.31347 6
    endloop
  endfacet
  facet normal 0.951057 0.309016 0
    outer loop
      vertex 7.88709 5.31347 -6
      vertex 8.01629 4.91582 6
      vertex 8.01629 4.91582 -6
    endloop
  endfacet
  facet normal -0.406739 -0.913545 0
    outer loop
      vertex 3.06 -6.23205 -6
      vertex 3.44197 -6.40211 6
      vertex 3.06 -6.23205 6
    endloop
  endfacet
  facet normal -0.406739 -0.913545 -0
    outer loop
      vertex 3.44197 -6.40211 6
      vertex 3.06 -6.23205 -6
      vertex 3.44197 -6.40211 -6
    endloop
  endfacet
  facet normal -0.406739 0.913545 0
    outer loop
      vertex 3.44197 6.40211 -6
      vertex 3.06 6.23205 6
      vertex 3.44197 6.40211 6
    endloop
  endfacet
  facet normal -0.406739 0.913545 0
    outer loop
      vertex 3.06 6.23205 6
      vertex 3.44197 6.40211 -6
      vertex 3.06 6.23205 -6
    endloop
  endfacet
  facet normal -0 0 1
    outer loop
      vertex 8.06 4.5 2
      vertex 8.12 -4.5 2
      vertex 8.12 4.5 2
    endloop
  endfacet
  facet normal 0 0 1
    outer loop
      vertex 8.06 -4.5 2
      vertex 8.12 -4.5 2
      vertex 8.06 4.5 2
    endloop
  endfacet
  facet normal 0 1 -0
    outer loop
      vertex 8.12 4.5 -2
      vertex 8.06 4.5 2
      vertex 8.12 4.5 2
    endloop
  endfacet
  facet normal 0 1 0
    outer loop
      vertex 8.06 4.5 2
      vertex 8.12 4.5 -2
      vertex 8.06 4.5 -2
    endloop
  endfacet
  facet normal -0 0 -1
    outer loop
      vertex 8.12 -4.5 -2
      vertex 8.06 -4.5 -2
      vertex 8.12 4.5 -2
    endloop
  endfacet
  facet normal -0 0 -1
    outer loop
      vertex 8.12 4.5 -2
      vertex 8.06 -4.5 -2
      vertex 8.06 4.5 -2
    endloop
  endfacet
  facet normal 0 -1 0
    outer loop
      vertex 8.06 -4.5 -2
      vertex 8.12 -4.5 2
      vertex 8.06 -4.5 2
    endloop
  endfacet
  facet normal 0 -1 -0
    outer loop
      vertex 8.12 -4.5 2
      vertex 8.06 -4.5 -2
      vertex 8.12 -4.5 -2
    endloop
  endfacet
  facet normal 0.994522 -0.104529 0
    outer loop
      vertex 14.0763 -4.91582 6
      vertex 14.12 -4.5 -6
      vertex 14.12 -4.5 6
    endloop
  endfacet
  facet normal 0.994522 -0.104529 0
    outer loop
      vertex 14.12 -4.5 -6
      vertex 14.0763 -4.91582 6
      vertex 14.0763 -4.91582 -6
    endloop
  endfacet
  facet normal 1 -0 0
    outer loop
      vertex 14.12 -4.5 6
      vertex 14.12 4.5 -6
      vertex 14.12 4.5 6
    endloop
  endfacet
  facet normal 1 0 0
    outer loop
      vertex 14.12 4.5 -6
      vertex 14.12 -4.5 6
      vertex 14.12 -4.5 -6
    endloop
  endfacet
  facet normal 0.207911 0.978148 -0
    outer loop
      vertex 12.738 6.40211 -6
      vertex 12.3291 6.48904 6
      vertex 12.738 6.40211 6
    endloop
  endfacet
  facet normal 0.207911 0.978148 0
    outer loop
      vertex 12.3291 6.48904 6
      vertex 12.738 6.40211 -6
      vertex 12.3291 6.48904 -6
    endloop
  endfacet
  facet normal 0.866026 -0.499999 0
    outer loop
      vertex 13.738 -5.67557 6
      vertex 13.9471 -5.31347 -6
      vertex 13.9471 -5.31347 6
    endloop
  endfacet
  facet normal 0.866026 -0.499999 0
    outer loop
      vertex 13.9471 -5.31347 -6
      vertex 13.738 -5.67557 6
      vertex 13.738 -5.67557 -6
    endloop
  endfacet
  facet normal 0.743144 -0.669131 0
    outer loop
      vertex 13.4583 -5.98629 6
      vertex 13.738 -5.67557 -6
      vertex 13.738 -5.67557 6
    endloop
  endfacet
  facet normal 0.743144 -0.669131 0
    outer loop
      vertex 13.738 -5.67557 -6
      vertex 13.4583 -5.98629 6
      vertex 13.4583 -5.98629 -6
    endloop
  endfacet
  facet normal -0.994522 -0.104527 0
    outer loop
      vertex 8.12 -4.5 -2
      vertex 8.1637 -4.91582 -6
      vertex 8.12 -4.5 2
    endloop
  endfacet
  facet normal -0.994522 -0.104527 -2.49211e-008
    outer loop
      vertex 8.1637 -4.91582 -6
      vertex 8.12 -4.5 -2
      vertex 8.12 -4.5 -6
    endloop
  endfacet
  facet normal -0.994522 -0.104527 -0
    outer loop
      vertex 8.1637 -4.91582 6
      vertex 8.12 -4.5 2
      vertex 8.1637 -4.91582 -6
    endloop
  endfacet
  facet normal -0.994522 -0.104527 2.49211e-008
    outer loop
      vertex 8.12 -4.5 2
      vertex 8.1637 -4.91582 6
      vertex 8.12 -4.5 6
    endloop
  endfacet
  facet normal 0.994522 0.104529 0
    outer loop
      vertex 14.12 4.5 6
      vertex 14.0763 4.91582 -6
      vertex 14.0763 4.91582 6
    endloop
  endfacet
  facet normal 0.994522 0.104529 0
    outer loop
      vertex 14.0763 4.91582 -6
      vertex 14.12 4.5 6
      vertex 14.12 4.5 -6
    endloop
  endfacet
  facet normal 0.587786 -0.809017 0
    outer loop
      vertex 13.12 -6.23205 -6
      vertex 13.4583 -5.98629 6
      vertex 13.12 -6.23205 6
    endloop
  endfacet
  facet normal 0.587786 -0.809017 0
    outer loop
      vertex 13.4583 -5.98629 6
      vertex 13.12 -6.23205 -6
      vertex 13.4583 -5.98629 -6
    endloop
  endfacet
  facet normal 0.951056 -0.309018 0
    outer loop
      vertex 13.9471 -5.31347 6
      vertex 14.0763 -4.91582 -6
      vertex 14.0763 -4.91582 6
    endloop
  endfacet
  facet normal 0.951056 -0.309018 0
    outer loop
      vertex 14.0763 -4.91582 -6
      vertex 13.9471 -5.31347 6
      vertex 13.9471 -5.31347 -6
    endloop
  endfacet
  facet normal 0.207911 -0.978148 0
    outer loop
      vertex 12.3291 -6.48904 -6
      vertex 12.738 -6.40211 6
      vertex 12.3291 -6.48904 6
    endloop
  endfacet
  facet normal 0.207911 -0.978148 0
    outer loop
      vertex 12.738 -6.40211 6
      vertex 12.3291 -6.48904 -6
      vertex 12.738 -6.40211 -6
    endloop
  endfacet
  facet normal 0.406738 -0.913545 0
    outer loop
      vertex 12.738 -6.40211 -6
      vertex 13.12 -6.23205 6
      vertex 12.738 -6.40211 6
    endloop
  endfacet
  facet normal 0.406738 -0.913545 0
    outer loop
      vertex 13.12 -6.23205 6
      vertex 12.738 -6.40211 -6
      vertex 13.12 -6.23205 -6
    endloop
  endfacet
  facet normal -0.587784 -0.809018 0
    outer loop
      vertex 8.78174 -5.98629 -6
      vertex 9.12 -6.23205 6
      vertex 8.78174 -5.98629 6
    endloop
  endfacet
  facet normal -0.587784 -0.809018 -0
    outer loop
      vertex 9.12 -6.23205 6
      vertex 8.78174 -5.98629 -6
      vertex 9.12 -6.23205 -6
    endloop
  endfacet
  facet normal 0 -1 0
    outer loop
      vertex 9.91094 -6.48904 -6
      vertex 12.3291 -6.48904 6
      vertex 9.91094 -6.48904 6
    endloop
  endfacet
  facet normal 0 -1 -0
    outer loop
      vertex 12.3291 -6.48904 6
      vertex 9.91094 -6.48904 -6
      vertex 12.3291 -6.48904 -6
    endloop
  endfacet
  facet normal 0 0 1
    outer loop
      vertex 12.3291 6.48904 6
      vertex 14.12 4.5 6
      vertex 14.0763 4.91582 6
    endloop
  endfacet
  facet normal 0 0 1
    outer loop
      vertex 14.12 4.5 6
      vertex 8.12 4.5 6
      vertex 14.12 -4.5 6
    endloop
  endfacet
  facet normal 0 0 1
    outer loop
      vertex 12.3291 6.48904 6
      vertex 14.0763 4.91582 6
      vertex 13.9471 5.31347 6
    endloop
  endfacet
  facet normal -0 0 1
    outer loop
      vertex 8.12 -4.5 6
      vertex 14.12 -4.5 6
      vertex 8.12 4.5 6
    endloop
  endfacet
  facet normal 0 0 1
    outer loop
      vertex 12.3291 6.48904 6
      vertex 13.9471 5.31347 6
      vertex 13.738 5.67557 6
    endloop
  endfacet
  facet normal 0 -0 1
    outer loop
      vertex 12.3291 -6.48904 6
      vertex 14.12 -4.5 6
      vertex 8.12 -4.5 6
    endloop
  endfacet
  facet normal 0 0 1
    outer loop
      vertex 12.3291 6.48904 6
      vertex 13.738 5.67557 6
      vertex 13.4583 5.98629 6
    endloop
  endfacet
  facet normal 0 0 1
    outer loop
      vertex 14.12 -4.5 6
      vertex 12.3291 -6.48904 6
      vertex 14.0763 -4.91582 6
    endloop
  endfacet
  facet normal 0 0 1
    outer loop
      vertex 12.3291 6.48904 6
      vertex 13.4583 5.98629 6
      vertex 13.12 6.23205 6
    endloop
  endfacet
  facet normal 0 0 1
    outer loop
      vertex 14.0763 -4.91582 6
      vertex 12.3291 -6.48904 6
      vertex 13.9471 -5.31347 6
    endloop
  endfacet
  facet normal 0 0 1
    outer loop
      vertex 12.3291 6.48904 6
      vertex 13.12 6.23205 6
      vertex 12.738 6.40211 6
    endloop
  endfacet
  facet normal 0 0 1
    outer loop
      vertex 13.9471 -5.31347 6
      vertex 12.3291 -6.48904 6
      vertex 13.738 -5.67557 6
    endloop
  endfacet
  facet normal 0 0 1
    outer loop
      vertex 14.12 4.5 6
      vertex 12.3291 6.48904 6
      vertex 8.12 4.5 6
    endloop
  endfacet
  facet normal 0 0 1
    outer loop
      vertex 13.738 -5.67557 6
      vertex 12.3291 -6.48904 6
      vertex 13.4583 -5.98629 6
    endloop
  endfacet
  facet normal 0 0 1
    outer loop
      vertex 8.12 4.5 6
      vertex 12.3291 6.48904 6
      vertex 9.91094 6.48904 6
    endloop
  endfacet
  facet normal 0 0 1
    outer loop
      vertex 13.4583 -5.98629 6
      vertex 12.3291 -6.48904 6
      vertex 13.12 -6.23205 6
    endloop
  endfacet
  facet normal 0 0 1
    outer loop
      vertex 8.12 4.5 6
      vertex 9.91094 6.48904 6
      vertex 9.50197 6.40211 6
    endloop
  endfacet
  facet normal 0 0 1
    outer loop
      vertex 13.12 -6.23205 6
      vertex 12.3291 -6.48904 6
      vertex 12.738 -6.40211 6
    endloop
  endfacet
  facet normal 0 0 1
    outer loop
      vertex 8.12 4.5 6
      vertex 9.50197 6.40211 6
      vertex 9.12 6.23205 6
    endloop
  endfacet
  facet normal 0 0 1
    outer loop
      vertex 12.3291 -6.48904 6
      vertex 8.12 -4.5 6
      vertex 9.91094 -6.48904 6
    endloop
  endfacet
  facet normal 0 0 1
    outer loop
      vertex 8.12 4.5 6
      vertex 9.12 6.23205 6
      vertex 8.78174 5.98629 6
    endloop
  endfacet
  facet normal 0 0 1
    outer loop
      vertex 9.91094 -6.48904 6
      vertex 8.12 -4.5 6
      vertex 9.50197 -6.40211 6
    endloop
  endfacet
  facet normal 0 0 1
    outer loop
      vertex 8.12 4.5 6
      vertex 8.78174 5.98629 6
      vertex 8.50197 5.67557 6
    endloop
  endfacet
  facet normal 0 0 1
    outer loop
      vertex 9.50197 -6.40211 6
      vertex 8.12 -4.5 6
      vertex 9.12 -6.23205 6
    endloop
  endfacet
  facet normal 0 0 1
    outer loop
      vertex 8.12 4.5 6
      vertex 8.50197 5.67557 6
      vertex 8.29291 5.31347 6
    endloop
  endfacet
  facet normal 0 0 1
    outer loop
      vertex 9.12 -6.23205 6
      vertex 8.12 -4.5 6
      vertex 8.78174 -5.98629 6
    endloop
  endfacet
  facet normal 0 0 1
    outer loop
      vertex 8.12 4.5 6
      vertex 8.29291 5.31347 6
      vertex 8.1637 4.91582 6
    endloop
  endfacet
  facet normal 0 0 1
    outer loop
      vertex 8.78174 -5.98629 6
      vertex 8.12 -4.5 6
      vertex 8.50197 -5.67557 6
    endloop
  endfacet
  facet normal 0 0 1
    outer loop
      vertex 8.50197 -5.67557 6
      vertex 8.12 -4.5 6
      vertex 8.29291 -5.31347 6
    endloop
  endfacet
  facet normal 0 0 1
    outer loop
      vertex 8.29291 -5.31347 6
      vertex 8.12 -4.5 6
      vertex 8.1637 -4.91582 6
    endloop
  endfacet
  facet normal -0.20791 0.978148 0
    outer loop
      vertex 9.91094 6.48904 -6
      vertex 9.50197 6.40211 6
      vertex 9.91094 6.48904 6
    endloop
  endfacet
  facet normal -0.20791 0.978148 0
    outer loop
      vertex 9.50197 6.40211 6
      vertex 9.91094 6.48904 -6
      vertex 9.50197 6.40211 -6
    endloop
  endfacet
  facet normal 0.743144 0.669131 0
    outer loop
      vertex 13.738 5.67557 6
      vertex 13.4583 5.98629 -6
      vertex 13.4583 5.98629 6
    endloop
  endfacet
  facet normal 0.743144 0.669131 0
    outer loop
      vertex 13.4583 5.98629 -6
      vertex 13.738 5.67557 6
      vertex 13.738 5.67557 -6
    endloop
  endfacet
  facet normal -0.743144 -0.669131 0
    outer loop
      vertex 8.78174 -5.98629 -6
      vertex 8.50197 -5.67557 6
      vertex 8.50197 -5.67557 -6
    endloop
  endfacet
  facet normal -0.743144 -0.669131 0
    outer loop
      vertex 8.50197 -5.67557 6
      vertex 8.78174 -5.98629 -6
      vertex 8.78174 -5.98629 6
    endloop
  endfacet
  facet normal -0.994522 0.104527 0
    outer loop
      vertex 8.12 4.5 -2
      vertex 8.1637 4.91582 -6
      vertex 8.12 4.5 -6
    endloop
  endfacet
  facet normal -0.994522 0.104527 0
    outer loop
      vertex 8.1637 4.91582 -6
      vertex 8.12 4.5 -2
      vertex 8.1637 4.91582 6
    endloop
  endfacet
  facet normal -0.994522 0.104527 0
    outer loop
      vertex 8.12 4.5 2
      vertex 8.1637 4.91582 6
      vertex 8.12 4.5 -2
    endloop
  endfacet
  facet normal -0.994522 0.104527 0
    outer loop
      vertex 8.1637 4.91582 6
      vertex 8.12 4.5 2
      vertex 8.12 4.5 6
    endloop
  endfacet
  facet normal -1 0 0
    outer loop
      vertex 8.12 -4.5 2
      vertex 8.12 4.5 6
      vertex 8.12 4.5 2
    endloop
  endfacet
  facet normal -1 -0 0
    outer loop
      vertex 8.12 4.5 6
      vertex 8.12 -4.5 2
      vertex 8.12 -4.5 6
    endloop
  endfacet
  facet normal -1 0 0
    outer loop
      vertex 8.12 -4.5 -6
      vertex 8.12 4.5 -2
      vertex 8.12 4.5 -6
    endloop
  endfacet
  facet normal -1 -0 0
    outer loop
      vertex 8.12 4.5 -2
      vertex 8.12 -4.5 -6
      vertex 8.12 -4.5 -2
    endloop
  endfacet
  facet normal 0 0 -1
    outer loop
      vertex 12.3291 -6.48904 -6
      vertex 14.12 -4.5 -6
      vertex 14.0763 -4.91582 -6
    endloop
  endfacet
  facet normal 0 0 -1
    outer loop
      vertex 14.12 -4.5 -6
      vertex 8.12 -4.5 -6
      vertex 14.12 4.5 -6
    endloop
  endfacet
  facet normal 0 0 -1
    outer loop
      vertex 12.3291 -6.48904 -6
      vertex 14.0763 -4.91582 -6
      vertex 13.9471 -5.31347 -6
    endloop
  endfacet
  facet normal 0 0 -1
    outer loop
      vertex 8.12 4.5 -6
      vertex 14.12 4.5 -6
      vertex 8.12 -4.5 -6
    endloop
  endfacet
  facet normal 0 0 -1
    outer loop
      vertex 12.3291 -6.48904 -6
      vertex 13.9471 -5.31347 -6
      vertex 13.738 -5.67557 -6
    endloop
  endfacet
  facet normal 0 -0 -1
    outer loop
      vertex 12.3291 6.48904 -6
      vertex 14.12 4.5 -6
      vertex 8.12 4.5 -6
    endloop
  endfacet
  facet normal 0 0 -1
    outer loop
      vertex 12.3291 -6.48904 -6
      vertex 13.738 -5.67557 -6
      vertex 13.4583 -5.98629 -6
    endloop
  endfacet
  facet normal 0 0 -1
    outer loop
      vertex 14.12 4.5 -6
      vertex 12.3291 6.48904 -6
      vertex 14.0763 4.91582 -6
    endloop
  endfacet
  facet normal 0 0 -1
    outer loop
      vertex 12.3291 -6.48904 -6
      vertex 13.4583 -5.98629 -6
      vertex 13.12 -6.23205 -6
    endloop
  endfacet
  facet normal 0 0 -1
    outer loop
      vertex 14.0763 4.91582 -6
      vertex 12.3291 6.48904 -6
      vertex 13.9471 5.31347 -6
    endloop
  endfacet
  facet normal 0 0 -1
    outer loop
      vertex 12.3291 -6.48904 -6
      vertex 13.12 -6.23205 -6
      vertex 12.738 -6.40211 -6
    endloop
  endfacet
  facet normal 0 0 -1
    outer loop
      vertex 13.9471 5.31347 -6
      vertex 12.3291 6.48904 -6
      vertex 13.738 5.67557 -6
    endloop
  endfacet
  facet normal -0 0 -1
    outer loop
      vertex 14.12 -4.5 -6
      vertex 12.3291 -6.48904 -6
      vertex 8.12 -4.5 -6
    endloop
  endfacet
  facet normal 0 0 -1
    outer loop
      vertex 13.738 5.67557 -6
      vertex 12.3291 6.48904 -6
      vertex 13.4583 5.98629 -6
    endloop
  endfacet
  facet normal 0 0 -1
    outer loop
      vertex 8.12 -4.5 -6
      vertex 12.3291 -6.48904 -6
      vertex 9.91094 -6.48904 -6
    endloop
  endfacet
  facet normal 0 0 -1
    outer loop
      vertex 13.4583 5.98629 -6
      vertex 12.3291 6.48904 -6
      vertex 13.12 6.23205 -6
    endloop
  endfacet
  facet normal 0 0 -1
    outer loop
      vertex 8.12 -4.5 -6
      vertex 9.91094 -6.48904 -6
      vertex 9.50197 -6.40211 -6
    endloop
  endfacet
  facet normal 0 0 -1
    outer loop
      vertex 13.12 6.23205 -6
      vertex 12.3291 6.48904 -6
      vertex 12.738 6.40211 -6
    endloop
  endfacet
  facet normal 0 0 -1
    outer loop
      vertex 8.12 -4.5 -6
      vertex 9.50197 -6.40211 -6
      vertex 9.12 -6.23205 -6
    endloop
  endfacet
  facet normal -0 0 -1
    outer loop
      vertex 12.3291 6.48904 -6
      vertex 8.12 4.5 -6
      vertex 9.91094 6.48904 -6
    endloop
  endfacet
  facet normal 0 0 -1
    outer loop
      vertex 8.12 -4.5 -6
      vertex 9.12 -6.23205 -6
      vertex 8.78174 -5.98629 -6
    endloop
  endfacet
  facet normal 0 0 -1
    outer loop
      vertex 9.91094 6.48904 -6
      vertex 8.12 4.5 -6
      vertex 9.50197 6.40211 -6
    endloop
  endfacet
  facet normal 0 0 -1
    outer loop
      vertex 8.12 -4.5 -6
      vertex 8.78174 -5.98629 -6
      vertex 8.50197 -5.67557 -6
    endloop
  endfacet
  facet normal 0 0 -1
    outer loop
      vertex 9.50197 6.40211 -6
      vertex 8.12 4.5 -6
      vertex 9.12 6.23205 -6
    endloop
  endfacet
  facet normal 0 0 -1
    outer loop
      vertex 8.12 -4.5 -6
      vertex 8.50197 -5.67557 -6
      vertex 8.29291 -5.31347 -6
    endloop
  endfacet
  facet normal 0 0 -1
    outer loop
      vertex 9.12 6.23205 -6
      vertex 8.12 4.5 -6
      vertex 8.78174 5.98629 -6
    endloop
  endfacet
  facet normal 0 0 -1
    outer loop
      vertex 8.12 -4.5 -6
      vertex 8.29291 -5.31347 -6
      vertex 8.1637 -4.91582 -6
    endloop
  endfacet
  facet normal 0 0 -1
    outer loop
      vertex 8.78174 5.98629 -6
      vertex 8.12 4.5 -6
      vertex 8.50197 5.67557 -6
    endloop
  endfacet
  facet normal 0 0 -1
    outer loop
      vertex 8.50197 5.67557 -6
      vertex 8.12 4.5 -6
      vertex 8.29291 5.31347 -6
    endloop
  endfacet
  facet normal 0 0 -1
    outer loop
      vertex 8.29291 5.31347 -6
      vertex 8.12 4.5 -6
      vertex 8.1637 4.91582 -6
    endloop
  endfacet
  facet normal -0.743144 0.669131 0
    outer loop
      vertex 8.50197 5.67557 -6
      vertex 8.78174 5.98629 6
      vertex 8.78174 5.98629 -6
    endloop
  endfacet
  facet normal -0.743144 0.669131 0
    outer loop
      vertex 8.78174 5.98629 6
      vertex 8.50197 5.67557 -6
      vertex 8.50197 5.67557 6
    endloop
  endfacet
  facet normal 0 1 -0
    outer loop
      vertex 12.3291 6.48904 -6
      vertex 9.91094 6.48904 6
      vertex 12.3291 6.48904 6
    endloop
  endfacet
  facet normal 0 1 0
    outer loop
      vertex 9.91094 6.48904 6
      vertex 12.3291 6.48904 -6
      vertex 9.91094 6.48904 -6
    endloop
  endfacet
  facet normal -0.20791 -0.978148 0
    outer loop
      vertex 9.50197 -6.40211 -6
      vertex 9.91094 -6.48904 6
      vertex 9.50197 -6.40211 6
    endloop
  endfacet
  facet normal -0.20791 -0.978148 -0
    outer loop
      vertex 9.91094 -6.48904 6
      vertex 9.50197 -6.40211 -6
      vertex 9.91094 -6.48904 -6
    endloop
  endfacet
  facet normal -0.866026 -0.499999 0
    outer loop
      vertex 8.50197 -5.67557 -6
      vertex 8.29291 -5.31347 6
      vertex 8.29291 -5.31347 -6
    endloop
  endfacet
  facet normal -0.866026 -0.499999 0
    outer loop
      vertex 8.29291 -5.31347 6
      vertex 8.50197 -5.67557 -6
      vertex 8.50197 -5.67557 6
    endloop
  endfacet
  facet normal -0.951056 -0.309018 0
    outer loop
      vertex 8.29291 -5.31347 -6
      vertex 8.1637 -4.91582 6
      vertex 8.1637 -4.91582 -6
    endloop
  endfacet
  facet normal -0.951056 -0.309018 0
    outer loop
      vertex 8.1637 -4.91582 6
      vertex 8.29291 -5.31347 -6
      vertex 8.29291 -5.31347 6
    endloop
  endfacet
  facet normal -0.951056 0.309018 0
    outer loop
      vertex 8.1637 4.91582 -6
      vertex 8.29291 5.31347 6
      vertex 8.29291 5.31347 -6
    endloop
  endfacet
  facet normal -0.951056 0.309018 0
    outer loop
      vertex 8.29291 5.31347 6
      vertex 8.1637 4.91582 -6
      vertex 8.1637 4.91582 6
    endloop
  endfacet
  facet normal -0.866026 0.499999 0
    outer loop
      vertex 8.29291 5.31347 -6
      vertex 8.50197 5.67557 6
      vertex 8.50197 5.67557 -6
    endloop
  endfacet
  facet normal -0.866026 0.499999 0
    outer loop
      vertex 8.50197 5.67557 6
      vertex 8.29291 5.31347 -6
      vertex 8.29291 5.31347 6
    endloop
  endfacet
  facet normal -0.587784 0.809018 0
    outer loop
      vertex 9.12 6.23205 -6
      vertex 8.78174 5.98629 6
      vertex 9.12 6.23205 6
    endloop
  endfacet
  facet normal -0.587784 0.809018 0
    outer loop
      vertex 8.78174 5.98629 6
      vertex 9.12 6.23205 -6
      vertex 8.78174 5.98629 -6
    endloop
  endfacet
  facet normal 0.587786 0.809017 -0
    outer loop
      vertex 13.4583 5.98629 -6
      vertex 13.12 6.23205 6
      vertex 13.4583 5.98629 6
    endloop
  endfacet
  facet normal 0.587786 0.809017 0
    outer loop
      vertex 13.12 6.23205 6
      vertex 13.4583 5.98629 -6
      vertex 13.12 6.23205 -6
    endloop
  endfacet
  facet normal 0.406738 0.913545 -0
    outer loop
      vertex 13.12 6.23205 -6
      vertex 12.738 6.40211 6
      vertex 13.12 6.23205 6
    endloop
  endfacet
  facet normal 0.406738 0.913545 0
    outer loop
      vertex 12.738 6.40211 6
      vertex 13.12 6.23205 -6
      vertex 12.738 6.40211 -6
    endloop
  endfacet
  facet normal 0.866026 0.499999 0
    outer loop
      vertex 13.9471 5.31347 6
      vertex 13.738 5.67557 -6
      vertex 13.738 5.67557 6
    endloop
  endfacet
  facet normal 0.866026 0.499999 0
    outer loop
      vertex 13.738 5.67557 -6
      vertex 13.9471 5.31347 6
      vertex 13.9471 5.31347 -6
    endloop
  endfacet
  facet normal 0.951056 0.309018 0
    outer loop
      vertex 14.0763 4.91582 6
      vertex 13.9471 5.31347 -6
      vertex 13.9471 5.31347 6
    endloop
  endfacet
  facet normal 0.951056 0.309018 0
    outer loop
      vertex 13.9471 5.31347 -6
      vertex 14.0763 4.91582 6
      vertex 14.0763 4.91582 -6
    endloop
  endfacet
  facet normal -0.406739 -0.913545 0
    outer loop
      vertex 9.12 -6.23205 -6
      vertex 9.50197 -6.40211 6
      vertex 9.12 -6.23205 6
    endloop
  endfacet
  facet normal -0.406739 -0.913545 -0
    outer loop
      vertex 9.50197 -6.40211 6
      vertex 9.12 -6.23205 -6
      vertex 9.50197 -6.40211 -6
    endloop
  endfacet
  facet normal -0.406739 0.913545 0
    outer loop
      vertex 9.50197 6.40211 -6
      vertex 9.12 6.23205 6
      vertex 9.50197 6.40211 6
    endloop
  endfacet
  facet normal -0.406739 0.913545 0
    outer loop
      vertex 9.12 6.23205 6
      vertex 9.50197 6.40211 -6
      vertex 9.12 6.23205 -6
    endloop
  endfacet
endsolid OpenSCAD_Model
