solid OpenSCAD_Model
  facet normal 0 0 -1
    outer loop
      vertex 50.2091 -3.98904 -5
      vertex 52 -2 -5
      vertex 51.9563 -2.41582 -5
    endloop
  endfacet
  facet normal 0 0 -1
    outer loop
      vertex 52 -2 -5
      vertex 48 0 -5
      vertex 52 2 -5
    endloop
  endfacet
  facet normal 0 0 -1
    outer loop
      vertex 50.2091 -3.98904 -5
      vertex 51.9563 -2.41582 -5
      vertex 51.8271 -2.81347 -5
    endloop
  endfacet
  facet normal 0 0 -1
    outer loop
      vertex 47.9344 0.623734 -5
      vertex 52 2 -5
      vertex 48 0 -5
    endloop
  endfacet
  facet normal 0 0 -1
    outer loop
      vertex 50.2091 -3.98904 -5
      vertex 51.8271 -2.81347 -5
      vertex 51.618 -3.17557 -5
    endloop
  endfacet
  facet normal 0 0 -1
    outer loop
      vertex 47.7406 1.22021 -5
      vertex 52 2 -5
      vertex 47.9344 0.623734 -5
    endloop
  endfacet
  facet normal 0 0 -1
    outer loop
      vertex 50.2091 -3.98904 -5
      vertex 51.618 -3.17557 -5
      vertex 51.3383 -3.48629 -5
    endloop
  endfacet
  facet normal 0 -0 -1
    outer loop
      vertex 50.2091 3.98904 -5
      vertex 52 2 -5
      vertex 47.7406 1.22021 -5
    endloop
  endfacet
  facet normal 0 0 -1
    outer loop
      vertex 50.2091 -3.98904 -5
      vertex 51.3383 -3.48629 -5
      vertex 51 -3.73205 -5
    endloop
  endfacet
  facet normal 0 0 -1
    outer loop
      vertex 52 2 -5
      vertex 50.2091 3.98904 -5
      vertex 51.9563 2.41582 -5
    endloop
  endfacet
  facet normal 0 0 -1
    outer loop
      vertex 50.2091 -3.98904 -5
      vertex 51 -3.73205 -5
      vertex 50.618 -3.90211 -5
    endloop
  endfacet
  facet normal 0 0 -1
    outer loop
      vertex 51.9563 2.41582 -5
      vertex 50.2091 3.98904 -5
      vertex 51.8271 2.81347 -5
    endloop
  endfacet
  facet normal -0 0 -1
    outer loop
      vertex 52 -2 -5
      vertex 50.2091 -3.98904 -5
      vertex 47.7406 -1.22021 -5
    endloop
  endfacet
  facet normal 0 0 -1
    outer loop
      vertex 51.8271 2.81347 -5
      vertex 50.2091 3.98904 -5
      vertex 51.618 3.17557 -5
    endloop
  endfacet
  facet normal 0 0 -1
    outer loop
      vertex 51.618 3.17557 -5
      vertex 50.2091 3.98904 -5
      vertex 51.3383 3.48629 -5
    endloop
  endfacet
  facet normal 0 0 -1
    outer loop
      vertex 52 -2 -5
      vertex 47.9344 -0.623734 -5
      vertex 48 0 -5
    endloop
  endfacet
  facet normal 0 0 -1
    outer loop
      vertex 52 -2 -5
      vertex 47.7406 -1.22021 -5
      vertex 47.9344 -0.623734 -5
    endloop
  endfacet
  facet normal 0 0 -1
    outer loop
      vertex 50.2091 -3.98904 -5
      vertex 47.4271 -1.76336 -5
      vertex 47.7406 -1.22021 -5
    endloop
  endfacet
  facet normal 0 0 -1
    outer loop
      vertex 50.2091 -3.98904 -5
      vertex 47.0074 -2.22943 -5
      vertex 47.4271 -1.76336 -5
    endloop
  endfacet
  facet normal 0 0 -1
    outer loop
      vertex 50.2091 -3.98904 -5
      vertex 46.5 -2.59808 -5
      vertex 47.0074 -2.22943 -5
    endloop
  endfacet
  facet normal 0 0 -1
    outer loop
      vertex 50.2091 -3.98904 -5
      vertex 45.9271 -2.85317 -5
      vertex 46.5 -2.59808 -5
    endloop
  endfacet
  facet normal 0 0 -1
    outer loop
      vertex 50.2091 -3.98904 -5
      vertex 45.3136 -2.98357 -5
      vertex 45.9271 -2.85317 -5
    endloop
  endfacet
  facet normal 0 0 -1
    outer loop
      vertex 50.2091 -3.98904 -5
      vertex 44.6864 -2.98357 -5
      vertex 45.3136 -2.98357 -5
    endloop
  endfacet
  facet normal 0 0 -1
    outer loop
      vertex 42.0656 -0.623734 -5
      vertex 36 0 -5
      vertex 42 0 -5
    endloop
  endfacet
  facet normal 0 0 -1
    outer loop
      vertex 35.9344 -0.623734 -5
      vertex 42.0656 -0.623734 -5
      vertex 42.2594 -1.22021 -5
    endloop
  endfacet
  facet normal 0 0 -1
    outer loop
      vertex 35.7406 -1.22021 -5
      vertex 42.2594 -1.22021 -5
      vertex 42.5729 -1.76336 -5
    endloop
  endfacet
  facet normal 0 0 -1
    outer loop
      vertex 35.4271 -1.76336 -5
      vertex 42.5729 -1.76336 -5
      vertex 42.9926 -2.22943 -5
    endloop
  endfacet
  facet normal 0 0 -1
    outer loop
      vertex 35.0074 -2.22943 -5
      vertex 42.9926 -2.22943 -5
      vertex 43.5 -2.59808 -5
    endloop
  endfacet
  facet normal 0 0 -1
    outer loop
      vertex 34.5 -2.59808 -5
      vertex 43.5 -2.59808 -5
      vertex 44.0729 -2.85317 -5
    endloop
  endfacet
  facet normal 0 0 -1
    outer loop
      vertex 42.0656 -0.623734 -5
      vertex 35.9344 -0.623734 -5
      vertex 36 0 -5
    endloop
  endfacet
  facet normal 0 0 -1
    outer loop
      vertex 42.2594 -1.22021 -5
      vertex 35.7406 -1.22021 -5
      vertex 35.9344 -0.623734 -5
    endloop
  endfacet
  facet normal 0 0 -1
    outer loop
      vertex 33.9271 -2.85317 -5
      vertex 44.0729 -2.85317 -5
      vertex 44.6864 -2.98357 -5
    endloop
  endfacet
  facet normal 0 0 -1
    outer loop
      vertex 42.5729 -1.76336 -5
      vertex 35.4271 -1.76336 -5
      vertex 35.7406 -1.22021 -5
    endloop
  endfacet
  facet normal 0 0 -1
    outer loop
      vertex 33.3136 -2.98357 -5
      vertex 44.6864 -2.98357 -5
      vertex 50.2091 -3.98904 -5
    endloop
  endfacet
  facet normal 0 0 -1
    outer loop
      vertex 42.9926 -2.22943 -5
      vertex 35.0074 -2.22943 -5
      vertex 35.4271 -1.76336 -5
    endloop
  endfacet
  facet normal 0 0 -1
    outer loop
      vertex 43.5 -2.59808 -5
      vertex 34.5 -2.59808 -5
      vertex 35.0074 -2.22943 -5
    endloop
  endfacet
  facet normal 0 0 -1
    outer loop
      vertex 44.0729 -2.85317 -5
      vertex 33.9271 -2.85317 -5
      vertex 34.5 -2.59808 -5
    endloop
  endfacet
  facet normal 0 0 -1
    outer loop
      vertex 44.6864 -2.98357 -5
      vertex 33.3136 -2.98357 -5
      vertex 33.9271 -2.85317 -5
    endloop
  endfacet
  facet normal 0 0 -1
    outer loop
      vertex 50.2091 -3.98904 -5
      vertex 32.6864 -2.98357 -5
      vertex 33.3136 -2.98357 -5
    endloop
  endfacet
  facet normal 0 0 -1
    outer loop
      vertex 30.0656 -0.623734 -5
      vertex 24 0 -5
      vertex 30 0 -5
    endloop
  endfacet
  facet normal 0 0 -1
    outer loop
      vertex 23.9344 -0.623734 -5
      vertex 30.0656 -0.623734 -5
      vertex 30.2594 -1.22021 -5
    endloop
  endfacet
  facet normal 0 0 -1
    outer loop
      vertex 23.7406 -1.22021 -5
      vertex 30.2594 -1.22021 -5
      vertex 30.5729 -1.76336 -5
    endloop
  endfacet
  facet normal 0 0 -1
    outer loop
      vertex 23.4271 -1.76336 -5
      vertex 30.5729 -1.76336 -5
      vertex 30.9926 -2.22943 -5
    endloop
  endfacet
  facet normal 0 0 -1
    outer loop
      vertex 23.0074 -2.22943 -5
      vertex 30.9926 -2.22943 -5
      vertex 31.5 -2.59808 -5
    endloop
  endfacet
  facet normal 0 0 -1
    outer loop
      vertex 22.5 -2.59808 -5
      vertex 31.5 -2.59808 -5
      vertex 32.0729 -2.85317 -5
    endloop
  endfacet
  facet normal 0 0 -1
    outer loop
      vertex 30.0656 -0.623734 -5
      vertex 23.9344 -0.623734 -5
      vertex 24 0 -5
    endloop
  endfacet
  facet normal 0 0 -1
    outer loop
      vertex 30.2594 -1.22021 -5
      vertex 23.7406 -1.22021 -5
      vertex 23.9344 -0.623734 -5
    endloop
  endfacet
  facet normal 0 0 -1
    outer loop
      vertex 21.9271 -2.85317 -5
      vertex 32.0729 -2.85317 -5
      vertex 32.6864 -2.98357 -5
    endloop
  endfacet
  facet normal 0 0 -1
    outer loop
      vertex 30.5729 -1.76336 -5
      vertex 23.4271 -1.76336 -5
      vertex 23.7406 -1.22021 -5
    endloop
  endfacet
  facet normal 0 0 -1
    outer loop
      vertex 30.9926 -2.22943 -5
      vertex 23.0074 -2.22943 -5
      vertex 23.4271 -1.76336 -5
    endloop
  endfacet
  facet normal 0 0 -1
    outer loop
      vertex 31.5 -2.59808 -5
      vertex 22.5 -2.59808 -5
      vertex 23.0074 -2.22943 -5
    endloop
  endfacet
  facet normal 0 0 -1
    outer loop
      vertex 21.3136 -2.98357 -5
      vertex 32.6864 -2.98357 -5
      vertex 50.2091 -3.98904 -5
    endloop
  endfacet
  facet normal 0 0 -1
    outer loop
      vertex 32.0729 -2.85317 -5
      vertex 21.9271 -2.85317 -5
      vertex 22.5 -2.59808 -5
    endloop
  endfacet
  facet normal 0 0 -1
    outer loop
      vertex 32.6864 -2.98357 -5
      vertex 21.3136 -2.98357 -5
      vertex 21.9271 -2.85317 -5
    endloop
  endfacet
  facet normal 0 0 -1
    outer loop
      vertex -0.209057 -3.98904 -5
      vertex 21.3136 -2.98357 -5
      vertex 50.2091 -3.98904 -5
    endloop
  endfacet
  facet normal 0 0 -1
    outer loop
      vertex 18.0656 -0.623734 -5
      vertex 12 0 -5
      vertex 18 0 -5
    endloop
  endfacet
  facet normal 0 0 -1
    outer loop
      vertex 11.9344 -0.623734 -5
      vertex 18.0656 -0.623734 -5
      vertex 18.2594 -1.22021 -5
    endloop
  endfacet
  facet normal 0 0 -1
    outer loop
      vertex 11.7406 -1.22021 -5
      vertex 18.2594 -1.22021 -5
      vertex 18.5729 -1.76336 -5
    endloop
  endfacet
  facet normal 0 0 -1
    outer loop
      vertex 11.4271 -1.76336 -5
      vertex 18.5729 -1.76336 -5
      vertex 18.9926 -2.22943 -5
    endloop
  endfacet
  facet normal 0 0 -1
    outer loop
      vertex 11.0074 -2.22943 -5
      vertex 18.9926 -2.22943 -5
      vertex 19.5 -2.59808 -5
    endloop
  endfacet
  facet normal 0 0 -1
    outer loop
      vertex 10.5 -2.59808 -5
      vertex 19.5 -2.59808 -5
      vertex 20.0729 -2.85317 -5
    endloop
  endfacet
  facet normal 0 0 -1
    outer loop
      vertex 18.0656 -0.623734 -5
      vertex 11.9344 -0.623734 -5
      vertex 12 0 -5
    endloop
  endfacet
  facet normal 0 0 -1
    outer loop
      vertex 18.2594 -1.22021 -5
      vertex 11.7406 -1.22021 -5
      vertex 11.9344 -0.623734 -5
    endloop
  endfacet
  facet normal 0 0 -1
    outer loop
      vertex 9.92705 -2.85317 -5
      vertex 20.0729 -2.85317 -5
      vertex 20.6864 -2.98357 -5
    endloop
  endfacet
  facet normal 0 0 -1
    outer loop
      vertex 18.5729 -1.76336 -5
      vertex 11.4271 -1.76336 -5
      vertex 11.7406 -1.22021 -5
    endloop
  endfacet
  facet normal 0 0 -1
    outer loop
      vertex 18.9926 -2.22943 -5
      vertex 11.0074 -2.22943 -5
      vertex 11.4271 -1.76336 -5
    endloop
  endfacet
  facet normal 0 0 -1
    outer loop
      vertex 19.5 -2.59808 -5
      vertex 10.5 -2.59808 -5
      vertex 11.0074 -2.22943 -5
    endloop
  endfacet
  facet normal 0 0 -1
    outer loop
      vertex 20.0729 -2.85317 -5
      vertex 9.92705 -2.85317 -5
      vertex 10.5 -2.59808 -5
    endloop
  endfacet
  facet normal -0 0 -1
    outer loop
      vertex 21.3136 -2.98357 -5
      vertex -0.209057 -3.98904 -5
      vertex 20.6864 -2.98357 -5
    endloop
  endfacet
  facet normal 0 0 -1
    outer loop
      vertex 20.6864 -2.98357 -5
      vertex 9.31359 -2.98357 -5
      vertex 9.92705 -2.85317 -5
    endloop
  endfacet
  facet normal -0 0 -1
    outer loop
      vertex 20.6864 -2.98357 -5
      vertex -0.209057 -3.98904 -5
      vertex 9.31359 -2.98357 -5
    endloop
  endfacet
  facet normal -0 0 -1
    outer loop
      vertex 6.06556 -0.623734 -5
      vertex -0.209057 -3.98904 -5
      vertex 6 0 -5
    endloop
  endfacet
  facet normal -0 0 -1
    outer loop
      vertex 6.25936 -1.22021 -5
      vertex -0.209057 -3.98904 -5
      vertex 6.06556 -0.623734 -5
    endloop
  endfacet
  facet normal -0 0 -1
    outer loop
      vertex 6.57295 -1.76336 -5
      vertex -0.209057 -3.98904 -5
      vertex 6.25936 -1.22021 -5
    endloop
  endfacet
  facet normal -0 0 -1
    outer loop
      vertex 6.99261 -2.22943 -5
      vertex -0.209057 -3.98904 -5
      vertex 6.57295 -1.76336 -5
    endloop
  endfacet
  facet normal -0 0 -1
    outer loop
      vertex 7.5 -2.59808 -5
      vertex -0.209057 -3.98904 -5
      vertex 6.99261 -2.22943 -5
    endloop
  endfacet
  facet normal -0 0 -1
    outer loop
      vertex 8.07295 -2.85317 -5
      vertex -0.209057 -3.98904 -5
      vertex 7.5 -2.59808 -5
    endloop
  endfacet
  facet normal -0 0 -1
    outer loop
      vertex 8.68641 -2.98357 -5
      vertex -0.209057 -3.98904 -5
      vertex 8.07295 -2.85317 -5
    endloop
  endfacet
  facet normal -0 0 -1
    outer loop
      vertex 9.31359 -2.98357 -5
      vertex -0.209057 -3.98904 -5
      vertex 8.68641 -2.98357 -5
    endloop
  endfacet
  facet normal 0 0 -1
    outer loop
      vertex 51.3383 3.48629 -5
      vertex 50.2091 3.98904 -5
      vertex 51 3.73205 -5
    endloop
  endfacet
  facet normal 0 0 -1
    outer loop
      vertex 51 3.73205 -5
      vertex 50.2091 3.98904 -5
      vertex 50.618 3.90211 -5
    endloop
  endfacet
  facet normal 0 0 -1
    outer loop
      vertex 47.4271 1.76336 -5
      vertex 50.2091 3.98904 -5
      vertex 47.7406 1.22021 -5
    endloop
  endfacet
  facet normal 0 0 -1
    outer loop
      vertex 47.0074 2.22943 -5
      vertex 50.2091 3.98904 -5
      vertex 47.4271 1.76336 -5
    endloop
  endfacet
  facet normal 0 0 -1
    outer loop
      vertex 46.5 2.59808 -5
      vertex 50.2091 3.98904 -5
      vertex 47.0074 2.22943 -5
    endloop
  endfacet
  facet normal 0 0 -1
    outer loop
      vertex 45.9271 2.85317 -5
      vertex 50.2091 3.98904 -5
      vertex 46.5 2.59808 -5
    endloop
  endfacet
  facet normal 0 0 -1
    outer loop
      vertex 45.3136 2.98357 -5
      vertex 50.2091 3.98904 -5
      vertex 45.9271 2.85317 -5
    endloop
  endfacet
  facet normal 0 0 -1
    outer loop
      vertex 44.6864 2.98357 -5
      vertex 50.2091 3.98904 -5
      vertex 45.3136 2.98357 -5
    endloop
  endfacet
  facet normal 0 0 -1
    outer loop
      vertex 36 0 -5
      vertex 42.0656 0.623734 -5
      vertex 42 0 -5
    endloop
  endfacet
  facet normal 0 0 -1
    outer loop
      vertex 35.9344 0.623734 -5
      vertex 42.0656 0.623734 -5
      vertex 36 0 -5
    endloop
  endfacet
  facet normal 0 0 -1
    outer loop
      vertex 42.0656 0.623734 -5
      vertex 35.9344 0.623734 -5
      vertex 42.2594 1.22021 -5
    endloop
  endfacet
  facet normal 0 0 -1
    outer loop
      vertex 35.7406 1.22021 -5
      vertex 42.2594 1.22021 -5
      vertex 35.9344 0.623734 -5
    endloop
  endfacet
  facet normal 0 0 -1
    outer loop
      vertex 42.2594 1.22021 -5
      vertex 35.7406 1.22021 -5
      vertex 42.5729 1.76336 -5
    endloop
  endfacet
  facet normal 0 0 -1
    outer loop
      vertex 35.4271 1.76336 -5
      vertex 42.5729 1.76336 -5
      vertex 35.7406 1.22021 -5
    endloop
  endfacet
  facet normal 0 0 -1
    outer loop
      vertex 42.5729 1.76336 -5
      vertex 35.4271 1.76336 -5
      vertex 42.9926 2.22943 -5
    endloop
  endfacet
  facet normal 0 0 -1
    outer loop
      vertex 35.0074 2.22943 -5
      vertex 42.9926 2.22943 -5
      vertex 35.4271 1.76336 -5
    endloop
  endfacet
  facet normal 0 0 -1
    outer loop
      vertex 42.9926 2.22943 -5
      vertex 35.0074 2.22943 -5
      vertex 43.5 2.59808 -5
    endloop
  endfacet
  facet normal 0 0 -1
    outer loop
      vertex 34.5 2.59808 -5
      vertex 43.5 2.59808 -5
      vertex 35.0074 2.22943 -5
    endloop
  endfacet
  facet normal 0 0 -1
    outer loop
      vertex 43.5 2.59808 -5
      vertex 34.5 2.59808 -5
      vertex 44.0729 2.85317 -5
    endloop
  endfacet
  facet normal 0 0 -1
    outer loop
      vertex 33.9271 2.85317 -5
      vertex 44.0729 2.85317 -5
      vertex 34.5 2.59808 -5
    endloop
  endfacet
  facet normal 0 0 -1
    outer loop
      vertex 44.0729 2.85317 -5
      vertex 33.9271 2.85317 -5
      vertex 44.6864 2.98357 -5
    endloop
  endfacet
  facet normal 0 0 -1
    outer loop
      vertex 33.3136 2.98357 -5
      vertex 44.6864 2.98357 -5
      vertex 33.9271 2.85317 -5
    endloop
  endfacet
  facet normal 0 0 -1
    outer loop
      vertex 44.6864 2.98357 -5
      vertex 33.3136 2.98357 -5
      vertex 50.2091 3.98904 -5
    endloop
  endfacet
  facet normal 0 0 -1
    outer loop
      vertex 32.6864 2.98357 -5
      vertex 50.2091 3.98904 -5
      vertex 33.3136 2.98357 -5
    endloop
  endfacet
  facet normal 0 0 -1
    outer loop
      vertex 24 0 -5
      vertex 30.0656 0.623734 -5
      vertex 30 0 -5
    endloop
  endfacet
  facet normal 0 0 -1
    outer loop
      vertex 23.9344 0.623734 -5
      vertex 30.0656 0.623734 -5
      vertex 24 0 -5
    endloop
  endfacet
  facet normal 0 0 -1
    outer loop
      vertex 30.0656 0.623734 -5
      vertex 23.9344 0.623734 -5
      vertex 30.2594 1.22021 -5
    endloop
  endfacet
  facet normal 0 0 -1
    outer loop
      vertex 23.7406 1.22021 -5
      vertex 30.2594 1.22021 -5
      vertex 23.9344 0.623734 -5
    endloop
  endfacet
  facet normal 0 0 -1
    outer loop
      vertex 30.2594 1.22021 -5
      vertex 23.7406 1.22021 -5
      vertex 30.5729 1.76336 -5
    endloop
  endfacet
  facet normal 0 0 -1
    outer loop
      vertex 23.4271 1.76336 -5
      vertex 30.5729 1.76336 -5
      vertex 23.7406 1.22021 -5
    endloop
  endfacet
  facet normal 0 0 -1
    outer loop
      vertex 30.5729 1.76336 -5
      vertex 23.4271 1.76336 -5
      vertex 30.9926 2.22943 -5
    endloop
  endfacet
  facet normal 0 0 -1
    outer loop
      vertex 23.0074 2.22943 -5
      vertex 30.9926 2.22943 -5
      vertex 23.4271 1.76336 -5
    endloop
  endfacet
  facet normal 0 0 -1
    outer loop
      vertex 30.9926 2.22943 -5
      vertex 23.0074 2.22943 -5
      vertex 31.5 2.59808 -5
    endloop
  endfacet
  facet normal 0 0 -1
    outer loop
      vertex 22.5 2.59808 -5
      vertex 31.5 2.59808 -5
      vertex 23.0074 2.22943 -5
    endloop
  endfacet
  facet normal 0 0 -1
    outer loop
      vertex 31.5 2.59808 -5
      vertex 22.5 2.59808 -5
      vertex 32.0729 2.85317 -5
    endloop
  endfacet
  facet normal 0 0 -1
    outer loop
      vertex 21.9271 2.85317 -5
      vertex 32.0729 2.85317 -5
      vertex 22.5 2.59808 -5
    endloop
  endfacet
  facet normal 0 0 -1
    outer loop
      vertex 32.0729 2.85317 -5
      vertex 21.9271 2.85317 -5
      vertex 32.6864 2.98357 -5
    endloop
  endfacet
  facet normal 0 0 -1
    outer loop
      vertex 21.3136 2.98357 -5
      vertex 32.6864 2.98357 -5
      vertex 21.9271 2.85317 -5
    endloop
  endfacet
  facet normal 0 0 -1
    outer loop
      vertex 32.6864 2.98357 -5
      vertex 21.3136 2.98357 -5
      vertex 50.2091 3.98904 -5
    endloop
  endfacet
  facet normal 0 0 -1
    outer loop
      vertex -0.209057 3.98904 -5
      vertex 21.3136 2.98357 -5
      vertex 20.6864 2.98357 -5
    endloop
  endfacet
  facet normal 0 0 -1
    outer loop
      vertex 12 0 -5
      vertex 18.0656 0.623734 -5
      vertex 18 0 -5
    endloop
  endfacet
  facet normal 0 0 -1
    outer loop
      vertex 11.9344 0.623734 -5
      vertex 18.0656 0.623734 -5
      vertex 12 0 -5
    endloop
  endfacet
  facet normal 0 0 -1
    outer loop
      vertex 18.0656 0.623734 -5
      vertex 11.9344 0.623734 -5
      vertex 18.2594 1.22021 -5
    endloop
  endfacet
  facet normal 0 0 -1
    outer loop
      vertex 11.7406 1.22021 -5
      vertex 18.2594 1.22021 -5
      vertex 11.9344 0.623734 -5
    endloop
  endfacet
  facet normal 0 0 -1
    outer loop
      vertex 18.2594 1.22021 -5
      vertex 11.7406 1.22021 -5
      vertex 18.5729 1.76336 -5
    endloop
  endfacet
  facet normal 0 0 -1
    outer loop
      vertex 11.4271 1.76336 -5
      vertex 18.5729 1.76336 -5
      vertex 11.7406 1.22021 -5
    endloop
  endfacet
  facet normal 0 0 -1
    outer loop
      vertex 18.5729 1.76336 -5
      vertex 11.4271 1.76336 -5
      vertex 18.9926 2.22943 -5
    endloop
  endfacet
  facet normal 0 0 -1
    outer loop
      vertex 11.0074 2.22943 -5
      vertex 18.9926 2.22943 -5
      vertex 11.4271 1.76336 -5
    endloop
  endfacet
  facet normal 0 0 -1
    outer loop
      vertex 18.9926 2.22943 -5
      vertex 11.0074 2.22943 -5
      vertex 19.5 2.59808 -5
    endloop
  endfacet
  facet normal 0 0 -1
    outer loop
      vertex 10.5 2.59808 -5
      vertex 19.5 2.59808 -5
      vertex 11.0074 2.22943 -5
    endloop
  endfacet
  facet normal 0 0 -1
    outer loop
      vertex 19.5 2.59808 -5
      vertex 10.5 2.59808 -5
      vertex 20.0729 2.85317 -5
    endloop
  endfacet
  facet normal 0 0 -1
    outer loop
      vertex 9.92705 2.85317 -5
      vertex 20.0729 2.85317 -5
      vertex 10.5 2.59808 -5
    endloop
  endfacet
  facet normal 0 0 -1
    outer loop
      vertex 20.0729 2.85317 -5
      vertex 9.92705 2.85317 -5
      vertex 20.6864 2.98357 -5
    endloop
  endfacet
  facet normal 0 0 -1
    outer loop
      vertex 9.31359 2.98357 -5
      vertex 20.6864 2.98357 -5
      vertex 9.92705 2.85317 -5
    endloop
  endfacet
  facet normal 0 0 -1
    outer loop
      vertex -0.209057 3.98904 -5
      vertex 20.6864 2.98357 -5
      vertex 9.31359 2.98357 -5
    endloop
  endfacet
  facet normal 0 0 -1
    outer loop
      vertex -0.209057 3.98904 -5
      vertex 9.31359 2.98357 -5
      vertex 8.68641 2.98357 -5
    endloop
  endfacet
  facet normal 0 0 -1
    outer loop
      vertex -2 -2 -5
      vertex 6 0 -5
      vertex -0.209057 -3.98904 -5
    endloop
  endfacet
  facet normal 0 0 -1
    outer loop
      vertex -2 2 -5
      vertex 6 0 -5
      vertex -2 -2 -5
    endloop
  endfacet
  facet normal 0 -0 -1
    outer loop
      vertex -0.209057 3.98904 -5
      vertex 6 0 -5
      vertex -2 2 -5
    endloop
  endfacet
  facet normal 0 0 -1
    outer loop
      vertex 6.25936 1.22021 -5
      vertex -0.209057 3.98904 -5
      vertex 6.57295 1.76336 -5
    endloop
  endfacet
  facet normal 0 0 -1
    outer loop
      vertex 21.3136 2.98357 -5
      vertex -0.209057 3.98904 -5
      vertex 50.2091 3.98904 -5
    endloop
  endfacet
  facet normal 0 0 -1
    outer loop
      vertex 8.07295 2.85317 -5
      vertex -0.209057 3.98904 -5
      vertex 8.68641 2.98357 -5
    endloop
  endfacet
  facet normal 0 0 -1
    outer loop
      vertex 7.5 2.59808 -5
      vertex -0.209057 3.98904 -5
      vertex 8.07295 2.85317 -5
    endloop
  endfacet
  facet normal 0 0 -1
    outer loop
      vertex 6.99261 2.22943 -5
      vertex -0.209057 3.98904 -5
      vertex 7.5 2.59808 -5
    endloop
  endfacet
  facet normal 0 0 -1
    outer loop
      vertex 6.57295 1.76336 -5
      vertex -0.209057 3.98904 -5
      vertex 6.99261 2.22943 -5
    endloop
  endfacet
  facet normal 0 0 -1
    outer loop
      vertex -2 -2 -5
      vertex -0.209057 -3.98904 -5
      vertex -0.618033 -3.90211 -5
    endloop
  endfacet
  facet normal 0 0 -1
    outer loop
      vertex 6 0 -5
      vertex -0.209057 3.98904 -5
      vertex 6.06556 0.623734 -5
    endloop
  endfacet
  facet normal 0 0 -1
    outer loop
      vertex -0.209057 3.98904 -5
      vertex -2 2 -5
      vertex -0.618033 3.90211 -5
    endloop
  endfacet
  facet normal 0 0 -1
    outer loop
      vertex -2 -2 -5
      vertex -0.618033 -3.90211 -5
      vertex -1 -3.73205 -5
    endloop
  endfacet
  facet normal 0 0 -1
    outer loop
      vertex -2 -2 -5
      vertex -1 -3.73205 -5
      vertex -1.33826 -3.48629 -5
    endloop
  endfacet
  facet normal 0 0 -1
    outer loop
      vertex 6.06556 0.623734 -5
      vertex -0.209057 3.98904 -5
      vertex 6.25936 1.22021 -5
    endloop
  endfacet
  facet normal 0 0 -1
    outer loop
      vertex -2 -2 -5
      vertex -1.33826 -3.48629 -5
      vertex -1.61803 -3.17557 -5
    endloop
  endfacet
  facet normal 0 0 -1
    outer loop
      vertex -0.618033 3.90211 -5
      vertex -2 2 -5
      vertex -0.999999 3.73205 -5
    endloop
  endfacet
  facet normal 0 0 -1
    outer loop
      vertex -2 -2 -5
      vertex -1.61803 -3.17557 -5
      vertex -1.82709 -2.81347 -5
    endloop
  endfacet
  facet normal 0 0 -1
    outer loop
      vertex -0.999999 3.73205 -5
      vertex -2 2 -5
      vertex -1.33826 3.48629 -5
    endloop
  endfacet
  facet normal 0 0 -1
    outer loop
      vertex -2 -2 -5
      vertex -1.82709 -2.81347 -5
      vertex -1.9563 -2.41582 -5
    endloop
  endfacet
  facet normal 0 0 -1
    outer loop
      vertex -1.33826 3.48629 -5
      vertex -2 2 -5
      vertex -1.61803 3.17557 -5
    endloop
  endfacet
  facet normal 0 0 -1
    outer loop
      vertex -1.61803 3.17557 -5
      vertex -2 2 -5
      vertex -1.82709 2.81347 -5
    endloop
  endfacet
  facet normal 0 0 -1
    outer loop
      vertex -1.82709 2.81347 -5
      vertex -2 2 -5
      vertex -1.9563 2.41582 -5
    endloop
  endfacet
  facet normal 0.20791 -0.978148 0
    outer loop
      vertex 50.2091 -3.98904 -5
      vertex 50.618 -3.90211 5
      vertex 50.2091 -3.98904 5
    endloop
  endfacet
  facet normal 0.20791 -0.978148 0
    outer loop
      vertex 50.618 -3.90211 5
      vertex 50.2091 -3.98904 -5
      vertex 50.618 -3.90211 -5
    endloop
  endfacet
  facet normal 0.743143 -0.669133 0
    outer loop
      vertex 51.3383 -3.48629 5
      vertex 51.618 -3.17557 -5
      vertex 51.618 -3.17557 5
    endloop
  endfacet
  facet normal 0.743143 -0.669133 0
    outer loop
      vertex 51.618 -3.17557 -5
      vertex 51.3383 -3.48629 5
      vertex 51.3383 -3.48629 -5
    endloop
  endfacet
  facet normal -1 0 0
    outer loop
      vertex -2 -2 -5
      vertex -2 2 5
      vertex -2 2 -5
    endloop
  endfacet
  facet normal -1 -0 0
    outer loop
      vertex -2 2 5
      vertex -2 -2 -5
      vertex -2 -2 5
    endloop
  endfacet
  facet normal -0.994522 -0.104529 0
    outer loop
      vertex -1.9563 -2.41582 -5
      vertex -2 -2 5
      vertex -2 -2 -5
    endloop
  endfacet
  facet normal -0.994522 -0.104529 0
    outer loop
      vertex -2 -2 5
      vertex -1.9563 -2.41582 -5
      vertex -1.9563 -2.41582 5
    endloop
  endfacet
  facet normal 0 -1 0
    outer loop
      vertex -0.209057 -3.98904 -5
      vertex 50.2091 -3.98904 5
      vertex -0.209057 -3.98904 5
    endloop
  endfacet
  facet normal 0 -1 -0
    outer loop
      vertex 50.2091 -3.98904 5
      vertex -0.209057 -3.98904 -5
      vertex 50.2091 -3.98904 -5
    endloop
  endfacet
  facet normal 0.994522 -0.104529 0
    outer loop
      vertex 51.9563 -2.41582 5
      vertex 52 -2 -5
      vertex 52 -2 5
    endloop
  endfacet
  facet normal 0.994522 -0.104529 0
    outer loop
      vertex 52 -2 -5
      vertex 51.9563 -2.41582 5
      vertex 51.9563 -2.41582 -5
    endloop
  endfacet
  facet normal 0 1 -0
    outer loop
      vertex 50.2091 3.98904 -5
      vertex -0.209057 3.98904 5
      vertex 50.2091 3.98904 5
    endloop
  endfacet
  facet normal 0 1 0
    outer loop
      vertex -0.209057 3.98904 5
      vertex 50.2091 3.98904 -5
      vertex -0.209057 3.98904 -5
    endloop
  endfacet
  facet normal 1 -0 0
    outer loop
      vertex 52 -2 5
      vertex 52 2 -5
      vertex 52 2 5
    endloop
  endfacet
  facet normal 1 0 0
    outer loop
      vertex 52 2 -5
      vertex 52 -2 5
      vertex 52 -2 -5
    endloop
  endfacet
  facet normal -0.743144 -0.669131 0
    outer loop
      vertex -1.33826 -3.48629 -5
      vertex -1.61803 -3.17557 5
      vertex -1.61803 -3.17557 -5
    endloop
  endfacet
  facet normal -0.743144 -0.669131 0
    outer loop
      vertex -1.61803 -3.17557 5
      vertex -1.33826 -3.48629 -5
      vertex -1.33826 -3.48629 5
    endloop
  endfacet
  facet normal -0.207911 0.978148 0
    outer loop
      vertex -0.209057 3.98904 -5
      vertex -0.618033 3.90211 5
      vertex -0.209057 3.98904 5
    endloop
  endfacet
  facet normal -0.207911 0.978148 0
    outer loop
      vertex -0.618033 3.90211 5
      vertex -0.209057 3.98904 -5
      vertex -0.618033 3.90211 -5
    endloop
  endfacet
  facet normal 0 0 1
    outer loop
      vertex 50.2091 3.98904 5
      vertex 52 2 5
      vertex 51.9563 2.41582 5
    endloop
  endfacet
  facet normal 0 0 1
    outer loop
      vertex 52 2 5
      vertex 48 0 5
      vertex 52 -2 5
    endloop
  endfacet
  facet normal 0 0 1
    outer loop
      vertex 50.2091 3.98904 5
      vertex 51.9563 2.41582 5
      vertex 51.8271 2.81347 5
    endloop
  endfacet
  facet normal -0 0 1
    outer loop
      vertex 47.9344 -0.623734 5
      vertex 52 -2 5
      vertex 48 0 5
    endloop
  endfacet
  facet normal 0 0 1
    outer loop
      vertex 50.2091 3.98904 5
      vertex 51.8271 2.81347 5
      vertex 51.618 3.17557 5
    endloop
  endfacet
  facet normal -0 0 1
    outer loop
      vertex 47.7406 -1.22021 5
      vertex 52 -2 5
      vertex 47.9344 -0.623734 5
    endloop
  endfacet
  facet normal 0 0 1
    outer loop
      vertex 50.2091 3.98904 5
      vertex 51.618 3.17557 5
      vertex 51.3383 3.48629 5
    endloop
  endfacet
  facet normal 0 -0 1
    outer loop
      vertex 50.2091 -3.98904 5
      vertex 52 -2 5
      vertex 47.7406 -1.22021 5
    endloop
  endfacet
  facet normal 0 0 1
    outer loop
      vertex 50.2091 3.98904 5
      vertex 51.3383 3.48629 5
      vertex 51 3.73205 5
    endloop
  endfacet
  facet normal 0 0 1
    outer loop
      vertex 52 -2 5
      vertex 50.2091 -3.98904 5
      vertex 51.9563 -2.41582 5
    endloop
  endfacet
  facet normal 0 0 1
    outer loop
      vertex 50.2091 3.98904 5
      vertex 51 3.73205 5
      vertex 50.618 3.90211 5
    endloop
  endfacet
  facet normal 0 0 1
    outer loop
      vertex 51.9563 -2.41582 5
      vertex 50.2091 -3.98904 5
      vertex 51.8271 -2.81347 5
    endloop
  endfacet
  facet normal 0 0 1
    outer loop
      vertex 52 2 5
      vertex 50.2091 3.98904 5
      vertex 47.7406 1.22021 5
    endloop
  endfacet
  facet normal 0 0 1
    outer loop
      vertex 51.8271 -2.81347 5
      vertex 50.2091 -3.98904 5
      vertex 51.618 -3.17557 5
    endloop
  endfacet
  facet normal 0 0 1
    outer loop
      vertex 51.618 -3.17557 5
      vertex 50.2091 -3.98904 5
      vertex 51.3383 -3.48629 5
    endloop
  endfacet
  facet normal 0 0 1
    outer loop
      vertex 52 2 5
      vertex 47.9344 0.623734 5
      vertex 48 0 5
    endloop
  endfacet
  facet normal 0 0 1
    outer loop
      vertex 52 2 5
      vertex 47.7406 1.22021 5
      vertex 47.9344 0.623734 5
    endloop
  endfacet
  facet normal 0 0 1
    outer loop
      vertex 50.2091 3.98904 5
      vertex 47.4271 1.76336 5
      vertex 47.7406 1.22021 5
    endloop
  endfacet
  facet normal 0 0 1
    outer loop
      vertex 50.2091 3.98904 5
      vertex 47.0074 2.22943 5
      vertex 47.4271 1.76336 5
    endloop
  endfacet
  facet normal 0 0 1
    outer loop
      vertex 50.2091 3.98904 5
      vertex 46.5 2.59808 5
      vertex 47.0074 2.22943 5
    endloop
  endfacet
  facet normal 0 0 1
    outer loop
      vertex 50.2091 3.98904 5
      vertex 45.9271 2.85317 5
      vertex 46.5 2.59808 5
    endloop
  endfacet
  facet normal 0 0 1
    outer loop
      vertex 50.2091 3.98904 5
      vertex 45.3136 2.98357 5
      vertex 45.9271 2.85317 5
    endloop
  endfacet
  facet normal 0 0 1
    outer loop
      vertex 50.2091 3.98904 5
      vertex 44.6864 2.98357 5
      vertex 45.3136 2.98357 5
    endloop
  endfacet
  facet normal 0 0 1
    outer loop
      vertex 42.0656 0.623734 5
      vertex 36 0 5
      vertex 42 0 5
    endloop
  endfacet
  facet normal 0 0 1
    outer loop
      vertex 35.9344 0.623734 5
      vertex 42.0656 0.623734 5
      vertex 42.2594 1.22021 5
    endloop
  endfacet
  facet normal 0 0 1
    outer loop
      vertex 35.7406 1.22021 5
      vertex 42.2594 1.22021 5
      vertex 42.5729 1.76336 5
    endloop
  endfacet
  facet normal 0 0 1
    outer loop
      vertex 35.4271 1.76336 5
      vertex 42.5729 1.76336 5
      vertex 42.9926 2.22943 5
    endloop
  endfacet
  facet normal 0 0 1
    outer loop
      vertex 35.0074 2.22943 5
      vertex 42.9926 2.22943 5
      vertex 43.5 2.59808 5
    endloop
  endfacet
  facet normal 0 0 1
    outer loop
      vertex 34.5 2.59808 5
      vertex 43.5 2.59808 5
      vertex 44.0729 2.85317 5
    endloop
  endfacet
  facet normal 0 0 1
    outer loop
      vertex 42.0656 0.623734 5
      vertex 35.9344 0.623734 5
      vertex 36 0 5
    endloop
  endfacet
  facet normal 0 0 1
    outer loop
      vertex 42.2594 1.22021 5
      vertex 35.7406 1.22021 5
      vertex 35.9344 0.623734 5
    endloop
  endfacet
  facet normal 0 0 1
    outer loop
      vertex 33.9271 2.85317 5
      vertex 44.0729 2.85317 5
      vertex 44.6864 2.98357 5
    endloop
  endfacet
  facet normal 0 0 1
    outer loop
      vertex 42.5729 1.76336 5
      vertex 35.4271 1.76336 5
      vertex 35.7406 1.22021 5
    endloop
  endfacet
  facet normal 0 0 1
    outer loop
      vertex 33.3136 2.98357 5
      vertex 44.6864 2.98357 5
      vertex 50.2091 3.98904 5
    endloop
  endfacet
  facet normal 0 0 1
    outer loop
      vertex 42.9926 2.22943 5
      vertex 35.0074 2.22943 5
      vertex 35.4271 1.76336 5
    endloop
  endfacet
  facet normal 0 0 1
    outer loop
      vertex 43.5 2.59808 5
      vertex 34.5 2.59808 5
      vertex 35.0074 2.22943 5
    endloop
  endfacet
  facet normal 0 0 1
    outer loop
      vertex 44.0729 2.85317 5
      vertex 33.9271 2.85317 5
      vertex 34.5 2.59808 5
    endloop
  endfacet
  facet normal 0 0 1
    outer loop
      vertex 44.6864 2.98357 5
      vertex 33.3136 2.98357 5
      vertex 33.9271 2.85317 5
    endloop
  endfacet
  facet normal 0 0 1
    outer loop
      vertex 50.2091 3.98904 5
      vertex 32.6864 2.98357 5
      vertex 33.3136 2.98357 5
    endloop
  endfacet
  facet normal 0 0 1
    outer loop
      vertex 30.0656 0.623734 5
      vertex 24 0 5
      vertex 30 0 5
    endloop
  endfacet
  facet normal 0 0 1
    outer loop
      vertex 23.9344 0.623734 5
      vertex 30.0656 0.623734 5
      vertex 30.2594 1.22021 5
    endloop
  endfacet
  facet normal 0 0 1
    outer loop
      vertex 23.7406 1.22021 5
      vertex 30.2594 1.22021 5
      vertex 30.5729 1.76336 5
    endloop
  endfacet
  facet normal 0 0 1
    outer loop
      vertex 23.4271 1.76336 5
      vertex 30.5729 1.76336 5
      vertex 30.9926 2.22943 5
    endloop
  endfacet
  facet normal 0 0 1
    outer loop
      vertex 23.0074 2.22943 5
      vertex 30.9926 2.22943 5
      vertex 31.5 2.59808 5
    endloop
  endfacet
  facet normal 0 0 1
    outer loop
      vertex 22.5 2.59808 5
      vertex 31.5 2.59808 5
      vertex 32.0729 2.85317 5
    endloop
  endfacet
  facet normal 0 0 1
    outer loop
      vertex 30.0656 0.623734 5
      vertex 23.9344 0.623734 5
      vertex 24 0 5
    endloop
  endfacet
  facet normal 0 0 1
    outer loop
      vertex 30.2594 1.22021 5
      vertex 23.7406 1.22021 5
      vertex 23.9344 0.623734 5
    endloop
  endfacet
  facet normal 0 0 1
    outer loop
      vertex 21.9271 2.85317 5
      vertex 32.0729 2.85317 5
      vertex 32.6864 2.98357 5
    endloop
  endfacet
  facet normal 0 0 1
    outer loop
      vertex 30.5729 1.76336 5
      vertex 23.4271 1.76336 5
      vertex 23.7406 1.22021 5
    endloop
  endfacet
  facet normal 0 0 1
    outer loop
      vertex 30.9926 2.22943 5
      vertex 23.0074 2.22943 5
      vertex 23.4271 1.76336 5
    endloop
  endfacet
  facet normal 0 0 1
    outer loop
      vertex 31.5 2.59808 5
      vertex 22.5 2.59808 5
      vertex 23.0074 2.22943 5
    endloop
  endfacet
  facet normal 0 0 1
    outer loop
      vertex 21.3136 2.98357 5
      vertex 32.6864 2.98357 5
      vertex 50.2091 3.98904 5
    endloop
  endfacet
  facet normal 0 0 1
    outer loop
      vertex 32.0729 2.85317 5
      vertex 21.9271 2.85317 5
      vertex 22.5 2.59808 5
    endloop
  endfacet
  facet normal 0 0 1
    outer loop
      vertex 32.6864 2.98357 5
      vertex 21.3136 2.98357 5
      vertex 21.9271 2.85317 5
    endloop
  endfacet
  facet normal -0 0 1
    outer loop
      vertex -0.209057 3.98904 5
      vertex 21.3136 2.98357 5
      vertex 50.2091 3.98904 5
    endloop
  endfacet
  facet normal 0 0 1
    outer loop
      vertex 18.0656 0.623734 5
      vertex 12 0 5
      vertex 18 0 5
    endloop
  endfacet
  facet normal 0 0 1
    outer loop
      vertex 11.9344 0.623734 5
      vertex 18.0656 0.623734 5
      vertex 18.2594 1.22021 5
    endloop
  endfacet
  facet normal 0 0 1
    outer loop
      vertex 11.7406 1.22021 5
      vertex 18.2594 1.22021 5
      vertex 18.5729 1.76336 5
    endloop
  endfacet
  facet normal 0 0 1
    outer loop
      vertex 11.4271 1.76336 5
      vertex 18.5729 1.76336 5
      vertex 18.9926 2.22943 5
    endloop
  endfacet
  facet normal 0 0 1
    outer loop
      vertex 11.0074 2.22943 5
      vertex 18.9926 2.22943 5
      vertex 19.5 2.59808 5
    endloop
  endfacet
  facet normal 0 0 1
    outer loop
      vertex 10.5 2.59808 5
      vertex 19.5 2.59808 5
      vertex 20.0729 2.85317 5
    endloop
  endfacet
  facet normal 0 0 1
    outer loop
      vertex 18.0656 0.623734 5
      vertex 11.9344 0.623734 5
      vertex 12 0 5
    endloop
  endfacet
  facet normal 0 0 1
    outer loop
      vertex 18.2594 1.22021 5
      vertex 11.7406 1.22021 5
      vertex 11.9344 0.623734 5
    endloop
  endfacet
  facet normal 0 0 1
    outer loop
      vertex 9.92705 2.85317 5
      vertex 20.0729 2.85317 5
      vertex 20.6864 2.98357 5
    endloop
  endfacet
  facet normal 0 0 1
    outer loop
      vertex 18.5729 1.76336 5
      vertex 11.4271 1.76336 5
      vertex 11.7406 1.22021 5
    endloop
  endfacet
  facet normal 0 0 1
    outer loop
      vertex 18.9926 2.22943 5
      vertex 11.0074 2.22943 5
      vertex 11.4271 1.76336 5
    endloop
  endfacet
  facet normal 0 0 1
    outer loop
      vertex 19.5 2.59808 5
      vertex 10.5 2.59808 5
      vertex 11.0074 2.22943 5
    endloop
  endfacet
  facet normal 0 0 1
    outer loop
      vertex 20.0729 2.85317 5
      vertex 9.92705 2.85317 5
      vertex 10.5 2.59808 5
    endloop
  endfacet
  facet normal 0 0 1
    outer loop
      vertex 21.3136 2.98357 5
      vertex -0.209057 3.98904 5
      vertex 20.6864 2.98357 5
    endloop
  endfacet
  facet normal 0 0 1
    outer loop
      vertex 20.6864 2.98357 5
      vertex 9.31359 2.98357 5
      vertex 9.92705 2.85317 5
    endloop
  endfacet
  facet normal 0 0 1
    outer loop
      vertex 20.6864 2.98357 5
      vertex -0.209057 3.98904 5
      vertex 9.31359 2.98357 5
    endloop
  endfacet
  facet normal 0 0 1
    outer loop
      vertex 6.06556 0.623734 5
      vertex -0.209057 3.98904 5
      vertex 6 0 5
    endloop
  endfacet
  facet normal 0 0 1
    outer loop
      vertex 6.25936 1.22021 5
      vertex -0.209057 3.98904 5
      vertex 6.06556 0.623734 5
    endloop
  endfacet
  facet normal 0 0 1
    outer loop
      vertex 6.57295 1.76336 5
      vertex -0.209057 3.98904 5
      vertex 6.25936 1.22021 5
    endloop
  endfacet
  facet normal 0 0 1
    outer loop
      vertex 6.99261 2.22943 5
      vertex -0.209057 3.98904 5
      vertex 6.57295 1.76336 5
    endloop
  endfacet
  facet normal 0 0 1
    outer loop
      vertex 7.5 2.59808 5
      vertex -0.209057 3.98904 5
      vertex 6.99261 2.22943 5
    endloop
  endfacet
  facet normal 0 0 1
    outer loop
      vertex 8.07295 2.85317 5
      vertex -0.209057 3.98904 5
      vertex 7.5 2.59808 5
    endloop
  endfacet
  facet normal 0 0 1
    outer loop
      vertex 8.68641 2.98357 5
      vertex -0.209057 3.98904 5
      vertex 8.07295 2.85317 5
    endloop
  endfacet
  facet normal 0 0 1
    outer loop
      vertex 9.31359 2.98357 5
      vertex -0.209057 3.98904 5
      vertex 8.68641 2.98357 5
    endloop
  endfacet
  facet normal 0 0 1
    outer loop
      vertex 51.3383 -3.48629 5
      vertex 50.2091 -3.98904 5
      vertex 51 -3.73205 5
    endloop
  endfacet
  facet normal 0 0 1
    outer loop
      vertex 51 -3.73205 5
      vertex 50.2091 -3.98904 5
      vertex 50.618 -3.90211 5
    endloop
  endfacet
  facet normal -0 0 1
    outer loop
      vertex 47.4271 -1.76336 5
      vertex 50.2091 -3.98904 5
      vertex 47.7406 -1.22021 5
    endloop
  endfacet
  facet normal -0 0 1
    outer loop
      vertex 47.0074 -2.22943 5
      vertex 50.2091 -3.98904 5
      vertex 47.4271 -1.76336 5
    endloop
  endfacet
  facet normal -0 0 1
    outer loop
      vertex 46.5 -2.59808 5
      vertex 50.2091 -3.98904 5
      vertex 47.0074 -2.22943 5
    endloop
  endfacet
  facet normal -0 0 1
    outer loop
      vertex 45.9271 -2.85317 5
      vertex 50.2091 -3.98904 5
      vertex 46.5 -2.59808 5
    endloop
  endfacet
  facet normal -0 0 1
    outer loop
      vertex 45.3136 -2.98357 5
      vertex 50.2091 -3.98904 5
      vertex 45.9271 -2.85317 5
    endloop
  endfacet
  facet normal -0 0 1
    outer loop
      vertex 44.6864 -2.98357 5
      vertex 50.2091 -3.98904 5
      vertex 45.3136 -2.98357 5
    endloop
  endfacet
  facet normal -0 0 1
    outer loop
      vertex 36 0 5
      vertex 42.0656 -0.623734 5
      vertex 42 0 5
    endloop
  endfacet
  facet normal 0 0 1
    outer loop
      vertex 35.9344 -0.623734 5
      vertex 42.0656 -0.623734 5
      vertex 36 0 5
    endloop
  endfacet
  facet normal 0 0 1
    outer loop
      vertex 42.0656 -0.623734 5
      vertex 35.9344 -0.623734 5
      vertex 42.2594 -1.22021 5
    endloop
  endfacet
  facet normal 0 0 1
    outer loop
      vertex 35.7406 -1.22021 5
      vertex 42.2594 -1.22021 5
      vertex 35.9344 -0.623734 5
    endloop
  endfacet
  facet normal 0 0 1
    outer loop
      vertex 42.2594 -1.22021 5
      vertex 35.7406 -1.22021 5
      vertex 42.5729 -1.76336 5
    endloop
  endfacet
  facet normal 0 0 1
    outer loop
      vertex 35.4271 -1.76336 5
      vertex 42.5729 -1.76336 5
      vertex 35.7406 -1.22021 5
    endloop
  endfacet
  facet normal 0 0 1
    outer loop
      vertex 42.5729 -1.76336 5
      vertex 35.4271 -1.76336 5
      vertex 42.9926 -2.22943 5
    endloop
  endfacet
  facet normal 0 0 1
    outer loop
      vertex 35.0074 -2.22943 5
      vertex 42.9926 -2.22943 5
      vertex 35.4271 -1.76336 5
    endloop
  endfacet
  facet normal 0 0 1
    outer loop
      vertex 42.9926 -2.22943 5
      vertex 35.0074 -2.22943 5
      vertex 43.5 -2.59808 5
    endloop
  endfacet
  facet normal 0 0 1
    outer loop
      vertex 34.5 -2.59808 5
      vertex 43.5 -2.59808 5
      vertex 35.0074 -2.22943 5
    endloop
  endfacet
  facet normal 0 0 1
    outer loop
      vertex 43.5 -2.59808 5
      vertex 34.5 -2.59808 5
      vertex 44.0729 -2.85317 5
    endloop
  endfacet
  facet normal 0 0 1
    outer loop
      vertex 33.9271 -2.85317 5
      vertex 44.0729 -2.85317 5
      vertex 34.5 -2.59808 5
    endloop
  endfacet
  facet normal 0 0 1
    outer loop
      vertex 44.0729 -2.85317 5
      vertex 33.9271 -2.85317 5
      vertex 44.6864 -2.98357 5
    endloop
  endfacet
  facet normal 0 0 1
    outer loop
      vertex 33.3136 -2.98357 5
      vertex 44.6864 -2.98357 5
      vertex 33.9271 -2.85317 5
    endloop
  endfacet
  facet normal 0 0 1
    outer loop
      vertex 44.6864 -2.98357 5
      vertex 33.3136 -2.98357 5
      vertex 50.2091 -3.98904 5
    endloop
  endfacet
  facet normal -0 0 1
    outer loop
      vertex 32.6864 -2.98357 5
      vertex 50.2091 -3.98904 5
      vertex 33.3136 -2.98357 5
    endloop
  endfacet
  facet normal -0 0 1
    outer loop
      vertex 24 0 5
      vertex 30.0656 -0.623734 5
      vertex 30 0 5
    endloop
  endfacet
  facet normal 0 0 1
    outer loop
      vertex 23.9344 -0.623734 5
      vertex 30.0656 -0.623734 5
      vertex 24 0 5
    endloop
  endfacet
  facet normal 0 0 1
    outer loop
      vertex 30.0656 -0.623734 5
      vertex 23.9344 -0.623734 5
      vertex 30.2594 -1.22021 5
    endloop
  endfacet
  facet normal 0 0 1
    outer loop
      vertex 23.7406 -1.22021 5
      vertex 30.2594 -1.22021 5
      vertex 23.9344 -0.623734 5
    endloop
  endfacet
  facet normal 0 0 1
    outer loop
      vertex 30.2594 -1.22021 5
      vertex 23.7406 -1.22021 5
      vertex 30.5729 -1.76336 5
    endloop
  endfacet
  facet normal 0 0 1
    outer loop
      vertex 23.4271 -1.76336 5
      vertex 30.5729 -1.76336 5
      vertex 23.7406 -1.22021 5
    endloop
  endfacet
  facet normal 0 0 1
    outer loop
      vertex 30.5729 -1.76336 5
      vertex 23.4271 -1.76336 5
      vertex 30.9926 -2.22943 5
    endloop
  endfacet
  facet normal 0 0 1
    outer loop
      vertex 23.0074 -2.22943 5
      vertex 30.9926 -2.22943 5
      vertex 23.4271 -1.76336 5
    endloop
  endfacet
  facet normal 0 0 1
    outer loop
      vertex 30.9926 -2.22943 5
      vertex 23.0074 -2.22943 5
      vertex 31.5 -2.59808 5
    endloop
  endfacet
  facet normal 0 0 1
    outer loop
      vertex 22.5 -2.59808 5
      vertex 31.5 -2.59808 5
      vertex 23.0074 -2.22943 5
    endloop
  endfacet
  facet normal 0 0 1
    outer loop
      vertex 31.5 -2.59808 5
      vertex 22.5 -2.59808 5
      vertex 32.0729 -2.85317 5
    endloop
  endfacet
  facet normal 0 0 1
    outer loop
      vertex 21.9271 -2.85317 5
      vertex 32.0729 -2.85317 5
      vertex 22.5 -2.59808 5
    endloop
  endfacet
  facet normal 0 0 1
    outer loop
      vertex 32.0729 -2.85317 5
      vertex 21.9271 -2.85317 5
      vertex 32.6864 -2.98357 5
    endloop
  endfacet
  facet normal 0 0 1
    outer loop
      vertex 21.3136 -2.98357 5
      vertex 32.6864 -2.98357 5
      vertex 21.9271 -2.85317 5
    endloop
  endfacet
  facet normal 0 0 1
    outer loop
      vertex 32.6864 -2.98357 5
      vertex 21.3136 -2.98357 5
      vertex 50.2091 -3.98904 5
    endloop
  endfacet
  facet normal 0 0 1
    outer loop
      vertex -0.209057 -3.98904 5
      vertex 21.3136 -2.98357 5
      vertex 20.6864 -2.98357 5
    endloop
  endfacet
  facet normal -0 0 1
    outer loop
      vertex 12 0 5
      vertex 18.0656 -0.623734 5
      vertex 18 0 5
    endloop
  endfacet
  facet normal 0 0 1
    outer loop
      vertex 11.9344 -0.623734 5
      vertex 18.0656 -0.623734 5
      vertex 12 0 5
    endloop
  endfacet
  facet normal 0 0 1
    outer loop
      vertex 18.0656 -0.623734 5
      vertex 11.9344 -0.623734 5
      vertex 18.2594 -1.22021 5
    endloop
  endfacet
  facet normal 0 0 1
    outer loop
      vertex 11.7406 -1.22021 5
      vertex 18.2594 -1.22021 5
      vertex 11.9344 -0.623734 5
    endloop
  endfacet
  facet normal 0 0 1
    outer loop
      vertex 18.2594 -1.22021 5
      vertex 11.7406 -1.22021 5
      vertex 18.5729 -1.76336 5
    endloop
  endfacet
  facet normal 0 0 1
    outer loop
      vertex 11.4271 -1.76336 5
      vertex 18.5729 -1.76336 5
      vertex 11.7406 -1.22021 5
    endloop
  endfacet
  facet normal 0 0 1
    outer loop
      vertex 18.5729 -1.76336 5
      vertex 11.4271 -1.76336 5
      vertex 18.9926 -2.22943 5
    endloop
  endfacet
  facet normal 0 0 1
    outer loop
      vertex 11.0074 -2.22943 5
      vertex 18.9926 -2.22943 5
      vertex 11.4271 -1.76336 5
    endloop
  endfacet
  facet normal 0 0 1
    outer loop
      vertex 18.9926 -2.22943 5
      vertex 11.0074 -2.22943 5
      vertex 19.5 -2.59808 5
    endloop
  endfacet
  facet normal 0 0 1
    outer loop
      vertex 10.5 -2.59808 5
      vertex 19.5 -2.59808 5
      vertex 11.0074 -2.22943 5
    endloop
  endfacet
  facet normal 0 0 1
    outer loop
      vertex 19.5 -2.59808 5
      vertex 10.5 -2.59808 5
      vertex 20.0729 -2.85317 5
    endloop
  endfacet
  facet normal 0 0 1
    outer loop
      vertex 9.92705 -2.85317 5
      vertex 20.0729 -2.85317 5
      vertex 10.5 -2.59808 5
    endloop
  endfacet
  facet normal 0 0 1
    outer loop
      vertex 20.0729 -2.85317 5
      vertex 9.92705 -2.85317 5
      vertex 20.6864 -2.98357 5
    endloop
  endfacet
  facet normal 0 0 1
    outer loop
      vertex 9.31359 -2.98357 5
      vertex 20.6864 -2.98357 5
      vertex 9.92705 -2.85317 5
    endloop
  endfacet
  facet normal 0 0 1
    outer loop
      vertex -0.209057 -3.98904 5
      vertex 20.6864 -2.98357 5
      vertex 9.31359 -2.98357 5
    endloop
  endfacet
  facet normal 0 0 1
    outer loop
      vertex -0.209057 -3.98904 5
      vertex 9.31359 -2.98357 5
      vertex 8.68641 -2.98357 5
    endloop
  endfacet
  facet normal -0 0 1
    outer loop
      vertex -2 2 5
      vertex 6 0 5
      vertex -0.209057 3.98904 5
    endloop
  endfacet
  facet normal 0 0 1
    outer loop
      vertex -2 -2 5
      vertex 6 0 5
      vertex -2 2 5
    endloop
  endfacet
  facet normal 0 -0 1
    outer loop
      vertex -0.209057 -3.98904 5
      vertex 6 0 5
      vertex -2 -2 5
    endloop
  endfacet
  facet normal 0 0 1
    outer loop
      vertex 6.25936 -1.22021 5
      vertex -0.209057 -3.98904 5
      vertex 6.57295 -1.76336 5
    endloop
  endfacet
  facet normal 0 0 1
    outer loop
      vertex 21.3136 -2.98357 5
      vertex -0.209057 -3.98904 5
      vertex 50.2091 -3.98904 5
    endloop
  endfacet
  facet normal 0 0 1
    outer loop
      vertex 8.07295 -2.85317 5
      vertex -0.209057 -3.98904 5
      vertex 8.68641 -2.98357 5
    endloop
  endfacet
  facet normal 0 0 1
    outer loop
      vertex 7.5 -2.59808 5
      vertex -0.209057 -3.98904 5
      vertex 8.07295 -2.85317 5
    endloop
  endfacet
  facet normal 0 0 1
    outer loop
      vertex 6.99261 -2.22943 5
      vertex -0.209057 -3.98904 5
      vertex 7.5 -2.59808 5
    endloop
  endfacet
  facet normal 0 0 1
    outer loop
      vertex 6.57295 -1.76336 5
      vertex -0.209057 -3.98904 5
      vertex 6.99261 -2.22943 5
    endloop
  endfacet
  facet normal 0 0 1
    outer loop
      vertex -2 2 5
      vertex -0.209057 3.98904 5
      vertex -0.618033 3.90211 5
    endloop
  endfacet
  facet normal 0 0 1
    outer loop
      vertex 6 0 5
      vertex -0.209057 -3.98904 5
      vertex 6.06556 -0.623734 5
    endloop
  endfacet
  facet normal 0 0 1
    outer loop
      vertex -2 2 5
      vertex -0.618033 3.90211 5
      vertex -0.999999 3.73205 5
    endloop
  endfacet
  facet normal 0 0 1
    outer loop
      vertex 6.06556 -0.623734 5
      vertex -0.209057 -3.98904 5
      vertex 6.25936 -1.22021 5
    endloop
  endfacet
  facet normal 0 0 1
    outer loop
      vertex -2 2 5
      vertex -0.999999 3.73205 5
      vertex -1.33826 3.48629 5
    endloop
  endfacet
  facet normal 0 0 1
    outer loop
      vertex -0.209057 -3.98904 5
      vertex -2 -2 5
      vertex -0.618033 -3.90211 5
    endloop
  endfacet
  facet normal 0 0 1
    outer loop
      vertex -2 2 5
      vertex -1.33826 3.48629 5
      vertex -1.61803 3.17557 5
    endloop
  endfacet
  facet normal 0 0 1
    outer loop
      vertex -0.618033 -3.90211 5
      vertex -2 -2 5
      vertex -1 -3.73205 5
    endloop
  endfacet
  facet normal 0 0 1
    outer loop
      vertex -2 2 5
      vertex -1.61803 3.17557 5
      vertex -1.82709 2.81347 5
    endloop
  endfacet
  facet normal 0 0 1
    outer loop
      vertex -1 -3.73205 5
      vertex -2 -2 5
      vertex -1.33826 -3.48629 5
    endloop
  endfacet
  facet normal 0 0 1
    outer loop
      vertex -2 2 5
      vertex -1.82709 2.81347 5
      vertex -1.9563 2.41582 5
    endloop
  endfacet
  facet normal 0 0 1
    outer loop
      vertex -1.33826 -3.48629 5
      vertex -2 -2 5
      vertex -1.61803 -3.17557 5
    endloop
  endfacet
  facet normal 0 0 1
    outer loop
      vertex -1.61803 -3.17557 5
      vertex -2 -2 5
      vertex -1.82709 -2.81347 5
    endloop
  endfacet
  facet normal 0 0 1
    outer loop
      vertex -1.82709 -2.81347 5
      vertex -2 -2 5
      vertex -1.9563 -2.41582 5
    endloop
  endfacet
  facet normal -0.994522 0.104529 0
    outer loop
      vertex -2 2 -5
      vertex -1.9563 2.41582 5
      vertex -1.9563 2.41582 -5
    endloop
  endfacet
  facet normal -0.994522 0.104529 0
    outer loop
      vertex -1.9563 2.41582 5
      vertex -2 2 -5
      vertex -2 2 5
    endloop
  endfacet
  facet normal -0.587786 -0.809017 0
    outer loop
      vertex -1.33826 -3.48629 -5
      vertex -1 -3.73205 5
      vertex -1.33826 -3.48629 5
    endloop
  endfacet
  facet normal -0.587786 -0.809017 -0
    outer loop
      vertex -1 -3.73205 5
      vertex -1.33826 -3.48629 -5
      vertex -1 -3.73205 -5
    endloop
  endfacet
  facet normal -0.207911 -0.978148 0
    outer loop
      vertex -0.618033 -3.90211 -5
      vertex -0.209057 -3.98904 5
      vertex -0.618033 -3.90211 5
    endloop
  endfacet
  facet normal -0.207911 -0.978148 -0
    outer loop
      vertex -0.209057 -3.98904 5
      vertex -0.618033 -3.90211 -5
      vertex -0.209057 -3.98904 -5
    endloop
  endfacet
  facet normal 0.866026 -0.499999 0
    outer loop
      vertex 51.618 -3.17557 5
      vertex 51.8271 -2.81347 -5
      vertex 51.8271 -2.81347 5
    endloop
  endfacet
  facet normal 0.866026 -0.499999 0
    outer loop
      vertex 51.8271 -2.81347 -5
      vertex 51.618 -3.17557 5
      vertex 51.618 -3.17557 -5
    endloop
  endfacet
  facet normal 0.406739 -0.913545 0
    outer loop
      vertex 50.618 -3.90211 -5
      vertex 51 -3.73205 5
      vertex 50.618 -3.90211 5
    endloop
  endfacet
  facet normal 0.406739 -0.913545 0
    outer loop
      vertex 51 -3.73205 5
      vertex 50.618 -3.90211 -5
      vertex 51 -3.73205 -5
    endloop
  endfacet
  facet normal 0.20791 0.978148 -0
    outer loop
      vertex 50.618 3.90211 -5
      vertex 50.2091 3.98904 5
      vertex 50.618 3.90211 5
    endloop
  endfacet
  facet normal 0.20791 0.978148 0
    outer loop
      vertex 50.2091 3.98904 5
      vertex 50.618 3.90211 -5
      vertex 50.2091 3.98904 -5
    endloop
  endfacet
  facet normal 0.587786 0.809017 -0
    outer loop
      vertex 51.3383 3.48629 -5
      vertex 51 3.73205 5
      vertex 51.3383 3.48629 5
    endloop
  endfacet
  facet normal 0.587786 0.809017 0
    outer loop
      vertex 51 3.73205 5
      vertex 51.3383 3.48629 -5
      vertex 51 3.73205 -5
    endloop
  endfacet
  facet normal -0.951056 -0.309018 0
    outer loop
      vertex -1.82709 -2.81347 -5
      vertex -1.9563 -2.41582 5
      vertex -1.9563 -2.41582 -5
    endloop
  endfacet
  facet normal -0.951056 -0.309018 0
    outer loop
      vertex -1.9563 -2.41582 5
      vertex -1.82709 -2.81347 -5
      vertex -1.82709 -2.81347 5
    endloop
  endfacet
  facet normal -0.587784 0.809018 0
    outer loop
      vertex -0.999999 3.73205 -5
      vertex -1.33826 3.48629 5
      vertex -0.999999 3.73205 5
    endloop
  endfacet
  facet normal -0.587784 0.809018 0
    outer loop
      vertex -1.33826 3.48629 5
      vertex -0.999999 3.73205 -5
      vertex -1.33826 3.48629 -5
    endloop
  endfacet
  facet normal -0.743144 0.669131 0
    outer loop
      vertex -1.61803 3.17557 -5
      vertex -1.33826 3.48629 5
      vertex -1.33826 3.48629 -5
    endloop
  endfacet
  facet normal -0.743144 0.669131 0
    outer loop
      vertex -1.33826 3.48629 5
      vertex -1.61803 3.17557 -5
      vertex -1.61803 3.17557 5
    endloop
  endfacet
  facet normal -0.951056 0.309018 0
    outer loop
      vertex -1.9563 2.41582 -5
      vertex -1.82709 2.81347 5
      vertex -1.82709 2.81347 -5
    endloop
  endfacet
  facet normal -0.951056 0.309018 0
    outer loop
      vertex -1.82709 2.81347 5
      vertex -1.9563 2.41582 -5
      vertex -1.9563 2.41582 5
    endloop
  endfacet
  facet normal -0.866026 -0.499999 0
    outer loop
      vertex -1.61803 -3.17557 -5
      vertex -1.82709 -2.81347 5
      vertex -1.82709 -2.81347 -5
    endloop
  endfacet
  facet normal -0.866026 -0.499999 0
    outer loop
      vertex -1.82709 -2.81347 5
      vertex -1.61803 -3.17557 -5
      vertex -1.61803 -3.17557 5
    endloop
  endfacet
  facet normal 0.587786 -0.809017 0
    outer loop
      vertex 51 -3.73205 -5
      vertex 51.3383 -3.48629 5
      vertex 51 -3.73205 5
    endloop
  endfacet
  facet normal 0.587786 -0.809017 0
    outer loop
      vertex 51.3383 -3.48629 5
      vertex 51 -3.73205 -5
      vertex 51.3383 -3.48629 -5
    endloop
  endfacet
  facet normal 0.994522 0.104529 0
    outer loop
      vertex 52 2 5
      vertex 51.9563 2.41582 -5
      vertex 51.9563 2.41582 5
    endloop
  endfacet
  facet normal 0.994522 0.104529 0
    outer loop
      vertex 51.9563 2.41582 -5
      vertex 52 2 5
      vertex 52 2 -5
    endloop
  endfacet
  facet normal -0.406739 0.913545 0
    outer loop
      vertex -0.618033 3.90211 -5
      vertex -0.999999 3.73205 5
      vertex -0.618033 3.90211 5
    endloop
  endfacet
  facet normal -0.406739 0.913545 0
    outer loop
      vertex -0.999999 3.73205 5
      vertex -0.618033 3.90211 -5
      vertex -0.999999 3.73205 -5
    endloop
  endfacet
  facet normal -0.866026 0.499999 0
    outer loop
      vertex -1.82709 2.81347 -5
      vertex -1.61803 3.17557 5
      vertex -1.61803 3.17557 -5
    endloop
  endfacet
  facet normal -0.866026 0.499999 0
    outer loop
      vertex -1.61803 3.17557 5
      vertex -1.82709 2.81347 -5
      vertex -1.82709 2.81347 5
    endloop
  endfacet
  facet normal -0.406738 -0.913545 0
    outer loop
      vertex -1 -3.73205 -5
      vertex -0.618033 -3.90211 5
      vertex -1 -3.73205 5
    endloop
  endfacet
  facet normal -0.406738 -0.913545 -0
    outer loop
      vertex -0.618033 -3.90211 5
      vertex -1 -3.73205 -5
      vertex -0.618033 -3.90211 -5
    endloop
  endfacet
  facet normal 0.951057 -0.309016 0
    outer loop
      vertex 51.8271 -2.81347 5
      vertex 51.9563 -2.41582 -5
      vertex 51.9563 -2.41582 5
    endloop
  endfacet
  facet normal 0.951057 -0.309016 0
    outer loop
      vertex 51.9563 -2.41582 -5
      vertex 51.8271 -2.81347 5
      vertex 51.8271 -2.81347 -5
    endloop
  endfacet
  facet normal 0.743143 0.669133 0
    outer loop
      vertex 51.618 3.17557 5
      vertex 51.3383 3.48629 -5
      vertex 51.3383 3.48629 5
    endloop
  endfacet
  facet normal 0.743143 0.669133 0
    outer loop
      vertex 51.3383 3.48629 -5
      vertex 51.618 3.17557 5
      vertex 51.618 3.17557 -5
    endloop
  endfacet
  facet normal 0.866026 0.499999 0
    outer loop
      vertex 51.8271 2.81347 5
      vertex 51.618 3.17557 -5
      vertex 51.618 3.17557 5
    endloop
  endfacet
  facet normal 0.866026 0.499999 0
    outer loop
      vertex 51.618 3.17557 -5
      vertex 51.8271 2.81347 5
      vertex 51.8271 2.81347 -5
    endloop
  endfacet
  facet normal 0.406739 0.913545 -0
    outer loop
      vertex 51 3.73205 -5
      vertex 50.618 3.90211 5
      vertex 51 3.73205 5
    endloop
  endfacet
  facet normal 0.406739 0.913545 0
    outer loop
      vertex 50.618 3.90211 5
      vertex 51 3.73205 -5
      vertex 50.618 3.90211 -5
    endloop
  endfacet
  facet normal 0.951057 0.309016 0
    outer loop
      vertex 51.9563 2.41582 5
      vertex 51.8271 2.81347 -5
      vertex 51.8271 2.81347 5
    endloop
  endfacet
  facet normal 0.951057 0.309016 0
    outer loop
      vertex 51.8271 2.81347 -5
      vertex 51.9563 2.41582 5
      vertex 51.9563 2.41582 -5
    endloop
  endfacet
  facet normal -0.866026 -0.5 0
    outer loop
      vertex 11.7406 1.22021 -5
      vertex 11.4271 1.76336 5
      vertex 11.4271 1.76336 -5
    endloop
  endfacet
  facet normal -0.866026 -0.5 0
    outer loop
      vertex 11.4271 1.76336 5
      vertex 11.7406 1.22021 -5
      vertex 11.7406 1.22021 5
    endloop
  endfacet
  facet normal 0.994522 -0.104529 0
    outer loop
      vertex 6 0 5
      vertex 6.06556 0.623734 -5
      vertex 6.06556 0.623734 5
    endloop
  endfacet
  facet normal 0.994522 -0.104529 0
    outer loop
      vertex 6.06556 0.623734 -5
      vertex 6 0 5
      vertex 6 0 -5
    endloop
  endfacet
  facet normal -0.743144 -0.669131 0
    outer loop
      vertex 11.4271 1.76336 -5
      vertex 11.0074 2.22943 5
      vertex 11.0074 2.22943 -5
    endloop
  endfacet
  facet normal -0.743144 -0.669131 0
    outer loop
      vertex 11.0074 2.22943 5
      vertex 11.4271 1.76336 -5
      vertex 11.4271 1.76336 5
    endloop
  endfacet
  facet normal -0.207911 -0.978148 0
    outer loop
      vertex 9.31359 2.98357 -5
      vertex 9.92705 2.85317 5
      vertex 9.31359 2.98357 5
    endloop
  endfacet
  facet normal -0.207911 -0.978148 -0
    outer loop
      vertex 9.92705 2.85317 5
      vertex 9.31359 2.98357 -5
      vertex 9.92705 2.85317 -5
    endloop
  endfacet
  facet normal -0.406737 -0.913545 0
    outer loop
      vertex 9.92705 2.85317 -5
      vertex 10.5 2.59808 5
      vertex 9.92705 2.85317 5
    endloop
  endfacet
  facet normal -0.406737 -0.913545 -0
    outer loop
      vertex 10.5 2.59808 5
      vertex 9.92705 2.85317 -5
      vertex 10.5 2.59808 -5
    endloop
  endfacet
  facet normal 0.406737 -0.913545 0
    outer loop
      vertex 7.5 2.59808 -5
      vertex 8.07295 2.85317 5
      vertex 7.5 2.59808 5
    endloop
  endfacet
  facet normal 0.406737 -0.913545 0
    outer loop
      vertex 8.07295 2.85317 5
      vertex 7.5 2.59808 -5
      vertex 8.07295 2.85317 -5
    endloop
  endfacet
  facet normal 0.951056 -0.309017 0
    outer loop
      vertex 6.06556 0.623734 5
      vertex 6.25936 1.22021 -5
      vertex 6.25936 1.22021 5
    endloop
  endfacet
  facet normal 0.951056 -0.309017 0
    outer loop
      vertex 6.25936 1.22021 -5
      vertex 6.06556 0.623734 5
      vertex 6.06556 0.623734 -5
    endloop
  endfacet
  facet normal -0.994522 0.104529 0
    outer loop
      vertex 11.9344 -0.623734 -5
      vertex 12 0 5
      vertex 12 0 -5
    endloop
  endfacet
  facet normal -0.994522 0.104529 0
    outer loop
      vertex 12 0 5
      vertex 11.9344 -0.623734 -5
      vertex 11.9344 -0.623734 5
    endloop
  endfacet
  facet normal -0.951056 -0.309017 0
    outer loop
      vertex 11.9344 0.623734 -5
      vertex 11.7406 1.22021 5
      vertex 11.7406 1.22021 -5
    endloop
  endfacet
  facet normal -0.951056 -0.309017 0
    outer loop
      vertex 11.7406 1.22021 5
      vertex 11.9344 0.623734 -5
      vertex 11.9344 0.623734 5
    endloop
  endfacet
  facet normal -0.587786 -0.809016 0
    outer loop
      vertex 10.5 2.59808 -5
      vertex 11.0074 2.22943 5
      vertex 10.5 2.59808 5
    endloop
  endfacet
  facet normal -0.587786 -0.809016 -0
    outer loop
      vertex 11.0074 2.22943 5
      vertex 10.5 2.59808 -5
      vertex 11.0074 2.22943 -5
    endloop
  endfacet
  facet normal 0 -1 0
    outer loop
      vertex 8.68641 2.98357 -5
      vertex 9.31359 2.98357 5
      vertex 8.68641 2.98357 5
    endloop
  endfacet
  facet normal 0 -1 -0
    outer loop
      vertex 9.31359 2.98357 5
      vertex 8.68641 2.98357 -5
      vertex 9.31359 2.98357 -5
    endloop
  endfacet
  facet normal 0.866026 -0.5 0
    outer loop
      vertex 6.25936 1.22021 5
      vertex 6.57295 1.76336 -5
      vertex 6.57295 1.76336 5
    endloop
  endfacet
  facet normal 0.866026 -0.5 0
    outer loop
      vertex 6.57295 1.76336 -5
      vertex 6.25936 1.22021 5
      vertex 6.25936 1.22021 -5
    endloop
  endfacet
  facet normal 0.587786 -0.809016 0
    outer loop
      vertex 6.99261 2.22943 -5
      vertex 7.5 2.59808 5
      vertex 6.99261 2.22943 5
    endloop
  endfacet
  facet normal 0.587786 -0.809016 0
    outer loop
      vertex 7.5 2.59808 5
      vertex 6.99261 2.22943 -5
      vertex 7.5 2.59808 -5
    endloop
  endfacet
  facet normal 0.207911 -0.978148 0
    outer loop
      vertex 8.07295 2.85317 -5
      vertex 8.68641 2.98357 5
      vertex 8.07295 2.85317 5
    endloop
  endfacet
  facet normal 0.207911 -0.978148 0
    outer loop
      vertex 8.68641 2.98357 5
      vertex 8.07295 2.85317 -5
      vertex 8.68641 2.98357 -5
    endloop
  endfacet
  facet normal 0.743144 -0.669131 0
    outer loop
      vertex 6.57295 1.76336 5
      vertex 6.99261 2.22943 -5
      vertex 6.99261 2.22943 5
    endloop
  endfacet
  facet normal 0.743144 -0.669131 0
    outer loop
      vertex 6.99261 2.22943 -5
      vertex 6.57295 1.76336 5
      vertex 6.57295 1.76336 -5
    endloop
  endfacet
  facet normal -0.994522 -0.104529 0
    outer loop
      vertex 12 0 -5
      vertex 11.9344 0.623734 5
      vertex 11.9344 0.623734 -5
    endloop
  endfacet
  facet normal -0.994522 -0.104529 0
    outer loop
      vertex 11.9344 0.623734 5
      vertex 12 0 -5
      vertex 12 0 5
    endloop
  endfacet
  facet normal -0.951056 0.309017 0
    outer loop
      vertex 11.7406 -1.22021 -5
      vertex 11.9344 -0.623734 5
      vertex 11.9344 -0.623734 -5
    endloop
  endfacet
  facet normal -0.951056 0.309017 0
    outer loop
      vertex 11.9344 -0.623734 5
      vertex 11.7406 -1.22021 -5
      vertex 11.7406 -1.22021 5
    endloop
  endfacet
  facet normal 0.994522 0.104529 0
    outer loop
      vertex 6.06556 -0.623734 5
      vertex 6 0 -5
      vertex 6 0 5
    endloop
  endfacet
  facet normal 0.994522 0.104529 0
    outer loop
      vertex 6 0 -5
      vertex 6.06556 -0.623734 5
      vertex 6.06556 -0.623734 -5
    endloop
  endfacet
  facet normal -0.587786 0.809016 0
    outer loop
      vertex 11.0074 -2.22943 -5
      vertex 10.5 -2.59808 5
      vertex 11.0074 -2.22943 5
    endloop
  endfacet
  facet normal -0.587786 0.809016 0
    outer loop
      vertex 10.5 -2.59808 5
      vertex 11.0074 -2.22943 -5
      vertex 10.5 -2.59808 -5
    endloop
  endfacet
  facet normal -0.866026 0.5 0
    outer loop
      vertex 11.4271 -1.76336 -5
      vertex 11.7406 -1.22021 5
      vertex 11.7406 -1.22021 -5
    endloop
  endfacet
  facet normal -0.866026 0.5 0
    outer loop
      vertex 11.7406 -1.22021 5
      vertex 11.4271 -1.76336 -5
      vertex 11.4271 -1.76336 5
    endloop
  endfacet
  facet normal -0.207911 0.978148 0
    outer loop
      vertex 9.92705 -2.85317 -5
      vertex 9.31359 -2.98357 5
      vertex 9.92705 -2.85317 5
    endloop
  endfacet
  facet normal -0.207911 0.978148 0
    outer loop
      vertex 9.31359 -2.98357 5
      vertex 9.92705 -2.85317 -5
      vertex 9.31359 -2.98357 -5
    endloop
  endfacet
  facet normal -0.406737 0.913545 0
    outer loop
      vertex 10.5 -2.59808 -5
      vertex 9.92705 -2.85317 5
      vertex 10.5 -2.59808 5
    endloop
  endfacet
  facet normal -0.406737 0.913545 0
    outer loop
      vertex 9.92705 -2.85317 5
      vertex 10.5 -2.59808 -5
      vertex 9.92705 -2.85317 -5
    endloop
  endfacet
  facet normal 0.866026 0.5 0
    outer loop
      vertex 6.57295 -1.76336 5
      vertex 6.25936 -1.22021 -5
      vertex 6.25936 -1.22021 5
    endloop
  endfacet
  facet normal 0.866026 0.5 0
    outer loop
      vertex 6.25936 -1.22021 -5
      vertex 6.57295 -1.76336 5
      vertex 6.57295 -1.76336 -5
    endloop
  endfacet
  facet normal 0.951056 0.309017 0
    outer loop
      vertex 6.25936 -1.22021 5
      vertex 6.06556 -0.623734 -5
      vertex 6.06556 -0.623734 5
    endloop
  endfacet
  facet normal 0.951056 0.309017 0
    outer loop
      vertex 6.06556 -0.623734 -5
      vertex 6.25936 -1.22021 5
      vertex 6.25936 -1.22021 -5
    endloop
  endfacet
  facet normal 0.743144 0.669131 0
    outer loop
      vertex 6.99261 -2.22943 5
      vertex 6.57295 -1.76336 -5
      vertex 6.57295 -1.76336 5
    endloop
  endfacet
  facet normal 0.743144 0.669131 0
    outer loop
      vertex 6.57295 -1.76336 -5
      vertex 6.99261 -2.22943 5
      vertex 6.99261 -2.22943 -5
    endloop
  endfacet
  facet normal 0.207911 0.978148 -0
    outer loop
      vertex 8.68641 -2.98357 -5
      vertex 8.07295 -2.85317 5
      vertex 8.68641 -2.98357 5
    endloop
  endfacet
  facet normal 0.207911 0.978148 0
    outer loop
      vertex 8.07295 -2.85317 5
      vertex 8.68641 -2.98357 -5
      vertex 8.07295 -2.85317 -5
    endloop
  endfacet
  facet normal 0 1 -0
    outer loop
      vertex 9.31359 -2.98357 -5
      vertex 8.68641 -2.98357 5
      vertex 9.31359 -2.98357 5
    endloop
  endfacet
  facet normal 0 1 0
    outer loop
      vertex 8.68641 -2.98357 5
      vertex 9.31359 -2.98357 -5
      vertex 8.68641 -2.98357 -5
    endloop
  endfacet
  facet normal -0.743144 0.669131 0
    outer loop
      vertex 11.0074 -2.22943 -5
      vertex 11.4271 -1.76336 5
      vertex 11.4271 -1.76336 -5
    endloop
  endfacet
  facet normal -0.743144 0.669131 0
    outer loop
      vertex 11.4271 -1.76336 5
      vertex 11.0074 -2.22943 -5
      vertex 11.0074 -2.22943 5
    endloop
  endfacet
  facet normal 0.587786 0.809016 -0
    outer loop
      vertex 7.5 -2.59808 -5
      vertex 6.99261 -2.22943 5
      vertex 7.5 -2.59808 5
    endloop
  endfacet
  facet normal 0.587786 0.809016 0
    outer loop
      vertex 6.99261 -2.22943 5
      vertex 7.5 -2.59808 -5
      vertex 6.99261 -2.22943 -5
    endloop
  endfacet
  facet normal 0.406737 0.913545 -0
    outer loop
      vertex 8.07295 -2.85317 -5
      vertex 7.5 -2.59808 5
      vertex 8.07295 -2.85317 5
    endloop
  endfacet
  facet normal 0.406737 0.913545 0
    outer loop
      vertex 7.5 -2.59808 5
      vertex 8.07295 -2.85317 -5
      vertex 7.5 -2.59808 -5
    endloop
  endfacet
  facet normal -0.866027 -0.499997 0
    outer loop
      vertex 23.7406 1.22021 -5
      vertex 23.4271 1.76336 5
      vertex 23.4271 1.76336 -5
    endloop
  endfacet
  facet normal -0.866027 -0.499997 0
    outer loop
      vertex 23.4271 1.76336 5
      vertex 23.7406 1.22021 -5
      vertex 23.7406 1.22021 5
    endloop
  endfacet
  facet normal 0.994522 -0.104526 0
    outer loop
      vertex 18 0 5
      vertex 18.0656 0.623734 -5
      vertex 18.0656 0.623734 5
    endloop
  endfacet
  facet normal 0.994522 -0.104526 0
    outer loop
      vertex 18.0656 0.623734 -5
      vertex 18 0 5
      vertex 18 0 -5
    endloop
  endfacet
  facet normal -0.743144 -0.669132 0
    outer loop
      vertex 23.4271 1.76336 -5
      vertex 23.0074 2.22943 5
      vertex 23.0074 2.22943 -5
    endloop
  endfacet
  facet normal -0.743144 -0.669132 0
    outer loop
      vertex 23.0074 2.22943 5
      vertex 23.4271 1.76336 -5
      vertex 23.4271 1.76336 5
    endloop
  endfacet
  facet normal -0.207911 -0.978148 0
    outer loop
      vertex 21.3136 2.98357 -5
      vertex 21.9271 2.85317 5
      vertex 21.3136 2.98357 5
    endloop
  endfacet
  facet normal -0.207911 -0.978148 -0
    outer loop
      vertex 21.9271 2.85317 5
      vertex 21.3136 2.98357 -5
      vertex 21.9271 2.85317 -5
    endloop
  endfacet
  facet normal -0.406737 -0.913545 0
    outer loop
      vertex 21.9271 2.85317 -5
      vertex 22.5 2.59808 5
      vertex 21.9271 2.85317 5
    endloop
  endfacet
  facet normal -0.406737 -0.913545 -0
    outer loop
      vertex 22.5 2.59808 5
      vertex 21.9271 2.85317 -5
      vertex 22.5 2.59808 -5
    endloop
  endfacet
  facet normal 0.406737 -0.913545 0
    outer loop
      vertex 19.5 2.59808 -5
      vertex 20.0729 2.85317 5
      vertex 19.5 2.59808 5
    endloop
  endfacet
  facet normal 0.406737 -0.913545 0
    outer loop
      vertex 20.0729 2.85317 5
      vertex 19.5 2.59808 -5
      vertex 20.0729 2.85317 -5
    endloop
  endfacet
  facet normal 0.951056 -0.309019 0
    outer loop
      vertex 18.0656 0.623734 5
      vertex 18.2594 1.22021 -5
      vertex 18.2594 1.22021 5
    endloop
  endfacet
  facet normal 0.951056 -0.309019 0
    outer loop
      vertex 18.2594 1.22021 -5
      vertex 18.0656 0.623734 5
      vertex 18.0656 0.623734 -5
    endloop
  endfacet
  facet normal -0.994522 0.104529 0
    outer loop
      vertex 23.9344 -0.623734 -5
      vertex 24 0 5
      vertex 24 0 -5
    endloop
  endfacet
  facet normal -0.994522 0.104529 0
    outer loop
      vertex 24 0 5
      vertex 23.9344 -0.623734 -5
      vertex 23.9344 -0.623734 5
    endloop
  endfacet
  facet normal -0.587786 -0.809016 0
    outer loop
      vertex 22.5 2.59808 -5
      vertex 23.0074 2.22943 5
      vertex 22.5 2.59808 5
    endloop
  endfacet
  facet normal -0.587786 -0.809016 -0
    outer loop
      vertex 23.0074 2.22943 5
      vertex 22.5 2.59808 -5
      vertex 23.0074 2.22943 -5
    endloop
  endfacet
  facet normal 0 -1 0
    outer loop
      vertex 20.6864 2.98357 -5
      vertex 21.3136 2.98357 5
      vertex 20.6864 2.98357 5
    endloop
  endfacet
  facet normal 0 -1 -0
    outer loop
      vertex 21.3136 2.98357 5
      vertex 20.6864 2.98357 -5
      vertex 21.3136 2.98357 -5
    endloop
  endfacet
  facet normal 0.866026 -0.5 0
    outer loop
      vertex 18.2594 1.22021 5
      vertex 18.5729 1.76336 -5
      vertex 18.5729 1.76336 5
    endloop
  endfacet
  facet normal 0.866026 -0.5 0
    outer loop
      vertex 18.5729 1.76336 -5
      vertex 18.2594 1.22021 5
      vertex 18.2594 1.22021 -5
    endloop
  endfacet
  facet normal 0.587785 -0.809017 0
    outer loop
      vertex 18.9926 2.22943 -5
      vertex 19.5 2.59808 5
      vertex 18.9926 2.22943 5
    endloop
  endfacet
  facet normal 0.587785 -0.809017 0
    outer loop
      vertex 19.5 2.59808 5
      vertex 18.9926 2.22943 -5
      vertex 19.5 2.59808 -5
    endloop
  endfacet
  facet normal 0.207912 -0.978148 0
    outer loop
      vertex 20.0729 2.85317 -5
      vertex 20.6864 2.98357 5
      vertex 20.0729 2.85317 5
    endloop
  endfacet
  facet normal 0.207912 -0.978148 0
    outer loop
      vertex 20.6864 2.98357 5
      vertex 20.0729 2.85317 -5
      vertex 20.6864 2.98357 -5
    endloop
  endfacet
  facet normal 0.743145 -0.66913 0
    outer loop
      vertex 18.5729 1.76336 5
      vertex 18.9926 2.22943 -5
      vertex 18.9926 2.22943 5
    endloop
  endfacet
  facet normal 0.743145 -0.66913 0
    outer loop
      vertex 18.9926 2.22943 -5
      vertex 18.5729 1.76336 5
      vertex 18.5729 1.76336 -5
    endloop
  endfacet
  facet normal -0.994522 -0.104529 0
    outer loop
      vertex 24 0 -5
      vertex 23.9344 0.623734 5
      vertex 23.9344 0.623734 -5
    endloop
  endfacet
  facet normal -0.994522 -0.104529 0
    outer loop
      vertex 23.9344 0.623734 5
      vertex 24 0 -5
      vertex 24 0 5
    endloop
  endfacet
  facet normal -0.951056 0.309019 0
    outer loop
      vertex 23.7406 -1.22021 -5
      vertex 23.9344 -0.623734 5
      vertex 23.9344 -0.623734 -5
    endloop
  endfacet
  facet normal -0.951056 0.309019 0
    outer loop
      vertex 23.9344 -0.623734 5
      vertex 23.7406 -1.22021 -5
      vertex 23.7406 -1.22021 5
    endloop
  endfacet
  facet normal 0.994522 0.104526 0
    outer loop
      vertex 18.0656 -0.623734 5
      vertex 18 0 -5
      vertex 18 0 5
    endloop
  endfacet
  facet normal 0.994522 0.104526 0
    outer loop
      vertex 18 0 -5
      vertex 18.0656 -0.623734 5
      vertex 18.0656 -0.623734 -5
    endloop
  endfacet
  facet normal -0.587786 0.809016 0
    outer loop
      vertex 23.0074 -2.22943 -5
      vertex 22.5 -2.59808 5
      vertex 23.0074 -2.22943 5
    endloop
  endfacet
  facet normal -0.587786 0.809016 0
    outer loop
      vertex 22.5 -2.59808 5
      vertex 23.0074 -2.22943 -5
      vertex 22.5 -2.59808 -5
    endloop
  endfacet
  facet normal -0.951056 -0.309019 0
    outer loop
      vertex 23.9344 0.623734 -5
      vertex 23.7406 1.22021 5
      vertex 23.7406 1.22021 -5
    endloop
  endfacet
  facet normal -0.951056 -0.309019 0
    outer loop
      vertex 23.7406 1.22021 5
      vertex 23.9344 0.623734 -5
      vertex 23.9344 0.623734 5
    endloop
  endfacet
  facet normal -0.866027 0.499997 0
    outer loop
      vertex 23.4271 -1.76336 -5
      vertex 23.7406 -1.22021 5
      vertex 23.7406 -1.22021 -5
    endloop
  endfacet
  facet normal -0.866027 0.499997 0
    outer loop
      vertex 23.7406 -1.22021 5
      vertex 23.4271 -1.76336 -5
      vertex 23.4271 -1.76336 5
    endloop
  endfacet
  facet normal -0.207911 0.978148 0
    outer loop
      vertex 21.9271 -2.85317 -5
      vertex 21.3136 -2.98357 5
      vertex 21.9271 -2.85317 5
    endloop
  endfacet
  facet normal -0.207911 0.978148 0
    outer loop
      vertex 21.3136 -2.98357 5
      vertex 21.9271 -2.85317 -5
      vertex 21.3136 -2.98357 -5
    endloop
  endfacet
  facet normal -0.406737 0.913545 0
    outer loop
      vertex 22.5 -2.59808 -5
      vertex 21.9271 -2.85317 5
      vertex 22.5 -2.59808 5
    endloop
  endfacet
  facet normal -0.406737 0.913545 0
    outer loop
      vertex 21.9271 -2.85317 5
      vertex 22.5 -2.59808 -5
      vertex 21.9271 -2.85317 -5
    endloop
  endfacet
  facet normal 0.866026 0.5 0
    outer loop
      vertex 18.5729 -1.76336 5
      vertex 18.2594 -1.22021 -5
      vertex 18.2594 -1.22021 5
    endloop
  endfacet
  facet normal 0.866026 0.5 0
    outer loop
      vertex 18.2594 -1.22021 -5
      vertex 18.5729 -1.76336 5
      vertex 18.5729 -1.76336 -5
    endloop
  endfacet
  facet normal 0.951056 0.309019 0
    outer loop
      vertex 18.2594 -1.22021 5
      vertex 18.0656 -0.623734 -5
      vertex 18.0656 -0.623734 5
    endloop
  endfacet
  facet normal 0.951056 0.309019 0
    outer loop
      vertex 18.0656 -0.623734 -5
      vertex 18.2594 -1.22021 5
      vertex 18.2594 -1.22021 -5
    endloop
  endfacet
  facet normal 0.743145 0.66913 0
    outer loop
      vertex 18.9926 -2.22943 5
      vertex 18.5729 -1.76336 -5
      vertex 18.5729 -1.76336 5
    endloop
  endfacet
  facet normal 0.743145 0.66913 0
    outer loop
      vertex 18.5729 -1.76336 -5
      vertex 18.9926 -2.22943 5
      vertex 18.9926 -2.22943 -5
    endloop
  endfacet
  facet normal 0.207912 0.978148 -0
    outer loop
      vertex 20.6864 -2.98357 -5
      vertex 20.0729 -2.85317 5
      vertex 20.6864 -2.98357 5
    endloop
  endfacet
  facet normal 0.207912 0.978148 0
    outer loop
      vertex 20.0729 -2.85317 5
      vertex 20.6864 -2.98357 -5
      vertex 20.0729 -2.85317 -5
    endloop
  endfacet
  facet normal 0 1 -0
    outer loop
      vertex 21.3136 -2.98357 -5
      vertex 20.6864 -2.98357 5
      vertex 21.3136 -2.98357 5
    endloop
  endfacet
  facet normal 0 1 0
    outer loop
      vertex 20.6864 -2.98357 5
      vertex 21.3136 -2.98357 -5
      vertex 20.6864 -2.98357 -5
    endloop
  endfacet
  facet normal -0.743144 0.669132 0
    outer loop
      vertex 23.0074 -2.22943 -5
      vertex 23.4271 -1.76336 5
      vertex 23.4271 -1.76336 -5
    endloop
  endfacet
  facet normal -0.743144 0.669132 0
    outer loop
      vertex 23.4271 -1.76336 5
      vertex 23.0074 -2.22943 -5
      vertex 23.0074 -2.22943 5
    endloop
  endfacet
  facet normal 0.406737 0.913545 -0
    outer loop
      vertex 20.0729 -2.85317 -5
      vertex 19.5 -2.59808 5
      vertex 20.0729 -2.85317 5
    endloop
  endfacet
  facet normal 0.406737 0.913545 0
    outer loop
      vertex 19.5 -2.59808 5
      vertex 20.0729 -2.85317 -5
      vertex 19.5 -2.59808 -5
    endloop
  endfacet
  facet normal 0.587785 0.809017 -0
    outer loop
      vertex 19.5 -2.59808 -5
      vertex 18.9926 -2.22943 5
      vertex 19.5 -2.59808 5
    endloop
  endfacet
  facet normal 0.587785 0.809017 0
    outer loop
      vertex 18.9926 -2.22943 5
      vertex 19.5 -2.59808 -5
      vertex 18.9926 -2.22943 -5
    endloop
  endfacet
  facet normal -0.866027 -0.499997 0
    outer loop
      vertex 35.7406 1.22021 -5
      vertex 35.4271 1.76336 5
      vertex 35.4271 1.76336 -5
    endloop
  endfacet
  facet normal -0.866027 -0.499997 0
    outer loop
      vertex 35.4271 1.76336 5
      vertex 35.7406 1.22021 -5
      vertex 35.7406 1.22021 5
    endloop
  endfacet
  facet normal 0.994522 -0.104526 0
    outer loop
      vertex 30 0 5
      vertex 30.0656 0.623734 -5
      vertex 30.0656 0.623734 5
    endloop
  endfacet
  facet normal 0.994522 -0.104526 0
    outer loop
      vertex 30.0656 0.623734 -5
      vertex 30 0 5
      vertex 30 0 -5
    endloop
  endfacet
  facet normal -0.743145 -0.66913 0
    outer loop
      vertex 35.4271 1.76336 -5
      vertex 35.0074 2.22943 5
      vertex 35.0074 2.22943 -5
    endloop
  endfacet
  facet normal -0.743145 -0.66913 0
    outer loop
      vertex 35.0074 2.22943 5
      vertex 35.4271 1.76336 -5
      vertex 35.4271 1.76336 5
    endloop
  endfacet
  facet normal 0.406737 -0.913545 0
    outer loop
      vertex 31.5 2.59808 -5
      vertex 32.0729 2.85317 5
      vertex 31.5 2.59808 5
    endloop
  endfacet
  facet normal 0.406737 -0.913545 0
    outer loop
      vertex 32.0729 2.85317 5
      vertex 31.5 2.59808 -5
      vertex 32.0729 2.85317 -5
    endloop
  endfacet
  facet normal 0.951056 -0.309019 0
    outer loop
      vertex 30.0656 0.623734 5
      vertex 30.2594 1.22021 -5
      vertex 30.2594 1.22021 5
    endloop
  endfacet
  facet normal 0.951056 -0.309019 0
    outer loop
      vertex 30.2594 1.22021 -5
      vertex 30.0656 0.623734 5
      vertex 30.0656 0.623734 -5
    endloop
  endfacet
  facet normal -0.994522 0.104532 0
    outer loop
      vertex 35.9344 -0.623734 -5
      vertex 36 0 5
      vertex 36 0 -5
    endloop
  endfacet
  facet normal -0.994522 0.104532 0
    outer loop
      vertex 36 0 5
      vertex 35.9344 -0.623734 -5
      vertex 35.9344 -0.623734 5
    endloop
  endfacet
  facet normal -0.587785 -0.809017 0
    outer loop
      vertex 34.5 2.59808 -5
      vertex 35.0074 2.22943 5
      vertex 34.5 2.59808 5
    endloop
  endfacet
  facet normal -0.587785 -0.809017 -0
    outer loop
      vertex 35.0074 2.22943 5
      vertex 34.5 2.59808 -5
      vertex 35.0074 2.22943 -5
    endloop
  endfacet
  facet normal 0 -1 0
    outer loop
      vertex 32.6864 2.98357 -5
      vertex 33.3136 2.98357 5
      vertex 32.6864 2.98357 5
    endloop
  endfacet
  facet normal 0 -1 -0
    outer loop
      vertex 33.3136 2.98357 5
      vertex 32.6864 2.98357 -5
      vertex 33.3136 2.98357 -5
    endloop
  endfacet
  facet normal -0.406737 -0.913545 0
    outer loop
      vertex 33.9271 2.85317 -5
      vertex 34.5 2.59808 5
      vertex 33.9271 2.85317 5
    endloop
  endfacet
  facet normal -0.406737 -0.913545 -0
    outer loop
      vertex 34.5 2.59808 5
      vertex 33.9271 2.85317 -5
      vertex 34.5 2.59808 -5
    endloop
  endfacet
  facet normal 0.866026 -0.5 0
    outer loop
      vertex 30.2594 1.22021 5
      vertex 30.5729 1.76336 -5
      vertex 30.5729 1.76336 5
    endloop
  endfacet
  facet normal 0.866026 -0.5 0
    outer loop
      vertex 30.5729 1.76336 -5
      vertex 30.2594 1.22021 5
      vertex 30.2594 1.22021 -5
    endloop
  endfacet
  facet normal 0.587785 -0.809017 0
    outer loop
      vertex 30.9926 2.22943 -5
      vertex 31.5 2.59808 5
      vertex 30.9926 2.22943 5
    endloop
  endfacet
  facet normal 0.587785 -0.809017 0
    outer loop
      vertex 31.5 2.59808 5
      vertex 30.9926 2.22943 -5
      vertex 31.5 2.59808 -5
    endloop
  endfacet
  facet normal 0.207912 -0.978148 0
    outer loop
      vertex 32.0729 2.85317 -5
      vertex 32.6864 2.98357 5
      vertex 32.0729 2.85317 5
    endloop
  endfacet
  facet normal 0.207912 -0.978148 0
    outer loop
      vertex 32.6864 2.98357 5
      vertex 32.0729 2.85317 -5
      vertex 32.6864 2.98357 -5
    endloop
  endfacet
  facet normal 0.743145 -0.66913 0
    outer loop
      vertex 30.5729 1.76336 5
      vertex 30.9926 2.22943 -5
      vertex 30.9926 2.22943 5
    endloop
  endfacet
  facet normal 0.743145 -0.66913 0
    outer loop
      vertex 30.9926 2.22943 -5
      vertex 30.5729 1.76336 5
      vertex 30.5729 1.76336 -5
    endloop
  endfacet
  facet normal -0.994522 -0.104532 0
    outer loop
      vertex 36 0 -5
      vertex 35.9344 0.623734 5
      vertex 35.9344 0.623734 -5
    endloop
  endfacet
  facet normal -0.994522 -0.104532 0
    outer loop
      vertex 35.9344 0.623734 5
      vertex 36 0 -5
      vertex 36 0 5
    endloop
  endfacet
  facet normal -0.951057 0.309016 0
    outer loop
      vertex 35.7406 -1.22021 -5
      vertex 35.9344 -0.623734 5
      vertex 35.9344 -0.623734 -5
    endloop
  endfacet
  facet normal -0.951057 0.309016 0
    outer loop
      vertex 35.9344 -0.623734 5
      vertex 35.7406 -1.22021 -5
      vertex 35.7406 -1.22021 5
    endloop
  endfacet
  facet normal 0.994522 0.104526 0
    outer loop
      vertex 30.0656 -0.623734 5
      vertex 30 0 -5
      vertex 30 0 5
    endloop
  endfacet
  facet normal 0.994522 0.104526 0
    outer loop
      vertex 30 0 -5
      vertex 30.0656 -0.623734 5
      vertex 30.0656 -0.623734 -5
    endloop
  endfacet
  facet normal -0.587785 0.809017 0
    outer loop
      vertex 35.0074 -2.22943 -5
      vertex 34.5 -2.59808 5
      vertex 35.0074 -2.22943 5
    endloop
  endfacet
  facet normal -0.587785 0.809017 0
    outer loop
      vertex 34.5 -2.59808 5
      vertex 35.0074 -2.22943 -5
      vertex 34.5 -2.59808 -5
    endloop
  endfacet
  facet normal -0.951057 -0.309016 0
    outer loop
      vertex 35.9344 0.623734 -5
      vertex 35.7406 1.22021 5
      vertex 35.7406 1.22021 -5
    endloop
  endfacet
  facet normal -0.951057 -0.309016 0
    outer loop
      vertex 35.7406 1.22021 5
      vertex 35.9344 0.623734 -5
      vertex 35.9344 0.623734 5
    endloop
  endfacet
  facet normal -0.20791 -0.978148 0
    outer loop
      vertex 33.3136 2.98357 -5
      vertex 33.9271 2.85317 5
      vertex 33.3136 2.98357 5
    endloop
  endfacet
  facet normal -0.20791 -0.978148 -0
    outer loop
      vertex 33.9271 2.85317 5
      vertex 33.3136 2.98357 -5
      vertex 33.9271 2.85317 -5
    endloop
  endfacet
  facet normal -0.866027 0.499997 0
    outer loop
      vertex 35.4271 -1.76336 -5
      vertex 35.7406 -1.22021 5
      vertex 35.7406 -1.22021 -5
    endloop
  endfacet
  facet normal -0.866027 0.499997 0
    outer loop
      vertex 35.7406 -1.22021 5
      vertex 35.4271 -1.76336 -5
      vertex 35.4271 -1.76336 5
    endloop
  endfacet
  facet normal 0 1 -0
    outer loop
      vertex 33.3136 -2.98357 -5
      vertex 32.6864 -2.98357 5
      vertex 33.3136 -2.98357 5
    endloop
  endfacet
  facet normal 0 1 0
    outer loop
      vertex 32.6864 -2.98357 5
      vertex 33.3136 -2.98357 -5
      vertex 32.6864 -2.98357 -5
    endloop
  endfacet
  facet normal -0.20791 0.978148 0
    outer loop
      vertex 33.9271 -2.85317 -5
      vertex 33.3136 -2.98357 5
      vertex 33.9271 -2.85317 5
    endloop
  endfacet
  facet normal -0.20791 0.978148 0
    outer loop
      vertex 33.3136 -2.98357 5
      vertex 33.9271 -2.85317 -5
      vertex 33.3136 -2.98357 -5
    endloop
  endfacet
  facet normal -0.406737 0.913545 0
    outer loop
      vertex 34.5 -2.59808 -5
      vertex 33.9271 -2.85317 5
      vertex 34.5 -2.59808 5
    endloop
  endfacet
  facet normal -0.406737 0.913545 0
    outer loop
      vertex 33.9271 -2.85317 5
      vertex 34.5 -2.59808 -5
      vertex 33.9271 -2.85317 -5
    endloop
  endfacet
  facet normal 0.866026 0.5 0
    outer loop
      vertex 30.5729 -1.76336 5
      vertex 30.2594 -1.22021 -5
      vertex 30.2594 -1.22021 5
    endloop
  endfacet
  facet normal 0.866026 0.5 0
    outer loop
      vertex 30.2594 -1.22021 -5
      vertex 30.5729 -1.76336 5
      vertex 30.5729 -1.76336 -5
    endloop
  endfacet
  facet normal 0.951056 0.309019 0
    outer loop
      vertex 30.2594 -1.22021 5
      vertex 30.0656 -0.623734 -5
      vertex 30.0656 -0.623734 5
    endloop
  endfacet
  facet normal 0.951056 0.309019 0
    outer loop
      vertex 30.0656 -0.623734 -5
      vertex 30.2594 -1.22021 5
      vertex 30.2594 -1.22021 -5
    endloop
  endfacet
  facet normal 0.743145 0.66913 0
    outer loop
      vertex 30.9926 -2.22943 5
      vertex 30.5729 -1.76336 -5
      vertex 30.5729 -1.76336 5
    endloop
  endfacet
  facet normal 0.743145 0.66913 0
    outer loop
      vertex 30.5729 -1.76336 -5
      vertex 30.9926 -2.22943 5
      vertex 30.9926 -2.22943 -5
    endloop
  endfacet
  facet normal 0.207912 0.978148 -0
    outer loop
      vertex 32.6864 -2.98357 -5
      vertex 32.0729 -2.85317 5
      vertex 32.6864 -2.98357 5
    endloop
  endfacet
  facet normal 0.207912 0.978148 0
    outer loop
      vertex 32.0729 -2.85317 5
      vertex 32.6864 -2.98357 -5
      vertex 32.0729 -2.85317 -5
    endloop
  endfacet
  facet normal -0.743145 0.66913 0
    outer loop
      vertex 35.0074 -2.22943 -5
      vertex 35.4271 -1.76336 5
      vertex 35.4271 -1.76336 -5
    endloop
  endfacet
  facet normal -0.743145 0.66913 0
    outer loop
      vertex 35.4271 -1.76336 5
      vertex 35.0074 -2.22943 -5
      vertex 35.0074 -2.22943 5
    endloop
  endfacet
  facet normal 0.406737 0.913545 -0
    outer loop
      vertex 32.0729 -2.85317 -5
      vertex 31.5 -2.59808 5
      vertex 32.0729 -2.85317 5
    endloop
  endfacet
  facet normal 0.406737 0.913545 0
    outer loop
      vertex 31.5 -2.59808 5
      vertex 32.0729 -2.85317 -5
      vertex 31.5 -2.59808 -5
    endloop
  endfacet
  facet normal 0.587785 0.809017 -0
    outer loop
      vertex 31.5 -2.59808 -5
      vertex 30.9926 -2.22943 5
      vertex 31.5 -2.59808 5
    endloop
  endfacet
  facet normal 0.587785 0.809017 0
    outer loop
      vertex 30.9926 -2.22943 5
      vertex 31.5 -2.59808 -5
      vertex 30.9926 -2.22943 -5
    endloop
  endfacet
  facet normal -0.866027 -0.499997 0
    outer loop
      vertex 47.7406 1.22021 -5
      vertex 47.4271 1.76336 5
      vertex 47.4271 1.76336 -5
    endloop
  endfacet
  facet normal -0.866027 -0.499997 0
    outer loop
      vertex 47.4271 1.76336 5
      vertex 47.7406 1.22021 -5
      vertex 47.7406 1.22021 5
    endloop
  endfacet
  facet normal 0.994522 -0.104526 0
    outer loop
      vertex 42 0 5
      vertex 42.0656 0.623734 -5
      vertex 42.0656 0.623734 5
    endloop
  endfacet
  facet normal 0.994522 -0.104526 0
    outer loop
      vertex 42.0656 0.623734 -5
      vertex 42 0 5
      vertex 42 0 -5
    endloop
  endfacet
  facet normal -0.743145 -0.66913 0
    outer loop
      vertex 47.4271 1.76336 -5
      vertex 47.0074 2.22943 5
      vertex 47.0074 2.22943 -5
    endloop
  endfacet
  facet normal -0.743145 -0.66913 0
    outer loop
      vertex 47.0074 2.22943 5
      vertex 47.4271 1.76336 -5
      vertex 47.4271 1.76336 5
    endloop
  endfacet
  facet normal 0.406737 -0.913545 0
    outer loop
      vertex 43.5 2.59808 -5
      vertex 44.0729 2.85317 5
      vertex 43.5 2.59808 5
    endloop
  endfacet
  facet normal 0.406737 -0.913545 0
    outer loop
      vertex 44.0729 2.85317 5
      vertex 43.5 2.59808 -5
      vertex 44.0729 2.85317 -5
    endloop
  endfacet
  facet normal 0.951057 -0.309016 0
    outer loop
      vertex 42.0656 0.623734 5
      vertex 42.2594 1.22021 -5
      vertex 42.2594 1.22021 5
    endloop
  endfacet
  facet normal 0.951057 -0.309016 0
    outer loop
      vertex 42.2594 1.22021 -5
      vertex 42.0656 0.623734 5
      vertex 42.0656 0.623734 -5
    endloop
  endfacet
  facet normal -0.994522 0.104532 0
    outer loop
      vertex 47.9344 -0.623734 -5
      vertex 48 0 5
      vertex 48 0 -5
    endloop
  endfacet
  facet normal -0.994522 0.104532 0
    outer loop
      vertex 48 0 5
      vertex 47.9344 -0.623734 -5
      vertex 47.9344 -0.623734 5
    endloop
  endfacet
  facet normal -0.951057 -0.309016 0
    outer loop
      vertex 47.9344 0.623734 -5
      vertex 47.7406 1.22021 5
      vertex 47.7406 1.22021 -5
    endloop
  endfacet
  facet normal -0.951057 -0.309016 0
    outer loop
      vertex 47.7406 1.22021 5
      vertex 47.9344 0.623734 -5
      vertex 47.9344 0.623734 5
    endloop
  endfacet
  facet normal -0.587785 -0.809017 0
    outer loop
      vertex 46.5 2.59808 -5
      vertex 47.0074 2.22943 5
      vertex 46.5 2.59808 5
    endloop
  endfacet
  facet normal -0.587785 -0.809017 -0
    outer loop
      vertex 47.0074 2.22943 5
      vertex 46.5 2.59808 -5
      vertex 47.0074 2.22943 -5
    endloop
  endfacet
  facet normal 0 -1 0
    outer loop
      vertex 44.6864 2.98357 -5
      vertex 45.3136 2.98357 5
      vertex 44.6864 2.98357 5
    endloop
  endfacet
  facet normal 0 -1 -0
    outer loop
      vertex 45.3136 2.98357 5
      vertex 44.6864 2.98357 -5
      vertex 45.3136 2.98357 -5
    endloop
  endfacet
  facet normal -0.406737 -0.913545 0
    outer loop
      vertex 45.9271 2.85317 -5
      vertex 46.5 2.59808 5
      vertex 45.9271 2.85317 5
    endloop
  endfacet
  facet normal -0.406737 -0.913545 -0
    outer loop
      vertex 46.5 2.59808 5
      vertex 45.9271 2.85317 -5
      vertex 46.5 2.59808 -5
    endloop
  endfacet
  facet normal 0.866024 -0.500002 0
    outer loop
      vertex 42.2594 1.22021 5
      vertex 42.5729 1.76336 -5
      vertex 42.5729 1.76336 5
    endloop
  endfacet
  facet normal 0.866024 -0.500002 0
    outer loop
      vertex 42.5729 1.76336 -5
      vertex 42.2594 1.22021 5
      vertex 42.2594 1.22021 -5
    endloop
  endfacet
  facet normal 0.587785 -0.809017 0
    outer loop
      vertex 42.9926 2.22943 -5
      vertex 43.5 2.59808 5
      vertex 42.9926 2.22943 5
    endloop
  endfacet
  facet normal 0.587785 -0.809017 0
    outer loop
      vertex 43.5 2.59808 5
      vertex 42.9926 2.22943 -5
      vertex 43.5 2.59808 -5
    endloop
  endfacet
  facet normal 0.207912 -0.978148 0
    outer loop
      vertex 44.0729 2.85317 -5
      vertex 44.6864 2.98357 5
      vertex 44.0729 2.85317 5
    endloop
  endfacet
  facet normal 0.207912 -0.978148 0
    outer loop
      vertex 44.6864 2.98357 5
      vertex 44.0729 2.85317 -5
      vertex 44.6864 2.98357 -5
    endloop
  endfacet
  facet normal 0.743145 -0.66913 0
    outer loop
      vertex 42.5729 1.76336 5
      vertex 42.9926 2.22943 -5
      vertex 42.9926 2.22943 5
    endloop
  endfacet
  facet normal 0.743145 -0.66913 0
    outer loop
      vertex 42.9926 2.22943 -5
      vertex 42.5729 1.76336 5
      vertex 42.5729 1.76336 -5
    endloop
  endfacet
  facet normal -0.994522 -0.104532 0
    outer loop
      vertex 48 0 -5
      vertex 47.9344 0.623734 5
      vertex 47.9344 0.623734 -5
    endloop
  endfacet
  facet normal -0.994522 -0.104532 0
    outer loop
      vertex 47.9344 0.623734 5
      vertex 48 0 -5
      vertex 48 0 5
    endloop
  endfacet
  facet normal 0.994522 0.104526 0
    outer loop
      vertex 42.0656 -0.623734 5
      vertex 42 0 -5
      vertex 42 0 5
    endloop
  endfacet
  facet normal 0.994522 0.104526 0
    outer loop
      vertex 42 0 -5
      vertex 42.0656 -0.623734 5
      vertex 42.0656 -0.623734 -5
    endloop
  endfacet
  facet normal -0.587785 0.809017 0
    outer loop
      vertex 47.0074 -2.22943 -5
      vertex 46.5 -2.59808 5
      vertex 47.0074 -2.22943 5
    endloop
  endfacet
  facet normal -0.587785 0.809017 0
    outer loop
      vertex 46.5 -2.59808 5
      vertex 47.0074 -2.22943 -5
      vertex 46.5 -2.59808 -5
    endloop
  endfacet
  facet normal -0.20791 -0.978148 0
    outer loop
      vertex 45.3136 2.98357 -5
      vertex 45.9271 2.85317 5
      vertex 45.3136 2.98357 5
    endloop
  endfacet
  facet normal -0.20791 -0.978148 -0
    outer loop
      vertex 45.9271 2.85317 5
      vertex 45.3136 2.98357 -5
      vertex 45.9271 2.85317 -5
    endloop
  endfacet
  facet normal -0.866027 0.499997 0
    outer loop
      vertex 47.4271 -1.76336 -5
      vertex 47.7406 -1.22021 5
      vertex 47.7406 -1.22021 -5
    endloop
  endfacet
  facet normal -0.866027 0.499997 0
    outer loop
      vertex 47.7406 -1.22021 5
      vertex 47.4271 -1.76336 -5
      vertex 47.4271 -1.76336 5
    endloop
  endfacet
  facet normal -0.20791 0.978148 0
    outer loop
      vertex 45.9271 -2.85317 -5
      vertex 45.3136 -2.98357 5
      vertex 45.9271 -2.85317 5
    endloop
  endfacet
  facet normal -0.20791 0.978148 0
    outer loop
      vertex 45.3136 -2.98357 5
      vertex 45.9271 -2.85317 -5
      vertex 45.3136 -2.98357 -5
    endloop
  endfacet
  facet normal -0.406737 0.913545 0
    outer loop
      vertex 46.5 -2.59808 -5
      vertex 45.9271 -2.85317 5
      vertex 46.5 -2.59808 5
    endloop
  endfacet
  facet normal -0.406737 0.913545 0
    outer loop
      vertex 45.9271 -2.85317 5
      vertex 46.5 -2.59808 -5
      vertex 45.9271 -2.85317 -5
    endloop
  endfacet
  facet normal -0.951057 0.309016 0
    outer loop
      vertex 47.7406 -1.22021 -5
      vertex 47.9344 -0.623734 5
      vertex 47.9344 -0.623734 -5
    endloop
  endfacet
  facet normal -0.951057 0.309016 0
    outer loop
      vertex 47.9344 -0.623734 5
      vertex 47.7406 -1.22021 -5
      vertex 47.7406 -1.22021 5
    endloop
  endfacet
  facet normal 0.866024 0.500002 0
    outer loop
      vertex 42.5729 -1.76336 5
      vertex 42.2594 -1.22021 -5
      vertex 42.2594 -1.22021 5
    endloop
  endfacet
  facet normal 0.866024 0.500002 0
    outer loop
      vertex 42.2594 -1.22021 -5
      vertex 42.5729 -1.76336 5
      vertex 42.5729 -1.76336 -5
    endloop
  endfacet
  facet normal 0.951057 0.309016 0
    outer loop
      vertex 42.2594 -1.22021 5
      vertex 42.0656 -0.623734 -5
      vertex 42.0656 -0.623734 5
    endloop
  endfacet
  facet normal 0.951057 0.309016 0
    outer loop
      vertex 42.0656 -0.623734 -5
      vertex 42.2594 -1.22021 5
      vertex 42.2594 -1.22021 -5
    endloop
  endfacet
  facet normal 0.743145 0.66913 0
    outer loop
      vertex 42.9926 -2.22943 5
      vertex 42.5729 -1.76336 -5
      vertex 42.5729 -1.76336 5
    endloop
  endfacet
  facet normal 0.743145 0.66913 0
    outer loop
      vertex 42.5729 -1.76336 -5
      vertex 42.9926 -2.22943 5
      vertex 42.9926 -2.22943 -5
    endloop
  endfacet
  facet normal 0.207912 0.978148 -0
    outer loop
      vertex 44.6864 -2.98357 -5
      vertex 44.0729 -2.85317 5
      vertex 44.6864 -2.98357 5
    endloop
  endfacet
  facet normal 0.207912 0.978148 0
    outer loop
      vertex 44.0729 -2.85317 5
      vertex 44.6864 -2.98357 -5
      vertex 44.0729 -2.85317 -5
    endloop
  endfacet
  facet normal 0 1 -0
    outer loop
      vertex 45.3136 -2.98357 -5
      vertex 44.6864 -2.98357 5
      vertex 45.3136 -2.98357 5
    endloop
  endfacet
  facet normal 0 1 0
    outer loop
      vertex 44.6864 -2.98357 5
      vertex 45.3136 -2.98357 -5
      vertex 44.6864 -2.98357 -5
    endloop
  endfacet
  facet normal -0.743145 0.66913 0
    outer loop
      vertex 47.0074 -2.22943 -5
      vertex 47.4271 -1.76336 5
      vertex 47.4271 -1.76336 -5
    endloop
  endfacet
  facet normal -0.743145 0.66913 0
    outer loop
      vertex 47.4271 -1.76336 5
      vertex 47.0074 -2.22943 -5
      vertex 47.0074 -2.22943 5
    endloop
  endfacet
  facet normal 0.406737 0.913545 -0
    outer loop
      vertex 44.0729 -2.85317 -5
      vertex 43.5 -2.59808 5
      vertex 44.0729 -2.85317 5
    endloop
  endfacet
  facet normal 0.406737 0.913545 0
    outer loop
      vertex 43.5 -2.59808 5
      vertex 44.0729 -2.85317 -5
      vertex 43.5 -2.59808 -5
    endloop
  endfacet
  facet normal 0.587785 0.809017 -0
    outer loop
      vertex 43.5 -2.59808 -5
      vertex 42.9926 -2.22943 5
      vertex 43.5 -2.59808 5
    endloop
  endfacet
  facet normal 0.587785 0.809017 0
    outer loop
      vertex 42.9926 -2.22943 5
      vertex 43.5 -2.59808 -5
      vertex 42.9926 -2.22943 -5
    endloop
  endfacet
endsolid OpenSCAD_Model
