solid OpenSCAD_Model
  facet normal 0 0 -1
    outer loop
      vertex 43.7839 -1.01684 -5
      vertex 47 -2 -5
      vertex 46.9563 -2.41582 -5
    endloop
  endfacet
  facet normal 0 0 -1
    outer loop
      vertex 47 -2 -5
      vertex 44 0 -5
      vertex 47 2 -5
    endloop
  endfacet
  facet normal 0 0 -1
    outer loop
      vertex 43.7839 -1.01684 -5
      vertex 46.9563 -2.41582 -5
      vertex 46.8271 -2.81347 -5
    endloop
  endfacet
  facet normal 0 0 -1
    outer loop
      vertex 43.9454 0.519779 -5
      vertex 47 2 -5
      vertex 44 0 -5
    endloop
  endfacet
  facet normal 0 0 -1
    outer loop
      vertex 43.7839 -1.01684 -5
      vertex 46.8271 -2.81347 -5
      vertex 46.618 -3.17557 -5
    endloop
  endfacet
  facet normal 0 0 -1
    outer loop
      vertex 43.7839 1.01684 -5
      vertex 47 2 -5
      vertex 43.9454 0.519779 -5
    endloop
  endfacet
  facet normal 0 0 -1
    outer loop
      vertex 43.5225 -1.46946 -5
      vertex 46.618 -3.17557 -5
      vertex 46.3383 -3.48629 -5
    endloop
  endfacet
  facet normal -0 0 -1
    outer loop
      vertex 47 2 -5
      vertex 43.7839 1.01684 -5
      vertex 46.9563 2.41582 -5
    endloop
  endfacet
  facet normal 0 0 -1
    outer loop
      vertex 43.5225 -1.46946 -5
      vertex 46.3383 -3.48629 -5
      vertex 46 -3.73205 -5
    endloop
  endfacet
  facet normal -0 0 -1
    outer loop
      vertex 46.9563 2.41582 -5
      vertex 43.7839 1.01684 -5
      vertex 46.8271 2.81347 -5
    endloop
  endfacet
  facet normal 0 0 -1
    outer loop
      vertex 43.5225 -1.46946 -5
      vertex 46 -3.73205 -5
      vertex 45.618 -3.90211 -5
    endloop
  endfacet
  facet normal -0 0 -1
    outer loop
      vertex 46.8271 2.81347 -5
      vertex 43.7839 1.01684 -5
      vertex 46.618 3.17557 -5
    endloop
  endfacet
  facet normal 0 0 -1
    outer loop
      vertex 43.5225 -1.46946 -5
      vertex 45.618 -3.90211 -5
      vertex 45.2091 -3.98904 -5
    endloop
  endfacet
  facet normal 0 0 -1
    outer loop
      vertex 43.5225 1.46946 -5
      vertex 46.618 3.17557 -5
      vertex 43.7839 1.01684 -5
    endloop
  endfacet
  facet normal -0 0 -1
    outer loop
      vertex 46.618 3.17557 -5
      vertex 43.5225 1.46946 -5
      vertex 46.3383 3.48629 -5
    endloop
  endfacet
  facet normal 0 0 -1
    outer loop
      vertex 47 -2 -5
      vertex 43.9454 -0.519779 -5
      vertex 44 0 -5
    endloop
  endfacet
  facet normal 0 0 -1
    outer loop
      vertex 47 -2 -5
      vertex 43.7839 -1.01684 -5
      vertex 43.9454 -0.519779 -5
    endloop
  endfacet
  facet normal 0 0 -1
    outer loop
      vertex 46.618 -3.17557 -5
      vertex 43.5225 -1.46946 -5
      vertex 43.7839 -1.01684 -5
    endloop
  endfacet
  facet normal 0 0 -1
    outer loop
      vertex 45.2091 -3.98904 -5
      vertex 43.1728 -1.85786 -5
      vertex 43.5225 -1.46946 -5
    endloop
  endfacet
  facet normal 0 0 -1
    outer loop
      vertex 45.2091 -3.98904 -5
      vertex 42.75 -2.16506 -5
      vertex 43.1728 -1.85786 -5
    endloop
  endfacet
  facet normal 0 0 -1
    outer loop
      vertex 45.2091 -3.98904 -5
      vertex 42.2725 -2.37764 -5
      vertex 42.75 -2.16506 -5
    endloop
  endfacet
  facet normal 0 0 -1
    outer loop
      vertex 45.2091 -3.98904 -5
      vertex 41.7613 -2.4863 -5
      vertex 42.2725 -2.37764 -5
    endloop
  endfacet
  facet normal 0 0 -1
    outer loop
      vertex 45.2091 -3.98904 -5
      vertex 41.2387 -2.4863 -5
      vertex 41.7613 -2.4863 -5
    endloop
  endfacet
  facet normal 0 0 -1
    outer loop
      vertex 45.2091 -3.98904 -5
      vertex 40.7275 -2.37764 -5
      vertex 41.2387 -2.4863 -5
    endloop
  endfacet
  facet normal 0 0 -1
    outer loop
      vertex 39.0546 -0.519779 -5
      vertex 33 0 -5
      vertex 39 0 -5
    endloop
  endfacet
  facet normal 0 0 -1
    outer loop
      vertex 32.9454 -0.519779 -5
      vertex 39.0546 -0.519779 -5
      vertex 39.2161 -1.01684 -5
    endloop
  endfacet
  facet normal 0 0 -1
    outer loop
      vertex 32.7839 -1.01684 -5
      vertex 39.2161 -1.01684 -5
      vertex 39.4775 -1.46946 -5
    endloop
  endfacet
  facet normal 0 0 -1
    outer loop
      vertex 32.5225 -1.46946 -5
      vertex 39.4775 -1.46946 -5
      vertex 39.8272 -1.85786 -5
    endloop
  endfacet
  facet normal 0 0 -1
    outer loop
      vertex 32.1728 -1.85786 -5
      vertex 39.8272 -1.85786 -5
      vertex 40.25 -2.16506 -5
    endloop
  endfacet
  facet normal 0 0 -1
    outer loop
      vertex 31.75 -2.16506 -5
      vertex 40.25 -2.16506 -5
      vertex 40.7275 -2.37764 -5
    endloop
  endfacet
  facet normal 0 0 -1
    outer loop
      vertex 31.2725 -2.37764 -5
      vertex 40.7275 -2.37764 -5
      vertex 45.2091 -3.98904 -5
    endloop
  endfacet
  facet normal 0 0 -1
    outer loop
      vertex 39.0546 -0.519779 -5
      vertex 32.9454 -0.519779 -5
      vertex 33 0 -5
    endloop
  endfacet
  facet normal 0 0 -1
    outer loop
      vertex 39.2161 -1.01684 -5
      vertex 32.7839 -1.01684 -5
      vertex 32.9454 -0.519779 -5
    endloop
  endfacet
  facet normal 0 0 -1
    outer loop
      vertex 39.4775 -1.46946 -5
      vertex 32.5225 -1.46946 -5
      vertex 32.7839 -1.01684 -5
    endloop
  endfacet
  facet normal 0 0 -1
    outer loop
      vertex 39.8272 -1.85786 -5
      vertex 32.1728 -1.85786 -5
      vertex 32.5225 -1.46946 -5
    endloop
  endfacet
  facet normal 0 0 -1
    outer loop
      vertex 40.25 -2.16506 -5
      vertex 31.75 -2.16506 -5
      vertex 32.1728 -1.85786 -5
    endloop
  endfacet
  facet normal 0 0 -1
    outer loop
      vertex 40.7275 -2.37764 -5
      vertex 31.2725 -2.37764 -5
      vertex 31.75 -2.16506 -5
    endloop
  endfacet
  facet normal 0 0 -1
    outer loop
      vertex 45.2091 -3.98904 -5
      vertex 30.7613 -2.4863 -5
      vertex 31.2725 -2.37764 -5
    endloop
  endfacet
  facet normal 0 0 -1
    outer loop
      vertex 45.2091 -3.98904 -5
      vertex 30.2387 -2.4863 -5
      vertex 30.7613 -2.4863 -5
    endloop
  endfacet
  facet normal 0 0 -1
    outer loop
      vertex 28.0546 -0.519779 -5
      vertex 22 0 -5
      vertex 28 0 -5
    endloop
  endfacet
  facet normal 0 0 -1
    outer loop
      vertex 21.9454 -0.519779 -5
      vertex 28.0546 -0.519779 -5
      vertex 28.2161 -1.01684 -5
    endloop
  endfacet
  facet normal 0 0 -1
    outer loop
      vertex 21.7839 -1.01684 -5
      vertex 28.2161 -1.01684 -5
      vertex 28.4775 -1.46946 -5
    endloop
  endfacet
  facet normal 0 0 -1
    outer loop
      vertex 21.5225 -1.46946 -5
      vertex 28.4775 -1.46946 -5
      vertex 28.8272 -1.85786 -5
    endloop
  endfacet
  facet normal 0 0 -1
    outer loop
      vertex 21.1728 -1.85786 -5
      vertex 28.8272 -1.85786 -5
      vertex 29.25 -2.16506 -5
    endloop
  endfacet
  facet normal 0 0 -1
    outer loop
      vertex 20.75 -2.16506 -5
      vertex 29.25 -2.16506 -5
      vertex 29.7275 -2.37764 -5
    endloop
  endfacet
  facet normal 0 0 -1
    outer loop
      vertex 28.0546 -0.519779 -5
      vertex 21.9454 -0.519779 -5
      vertex 22 0 -5
    endloop
  endfacet
  facet normal 0 0 -1
    outer loop
      vertex 28.2161 -1.01684 -5
      vertex 21.7839 -1.01684 -5
      vertex 21.9454 -0.519779 -5
    endloop
  endfacet
  facet normal 0 0 -1
    outer loop
      vertex 20.2725 -2.37764 -5
      vertex 29.7275 -2.37764 -5
      vertex 30.2387 -2.4863 -5
    endloop
  endfacet
  facet normal 0 0 -1
    outer loop
      vertex 28.4775 -1.46946 -5
      vertex 21.5225 -1.46946 -5
      vertex 21.7839 -1.01684 -5
    endloop
  endfacet
  facet normal 0 0 -1
    outer loop
      vertex 28.8272 -1.85786 -5
      vertex 21.1728 -1.85786 -5
      vertex 21.5225 -1.46946 -5
    endloop
  endfacet
  facet normal 0 0 -1
    outer loop
      vertex 19.7613 -2.4863 -5
      vertex 30.2387 -2.4863 -5
      vertex 45.2091 -3.98904 -5
    endloop
  endfacet
  facet normal 0 0 -1
    outer loop
      vertex 29.25 -2.16506 -5
      vertex 20.75 -2.16506 -5
      vertex 21.1728 -1.85786 -5
    endloop
  endfacet
  facet normal 0 0 -1
    outer loop
      vertex 29.7275 -2.37764 -5
      vertex 20.2725 -2.37764 -5
      vertex 20.75 -2.16506 -5
    endloop
  endfacet
  facet normal 0 0 -1
    outer loop
      vertex 30.2387 -2.4863 -5
      vertex 19.7613 -2.4863 -5
      vertex 20.2725 -2.37764 -5
    endloop
  endfacet
  facet normal 0 0 -1
    outer loop
      vertex -0.209057 -3.98904 -5
      vertex 19.7613 -2.4863 -5
      vertex 45.2091 -3.98904 -5
    endloop
  endfacet
  facet normal 0 0 -1
    outer loop
      vertex 17.0546 -0.519779 -5
      vertex 11 0 -5
      vertex 17 0 -5
    endloop
  endfacet
  facet normal 0 0 -1
    outer loop
      vertex 10.9454 -0.519779 -5
      vertex 17.0546 -0.519779 -5
      vertex 17.2161 -1.01684 -5
    endloop
  endfacet
  facet normal 0 0 -1
    outer loop
      vertex 10.7839 -1.01684 -5
      vertex 17.2161 -1.01684 -5
      vertex 17.4775 -1.46946 -5
    endloop
  endfacet
  facet normal 0 0 -1
    outer loop
      vertex 10.5225 -1.46946 -5
      vertex 17.4775 -1.46946 -5
      vertex 17.8272 -1.85786 -5
    endloop
  endfacet
  facet normal 0 0 -1
    outer loop
      vertex 10.1728 -1.85786 -5
      vertex 17.8272 -1.85786 -5
      vertex 18.25 -2.16506 -5
    endloop
  endfacet
  facet normal 0 0 -1
    outer loop
      vertex 9.75 -2.16506 -5
      vertex 18.25 -2.16506 -5
      vertex 18.7275 -2.37764 -5
    endloop
  endfacet
  facet normal 0 0 -1
    outer loop
      vertex 17.0546 -0.519779 -5
      vertex 10.9454 -0.519779 -5
      vertex 11 0 -5
    endloop
  endfacet
  facet normal 0 0 -1
    outer loop
      vertex 17.2161 -1.01684 -5
      vertex 10.7839 -1.01684 -5
      vertex 10.9454 -0.519779 -5
    endloop
  endfacet
  facet normal 0 0 -1
    outer loop
      vertex 9.27254 -2.37764 -5
      vertex 18.7275 -2.37764 -5
      vertex 19.2387 -2.4863 -5
    endloop
  endfacet
  facet normal 0 0 -1
    outer loop
      vertex 17.4775 -1.46946 -5
      vertex 10.5225 -1.46946 -5
      vertex 10.7839 -1.01684 -5
    endloop
  endfacet
  facet normal 0 0 -1
    outer loop
      vertex 17.8272 -1.85786 -5
      vertex 10.1728 -1.85786 -5
      vertex 10.5225 -1.46946 -5
    endloop
  endfacet
  facet normal 0 0 -1
    outer loop
      vertex 18.25 -2.16506 -5
      vertex 9.75 -2.16506 -5
      vertex 10.1728 -1.85786 -5
    endloop
  endfacet
  facet normal -0 0 -1
    outer loop
      vertex 19.7613 -2.4863 -5
      vertex -0.209057 -3.98904 -5
      vertex 19.2387 -2.4863 -5
    endloop
  endfacet
  facet normal 0 0 -1
    outer loop
      vertex 18.7275 -2.37764 -5
      vertex 9.27254 -2.37764 -5
      vertex 9.75 -2.16506 -5
    endloop
  endfacet
  facet normal 0 0 -1
    outer loop
      vertex 19.2387 -2.4863 -5
      vertex 8.76132 -2.4863 -5
      vertex 9.27254 -2.37764 -5
    endloop
  endfacet
  facet normal -0 0 -1
    outer loop
      vertex 19.2387 -2.4863 -5
      vertex -0.209057 -3.98904 -5
      vertex 8.76132 -2.4863 -5
    endloop
  endfacet
  facet normal -0 0 -1
    outer loop
      vertex 6.05463 -0.519779 -5
      vertex -0.209057 -3.98904 -5
      vertex 6 0 -5
    endloop
  endfacet
  facet normal -0 0 -1
    outer loop
      vertex 6.21614 -1.01684 -5
      vertex -0.209057 -3.98904 -5
      vertex 6.05463 -0.519779 -5
    endloop
  endfacet
  facet normal -0 0 -1
    outer loop
      vertex 6.47746 -1.46946 -5
      vertex -0.209057 -3.98904 -5
      vertex 6.21614 -1.01684 -5
    endloop
  endfacet
  facet normal -0 0 -1
    outer loop
      vertex 6.82717 -1.85786 -5
      vertex -0.209057 -3.98904 -5
      vertex 6.47746 -1.46946 -5
    endloop
  endfacet
  facet normal -0 0 -1
    outer loop
      vertex 7.25 -2.16506 -5
      vertex -0.209057 -3.98904 -5
      vertex 6.82717 -1.85786 -5
    endloop
  endfacet
  facet normal -0 0 -1
    outer loop
      vertex 7.72746 -2.37764 -5
      vertex -0.209057 -3.98904 -5
      vertex 7.25 -2.16506 -5
    endloop
  endfacet
  facet normal -0 0 -1
    outer loop
      vertex 8.23868 -2.4863 -5
      vertex -0.209057 -3.98904 -5
      vertex 7.72746 -2.37764 -5
    endloop
  endfacet
  facet normal -0 0 -1
    outer loop
      vertex 8.76132 -2.4863 -5
      vertex -0.209057 -3.98904 -5
      vertex 8.23868 -2.4863 -5
    endloop
  endfacet
  facet normal -0 0 -1
    outer loop
      vertex 46.3383 3.48629 -5
      vertex 43.5225 1.46946 -5
      vertex 46 3.73205 -5
    endloop
  endfacet
  facet normal -0 0 -1
    outer loop
      vertex 46 3.73205 -5
      vertex 43.5225 1.46946 -5
      vertex 45.618 3.90211 -5
    endloop
  endfacet
  facet normal -0 0 -1
    outer loop
      vertex 45.618 3.90211 -5
      vertex 43.5225 1.46946 -5
      vertex 45.2091 3.98904 -5
    endloop
  endfacet
  facet normal 0 0 -1
    outer loop
      vertex 43.1728 1.85786 -5
      vertex 45.2091 3.98904 -5
      vertex 43.5225 1.46946 -5
    endloop
  endfacet
  facet normal 0 0 -1
    outer loop
      vertex 42.75 2.16506 -5
      vertex 45.2091 3.98904 -5
      vertex 43.1728 1.85786 -5
    endloop
  endfacet
  facet normal 0 0 -1
    outer loop
      vertex 42.2725 2.37764 -5
      vertex 45.2091 3.98904 -5
      vertex 42.75 2.16506 -5
    endloop
  endfacet
  facet normal 0 0 -1
    outer loop
      vertex 41.7613 2.4863 -5
      vertex 45.2091 3.98904 -5
      vertex 42.2725 2.37764 -5
    endloop
  endfacet
  facet normal 0 0 -1
    outer loop
      vertex 41.2387 2.4863 -5
      vertex 45.2091 3.98904 -5
      vertex 41.7613 2.4863 -5
    endloop
  endfacet
  facet normal 0 0 -1
    outer loop
      vertex 40.7275 2.37764 -5
      vertex 45.2091 3.98904 -5
      vertex 41.2387 2.4863 -5
    endloop
  endfacet
  facet normal 0 0 -1
    outer loop
      vertex 33 0 -5
      vertex 39.0546 0.519779 -5
      vertex 39 0 -5
    endloop
  endfacet
  facet normal 0 0 -1
    outer loop
      vertex 32.9454 0.519779 -5
      vertex 39.0546 0.519779 -5
      vertex 33 0 -5
    endloop
  endfacet
  facet normal 0 0 -1
    outer loop
      vertex 39.0546 0.519779 -5
      vertex 32.9454 0.519779 -5
      vertex 39.2161 1.01684 -5
    endloop
  endfacet
  facet normal 0 0 -1
    outer loop
      vertex 32.7839 1.01684 -5
      vertex 39.2161 1.01684 -5
      vertex 32.9454 0.519779 -5
    endloop
  endfacet
  facet normal 0 0 -1
    outer loop
      vertex 39.2161 1.01684 -5
      vertex 32.7839 1.01684 -5
      vertex 39.4775 1.46946 -5
    endloop
  endfacet
  facet normal 0 0 -1
    outer loop
      vertex 32.5225 1.46946 -5
      vertex 39.4775 1.46946 -5
      vertex 32.7839 1.01684 -5
    endloop
  endfacet
  facet normal 0 0 -1
    outer loop
      vertex 39.4775 1.46946 -5
      vertex 32.5225 1.46946 -5
      vertex 39.8272 1.85786 -5
    endloop
  endfacet
  facet normal 0 0 -1
    outer loop
      vertex 32.1728 1.85786 -5
      vertex 39.8272 1.85786 -5
      vertex 32.5225 1.46946 -5
    endloop
  endfacet
  facet normal 0 0 -1
    outer loop
      vertex 39.8272 1.85786 -5
      vertex 32.1728 1.85786 -5
      vertex 40.25 2.16506 -5
    endloop
  endfacet
  facet normal 0 0 -1
    outer loop
      vertex 31.75 2.16506 -5
      vertex 40.25 2.16506 -5
      vertex 32.1728 1.85786 -5
    endloop
  endfacet
  facet normal 0 0 -1
    outer loop
      vertex 40.25 2.16506 -5
      vertex 31.75 2.16506 -5
      vertex 40.7275 2.37764 -5
    endloop
  endfacet
  facet normal 0 0 -1
    outer loop
      vertex 31.2725 2.37764 -5
      vertex 40.7275 2.37764 -5
      vertex 31.75 2.16506 -5
    endloop
  endfacet
  facet normal 0 0 -1
    outer loop
      vertex 40.7275 2.37764 -5
      vertex 31.2725 2.37764 -5
      vertex 45.2091 3.98904 -5
    endloop
  endfacet
  facet normal 0 0 -1
    outer loop
      vertex 30.7613 2.4863 -5
      vertex 45.2091 3.98904 -5
      vertex 31.2725 2.37764 -5
    endloop
  endfacet
  facet normal 0 0 -1
    outer loop
      vertex 30.2387 2.4863 -5
      vertex 45.2091 3.98904 -5
      vertex 30.7613 2.4863 -5
    endloop
  endfacet
  facet normal 0 0 -1
    outer loop
      vertex 22 0 -5
      vertex 28.0546 0.519779 -5
      vertex 28 0 -5
    endloop
  endfacet
  facet normal 0 0 -1
    outer loop
      vertex 21.9454 0.519779 -5
      vertex 28.0546 0.519779 -5
      vertex 22 0 -5
    endloop
  endfacet
  facet normal 0 0 -1
    outer loop
      vertex 28.0546 0.519779 -5
      vertex 21.9454 0.519779 -5
      vertex 28.2161 1.01684 -5
    endloop
  endfacet
  facet normal 0 0 -1
    outer loop
      vertex 21.7839 1.01684 -5
      vertex 28.2161 1.01684 -5
      vertex 21.9454 0.519779 -5
    endloop
  endfacet
  facet normal 0 0 -1
    outer loop
      vertex 28.2161 1.01684 -5
      vertex 21.7839 1.01684 -5
      vertex 28.4775 1.46946 -5
    endloop
  endfacet
  facet normal 0 0 -1
    outer loop
      vertex 21.5225 1.46946 -5
      vertex 28.4775 1.46946 -5
      vertex 21.7839 1.01684 -5
    endloop
  endfacet
  facet normal 0 0 -1
    outer loop
      vertex 28.4775 1.46946 -5
      vertex 21.5225 1.46946 -5
      vertex 28.8272 1.85786 -5
    endloop
  endfacet
  facet normal 0 0 -1
    outer loop
      vertex 21.1728 1.85786 -5
      vertex 28.8272 1.85786 -5
      vertex 21.5225 1.46946 -5
    endloop
  endfacet
  facet normal 0 0 -1
    outer loop
      vertex 28.8272 1.85786 -5
      vertex 21.1728 1.85786 -5
      vertex 29.25 2.16506 -5
    endloop
  endfacet
  facet normal 0 0 -1
    outer loop
      vertex 20.75 2.16506 -5
      vertex 29.25 2.16506 -5
      vertex 21.1728 1.85786 -5
    endloop
  endfacet
  facet normal 0 0 -1
    outer loop
      vertex 29.25 2.16506 -5
      vertex 20.75 2.16506 -5
      vertex 29.7275 2.37764 -5
    endloop
  endfacet
  facet normal 0 0 -1
    outer loop
      vertex 20.2725 2.37764 -5
      vertex 29.7275 2.37764 -5
      vertex 20.75 2.16506 -5
    endloop
  endfacet
  facet normal 0 0 -1
    outer loop
      vertex 29.7275 2.37764 -5
      vertex 20.2725 2.37764 -5
      vertex 30.2387 2.4863 -5
    endloop
  endfacet
  facet normal 0 0 -1
    outer loop
      vertex 19.7613 2.4863 -5
      vertex 30.2387 2.4863 -5
      vertex 20.2725 2.37764 -5
    endloop
  endfacet
  facet normal 0 0 -1
    outer loop
      vertex 30.2387 2.4863 -5
      vertex 19.7613 2.4863 -5
      vertex 45.2091 3.98904 -5
    endloop
  endfacet
  facet normal 0 0 -1
    outer loop
      vertex -0.209057 3.98904 -5
      vertex 19.7613 2.4863 -5
      vertex 19.2387 2.4863 -5
    endloop
  endfacet
  facet normal 0 0 -1
    outer loop
      vertex 11 0 -5
      vertex 17.0546 0.519779 -5
      vertex 17 0 -5
    endloop
  endfacet
  facet normal 0 0 -1
    outer loop
      vertex 10.9454 0.519779 -5
      vertex 17.0546 0.519779 -5
      vertex 11 0 -5
    endloop
  endfacet
  facet normal 0 0 -1
    outer loop
      vertex 17.0546 0.519779 -5
      vertex 10.9454 0.519779 -5
      vertex 17.2161 1.01684 -5
    endloop
  endfacet
  facet normal 0 0 -1
    outer loop
      vertex 10.7839 1.01684 -5
      vertex 17.2161 1.01684 -5
      vertex 10.9454 0.519779 -5
    endloop
  endfacet
  facet normal 0 0 -1
    outer loop
      vertex 17.2161 1.01684 -5
      vertex 10.7839 1.01684 -5
      vertex 17.4775 1.46946 -5
    endloop
  endfacet
  facet normal 0 0 -1
    outer loop
      vertex 10.5225 1.46946 -5
      vertex 17.4775 1.46946 -5
      vertex 10.7839 1.01684 -5
    endloop
  endfacet
  facet normal 0 0 -1
    outer loop
      vertex 17.4775 1.46946 -5
      vertex 10.5225 1.46946 -5
      vertex 17.8272 1.85786 -5
    endloop
  endfacet
  facet normal 0 0 -1
    outer loop
      vertex 10.1728 1.85786 -5
      vertex 17.8272 1.85786 -5
      vertex 10.5225 1.46946 -5
    endloop
  endfacet
  facet normal 0 0 -1
    outer loop
      vertex 17.8272 1.85786 -5
      vertex 10.1728 1.85786 -5
      vertex 18.25 2.16506 -5
    endloop
  endfacet
  facet normal 0 0 -1
    outer loop
      vertex 9.75 2.16506 -5
      vertex 18.25 2.16506 -5
      vertex 10.1728 1.85786 -5
    endloop
  endfacet
  facet normal 0 0 -1
    outer loop
      vertex 18.25 2.16506 -5
      vertex 9.75 2.16506 -5
      vertex 18.7275 2.37764 -5
    endloop
  endfacet
  facet normal 0 0 -1
    outer loop
      vertex 9.27254 2.37764 -5
      vertex 18.7275 2.37764 -5
      vertex 9.75 2.16506 -5
    endloop
  endfacet
  facet normal 0 0 -1
    outer loop
      vertex 18.7275 2.37764 -5
      vertex 9.27254 2.37764 -5
      vertex 19.2387 2.4863 -5
    endloop
  endfacet
  facet normal 0 0 -1
    outer loop
      vertex 8.76132 2.4863 -5
      vertex 19.2387 2.4863 -5
      vertex 9.27254 2.37764 -5
    endloop
  endfacet
  facet normal 0 0 -1
    outer loop
      vertex -0.209057 3.98904 -5
      vertex 19.2387 2.4863 -5
      vertex 8.76132 2.4863 -5
    endloop
  endfacet
  facet normal 0 0 -1
    outer loop
      vertex -0.209057 3.98904 -5
      vertex 8.76132 2.4863 -5
      vertex 8.23868 2.4863 -5
    endloop
  endfacet
  facet normal 0 0 -1
    outer loop
      vertex -2 -2 -5
      vertex 6 0 -5
      vertex -0.209057 -3.98904 -5
    endloop
  endfacet
  facet normal 0 0 -1
    outer loop
      vertex -2 2 -5
      vertex 6 0 -5
      vertex -2 -2 -5
    endloop
  endfacet
  facet normal 0 -0 -1
    outer loop
      vertex -0.209057 3.98904 -5
      vertex 6 0 -5
      vertex -2 2 -5
    endloop
  endfacet
  facet normal 0 0 -1
    outer loop
      vertex 6 0 -5
      vertex -0.209057 3.98904 -5
      vertex 6.05463 0.519779 -5
    endloop
  endfacet
  facet normal 0 0 -1
    outer loop
      vertex 19.7613 2.4863 -5
      vertex -0.209057 3.98904 -5
      vertex 45.2091 3.98904 -5
    endloop
  endfacet
  facet normal 0 0 -1
    outer loop
      vertex 7.72746 2.37764 -5
      vertex -0.209057 3.98904 -5
      vertex 8.23868 2.4863 -5
    endloop
  endfacet
  facet normal 0 0 -1
    outer loop
      vertex 7.25 2.16506 -5
      vertex -0.209057 3.98904 -5
      vertex 7.72746 2.37764 -5
    endloop
  endfacet
  facet normal 0 0 -1
    outer loop
      vertex 6.82717 1.85786 -5
      vertex -0.209057 3.98904 -5
      vertex 7.25 2.16506 -5
    endloop
  endfacet
  facet normal 0 0 -1
    outer loop
      vertex 6.47746 1.46946 -5
      vertex -0.209057 3.98904 -5
      vertex 6.82717 1.85786 -5
    endloop
  endfacet
  facet normal 0 0 -1
    outer loop
      vertex -2 -2 -5
      vertex -0.209057 -3.98904 -5
      vertex -0.618033 -3.90211 -5
    endloop
  endfacet
  facet normal 0 0 -1
    outer loop
      vertex 6.05463 0.519779 -5
      vertex -0.209057 3.98904 -5
      vertex 6.21614 1.01684 -5
    endloop
  endfacet
  facet normal 0 0 -1
    outer loop
      vertex -0.209057 3.98904 -5
      vertex -2 2 -5
      vertex -0.618033 3.90211 -5
    endloop
  endfacet
  facet normal 0 0 -1
    outer loop
      vertex -2 -2 -5
      vertex -0.618033 -3.90211 -5
      vertex -1 -3.73205 -5
    endloop
  endfacet
  facet normal 0 0 -1
    outer loop
      vertex -2 -2 -5
      vertex -1 -3.73205 -5
      vertex -1.33826 -3.48629 -5
    endloop
  endfacet
  facet normal 0 0 -1
    outer loop
      vertex 6.21614 1.01684 -5
      vertex -0.209057 3.98904 -5
      vertex 6.47746 1.46946 -5
    endloop
  endfacet
  facet normal 0 0 -1
    outer loop
      vertex -2 -2 -5
      vertex -1.33826 -3.48629 -5
      vertex -1.61803 -3.17557 -5
    endloop
  endfacet
  facet normal 0 0 -1
    outer loop
      vertex -0.618033 3.90211 -5
      vertex -2 2 -5
      vertex -0.999999 3.73205 -5
    endloop
  endfacet
  facet normal 0 0 -1
    outer loop
      vertex -2 -2 -5
      vertex -1.61803 -3.17557 -5
      vertex -1.82709 -2.81347 -5
    endloop
  endfacet
  facet normal 0 0 -1
    outer loop
      vertex -0.999999 3.73205 -5
      vertex -2 2 -5
      vertex -1.33826 3.48629 -5
    endloop
  endfacet
  facet normal 0 0 -1
    outer loop
      vertex -2 -2 -5
      vertex -1.82709 -2.81347 -5
      vertex -1.9563 -2.41582 -5
    endloop
  endfacet
  facet normal 0 0 -1
    outer loop
      vertex -1.33826 3.48629 -5
      vertex -2 2 -5
      vertex -1.61803 3.17557 -5
    endloop
  endfacet
  facet normal 0 0 -1
    outer loop
      vertex -1.61803 3.17557 -5
      vertex -2 2 -5
      vertex -1.82709 2.81347 -5
    endloop
  endfacet
  facet normal 0 0 -1
    outer loop
      vertex -1.82709 2.81347 -5
      vertex -2 2 -5
      vertex -1.9563 2.41582 -5
    endloop
  endfacet
  facet normal -1 0 0
    outer loop
      vertex -2 -2 -5
      vertex -2 2 5
      vertex -2 2 -5
    endloop
  endfacet
  facet normal -1 -0 0
    outer loop
      vertex -2 2 5
      vertex -2 -2 -5
      vertex -2 -2 5
    endloop
  endfacet
  facet normal -0.994522 -0.104529 0
    outer loop
      vertex -1.9563 -2.41582 -5
      vertex -2 -2 5
      vertex -2 -2 -5
    endloop
  endfacet
  facet normal -0.994522 -0.104529 0
    outer loop
      vertex -2 -2 5
      vertex -1.9563 -2.41582 -5
      vertex -1.9563 -2.41582 5
    endloop
  endfacet
  facet normal 0 -1 0
    outer loop
      vertex -0.209057 -3.98904 -5
      vertex 45.2091 -3.98904 5
      vertex -0.209057 -3.98904 5
    endloop
  endfacet
  facet normal 0 -1 -0
    outer loop
      vertex 45.2091 -3.98904 5
      vertex -0.209057 -3.98904 -5
      vertex 45.2091 -3.98904 -5
    endloop
  endfacet
  facet normal 0.994522 -0.104529 0
    outer loop
      vertex 46.9563 -2.41582 5
      vertex 47 -2 -5
      vertex 47 -2 5
    endloop
  endfacet
  facet normal 0.994522 -0.104529 0
    outer loop
      vertex 47 -2 -5
      vertex 46.9563 -2.41582 5
      vertex 46.9563 -2.41582 -5
    endloop
  endfacet
  facet normal 0 1 -0
    outer loop
      vertex 45.2091 3.98904 -5
      vertex -0.209057 3.98904 5
      vertex 45.2091 3.98904 5
    endloop
  endfacet
  facet normal 0 1 0
    outer loop
      vertex -0.209057 3.98904 5
      vertex 45.2091 3.98904 -5
      vertex -0.209057 3.98904 -5
    endloop
  endfacet
  facet normal -0.994522 0.104529 0
    outer loop
      vertex -2 2 -5
      vertex -1.9563 2.41582 5
      vertex -1.9563 2.41582 -5
    endloop
  endfacet
  facet normal -0.994522 0.104529 0
    outer loop
      vertex -1.9563 2.41582 5
      vertex -2 2 -5
      vertex -2 2 5
    endloop
  endfacet
  facet normal -0.951056 0.309018 0
    outer loop
      vertex -1.9563 2.41582 -5
      vertex -1.82709 2.81347 5
      vertex -1.82709 2.81347 -5
    endloop
  endfacet
  facet normal -0.951056 0.309018 0
    outer loop
      vertex -1.82709 2.81347 5
      vertex -1.9563 2.41582 -5
      vertex -1.9563 2.41582 5
    endloop
  endfacet
  facet normal 0.743143 -0.669133 0
    outer loop
      vertex 46.3383 -3.48629 5
      vertex 46.618 -3.17557 -5
      vertex 46.618 -3.17557 5
    endloop
  endfacet
  facet normal 0.743143 -0.669133 0
    outer loop
      vertex 46.618 -3.17557 -5
      vertex 46.3383 -3.48629 5
      vertex 46.3383 -3.48629 -5
    endloop
  endfacet
  facet normal 0.866026 -0.499999 0
    outer loop
      vertex 46.618 -3.17557 5
      vertex 46.8271 -2.81347 -5
      vertex 46.8271 -2.81347 5
    endloop
  endfacet
  facet normal 0.866026 -0.499999 0
    outer loop
      vertex 46.8271 -2.81347 -5
      vertex 46.618 -3.17557 5
      vertex 46.618 -3.17557 -5
    endloop
  endfacet
  facet normal 0.20791 -0.978148 0
    outer loop
      vertex 45.2091 -3.98904 -5
      vertex 45.618 -3.90211 5
      vertex 45.2091 -3.98904 5
    endloop
  endfacet
  facet normal 0.20791 -0.978148 0
    outer loop
      vertex 45.618 -3.90211 5
      vertex 45.2091 -3.98904 -5
      vertex 45.618 -3.90211 -5
    endloop
  endfacet
  facet normal 1 -0 0
    outer loop
      vertex 47 -2 5
      vertex 47 2 -5
      vertex 47 2 5
    endloop
  endfacet
  facet normal 1 0 0
    outer loop
      vertex 47 2 -5
      vertex 47 -2 5
      vertex 47 -2 -5
    endloop
  endfacet
  facet normal -0.951056 -0.309018 0
    outer loop
      vertex -1.82709 -2.81347 -5
      vertex -1.9563 -2.41582 5
      vertex -1.9563 -2.41582 -5
    endloop
  endfacet
  facet normal -0.951056 -0.309018 0
    outer loop
      vertex -1.9563 -2.41582 5
      vertex -1.82709 -2.81347 -5
      vertex -1.82709 -2.81347 5
    endloop
  endfacet
  facet normal 0 0 1
    outer loop
      vertex 43.7839 1.01684 5
      vertex 47 2 5
      vertex 46.9563 2.41582 5
    endloop
  endfacet
  facet normal 0 0 1
    outer loop
      vertex 47 2 5
      vertex 44 0 5
      vertex 47 -2 5
    endloop
  endfacet
  facet normal 0 0 1
    outer loop
      vertex 43.7839 1.01684 5
      vertex 46.9563 2.41582 5
      vertex 46.8271 2.81347 5
    endloop
  endfacet
  facet normal -0 0 1
    outer loop
      vertex 43.9454 -0.519779 5
      vertex 47 -2 5
      vertex 44 0 5
    endloop
  endfacet
  facet normal 0 0 1
    outer loop
      vertex 43.7839 1.01684 5
      vertex 46.8271 2.81347 5
      vertex 46.618 3.17557 5
    endloop
  endfacet
  facet normal -0 0 1
    outer loop
      vertex 43.7839 -1.01684 5
      vertex 47 -2 5
      vertex 43.9454 -0.519779 5
    endloop
  endfacet
  facet normal 0 0 1
    outer loop
      vertex 43.5225 1.46946 5
      vertex 46.618 3.17557 5
      vertex 46.3383 3.48629 5
    endloop
  endfacet
  facet normal 0 0 1
    outer loop
      vertex 47 -2 5
      vertex 43.7839 -1.01684 5
      vertex 46.9563 -2.41582 5
    endloop
  endfacet
  facet normal 0 0 1
    outer loop
      vertex 43.5225 1.46946 5
      vertex 46.3383 3.48629 5
      vertex 46 3.73205 5
    endloop
  endfacet
  facet normal 0 0 1
    outer loop
      vertex 46.9563 -2.41582 5
      vertex 43.7839 -1.01684 5
      vertex 46.8271 -2.81347 5
    endloop
  endfacet
  facet normal 0 0 1
    outer loop
      vertex 43.5225 1.46946 5
      vertex 46 3.73205 5
      vertex 45.618 3.90211 5
    endloop
  endfacet
  facet normal 0 0 1
    outer loop
      vertex 46.8271 -2.81347 5
      vertex 43.7839 -1.01684 5
      vertex 46.618 -3.17557 5
    endloop
  endfacet
  facet normal 0 0 1
    outer loop
      vertex 43.5225 1.46946 5
      vertex 45.618 3.90211 5
      vertex 45.2091 3.98904 5
    endloop
  endfacet
  facet normal -0 0 1
    outer loop
      vertex 43.5225 -1.46946 5
      vertex 46.618 -3.17557 5
      vertex 43.7839 -1.01684 5
    endloop
  endfacet
  facet normal 0 0 1
    outer loop
      vertex 46.618 -3.17557 5
      vertex 43.5225 -1.46946 5
      vertex 46.3383 -3.48629 5
    endloop
  endfacet
  facet normal 0 0 1
    outer loop
      vertex 47 2 5
      vertex 43.9454 0.519779 5
      vertex 44 0 5
    endloop
  endfacet
  facet normal 0 0 1
    outer loop
      vertex 47 2 5
      vertex 43.7839 1.01684 5
      vertex 43.9454 0.519779 5
    endloop
  endfacet
  facet normal 0 0 1
    outer loop
      vertex 46.618 3.17557 5
      vertex 43.5225 1.46946 5
      vertex 43.7839 1.01684 5
    endloop
  endfacet
  facet normal 0 0 1
    outer loop
      vertex 45.2091 3.98904 5
      vertex 43.1728 1.85786 5
      vertex 43.5225 1.46946 5
    endloop
  endfacet
  facet normal 0 0 1
    outer loop
      vertex 45.2091 3.98904 5
      vertex 42.75 2.16506 5
      vertex 43.1728 1.85786 5
    endloop
  endfacet
  facet normal 0 0 1
    outer loop
      vertex 45.2091 3.98904 5
      vertex 42.2725 2.37764 5
      vertex 42.75 2.16506 5
    endloop
  endfacet
  facet normal 0 0 1
    outer loop
      vertex 45.2091 3.98904 5
      vertex 41.7613 2.4863 5
      vertex 42.2725 2.37764 5
    endloop
  endfacet
  facet normal 0 0 1
    outer loop
      vertex 45.2091 3.98904 5
      vertex 41.2387 2.4863 5
      vertex 41.7613 2.4863 5
    endloop
  endfacet
  facet normal 0 0 1
    outer loop
      vertex 45.2091 3.98904 5
      vertex 40.7275 2.37764 5
      vertex 41.2387 2.4863 5
    endloop
  endfacet
  facet normal 0 0 1
    outer loop
      vertex 39.0546 0.519779 5
      vertex 33 0 5
      vertex 39 0 5
    endloop
  endfacet
  facet normal 0 0 1
    outer loop
      vertex 32.9454 0.519779 5
      vertex 39.0546 0.519779 5
      vertex 39.2161 1.01684 5
    endloop
  endfacet
  facet normal 0 0 1
    outer loop
      vertex 32.7839 1.01684 5
      vertex 39.2161 1.01684 5
      vertex 39.4775 1.46946 5
    endloop
  endfacet
  facet normal 0 0 1
    outer loop
      vertex 32.5225 1.46946 5
      vertex 39.4775 1.46946 5
      vertex 39.8272 1.85786 5
    endloop
  endfacet
  facet normal 0 0 1
    outer loop
      vertex 32.1728 1.85786 5
      vertex 39.8272 1.85786 5
      vertex 40.25 2.16506 5
    endloop
  endfacet
  facet normal 0 0 1
    outer loop
      vertex 31.75 2.16506 5
      vertex 40.25 2.16506 5
      vertex 40.7275 2.37764 5
    endloop
  endfacet
  facet normal 0 0 1
    outer loop
      vertex 31.2725 2.37764 5
      vertex 40.7275 2.37764 5
      vertex 45.2091 3.98904 5
    endloop
  endfacet
  facet normal 0 0 1
    outer loop
      vertex 39.0546 0.519779 5
      vertex 32.9454 0.519779 5
      vertex 33 0 5
    endloop
  endfacet
  facet normal 0 0 1
    outer loop
      vertex 39.2161 1.01684 5
      vertex 32.7839 1.01684 5
      vertex 32.9454 0.519779 5
    endloop
  endfacet
  facet normal 0 0 1
    outer loop
      vertex 39.4775 1.46946 5
      vertex 32.5225 1.46946 5
      vertex 32.7839 1.01684 5
    endloop
  endfacet
  facet normal 0 0 1
    outer loop
      vertex 39.8272 1.85786 5
      vertex 32.1728 1.85786 5
      vertex 32.5225 1.46946 5
    endloop
  endfacet
  facet normal 0 0 1
    outer loop
      vertex 40.25 2.16506 5
      vertex 31.75 2.16506 5
      vertex 32.1728 1.85786 5
    endloop
  endfacet
  facet normal 0 0 1
    outer loop
      vertex 40.7275 2.37764 5
      vertex 31.2725 2.37764 5
      vertex 31.75 2.16506 5
    endloop
  endfacet
  facet normal 0 0 1
    outer loop
      vertex 45.2091 3.98904 5
      vertex 30.7613 2.4863 5
      vertex 31.2725 2.37764 5
    endloop
  endfacet
  facet normal 0 0 1
    outer loop
      vertex 45.2091 3.98904 5
      vertex 30.2387 2.4863 5
      vertex 30.7613 2.4863 5
    endloop
  endfacet
  facet normal 0 0 1
    outer loop
      vertex 28.0546 0.519779 5
      vertex 22 0 5
      vertex 28 0 5
    endloop
  endfacet
  facet normal 0 0 1
    outer loop
      vertex 21.9454 0.519779 5
      vertex 28.0546 0.519779 5
      vertex 28.2161 1.01684 5
    endloop
  endfacet
  facet normal 0 0 1
    outer loop
      vertex 21.7839 1.01684 5
      vertex 28.2161 1.01684 5
      vertex 28.4775 1.46946 5
    endloop
  endfacet
  facet normal 0 0 1
    outer loop
      vertex 21.5225 1.46946 5
      vertex 28.4775 1.46946 5
      vertex 28.8272 1.85786 5
    endloop
  endfacet
  facet normal 0 0 1
    outer loop
      vertex 21.1728 1.85786 5
      vertex 28.8272 1.85786 5
      vertex 29.25 2.16506 5
    endloop
  endfacet
  facet normal 0 0 1
    outer loop
      vertex 20.75 2.16506 5
      vertex 29.25 2.16506 5
      vertex 29.7275 2.37764 5
    endloop
  endfacet
  facet normal 0 0 1
    outer loop
      vertex 28.0546 0.519779 5
      vertex 21.9454 0.519779 5
      vertex 22 0 5
    endloop
  endfacet
  facet normal 0 0 1
    outer loop
      vertex 28.2161 1.01684 5
      vertex 21.7839 1.01684 5
      vertex 21.9454 0.519779 5
    endloop
  endfacet
  facet normal 0 0 1
    outer loop
      vertex 20.2725 2.37764 5
      vertex 29.7275 2.37764 5
      vertex 30.2387 2.4863 5
    endloop
  endfacet
  facet normal 0 0 1
    outer loop
      vertex 28.4775 1.46946 5
      vertex 21.5225 1.46946 5
      vertex 21.7839 1.01684 5
    endloop
  endfacet
  facet normal 0 0 1
    outer loop
      vertex 28.8272 1.85786 5
      vertex 21.1728 1.85786 5
      vertex 21.5225 1.46946 5
    endloop
  endfacet
  facet normal 0 0 1
    outer loop
      vertex 19.7613 2.4863 5
      vertex 30.2387 2.4863 5
      vertex 45.2091 3.98904 5
    endloop
  endfacet
  facet normal 0 0 1
    outer loop
      vertex 29.25 2.16506 5
      vertex 20.75 2.16506 5
      vertex 21.1728 1.85786 5
    endloop
  endfacet
  facet normal 0 0 1
    outer loop
      vertex 29.7275 2.37764 5
      vertex 20.2725 2.37764 5
      vertex 20.75 2.16506 5
    endloop
  endfacet
  facet normal 0 0 1
    outer loop
      vertex 30.2387 2.4863 5
      vertex 19.7613 2.4863 5
      vertex 20.2725 2.37764 5
    endloop
  endfacet
  facet normal -0 0 1
    outer loop
      vertex -0.209057 3.98904 5
      vertex 19.7613 2.4863 5
      vertex 45.2091 3.98904 5
    endloop
  endfacet
  facet normal 0 0 1
    outer loop
      vertex 17.0546 0.519779 5
      vertex 11 0 5
      vertex 17 0 5
    endloop
  endfacet
  facet normal 0 0 1
    outer loop
      vertex 10.9454 0.519779 5
      vertex 17.0546 0.519779 5
      vertex 17.2161 1.01684 5
    endloop
  endfacet
  facet normal 0 0 1
    outer loop
      vertex 10.7839 1.01684 5
      vertex 17.2161 1.01684 5
      vertex 17.4775 1.46946 5
    endloop
  endfacet
  facet normal 0 0 1
    outer loop
      vertex 10.5225 1.46946 5
      vertex 17.4775 1.46946 5
      vertex 17.8272 1.85786 5
    endloop
  endfacet
  facet normal 0 0 1
    outer loop
      vertex 10.1728 1.85786 5
      vertex 17.8272 1.85786 5
      vertex 18.25 2.16506 5
    endloop
  endfacet
  facet normal 0 0 1
    outer loop
      vertex 9.75 2.16506 5
      vertex 18.25 2.16506 5
      vertex 18.7275 2.37764 5
    endloop
  endfacet
  facet normal 0 0 1
    outer loop
      vertex 17.0546 0.519779 5
      vertex 10.9454 0.519779 5
      vertex 11 0 5
    endloop
  endfacet
  facet normal 0 0 1
    outer loop
      vertex 17.2161 1.01684 5
      vertex 10.7839 1.01684 5
      vertex 10.9454 0.519779 5
    endloop
  endfacet
  facet normal 0 0 1
    outer loop
      vertex 9.27254 2.37764 5
      vertex 18.7275 2.37764 5
      vertex 19.2387 2.4863 5
    endloop
  endfacet
  facet normal 0 0 1
    outer loop
      vertex 17.4775 1.46946 5
      vertex 10.5225 1.46946 5
      vertex 10.7839 1.01684 5
    endloop
  endfacet
  facet normal 0 0 1
    outer loop
      vertex 17.8272 1.85786 5
      vertex 10.1728 1.85786 5
      vertex 10.5225 1.46946 5
    endloop
  endfacet
  facet normal 0 0 1
    outer loop
      vertex 18.25 2.16506 5
      vertex 9.75 2.16506 5
      vertex 10.1728 1.85786 5
    endloop
  endfacet
  facet normal 0 0 1
    outer loop
      vertex 19.7613 2.4863 5
      vertex -0.209057 3.98904 5
      vertex 19.2387 2.4863 5
    endloop
  endfacet
  facet normal 0 0 1
    outer loop
      vertex 18.7275 2.37764 5
      vertex 9.27254 2.37764 5
      vertex 9.75 2.16506 5
    endloop
  endfacet
  facet normal 0 0 1
    outer loop
      vertex 19.2387 2.4863 5
      vertex 8.76132 2.4863 5
      vertex 9.27254 2.37764 5
    endloop
  endfacet
  facet normal 0 0 1
    outer loop
      vertex 19.2387 2.4863 5
      vertex -0.209057 3.98904 5
      vertex 8.76132 2.4863 5
    endloop
  endfacet
  facet normal 0 0 1
    outer loop
      vertex 6.05463 0.519779 5
      vertex -0.209057 3.98904 5
      vertex 6 0 5
    endloop
  endfacet
  facet normal 0 0 1
    outer loop
      vertex 6.21614 1.01684 5
      vertex -0.209057 3.98904 5
      vertex 6.05463 0.519779 5
    endloop
  endfacet
  facet normal 0 0 1
    outer loop
      vertex 6.47746 1.46946 5
      vertex -0.209057 3.98904 5
      vertex 6.21614 1.01684 5
    endloop
  endfacet
  facet normal 0 0 1
    outer loop
      vertex 6.82717 1.85786 5
      vertex -0.209057 3.98904 5
      vertex 6.47746 1.46946 5
    endloop
  endfacet
  facet normal 0 0 1
    outer loop
      vertex 7.25 2.16506 5
      vertex -0.209057 3.98904 5
      vertex 6.82717 1.85786 5
    endloop
  endfacet
  facet normal 0 0 1
    outer loop
      vertex 7.72746 2.37764 5
      vertex -0.209057 3.98904 5
      vertex 7.25 2.16506 5
    endloop
  endfacet
  facet normal 0 0 1
    outer loop
      vertex 8.23868 2.4863 5
      vertex -0.209057 3.98904 5
      vertex 7.72746 2.37764 5
    endloop
  endfacet
  facet normal 0 0 1
    outer loop
      vertex 8.76132 2.4863 5
      vertex -0.209057 3.98904 5
      vertex 8.23868 2.4863 5
    endloop
  endfacet
  facet normal 0 0 1
    outer loop
      vertex 46.3383 -3.48629 5
      vertex 43.5225 -1.46946 5
      vertex 46 -3.73205 5
    endloop
  endfacet
  facet normal 0 0 1
    outer loop
      vertex 46 -3.73205 5
      vertex 43.5225 -1.46946 5
      vertex 45.618 -3.90211 5
    endloop
  endfacet
  facet normal 0 0 1
    outer loop
      vertex 45.618 -3.90211 5
      vertex 43.5225 -1.46946 5
      vertex 45.2091 -3.98904 5
    endloop
  endfacet
  facet normal -0 0 1
    outer loop
      vertex 43.1728 -1.85786 5
      vertex 45.2091 -3.98904 5
      vertex 43.5225 -1.46946 5
    endloop
  endfacet
  facet normal -0 0 1
    outer loop
      vertex 42.75 -2.16506 5
      vertex 45.2091 -3.98904 5
      vertex 43.1728 -1.85786 5
    endloop
  endfacet
  facet normal -0 0 1
    outer loop
      vertex 42.2725 -2.37764 5
      vertex 45.2091 -3.98904 5
      vertex 42.75 -2.16506 5
    endloop
  endfacet
  facet normal -0 0 1
    outer loop
      vertex 41.7613 -2.4863 5
      vertex 45.2091 -3.98904 5
      vertex 42.2725 -2.37764 5
    endloop
  endfacet
  facet normal -0 0 1
    outer loop
      vertex 41.2387 -2.4863 5
      vertex 45.2091 -3.98904 5
      vertex 41.7613 -2.4863 5
    endloop
  endfacet
  facet normal 0 0 1
    outer loop
      vertex 40.7275 -2.37764 5
      vertex 45.2091 -3.98904 5
      vertex 41.2387 -2.4863 5
    endloop
  endfacet
  facet normal -0 0 1
    outer loop
      vertex 33 0 5
      vertex 39.0546 -0.519779 5
      vertex 39 0 5
    endloop
  endfacet
  facet normal 0 0 1
    outer loop
      vertex 32.9454 -0.519779 5
      vertex 39.0546 -0.519779 5
      vertex 33 0 5
    endloop
  endfacet
  facet normal 0 0 1
    outer loop
      vertex 39.0546 -0.519779 5
      vertex 32.9454 -0.519779 5
      vertex 39.2161 -1.01684 5
    endloop
  endfacet
  facet normal 0 0 1
    outer loop
      vertex 32.7839 -1.01684 5
      vertex 39.2161 -1.01684 5
      vertex 32.9454 -0.519779 5
    endloop
  endfacet
  facet normal 0 0 1
    outer loop
      vertex 39.2161 -1.01684 5
      vertex 32.7839 -1.01684 5
      vertex 39.4775 -1.46946 5
    endloop
  endfacet
  facet normal 0 0 1
    outer loop
      vertex 32.5225 -1.46946 5
      vertex 39.4775 -1.46946 5
      vertex 32.7839 -1.01684 5
    endloop
  endfacet
  facet normal 0 0 1
    outer loop
      vertex 39.4775 -1.46946 5
      vertex 32.5225 -1.46946 5
      vertex 39.8272 -1.85786 5
    endloop
  endfacet
  facet normal 0 0 1
    outer loop
      vertex 32.1728 -1.85786 5
      vertex 39.8272 -1.85786 5
      vertex 32.5225 -1.46946 5
    endloop
  endfacet
  facet normal 0 0 1
    outer loop
      vertex 39.8272 -1.85786 5
      vertex 32.1728 -1.85786 5
      vertex 40.25 -2.16506 5
    endloop
  endfacet
  facet normal 0 0 1
    outer loop
      vertex 31.75 -2.16506 5
      vertex 40.25 -2.16506 5
      vertex 32.1728 -1.85786 5
    endloop
  endfacet
  facet normal 0 0 1
    outer loop
      vertex 40.25 -2.16506 5
      vertex 31.75 -2.16506 5
      vertex 40.7275 -2.37764 5
    endloop
  endfacet
  facet normal 0 0 1
    outer loop
      vertex 31.2725 -2.37764 5
      vertex 40.7275 -2.37764 5
      vertex 31.75 -2.16506 5
    endloop
  endfacet
  facet normal 0 0 1
    outer loop
      vertex 40.7275 -2.37764 5
      vertex 31.2725 -2.37764 5
      vertex 45.2091 -3.98904 5
    endloop
  endfacet
  facet normal -0 0 1
    outer loop
      vertex 30.7613 -2.4863 5
      vertex 45.2091 -3.98904 5
      vertex 31.2725 -2.37764 5
    endloop
  endfacet
  facet normal -0 0 1
    outer loop
      vertex 30.2387 -2.4863 5
      vertex 45.2091 -3.98904 5
      vertex 30.7613 -2.4863 5
    endloop
  endfacet
  facet normal -0 0 1
    outer loop
      vertex 22 0 5
      vertex 28.0546 -0.519779 5
      vertex 28 0 5
    endloop
  endfacet
  facet normal 0 0 1
    outer loop
      vertex 21.9454 -0.519779 5
      vertex 28.0546 -0.519779 5
      vertex 22 0 5
    endloop
  endfacet
  facet normal 0 0 1
    outer loop
      vertex 28.0546 -0.519779 5
      vertex 21.9454 -0.519779 5
      vertex 28.2161 -1.01684 5
    endloop
  endfacet
  facet normal 0 0 1
    outer loop
      vertex 21.7839 -1.01684 5
      vertex 28.2161 -1.01684 5
      vertex 21.9454 -0.519779 5
    endloop
  endfacet
  facet normal 0 0 1
    outer loop
      vertex 28.2161 -1.01684 5
      vertex 21.7839 -1.01684 5
      vertex 28.4775 -1.46946 5
    endloop
  endfacet
  facet normal 0 0 1
    outer loop
      vertex 21.5225 -1.46946 5
      vertex 28.4775 -1.46946 5
      vertex 21.7839 -1.01684 5
    endloop
  endfacet
  facet normal 0 0 1
    outer loop
      vertex 28.4775 -1.46946 5
      vertex 21.5225 -1.46946 5
      vertex 28.8272 -1.85786 5
    endloop
  endfacet
  facet normal 0 0 1
    outer loop
      vertex 21.1728 -1.85786 5
      vertex 28.8272 -1.85786 5
      vertex 21.5225 -1.46946 5
    endloop
  endfacet
  facet normal 0 0 1
    outer loop
      vertex 28.8272 -1.85786 5
      vertex 21.1728 -1.85786 5
      vertex 29.25 -2.16506 5
    endloop
  endfacet
  facet normal 0 0 1
    outer loop
      vertex 20.75 -2.16506 5
      vertex 29.25 -2.16506 5
      vertex 21.1728 -1.85786 5
    endloop
  endfacet
  facet normal 0 0 1
    outer loop
      vertex 29.25 -2.16506 5
      vertex 20.75 -2.16506 5
      vertex 29.7275 -2.37764 5
    endloop
  endfacet
  facet normal 0 0 1
    outer loop
      vertex 20.2725 -2.37764 5
      vertex 29.7275 -2.37764 5
      vertex 20.75 -2.16506 5
    endloop
  endfacet
  facet normal 0 0 1
    outer loop
      vertex 29.7275 -2.37764 5
      vertex 20.2725 -2.37764 5
      vertex 30.2387 -2.4863 5
    endloop
  endfacet
  facet normal 0 0 1
    outer loop
      vertex 19.7613 -2.4863 5
      vertex 30.2387 -2.4863 5
      vertex 20.2725 -2.37764 5
    endloop
  endfacet
  facet normal 0 0 1
    outer loop
      vertex 30.2387 -2.4863 5
      vertex 19.7613 -2.4863 5
      vertex 45.2091 -3.98904 5
    endloop
  endfacet
  facet normal 0 0 1
    outer loop
      vertex -0.209057 -3.98904 5
      vertex 19.7613 -2.4863 5
      vertex 19.2387 -2.4863 5
    endloop
  endfacet
  facet normal -0 0 1
    outer loop
      vertex 11 0 5
      vertex 17.0546 -0.519779 5
      vertex 17 0 5
    endloop
  endfacet
  facet normal 0 0 1
    outer loop
      vertex 10.9454 -0.519779 5
      vertex 17.0546 -0.519779 5
      vertex 11 0 5
    endloop
  endfacet
  facet normal 0 0 1
    outer loop
      vertex 17.0546 -0.519779 5
      vertex 10.9454 -0.519779 5
      vertex 17.2161 -1.01684 5
    endloop
  endfacet
  facet normal 0 0 1
    outer loop
      vertex 10.7839 -1.01684 5
      vertex 17.2161 -1.01684 5
      vertex 10.9454 -0.519779 5
    endloop
  endfacet
  facet normal 0 0 1
    outer loop
      vertex 17.2161 -1.01684 5
      vertex 10.7839 -1.01684 5
      vertex 17.4775 -1.46946 5
    endloop
  endfacet
  facet normal 0 0 1
    outer loop
      vertex 10.5225 -1.46946 5
      vertex 17.4775 -1.46946 5
      vertex 10.7839 -1.01684 5
    endloop
  endfacet
  facet normal 0 0 1
    outer loop
      vertex 17.4775 -1.46946 5
      vertex 10.5225 -1.46946 5
      vertex 17.8272 -1.85786 5
    endloop
  endfacet
  facet normal 0 0 1
    outer loop
      vertex 10.1728 -1.85786 5
      vertex 17.8272 -1.85786 5
      vertex 10.5225 -1.46946 5
    endloop
  endfacet
  facet normal 0 0 1
    outer loop
      vertex 17.8272 -1.85786 5
      vertex 10.1728 -1.85786 5
      vertex 18.25 -2.16506 5
    endloop
  endfacet
  facet normal 0 0 1
    outer loop
      vertex 9.75 -2.16506 5
      vertex 18.25 -2.16506 5
      vertex 10.1728 -1.85786 5
    endloop
  endfacet
  facet normal 0 0 1
    outer loop
      vertex 18.25 -2.16506 5
      vertex 9.75 -2.16506 5
      vertex 18.7275 -2.37764 5
    endloop
  endfacet
  facet normal 0 0 1
    outer loop
      vertex 9.27254 -2.37764 5
      vertex 18.7275 -2.37764 5
      vertex 9.75 -2.16506 5
    endloop
  endfacet
  facet normal 0 0 1
    outer loop
      vertex 18.7275 -2.37764 5
      vertex 9.27254 -2.37764 5
      vertex 19.2387 -2.4863 5
    endloop
  endfacet
  facet normal 0 0 1
    outer loop
      vertex 8.76132 -2.4863 5
      vertex 19.2387 -2.4863 5
      vertex 9.27254 -2.37764 5
    endloop
  endfacet
  facet normal 0 0 1
    outer loop
      vertex -0.209057 -3.98904 5
      vertex 19.2387 -2.4863 5
      vertex 8.76132 -2.4863 5
    endloop
  endfacet
  facet normal 0 0 1
    outer loop
      vertex -0.209057 -3.98904 5
      vertex 8.76132 -2.4863 5
      vertex 8.23868 -2.4863 5
    endloop
  endfacet
  facet normal -0 0 1
    outer loop
      vertex -2 2 5
      vertex 6 0 5
      vertex -0.209057 3.98904 5
    endloop
  endfacet
  facet normal 0 0 1
    outer loop
      vertex -2 -2 5
      vertex 6 0 5
      vertex -2 2 5
    endloop
  endfacet
  facet normal 0 -0 1
    outer loop
      vertex -0.209057 -3.98904 5
      vertex 6 0 5
      vertex -2 -2 5
    endloop
  endfacet
  facet normal 0 0 1
    outer loop
      vertex 6 0 5
      vertex -0.209057 -3.98904 5
      vertex 6.05463 -0.519779 5
    endloop
  endfacet
  facet normal 0 0 1
    outer loop
      vertex 19.7613 -2.4863 5
      vertex -0.209057 -3.98904 5
      vertex 45.2091 -3.98904 5
    endloop
  endfacet
  facet normal 0 0 1
    outer loop
      vertex 7.72746 -2.37764 5
      vertex -0.209057 -3.98904 5
      vertex 8.23868 -2.4863 5
    endloop
  endfacet
  facet normal 0 0 1
    outer loop
      vertex 7.25 -2.16506 5
      vertex -0.209057 -3.98904 5
      vertex 7.72746 -2.37764 5
    endloop
  endfacet
  facet normal 0 0 1
    outer loop
      vertex 6.82717 -1.85786 5
      vertex -0.209057 -3.98904 5
      vertex 7.25 -2.16506 5
    endloop
  endfacet
  facet normal 0 0 1
    outer loop
      vertex 6.47746 -1.46946 5
      vertex -0.209057 -3.98904 5
      vertex 6.82717 -1.85786 5
    endloop
  endfacet
  facet normal 0 0 1
    outer loop
      vertex -2 2 5
      vertex -0.209057 3.98904 5
      vertex -0.618033 3.90211 5
    endloop
  endfacet
  facet normal 0 0 1
    outer loop
      vertex 6.05463 -0.519779 5
      vertex -0.209057 -3.98904 5
      vertex 6.21614 -1.01684 5
    endloop
  endfacet
  facet normal 0 0 1
    outer loop
      vertex -2 2 5
      vertex -0.618033 3.90211 5
      vertex -0.999999 3.73205 5
    endloop
  endfacet
  facet normal 0 0 1
    outer loop
      vertex 6.21614 -1.01684 5
      vertex -0.209057 -3.98904 5
      vertex 6.47746 -1.46946 5
    endloop
  endfacet
  facet normal 0 0 1
    outer loop
      vertex -2 2 5
      vertex -0.999999 3.73205 5
      vertex -1.33826 3.48629 5
    endloop
  endfacet
  facet normal 0 0 1
    outer loop
      vertex -0.209057 -3.98904 5
      vertex -2 -2 5
      vertex -0.618033 -3.90211 5
    endloop
  endfacet
  facet normal 0 0 1
    outer loop
      vertex -2 2 5
      vertex -1.33826 3.48629 5
      vertex -1.61803 3.17557 5
    endloop
  endfacet
  facet normal 0 0 1
    outer loop
      vertex -0.618033 -3.90211 5
      vertex -2 -2 5
      vertex -1 -3.73205 5
    endloop
  endfacet
  facet normal 0 0 1
    outer loop
      vertex -2 2 5
      vertex -1.61803 3.17557 5
      vertex -1.82709 2.81347 5
    endloop
  endfacet
  facet normal 0 0 1
    outer loop
      vertex -1 -3.73205 5
      vertex -2 -2 5
      vertex -1.33826 -3.48629 5
    endloop
  endfacet
  facet normal 0 0 1
    outer loop
      vertex -2 2 5
      vertex -1.82709 2.81347 5
      vertex -1.9563 2.41582 5
    endloop
  endfacet
  facet normal 0 0 1
    outer loop
      vertex -1.33826 -3.48629 5
      vertex -2 -2 5
      vertex -1.61803 -3.17557 5
    endloop
  endfacet
  facet normal 0 0 1
    outer loop
      vertex -1.61803 -3.17557 5
      vertex -2 -2 5
      vertex -1.82709 -2.81347 5
    endloop
  endfacet
  facet normal 0 0 1
    outer loop
      vertex -1.82709 -2.81347 5
      vertex -2 -2 5
      vertex -1.9563 -2.41582 5
    endloop
  endfacet
  facet normal -0.743144 0.669131 0
    outer loop
      vertex -1.61803 3.17557 -5
      vertex -1.33826 3.48629 5
      vertex -1.33826 3.48629 -5
    endloop
  endfacet
  facet normal -0.743144 0.669131 0
    outer loop
      vertex -1.33826 3.48629 5
      vertex -1.61803 3.17557 -5
      vertex -1.61803 3.17557 5
    endloop
  endfacet
  facet normal -0.587784 0.809018 0
    outer loop
      vertex -0.999999 3.73205 -5
      vertex -1.33826 3.48629 5
      vertex -0.999999 3.73205 5
    endloop
  endfacet
  facet normal -0.587784 0.809018 0
    outer loop
      vertex -1.33826 3.48629 5
      vertex -0.999999 3.73205 -5
      vertex -1.33826 3.48629 -5
    endloop
  endfacet
  facet normal -0.207911 0.978148 0
    outer loop
      vertex -0.209057 3.98904 -5
      vertex -0.618033 3.90211 5
      vertex -0.209057 3.98904 5
    endloop
  endfacet
  facet normal -0.207911 0.978148 0
    outer loop
      vertex -0.618033 3.90211 5
      vertex -0.209057 3.98904 -5
      vertex -0.618033 3.90211 -5
    endloop
  endfacet
  facet normal -0.743144 -0.669131 0
    outer loop
      vertex -1.33826 -3.48629 -5
      vertex -1.61803 -3.17557 5
      vertex -1.61803 -3.17557 -5
    endloop
  endfacet
  facet normal -0.743144 -0.669131 0
    outer loop
      vertex -1.61803 -3.17557 5
      vertex -1.33826 -3.48629 -5
      vertex -1.33826 -3.48629 5
    endloop
  endfacet
  facet normal -0.207911 -0.978148 0
    outer loop
      vertex -0.618033 -3.90211 -5
      vertex -0.209057 -3.98904 5
      vertex -0.618033 -3.90211 5
    endloop
  endfacet
  facet normal -0.207911 -0.978148 -0
    outer loop
      vertex -0.209057 -3.98904 5
      vertex -0.618033 -3.90211 -5
      vertex -0.209057 -3.98904 -5
    endloop
  endfacet
  facet normal -0.587786 -0.809017 0
    outer loop
      vertex -1.33826 -3.48629 -5
      vertex -1 -3.73205 5
      vertex -1.33826 -3.48629 5
    endloop
  endfacet
  facet normal -0.587786 -0.809017 -0
    outer loop
      vertex -1 -3.73205 5
      vertex -1.33826 -3.48629 -5
      vertex -1 -3.73205 -5
    endloop
  endfacet
  facet normal 0.951057 -0.309016 0
    outer loop
      vertex 46.8271 -2.81347 5
      vertex 46.9563 -2.41582 -5
      vertex 46.9563 -2.41582 5
    endloop
  endfacet
  facet normal 0.951057 -0.309016 0
    outer loop
      vertex 46.9563 -2.41582 -5
      vertex 46.8271 -2.81347 5
      vertex 46.8271 -2.81347 -5
    endloop
  endfacet
  facet normal 0.406739 -0.913545 0
    outer loop
      vertex 45.618 -3.90211 -5
      vertex 46 -3.73205 5
      vertex 45.618 -3.90211 5
    endloop
  endfacet
  facet normal 0.406739 -0.913545 0
    outer loop
      vertex 46 -3.73205 5
      vertex 45.618 -3.90211 -5
      vertex 46 -3.73205 -5
    endloop
  endfacet
  facet normal 0.587786 -0.809017 0
    outer loop
      vertex 46 -3.73205 -5
      vertex 46.3383 -3.48629 5
      vertex 46 -3.73205 5
    endloop
  endfacet
  facet normal 0.587786 -0.809017 0
    outer loop
      vertex 46.3383 -3.48629 5
      vertex 46 -3.73205 -5
      vertex 46.3383 -3.48629 -5
    endloop
  endfacet
  facet normal 0.951057 0.309016 0
    outer loop
      vertex 46.9563 2.41582 5
      vertex 46.8271 2.81347 -5
      vertex 46.8271 2.81347 5
    endloop
  endfacet
  facet normal 0.951057 0.309016 0
    outer loop
      vertex 46.8271 2.81347 -5
      vertex 46.9563 2.41582 5
      vertex 46.9563 2.41582 -5
    endloop
  endfacet
  facet normal 0.994522 0.104529 0
    outer loop
      vertex 47 2 5
      vertex 46.9563 2.41582 -5
      vertex 46.9563 2.41582 5
    endloop
  endfacet
  facet normal 0.994522 0.104529 0
    outer loop
      vertex 46.9563 2.41582 -5
      vertex 47 2 5
      vertex 47 2 -5
    endloop
  endfacet
  facet normal -0.866026 0.499999 0
    outer loop
      vertex -1.82709 2.81347 -5
      vertex -1.61803 3.17557 5
      vertex -1.61803 3.17557 -5
    endloop
  endfacet
  facet normal -0.866026 0.499999 0
    outer loop
      vertex -1.61803 3.17557 5
      vertex -1.82709 2.81347 -5
      vertex -1.82709 2.81347 5
    endloop
  endfacet
  facet normal -0.406739 0.913545 0
    outer loop
      vertex -0.618033 3.90211 -5
      vertex -0.999999 3.73205 5
      vertex -0.618033 3.90211 5
    endloop
  endfacet
  facet normal -0.406739 0.913545 0
    outer loop
      vertex -0.999999 3.73205 5
      vertex -0.618033 3.90211 -5
      vertex -0.999999 3.73205 -5
    endloop
  endfacet
  facet normal -0.866026 -0.499999 0
    outer loop
      vertex -1.61803 -3.17557 -5
      vertex -1.82709 -2.81347 5
      vertex -1.82709 -2.81347 -5
    endloop
  endfacet
  facet normal -0.866026 -0.499999 0
    outer loop
      vertex -1.82709 -2.81347 5
      vertex -1.61803 -3.17557 -5
      vertex -1.61803 -3.17557 5
    endloop
  endfacet
  facet normal -0.406738 -0.913545 0
    outer loop
      vertex -1 -3.73205 -5
      vertex -0.618033 -3.90211 5
      vertex -1 -3.73205 5
    endloop
  endfacet
  facet normal -0.406738 -0.913545 -0
    outer loop
      vertex -0.618033 -3.90211 5
      vertex -1 -3.73205 -5
      vertex -0.618033 -3.90211 -5
    endloop
  endfacet
  facet normal 0.20791 0.978148 -0
    outer loop
      vertex 45.618 3.90211 -5
      vertex 45.2091 3.98904 5
      vertex 45.618 3.90211 5
    endloop
  endfacet
  facet normal 0.20791 0.978148 0
    outer loop
      vertex 45.2091 3.98904 5
      vertex 45.618 3.90211 -5
      vertex 45.2091 3.98904 -5
    endloop
  endfacet
  facet normal 0.866026 0.499999 0
    outer loop
      vertex 46.8271 2.81347 5
      vertex 46.618 3.17557 -5
      vertex 46.618 3.17557 5
    endloop
  endfacet
  facet normal 0.866026 0.499999 0
    outer loop
      vertex 46.618 3.17557 -5
      vertex 46.8271 2.81347 5
      vertex 46.8271 2.81347 -5
    endloop
  endfacet
  facet normal 0.406739 0.913545 -0
    outer loop
      vertex 46 3.73205 -5
      vertex 45.618 3.90211 5
      vertex 46 3.73205 5
    endloop
  endfacet
  facet normal 0.406739 0.913545 0
    outer loop
      vertex 45.618 3.90211 5
      vertex 46 3.73205 -5
      vertex 45.618 3.90211 -5
    endloop
  endfacet
  facet normal 0.587786 0.809017 -0
    outer loop
      vertex 46.3383 3.48629 -5
      vertex 46 3.73205 5
      vertex 46.3383 3.48629 5
    endloop
  endfacet
  facet normal 0.587786 0.809017 0
    outer loop
      vertex 46 3.73205 5
      vertex 46.3383 3.48629 -5
      vertex 46 3.73205 -5
    endloop
  endfacet
  facet normal 0.743143 0.669133 0
    outer loop
      vertex 46.618 3.17557 5
      vertex 46.3383 3.48629 -5
      vertex 46.3383 3.48629 5
    endloop
  endfacet
  facet normal 0.743143 0.669133 0
    outer loop
      vertex 46.3383 3.48629 -5
      vertex 46.618 3.17557 5
      vertex 46.618 3.17557 -5
    endloop
  endfacet
  facet normal -0.994522 -0.104529 0
    outer loop
      vertex 11 0 -5
      vertex 10.9454 0.519779 5
      vertex 10.9454 0.519779 -5
    endloop
  endfacet
  facet normal -0.994522 -0.104529 0
    outer loop
      vertex 10.9454 0.519779 5
      vertex 11 0 -5
      vertex 11 0 5
    endloop
  endfacet
  facet normal 0 -1 0
    outer loop
      vertex 8.23868 2.4863 -5
      vertex 8.76132 2.4863 5
      vertex 8.23868 2.4863 5
    endloop
  endfacet
  facet normal 0 -1 -0
    outer loop
      vertex 8.76132 2.4863 5
      vertex 8.23868 2.4863 -5
      vertex 8.76132 2.4863 -5
    endloop
  endfacet
  facet normal -0.587786 -0.809017 0
    outer loop
      vertex 9.75 2.16506 -5
      vertex 10.1728 1.85786 5
      vertex 9.75 2.16506 5
    endloop
  endfacet
  facet normal -0.587786 -0.809017 -0
    outer loop
      vertex 10.1728 1.85786 5
      vertex 9.75 2.16506 -5
      vertex 10.1728 1.85786 -5
    endloop
  endfacet
  facet normal 0.743145 -0.669131 0
    outer loop
      vertex 6.47746 1.46946 5
      vertex 6.82717 1.85786 -5
      vertex 6.82717 1.85786 5
    endloop
  endfacet
  facet normal 0.743145 -0.669131 0
    outer loop
      vertex 6.82717 1.85786 -5
      vertex 6.47746 1.46946 5
      vertex 6.47746 1.46946 -5
    endloop
  endfacet
  facet normal 0.406737 -0.913545 0
    outer loop
      vertex 7.25 2.16506 -5
      vertex 7.72746 2.37764 5
      vertex 7.25 2.16506 5
    endloop
  endfacet
  facet normal 0.406737 -0.913545 0
    outer loop
      vertex 7.72746 2.37764 5
      vertex 7.25 2.16506 -5
      vertex 7.72746 2.37764 -5
    endloop
  endfacet
  facet normal -0.743145 0.669131 0
    outer loop
      vertex 10.1728 -1.85786 -5
      vertex 10.5225 -1.46946 5
      vertex 10.5225 -1.46946 -5
    endloop
  endfacet
  facet normal -0.743145 0.669131 0
    outer loop
      vertex 10.5225 -1.46946 5
      vertex 10.1728 -1.85786 -5
      vertex 10.1728 -1.85786 5
    endloop
  endfacet
  facet normal -0.866025 -0.5 0
    outer loop
      vertex 10.7839 1.01684 -5
      vertex 10.5225 1.46946 5
      vertex 10.5225 1.46946 -5
    endloop
  endfacet
  facet normal -0.866025 -0.5 0
    outer loop
      vertex 10.5225 1.46946 5
      vertex 10.7839 1.01684 -5
      vertex 10.7839 1.01684 5
    endloop
  endfacet
  facet normal -0.951056 -0.309018 0
    outer loop
      vertex 10.9454 0.519779 -5
      vertex 10.7839 1.01684 5
      vertex 10.7839 1.01684 -5
    endloop
  endfacet
  facet normal -0.951056 -0.309018 0
    outer loop
      vertex 10.7839 1.01684 5
      vertex 10.9454 0.519779 -5
      vertex 10.9454 0.519779 5
    endloop
  endfacet
  facet normal -0.743145 -0.669131 0
    outer loop
      vertex 10.5225 1.46946 -5
      vertex 10.1728 1.85786 5
      vertex 10.1728 1.85786 -5
    endloop
  endfacet
  facet normal -0.743145 -0.669131 0
    outer loop
      vertex 10.1728 1.85786 5
      vertex 10.5225 1.46946 -5
      vertex 10.5225 1.46946 5
    endloop
  endfacet
  facet normal -0.207912 -0.978148 0
    outer loop
      vertex 8.76132 2.4863 -5
      vertex 9.27254 2.37764 5
      vertex 8.76132 2.4863 5
    endloop
  endfacet
  facet normal -0.207912 -0.978148 -0
    outer loop
      vertex 9.27254 2.37764 5
      vertex 8.76132 2.4863 -5
      vertex 9.27254 2.37764 -5
    endloop
  endfacet
  facet normal -0.406736 -0.913546 0
    outer loop
      vertex 9.27254 2.37764 -5
      vertex 9.75 2.16506 5
      vertex 9.27254 2.37764 5
    endloop
  endfacet
  facet normal -0.406736 -0.913546 -0
    outer loop
      vertex 9.75 2.16506 5
      vertex 9.27254 2.37764 -5
      vertex 9.75 2.16506 -5
    endloop
  endfacet
  facet normal 0.951056 -0.309018 0
    outer loop
      vertex 6.05463 0.519779 5
      vertex 6.21614 1.01684 -5
      vertex 6.21614 1.01684 5
    endloop
  endfacet
  facet normal 0.951056 -0.309018 0
    outer loop
      vertex 6.21614 1.01684 -5
      vertex 6.05463 0.519779 5
      vertex 6.05463 0.519779 -5
    endloop
  endfacet
  facet normal 0.866025 -0.5 0
    outer loop
      vertex 6.21614 1.01684 5
      vertex 6.47746 1.46946 -5
      vertex 6.47746 1.46946 5
    endloop
  endfacet
  facet normal 0.866025 -0.5 0
    outer loop
      vertex 6.47746 1.46946 -5
      vertex 6.21614 1.01684 5
      vertex 6.21614 1.01684 -5
    endloop
  endfacet
  facet normal 0.994522 -0.104527 0
    outer loop
      vertex 6 0 5
      vertex 6.05463 0.519779 -5
      vertex 6.05463 0.519779 5
    endloop
  endfacet
  facet normal 0.994522 -0.104527 0
    outer loop
      vertex 6.05463 0.519779 -5
      vertex 6 0 5
      vertex 6 0 -5
    endloop
  endfacet
  facet normal 0.587785 -0.809017 0
    outer loop
      vertex 6.82717 1.85786 -5
      vertex 7.25 2.16506 5
      vertex 6.82717 1.85786 5
    endloop
  endfacet
  facet normal 0.587785 -0.809017 0
    outer loop
      vertex 7.25 2.16506 5
      vertex 6.82717 1.85786 -5
      vertex 7.25 2.16506 -5
    endloop
  endfacet
  facet normal 0.207912 -0.978148 0
    outer loop
      vertex 7.72746 2.37764 -5
      vertex 8.23868 2.4863 5
      vertex 7.72746 2.37764 5
    endloop
  endfacet
  facet normal 0.207912 -0.978148 0
    outer loop
      vertex 8.23868 2.4863 5
      vertex 7.72746 2.37764 -5
      vertex 8.23868 2.4863 -5
    endloop
  endfacet
  facet normal -0.207912 0.978148 0
    outer loop
      vertex 9.27254 -2.37764 -5
      vertex 8.76132 -2.4863 5
      vertex 9.27254 -2.37764 5
    endloop
  endfacet
  facet normal -0.207912 0.978148 0
    outer loop
      vertex 8.76132 -2.4863 5
      vertex 9.27254 -2.37764 -5
      vertex 8.76132 -2.4863 -5
    endloop
  endfacet
  facet normal -0.587786 0.809017 0
    outer loop
      vertex 10.1728 -1.85786 -5
      vertex 9.75 -2.16506 5
      vertex 10.1728 -1.85786 5
    endloop
  endfacet
  facet normal -0.587786 0.809017 0
    outer loop
      vertex 9.75 -2.16506 5
      vertex 10.1728 -1.85786 -5
      vertex 9.75 -2.16506 -5
    endloop
  endfacet
  facet normal 0.406736 0.913546 -0
    outer loop
      vertex 7.72746 -2.37764 -5
      vertex 7.25 -2.16506 5
      vertex 7.72746 -2.37764 5
    endloop
  endfacet
  facet normal 0.406736 0.913546 0
    outer loop
      vertex 7.25 -2.16506 5
      vertex 7.72746 -2.37764 -5
      vertex 7.25 -2.16506 -5
    endloop
  endfacet
  facet normal 0 1 -0
    outer loop
      vertex 8.76132 -2.4863 -5
      vertex 8.23868 -2.4863 5
      vertex 8.76132 -2.4863 5
    endloop
  endfacet
  facet normal 0 1 0
    outer loop
      vertex 8.23868 -2.4863 5
      vertex 8.76132 -2.4863 -5
      vertex 8.23868 -2.4863 -5
    endloop
  endfacet
  facet normal 0.743145 0.669131 0
    outer loop
      vertex 6.82717 -1.85786 5
      vertex 6.47746 -1.46946 -5
      vertex 6.47746 -1.46946 5
    endloop
  endfacet
  facet normal 0.743145 0.669131 0
    outer loop
      vertex 6.47746 -1.46946 -5
      vertex 6.82717 -1.85786 5
      vertex 6.82717 -1.85786 -5
    endloop
  endfacet
  facet normal 0.951056 0.309018 0
    outer loop
      vertex 6.21614 -1.01684 5
      vertex 6.05463 -0.519779 -5
      vertex 6.05463 -0.519779 5
    endloop
  endfacet
  facet normal 0.951056 0.309018 0
    outer loop
      vertex 6.05463 -0.519779 -5
      vertex 6.21614 -1.01684 5
      vertex 6.21614 -1.01684 -5
    endloop
  endfacet
  facet normal 0.994522 0.104527 0
    outer loop
      vertex 6.05463 -0.519779 5
      vertex 6 0 -5
      vertex 6 0 5
    endloop
  endfacet
  facet normal 0.994522 0.104527 0
    outer loop
      vertex 6 0 -5
      vertex 6.05463 -0.519779 5
      vertex 6.05463 -0.519779 -5
    endloop
  endfacet
  facet normal -0.406736 0.913546 0
    outer loop
      vertex 9.75 -2.16506 -5
      vertex 9.27254 -2.37764 5
      vertex 9.75 -2.16506 5
    endloop
  endfacet
  facet normal -0.406736 0.913546 0
    outer loop
      vertex 9.27254 -2.37764 5
      vertex 9.75 -2.16506 -5
      vertex 9.27254 -2.37764 -5
    endloop
  endfacet
  facet normal -0.951056 0.309018 0
    outer loop
      vertex 10.7839 -1.01684 -5
      vertex 10.9454 -0.519779 5
      vertex 10.9454 -0.519779 -5
    endloop
  endfacet
  facet normal -0.951056 0.309018 0
    outer loop
      vertex 10.9454 -0.519779 5
      vertex 10.7839 -1.01684 -5
      vertex 10.7839 -1.01684 5
    endloop
  endfacet
  facet normal -0.866025 0.5 0
    outer loop
      vertex 10.5225 -1.46946 -5
      vertex 10.7839 -1.01684 5
      vertex 10.7839 -1.01684 -5
    endloop
  endfacet
  facet normal -0.866025 0.5 0
    outer loop
      vertex 10.7839 -1.01684 5
      vertex 10.5225 -1.46946 -5
      vertex 10.5225 -1.46946 5
    endloop
  endfacet
  facet normal -0.994522 0.104529 0
    outer loop
      vertex 10.9454 -0.519779 -5
      vertex 11 0 5
      vertex 11 0 -5
    endloop
  endfacet
  facet normal -0.994522 0.104529 0
    outer loop
      vertex 11 0 5
      vertex 10.9454 -0.519779 -5
      vertex 10.9454 -0.519779 5
    endloop
  endfacet
  facet normal 0.207912 0.978148 -0
    outer loop
      vertex 8.23868 -2.4863 -5
      vertex 7.72746 -2.37764 5
      vertex 8.23868 -2.4863 5
    endloop
  endfacet
  facet normal 0.207912 0.978148 0
    outer loop
      vertex 7.72746 -2.37764 5
      vertex 8.23868 -2.4863 -5
      vertex 7.72746 -2.37764 -5
    endloop
  endfacet
  facet normal 0.587786 0.809017 -0
    outer loop
      vertex 7.25 -2.16506 -5
      vertex 6.82717 -1.85786 5
      vertex 7.25 -2.16506 5
    endloop
  endfacet
  facet normal 0.587786 0.809017 0
    outer loop
      vertex 6.82717 -1.85786 5
      vertex 7.25 -2.16506 -5
      vertex 6.82717 -1.85786 -5
    endloop
  endfacet
  facet normal 0.866025 0.5 0
    outer loop
      vertex 6.47746 -1.46946 5
      vertex 6.21614 -1.01684 -5
      vertex 6.21614 -1.01684 5
    endloop
  endfacet
  facet normal 0.866025 0.5 0
    outer loop
      vertex 6.21614 -1.01684 -5
      vertex 6.47746 -1.46946 5
      vertex 6.47746 -1.46946 -5
    endloop
  endfacet
  facet normal -0.994522 -0.104527 0
    outer loop
      vertex 22 0 -5
      vertex 21.9454 0.519779 5
      vertex 21.9454 0.519779 -5
    endloop
  endfacet
  facet normal -0.994522 -0.104527 0
    outer loop
      vertex 21.9454 0.519779 5
      vertex 22 0 -5
      vertex 22 0 5
    endloop
  endfacet
  facet normal 0 -1 0
    outer loop
      vertex 19.2387 2.4863 -5
      vertex 19.7613 2.4863 5
      vertex 19.2387 2.4863 5
    endloop
  endfacet
  facet normal 0 -1 -0
    outer loop
      vertex 19.7613 2.4863 5
      vertex 19.2387 2.4863 -5
      vertex 19.7613 2.4863 -5
    endloop
  endfacet
  facet normal 0 1 -0
    outer loop
      vertex 19.7613 -2.4863 -5
      vertex 19.2387 -2.4863 5
      vertex 19.7613 -2.4863 5
    endloop
  endfacet
  facet normal 0 1 0
    outer loop
      vertex 19.2387 -2.4863 5
      vertex 19.7613 -2.4863 -5
      vertex 19.2387 -2.4863 -5
    endloop
  endfacet
  facet normal -0.587787 -0.809016 0
    outer loop
      vertex 20.75 2.16506 -5
      vertex 21.1728 1.85786 5
      vertex 20.75 2.16506 5
    endloop
  endfacet
  facet normal -0.587787 -0.809016 -0
    outer loop
      vertex 21.1728 1.85786 5
      vertex 20.75 2.16506 -5
      vertex 21.1728 1.85786 -5
    endloop
  endfacet
  facet normal 0.743145 -0.669131 0
    outer loop
      vertex 17.4775 1.46946 5
      vertex 17.8272 1.85786 -5
      vertex 17.8272 1.85786 5
    endloop
  endfacet
  facet normal 0.743145 -0.669131 0
    outer loop
      vertex 17.8272 1.85786 -5
      vertex 17.4775 1.46946 5
      vertex 17.4775 1.46946 -5
    endloop
  endfacet
  facet normal 0.406737 -0.913545 0
    outer loop
      vertex 18.25 2.16506 -5
      vertex 18.7275 2.37764 5
      vertex 18.25 2.16506 5
    endloop
  endfacet
  facet normal 0.406737 -0.913545 0
    outer loop
      vertex 18.7275 2.37764 5
      vertex 18.25 2.16506 -5
      vertex 18.7275 2.37764 -5
    endloop
  endfacet
  facet normal -0.743145 0.669131 0
    outer loop
      vertex 21.1728 -1.85786 -5
      vertex 21.5225 -1.46946 5
      vertex 21.5225 -1.46946 -5
    endloop
  endfacet
  facet normal -0.743145 0.669131 0
    outer loop
      vertex 21.5225 -1.46946 5
      vertex 21.1728 -1.85786 -5
      vertex 21.1728 -1.85786 5
    endloop
  endfacet
  facet normal -0.866025 0.500001 0
    outer loop
      vertex 21.5225 -1.46946 -5
      vertex 21.7839 -1.01684 5
      vertex 21.7839 -1.01684 -5
    endloop
  endfacet
  facet normal -0.866025 0.500001 0
    outer loop
      vertex 21.7839 -1.01684 5
      vertex 21.5225 -1.46946 -5
      vertex 21.5225 -1.46946 5
    endloop
  endfacet
  facet normal -0.866025 -0.500001 0
    outer loop
      vertex 21.7839 1.01684 -5
      vertex 21.5225 1.46946 5
      vertex 21.5225 1.46946 -5
    endloop
  endfacet
  facet normal -0.866025 -0.500001 0
    outer loop
      vertex 21.5225 1.46946 5
      vertex 21.7839 1.01684 -5
      vertex 21.7839 1.01684 5
    endloop
  endfacet
  facet normal -0.951056 -0.30902 0
    outer loop
      vertex 21.9454 0.519779 -5
      vertex 21.7839 1.01684 5
      vertex 21.7839 1.01684 -5
    endloop
  endfacet
  facet normal -0.951056 -0.30902 0
    outer loop
      vertex 21.7839 1.01684 5
      vertex 21.9454 0.519779 -5
      vertex 21.9454 0.519779 5
    endloop
  endfacet
  facet normal -0.743145 -0.669131 0
    outer loop
      vertex 21.5225 1.46946 -5
      vertex 21.1728 1.85786 5
      vertex 21.1728 1.85786 -5
    endloop
  endfacet
  facet normal -0.743145 -0.669131 0
    outer loop
      vertex 21.1728 1.85786 5
      vertex 21.5225 1.46946 -5
      vertex 21.5225 1.46946 5
    endloop
  endfacet
  facet normal -0.207913 -0.978147 0
    outer loop
      vertex 19.7613 2.4863 -5
      vertex 20.2725 2.37764 5
      vertex 19.7613 2.4863 5
    endloop
  endfacet
  facet normal -0.207913 -0.978147 -0
    outer loop
      vertex 20.2725 2.37764 5
      vertex 19.7613 2.4863 -5
      vertex 20.2725 2.37764 -5
    endloop
  endfacet
  facet normal -0.406736 -0.913546 0
    outer loop
      vertex 20.2725 2.37764 -5
      vertex 20.75 2.16506 5
      vertex 20.2725 2.37764 5
    endloop
  endfacet
  facet normal -0.406736 -0.913546 -0
    outer loop
      vertex 20.75 2.16506 5
      vertex 20.2725 2.37764 -5
      vertex 20.75 2.16506 -5
    endloop
  endfacet
  facet normal 0.951056 -0.30902 0
    outer loop
      vertex 17.0546 0.519779 5
      vertex 17.2161 1.01684 -5
      vertex 17.2161 1.01684 5
    endloop
  endfacet
  facet normal 0.951056 -0.30902 0
    outer loop
      vertex 17.2161 1.01684 -5
      vertex 17.0546 0.519779 5
      vertex 17.0546 0.519779 -5
    endloop
  endfacet
  facet normal 0.866026 -0.499999 0
    outer loop
      vertex 17.2161 1.01684 5
      vertex 17.4775 1.46946 -5
      vertex 17.4775 1.46946 5
    endloop
  endfacet
  facet normal 0.866026 -0.499999 0
    outer loop
      vertex 17.4775 1.46946 -5
      vertex 17.2161 1.01684 5
      vertex 17.2161 1.01684 -5
    endloop
  endfacet
  facet normal 0.994522 -0.104527 0
    outer loop
      vertex 17 0 5
      vertex 17.0546 0.519779 -5
      vertex 17.0546 0.519779 5
    endloop
  endfacet
  facet normal 0.994522 -0.104527 0
    outer loop
      vertex 17.0546 0.519779 -5
      vertex 17 0 5
      vertex 17 0 -5
    endloop
  endfacet
  facet normal 0.587785 -0.809017 0
    outer loop
      vertex 17.8272 1.85786 -5
      vertex 18.25 2.16506 5
      vertex 17.8272 1.85786 5
    endloop
  endfacet
  facet normal 0.587785 -0.809017 0
    outer loop
      vertex 18.25 2.16506 5
      vertex 17.8272 1.85786 -5
      vertex 18.25 2.16506 -5
    endloop
  endfacet
  facet normal 0.207912 -0.978148 0
    outer loop
      vertex 18.7275 2.37764 -5
      vertex 19.2387 2.4863 5
      vertex 18.7275 2.37764 5
    endloop
  endfacet
  facet normal 0.207912 -0.978148 0
    outer loop
      vertex 19.2387 2.4863 5
      vertex 18.7275 2.37764 -5
      vertex 19.2387 2.4863 -5
    endloop
  endfacet
  facet normal -0.207913 0.978147 0
    outer loop
      vertex 20.2725 -2.37764 -5
      vertex 19.7613 -2.4863 5
      vertex 20.2725 -2.37764 5
    endloop
  endfacet
  facet normal -0.207913 0.978147 0
    outer loop
      vertex 19.7613 -2.4863 5
      vertex 20.2725 -2.37764 -5
      vertex 19.7613 -2.4863 -5
    endloop
  endfacet
  facet normal -0.587787 0.809016 0
    outer loop
      vertex 21.1728 -1.85786 -5
      vertex 20.75 -2.16506 5
      vertex 21.1728 -1.85786 5
    endloop
  endfacet
  facet normal -0.587787 0.809016 0
    outer loop
      vertex 20.75 -2.16506 5
      vertex 21.1728 -1.85786 -5
      vertex 20.75 -2.16506 -5
    endloop
  endfacet
  facet normal 0.587785 0.809017 -0
    outer loop
      vertex 18.25 -2.16506 -5
      vertex 17.8272 -1.85786 5
      vertex 18.25 -2.16506 5
    endloop
  endfacet
  facet normal 0.587785 0.809017 0
    outer loop
      vertex 17.8272 -1.85786 5
      vertex 18.25 -2.16506 -5
      vertex 17.8272 -1.85786 -5
    endloop
  endfacet
  facet normal 0.207912 0.978148 -0
    outer loop
      vertex 19.2387 -2.4863 -5
      vertex 18.7275 -2.37764 5
      vertex 19.2387 -2.4863 5
    endloop
  endfacet
  facet normal 0.207912 0.978148 0
    outer loop
      vertex 18.7275 -2.37764 5
      vertex 19.2387 -2.4863 -5
      vertex 18.7275 -2.37764 -5
    endloop
  endfacet
  facet normal 0.743145 0.669131 0
    outer loop
      vertex 17.8272 -1.85786 5
      vertex 17.4775 -1.46946 -5
      vertex 17.4775 -1.46946 5
    endloop
  endfacet
  facet normal 0.743145 0.669131 0
    outer loop
      vertex 17.4775 -1.46946 -5
      vertex 17.8272 -1.85786 5
      vertex 17.8272 -1.85786 -5
    endloop
  endfacet
  facet normal 0.951056 0.30902 0
    outer loop
      vertex 17.2161 -1.01684 5
      vertex 17.0546 -0.519779 -5
      vertex 17.0546 -0.519779 5
    endloop
  endfacet
  facet normal 0.951056 0.30902 0
    outer loop
      vertex 17.0546 -0.519779 -5
      vertex 17.2161 -1.01684 5
      vertex 17.2161 -1.01684 -5
    endloop
  endfacet
  facet normal 0.994522 0.104527 0
    outer loop
      vertex 17.0546 -0.519779 5
      vertex 17 0 -5
      vertex 17 0 5
    endloop
  endfacet
  facet normal 0.994522 0.104527 0
    outer loop
      vertex 17 0 -5
      vertex 17.0546 -0.519779 5
      vertex 17.0546 -0.519779 -5
    endloop
  endfacet
  facet normal -0.406736 0.913546 0
    outer loop
      vertex 20.75 -2.16506 -5
      vertex 20.2725 -2.37764 5
      vertex 20.75 -2.16506 5
    endloop
  endfacet
  facet normal -0.406736 0.913546 0
    outer loop
      vertex 20.2725 -2.37764 5
      vertex 20.75 -2.16506 -5
      vertex 20.2725 -2.37764 -5
    endloop
  endfacet
  facet normal -0.951056 0.30902 0
    outer loop
      vertex 21.7839 -1.01684 -5
      vertex 21.9454 -0.519779 5
      vertex 21.9454 -0.519779 -5
    endloop
  endfacet
  facet normal -0.951056 0.30902 0
    outer loop
      vertex 21.9454 -0.519779 5
      vertex 21.7839 -1.01684 -5
      vertex 21.7839 -1.01684 5
    endloop
  endfacet
  facet normal -0.994522 0.104527 0
    outer loop
      vertex 21.9454 -0.519779 -5
      vertex 22 0 5
      vertex 22 0 -5
    endloop
  endfacet
  facet normal -0.994522 0.104527 0
    outer loop
      vertex 22 0 5
      vertex 21.9454 -0.519779 -5
      vertex 21.9454 -0.519779 5
    endloop
  endfacet
  facet normal 0.406737 0.913545 -0
    outer loop
      vertex 18.7275 -2.37764 -5
      vertex 18.25 -2.16506 5
      vertex 18.7275 -2.37764 5
    endloop
  endfacet
  facet normal 0.406737 0.913545 0
    outer loop
      vertex 18.25 -2.16506 5
      vertex 18.7275 -2.37764 -5
      vertex 18.25 -2.16506 -5
    endloop
  endfacet
  facet normal 0.866026 0.499999 0
    outer loop
      vertex 17.4775 -1.46946 5
      vertex 17.2161 -1.01684 -5
      vertex 17.2161 -1.01684 5
    endloop
  endfacet
  facet normal 0.866026 0.499999 0
    outer loop
      vertex 17.2161 -1.01684 -5
      vertex 17.4775 -1.46946 5
      vertex 17.4775 -1.46946 -5
    endloop
  endfacet
  facet normal -0.994522 -0.104527 0
    outer loop
      vertex 33 0 -5
      vertex 32.9454 0.519779 5
      vertex 32.9454 0.519779 -5
    endloop
  endfacet
  facet normal -0.994522 -0.104527 0
    outer loop
      vertex 32.9454 0.519779 5
      vertex 33 0 -5
      vertex 33 0 5
    endloop
  endfacet
  facet normal 0 -1 0
    outer loop
      vertex 30.2387 2.4863 -5
      vertex 30.7613 2.4863 5
      vertex 30.2387 2.4863 5
    endloop
  endfacet
  facet normal 0 -1 -0
    outer loop
      vertex 30.7613 2.4863 5
      vertex 30.2387 2.4863 -5
      vertex 30.7613 2.4863 -5
    endloop
  endfacet
  facet normal 0 1 -0
    outer loop
      vertex 30.7613 -2.4863 -5
      vertex 30.2387 -2.4863 5
      vertex 30.7613 -2.4863 5
    endloop
  endfacet
  facet normal 0 1 0
    outer loop
      vertex 30.2387 -2.4863 5
      vertex 30.7613 -2.4863 -5
      vertex 30.2387 -2.4863 -5
    endloop
  endfacet
  facet normal -0.587787 -0.809016 0
    outer loop
      vertex 31.75 2.16506 -5
      vertex 32.1728 1.85786 5
      vertex 31.75 2.16506 5
    endloop
  endfacet
  facet normal -0.587787 -0.809016 -0
    outer loop
      vertex 32.1728 1.85786 5
      vertex 31.75 2.16506 -5
      vertex 32.1728 1.85786 -5
    endloop
  endfacet
  facet normal 0.743145 -0.669131 0
    outer loop
      vertex 28.4775 1.46946 5
      vertex 28.8272 1.85786 -5
      vertex 28.8272 1.85786 5
    endloop
  endfacet
  facet normal 0.743145 -0.669131 0
    outer loop
      vertex 28.8272 1.85786 -5
      vertex 28.4775 1.46946 5
      vertex 28.4775 1.46946 -5
    endloop
  endfacet
  facet normal 0.406737 -0.913545 0
    outer loop
      vertex 29.25 2.16506 -5
      vertex 29.7275 2.37764 5
      vertex 29.25 2.16506 5
    endloop
  endfacet
  facet normal 0.406737 -0.913545 0
    outer loop
      vertex 29.7275 2.37764 5
      vertex 29.25 2.16506 -5
      vertex 29.7275 2.37764 -5
    endloop
  endfacet
  facet normal -0.743145 0.669131 0
    outer loop
      vertex 32.1728 -1.85786 -5
      vertex 32.5225 -1.46946 5
      vertex 32.5225 -1.46946 -5
    endloop
  endfacet
  facet normal -0.743145 0.669131 0
    outer loop
      vertex 32.5225 -1.46946 5
      vertex 32.1728 -1.85786 -5
      vertex 32.1728 -1.85786 5
    endloop
  endfacet
  facet normal -0.866025 -0.500001 0
    outer loop
      vertex 32.7839 1.01684 -5
      vertex 32.5225 1.46946 5
      vertex 32.5225 1.46946 -5
    endloop
  endfacet
  facet normal -0.866025 -0.500001 0
    outer loop
      vertex 32.5225 1.46946 5
      vertex 32.7839 1.01684 -5
      vertex 32.7839 1.01684 5
    endloop
  endfacet
  facet normal -0.951056 -0.30902 0
    outer loop
      vertex 32.9454 0.519779 -5
      vertex 32.7839 1.01684 5
      vertex 32.7839 1.01684 -5
    endloop
  endfacet
  facet normal -0.951056 -0.30902 0
    outer loop
      vertex 32.7839 1.01684 5
      vertex 32.9454 0.519779 -5
      vertex 32.9454 0.519779 5
    endloop
  endfacet
  facet normal -0.743145 -0.669131 0
    outer loop
      vertex 32.5225 1.46946 -5
      vertex 32.1728 1.85786 5
      vertex 32.1728 1.85786 -5
    endloop
  endfacet
  facet normal -0.743145 -0.669131 0
    outer loop
      vertex 32.1728 1.85786 5
      vertex 32.5225 1.46946 -5
      vertex 32.5225 1.46946 5
    endloop
  endfacet
  facet normal -0.207913 -0.978147 0
    outer loop
      vertex 30.7613 2.4863 -5
      vertex 31.2725 2.37764 5
      vertex 30.7613 2.4863 5
    endloop
  endfacet
  facet normal -0.207913 -0.978147 -0
    outer loop
      vertex 31.2725 2.37764 5
      vertex 30.7613 2.4863 -5
      vertex 31.2725 2.37764 -5
    endloop
  endfacet
  facet normal -0.406736 -0.913546 0
    outer loop
      vertex 31.2725 2.37764 -5
      vertex 31.75 2.16506 5
      vertex 31.2725 2.37764 5
    endloop
  endfacet
  facet normal -0.406736 -0.913546 -0
    outer loop
      vertex 31.75 2.16506 5
      vertex 31.2725 2.37764 -5
      vertex 31.75 2.16506 -5
    endloop
  endfacet
  facet normal 0.951056 -0.30902 0
    outer loop
      vertex 28.0546 0.519779 5
      vertex 28.2161 1.01684 -5
      vertex 28.2161 1.01684 5
    endloop
  endfacet
  facet normal 0.951056 -0.30902 0
    outer loop
      vertex 28.2161 1.01684 -5
      vertex 28.0546 0.519779 5
      vertex 28.0546 0.519779 -5
    endloop
  endfacet
  facet normal 0.866026 -0.499999 0
    outer loop
      vertex 28.2161 1.01684 5
      vertex 28.4775 1.46946 -5
      vertex 28.4775 1.46946 5
    endloop
  endfacet
  facet normal 0.866026 -0.499999 0
    outer loop
      vertex 28.4775 1.46946 -5
      vertex 28.2161 1.01684 5
      vertex 28.2161 1.01684 -5
    endloop
  endfacet
  facet normal 0.994522 -0.104527 0
    outer loop
      vertex 28 0 5
      vertex 28.0546 0.519779 -5
      vertex 28.0546 0.519779 5
    endloop
  endfacet
  facet normal 0.994522 -0.104527 0
    outer loop
      vertex 28.0546 0.519779 -5
      vertex 28 0 5
      vertex 28 0 -5
    endloop
  endfacet
  facet normal 0.587785 -0.809017 0
    outer loop
      vertex 28.8272 1.85786 -5
      vertex 29.25 2.16506 5
      vertex 28.8272 1.85786 5
    endloop
  endfacet
  facet normal 0.587785 -0.809017 0
    outer loop
      vertex 29.25 2.16506 5
      vertex 28.8272 1.85786 -5
      vertex 29.25 2.16506 -5
    endloop
  endfacet
  facet normal 0.207912 -0.978148 0
    outer loop
      vertex 29.7275 2.37764 -5
      vertex 30.2387 2.4863 5
      vertex 29.7275 2.37764 5
    endloop
  endfacet
  facet normal 0.207912 -0.978148 0
    outer loop
      vertex 30.2387 2.4863 5
      vertex 29.7275 2.37764 -5
      vertex 30.2387 2.4863 -5
    endloop
  endfacet
  facet normal -0.994522 0.104527 0
    outer loop
      vertex 32.9454 -0.519779 -5
      vertex 33 0 5
      vertex 33 0 -5
    endloop
  endfacet
  facet normal -0.994522 0.104527 0
    outer loop
      vertex 33 0 5
      vertex 32.9454 -0.519779 -5
      vertex 32.9454 -0.519779 5
    endloop
  endfacet
  facet normal -0.207913 0.978147 0
    outer loop
      vertex 31.2725 -2.37764 -5
      vertex 30.7613 -2.4863 5
      vertex 31.2725 -2.37764 5
    endloop
  endfacet
  facet normal -0.207913 0.978147 0
    outer loop
      vertex 30.7613 -2.4863 5
      vertex 31.2725 -2.37764 -5
      vertex 30.7613 -2.4863 -5
    endloop
  endfacet
  facet normal -0.587787 0.809016 0
    outer loop
      vertex 32.1728 -1.85786 -5
      vertex 31.75 -2.16506 5
      vertex 32.1728 -1.85786 5
    endloop
  endfacet
  facet normal -0.587787 0.809016 0
    outer loop
      vertex 31.75 -2.16506 5
      vertex 32.1728 -1.85786 -5
      vertex 31.75 -2.16506 -5
    endloop
  endfacet
  facet normal 0.587785 0.809017 -0
    outer loop
      vertex 29.25 -2.16506 -5
      vertex 28.8272 -1.85786 5
      vertex 29.25 -2.16506 5
    endloop
  endfacet
  facet normal 0.587785 0.809017 0
    outer loop
      vertex 28.8272 -1.85786 5
      vertex 29.25 -2.16506 -5
      vertex 28.8272 -1.85786 -5
    endloop
  endfacet
  facet normal 0.207912 0.978148 -0
    outer loop
      vertex 30.2387 -2.4863 -5
      vertex 29.7275 -2.37764 5
      vertex 30.2387 -2.4863 5
    endloop
  endfacet
  facet normal 0.207912 0.978148 0
    outer loop
      vertex 29.7275 -2.37764 5
      vertex 30.2387 -2.4863 -5
      vertex 29.7275 -2.37764 -5
    endloop
  endfacet
  facet normal 0.743145 0.669131 0
    outer loop
      vertex 28.8272 -1.85786 5
      vertex 28.4775 -1.46946 -5
      vertex 28.4775 -1.46946 5
    endloop
  endfacet
  facet normal 0.743145 0.669131 0
    outer loop
      vertex 28.4775 -1.46946 -5
      vertex 28.8272 -1.85786 5
      vertex 28.8272 -1.85786 -5
    endloop
  endfacet
  facet normal 0.951056 0.30902 0
    outer loop
      vertex 28.2161 -1.01684 5
      vertex 28.0546 -0.519779 -5
      vertex 28.0546 -0.519779 5
    endloop
  endfacet
  facet normal 0.951056 0.30902 0
    outer loop
      vertex 28.0546 -0.519779 -5
      vertex 28.2161 -1.01684 5
      vertex 28.2161 -1.01684 -5
    endloop
  endfacet
  facet normal 0.994522 0.104527 0
    outer loop
      vertex 28.0546 -0.519779 5
      vertex 28 0 -5
      vertex 28 0 5
    endloop
  endfacet
  facet normal 0.994522 0.104527 0
    outer loop
      vertex 28 0 -5
      vertex 28.0546 -0.519779 5
      vertex 28.0546 -0.519779 -5
    endloop
  endfacet
  facet normal -0.406736 0.913546 0
    outer loop
      vertex 31.75 -2.16506 -5
      vertex 31.2725 -2.37764 5
      vertex 31.75 -2.16506 5
    endloop
  endfacet
  facet normal -0.406736 0.913546 0
    outer loop
      vertex 31.2725 -2.37764 5
      vertex 31.75 -2.16506 -5
      vertex 31.2725 -2.37764 -5
    endloop
  endfacet
  facet normal -0.951056 0.30902 0
    outer loop
      vertex 32.7839 -1.01684 -5
      vertex 32.9454 -0.519779 5
      vertex 32.9454 -0.519779 -5
    endloop
  endfacet
  facet normal -0.951056 0.30902 0
    outer loop
      vertex 32.9454 -0.519779 5
      vertex 32.7839 -1.01684 -5
      vertex 32.7839 -1.01684 5
    endloop
  endfacet
  facet normal -0.866025 0.500001 0
    outer loop
      vertex 32.5225 -1.46946 -5
      vertex 32.7839 -1.01684 5
      vertex 32.7839 -1.01684 -5
    endloop
  endfacet
  facet normal -0.866025 0.500001 0
    outer loop
      vertex 32.7839 -1.01684 5
      vertex 32.5225 -1.46946 -5
      vertex 32.5225 -1.46946 5
    endloop
  endfacet
  facet normal 0.406737 0.913545 -0
    outer loop
      vertex 29.7275 -2.37764 -5
      vertex 29.25 -2.16506 5
      vertex 29.7275 -2.37764 5
    endloop
  endfacet
  facet normal 0.406737 0.913545 0
    outer loop
      vertex 29.25 -2.16506 5
      vertex 29.7275 -2.37764 -5
      vertex 29.25 -2.16506 -5
    endloop
  endfacet
  facet normal 0.866026 0.499999 0
    outer loop
      vertex 28.4775 -1.46946 5
      vertex 28.2161 -1.01684 -5
      vertex 28.2161 -1.01684 5
    endloop
  endfacet
  facet normal 0.866026 0.499999 0
    outer loop
      vertex 28.2161 -1.01684 -5
      vertex 28.4775 -1.46946 5
      vertex 28.4775 -1.46946 -5
    endloop
  endfacet
  facet normal -0.994522 -0.104527 0
    outer loop
      vertex 44 0 -5
      vertex 43.9454 0.519779 5
      vertex 43.9454 0.519779 -5
    endloop
  endfacet
  facet normal -0.994522 -0.104527 0
    outer loop
      vertex 43.9454 0.519779 5
      vertex 44 0 -5
      vertex 44 0 5
    endloop
  endfacet
  facet normal 0 -1 0
    outer loop
      vertex 41.2387 2.4863 -5
      vertex 41.7613 2.4863 5
      vertex 41.2387 2.4863 5
    endloop
  endfacet
  facet normal 0 -1 -0
    outer loop
      vertex 41.7613 2.4863 5
      vertex 41.2387 2.4863 -5
      vertex 41.7613 2.4863 -5
    endloop
  endfacet
  facet normal 0 1 -0
    outer loop
      vertex 41.7613 -2.4863 -5
      vertex 41.2387 -2.4863 5
      vertex 41.7613 -2.4863 5
    endloop
  endfacet
  facet normal 0 1 0
    outer loop
      vertex 41.2387 -2.4863 5
      vertex 41.7613 -2.4863 -5
      vertex 41.2387 -2.4863 -5
    endloop
  endfacet
  facet normal -0.587787 -0.809016 0
    outer loop
      vertex 42.75 2.16506 -5
      vertex 43.1728 1.85786 5
      vertex 42.75 2.16506 5
    endloop
  endfacet
  facet normal -0.587787 -0.809016 -0
    outer loop
      vertex 43.1728 1.85786 5
      vertex 42.75 2.16506 -5
      vertex 43.1728 1.85786 -5
    endloop
  endfacet
  facet normal 0.743145 -0.669131 0
    outer loop
      vertex 39.4775 1.46946 5
      vertex 39.8272 1.85786 -5
      vertex 39.8272 1.85786 5
    endloop
  endfacet
  facet normal 0.743145 -0.669131 0
    outer loop
      vertex 39.8272 1.85786 -5
      vertex 39.4775 1.46946 5
      vertex 39.4775 1.46946 -5
    endloop
  endfacet
  facet normal 0.406738 -0.913545 0
    outer loop
      vertex 40.25 2.16506 -5
      vertex 40.7275 2.37764 5
      vertex 40.25 2.16506 5
    endloop
  endfacet
  facet normal 0.406738 -0.913545 0
    outer loop
      vertex 40.7275 2.37764 5
      vertex 40.25 2.16506 -5
      vertex 40.7275 2.37764 -5
    endloop
  endfacet
  facet normal -0.866025 0.500001 0
    outer loop
      vertex 43.5225 -1.46946 -5
      vertex 43.7839 -1.01684 5
      vertex 43.7839 -1.01684 -5
    endloop
  endfacet
  facet normal -0.866025 0.500001 0
    outer loop
      vertex 43.7839 -1.01684 5
      vertex 43.5225 -1.46946 -5
      vertex 43.5225 -1.46946 5
    endloop
  endfacet
  facet normal -0.866025 -0.500001 0
    outer loop
      vertex 43.7839 1.01684 -5
      vertex 43.5225 1.46946 5
      vertex 43.5225 1.46946 -5
    endloop
  endfacet
  facet normal -0.866025 -0.500001 0
    outer loop
      vertex 43.5225 1.46946 5
      vertex 43.7839 1.01684 -5
      vertex 43.7839 1.01684 5
    endloop
  endfacet
  facet normal -0.951056 -0.30902 0
    outer loop
      vertex 43.9454 0.519779 -5
      vertex 43.7839 1.01684 5
      vertex 43.7839 1.01684 -5
    endloop
  endfacet
  facet normal -0.951056 -0.30902 0
    outer loop
      vertex 43.7839 1.01684 5
      vertex 43.9454 0.519779 -5
      vertex 43.9454 0.519779 5
    endloop
  endfacet
  facet normal -0.743145 -0.669131 0
    outer loop
      vertex 43.5225 1.46946 -5
      vertex 43.1728 1.85786 5
      vertex 43.1728 1.85786 -5
    endloop
  endfacet
  facet normal -0.743145 -0.669131 0
    outer loop
      vertex 43.1728 1.85786 5
      vertex 43.5225 1.46946 -5
      vertex 43.5225 1.46946 5
    endloop
  endfacet
  facet normal -0.207913 -0.978147 0
    outer loop
      vertex 41.7613 2.4863 -5
      vertex 42.2725 2.37764 5
      vertex 41.7613 2.4863 5
    endloop
  endfacet
  facet normal -0.207913 -0.978147 -0
    outer loop
      vertex 42.2725 2.37764 5
      vertex 41.7613 2.4863 -5
      vertex 42.2725 2.37764 -5
    endloop
  endfacet
  facet normal -0.406736 -0.913546 0
    outer loop
      vertex 42.2725 2.37764 -5
      vertex 42.75 2.16506 5
      vertex 42.2725 2.37764 5
    endloop
  endfacet
  facet normal -0.406736 -0.913546 -0
    outer loop
      vertex 42.75 2.16506 5
      vertex 42.2725 2.37764 -5
      vertex 42.75 2.16506 -5
    endloop
  endfacet
  facet normal 0.951056 -0.30902 0
    outer loop
      vertex 39.0546 0.519779 5
      vertex 39.2161 1.01684 -5
      vertex 39.2161 1.01684 5
    endloop
  endfacet
  facet normal 0.951056 -0.30902 0
    outer loop
      vertex 39.2161 1.01684 -5
      vertex 39.0546 0.519779 5
      vertex 39.0546 0.519779 -5
    endloop
  endfacet
  facet normal 0.866028 -0.499996 0
    outer loop
      vertex 39.2161 1.01684 5
      vertex 39.4775 1.46946 -5
      vertex 39.4775 1.46946 5
    endloop
  endfacet
  facet normal 0.866028 -0.499996 0
    outer loop
      vertex 39.4775 1.46946 -5
      vertex 39.2161 1.01684 5
      vertex 39.2161 1.01684 -5
    endloop
  endfacet
  facet normal 0.994522 -0.104527 0
    outer loop
      vertex 39 0 5
      vertex 39.0546 0.519779 -5
      vertex 39.0546 0.519779 5
    endloop
  endfacet
  facet normal 0.994522 -0.104527 0
    outer loop
      vertex 39.0546 0.519779 -5
      vertex 39 0 5
      vertex 39 0 -5
    endloop
  endfacet
  facet normal 0.587783 -0.809018 0
    outer loop
      vertex 39.8272 1.85786 -5
      vertex 40.25 2.16506 5
      vertex 39.8272 1.85786 5
    endloop
  endfacet
  facet normal 0.587783 -0.809018 0
    outer loop
      vertex 40.25 2.16506 5
      vertex 39.8272 1.85786 -5
      vertex 40.25 2.16506 -5
    endloop
  endfacet
  facet normal 0.207911 -0.978148 0
    outer loop
      vertex 40.7275 2.37764 -5
      vertex 41.2387 2.4863 5
      vertex 40.7275 2.37764 5
    endloop
  endfacet
  facet normal 0.207911 -0.978148 0
    outer loop
      vertex 41.2387 2.4863 5
      vertex 40.7275 2.37764 -5
      vertex 41.2387 2.4863 -5
    endloop
  endfacet
  facet normal -0.207913 0.978147 0
    outer loop
      vertex 42.2725 -2.37764 -5
      vertex 41.7613 -2.4863 5
      vertex 42.2725 -2.37764 5
    endloop
  endfacet
  facet normal -0.207913 0.978147 0
    outer loop
      vertex 41.7613 -2.4863 5
      vertex 42.2725 -2.37764 -5
      vertex 41.7613 -2.4863 -5
    endloop
  endfacet
  facet normal -0.587787 0.809016 0
    outer loop
      vertex 43.1728 -1.85786 -5
      vertex 42.75 -2.16506 5
      vertex 43.1728 -1.85786 5
    endloop
  endfacet
  facet normal -0.587787 0.809016 0
    outer loop
      vertex 42.75 -2.16506 5
      vertex 43.1728 -1.85786 -5
      vertex 42.75 -2.16506 -5
    endloop
  endfacet
  facet normal 0.587783 0.809018 -0
    outer loop
      vertex 40.25 -2.16506 -5
      vertex 39.8272 -1.85786 5
      vertex 40.25 -2.16506 5
    endloop
  endfacet
  facet normal 0.587783 0.809018 0
    outer loop
      vertex 39.8272 -1.85786 5
      vertex 40.25 -2.16506 -5
      vertex 39.8272 -1.85786 -5
    endloop
  endfacet
  facet normal 0.207911 0.978148 -0
    outer loop
      vertex 41.2387 -2.4863 -5
      vertex 40.7275 -2.37764 5
      vertex 41.2387 -2.4863 5
    endloop
  endfacet
  facet normal 0.207911 0.978148 0
    outer loop
      vertex 40.7275 -2.37764 5
      vertex 41.2387 -2.4863 -5
      vertex 40.7275 -2.37764 -5
    endloop
  endfacet
  facet normal 0.743145 0.669131 0
    outer loop
      vertex 39.8272 -1.85786 5
      vertex 39.4775 -1.46946 -5
      vertex 39.4775 -1.46946 5
    endloop
  endfacet
  facet normal 0.743145 0.669131 0
    outer loop
      vertex 39.4775 -1.46946 -5
      vertex 39.8272 -1.85786 5
      vertex 39.8272 -1.85786 -5
    endloop
  endfacet
  facet normal 0.951056 0.30902 0
    outer loop
      vertex 39.2161 -1.01684 5
      vertex 39.0546 -0.519779 -5
      vertex 39.0546 -0.519779 5
    endloop
  endfacet
  facet normal 0.951056 0.30902 0
    outer loop
      vertex 39.0546 -0.519779 -5
      vertex 39.2161 -1.01684 5
      vertex 39.2161 -1.01684 -5
    endloop
  endfacet
  facet normal 0.994522 0.104527 0
    outer loop
      vertex 39.0546 -0.519779 5
      vertex 39 0 -5
      vertex 39 0 5
    endloop
  endfacet
  facet normal 0.994522 0.104527 0
    outer loop
      vertex 39 0 -5
      vertex 39.0546 -0.519779 5
      vertex 39.0546 -0.519779 -5
    endloop
  endfacet
  facet normal -0.406736 0.913546 0
    outer loop
      vertex 42.75 -2.16506 -5
      vertex 42.2725 -2.37764 5
      vertex 42.75 -2.16506 5
    endloop
  endfacet
  facet normal -0.406736 0.913546 0
    outer loop
      vertex 42.2725 -2.37764 5
      vertex 42.75 -2.16506 -5
      vertex 42.2725 -2.37764 -5
    endloop
  endfacet
  facet normal -0.743145 0.669131 0
    outer loop
      vertex 43.1728 -1.85786 -5
      vertex 43.5225 -1.46946 5
      vertex 43.5225 -1.46946 -5
    endloop
  endfacet
  facet normal -0.743145 0.669131 0
    outer loop
      vertex 43.5225 -1.46946 5
      vertex 43.1728 -1.85786 -5
      vertex 43.1728 -1.85786 5
    endloop
  endfacet
  facet normal -0.951056 0.30902 0
    outer loop
      vertex 43.7839 -1.01684 -5
      vertex 43.9454 -0.519779 5
      vertex 43.9454 -0.519779 -5
    endloop
  endfacet
  facet normal -0.951056 0.30902 0
    outer loop
      vertex 43.9454 -0.519779 5
      vertex 43.7839 -1.01684 -5
      vertex 43.7839 -1.01684 5
    endloop
  endfacet
  facet normal -0.994522 0.104527 0
    outer loop
      vertex 43.9454 -0.519779 -5
      vertex 44 0 5
      vertex 44 0 -5
    endloop
  endfacet
  facet normal -0.994522 0.104527 0
    outer loop
      vertex 44 0 5
      vertex 43.9454 -0.519779 -5
      vertex 43.9454 -0.519779 5
    endloop
  endfacet
  facet normal 0.406738 0.913545 -0
    outer loop
      vertex 40.7275 -2.37764 -5
      vertex 40.25 -2.16506 5
      vertex 40.7275 -2.37764 5
    endloop
  endfacet
  facet normal 0.406738 0.913545 0
    outer loop
      vertex 40.25 -2.16506 5
      vertex 40.7275 -2.37764 -5
      vertex 40.25 -2.16506 -5
    endloop
  endfacet
  facet normal 0.866028 0.499996 0
    outer loop
      vertex 39.4775 -1.46946 5
      vertex 39.2161 -1.01684 -5
      vertex 39.2161 -1.01684 5
    endloop
  endfacet
  facet normal 0.866028 0.499996 0
    outer loop
      vertex 39.2161 -1.01684 -5
      vertex 39.4775 -1.46946 5
      vertex 39.4775 -1.46946 -5
    endloop
  endfacet
endsolid OpenSCAD_Model
