solid OpenSCAD_Model
  facet normal 0.994522 -0.104529 0
    outer loop
      vertex 1.9563 -4.91582 6
      vertex 2 -4.5 2
      vertex 2 -4.5 6
    endloop
  endfacet
  facet normal 0.994522 -0.104529 0
    outer loop
      vertex 2 -4.5 2
      vertex 1.9563 -4.91582 6
      vertex 2 -4.5 -2
    endloop
  endfacet
  facet normal 0.994522 -0.104529 0
    outer loop
      vertex 1.9563 -4.91582 -6
      vertex 2 -4.5 -2
      vertex 1.9563 -4.91582 6
    endloop
  endfacet
  facet normal 0.994522 -0.104529 0
    outer loop
      vertex 2 -4.5 -2
      vertex 1.9563 -4.91582 -6
      vertex 2 -4.5 -6
    endloop
  endfacet
  facet normal 0 -1 0
    outer loop
      vertex -2.20906 -6.48904 -6
      vertex 0.209057 -6.48904 6
      vertex -2.20906 -6.48904 6
    endloop
  endfacet
  facet normal 0 -1 -0
    outer loop
      vertex 0.209057 -6.48904 6
      vertex -2.20906 -6.48904 -6
      vertex 0.209057 -6.48904 -6
    endloop
  endfacet
  facet normal 1 -0 0
    outer loop
      vertex 2 -4.5 -2
      vertex 2 4.5 -6
      vertex 2 4.5 -2
    endloop
  endfacet
  facet normal 1 0 0
    outer loop
      vertex 2 4.5 -6
      vertex 2 -4.5 -2
      vertex 2 -4.5 -6
    endloop
  endfacet
  facet normal 1 -0 0
    outer loop
      vertex 2 -4.5 6
      vertex 2 4.5 2
      vertex 2 4.5 6
    endloop
  endfacet
  facet normal 1 0 0
    outer loop
      vertex 2 4.5 2
      vertex 2 -4.5 6
      vertex 2 -4.5 2
    endloop
  endfacet
  facet normal 0.207911 0.978148 -0
    outer loop
      vertex 0.618033 6.40211 -6
      vertex 0.209057 6.48904 6
      vertex 0.618033 6.40211 6
    endloop
  endfacet
  facet normal 0.207911 0.978148 0
    outer loop
      vertex 0.209057 6.48904 6
      vertex 0.618033 6.40211 -6
      vertex 0.209057 6.48904 -6
    endloop
  endfacet
  facet normal 0.866026 -0.499999 0
    outer loop
      vertex 1.61803 -5.67557 6
      vertex 1.82709 -5.31347 -6
      vertex 1.82709 -5.31347 6
    endloop
  endfacet
  facet normal 0.866026 -0.499999 0
    outer loop
      vertex 1.82709 -5.31347 -6
      vertex 1.61803 -5.67557 6
      vertex 1.61803 -5.67557 -6
    endloop
  endfacet
  facet normal 0.743144 -0.669131 0
    outer loop
      vertex 1.33826 -5.98629 6
      vertex 1.61803 -5.67557 -6
      vertex 1.61803 -5.67557 6
    endloop
  endfacet
  facet normal 0.743144 -0.669131 0
    outer loop
      vertex 1.61803 -5.67557 -6
      vertex 1.33826 -5.98629 6
      vertex 1.33826 -5.98629 -6
    endloop
  endfacet
  facet normal -0.994522 -0.104529 0
    outer loop
      vertex -3.9563 -4.91582 -6
      vertex -4 -4.5 6
      vertex -4 -4.5 -6
    endloop
  endfacet
  facet normal -0.994522 -0.104529 0
    outer loop
      vertex -4 -4.5 6
      vertex -3.9563 -4.91582 -6
      vertex -3.9563 -4.91582 6
    endloop
  endfacet
  facet normal 0.994522 0.104529 -0
    outer loop
      vertex 2 4.5 2
      vertex 1.9563 4.91582 6
      vertex 2 4.5 6
    endloop
  endfacet
  facet normal 0.994522 0.104529 0
    outer loop
      vertex 1.9563 4.91582 6
      vertex 2 4.5 2
      vertex 1.9563 4.91582 -6
    endloop
  endfacet
  facet normal 0.994522 0.104529 -0
    outer loop
      vertex 2 4.5 -2
      vertex 1.9563 4.91582 -6
      vertex 2 4.5 2
    endloop
  endfacet
  facet normal 0.994522 0.104529 0
    outer loop
      vertex 1.9563 4.91582 -6
      vertex 2 4.5 -2
      vertex 2 4.5 -6
    endloop
  endfacet
  facet normal 0.587786 -0.809017 0
    outer loop
      vertex 1 -6.23205 -6
      vertex 1.33826 -5.98629 6
      vertex 1 -6.23205 6
    endloop
  endfacet
  facet normal 0.587786 -0.809017 0
    outer loop
      vertex 1.33826 -5.98629 6
      vertex 1 -6.23205 -6
      vertex 1.33826 -5.98629 -6
    endloop
  endfacet
  facet normal 0.951056 -0.309018 0
    outer loop
      vertex 1.82709 -5.31347 6
      vertex 1.9563 -4.91582 -6
      vertex 1.9563 -4.91582 6
    endloop
  endfacet
  facet normal 0.951056 -0.309018 0
    outer loop
      vertex 1.9563 -4.91582 -6
      vertex 1.82709 -5.31347 6
      vertex 1.82709 -5.31347 -6
    endloop
  endfacet
  facet normal 0.207911 -0.978148 0
    outer loop
      vertex 0.209057 -6.48904 -6
      vertex 0.618033 -6.40211 6
      vertex 0.209057 -6.48904 6
    endloop
  endfacet
  facet normal 0.207911 -0.978148 0
    outer loop
      vertex 0.618033 -6.40211 6
      vertex 0.209057 -6.48904 -6
      vertex 0.618033 -6.40211 -6
    endloop
  endfacet
  facet normal 0.406738 -0.913545 0
    outer loop
      vertex 0.618033 -6.40211 -6
      vertex 1 -6.23205 6
      vertex 0.618033 -6.40211 6
    endloop
  endfacet
  facet normal 0.406738 -0.913545 0
    outer loop
      vertex 1 -6.23205 6
      vertex 0.618033 -6.40211 -6
      vertex 1 -6.23205 -6
    endloop
  endfacet
  facet normal -0.587786 -0.809017 0
    outer loop
      vertex -3.33826 -5.98629 -6
      vertex -3 -6.23205 6
      vertex -3.33826 -5.98629 6
    endloop
  endfacet
  facet normal -0.587786 -0.809017 -0
    outer loop
      vertex -3 -6.23205 6
      vertex -3.33826 -5.98629 -6
      vertex -3 -6.23205 -6
    endloop
  endfacet
  facet normal 0 0 1
    outer loop
      vertex 0.209057 6.48904 6
      vertex 2 4.5 6
      vertex 1.9563 4.91582 6
    endloop
  endfacet
  facet normal 0 0 1
    outer loop
      vertex 2 4.5 6
      vertex -4 4.5 6
      vertex 2 -4.5 6
    endloop
  endfacet
  facet normal 0 0 1
    outer loop
      vertex 0.209057 6.48904 6
      vertex 1.9563 4.91582 6
      vertex 1.82709 5.31347 6
    endloop
  endfacet
  facet normal -0 0 1
    outer loop
      vertex -4 -4.5 6
      vertex 2 -4.5 6
      vertex -4 4.5 6
    endloop
  endfacet
  facet normal 0 0 1
    outer loop
      vertex 0.209057 6.48904 6
      vertex 1.82709 5.31347 6
      vertex 1.61803 5.67557 6
    endloop
  endfacet
  facet normal 0 -0 1
    outer loop
      vertex 0.209057 -6.48904 6
      vertex 2 -4.5 6
      vertex -4 -4.5 6
    endloop
  endfacet
  facet normal 0 0 1
    outer loop
      vertex 0.209057 6.48904 6
      vertex 1.61803 5.67557 6
      vertex 1.33826 5.98629 6
    endloop
  endfacet
  facet normal 0 0 1
    outer loop
      vertex 2 -4.5 6
      vertex 0.209057 -6.48904 6
      vertex 1.9563 -4.91582 6
    endloop
  endfacet
  facet normal 0 0 1
    outer loop
      vertex 0.209057 6.48904 6
      vertex 1.33826 5.98629 6
      vertex 1 6.23205 6
    endloop
  endfacet
  facet normal 0 0 1
    outer loop
      vertex 1.9563 -4.91582 6
      vertex 0.209057 -6.48904 6
      vertex 1.82709 -5.31347 6
    endloop
  endfacet
  facet normal 0 0 1
    outer loop
      vertex 0.209057 6.48904 6
      vertex 1 6.23205 6
      vertex 0.618033 6.40211 6
    endloop
  endfacet
  facet normal 0 0 1
    outer loop
      vertex 1.82709 -5.31347 6
      vertex 0.209057 -6.48904 6
      vertex 1.61803 -5.67557 6
    endloop
  endfacet
  facet normal 0 0 1
    outer loop
      vertex 2 4.5 6
      vertex 0.209057 6.48904 6
      vertex -4 4.5 6
    endloop
  endfacet
  facet normal 0 0 1
    outer loop
      vertex 1.61803 -5.67557 6
      vertex 0.209057 -6.48904 6
      vertex 1.33826 -5.98629 6
    endloop
  endfacet
  facet normal 0 0 1
    outer loop
      vertex -4 4.5 6
      vertex 0.209057 6.48904 6
      vertex -2.20906 6.48904 6
    endloop
  endfacet
  facet normal 0 0 1
    outer loop
      vertex 1.33826 -5.98629 6
      vertex 0.209057 -6.48904 6
      vertex 1 -6.23205 6
    endloop
  endfacet
  facet normal 0 0 1
    outer loop
      vertex -4 4.5 6
      vertex -2.20906 6.48904 6
      vertex -2.61803 6.40211 6
    endloop
  endfacet
  facet normal 0 0 1
    outer loop
      vertex 1 -6.23205 6
      vertex 0.209057 -6.48904 6
      vertex 0.618033 -6.40211 6
    endloop
  endfacet
  facet normal 0 0 1
    outer loop
      vertex -4 4.5 6
      vertex -2.61803 6.40211 6
      vertex -3 6.23205 6
    endloop
  endfacet
  facet normal 0 0 1
    outer loop
      vertex 0.209057 -6.48904 6
      vertex -4 -4.5 6
      vertex -2.20906 -6.48904 6
    endloop
  endfacet
  facet normal 0 0 1
    outer loop
      vertex -4 4.5 6
      vertex -3 6.23205 6
      vertex -3.33826 5.98629 6
    endloop
  endfacet
  facet normal 0 0 1
    outer loop
      vertex -2.20906 -6.48904 6
      vertex -4 -4.5 6
      vertex -2.61803 -6.40211 6
    endloop
  endfacet
  facet normal 0 0 1
    outer loop
      vertex -4 4.5 6
      vertex -3.33826 5.98629 6
      vertex -3.61803 5.67557 6
    endloop
  endfacet
  facet normal 0 0 1
    outer loop
      vertex -2.61803 -6.40211 6
      vertex -4 -4.5 6
      vertex -3 -6.23205 6
    endloop
  endfacet
  facet normal 0 0 1
    outer loop
      vertex -4 4.5 6
      vertex -3.61803 5.67557 6
      vertex -3.82709 5.31347 6
    endloop
  endfacet
  facet normal 0 0 1
    outer loop
      vertex -3 -6.23205 6
      vertex -4 -4.5 6
      vertex -3.33826 -5.98629 6
    endloop
  endfacet
  facet normal 0 0 1
    outer loop
      vertex -4 4.5 6
      vertex -3.82709 5.31347 6
      vertex -3.9563 4.91582 6
    endloop
  endfacet
  facet normal 0 0 1
    outer loop
      vertex -3.33826 -5.98629 6
      vertex -4 -4.5 6
      vertex -3.61803 -5.67557 6
    endloop
  endfacet
  facet normal 0 0 1
    outer loop
      vertex -3.61803 -5.67557 6
      vertex -4 -4.5 6
      vertex -3.82709 -5.31347 6
    endloop
  endfacet
  facet normal 0 0 1
    outer loop
      vertex -3.82709 -5.31347 6
      vertex -4 -4.5 6
      vertex -3.9563 -4.91582 6
    endloop
  endfacet
  facet normal -0.207911 0.978148 0
    outer loop
      vertex -2.20906 6.48904 -6
      vertex -2.61803 6.40211 6
      vertex -2.20906 6.48904 6
    endloop
  endfacet
  facet normal -0.207911 0.978148 0
    outer loop
      vertex -2.61803 6.40211 6
      vertex -2.20906 6.48904 -6
      vertex -2.61803 6.40211 -6
    endloop
  endfacet
  facet normal 0.743144 0.669131 0
    outer loop
      vertex 1.61803 5.67557 6
      vertex 1.33826 5.98629 -6
      vertex 1.33826 5.98629 6
    endloop
  endfacet
  facet normal 0.743144 0.669131 0
    outer loop
      vertex 1.33826 5.98629 -6
      vertex 1.61803 5.67557 6
      vertex 1.61803 5.67557 -6
    endloop
  endfacet
  facet normal -0.743144 -0.669131 0
    outer loop
      vertex -3.33826 -5.98629 -6
      vertex -3.61803 -5.67557 6
      vertex -3.61803 -5.67557 -6
    endloop
  endfacet
  facet normal -0.743144 -0.669131 0
    outer loop
      vertex -3.61803 -5.67557 6
      vertex -3.33826 -5.98629 -6
      vertex -3.33826 -5.98629 6
    endloop
  endfacet
  facet normal -0.951056 -0.309018 0
    outer loop
      vertex -3.82709 -5.31347 -6
      vertex -3.9563 -4.91582 6
      vertex -3.9563 -4.91582 -6
    endloop
  endfacet
  facet normal -0.951056 -0.309018 0
    outer loop
      vertex -3.9563 -4.91582 6
      vertex -3.82709 -5.31347 -6
      vertex -3.82709 -5.31347 6
    endloop
  endfacet
  facet normal -0.994522 0.104529 0
    outer loop
      vertex -4 4.5 -6
      vertex -3.9563 4.91582 6
      vertex -3.9563 4.91582 -6
    endloop
  endfacet
  facet normal -0.994522 0.104529 0
    outer loop
      vertex -3.9563 4.91582 6
      vertex -4 4.5 -6
      vertex -4 4.5 6
    endloop
  endfacet
  facet normal -1 0 0
    outer loop
      vertex -4 -4.5 -6
      vertex -4 4.5 6
      vertex -4 4.5 -6
    endloop
  endfacet
  facet normal -1 -0 0
    outer loop
      vertex -4 4.5 6
      vertex -4 -4.5 -6
      vertex -4 -4.5 6
    endloop
  endfacet
  facet normal 0 0 -1
    outer loop
      vertex 0.209057 -6.48904 -6
      vertex 2 -4.5 -6
      vertex 1.9563 -4.91582 -6
    endloop
  endfacet
  facet normal 0 0 -1
    outer loop
      vertex 2 -4.5 -6
      vertex -4 -4.5 -6
      vertex 2 4.5 -6
    endloop
  endfacet
  facet normal 0 0 -1
    outer loop
      vertex 0.209057 -6.48904 -6
      vertex 1.9563 -4.91582 -6
      vertex 1.82709 -5.31347 -6
    endloop
  endfacet
  facet normal 0 0 -1
    outer loop
      vertex -4 4.5 -6
      vertex 2 4.5 -6
      vertex -4 -4.5 -6
    endloop
  endfacet
  facet normal 0 0 -1
    outer loop
      vertex 0.209057 -6.48904 -6
      vertex 1.82709 -5.31347 -6
      vertex 1.61803 -5.67557 -6
    endloop
  endfacet
  facet normal 0 -0 -1
    outer loop
      vertex 0.209057 6.48904 -6
      vertex 2 4.5 -6
      vertex -4 4.5 -6
    endloop
  endfacet
  facet normal 0 0 -1
    outer loop
      vertex 0.209057 -6.48904 -6
      vertex 1.61803 -5.67557 -6
      vertex 1.33826 -5.98629 -6
    endloop
  endfacet
  facet normal 0 0 -1
    outer loop
      vertex 2 4.5 -6
      vertex 0.209057 6.48904 -6
      vertex 1.9563 4.91582 -6
    endloop
  endfacet
  facet normal 0 0 -1
    outer loop
      vertex 0.209057 -6.48904 -6
      vertex 1.33826 -5.98629 -6
      vertex 1 -6.23205 -6
    endloop
  endfacet
  facet normal 0 0 -1
    outer loop
      vertex 1.9563 4.91582 -6
      vertex 0.209057 6.48904 -6
      vertex 1.82709 5.31347 -6
    endloop
  endfacet
  facet normal 0 0 -1
    outer loop
      vertex 0.209057 -6.48904 -6
      vertex 1 -6.23205 -6
      vertex 0.618033 -6.40211 -6
    endloop
  endfacet
  facet normal 0 0 -1
    outer loop
      vertex 1.82709 5.31347 -6
      vertex 0.209057 6.48904 -6
      vertex 1.61803 5.67557 -6
    endloop
  endfacet
  facet normal -0 0 -1
    outer loop
      vertex 2 -4.5 -6
      vertex 0.209057 -6.48904 -6
      vertex -4 -4.5 -6
    endloop
  endfacet
  facet normal 0 0 -1
    outer loop
      vertex 1.61803 5.67557 -6
      vertex 0.209057 6.48904 -6
      vertex 1.33826 5.98629 -6
    endloop
  endfacet
  facet normal 0 0 -1
    outer loop
      vertex -4 -4.5 -6
      vertex 0.209057 -6.48904 -6
      vertex -2.20906 -6.48904 -6
    endloop
  endfacet
  facet normal 0 0 -1
    outer loop
      vertex 1.33826 5.98629 -6
      vertex 0.209057 6.48904 -6
      vertex 1 6.23205 -6
    endloop
  endfacet
  facet normal 0 0 -1
    outer loop
      vertex -4 -4.5 -6
      vertex -2.20906 -6.48904 -6
      vertex -2.61803 -6.40211 -6
    endloop
  endfacet
  facet normal 0 0 -1
    outer loop
      vertex 1 6.23205 -6
      vertex 0.209057 6.48904 -6
      vertex 0.618033 6.40211 -6
    endloop
  endfacet
  facet normal 0 0 -1
    outer loop
      vertex -2.20906 6.48904 -6
      vertex -4 4.5 -6
      vertex -2.61803 6.40211 -6
    endloop
  endfacet
  facet normal 0 0 -1
    outer loop
      vertex -4 -4.5 -6
      vertex -2.61803 -6.40211 -6
      vertex -3 -6.23205 -6
    endloop
  endfacet
  facet normal 0 0 -1
    outer loop
      vertex -4 -4.5 -6
      vertex -3 -6.23205 -6
      vertex -3.33826 -5.98629 -6
    endloop
  endfacet
  facet normal -0 0 -1
    outer loop
      vertex 0.209057 6.48904 -6
      vertex -4 4.5 -6
      vertex -2.20906 6.48904 -6
    endloop
  endfacet
  facet normal 0 0 -1
    outer loop
      vertex -4 -4.5 -6
      vertex -3.33826 -5.98629 -6
      vertex -3.61803 -5.67557 -6
    endloop
  endfacet
  facet normal 0 0 -1
    outer loop
      vertex -2.61803 6.40211 -6
      vertex -4 4.5 -6
      vertex -3 6.23205 -6
    endloop
  endfacet
  facet normal 0 0 -1
    outer loop
      vertex -4 -4.5 -6
      vertex -3.61803 -5.67557 -6
      vertex -3.82709 -5.31347 -6
    endloop
  endfacet
  facet normal 0 0 -1
    outer loop
      vertex -3 6.23205 -6
      vertex -4 4.5 -6
      vertex -3.33826 5.98629 -6
    endloop
  endfacet
  facet normal 0 0 -1
    outer loop
      vertex -4 -4.5 -6
      vertex -3.82709 -5.31347 -6
      vertex -3.9563 -4.91582 -6
    endloop
  endfacet
  facet normal 0 0 -1
    outer loop
      vertex -3.33826 5.98629 -6
      vertex -4 4.5 -6
      vertex -3.61803 5.67557 -6
    endloop
  endfacet
  facet normal 0 0 -1
    outer loop
      vertex -3.61803 5.67557 -6
      vertex -4 4.5 -6
      vertex -3.82709 5.31347 -6
    endloop
  endfacet
  facet normal 0 0 -1
    outer loop
      vertex -3.82709 5.31347 -6
      vertex -4 4.5 -6
      vertex -3.9563 4.91582 -6
    endloop
  endfacet
  facet normal -0.743144 0.669131 0
    outer loop
      vertex -3.61803 5.67557 -6
      vertex -3.33826 5.98629 6
      vertex -3.33826 5.98629 -6
    endloop
  endfacet
  facet normal -0.743144 0.669131 0
    outer loop
      vertex -3.33826 5.98629 6
      vertex -3.61803 5.67557 -6
      vertex -3.61803 5.67557 6
    endloop
  endfacet
  facet normal 0 1 -0
    outer loop
      vertex 0.209057 6.48904 -6
      vertex -2.20906 6.48904 6
      vertex 0.209057 6.48904 6
    endloop
  endfacet
  facet normal 0 1 0
    outer loop
      vertex -2.20906 6.48904 6
      vertex 0.209057 6.48904 -6
      vertex -2.20906 6.48904 -6
    endloop
  endfacet
  facet normal -0.207911 -0.978148 0
    outer loop
      vertex -2.61803 -6.40211 -6
      vertex -2.20906 -6.48904 6
      vertex -2.61803 -6.40211 6
    endloop
  endfacet
  facet normal -0.207911 -0.978148 -0
    outer loop
      vertex -2.20906 -6.48904 6
      vertex -2.61803 -6.40211 -6
      vertex -2.20906 -6.48904 -6
    endloop
  endfacet
  facet normal -0.406738 -0.913545 0
    outer loop
      vertex -3 -6.23205 -6
      vertex -2.61803 -6.40211 6
      vertex -3 -6.23205 6
    endloop
  endfacet
  facet normal -0.406738 -0.913545 -0
    outer loop
      vertex -2.61803 -6.40211 6
      vertex -3 -6.23205 -6
      vertex -2.61803 -6.40211 -6
    endloop
  endfacet
  facet normal -0.866026 -0.499999 0
    outer loop
      vertex -3.61803 -5.67557 -6
      vertex -3.82709 -5.31347 6
      vertex -3.82709 -5.31347 -6
    endloop
  endfacet
  facet normal -0.866026 -0.499999 0
    outer loop
      vertex -3.82709 -5.31347 6
      vertex -3.61803 -5.67557 -6
      vertex -3.61803 -5.67557 6
    endloop
  endfacet
  facet normal -0.951056 0.309018 0
    outer loop
      vertex -3.9563 4.91582 -6
      vertex -3.82709 5.31347 6
      vertex -3.82709 5.31347 -6
    endloop
  endfacet
  facet normal -0.951056 0.309018 0
    outer loop
      vertex -3.82709 5.31347 6
      vertex -3.9563 4.91582 -6
      vertex -3.9563 4.91582 6
    endloop
  endfacet
  facet normal -0.866026 0.499999 0
    outer loop
      vertex -3.82709 5.31347 -6
      vertex -3.61803 5.67557 6
      vertex -3.61803 5.67557 -6
    endloop
  endfacet
  facet normal -0.866026 0.499999 0
    outer loop
      vertex -3.61803 5.67557 6
      vertex -3.82709 5.31347 -6
      vertex -3.82709 5.31347 6
    endloop
  endfacet
  facet normal -0.587784 0.809018 0
    outer loop
      vertex -3 6.23205 -6
      vertex -3.33826 5.98629 6
      vertex -3 6.23205 6
    endloop
  endfacet
  facet normal -0.587784 0.809018 0
    outer loop
      vertex -3.33826 5.98629 6
      vertex -3 6.23205 -6
      vertex -3.33826 5.98629 -6
    endloop
  endfacet
  facet normal 0.587786 0.809017 -0
    outer loop
      vertex 1.33826 5.98629 -6
      vertex 1 6.23205 6
      vertex 1.33826 5.98629 6
    endloop
  endfacet
  facet normal 0.587786 0.809017 0
    outer loop
      vertex 1 6.23205 6
      vertex 1.33826 5.98629 -6
      vertex 1 6.23205 -6
    endloop
  endfacet
  facet normal 0.406738 0.913545 -0
    outer loop
      vertex 1 6.23205 -6
      vertex 0.618033 6.40211 6
      vertex 1 6.23205 6
    endloop
  endfacet
  facet normal 0.406738 0.913545 0
    outer loop
      vertex 0.618033 6.40211 6
      vertex 1 6.23205 -6
      vertex 0.618033 6.40211 -6
    endloop
  endfacet
  facet normal 0.866026 0.499999 0
    outer loop
      vertex 1.82709 5.31347 6
      vertex 1.61803 5.67557 -6
      vertex 1.61803 5.67557 6
    endloop
  endfacet
  facet normal 0.866026 0.499999 0
    outer loop
      vertex 1.61803 5.67557 -6
      vertex 1.82709 5.31347 6
      vertex 1.82709 5.31347 -6
    endloop
  endfacet
  facet normal 0.951056 0.309018 0
    outer loop
      vertex 1.9563 4.91582 6
      vertex 1.82709 5.31347 -6
      vertex 1.82709 5.31347 6
    endloop
  endfacet
  facet normal 0.951056 0.309018 0
    outer loop
      vertex 1.82709 5.31347 -6
      vertex 1.9563 4.91582 6
      vertex 1.9563 4.91582 -6
    endloop
  endfacet
  facet normal -0.406739 0.913545 0
    outer loop
      vertex -2.61803 6.40211 -6
      vertex -3 6.23205 6
      vertex -2.61803 6.40211 6
    endloop
  endfacet
  facet normal -0.406739 0.913545 0
    outer loop
      vertex -3 6.23205 6
      vertex -2.61803 6.40211 -6
      vertex -3 6.23205 -6
    endloop
  endfacet
  facet normal -0 0 1
    outer loop
      vertex 2 4.5 2
      vertex 3.6 -4.5 2
      vertex 3.6 4.5 2
    endloop
  endfacet
  facet normal 0 0 1
    outer loop
      vertex 2 -4.5 2
      vertex 3.6 -4.5 2
      vertex 2 4.5 2
    endloop
  endfacet
  facet normal -1 0 0
    outer loop
      vertex 3.6 -4.5 2
      vertex 3.6 4.5 6
      vertex 3.6 4.5 2
    endloop
  endfacet
  facet normal -1 -0 0
    outer loop
      vertex 3.6 4.5 6
      vertex 3.6 -4.5 2
      vertex 3.6 -4.5 6
    endloop
  endfacet
  facet normal -1 0 0
    outer loop
      vertex 3.6 -4.5 -6
      vertex 3.6 4.5 -2
      vertex 3.6 4.5 -6
    endloop
  endfacet
  facet normal -1 -0 0
    outer loop
      vertex 3.6 4.5 -2
      vertex 3.6 -4.5 -6
      vertex 3.6 -4.5 -2
    endloop
  endfacet
  facet normal 0 1 -0
    outer loop
      vertex 3.6 4.5 -2
      vertex 2 4.5 2
      vertex 3.6 4.5 2
    endloop
  endfacet
  facet normal 0 1 0
    outer loop
      vertex 2 4.5 2
      vertex 3.6 4.5 -2
      vertex 2 4.5 -2
    endloop
  endfacet
  facet normal -0 0 -1
    outer loop
      vertex 3.6 -4.5 -2
      vertex 2 -4.5 -2
      vertex 3.6 4.5 -2
    endloop
  endfacet
  facet normal -0 0 -1
    outer loop
      vertex 3.6 4.5 -2
      vertex 2 -4.5 -2
      vertex 2 4.5 -2
    endloop
  endfacet
  facet normal 0 -1 0
    outer loop
      vertex 2 -4.5 -2
      vertex 3.6 -4.5 2
      vertex 2 -4.5 2
    endloop
  endfacet
  facet normal 0 -1 -0
    outer loop
      vertex 3.6 -4.5 2
      vertex 2 -4.5 -2
      vertex 3.6 -4.5 -2
    endloop
  endfacet
  facet normal 0.994522 -0.104529 0
    outer loop
      vertex 9.55629 -4.91582 6
      vertex 9.6 -4.5 2
      vertex 9.6 -4.5 6
    endloop
  endfacet
  facet normal 0.994522 -0.104529 0
    outer loop
      vertex 9.6 -4.5 2
      vertex 9.55629 -4.91582 6
      vertex 9.6 -4.5 -2
    endloop
  endfacet
  facet normal 0.994522 -0.104529 0
    outer loop
      vertex 9.55629 -4.91582 -6
      vertex 9.6 -4.5 -2
      vertex 9.55629 -4.91582 6
    endloop
  endfacet
  facet normal 0.994522 -0.104529 0
    outer loop
      vertex 9.6 -4.5 -2
      vertex 9.55629 -4.91582 -6
      vertex 9.6 -4.5 -6
    endloop
  endfacet
  facet normal 1 -0 0
    outer loop
      vertex 9.6 -4.5 6
      vertex 9.6 4.5 2
      vertex 9.6 4.5 6
    endloop
  endfacet
  facet normal 1 0 0
    outer loop
      vertex 9.6 4.5 2
      vertex 9.6 -4.5 6
      vertex 9.6 -4.5 2
    endloop
  endfacet
  facet normal 1 -0 0
    outer loop
      vertex 9.6 -4.5 -2
      vertex 9.6 4.5 -6
      vertex 9.6 4.5 -2
    endloop
  endfacet
  facet normal 1 0 0
    outer loop
      vertex 9.6 4.5 -6
      vertex 9.6 -4.5 -2
      vertex 9.6 -4.5 -6
    endloop
  endfacet
  facet normal 0.20791 0.978148 -0
    outer loop
      vertex 8.21803 6.40211 -6
      vertex 7.80906 6.48904 6
      vertex 8.21803 6.40211 6
    endloop
  endfacet
  facet normal 0.20791 0.978148 0
    outer loop
      vertex 7.80906 6.48904 6
      vertex 8.21803 6.40211 -6
      vertex 7.80906 6.48904 -6
    endloop
  endfacet
  facet normal 0.866026 -0.499999 0
    outer loop
      vertex 9.21803 -5.67557 6
      vertex 9.42709 -5.31347 -6
      vertex 9.42709 -5.31347 6
    endloop
  endfacet
  facet normal 0.866026 -0.499999 0
    outer loop
      vertex 9.42709 -5.31347 -6
      vertex 9.21803 -5.67557 6
      vertex 9.21803 -5.67557 -6
    endloop
  endfacet
  facet normal -0.994522 -0.104529 0
    outer loop
      vertex 3.6437 -4.91582 -6
      vertex 3.6 -4.5 -2
      vertex 3.6 -4.5 -6
    endloop
  endfacet
  facet normal -0.994522 -0.104529 0
    outer loop
      vertex 3.6 -4.5 -2
      vertex 3.6437 -4.91582 -6
      vertex 3.6 -4.5 2
    endloop
  endfacet
  facet normal -0.994522 -0.104529 -0
    outer loop
      vertex 3.6437 -4.91582 6
      vertex 3.6 -4.5 2
      vertex 3.6437 -4.91582 -6
    endloop
  endfacet
  facet normal -0.994522 -0.104529 0
    outer loop
      vertex 3.6 -4.5 2
      vertex 3.6437 -4.91582 6
      vertex 3.6 -4.5 6
    endloop
  endfacet
  facet normal 0.994522 0.104529 -0
    outer loop
      vertex 9.6 4.5 2
      vertex 9.55629 4.91582 6
      vertex 9.6 4.5 6
    endloop
  endfacet
  facet normal 0.994522 0.104529 0
    outer loop
      vertex 9.55629 4.91582 6
      vertex 9.6 4.5 2
      vertex 9.55629 4.91582 -6
    endloop
  endfacet
  facet normal 0.994522 0.104529 -0
    outer loop
      vertex 9.6 4.5 -2
      vertex 9.55629 4.91582 -6
      vertex 9.6 4.5 2
    endloop
  endfacet
  facet normal 0.994522 0.104529 0
    outer loop
      vertex 9.55629 4.91582 -6
      vertex 9.6 4.5 -2
      vertex 9.6 4.5 -6
    endloop
  endfacet
  facet normal 0.743144 -0.669131 0
    outer loop
      vertex 8.93826 -5.98629 6
      vertex 9.21803 -5.67557 -6
      vertex 9.21803 -5.67557 6
    endloop
  endfacet
  facet normal 0.743144 -0.669131 0
    outer loop
      vertex 9.21803 -5.67557 -6
      vertex 8.93826 -5.98629 6
      vertex 8.93826 -5.98629 -6
    endloop
  endfacet
  facet normal 0.587784 -0.809018 0
    outer loop
      vertex 8.6 -6.23205 -6
      vertex 8.93826 -5.98629 6
      vertex 8.6 -6.23205 6
    endloop
  endfacet
  facet normal 0.587784 -0.809018 0
    outer loop
      vertex 8.93826 -5.98629 6
      vertex 8.6 -6.23205 -6
      vertex 8.93826 -5.98629 -6
    endloop
  endfacet
  facet normal 0.951057 -0.309016 0
    outer loop
      vertex 9.42709 -5.31347 6
      vertex 9.55629 -4.91582 -6
      vertex 9.55629 -4.91582 6
    endloop
  endfacet
  facet normal 0.951057 -0.309016 0
    outer loop
      vertex 9.55629 -4.91582 -6
      vertex 9.42709 -5.31347 6
      vertex 9.42709 -5.31347 -6
    endloop
  endfacet
  facet normal 0.20791 -0.978148 0
    outer loop
      vertex 7.80906 -6.48904 -6
      vertex 8.21803 -6.40211 6
      vertex 7.80906 -6.48904 6
    endloop
  endfacet
  facet normal 0.20791 -0.978148 0
    outer loop
      vertex 8.21803 -6.40211 6
      vertex 7.80906 -6.48904 -6
      vertex 8.21803 -6.40211 -6
    endloop
  endfacet
  facet normal 0.406739 -0.913545 0
    outer loop
      vertex 8.21803 -6.40211 -6
      vertex 8.6 -6.23205 6
      vertex 8.21803 -6.40211 6
    endloop
  endfacet
  facet normal 0.406739 -0.913545 0
    outer loop
      vertex 8.6 -6.23205 6
      vertex 8.21803 -6.40211 -6
      vertex 8.6 -6.23205 -6
    endloop
  endfacet
  facet normal -0.587786 -0.809017 0
    outer loop
      vertex 4.26174 -5.98629 -6
      vertex 4.6 -6.23205 6
      vertex 4.26174 -5.98629 6
    endloop
  endfacet
  facet normal -0.587786 -0.809017 -0
    outer loop
      vertex 4.6 -6.23205 6
      vertex 4.26174 -5.98629 -6
      vertex 4.6 -6.23205 -6
    endloop
  endfacet
  facet normal 0 -1 0
    outer loop
      vertex 5.39094 -6.48904 -6
      vertex 7.80906 -6.48904 6
      vertex 5.39094 -6.48904 6
    endloop
  endfacet
  facet normal 0 -1 -0
    outer loop
      vertex 7.80906 -6.48904 6
      vertex 5.39094 -6.48904 -6
      vertex 7.80906 -6.48904 -6
    endloop
  endfacet
  facet normal 0 0 1
    outer loop
      vertex 7.80906 6.48904 6
      vertex 9.6 4.5 6
      vertex 9.55629 4.91582 6
    endloop
  endfacet
  facet normal 0 0 1
    outer loop
      vertex 9.6 4.5 6
      vertex 3.6 4.5 6
      vertex 9.6 -4.5 6
    endloop
  endfacet
  facet normal 0 0 1
    outer loop
      vertex 7.80906 6.48904 6
      vertex 9.55629 4.91582 6
      vertex 9.42709 5.31347 6
    endloop
  endfacet
  facet normal -0 0 1
    outer loop
      vertex 3.6 -4.5 6
      vertex 9.6 -4.5 6
      vertex 3.6 4.5 6
    endloop
  endfacet
  facet normal 0 0 1
    outer loop
      vertex 7.80906 6.48904 6
      vertex 9.42709 5.31347 6
      vertex 9.21803 5.67557 6
    endloop
  endfacet
  facet normal 0 -0 1
    outer loop
      vertex 7.80906 -6.48904 6
      vertex 9.6 -4.5 6
      vertex 3.6 -4.5 6
    endloop
  endfacet
  facet normal 0 0 1
    outer loop
      vertex 7.80906 6.48904 6
      vertex 9.21803 5.67557 6
      vertex 8.93826 5.98629 6
    endloop
  endfacet
  facet normal 0 0 1
    outer loop
      vertex 9.6 -4.5 6
      vertex 7.80906 -6.48904 6
      vertex 9.55629 -4.91582 6
    endloop
  endfacet
  facet normal 0 0 1
    outer loop
      vertex 7.80906 6.48904 6
      vertex 8.93826 5.98629 6
      vertex 8.6 6.23205 6
    endloop
  endfacet
  facet normal 0 0 1
    outer loop
      vertex 9.55629 -4.91582 6
      vertex 7.80906 -6.48904 6
      vertex 9.42709 -5.31347 6
    endloop
  endfacet
  facet normal 0 0 1
    outer loop
      vertex 7.80906 6.48904 6
      vertex 8.6 6.23205 6
      vertex 8.21803 6.40211 6
    endloop
  endfacet
  facet normal 0 0 1
    outer loop
      vertex 9.42709 -5.31347 6
      vertex 7.80906 -6.48904 6
      vertex 9.21803 -5.67557 6
    endloop
  endfacet
  facet normal 0 0 1
    outer loop
      vertex 9.6 4.5 6
      vertex 7.80906 6.48904 6
      vertex 3.6 4.5 6
    endloop
  endfacet
  facet normal 0 0 1
    outer loop
      vertex 9.21803 -5.67557 6
      vertex 7.80906 -6.48904 6
      vertex 8.93826 -5.98629 6
    endloop
  endfacet
  facet normal 0 0 1
    outer loop
      vertex 3.6 4.5 6
      vertex 7.80906 6.48904 6
      vertex 5.39094 6.48904 6
    endloop
  endfacet
  facet normal 0 0 1
    outer loop
      vertex 8.93826 -5.98629 6
      vertex 7.80906 -6.48904 6
      vertex 8.6 -6.23205 6
    endloop
  endfacet
  facet normal 0 0 1
    outer loop
      vertex 3.6 4.5 6
      vertex 5.39094 6.48904 6
      vertex 4.98197 6.40211 6
    endloop
  endfacet
  facet normal 0 0 1
    outer loop
      vertex 8.6 -6.23205 6
      vertex 7.80906 -6.48904 6
      vertex 8.21803 -6.40211 6
    endloop
  endfacet
  facet normal 0 0 1
    outer loop
      vertex 3.6 4.5 6
      vertex 4.98197 6.40211 6
      vertex 4.6 6.23205 6
    endloop
  endfacet
  facet normal 0 0 1
    outer loop
      vertex 7.80906 -6.48904 6
      vertex 3.6 -4.5 6
      vertex 5.39094 -6.48904 6
    endloop
  endfacet
  facet normal 0 0 1
    outer loop
      vertex 3.6 4.5 6
      vertex 4.6 6.23205 6
      vertex 4.26174 5.98629 6
    endloop
  endfacet
  facet normal 0 0 1
    outer loop
      vertex 5.39094 -6.48904 6
      vertex 3.6 -4.5 6
      vertex 4.98197 -6.40211 6
    endloop
  endfacet
  facet normal 0 0 1
    outer loop
      vertex 3.6 4.5 6
      vertex 4.26174 5.98629 6
      vertex 3.98197 5.67557 6
    endloop
  endfacet
  facet normal 0 0 1
    outer loop
      vertex 4.98197 -6.40211 6
      vertex 3.6 -4.5 6
      vertex 4.6 -6.23205 6
    endloop
  endfacet
  facet normal 0 0 1
    outer loop
      vertex 3.6 4.5 6
      vertex 3.98197 5.67557 6
      vertex 3.77291 5.31347 6
    endloop
  endfacet
  facet normal 0 0 1
    outer loop
      vertex 4.6 -6.23205 6
      vertex 3.6 -4.5 6
      vertex 4.26174 -5.98629 6
    endloop
  endfacet
  facet normal 0 0 1
    outer loop
      vertex 3.6 4.5 6
      vertex 3.77291 5.31347 6
      vertex 3.6437 4.91582 6
    endloop
  endfacet
  facet normal 0 0 1
    outer loop
      vertex 4.26174 -5.98629 6
      vertex 3.6 -4.5 6
      vertex 3.98197 -5.67557 6
    endloop
  endfacet
  facet normal 0 0 1
    outer loop
      vertex 3.98197 -5.67557 6
      vertex 3.6 -4.5 6
      vertex 3.77291 -5.31347 6
    endloop
  endfacet
  facet normal 0 0 1
    outer loop
      vertex 3.77291 -5.31347 6
      vertex 3.6 -4.5 6
      vertex 3.6437 -4.91582 6
    endloop
  endfacet
  facet normal -0.20791 0.978148 0
    outer loop
      vertex 5.39094 6.48904 -6
      vertex 4.98197 6.40211 6
      vertex 5.39094 6.48904 6
    endloop
  endfacet
  facet normal -0.20791 0.978148 0
    outer loop
      vertex 4.98197 6.40211 6
      vertex 5.39094 6.48904 -6
      vertex 4.98197 6.40211 -6
    endloop
  endfacet
  facet normal 0.743144 0.669131 0
    outer loop
      vertex 9.21803 5.67557 6
      vertex 8.93826 5.98629 -6
      vertex 8.93826 5.98629 6
    endloop
  endfacet
  facet normal 0.743144 0.669131 0
    outer loop
      vertex 8.93826 5.98629 -6
      vertex 9.21803 5.67557 6
      vertex 9.21803 5.67557 -6
    endloop
  endfacet
  facet normal -0.743143 -0.669133 0
    outer loop
      vertex 4.26174 -5.98629 -6
      vertex 3.98197 -5.67557 6
      vertex 3.98197 -5.67557 -6
    endloop
  endfacet
  facet normal -0.743143 -0.669133 0
    outer loop
      vertex 3.98197 -5.67557 6
      vertex 4.26174 -5.98629 -6
      vertex 4.26174 -5.98629 6
    endloop
  endfacet
  facet normal -0.951057 -0.309016 0
    outer loop
      vertex 3.77291 -5.31347 -6
      vertex 3.6437 -4.91582 6
      vertex 3.6437 -4.91582 -6
    endloop
  endfacet
  facet normal -0.951057 -0.309016 0
    outer loop
      vertex 3.6437 -4.91582 6
      vertex 3.77291 -5.31347 -6
      vertex 3.77291 -5.31347 6
    endloop
  endfacet
  facet normal 0 0 -1
    outer loop
      vertex 7.80906 -6.48904 -6
      vertex 9.6 -4.5 -6
      vertex 9.55629 -4.91582 -6
    endloop
  endfacet
  facet normal 0 0 -1
    outer loop
      vertex 9.6 -4.5 -6
      vertex 3.6 -4.5 -6
      vertex 9.6 4.5 -6
    endloop
  endfacet
  facet normal 0 0 -1
    outer loop
      vertex 7.80906 -6.48904 -6
      vertex 9.55629 -4.91582 -6
      vertex 9.42709 -5.31347 -6
    endloop
  endfacet
  facet normal 0 0 -1
    outer loop
      vertex 3.6 4.5 -6
      vertex 9.6 4.5 -6
      vertex 3.6 -4.5 -6
    endloop
  endfacet
  facet normal 0 0 -1
    outer loop
      vertex 7.80906 -6.48904 -6
      vertex 9.42709 -5.31347 -6
      vertex 9.21803 -5.67557 -6
    endloop
  endfacet
  facet normal 0 -0 -1
    outer loop
      vertex 7.80906 6.48904 -6
      vertex 9.6 4.5 -6
      vertex 3.6 4.5 -6
    endloop
  endfacet
  facet normal 0 0 -1
    outer loop
      vertex 7.80906 -6.48904 -6
      vertex 9.21803 -5.67557 -6
      vertex 8.93826 -5.98629 -6
    endloop
  endfacet
  facet normal 0 0 -1
    outer loop
      vertex 9.6 4.5 -6
      vertex 7.80906 6.48904 -6
      vertex 9.55629 4.91582 -6
    endloop
  endfacet
  facet normal 0 0 -1
    outer loop
      vertex 7.80906 -6.48904 -6
      vertex 8.93826 -5.98629 -6
      vertex 8.6 -6.23205 -6
    endloop
  endfacet
  facet normal 0 0 -1
    outer loop
      vertex 9.55629 4.91582 -6
      vertex 7.80906 6.48904 -6
      vertex 9.42709 5.31347 -6
    endloop
  endfacet
  facet normal 0 0 -1
    outer loop
      vertex 7.80906 -6.48904 -6
      vertex 8.6 -6.23205 -6
      vertex 8.21803 -6.40211 -6
    endloop
  endfacet
  facet normal 0 0 -1
    outer loop
      vertex 9.42709 5.31347 -6
      vertex 7.80906 6.48904 -6
      vertex 9.21803 5.67557 -6
    endloop
  endfacet
  facet normal -0 0 -1
    outer loop
      vertex 9.6 -4.5 -6
      vertex 7.80906 -6.48904 -6
      vertex 3.6 -4.5 -6
    endloop
  endfacet
  facet normal 0 0 -1
    outer loop
      vertex 9.21803 5.67557 -6
      vertex 7.80906 6.48904 -6
      vertex 8.93826 5.98629 -6
    endloop
  endfacet
  facet normal 0 0 -1
    outer loop
      vertex 3.6 -4.5 -6
      vertex 7.80906 -6.48904 -6
      vertex 5.39094 -6.48904 -6
    endloop
  endfacet
  facet normal 0 0 -1
    outer loop
      vertex 8.93826 5.98629 -6
      vertex 7.80906 6.48904 -6
      vertex 8.6 6.23205 -6
    endloop
  endfacet
  facet normal 0 0 -1
    outer loop
      vertex 3.6 -4.5 -6
      vertex 5.39094 -6.48904 -6
      vertex 4.98197 -6.40211 -6
    endloop
  endfacet
  facet normal 0 0 -1
    outer loop
      vertex 8.6 6.23205 -6
      vertex 7.80906 6.48904 -6
      vertex 8.21803 6.40211 -6
    endloop
  endfacet
  facet normal 0 0 -1
    outer loop
      vertex 3.6 -4.5 -6
      vertex 4.98197 -6.40211 -6
      vertex 4.6 -6.23205 -6
    endloop
  endfacet
  facet normal -0 0 -1
    outer loop
      vertex 7.80906 6.48904 -6
      vertex 3.6 4.5 -6
      vertex 5.39094 6.48904 -6
    endloop
  endfacet
  facet normal 0 0 -1
    outer loop
      vertex 3.6 -4.5 -6
      vertex 4.6 -6.23205 -6
      vertex 4.26174 -5.98629 -6
    endloop
  endfacet
  facet normal 0 0 -1
    outer loop
      vertex 5.39094 6.48904 -6
      vertex 3.6 4.5 -6
      vertex 4.98197 6.40211 -6
    endloop
  endfacet
  facet normal 0 0 -1
    outer loop
      vertex 3.6 -4.5 -6
      vertex 4.26174 -5.98629 -6
      vertex 3.98197 -5.67557 -6
    endloop
  endfacet
  facet normal 0 0 -1
    outer loop
      vertex 4.98197 6.40211 -6
      vertex 3.6 4.5 -6
      vertex 4.6 6.23205 -6
    endloop
  endfacet
  facet normal 0 0 -1
    outer loop
      vertex 3.6 -4.5 -6
      vertex 3.98197 -5.67557 -6
      vertex 3.77291 -5.31347 -6
    endloop
  endfacet
  facet normal 0 0 -1
    outer loop
      vertex 4.6 6.23205 -6
      vertex 3.6 4.5 -6
      vertex 4.26174 5.98629 -6
    endloop
  endfacet
  facet normal 0 0 -1
    outer loop
      vertex 3.6 -4.5 -6
      vertex 3.77291 -5.31347 -6
      vertex 3.6437 -4.91582 -6
    endloop
  endfacet
  facet normal 0 0 -1
    outer loop
      vertex 4.26174 5.98629 -6
      vertex 3.6 4.5 -6
      vertex 3.98197 5.67557 -6
    endloop
  endfacet
  facet normal 0 0 -1
    outer loop
      vertex 3.98197 5.67557 -6
      vertex 3.6 4.5 -6
      vertex 3.77291 5.31347 -6
    endloop
  endfacet
  facet normal 0 0 -1
    outer loop
      vertex 3.77291 5.31347 -6
      vertex 3.6 4.5 -6
      vertex 3.6437 4.91582 -6
    endloop
  endfacet
  facet normal -0.866026 0.499999 0
    outer loop
      vertex 3.77291 5.31347 -6
      vertex 3.98197 5.67557 6
      vertex 3.98197 5.67557 -6
    endloop
  endfacet
  facet normal -0.866026 0.499999 0
    outer loop
      vertex 3.98197 5.67557 6
      vertex 3.77291 5.31347 -6
      vertex 3.77291 5.31347 6
    endloop
  endfacet
  facet normal -0.406739 0.913545 0
    outer loop
      vertex 4.98197 6.40211 -6
      vertex 4.6 6.23205 6
      vertex 4.98197 6.40211 6
    endloop
  endfacet
  facet normal -0.406739 0.913545 0
    outer loop
      vertex 4.6 6.23205 6
      vertex 4.98197 6.40211 -6
      vertex 4.6 6.23205 -6
    endloop
  endfacet
  facet normal -0.20791 -0.978148 0
    outer loop
      vertex 4.98197 -6.40211 -6
      vertex 5.39094 -6.48904 6
      vertex 4.98197 -6.40211 6
    endloop
  endfacet
  facet normal -0.20791 -0.978148 -0
    outer loop
      vertex 5.39094 -6.48904 6
      vertex 4.98197 -6.40211 -6
      vertex 5.39094 -6.48904 -6
    endloop
  endfacet
  facet normal -0.406739 -0.913545 0
    outer loop
      vertex 4.6 -6.23205 -6
      vertex 4.98197 -6.40211 6
      vertex 4.6 -6.23205 6
    endloop
  endfacet
  facet normal -0.406739 -0.913545 -0
    outer loop
      vertex 4.98197 -6.40211 6
      vertex 4.6 -6.23205 -6
      vertex 4.98197 -6.40211 -6
    endloop
  endfacet
  facet normal -0.866026 -0.499999 0
    outer loop
      vertex 3.98197 -5.67557 -6
      vertex 3.77291 -5.31347 6
      vertex 3.77291 -5.31347 -6
    endloop
  endfacet
  facet normal -0.866026 -0.499999 0
    outer loop
      vertex 3.77291 -5.31347 6
      vertex 3.98197 -5.67557 -6
      vertex 3.98197 -5.67557 6
    endloop
  endfacet
  facet normal -0.994522 0.104529 0
    outer loop
      vertex 3.6 4.5 -2
      vertex 3.6437 4.91582 -6
      vertex 3.6 4.5 -6
    endloop
  endfacet
  facet normal -0.994522 0.104529 0
    outer loop
      vertex 3.6437 4.91582 -6
      vertex 3.6 4.5 -2
      vertex 3.6437 4.91582 6
    endloop
  endfacet
  facet normal -0.994522 0.104529 0
    outer loop
      vertex 3.6 4.5 2
      vertex 3.6437 4.91582 6
      vertex 3.6 4.5 -2
    endloop
  endfacet
  facet normal -0.994522 0.104529 0
    outer loop
      vertex 3.6437 4.91582 6
      vertex 3.6 4.5 2
      vertex 3.6 4.5 6
    endloop
  endfacet
  facet normal -0.951057 0.309016 0
    outer loop
      vertex 3.6437 4.91582 -6
      vertex 3.77291 5.31347 6
      vertex 3.77291 5.31347 -6
    endloop
  endfacet
  facet normal -0.951057 0.309016 0
    outer loop
      vertex 3.77291 5.31347 6
      vertex 3.6437 4.91582 -6
      vertex 3.6437 4.91582 6
    endloop
  endfacet
  facet normal -0.743143 0.669133 0
    outer loop
      vertex 3.98197 5.67557 -6
      vertex 4.26174 5.98629 6
      vertex 4.26174 5.98629 -6
    endloop
  endfacet
  facet normal -0.743143 0.669133 0
    outer loop
      vertex 4.26174 5.98629 6
      vertex 3.98197 5.67557 -6
      vertex 3.98197 5.67557 6
    endloop
  endfacet
  facet normal 0 1 -0
    outer loop
      vertex 7.80906 6.48904 -6
      vertex 5.39094 6.48904 6
      vertex 7.80906 6.48904 6
    endloop
  endfacet
  facet normal 0 1 0
    outer loop
      vertex 5.39094 6.48904 6
      vertex 7.80906 6.48904 -6
      vertex 5.39094 6.48904 -6
    endloop
  endfacet
  facet normal -0.587786 0.809017 0
    outer loop
      vertex 4.6 6.23205 -6
      vertex 4.26174 5.98629 6
      vertex 4.6 6.23205 6
    endloop
  endfacet
  facet normal -0.587786 0.809017 0
    outer loop
      vertex 4.26174 5.98629 6
      vertex 4.6 6.23205 -6
      vertex 4.26174 5.98629 -6
    endloop
  endfacet
  facet normal 0.587784 0.809018 -0
    outer loop
      vertex 8.93826 5.98629 -6
      vertex 8.6 6.23205 6
      vertex 8.93826 5.98629 6
    endloop
  endfacet
  facet normal 0.587784 0.809018 0
    outer loop
      vertex 8.6 6.23205 6
      vertex 8.93826 5.98629 -6
      vertex 8.6 6.23205 -6
    endloop
  endfacet
  facet normal 0.406739 0.913545 -0
    outer loop
      vertex 8.6 6.23205 -6
      vertex 8.21803 6.40211 6
      vertex 8.6 6.23205 6
    endloop
  endfacet
  facet normal 0.406739 0.913545 0
    outer loop
      vertex 8.21803 6.40211 6
      vertex 8.6 6.23205 -6
      vertex 8.21803 6.40211 -6
    endloop
  endfacet
  facet normal 0.866026 0.499999 0
    outer loop
      vertex 9.42709 5.31347 6
      vertex 9.21803 5.67557 -6
      vertex 9.21803 5.67557 6
    endloop
  endfacet
  facet normal 0.866026 0.499999 0
    outer loop
      vertex 9.21803 5.67557 -6
      vertex 9.42709 5.31347 6
      vertex 9.42709 5.31347 -6
    endloop
  endfacet
  facet normal 0.951057 0.309016 0
    outer loop
      vertex 9.55629 4.91582 6
      vertex 9.42709 5.31347 -6
      vertex 9.42709 5.31347 6
    endloop
  endfacet
  facet normal 0.951057 0.309016 0
    outer loop
      vertex 9.42709 5.31347 -6
      vertex 9.55629 4.91582 6
      vertex 9.55629 4.91582 -6
    endloop
  endfacet
  facet normal -0 0 1
    outer loop
      vertex 9.6 4.5 2
      vertex 11.2 -4.5 2
      vertex 11.2 4.5 2
    endloop
  endfacet
  facet normal 0 0 1
    outer loop
      vertex 9.6 -4.5 2
      vertex 11.2 -4.5 2
      vertex 9.6 4.5 2
    endloop
  endfacet
  facet normal -1 0 0
    outer loop
      vertex 11.2 -4.5 2
      vertex 11.2 4.5 6
      vertex 11.2 4.5 2
    endloop
  endfacet
  facet normal -1 -0 0
    outer loop
      vertex 11.2 4.5 6
      vertex 11.2 -4.5 2
      vertex 11.2 -4.5 6
    endloop
  endfacet
  facet normal -1 0 0
    outer loop
      vertex 11.2 -4.5 -6
      vertex 11.2 4.5 -2
      vertex 11.2 4.5 -6
    endloop
  endfacet
  facet normal -1 -0 0
    outer loop
      vertex 11.2 4.5 -2
      vertex 11.2 -4.5 -6
      vertex 11.2 -4.5 -2
    endloop
  endfacet
  facet normal -0 0 -1
    outer loop
      vertex 11.2 -4.5 -2
      vertex 9.6 -4.5 -2
      vertex 11.2 4.5 -2
    endloop
  endfacet
  facet normal -0 0 -1
    outer loop
      vertex 11.2 4.5 -2
      vertex 9.6 -4.5 -2
      vertex 9.6 4.5 -2
    endloop
  endfacet
  facet normal 0 -1 0
    outer loop
      vertex 9.6 -4.5 -2
      vertex 11.2 -4.5 2
      vertex 9.6 -4.5 2
    endloop
  endfacet
  facet normal 0 -1 -0
    outer loop
      vertex 11.2 -4.5 2
      vertex 9.6 -4.5 -2
      vertex 11.2 -4.5 -2
    endloop
  endfacet
  facet normal 0 1 -0
    outer loop
      vertex 11.2 4.5 -2
      vertex 9.6 4.5 2
      vertex 11.2 4.5 2
    endloop
  endfacet
  facet normal 0 1 0
    outer loop
      vertex 9.6 4.5 2
      vertex 11.2 4.5 -2
      vertex 9.6 4.5 -2
    endloop
  endfacet
  facet normal 0.994522 -0.104529 0
    outer loop
      vertex 17.1563 -4.91582 6
      vertex 17.2 -4.5 -6
      vertex 17.2 -4.5 6
    endloop
  endfacet
  facet normal 0.994522 -0.104529 0
    outer loop
      vertex 17.2 -4.5 -6
      vertex 17.1563 -4.91582 6
      vertex 17.1563 -4.91582 -6
    endloop
  endfacet
  facet normal 1 -0 0
    outer loop
      vertex 17.2 -4.5 6
      vertex 17.2 4.5 -6
      vertex 17.2 4.5 6
    endloop
  endfacet
  facet normal 1 0 0
    outer loop
      vertex 17.2 4.5 -6
      vertex 17.2 -4.5 6
      vertex 17.2 -4.5 -6
    endloop
  endfacet
  facet normal 0.207911 0.978148 -0
    outer loop
      vertex 15.818 6.40211 -6
      vertex 15.4091 6.48904 6
      vertex 15.818 6.40211 6
    endloop
  endfacet
  facet normal 0.207911 0.978148 0
    outer loop
      vertex 15.4091 6.48904 6
      vertex 15.818 6.40211 -6
      vertex 15.4091 6.48904 -6
    endloop
  endfacet
  facet normal 0.866026 -0.499999 0
    outer loop
      vertex 16.818 -5.67557 6
      vertex 17.0271 -5.31347 -6
      vertex 17.0271 -5.31347 6
    endloop
  endfacet
  facet normal 0.866026 -0.499999 0
    outer loop
      vertex 17.0271 -5.31347 -6
      vertex 16.818 -5.67557 6
      vertex 16.818 -5.67557 -6
    endloop
  endfacet
  facet normal 0.743145 -0.66913 0
    outer loop
      vertex 16.5383 -5.98629 6
      vertex 16.818 -5.67557 -6
      vertex 16.818 -5.67557 6
    endloop
  endfacet
  facet normal 0.743145 -0.66913 0
    outer loop
      vertex 16.818 -5.67557 -6
      vertex 16.5383 -5.98629 6
      vertex 16.5383 -5.98629 -6
    endloop
  endfacet
  facet normal -0.994522 -0.104529 0
    outer loop
      vertex 11.2437 -4.91582 -6
      vertex 11.2 -4.5 -2
      vertex 11.2 -4.5 -6
    endloop
  endfacet
  facet normal -0.994522 -0.104529 0
    outer loop
      vertex 11.2 -4.5 -2
      vertex 11.2437 -4.91582 -6
      vertex 11.2 -4.5 2
    endloop
  endfacet
  facet normal -0.994522 -0.104529 -0
    outer loop
      vertex 11.2437 -4.91582 6
      vertex 11.2 -4.5 2
      vertex 11.2437 -4.91582 -6
    endloop
  endfacet
  facet normal -0.994522 -0.104529 0
    outer loop
      vertex 11.2 -4.5 2
      vertex 11.2437 -4.91582 6
      vertex 11.2 -4.5 6
    endloop
  endfacet
  facet normal 0.994522 0.104529 0
    outer loop
      vertex 17.2 4.5 6
      vertex 17.1563 4.91582 -6
      vertex 17.1563 4.91582 6
    endloop
  endfacet
  facet normal 0.994522 0.104529 0
    outer loop
      vertex 17.1563 4.91582 -6
      vertex 17.2 4.5 6
      vertex 17.2 4.5 -6
    endloop
  endfacet
  facet normal 0.587786 -0.809017 0
    outer loop
      vertex 16.2 -6.23205 -6
      vertex 16.5383 -5.98629 6
      vertex 16.2 -6.23205 6
    endloop
  endfacet
  facet normal 0.587786 -0.809017 0
    outer loop
      vertex 16.5383 -5.98629 6
      vertex 16.2 -6.23205 -6
      vertex 16.5383 -5.98629 -6
    endloop
  endfacet
  facet normal 0.951055 -0.30902 0
    outer loop
      vertex 17.0271 -5.31347 6
      vertex 17.1563 -4.91582 -6
      vertex 17.1563 -4.91582 6
    endloop
  endfacet
  facet normal 0.951055 -0.30902 0
    outer loop
      vertex 17.1563 -4.91582 -6
      vertex 17.0271 -5.31347 6
      vertex 17.0271 -5.31347 -6
    endloop
  endfacet
  facet normal 0.207911 -0.978148 0
    outer loop
      vertex 15.4091 -6.48904 -6
      vertex 15.818 -6.40211 6
      vertex 15.4091 -6.48904 6
    endloop
  endfacet
  facet normal 0.207911 -0.978148 0
    outer loop
      vertex 15.818 -6.40211 6
      vertex 15.4091 -6.48904 -6
      vertex 15.818 -6.40211 -6
    endloop
  endfacet
  facet normal 0.406737 -0.913545 0
    outer loop
      vertex 15.818 -6.40211 -6
      vertex 16.2 -6.23205 6
      vertex 15.818 -6.40211 6
    endloop
  endfacet
  facet normal 0.406737 -0.913545 0
    outer loop
      vertex 16.2 -6.23205 6
      vertex 15.818 -6.40211 -6
      vertex 16.2 -6.23205 -6
    endloop
  endfacet
  facet normal -0.587784 -0.809018 0
    outer loop
      vertex 11.8617 -5.98629 -6
      vertex 12.2 -6.23205 6
      vertex 11.8617 -5.98629 6
    endloop
  endfacet
  facet normal -0.587784 -0.809018 -0
    outer loop
      vertex 12.2 -6.23205 6
      vertex 11.8617 -5.98629 -6
      vertex 12.2 -6.23205 -6
    endloop
  endfacet
  facet normal 0 -1 0
    outer loop
      vertex 12.9909 -6.48904 -6
      vertex 15.4091 -6.48904 6
      vertex 12.9909 -6.48904 6
    endloop
  endfacet
  facet normal 0 -1 -0
    outer loop
      vertex 15.4091 -6.48904 6
      vertex 12.9909 -6.48904 -6
      vertex 15.4091 -6.48904 -6
    endloop
  endfacet
  facet normal 0 0 1
    outer loop
      vertex 15.4091 6.48904 6
      vertex 17.2 4.5 6
      vertex 17.1563 4.91582 6
    endloop
  endfacet
  facet normal 0 0 1
    outer loop
      vertex 17.2 4.5 6
      vertex 11.2 4.5 6
      vertex 17.2 -4.5 6
    endloop
  endfacet
  facet normal 0 0 1
    outer loop
      vertex 15.4091 6.48904 6
      vertex 17.1563 4.91582 6
      vertex 17.0271 5.31347 6
    endloop
  endfacet
  facet normal -0 0 1
    outer loop
      vertex 11.2 -4.5 6
      vertex 17.2 -4.5 6
      vertex 11.2 4.5 6
    endloop
  endfacet
  facet normal 0 0 1
    outer loop
      vertex 15.4091 6.48904 6
      vertex 17.0271 5.31347 6
      vertex 16.818 5.67557 6
    endloop
  endfacet
  facet normal 0 -0 1
    outer loop
      vertex 15.4091 -6.48904 6
      vertex 17.2 -4.5 6
      vertex 11.2 -4.5 6
    endloop
  endfacet
  facet normal 0 0 1
    outer loop
      vertex 15.4091 6.48904 6
      vertex 16.818 5.67557 6
      vertex 16.5383 5.98629 6
    endloop
  endfacet
  facet normal 0 0 1
    outer loop
      vertex 17.2 -4.5 6
      vertex 15.4091 -6.48904 6
      vertex 17.1563 -4.91582 6
    endloop
  endfacet
  facet normal 0 0 1
    outer loop
      vertex 15.4091 6.48904 6
      vertex 16.5383 5.98629 6
      vertex 16.2 6.23205 6
    endloop
  endfacet
  facet normal 0 0 1
    outer loop
      vertex 17.1563 -4.91582 6
      vertex 15.4091 -6.48904 6
      vertex 17.0271 -5.31347 6
    endloop
  endfacet
  facet normal 0 0 1
    outer loop
      vertex 15.4091 6.48904 6
      vertex 16.2 6.23205 6
      vertex 15.818 6.40211 6
    endloop
  endfacet
  facet normal 0 0 1
    outer loop
      vertex 17.0271 -5.31347 6
      vertex 15.4091 -6.48904 6
      vertex 16.818 -5.67557 6
    endloop
  endfacet
  facet normal 0 0 1
    outer loop
      vertex 17.2 4.5 6
      vertex 15.4091 6.48904 6
      vertex 11.2 4.5 6
    endloop
  endfacet
  facet normal 0 0 1
    outer loop
      vertex 16.818 -5.67557 6
      vertex 15.4091 -6.48904 6
      vertex 16.5383 -5.98629 6
    endloop
  endfacet
  facet normal 0 0 1
    outer loop
      vertex 11.2 4.5 6
      vertex 15.4091 6.48904 6
      vertex 12.9909 6.48904 6
    endloop
  endfacet
  facet normal 0 0 1
    outer loop
      vertex 16.5383 -5.98629 6
      vertex 15.4091 -6.48904 6
      vertex 16.2 -6.23205 6
    endloop
  endfacet
  facet normal 0 0 1
    outer loop
      vertex 11.2 4.5 6
      vertex 12.9909 6.48904 6
      vertex 12.582 6.40211 6
    endloop
  endfacet
  facet normal 0 0 1
    outer loop
      vertex 16.2 -6.23205 6
      vertex 15.4091 -6.48904 6
      vertex 15.818 -6.40211 6
    endloop
  endfacet
  facet normal 0 0 1
    outer loop
      vertex 11.2 4.5 6
      vertex 12.582 6.40211 6
      vertex 12.2 6.23205 6
    endloop
  endfacet
  facet normal 0 0 1
    outer loop
      vertex 15.4091 -6.48904 6
      vertex 11.2 -4.5 6
      vertex 12.9909 -6.48904 6
    endloop
  endfacet
  facet normal 0 0 1
    outer loop
      vertex 11.2 4.5 6
      vertex 12.2 6.23205 6
      vertex 11.8617 5.98629 6
    endloop
  endfacet
  facet normal 0 0 1
    outer loop
      vertex 12.9909 -6.48904 6
      vertex 11.2 -4.5 6
      vertex 12.582 -6.40211 6
    endloop
  endfacet
  facet normal 0 0 1
    outer loop
      vertex 11.2 4.5 6
      vertex 11.8617 5.98629 6
      vertex 11.582 5.67557 6
    endloop
  endfacet
  facet normal 0 0 1
    outer loop
      vertex 12.582 -6.40211 6
      vertex 11.2 -4.5 6
      vertex 12.2 -6.23205 6
    endloop
  endfacet
  facet normal 0 0 1
    outer loop
      vertex 11.2 4.5 6
      vertex 11.582 5.67557 6
      vertex 11.3729 5.31347 6
    endloop
  endfacet
  facet normal 0 0 1
    outer loop
      vertex 12.2 -6.23205 6
      vertex 11.2 -4.5 6
      vertex 11.8617 -5.98629 6
    endloop
  endfacet
  facet normal 0 0 1
    outer loop
      vertex 11.2 4.5 6
      vertex 11.3729 5.31347 6
      vertex 11.2437 4.91582 6
    endloop
  endfacet
  facet normal 0 0 1
    outer loop
      vertex 11.8617 -5.98629 6
      vertex 11.2 -4.5 6
      vertex 11.582 -5.67557 6
    endloop
  endfacet
  facet normal 0 0 1
    outer loop
      vertex 11.582 -5.67557 6
      vertex 11.2 -4.5 6
      vertex 11.3729 -5.31347 6
    endloop
  endfacet
  facet normal 0 0 1
    outer loop
      vertex 11.3729 -5.31347 6
      vertex 11.2 -4.5 6
      vertex 11.2437 -4.91582 6
    endloop
  endfacet
  facet normal -0.20791 0.978148 0
    outer loop
      vertex 12.9909 6.48904 -6
      vertex 12.582 6.40211 6
      vertex 12.9909 6.48904 6
    endloop
  endfacet
  facet normal -0.20791 0.978148 0
    outer loop
      vertex 12.582 6.40211 6
      vertex 12.9909 6.48904 -6
      vertex 12.582 6.40211 -6
    endloop
  endfacet
  facet normal 0.743145 0.66913 0
    outer loop
      vertex 16.818 5.67557 6
      vertex 16.5383 5.98629 -6
      vertex 16.5383 5.98629 6
    endloop
  endfacet
  facet normal 0.743145 0.66913 0
    outer loop
      vertex 16.5383 5.98629 -6
      vertex 16.818 5.67557 6
      vertex 16.818 5.67557 -6
    endloop
  endfacet
  facet normal -0.743144 -0.669131 0
    outer loop
      vertex 11.8617 -5.98629 -6
      vertex 11.582 -5.67557 6
      vertex 11.582 -5.67557 -6
    endloop
  endfacet
  facet normal -0.743144 -0.669131 0
    outer loop
      vertex 11.582 -5.67557 6
      vertex 11.8617 -5.98629 -6
      vertex 11.8617 -5.98629 6
    endloop
  endfacet
  facet normal -0.951057 -0.309016 0
    outer loop
      vertex 11.3729 -5.31347 -6
      vertex 11.2437 -4.91582 6
      vertex 11.2437 -4.91582 -6
    endloop
  endfacet
  facet normal -0.951057 -0.309016 0
    outer loop
      vertex 11.2437 -4.91582 6
      vertex 11.3729 -5.31347 -6
      vertex 11.3729 -5.31347 6
    endloop
  endfacet
  facet normal 0 0 -1
    outer loop
      vertex 15.4091 -6.48904 -6
      vertex 17.2 -4.5 -6
      vertex 17.1563 -4.91582 -6
    endloop
  endfacet
  facet normal 0 0 -1
    outer loop
      vertex 17.2 -4.5 -6
      vertex 11.2 -4.5 -6
      vertex 17.2 4.5 -6
    endloop
  endfacet
  facet normal 0 0 -1
    outer loop
      vertex 15.4091 -6.48904 -6
      vertex 17.1563 -4.91582 -6
      vertex 17.0271 -5.31347 -6
    endloop
  endfacet
  facet normal 0 0 -1
    outer loop
      vertex 11.2 4.5 -6
      vertex 17.2 4.5 -6
      vertex 11.2 -4.5 -6
    endloop
  endfacet
  facet normal 0 0 -1
    outer loop
      vertex 15.4091 -6.48904 -6
      vertex 17.0271 -5.31347 -6
      vertex 16.818 -5.67557 -6
    endloop
  endfacet
  facet normal 0 -0 -1
    outer loop
      vertex 15.4091 6.48904 -6
      vertex 17.2 4.5 -6
      vertex 11.2 4.5 -6
    endloop
  endfacet
  facet normal 0 0 -1
    outer loop
      vertex 15.4091 -6.48904 -6
      vertex 16.818 -5.67557 -6
      vertex 16.5383 -5.98629 -6
    endloop
  endfacet
  facet normal 0 0 -1
    outer loop
      vertex 17.2 4.5 -6
      vertex 15.4091 6.48904 -6
      vertex 17.1563 4.91582 -6
    endloop
  endfacet
  facet normal 0 0 -1
    outer loop
      vertex 15.4091 -6.48904 -6
      vertex 16.5383 -5.98629 -6
      vertex 16.2 -6.23205 -6
    endloop
  endfacet
  facet normal 0 0 -1
    outer loop
      vertex 17.1563 4.91582 -6
      vertex 15.4091 6.48904 -6
      vertex 17.0271 5.31347 -6
    endloop
  endfacet
  facet normal 0 0 -1
    outer loop
      vertex 15.4091 -6.48904 -6
      vertex 16.2 -6.23205 -6
      vertex 15.818 -6.40211 -6
    endloop
  endfacet
  facet normal 0 0 -1
    outer loop
      vertex 17.0271 5.31347 -6
      vertex 15.4091 6.48904 -6
      vertex 16.818 5.67557 -6
    endloop
  endfacet
  facet normal -0 0 -1
    outer loop
      vertex 17.2 -4.5 -6
      vertex 15.4091 -6.48904 -6
      vertex 11.2 -4.5 -6
    endloop
  endfacet
  facet normal 0 0 -1
    outer loop
      vertex 16.818 5.67557 -6
      vertex 15.4091 6.48904 -6
      vertex 16.5383 5.98629 -6
    endloop
  endfacet
  facet normal 0 0 -1
    outer loop
      vertex 11.2 -4.5 -6
      vertex 15.4091 -6.48904 -6
      vertex 12.9909 -6.48904 -6
    endloop
  endfacet
  facet normal 0 0 -1
    outer loop
      vertex 16.5383 5.98629 -6
      vertex 15.4091 6.48904 -6
      vertex 16.2 6.23205 -6
    endloop
  endfacet
  facet normal 0 0 -1
    outer loop
      vertex 11.2 -4.5 -6
      vertex 12.9909 -6.48904 -6
      vertex 12.582 -6.40211 -6
    endloop
  endfacet
  facet normal 0 0 -1
    outer loop
      vertex 16.2 6.23205 -6
      vertex 15.4091 6.48904 -6
      vertex 15.818 6.40211 -6
    endloop
  endfacet
  facet normal 0 0 -1
    outer loop
      vertex 11.2 -4.5 -6
      vertex 12.582 -6.40211 -6
      vertex 12.2 -6.23205 -6
    endloop
  endfacet
  facet normal -0 0 -1
    outer loop
      vertex 15.4091 6.48904 -6
      vertex 11.2 4.5 -6
      vertex 12.9909 6.48904 -6
    endloop
  endfacet
  facet normal 0 0 -1
    outer loop
      vertex 11.2 -4.5 -6
      vertex 12.2 -6.23205 -6
      vertex 11.8617 -5.98629 -6
    endloop
  endfacet
  facet normal 0 0 -1
    outer loop
      vertex 12.9909 6.48904 -6
      vertex 11.2 4.5 -6
      vertex 12.582 6.40211 -6
    endloop
  endfacet
  facet normal 0 0 -1
    outer loop
      vertex 11.2 -4.5 -6
      vertex 11.8617 -5.98629 -6
      vertex 11.582 -5.67557 -6
    endloop
  endfacet
  facet normal 0 0 -1
    outer loop
      vertex 12.582 6.40211 -6
      vertex 11.2 4.5 -6
      vertex 12.2 6.23205 -6
    endloop
  endfacet
  facet normal 0 0 -1
    outer loop
      vertex 11.2 -4.5 -6
      vertex 11.582 -5.67557 -6
      vertex 11.3729 -5.31347 -6
    endloop
  endfacet
  facet normal 0 0 -1
    outer loop
      vertex 12.2 6.23205 -6
      vertex 11.2 4.5 -6
      vertex 11.8617 5.98629 -6
    endloop
  endfacet
  facet normal 0 0 -1
    outer loop
      vertex 11.2 -4.5 -6
      vertex 11.3729 -5.31347 -6
      vertex 11.2437 -4.91582 -6
    endloop
  endfacet
  facet normal 0 0 -1
    outer loop
      vertex 11.8617 5.98629 -6
      vertex 11.2 4.5 -6
      vertex 11.582 5.67557 -6
    endloop
  endfacet
  facet normal 0 0 -1
    outer loop
      vertex 11.582 5.67557 -6
      vertex 11.2 4.5 -6
      vertex 11.3729 5.31347 -6
    endloop
  endfacet
  facet normal 0 0 -1
    outer loop
      vertex 11.3729 5.31347 -6
      vertex 11.2 4.5 -6
      vertex 11.2437 4.91582 -6
    endloop
  endfacet
  facet normal -0.951057 0.309016 0
    outer loop
      vertex 11.2437 4.91582 -6
      vertex 11.3729 5.31347 6
      vertex 11.3729 5.31347 -6
    endloop
  endfacet
  facet normal -0.951057 0.309016 0
    outer loop
      vertex 11.3729 5.31347 6
      vertex 11.2437 4.91582 -6
      vertex 11.2437 4.91582 6
    endloop
  endfacet
  facet normal -0.994522 0.104529 0
    outer loop
      vertex 11.2 4.5 -2
      vertex 11.2437 4.91582 -6
      vertex 11.2 4.5 -6
    endloop
  endfacet
  facet normal -0.994522 0.104529 0
    outer loop
      vertex 11.2437 4.91582 -6
      vertex 11.2 4.5 -2
      vertex 11.2437 4.91582 6
    endloop
  endfacet
  facet normal -0.994522 0.104529 0
    outer loop
      vertex 11.2 4.5 2
      vertex 11.2437 4.91582 6
      vertex 11.2 4.5 -2
    endloop
  endfacet
  facet normal -0.994522 0.104529 0
    outer loop
      vertex 11.2437 4.91582 6
      vertex 11.2 4.5 2
      vertex 11.2 4.5 6
    endloop
  endfacet
  facet normal -0.866026 0.499999 0
    outer loop
      vertex 11.3729 5.31347 -6
      vertex 11.582 5.67557 6
      vertex 11.582 5.67557 -6
    endloop
  endfacet
  facet normal -0.866026 0.499999 0
    outer loop
      vertex 11.582 5.67557 6
      vertex 11.3729 5.31347 -6
      vertex 11.3729 5.31347 6
    endloop
  endfacet
  facet normal -0.743144 0.669131 0
    outer loop
      vertex 11.582 5.67557 -6
      vertex 11.8617 5.98629 6
      vertex 11.8617 5.98629 -6
    endloop
  endfacet
  facet normal -0.743144 0.669131 0
    outer loop
      vertex 11.8617 5.98629 6
      vertex 11.582 5.67557 -6
      vertex 11.582 5.67557 6
    endloop
  endfacet
  facet normal -0.20791 -0.978148 0
    outer loop
      vertex 12.582 -6.40211 -6
      vertex 12.9909 -6.48904 6
      vertex 12.582 -6.40211 6
    endloop
  endfacet
  facet normal -0.20791 -0.978148 -0
    outer loop
      vertex 12.9909 -6.48904 6
      vertex 12.582 -6.40211 -6
      vertex 12.9909 -6.48904 -6
    endloop
  endfacet
  facet normal -0.406739 -0.913545 0
    outer loop
      vertex 12.2 -6.23205 -6
      vertex 12.582 -6.40211 6
      vertex 12.2 -6.23205 6
    endloop
  endfacet
  facet normal -0.406739 -0.913545 -0
    outer loop
      vertex 12.582 -6.40211 6
      vertex 12.2 -6.23205 -6
      vertex 12.582 -6.40211 -6
    endloop
  endfacet
  facet normal -0.866026 -0.499999 0
    outer loop
      vertex 11.582 -5.67557 -6
      vertex 11.3729 -5.31347 6
      vertex 11.3729 -5.31347 -6
    endloop
  endfacet
  facet normal -0.866026 -0.499999 0
    outer loop
      vertex 11.3729 -5.31347 6
      vertex 11.582 -5.67557 -6
      vertex 11.582 -5.67557 6
    endloop
  endfacet
  facet normal 0 1 -0
    outer loop
      vertex 15.4091 6.48904 -6
      vertex 12.9909 6.48904 6
      vertex 15.4091 6.48904 6
    endloop
  endfacet
  facet normal 0 1 0
    outer loop
      vertex 12.9909 6.48904 6
      vertex 15.4091 6.48904 -6
      vertex 12.9909 6.48904 -6
    endloop
  endfacet
  facet normal -0.587784 0.809018 0
    outer loop
      vertex 12.2 6.23205 -6
      vertex 11.8617 5.98629 6
      vertex 12.2 6.23205 6
    endloop
  endfacet
  facet normal -0.587784 0.809018 0
    outer loop
      vertex 11.8617 5.98629 6
      vertex 12.2 6.23205 -6
      vertex 11.8617 5.98629 -6
    endloop
  endfacet
  facet normal 0.587786 0.809017 -0
    outer loop
      vertex 16.5383 5.98629 -6
      vertex 16.2 6.23205 6
      vertex 16.5383 5.98629 6
    endloop
  endfacet
  facet normal 0.587786 0.809017 0
    outer loop
      vertex 16.2 6.23205 6
      vertex 16.5383 5.98629 -6
      vertex 16.2 6.23205 -6
    endloop
  endfacet
  facet normal 0.406737 0.913545 -0
    outer loop
      vertex 16.2 6.23205 -6
      vertex 15.818 6.40211 6
      vertex 16.2 6.23205 6
    endloop
  endfacet
  facet normal 0.406737 0.913545 0
    outer loop
      vertex 15.818 6.40211 6
      vertex 16.2 6.23205 -6
      vertex 15.818 6.40211 -6
    endloop
  endfacet
  facet normal 0.866026 0.499999 0
    outer loop
      vertex 17.0271 5.31347 6
      vertex 16.818 5.67557 -6
      vertex 16.818 5.67557 6
    endloop
  endfacet
  facet normal 0.866026 0.499999 0
    outer loop
      vertex 16.818 5.67557 -6
      vertex 17.0271 5.31347 6
      vertex 17.0271 5.31347 -6
    endloop
  endfacet
  facet normal 0.951055 0.30902 0
    outer loop
      vertex 17.1563 4.91582 6
      vertex 17.0271 5.31347 -6
      vertex 17.0271 5.31347 6
    endloop
  endfacet
  facet normal 0.951055 0.30902 0
    outer loop
      vertex 17.0271 5.31347 -6
      vertex 17.1563 4.91582 6
      vertex 17.1563 4.91582 -6
    endloop
  endfacet
  facet normal -0.406739 0.913545 0
    outer loop
      vertex 12.582 6.40211 -6
      vertex 12.2 6.23205 6
      vertex 12.582 6.40211 6
    endloop
  endfacet
  facet normal -0.406739 0.913545 0
    outer loop
      vertex 12.2 6.23205 6
      vertex 12.582 6.40211 -6
      vertex 12.2 6.23205 -6
    endloop
  endfacet
endsolid OpenSCAD_Model
