solid OpenSCAD_Model
  facet normal 0.994522 -0.104529 0
    outer loop
      vertex 1.9563 -4.91582 6
      vertex 2 -4.5 2
      vertex 2 -4.5 6
    endloop
  endfacet
  facet normal 0.994522 -0.104529 0
    outer loop
      vertex 2 -4.5 2
      vertex 1.9563 -4.91582 6
      vertex 2 -4.5 -2
    endloop
  endfacet
  facet normal 0.994522 -0.104529 0
    outer loop
      vertex 1.9563 -4.91582 -6
      vertex 2 -4.5 -2
      vertex 1.9563 -4.91582 6
    endloop
  endfacet
  facet normal 0.994522 -0.104529 0
    outer loop
      vertex 2 -4.5 -2
      vertex 1.9563 -4.91582 -6
      vertex 2 -4.5 -6
    endloop
  endfacet
  facet normal 1 -0 0
    outer loop
      vertex 2 -4.5 -2
      vertex 2 4.5 -6
      vertex 2 4.5 -2
    endloop
  endfacet
  facet normal 1 0 0
    outer loop
      vertex 2 4.5 -6
      vertex 2 -4.5 -2
      vertex 2 -4.5 -6
    endloop
  endfacet
  facet normal 1 -0 0
    outer loop
      vertex 2 -4.5 6
      vertex 2 4.5 2
      vertex 2 4.5 6
    endloop
  endfacet
  facet normal 1 0 0
    outer loop
      vertex 2 4.5 2
      vertex 2 -4.5 6
      vertex 2 -4.5 2
    endloop
  endfacet
  facet normal 0.207911 0.978148 -0
    outer loop
      vertex 0.618033 6.40211 -6
      vertex 0.209057 6.48904 6
      vertex 0.618033 6.40211 6
    endloop
  endfacet
  facet normal 0.207911 0.978148 0
    outer loop
      vertex 0.209057 6.48904 6
      vertex 0.618033 6.40211 -6
      vertex 0.209057 6.48904 -6
    endloop
  endfacet
  facet normal 0.866026 -0.499999 0
    outer loop
      vertex 1.61803 -5.67557 6
      vertex 1.82709 -5.31347 -6
      vertex 1.82709 -5.31347 6
    endloop
  endfacet
  facet normal 0.866026 -0.499999 0
    outer loop
      vertex 1.82709 -5.31347 -6
      vertex 1.61803 -5.67557 6
      vertex 1.61803 -5.67557 -6
    endloop
  endfacet
  facet normal 0.743144 -0.669131 0
    outer loop
      vertex 1.33826 -5.98629 6
      vertex 1.61803 -5.67557 -6
      vertex 1.61803 -5.67557 6
    endloop
  endfacet
  facet normal 0.743144 -0.669131 0
    outer loop
      vertex 1.61803 -5.67557 -6
      vertex 1.33826 -5.98629 6
      vertex 1.33826 -5.98629 -6
    endloop
  endfacet
  facet normal -0.994522 -0.104529 0
    outer loop
      vertex -3.9563 -4.91582 -6
      vertex -4 -4.5 6
      vertex -4 -4.5 -6
    endloop
  endfacet
  facet normal -0.994522 -0.104529 0
    outer loop
      vertex -4 -4.5 6
      vertex -3.9563 -4.91582 -6
      vertex -3.9563 -4.91582 6
    endloop
  endfacet
  facet normal 0.994522 0.104529 -0
    outer loop
      vertex 2 4.5 2
      vertex 1.9563 4.91582 6
      vertex 2 4.5 6
    endloop
  endfacet
  facet normal 0.994522 0.104529 0
    outer loop
      vertex 1.9563 4.91582 6
      vertex 2 4.5 2
      vertex 1.9563 4.91582 -6
    endloop
  endfacet
  facet normal 0.994522 0.104529 -0
    outer loop
      vertex 2 4.5 -2
      vertex 1.9563 4.91582 -6
      vertex 2 4.5 2
    endloop
  endfacet
  facet normal 0.994522 0.104529 0
    outer loop
      vertex 1.9563 4.91582 -6
      vertex 2 4.5 -2
      vertex 2 4.5 -6
    endloop
  endfacet
  facet normal 0.587786 -0.809017 0
    outer loop
      vertex 1 -6.23205 -6
      vertex 1.33826 -5.98629 6
      vertex 1 -6.23205 6
    endloop
  endfacet
  facet normal 0.587786 -0.809017 0
    outer loop
      vertex 1.33826 -5.98629 6
      vertex 1 -6.23205 -6
      vertex 1.33826 -5.98629 -6
    endloop
  endfacet
  facet normal 0.951056 -0.309018 0
    outer loop
      vertex 1.82709 -5.31347 6
      vertex 1.9563 -4.91582 -6
      vertex 1.9563 -4.91582 6
    endloop
  endfacet
  facet normal 0.951056 -0.309018 0
    outer loop
      vertex 1.9563 -4.91582 -6
      vertex 1.82709 -5.31347 6
      vertex 1.82709 -5.31347 -6
    endloop
  endfacet
  facet normal 0.207911 -0.978148 0
    outer loop
      vertex 0.209057 -6.48904 -6
      vertex 0.618033 -6.40211 6
      vertex 0.209057 -6.48904 6
    endloop
  endfacet
  facet normal 0.207911 -0.978148 0
    outer loop
      vertex 0.618033 -6.40211 6
      vertex 0.209057 -6.48904 -6
      vertex 0.618033 -6.40211 -6
    endloop
  endfacet
  facet normal 0.406738 -0.913545 0
    outer loop
      vertex 0.618033 -6.40211 -6
      vertex 1 -6.23205 6
      vertex 0.618033 -6.40211 6
    endloop
  endfacet
  facet normal 0.406738 -0.913545 0
    outer loop
      vertex 1 -6.23205 6
      vertex 0.618033 -6.40211 -6
      vertex 1 -6.23205 -6
    endloop
  endfacet
  facet normal -0.587786 -0.809017 0
    outer loop
      vertex -3.33826 -5.98629 -6
      vertex -3 -6.23205 6
      vertex -3.33826 -5.98629 6
    endloop
  endfacet
  facet normal -0.587786 -0.809017 -0
    outer loop
      vertex -3 -6.23205 6
      vertex -3.33826 -5.98629 -6
      vertex -3 -6.23205 -6
    endloop
  endfacet
  facet normal 0 -1 0
    outer loop
      vertex -2.20906 -6.48904 -6
      vertex 0.209057 -6.48904 6
      vertex -2.20906 -6.48904 6
    endloop
  endfacet
  facet normal 0 -1 -0
    outer loop
      vertex 0.209057 -6.48904 6
      vertex -2.20906 -6.48904 -6
      vertex 0.209057 -6.48904 -6
    endloop
  endfacet
  facet normal 0 0 1
    outer loop
      vertex 0.209057 6.48904 6
      vertex 2 4.5 6
      vertex 1.9563 4.91582 6
    endloop
  endfacet
  facet normal 0 0 1
    outer loop
      vertex 2 4.5 6
      vertex -4 4.5 6
      vertex 2 -4.5 6
    endloop
  endfacet
  facet normal 0 0 1
    outer loop
      vertex 0.209057 6.48904 6
      vertex 1.9563 4.91582 6
      vertex 1.82709 5.31347 6
    endloop
  endfacet
  facet normal -0 0 1
    outer loop
      vertex -4 -4.5 6
      vertex 2 -4.5 6
      vertex -4 4.5 6
    endloop
  endfacet
  facet normal 0 0 1
    outer loop
      vertex 0.209057 6.48904 6
      vertex 1.82709 5.31347 6
      vertex 1.61803 5.67557 6
    endloop
  endfacet
  facet normal 0 -0 1
    outer loop
      vertex 0.209057 -6.48904 6
      vertex 2 -4.5 6
      vertex -4 -4.5 6
    endloop
  endfacet
  facet normal 0 0 1
    outer loop
      vertex 0.209057 6.48904 6
      vertex 1.61803 5.67557 6
      vertex 1.33826 5.98629 6
    endloop
  endfacet
  facet normal 0 0 1
    outer loop
      vertex 2 -4.5 6
      vertex 0.209057 -6.48904 6
      vertex 1.9563 -4.91582 6
    endloop
  endfacet
  facet normal 0 0 1
    outer loop
      vertex 0.209057 6.48904 6
      vertex 1.33826 5.98629 6
      vertex 1 6.23205 6
    endloop
  endfacet
  facet normal 0 0 1
    outer loop
      vertex 1.9563 -4.91582 6
      vertex 0.209057 -6.48904 6
      vertex 1.82709 -5.31347 6
    endloop
  endfacet
  facet normal 0 0 1
    outer loop
      vertex 0.209057 6.48904 6
      vertex 1 6.23205 6
      vertex 0.618033 6.40211 6
    endloop
  endfacet
  facet normal 0 0 1
    outer loop
      vertex 1.82709 -5.31347 6
      vertex 0.209057 -6.48904 6
      vertex 1.61803 -5.67557 6
    endloop
  endfacet
  facet normal 0 0 1
    outer loop
      vertex 2 4.5 6
      vertex 0.209057 6.48904 6
      vertex -4 4.5 6
    endloop
  endfacet
  facet normal 0 0 1
    outer loop
      vertex 1.61803 -5.67557 6
      vertex 0.209057 -6.48904 6
      vertex 1.33826 -5.98629 6
    endloop
  endfacet
  facet normal 0 0 1
    outer loop
      vertex -4 4.5 6
      vertex 0.209057 6.48904 6
      vertex -2.20906 6.48904 6
    endloop
  endfacet
  facet normal 0 0 1
    outer loop
      vertex 1.33826 -5.98629 6
      vertex 0.209057 -6.48904 6
      vertex 1 -6.23205 6
    endloop
  endfacet
  facet normal 0 0 1
    outer loop
      vertex -4 4.5 6
      vertex -2.20906 6.48904 6
      vertex -2.61803 6.40211 6
    endloop
  endfacet
  facet normal 0 0 1
    outer loop
      vertex 1 -6.23205 6
      vertex 0.209057 -6.48904 6
      vertex 0.618033 -6.40211 6
    endloop
  endfacet
  facet normal 0 0 1
    outer loop
      vertex -4 4.5 6
      vertex -2.61803 6.40211 6
      vertex -3 6.23205 6
    endloop
  endfacet
  facet normal 0 0 1
    outer loop
      vertex 0.209057 -6.48904 6
      vertex -4 -4.5 6
      vertex -2.20906 -6.48904 6
    endloop
  endfacet
  facet normal 0 0 1
    outer loop
      vertex -4 4.5 6
      vertex -3 6.23205 6
      vertex -3.33826 5.98629 6
    endloop
  endfacet
  facet normal 0 0 1
    outer loop
      vertex -2.20906 -6.48904 6
      vertex -4 -4.5 6
      vertex -2.61803 -6.40211 6
    endloop
  endfacet
  facet normal 0 0 1
    outer loop
      vertex -4 4.5 6
      vertex -3.33826 5.98629 6
      vertex -3.61803 5.67557 6
    endloop
  endfacet
  facet normal 0 0 1
    outer loop
      vertex -2.61803 -6.40211 6
      vertex -4 -4.5 6
      vertex -3 -6.23205 6
    endloop
  endfacet
  facet normal 0 0 1
    outer loop
      vertex -4 4.5 6
      vertex -3.61803 5.67557 6
      vertex -3.82709 5.31347 6
    endloop
  endfacet
  facet normal 0 0 1
    outer loop
      vertex -3 -6.23205 6
      vertex -4 -4.5 6
      vertex -3.33826 -5.98629 6
    endloop
  endfacet
  facet normal 0 0 1
    outer loop
      vertex -4 4.5 6
      vertex -3.82709 5.31347 6
      vertex -3.9563 4.91582 6
    endloop
  endfacet
  facet normal 0 0 1
    outer loop
      vertex -3.33826 -5.98629 6
      vertex -4 -4.5 6
      vertex -3.61803 -5.67557 6
    endloop
  endfacet
  facet normal 0 0 1
    outer loop
      vertex -3.61803 -5.67557 6
      vertex -4 -4.5 6
      vertex -3.82709 -5.31347 6
    endloop
  endfacet
  facet normal 0 0 1
    outer loop
      vertex -3.82709 -5.31347 6
      vertex -4 -4.5 6
      vertex -3.9563 -4.91582 6
    endloop
  endfacet
  facet normal -0.743144 -0.669131 0
    outer loop
      vertex -3.33826 -5.98629 -6
      vertex -3.61803 -5.67557 6
      vertex -3.61803 -5.67557 -6
    endloop
  endfacet
  facet normal -0.743144 -0.669131 0
    outer loop
      vertex -3.61803 -5.67557 6
      vertex -3.33826 -5.98629 -6
      vertex -3.33826 -5.98629 6
    endloop
  endfacet
  facet normal -0.951056 -0.309018 0
    outer loop
      vertex -3.82709 -5.31347 -6
      vertex -3.9563 -4.91582 6
      vertex -3.9563 -4.91582 -6
    endloop
  endfacet
  facet normal -0.951056 -0.309018 0
    outer loop
      vertex -3.9563 -4.91582 6
      vertex -3.82709 -5.31347 -6
      vertex -3.82709 -5.31347 6
    endloop
  endfacet
  facet normal -0.994522 0.104529 0
    outer loop
      vertex -4 4.5 -6
      vertex -3.9563 4.91582 6
      vertex -3.9563 4.91582 -6
    endloop
  endfacet
  facet normal -0.994522 0.104529 0
    outer loop
      vertex -3.9563 4.91582 6
      vertex -4 4.5 -6
      vertex -4 4.5 6
    endloop
  endfacet
  facet normal -1 0 0
    outer loop
      vertex -4 -4.5 -6
      vertex -4 4.5 6
      vertex -4 4.5 -6
    endloop
  endfacet
  facet normal -1 -0 0
    outer loop
      vertex -4 4.5 6
      vertex -4 -4.5 -6
      vertex -4 -4.5 6
    endloop
  endfacet
  facet normal 0 0 -1
    outer loop
      vertex 0.209057 -6.48904 -6
      vertex 2 -4.5 -6
      vertex 1.9563 -4.91582 -6
    endloop
  endfacet
  facet normal 0 0 -1
    outer loop
      vertex 2 -4.5 -6
      vertex -4 -4.5 -6
      vertex 2 4.5 -6
    endloop
  endfacet
  facet normal 0 0 -1
    outer loop
      vertex 0.209057 -6.48904 -6
      vertex 1.9563 -4.91582 -6
      vertex 1.82709 -5.31347 -6
    endloop
  endfacet
  facet normal 0 0 -1
    outer loop
      vertex -4 4.5 -6
      vertex 2 4.5 -6
      vertex -4 -4.5 -6
    endloop
  endfacet
  facet normal 0 0 -1
    outer loop
      vertex 0.209057 -6.48904 -6
      vertex 1.82709 -5.31347 -6
      vertex 1.61803 -5.67557 -6
    endloop
  endfacet
  facet normal 0 -0 -1
    outer loop
      vertex 0.209057 6.48904 -6
      vertex 2 4.5 -6
      vertex -4 4.5 -6
    endloop
  endfacet
  facet normal 0 0 -1
    outer loop
      vertex 0.209057 -6.48904 -6
      vertex 1.61803 -5.67557 -6
      vertex 1.33826 -5.98629 -6
    endloop
  endfacet
  facet normal 0 0 -1
    outer loop
      vertex 2 4.5 -6
      vertex 0.209057 6.48904 -6
      vertex 1.9563 4.91582 -6
    endloop
  endfacet
  facet normal 0 0 -1
    outer loop
      vertex 0.209057 -6.48904 -6
      vertex 1.33826 -5.98629 -6
      vertex 1 -6.23205 -6
    endloop
  endfacet
  facet normal 0 0 -1
    outer loop
      vertex 1.9563 4.91582 -6
      vertex 0.209057 6.48904 -6
      vertex 1.82709 5.31347 -6
    endloop
  endfacet
  facet normal 0 0 -1
    outer loop
      vertex 0.209057 -6.48904 -6
      vertex 1 -6.23205 -6
      vertex 0.618033 -6.40211 -6
    endloop
  endfacet
  facet normal 0 0 -1
    outer loop
      vertex 1.82709 5.31347 -6
      vertex 0.209057 6.48904 -6
      vertex 1.61803 5.67557 -6
    endloop
  endfacet
  facet normal -0 0 -1
    outer loop
      vertex 2 -4.5 -6
      vertex 0.209057 -6.48904 -6
      vertex -4 -4.5 -6
    endloop
  endfacet
  facet normal 0 0 -1
    outer loop
      vertex 1.61803 5.67557 -6
      vertex 0.209057 6.48904 -6
      vertex 1.33826 5.98629 -6
    endloop
  endfacet
  facet normal 0 0 -1
    outer loop
      vertex -4 -4.5 -6
      vertex 0.209057 -6.48904 -6
      vertex -2.20906 -6.48904 -6
    endloop
  endfacet
  facet normal 0 0 -1
    outer loop
      vertex 1.33826 5.98629 -6
      vertex 0.209057 6.48904 -6
      vertex 1 6.23205 -6
    endloop
  endfacet
  facet normal 0 0 -1
    outer loop
      vertex -4 -4.5 -6
      vertex -2.20906 -6.48904 -6
      vertex -2.61803 -6.40211 -6
    endloop
  endfacet
  facet normal 0 0 -1
    outer loop
      vertex 1 6.23205 -6
      vertex 0.209057 6.48904 -6
      vertex 0.618033 6.40211 -6
    endloop
  endfacet
  facet normal 0 0 -1
    outer loop
      vertex -2.20906 6.48904 -6
      vertex -4 4.5 -6
      vertex -2.61803 6.40211 -6
    endloop
  endfacet
  facet normal 0 0 -1
    outer loop
      vertex -4 -4.5 -6
      vertex -2.61803 -6.40211 -6
      vertex -3 -6.23205 -6
    endloop
  endfacet
  facet normal 0 0 -1
    outer loop
      vertex -4 -4.5 -6
      vertex -3 -6.23205 -6
      vertex -3.33826 -5.98629 -6
    endloop
  endfacet
  facet normal -0 0 -1
    outer loop
      vertex 0.209057 6.48904 -6
      vertex -4 4.5 -6
      vertex -2.20906 6.48904 -6
    endloop
  endfacet
  facet normal 0 0 -1
    outer loop
      vertex -4 -4.5 -6
      vertex -3.33826 -5.98629 -6
      vertex -3.61803 -5.67557 -6
    endloop
  endfacet
  facet normal 0 0 -1
    outer loop
      vertex -2.61803 6.40211 -6
      vertex -4 4.5 -6
      vertex -3 6.23205 -6
    endloop
  endfacet
  facet normal 0 0 -1
    outer loop
      vertex -4 -4.5 -6
      vertex -3.61803 -5.67557 -6
      vertex -3.82709 -5.31347 -6
    endloop
  endfacet
  facet normal 0 0 -1
    outer loop
      vertex -3 6.23205 -6
      vertex -4 4.5 -6
      vertex -3.33826 5.98629 -6
    endloop
  endfacet
  facet normal 0 0 -1
    outer loop
      vertex -4 -4.5 -6
      vertex -3.82709 -5.31347 -6
      vertex -3.9563 -4.91582 -6
    endloop
  endfacet
  facet normal 0 0 -1
    outer loop
      vertex -3.33826 5.98629 -6
      vertex -4 4.5 -6
      vertex -3.61803 5.67557 -6
    endloop
  endfacet
  facet normal 0 0 -1
    outer loop
      vertex -3.61803 5.67557 -6
      vertex -4 4.5 -6
      vertex -3.82709 5.31347 -6
    endloop
  endfacet
  facet normal 0 0 -1
    outer loop
      vertex -3.82709 5.31347 -6
      vertex -4 4.5 -6
      vertex -3.9563 4.91582 -6
    endloop
  endfacet
  facet normal -0.951056 0.309018 0
    outer loop
      vertex -3.9563 4.91582 -6
      vertex -3.82709 5.31347 6
      vertex -3.82709 5.31347 -6
    endloop
  endfacet
  facet normal -0.951056 0.309018 0
    outer loop
      vertex -3.82709 5.31347 6
      vertex -3.9563 4.91582 -6
      vertex -3.9563 4.91582 6
    endloop
  endfacet
  facet normal -0.743144 0.669131 0
    outer loop
      vertex -3.61803 5.67557 -6
      vertex -3.33826 5.98629 6
      vertex -3.33826 5.98629 -6
    endloop
  endfacet
  facet normal -0.743144 0.669131 0
    outer loop
      vertex -3.33826 5.98629 6
      vertex -3.61803 5.67557 -6
      vertex -3.61803 5.67557 6
    endloop
  endfacet
  facet normal 0 1 -0
    outer loop
      vertex 0.209057 6.48904 -6
      vertex -2.20906 6.48904 6
      vertex 0.209057 6.48904 6
    endloop
  endfacet
  facet normal 0 1 0
    outer loop
      vertex -2.20906 6.48904 6
      vertex 0.209057 6.48904 -6
      vertex -2.20906 6.48904 -6
    endloop
  endfacet
  facet normal -0.207911 0.978148 0
    outer loop
      vertex -2.20906 6.48904 -6
      vertex -2.61803 6.40211 6
      vertex -2.20906 6.48904 6
    endloop
  endfacet
  facet normal -0.207911 0.978148 0
    outer loop
      vertex -2.61803 6.40211 6
      vertex -2.20906 6.48904 -6
      vertex -2.61803 6.40211 -6
    endloop
  endfacet
  facet normal -0.587784 0.809018 0
    outer loop
      vertex -3 6.23205 -6
      vertex -3.33826 5.98629 6
      vertex -3 6.23205 6
    endloop
  endfacet
  facet normal -0.587784 0.809018 0
    outer loop
      vertex -3.33826 5.98629 6
      vertex -3 6.23205 -6
      vertex -3.33826 5.98629 -6
    endloop
  endfacet
  facet normal 0.866026 0.499999 0
    outer loop
      vertex 1.82709 5.31347 6
      vertex 1.61803 5.67557 -6
      vertex 1.61803 5.67557 6
    endloop
  endfacet
  facet normal 0.866026 0.499999 0
    outer loop
      vertex 1.61803 5.67557 -6
      vertex 1.82709 5.31347 6
      vertex 1.82709 5.31347 -6
    endloop
  endfacet
  facet normal 0.406738 0.913545 -0
    outer loop
      vertex 1 6.23205 -6
      vertex 0.618033 6.40211 6
      vertex 1 6.23205 6
    endloop
  endfacet
  facet normal 0.406738 0.913545 0
    outer loop
      vertex 0.618033 6.40211 6
      vertex 1 6.23205 -6
      vertex 0.618033 6.40211 -6
    endloop
  endfacet
  facet normal 0.743144 0.669131 0
    outer loop
      vertex 1.61803 5.67557 6
      vertex 1.33826 5.98629 -6
      vertex 1.33826 5.98629 6
    endloop
  endfacet
  facet normal 0.743144 0.669131 0
    outer loop
      vertex 1.33826 5.98629 -6
      vertex 1.61803 5.67557 6
      vertex 1.61803 5.67557 -6
    endloop
  endfacet
  facet normal -0.207911 -0.978148 0
    outer loop
      vertex -2.61803 -6.40211 -6
      vertex -2.20906 -6.48904 6
      vertex -2.61803 -6.40211 6
    endloop
  endfacet
  facet normal -0.207911 -0.978148 -0
    outer loop
      vertex -2.20906 -6.48904 6
      vertex -2.61803 -6.40211 -6
      vertex -2.20906 -6.48904 -6
    endloop
  endfacet
  facet normal -0.406738 -0.913545 0
    outer loop
      vertex -3 -6.23205 -6
      vertex -2.61803 -6.40211 6
      vertex -3 -6.23205 6
    endloop
  endfacet
  facet normal -0.406738 -0.913545 -0
    outer loop
      vertex -2.61803 -6.40211 6
      vertex -3 -6.23205 -6
      vertex -2.61803 -6.40211 -6
    endloop
  endfacet
  facet normal -0.866026 -0.499999 0
    outer loop
      vertex -3.61803 -5.67557 -6
      vertex -3.82709 -5.31347 6
      vertex -3.82709 -5.31347 -6
    endloop
  endfacet
  facet normal -0.866026 -0.499999 0
    outer loop
      vertex -3.82709 -5.31347 6
      vertex -3.61803 -5.67557 -6
      vertex -3.61803 -5.67557 6
    endloop
  endfacet
  facet normal -0.866026 0.499999 0
    outer loop
      vertex -3.82709 5.31347 -6
      vertex -3.61803 5.67557 6
      vertex -3.61803 5.67557 -6
    endloop
  endfacet
  facet normal -0.866026 0.499999 0
    outer loop
      vertex -3.61803 5.67557 6
      vertex -3.82709 5.31347 -6
      vertex -3.82709 5.31347 6
    endloop
  endfacet
  facet normal -0.406739 0.913545 0
    outer loop
      vertex -2.61803 6.40211 -6
      vertex -3 6.23205 6
      vertex -2.61803 6.40211 6
    endloop
  endfacet
  facet normal -0.406739 0.913545 0
    outer loop
      vertex -3 6.23205 6
      vertex -2.61803 6.40211 -6
      vertex -3 6.23205 -6
    endloop
  endfacet
  facet normal 0.587786 0.809017 -0
    outer loop
      vertex 1.33826 5.98629 -6
      vertex 1 6.23205 6
      vertex 1.33826 5.98629 6
    endloop
  endfacet
  facet normal 0.587786 0.809017 0
    outer loop
      vertex 1 6.23205 6
      vertex 1.33826 5.98629 -6
      vertex 1 6.23205 -6
    endloop
  endfacet
  facet normal 0.951056 0.309018 0
    outer loop
      vertex 1.9563 4.91582 6
      vertex 1.82709 5.31347 -6
      vertex 1.82709 5.31347 6
    endloop
  endfacet
  facet normal 0.951056 0.309018 0
    outer loop
      vertex 1.82709 5.31347 -6
      vertex 1.9563 4.91582 6
      vertex 1.9563 4.91582 -6
    endloop
  endfacet
  facet normal -0 0 1
    outer loop
      vertex 2 4.5 2
      vertex 4.4 -4.5 2
      vertex 4.4 4.5 2
    endloop
  endfacet
  facet normal 0 0 1
    outer loop
      vertex 2 -4.5 2
      vertex 4.4 -4.5 2
      vertex 2 4.5 2
    endloop
  endfacet
  facet normal 0 1 -0
    outer loop
      vertex 4.4 4.5 -2
      vertex 2 4.5 2
      vertex 4.4 4.5 2
    endloop
  endfacet
  facet normal 0 1 0
    outer loop
      vertex 2 4.5 2
      vertex 4.4 4.5 -2
      vertex 2 4.5 -2
    endloop
  endfacet
  facet normal -0 0 -1
    outer loop
      vertex 4.4 -4.5 -2
      vertex 2 -4.5 -2
      vertex 4.4 4.5 -2
    endloop
  endfacet
  facet normal -0 0 -1
    outer loop
      vertex 4.4 4.5 -2
      vertex 2 -4.5 -2
      vertex 2 4.5 -2
    endloop
  endfacet
  facet normal 0 -1 0
    outer loop
      vertex 2 -4.5 -2
      vertex 4.4 -4.5 2
      vertex 2 -4.5 2
    endloop
  endfacet
  facet normal 0 -1 -0
    outer loop
      vertex 4.4 -4.5 2
      vertex 2 -4.5 -2
      vertex 4.4 -4.5 -2
    endloop
  endfacet
  facet normal 0.994522 -0.104529 0
    outer loop
      vertex 10.3563 -4.91582 6
      vertex 10.4 -4.5 2
      vertex 10.4 -4.5 6
    endloop
  endfacet
  facet normal 0.994522 -0.104529 0
    outer loop
      vertex 10.4 -4.5 2
      vertex 10.3563 -4.91582 6
      vertex 10.4 -4.5 -2
    endloop
  endfacet
  facet normal 0.994522 -0.104529 0
    outer loop
      vertex 10.3563 -4.91582 -6
      vertex 10.4 -4.5 -2
      vertex 10.3563 -4.91582 6
    endloop
  endfacet
  facet normal 0.994522 -0.104529 0
    outer loop
      vertex 10.4 -4.5 -2
      vertex 10.3563 -4.91582 -6
      vertex 10.4 -4.5 -6
    endloop
  endfacet
  facet normal 0 -1 0
    outer loop
      vertex 6.19094 -6.48904 -6
      vertex 8.60906 -6.48904 6
      vertex 6.19094 -6.48904 6
    endloop
  endfacet
  facet normal 0 -1 -0
    outer loop
      vertex 8.60906 -6.48904 6
      vertex 6.19094 -6.48904 -6
      vertex 8.60906 -6.48904 -6
    endloop
  endfacet
  facet normal 1 -0 0
    outer loop
      vertex 10.4 -4.5 -2
      vertex 10.4 4.5 -6
      vertex 10.4 4.5 -2
    endloop
  endfacet
  facet normal 1 0 0
    outer loop
      vertex 10.4 4.5 -6
      vertex 10.4 -4.5 -2
      vertex 10.4 -4.5 -6
    endloop
  endfacet
  facet normal 1 -0 0
    outer loop
      vertex 10.4 -4.5 6
      vertex 10.4 4.5 2
      vertex 10.4 4.5 6
    endloop
  endfacet
  facet normal 1 0 0
    outer loop
      vertex 10.4 4.5 2
      vertex 10.4 -4.5 6
      vertex 10.4 -4.5 2
    endloop
  endfacet
  facet normal 0.20791 0.978148 -0
    outer loop
      vertex 9.01803 6.40211 -6
      vertex 8.60906 6.48904 6
      vertex 9.01803 6.40211 6
    endloop
  endfacet
  facet normal 0.20791 0.978148 0
    outer loop
      vertex 8.60906 6.48904 6
      vertex 9.01803 6.40211 -6
      vertex 8.60906 6.48904 -6
    endloop
  endfacet
  facet normal 0.866026 -0.499999 0
    outer loop
      vertex 10.018 -5.67557 6
      vertex 10.2271 -5.31347 -6
      vertex 10.2271 -5.31347 6
    endloop
  endfacet
  facet normal 0.866026 -0.499999 0
    outer loop
      vertex 10.2271 -5.31347 -6
      vertex 10.018 -5.67557 6
      vertex 10.018 -5.67557 -6
    endloop
  endfacet
  facet normal 0.743143 -0.669133 0
    outer loop
      vertex 9.73826 -5.98629 6
      vertex 10.018 -5.67557 -6
      vertex 10.018 -5.67557 6
    endloop
  endfacet
  facet normal 0.743143 -0.669133 0
    outer loop
      vertex 10.018 -5.67557 -6
      vertex 9.73826 -5.98629 6
      vertex 9.73826 -5.98629 -6
    endloop
  endfacet
  facet normal -0.994522 -0.104529 0
    outer loop
      vertex 4.4 -4.5 -2
      vertex 4.4437 -4.91582 -6
      vertex 4.4 -4.5 2
    endloop
  endfacet
  facet normal -0.994522 -0.104529 -2.49216e-008
    outer loop
      vertex 4.4437 -4.91582 -6
      vertex 4.4 -4.5 -2
      vertex 4.4 -4.5 -6
    endloop
  endfacet
  facet normal -0.994522 -0.104529 -0
    outer loop
      vertex 4.4437 -4.91582 6
      vertex 4.4 -4.5 2
      vertex 4.4437 -4.91582 -6
    endloop
  endfacet
  facet normal -0.994522 -0.104529 2.49216e-008
    outer loop
      vertex 4.4 -4.5 2
      vertex 4.4437 -4.91582 6
      vertex 4.4 -4.5 6
    endloop
  endfacet
  facet normal 0.994522 0.104529 -0
    outer loop
      vertex 10.4 4.5 2
      vertex 10.3563 4.91582 6
      vertex 10.4 4.5 6
    endloop
  endfacet
  facet normal 0.994522 0.104529 0
    outer loop
      vertex 10.3563 4.91582 6
      vertex 10.4 4.5 2
      vertex 10.3563 4.91582 -6
    endloop
  endfacet
  facet normal 0.994522 0.104529 -0
    outer loop
      vertex 10.4 4.5 -2
      vertex 10.3563 4.91582 -6
      vertex 10.4 4.5 2
    endloop
  endfacet
  facet normal 0.994522 0.104529 0
    outer loop
      vertex 10.3563 4.91582 -6
      vertex 10.4 4.5 -2
      vertex 10.4 4.5 -6
    endloop
  endfacet
  facet normal 0.587786 -0.809017 0
    outer loop
      vertex 9.4 -6.23205 -6
      vertex 9.73826 -5.98629 6
      vertex 9.4 -6.23205 6
    endloop
  endfacet
  facet normal 0.587786 -0.809017 0
    outer loop
      vertex 9.73826 -5.98629 6
      vertex 9.4 -6.23205 -6
      vertex 9.73826 -5.98629 -6
    endloop
  endfacet
  facet normal 0.951057 -0.309016 0
    outer loop
      vertex 10.2271 -5.31347 6
      vertex 10.3563 -4.91582 -6
      vertex 10.3563 -4.91582 6
    endloop
  endfacet
  facet normal 0.951057 -0.309016 0
    outer loop
      vertex 10.3563 -4.91582 -6
      vertex 10.2271 -5.31347 6
      vertex 10.2271 -5.31347 -6
    endloop
  endfacet
  facet normal 0.20791 -0.978148 0
    outer loop
      vertex 8.60906 -6.48904 -6
      vertex 9.01803 -6.40211 6
      vertex 8.60906 -6.48904 6
    endloop
  endfacet
  facet normal 0.20791 -0.978148 0
    outer loop
      vertex 9.01803 -6.40211 6
      vertex 8.60906 -6.48904 -6
      vertex 9.01803 -6.40211 -6
    endloop
  endfacet
  facet normal 0.406739 -0.913545 0
    outer loop
      vertex 9.01803 -6.40211 -6
      vertex 9.4 -6.23205 6
      vertex 9.01803 -6.40211 6
    endloop
  endfacet
  facet normal 0.406739 -0.913545 0
    outer loop
      vertex 9.4 -6.23205 6
      vertex 9.01803 -6.40211 -6
      vertex 9.4 -6.23205 -6
    endloop
  endfacet
  facet normal -0.587784 -0.809018 0
    outer loop
      vertex 5.06174 -5.98629 -6
      vertex 5.4 -6.23205 6
      vertex 5.06174 -5.98629 6
    endloop
  endfacet
  facet normal -0.587784 -0.809018 -0
    outer loop
      vertex 5.4 -6.23205 6
      vertex 5.06174 -5.98629 -6
      vertex 5.4 -6.23205 -6
    endloop
  endfacet
  facet normal 0 0 1
    outer loop
      vertex 8.60906 6.48904 6
      vertex 10.4 4.5 6
      vertex 10.3563 4.91582 6
    endloop
  endfacet
  facet normal 0 0 1
    outer loop
      vertex 10.4 4.5 6
      vertex 4.4 4.5 6
      vertex 10.4 -4.5 6
    endloop
  endfacet
  facet normal 0 0 1
    outer loop
      vertex 8.60906 6.48904 6
      vertex 10.3563 4.91582 6
      vertex 10.2271 5.31347 6
    endloop
  endfacet
  facet normal -0 0 1
    outer loop
      vertex 4.4 -4.5 6
      vertex 10.4 -4.5 6
      vertex 4.4 4.5 6
    endloop
  endfacet
  facet normal 0 0 1
    outer loop
      vertex 8.60906 6.48904 6
      vertex 10.2271 5.31347 6
      vertex 10.018 5.67557 6
    endloop
  endfacet
  facet normal 0 -0 1
    outer loop
      vertex 8.60906 -6.48904 6
      vertex 10.4 -4.5 6
      vertex 4.4 -4.5 6
    endloop
  endfacet
  facet normal 0 0 1
    outer loop
      vertex 8.60906 6.48904 6
      vertex 10.018 5.67557 6
      vertex 9.73826 5.98629 6
    endloop
  endfacet
  facet normal 0 0 1
    outer loop
      vertex 10.4 -4.5 6
      vertex 8.60906 -6.48904 6
      vertex 10.3563 -4.91582 6
    endloop
  endfacet
  facet normal 0 0 1
    outer loop
      vertex 8.60906 6.48904 6
      vertex 9.73826 5.98629 6
      vertex 9.4 6.23205 6
    endloop
  endfacet
  facet normal 0 0 1
    outer loop
      vertex 10.3563 -4.91582 6
      vertex 8.60906 -6.48904 6
      vertex 10.2271 -5.31347 6
    endloop
  endfacet
  facet normal 0 0 1
    outer loop
      vertex 8.60906 6.48904 6
      vertex 9.4 6.23205 6
      vertex 9.01803 6.40211 6
    endloop
  endfacet
  facet normal 0 0 1
    outer loop
      vertex 10.2271 -5.31347 6
      vertex 8.60906 -6.48904 6
      vertex 10.018 -5.67557 6
    endloop
  endfacet
  facet normal 0 0 1
    outer loop
      vertex 10.4 4.5 6
      vertex 8.60906 6.48904 6
      vertex 4.4 4.5 6
    endloop
  endfacet
  facet normal 0 0 1
    outer loop
      vertex 10.018 -5.67557 6
      vertex 8.60906 -6.48904 6
      vertex 9.73826 -5.98629 6
    endloop
  endfacet
  facet normal 0 0 1
    outer loop
      vertex 4.4 4.5 6
      vertex 8.60906 6.48904 6
      vertex 6.19094 6.48904 6
    endloop
  endfacet
  facet normal 0 0 1
    outer loop
      vertex 9.73826 -5.98629 6
      vertex 8.60906 -6.48904 6
      vertex 9.4 -6.23205 6
    endloop
  endfacet
  facet normal 0 0 1
    outer loop
      vertex 4.4 4.5 6
      vertex 6.19094 6.48904 6
      vertex 5.78197 6.40211 6
    endloop
  endfacet
  facet normal 0 0 1
    outer loop
      vertex 9.4 -6.23205 6
      vertex 8.60906 -6.48904 6
      vertex 9.01803 -6.40211 6
    endloop
  endfacet
  facet normal 0 0 1
    outer loop
      vertex 4.4 4.5 6
      vertex 5.78197 6.40211 6
      vertex 5.4 6.23205 6
    endloop
  endfacet
  facet normal 0 0 1
    outer loop
      vertex 8.60906 -6.48904 6
      vertex 4.4 -4.5 6
      vertex 6.19094 -6.48904 6
    endloop
  endfacet
  facet normal 0 0 1
    outer loop
      vertex 4.4 4.5 6
      vertex 5.4 6.23205 6
      vertex 5.06174 5.98629 6
    endloop
  endfacet
  facet normal 0 0 1
    outer loop
      vertex 6.19094 -6.48904 6
      vertex 4.4 -4.5 6
      vertex 5.78197 -6.40211 6
    endloop
  endfacet
  facet normal 0 0 1
    outer loop
      vertex 4.4 4.5 6
      vertex 5.06174 5.98629 6
      vertex 4.78197 5.67557 6
    endloop
  endfacet
  facet normal 0 0 1
    outer loop
      vertex 5.78197 -6.40211 6
      vertex 4.4 -4.5 6
      vertex 5.4 -6.23205 6
    endloop
  endfacet
  facet normal 0 0 1
    outer loop
      vertex 4.4 4.5 6
      vertex 4.78197 5.67557 6
      vertex 4.57291 5.31347 6
    endloop
  endfacet
  facet normal 0 0 1
    outer loop
      vertex 5.4 -6.23205 6
      vertex 4.4 -4.5 6
      vertex 5.06174 -5.98629 6
    endloop
  endfacet
  facet normal 0 0 1
    outer loop
      vertex 4.4 4.5 6
      vertex 4.57291 5.31347 6
      vertex 4.4437 4.91582 6
    endloop
  endfacet
  facet normal 0 0 1
    outer loop
      vertex 5.06174 -5.98629 6
      vertex 4.4 -4.5 6
      vertex 4.78197 -5.67557 6
    endloop
  endfacet
  facet normal 0 0 1
    outer loop
      vertex 4.78197 -5.67557 6
      vertex 4.4 -4.5 6
      vertex 4.57291 -5.31347 6
    endloop
  endfacet
  facet normal 0 0 1
    outer loop
      vertex 4.57291 -5.31347 6
      vertex 4.4 -4.5 6
      vertex 4.4437 -4.91582 6
    endloop
  endfacet
  facet normal -0.743144 -0.669131 0
    outer loop
      vertex 5.06174 -5.98629 -6
      vertex 4.78197 -5.67557 6
      vertex 4.78197 -5.67557 -6
    endloop
  endfacet
  facet normal -0.743144 -0.669131 0
    outer loop
      vertex 4.78197 -5.67557 6
      vertex 5.06174 -5.98629 -6
      vertex 5.06174 -5.98629 6
    endloop
  endfacet
  facet normal -1 0 0
    outer loop
      vertex 4.4 -4.5 2
      vertex 4.4 4.5 6
      vertex 4.4 4.5 2
    endloop
  endfacet
  facet normal -1 -0 0
    outer loop
      vertex 4.4 4.5 6
      vertex 4.4 -4.5 2
      vertex 4.4 -4.5 6
    endloop
  endfacet
  facet normal -1 0 0
    outer loop
      vertex 4.4 -4.5 -6
      vertex 4.4 4.5 -2
      vertex 4.4 4.5 -6
    endloop
  endfacet
  facet normal -1 -0 0
    outer loop
      vertex 4.4 4.5 -2
      vertex 4.4 -4.5 -6
      vertex 4.4 -4.5 -2
    endloop
  endfacet
  facet normal 0 0 -1
    outer loop
      vertex 8.60906 -6.48904 -6
      vertex 10.4 -4.5 -6
      vertex 10.3563 -4.91582 -6
    endloop
  endfacet
  facet normal 0 0 -1
    outer loop
      vertex 10.4 -4.5 -6
      vertex 4.4 -4.5 -6
      vertex 10.4 4.5 -6
    endloop
  endfacet
  facet normal 0 0 -1
    outer loop
      vertex 8.60906 -6.48904 -6
      vertex 10.3563 -4.91582 -6
      vertex 10.2271 -5.31347 -6
    endloop
  endfacet
  facet normal 0 0 -1
    outer loop
      vertex 4.4 4.5 -6
      vertex 10.4 4.5 -6
      vertex 4.4 -4.5 -6
    endloop
  endfacet
  facet normal 0 0 -1
    outer loop
      vertex 8.60906 -6.48904 -6
      vertex 10.2271 -5.31347 -6
      vertex 10.018 -5.67557 -6
    endloop
  endfacet
  facet normal 0 -0 -1
    outer loop
      vertex 8.60906 6.48904 -6
      vertex 10.4 4.5 -6
      vertex 4.4 4.5 -6
    endloop
  endfacet
  facet normal 0 0 -1
    outer loop
      vertex 8.60906 -6.48904 -6
      vertex 10.018 -5.67557 -6
      vertex 9.73826 -5.98629 -6
    endloop
  endfacet
  facet normal 0 0 -1
    outer loop
      vertex 10.4 4.5 -6
      vertex 8.60906 6.48904 -6
      vertex 10.3563 4.91582 -6
    endloop
  endfacet
  facet normal 0 0 -1
    outer loop
      vertex 8.60906 -6.48904 -6
      vertex 9.73826 -5.98629 -6
      vertex 9.4 -6.23205 -6
    endloop
  endfacet
  facet normal 0 0 -1
    outer loop
      vertex 10.3563 4.91582 -6
      vertex 8.60906 6.48904 -6
      vertex 10.2271 5.31347 -6
    endloop
  endfacet
  facet normal 0 0 -1
    outer loop
      vertex 8.60906 -6.48904 -6
      vertex 9.4 -6.23205 -6
      vertex 9.01803 -6.40211 -6
    endloop
  endfacet
  facet normal 0 0 -1
    outer loop
      vertex 10.2271 5.31347 -6
      vertex 8.60906 6.48904 -6
      vertex 10.018 5.67557 -6
    endloop
  endfacet
  facet normal -0 0 -1
    outer loop
      vertex 10.4 -4.5 -6
      vertex 8.60906 -6.48904 -6
      vertex 4.4 -4.5 -6
    endloop
  endfacet
  facet normal 0 0 -1
    outer loop
      vertex 10.018 5.67557 -6
      vertex 8.60906 6.48904 -6
      vertex 9.73826 5.98629 -6
    endloop
  endfacet
  facet normal 0 0 -1
    outer loop
      vertex 4.4 -4.5 -6
      vertex 8.60906 -6.48904 -6
      vertex 6.19094 -6.48904 -6
    endloop
  endfacet
  facet normal 0 0 -1
    outer loop
      vertex 9.73826 5.98629 -6
      vertex 8.60906 6.48904 -6
      vertex 9.4 6.23205 -6
    endloop
  endfacet
  facet normal 0 0 -1
    outer loop
      vertex 4.4 -4.5 -6
      vertex 6.19094 -6.48904 -6
      vertex 5.78197 -6.40211 -6
    endloop
  endfacet
  facet normal 0 0 -1
    outer loop
      vertex 9.4 6.23205 -6
      vertex 8.60906 6.48904 -6
      vertex 9.01803 6.40211 -6
    endloop
  endfacet
  facet normal 0 0 -1
    outer loop
      vertex 4.4 -4.5 -6
      vertex 5.78197 -6.40211 -6
      vertex 5.4 -6.23205 -6
    endloop
  endfacet
  facet normal -0 0 -1
    outer loop
      vertex 8.60906 6.48904 -6
      vertex 4.4 4.5 -6
      vertex 6.19094 6.48904 -6
    endloop
  endfacet
  facet normal 0 0 -1
    outer loop
      vertex 4.4 -4.5 -6
      vertex 5.4 -6.23205 -6
      vertex 5.06174 -5.98629 -6
    endloop
  endfacet
  facet normal 0 0 -1
    outer loop
      vertex 6.19094 6.48904 -6
      vertex 4.4 4.5 -6
      vertex 5.78197 6.40211 -6
    endloop
  endfacet
  facet normal 0 0 -1
    outer loop
      vertex 4.4 -4.5 -6
      vertex 5.06174 -5.98629 -6
      vertex 4.78197 -5.67557 -6
    endloop
  endfacet
  facet normal 0 0 -1
    outer loop
      vertex 5.78197 6.40211 -6
      vertex 4.4 4.5 -6
      vertex 5.4 6.23205 -6
    endloop
  endfacet
  facet normal 0 0 -1
    outer loop
      vertex 4.4 -4.5 -6
      vertex 4.78197 -5.67557 -6
      vertex 4.57291 -5.31347 -6
    endloop
  endfacet
  facet normal 0 0 -1
    outer loop
      vertex 5.4 6.23205 -6
      vertex 4.4 4.5 -6
      vertex 5.06174 5.98629 -6
    endloop
  endfacet
  facet normal 0 0 -1
    outer loop
      vertex 4.4 -4.5 -6
      vertex 4.57291 -5.31347 -6
      vertex 4.4437 -4.91582 -6
    endloop
  endfacet
  facet normal 0 0 -1
    outer loop
      vertex 5.06174 5.98629 -6
      vertex 4.4 4.5 -6
      vertex 4.78197 5.67557 -6
    endloop
  endfacet
  facet normal 0 0 -1
    outer loop
      vertex 4.78197 5.67557 -6
      vertex 4.4 4.5 -6
      vertex 4.57291 5.31347 -6
    endloop
  endfacet
  facet normal 0 0 -1
    outer loop
      vertex 4.57291 5.31347 -6
      vertex 4.4 4.5 -6
      vertex 4.4437 4.91582 -6
    endloop
  endfacet
  facet normal -0.866026 0.499999 0
    outer loop
      vertex 4.57291 5.31347 -6
      vertex 4.78197 5.67557 6
      vertex 4.78197 5.67557 -6
    endloop
  endfacet
  facet normal -0.866026 0.499999 0
    outer loop
      vertex 4.78197 5.67557 6
      vertex 4.57291 5.31347 -6
      vertex 4.57291 5.31347 6
    endloop
  endfacet
  facet normal -0.951057 0.309016 0
    outer loop
      vertex 4.4437 4.91582 -6
      vertex 4.57291 5.31347 6
      vertex 4.57291 5.31347 -6
    endloop
  endfacet
  facet normal -0.951057 0.309016 0
    outer loop
      vertex 4.57291 5.31347 6
      vertex 4.4437 4.91582 -6
      vertex 4.4437 4.91582 6
    endloop
  endfacet
  facet normal -0.743144 0.669131 0
    outer loop
      vertex 4.78197 5.67557 -6
      vertex 5.06174 5.98629 6
      vertex 5.06174 5.98629 -6
    endloop
  endfacet
  facet normal -0.743144 0.669131 0
    outer loop
      vertex 5.06174 5.98629 6
      vertex 4.78197 5.67557 -6
      vertex 4.78197 5.67557 6
    endloop
  endfacet
  facet normal 0 1 -0
    outer loop
      vertex 8.60906 6.48904 -6
      vertex 6.19094 6.48904 6
      vertex 8.60906 6.48904 6
    endloop
  endfacet
  facet normal 0 1 0
    outer loop
      vertex 6.19094 6.48904 6
      vertex 8.60906 6.48904 -6
      vertex 6.19094 6.48904 -6
    endloop
  endfacet
  facet normal -0.20791 0.978148 0
    outer loop
      vertex 6.19094 6.48904 -6
      vertex 5.78197 6.40211 6
      vertex 6.19094 6.48904 6
    endloop
  endfacet
  facet normal -0.20791 0.978148 0
    outer loop
      vertex 5.78197 6.40211 6
      vertex 6.19094 6.48904 -6
      vertex 5.78197 6.40211 -6
    endloop
  endfacet
  facet normal -0.587784 0.809018 0
    outer loop
      vertex 5.4 6.23205 -6
      vertex 5.06174 5.98629 6
      vertex 5.4 6.23205 6
    endloop
  endfacet
  facet normal -0.587784 0.809018 0
    outer loop
      vertex 5.06174 5.98629 6
      vertex 5.4 6.23205 -6
      vertex 5.06174 5.98629 -6
    endloop
  endfacet
  facet normal 0.866026 0.499999 0
    outer loop
      vertex 10.2271 5.31347 6
      vertex 10.018 5.67557 -6
      vertex 10.018 5.67557 6
    endloop
  endfacet
  facet normal 0.866026 0.499999 0
    outer loop
      vertex 10.018 5.67557 -6
      vertex 10.2271 5.31347 6
      vertex 10.2271 5.31347 -6
    endloop
  endfacet
  facet normal 0.406739 0.913545 -0
    outer loop
      vertex 9.4 6.23205 -6
      vertex 9.01803 6.40211 6
      vertex 9.4 6.23205 6
    endloop
  endfacet
  facet normal 0.406739 0.913545 0
    outer loop
      vertex 9.01803 6.40211 6
      vertex 9.4 6.23205 -6
      vertex 9.01803 6.40211 -6
    endloop
  endfacet
  facet normal 0.743143 0.669133 0
    outer loop
      vertex 10.018 5.67557 6
      vertex 9.73826 5.98629 -6
      vertex 9.73826 5.98629 6
    endloop
  endfacet
  facet normal 0.743143 0.669133 0
    outer loop
      vertex 9.73826 5.98629 -6
      vertex 10.018 5.67557 6
      vertex 10.018 5.67557 -6
    endloop
  endfacet
  facet normal -0.20791 -0.978148 0
    outer loop
      vertex 5.78197 -6.40211 -6
      vertex 6.19094 -6.48904 6
      vertex 5.78197 -6.40211 6
    endloop
  endfacet
  facet normal -0.20791 -0.978148 -0
    outer loop
      vertex 6.19094 -6.48904 6
      vertex 5.78197 -6.40211 -6
      vertex 6.19094 -6.48904 -6
    endloop
  endfacet
  facet normal -0.866026 -0.499999 0
    outer loop
      vertex 4.78197 -5.67557 -6
      vertex 4.57291 -5.31347 6
      vertex 4.57291 -5.31347 -6
    endloop
  endfacet
  facet normal -0.866026 -0.499999 0
    outer loop
      vertex 4.57291 -5.31347 6
      vertex 4.78197 -5.67557 -6
      vertex 4.78197 -5.67557 6
    endloop
  endfacet
  facet normal -0.951057 -0.309016 0
    outer loop
      vertex 4.57291 -5.31347 -6
      vertex 4.4437 -4.91582 6
      vertex 4.4437 -4.91582 -6
    endloop
  endfacet
  facet normal -0.951057 -0.309016 0
    outer loop
      vertex 4.4437 -4.91582 6
      vertex 4.57291 -5.31347 -6
      vertex 4.57291 -5.31347 6
    endloop
  endfacet
  facet normal -0.994522 0.104529 0
    outer loop
      vertex 4.4 4.5 -2
      vertex 4.4437 4.91582 -6
      vertex 4.4 4.5 -6
    endloop
  endfacet
  facet normal -0.994522 0.104529 0
    outer loop
      vertex 4.4437 4.91582 -6
      vertex 4.4 4.5 -2
      vertex 4.4437 4.91582 6
    endloop
  endfacet
  facet normal -0.994522 0.104529 0
    outer loop
      vertex 4.4 4.5 2
      vertex 4.4437 4.91582 6
      vertex 4.4 4.5 -2
    endloop
  endfacet
  facet normal -0.994522 0.104529 0
    outer loop
      vertex 4.4437 4.91582 6
      vertex 4.4 4.5 2
      vertex 4.4 4.5 6
    endloop
  endfacet
  facet normal -0.406739 0.913545 0
    outer loop
      vertex 5.78197 6.40211 -6
      vertex 5.4 6.23205 6
      vertex 5.78197 6.40211 6
    endloop
  endfacet
  facet normal -0.406739 0.913545 0
    outer loop
      vertex 5.4 6.23205 6
      vertex 5.78197 6.40211 -6
      vertex 5.4 6.23205 -6
    endloop
  endfacet
  facet normal 0.587786 0.809017 -0
    outer loop
      vertex 9.73826 5.98629 -6
      vertex 9.4 6.23205 6
      vertex 9.73826 5.98629 6
    endloop
  endfacet
  facet normal 0.587786 0.809017 0
    outer loop
      vertex 9.4 6.23205 6
      vertex 9.73826 5.98629 -6
      vertex 9.4 6.23205 -6
    endloop
  endfacet
  facet normal 0.951057 0.309016 0
    outer loop
      vertex 10.3563 4.91582 6
      vertex 10.2271 5.31347 -6
      vertex 10.2271 5.31347 6
    endloop
  endfacet
  facet normal 0.951057 0.309016 0
    outer loop
      vertex 10.2271 5.31347 -6
      vertex 10.3563 4.91582 6
      vertex 10.3563 4.91582 -6
    endloop
  endfacet
  facet normal -0.406739 -0.913545 0
    outer loop
      vertex 5.4 -6.23205 -6
      vertex 5.78197 -6.40211 6
      vertex 5.4 -6.23205 6
    endloop
  endfacet
  facet normal -0.406739 -0.913545 -0
    outer loop
      vertex 5.78197 -6.40211 6
      vertex 5.4 -6.23205 -6
      vertex 5.78197 -6.40211 -6
    endloop
  endfacet
  facet normal -0 0 1
    outer loop
      vertex 10.4 4.5 2
      vertex 12.8 -4.5 2
      vertex 12.8 4.5 2
    endloop
  endfacet
  facet normal 0 0 1
    outer loop
      vertex 10.4 -4.5 2
      vertex 12.8 -4.5 2
      vertex 10.4 4.5 2
    endloop
  endfacet
  facet normal -0 0 -1
    outer loop
      vertex 12.8 -4.5 -2
      vertex 10.4 -4.5 -2
      vertex 12.8 4.5 -2
    endloop
  endfacet
  facet normal -0 0 -1
    outer loop
      vertex 12.8 4.5 -2
      vertex 10.4 -4.5 -2
      vertex 10.4 4.5 -2
    endloop
  endfacet
  facet normal 0 -1 0
    outer loop
      vertex 10.4 -4.5 -2
      vertex 12.8 -4.5 2
      vertex 10.4 -4.5 2
    endloop
  endfacet
  facet normal 0 -1 -0
    outer loop
      vertex 12.8 -4.5 2
      vertex 10.4 -4.5 -2
      vertex 12.8 -4.5 -2
    endloop
  endfacet
  facet normal 0 1 -0
    outer loop
      vertex 12.8 4.5 -2
      vertex 10.4 4.5 2
      vertex 12.8 4.5 2
    endloop
  endfacet
  facet normal 0 1 0
    outer loop
      vertex 10.4 4.5 2
      vertex 12.8 4.5 -2
      vertex 10.4 4.5 -2
    endloop
  endfacet
  facet normal 0.994522 -0.104529 0
    outer loop
      vertex 18.7563 -4.91582 6
      vertex 18.8 -4.5 -6
      vertex 18.8 -4.5 6
    endloop
  endfacet
  facet normal 0.994522 -0.104529 0
    outer loop
      vertex 18.8 -4.5 -6
      vertex 18.7563 -4.91582 6
      vertex 18.7563 -4.91582 -6
    endloop
  endfacet
  facet normal 1 -0 0
    outer loop
      vertex 18.8 -4.5 6
      vertex 18.8 4.5 -6
      vertex 18.8 4.5 6
    endloop
  endfacet
  facet normal 1 0 0
    outer loop
      vertex 18.8 4.5 -6
      vertex 18.8 -4.5 6
      vertex 18.8 -4.5 -6
    endloop
  endfacet
  facet normal 0.20791 0.978148 -0
    outer loop
      vertex 17.418 6.40211 -6
      vertex 17.0091 6.48904 6
      vertex 17.418 6.40211 6
    endloop
  endfacet
  facet normal 0.20791 0.978148 0
    outer loop
      vertex 17.0091 6.48904 6
      vertex 17.418 6.40211 -6
      vertex 17.0091 6.48904 -6
    endloop
  endfacet
  facet normal 0.866026 -0.499999 0
    outer loop
      vertex 18.418 -5.67557 6
      vertex 18.6271 -5.31347 -6
      vertex 18.6271 -5.31347 6
    endloop
  endfacet
  facet normal 0.866026 -0.499999 0
    outer loop
      vertex 18.6271 -5.31347 -6
      vertex 18.418 -5.67557 6
      vertex 18.418 -5.67557 -6
    endloop
  endfacet
  facet normal -0.994522 -0.104529 0
    outer loop
      vertex 12.8 -4.5 -2
      vertex 12.8437 -4.91582 -6
      vertex 12.8 -4.5 2
    endloop
  endfacet
  facet normal -0.994522 -0.104529 -2.49216e-008
    outer loop
      vertex 12.8437 -4.91582 -6
      vertex 12.8 -4.5 -2
      vertex 12.8 -4.5 -6
    endloop
  endfacet
  facet normal -0.994522 -0.104529 -0
    outer loop
      vertex 12.8437 -4.91582 6
      vertex 12.8 -4.5 2
      vertex 12.8437 -4.91582 -6
    endloop
  endfacet
  facet normal -0.994522 -0.104529 2.49216e-008
    outer loop
      vertex 12.8 -4.5 2
      vertex 12.8437 -4.91582 6
      vertex 12.8 -4.5 6
    endloop
  endfacet
  facet normal 0.994522 0.104529 0
    outer loop
      vertex 18.8 4.5 6
      vertex 18.7563 4.91582 -6
      vertex 18.7563 4.91582 6
    endloop
  endfacet
  facet normal 0.994522 0.104529 0
    outer loop
      vertex 18.7563 4.91582 -6
      vertex 18.8 4.5 6
      vertex 18.8 4.5 -6
    endloop
  endfacet
  facet normal 0.743143 -0.669133 0
    outer loop
      vertex 18.1383 -5.98629 6
      vertex 18.418 -5.67557 -6
      vertex 18.418 -5.67557 6
    endloop
  endfacet
  facet normal 0.743143 -0.669133 0
    outer loop
      vertex 18.418 -5.67557 -6
      vertex 18.1383 -5.98629 6
      vertex 18.1383 -5.98629 -6
    endloop
  endfacet
  facet normal 0.587786 -0.809017 0
    outer loop
      vertex 17.8 -6.23205 -6
      vertex 18.1383 -5.98629 6
      vertex 17.8 -6.23205 6
    endloop
  endfacet
  facet normal 0.587786 -0.809017 0
    outer loop
      vertex 18.1383 -5.98629 6
      vertex 17.8 -6.23205 -6
      vertex 18.1383 -5.98629 -6
    endloop
  endfacet
  facet normal 0.951057 -0.309016 0
    outer loop
      vertex 18.6271 -5.31347 6
      vertex 18.7563 -4.91582 -6
      vertex 18.7563 -4.91582 6
    endloop
  endfacet
  facet normal 0.951057 -0.309016 0
    outer loop
      vertex 18.7563 -4.91582 -6
      vertex 18.6271 -5.31347 6
      vertex 18.6271 -5.31347 -6
    endloop
  endfacet
  facet normal 0.20791 -0.978148 0
    outer loop
      vertex 17.0091 -6.48904 -6
      vertex 17.418 -6.40211 6
      vertex 17.0091 -6.48904 6
    endloop
  endfacet
  facet normal 0.20791 -0.978148 0
    outer loop
      vertex 17.418 -6.40211 6
      vertex 17.0091 -6.48904 -6
      vertex 17.418 -6.40211 -6
    endloop
  endfacet
  facet normal 0.406739 -0.913545 0
    outer loop
      vertex 17.418 -6.40211 -6
      vertex 17.8 -6.23205 6
      vertex 17.418 -6.40211 6
    endloop
  endfacet
  facet normal 0.406739 -0.913545 0
    outer loop
      vertex 17.8 -6.23205 6
      vertex 17.418 -6.40211 -6
      vertex 17.8 -6.23205 -6
    endloop
  endfacet
  facet normal -0.587786 -0.809017 0
    outer loop
      vertex 13.4617 -5.98629 -6
      vertex 13.8 -6.23205 6
      vertex 13.4617 -5.98629 6
    endloop
  endfacet
  facet normal -0.587786 -0.809017 -0
    outer loop
      vertex 13.8 -6.23205 6
      vertex 13.4617 -5.98629 -6
      vertex 13.8 -6.23205 -6
    endloop
  endfacet
  facet normal 0 -1 0
    outer loop
      vertex 14.5909 -6.48904 -6
      vertex 17.0091 -6.48904 6
      vertex 14.5909 -6.48904 6
    endloop
  endfacet
  facet normal 0 -1 -0
    outer loop
      vertex 17.0091 -6.48904 6
      vertex 14.5909 -6.48904 -6
      vertex 17.0091 -6.48904 -6
    endloop
  endfacet
  facet normal 0 0 1
    outer loop
      vertex 17.0091 6.48904 6
      vertex 18.8 4.5 6
      vertex 18.7563 4.91582 6
    endloop
  endfacet
  facet normal 0 0 1
    outer loop
      vertex 18.8 4.5 6
      vertex 12.8 4.5 6
      vertex 18.8 -4.5 6
    endloop
  endfacet
  facet normal 0 0 1
    outer loop
      vertex 17.0091 6.48904 6
      vertex 18.7563 4.91582 6
      vertex 18.6271 5.31347 6
    endloop
  endfacet
  facet normal -0 0 1
    outer loop
      vertex 12.8 -4.5 6
      vertex 18.8 -4.5 6
      vertex 12.8 4.5 6
    endloop
  endfacet
  facet normal 0 0 1
    outer loop
      vertex 17.0091 6.48904 6
      vertex 18.6271 5.31347 6
      vertex 18.418 5.67557 6
    endloop
  endfacet
  facet normal 0 -0 1
    outer loop
      vertex 17.0091 -6.48904 6
      vertex 18.8 -4.5 6
      vertex 12.8 -4.5 6
    endloop
  endfacet
  facet normal 0 0 1
    outer loop
      vertex 17.0091 6.48904 6
      vertex 18.418 5.67557 6
      vertex 18.1383 5.98629 6
    endloop
  endfacet
  facet normal 0 0 1
    outer loop
      vertex 18.8 -4.5 6
      vertex 17.0091 -6.48904 6
      vertex 18.7563 -4.91582 6
    endloop
  endfacet
  facet normal 0 0 1
    outer loop
      vertex 17.0091 6.48904 6
      vertex 18.1383 5.98629 6
      vertex 17.8 6.23205 6
    endloop
  endfacet
  facet normal 0 0 1
    outer loop
      vertex 18.7563 -4.91582 6
      vertex 17.0091 -6.48904 6
      vertex 18.6271 -5.31347 6
    endloop
  endfacet
  facet normal 0 0 1
    outer loop
      vertex 17.0091 6.48904 6
      vertex 17.8 6.23205 6
      vertex 17.418 6.40211 6
    endloop
  endfacet
  facet normal 0 0 1
    outer loop
      vertex 18.6271 -5.31347 6
      vertex 17.0091 -6.48904 6
      vertex 18.418 -5.67557 6
    endloop
  endfacet
  facet normal 0 0 1
    outer loop
      vertex 18.8 4.5 6
      vertex 17.0091 6.48904 6
      vertex 12.8 4.5 6
    endloop
  endfacet
  facet normal 0 0 1
    outer loop
      vertex 18.418 -5.67557 6
      vertex 17.0091 -6.48904 6
      vertex 18.1383 -5.98629 6
    endloop
  endfacet
  facet normal 0 0 1
    outer loop
      vertex 12.8 4.5 6
      vertex 17.0091 6.48904 6
      vertex 14.5909 6.48904 6
    endloop
  endfacet
  facet normal 0 0 1
    outer loop
      vertex 18.1383 -5.98629 6
      vertex 17.0091 -6.48904 6
      vertex 17.8 -6.23205 6
    endloop
  endfacet
  facet normal 0 0 1
    outer loop
      vertex 12.8 4.5 6
      vertex 14.5909 6.48904 6
      vertex 14.182 6.40211 6
    endloop
  endfacet
  facet normal 0 0 1
    outer loop
      vertex 17.8 -6.23205 6
      vertex 17.0091 -6.48904 6
      vertex 17.418 -6.40211 6
    endloop
  endfacet
  facet normal 0 0 1
    outer loop
      vertex 12.8 4.5 6
      vertex 14.182 6.40211 6
      vertex 13.8 6.23205 6
    endloop
  endfacet
  facet normal 0 0 1
    outer loop
      vertex 17.0091 -6.48904 6
      vertex 12.8 -4.5 6
      vertex 14.5909 -6.48904 6
    endloop
  endfacet
  facet normal 0 0 1
    outer loop
      vertex 12.8 4.5 6
      vertex 13.8 6.23205 6
      vertex 13.4617 5.98629 6
    endloop
  endfacet
  facet normal 0 0 1
    outer loop
      vertex 14.5909 -6.48904 6
      vertex 12.8 -4.5 6
      vertex 14.182 -6.40211 6
    endloop
  endfacet
  facet normal 0 0 1
    outer loop
      vertex 12.8 4.5 6
      vertex 13.4617 5.98629 6
      vertex 13.182 5.67557 6
    endloop
  endfacet
  facet normal 0 0 1
    outer loop
      vertex 14.182 -6.40211 6
      vertex 12.8 -4.5 6
      vertex 13.8 -6.23205 6
    endloop
  endfacet
  facet normal 0 0 1
    outer loop
      vertex 12.8 4.5 6
      vertex 13.182 5.67557 6
      vertex 12.9729 5.31347 6
    endloop
  endfacet
  facet normal 0 0 1
    outer loop
      vertex 13.8 -6.23205 6
      vertex 12.8 -4.5 6
      vertex 13.4617 -5.98629 6
    endloop
  endfacet
  facet normal 0 0 1
    outer loop
      vertex 12.8 4.5 6
      vertex 12.9729 5.31347 6
      vertex 12.8437 4.91582 6
    endloop
  endfacet
  facet normal 0 0 1
    outer loop
      vertex 13.4617 -5.98629 6
      vertex 12.8 -4.5 6
      vertex 13.182 -5.67557 6
    endloop
  endfacet
  facet normal 0 0 1
    outer loop
      vertex 13.182 -5.67557 6
      vertex 12.8 -4.5 6
      vertex 12.9729 -5.31347 6
    endloop
  endfacet
  facet normal 0 0 1
    outer loop
      vertex 12.9729 -5.31347 6
      vertex 12.8 -4.5 6
      vertex 12.8437 -4.91582 6
    endloop
  endfacet
  facet normal -0.587786 0.809017 0
    outer loop
      vertex 13.8 6.23205 -6
      vertex 13.4617 5.98629 6
      vertex 13.8 6.23205 6
    endloop
  endfacet
  facet normal -0.587786 0.809017 0
    outer loop
      vertex 13.4617 5.98629 6
      vertex 13.8 6.23205 -6
      vertex 13.4617 5.98629 -6
    endloop
  endfacet
  facet normal -0.743144 -0.669131 0
    outer loop
      vertex 13.4617 -5.98629 -6
      vertex 13.182 -5.67557 6
      vertex 13.182 -5.67557 -6
    endloop
  endfacet
  facet normal -0.743144 -0.669131 0
    outer loop
      vertex 13.182 -5.67557 6
      vertex 13.4617 -5.98629 -6
      vertex 13.4617 -5.98629 6
    endloop
  endfacet
  facet normal -0.994522 0.104529 0
    outer loop
      vertex 12.8 4.5 -2
      vertex 12.8437 4.91582 -6
      vertex 12.8 4.5 -6
    endloop
  endfacet
  facet normal -0.994522 0.104529 0
    outer loop
      vertex 12.8437 4.91582 -6
      vertex 12.8 4.5 -2
      vertex 12.8437 4.91582 6
    endloop
  endfacet
  facet normal -0.994522 0.104529 0
    outer loop
      vertex 12.8 4.5 2
      vertex 12.8437 4.91582 6
      vertex 12.8 4.5 -2
    endloop
  endfacet
  facet normal -0.994522 0.104529 0
    outer loop
      vertex 12.8437 4.91582 6
      vertex 12.8 4.5 2
      vertex 12.8 4.5 6
    endloop
  endfacet
  facet normal -1 0 0
    outer loop
      vertex 12.8 -4.5 2
      vertex 12.8 4.5 6
      vertex 12.8 4.5 2
    endloop
  endfacet
  facet normal -1 -0 0
    outer loop
      vertex 12.8 4.5 6
      vertex 12.8 -4.5 2
      vertex 12.8 -4.5 6
    endloop
  endfacet
  facet normal -1 0 0
    outer loop
      vertex 12.8 -4.5 -6
      vertex 12.8 4.5 -2
      vertex 12.8 4.5 -6
    endloop
  endfacet
  facet normal -1 -0 0
    outer loop
      vertex 12.8 4.5 -2
      vertex 12.8 -4.5 -6
      vertex 12.8 -4.5 -2
    endloop
  endfacet
  facet normal 0 0 -1
    outer loop
      vertex 17.0091 -6.48904 -6
      vertex 18.8 -4.5 -6
      vertex 18.7563 -4.91582 -6
    endloop
  endfacet
  facet normal 0 0 -1
    outer loop
      vertex 18.8 -4.5 -6
      vertex 12.8 -4.5 -6
      vertex 18.8 4.5 -6
    endloop
  endfacet
  facet normal 0 0 -1
    outer loop
      vertex 17.0091 -6.48904 -6
      vertex 18.7563 -4.91582 -6
      vertex 18.6271 -5.31347 -6
    endloop
  endfacet
  facet normal 0 0 -1
    outer loop
      vertex 12.8 4.5 -6
      vertex 18.8 4.5 -6
      vertex 12.8 -4.5 -6
    endloop
  endfacet
  facet normal 0 0 -1
    outer loop
      vertex 17.0091 -6.48904 -6
      vertex 18.6271 -5.31347 -6
      vertex 18.418 -5.67557 -6
    endloop
  endfacet
  facet normal 0 -0 -1
    outer loop
      vertex 17.0091 6.48904 -6
      vertex 18.8 4.5 -6
      vertex 12.8 4.5 -6
    endloop
  endfacet
  facet normal 0 0 -1
    outer loop
      vertex 17.0091 -6.48904 -6
      vertex 18.418 -5.67557 -6
      vertex 18.1383 -5.98629 -6
    endloop
  endfacet
  facet normal 0 0 -1
    outer loop
      vertex 18.8 4.5 -6
      vertex 17.0091 6.48904 -6
      vertex 18.7563 4.91582 -6
    endloop
  endfacet
  facet normal 0 0 -1
    outer loop
      vertex 17.0091 -6.48904 -6
      vertex 18.1383 -5.98629 -6
      vertex 17.8 -6.23205 -6
    endloop
  endfacet
  facet normal 0 0 -1
    outer loop
      vertex 18.7563 4.91582 -6
      vertex 17.0091 6.48904 -6
      vertex 18.6271 5.31347 -6
    endloop
  endfacet
  facet normal 0 0 -1
    outer loop
      vertex 17.0091 -6.48904 -6
      vertex 17.8 -6.23205 -6
      vertex 17.418 -6.40211 -6
    endloop
  endfacet
  facet normal 0 0 -1
    outer loop
      vertex 18.6271 5.31347 -6
      vertex 17.0091 6.48904 -6
      vertex 18.418 5.67557 -6
    endloop
  endfacet
  facet normal -0 0 -1
    outer loop
      vertex 18.8 -4.5 -6
      vertex 17.0091 -6.48904 -6
      vertex 12.8 -4.5 -6
    endloop
  endfacet
  facet normal 0 0 -1
    outer loop
      vertex 18.418 5.67557 -6
      vertex 17.0091 6.48904 -6
      vertex 18.1383 5.98629 -6
    endloop
  endfacet
  facet normal 0 0 -1
    outer loop
      vertex 12.8 -4.5 -6
      vertex 17.0091 -6.48904 -6
      vertex 14.5909 -6.48904 -6
    endloop
  endfacet
  facet normal 0 0 -1
    outer loop
      vertex 18.1383 5.98629 -6
      vertex 17.0091 6.48904 -6
      vertex 17.8 6.23205 -6
    endloop
  endfacet
  facet normal 0 0 -1
    outer loop
      vertex 12.8 -4.5 -6
      vertex 14.5909 -6.48904 -6
      vertex 14.182 -6.40211 -6
    endloop
  endfacet
  facet normal 0 0 -1
    outer loop
      vertex 17.8 6.23205 -6
      vertex 17.0091 6.48904 -6
      vertex 17.418 6.40211 -6
    endloop
  endfacet
  facet normal 0 0 -1
    outer loop
      vertex 12.8 -4.5 -6
      vertex 14.182 -6.40211 -6
      vertex 13.8 -6.23205 -6
    endloop
  endfacet
  facet normal -0 0 -1
    outer loop
      vertex 17.0091 6.48904 -6
      vertex 12.8 4.5 -6
      vertex 14.5909 6.48904 -6
    endloop
  endfacet
  facet normal 0 0 -1
    outer loop
      vertex 12.8 -4.5 -6
      vertex 13.8 -6.23205 -6
      vertex 13.4617 -5.98629 -6
    endloop
  endfacet
  facet normal 0 0 -1
    outer loop
      vertex 14.5909 6.48904 -6
      vertex 12.8 4.5 -6
      vertex 14.182 6.40211 -6
    endloop
  endfacet
  facet normal 0 0 -1
    outer loop
      vertex 12.8 -4.5 -6
      vertex 13.4617 -5.98629 -6
      vertex 13.182 -5.67557 -6
    endloop
  endfacet
  facet normal 0 0 -1
    outer loop
      vertex 14.182 6.40211 -6
      vertex 12.8 4.5 -6
      vertex 13.8 6.23205 -6
    endloop
  endfacet
  facet normal 0 0 -1
    outer loop
      vertex 12.8 -4.5 -6
      vertex 13.182 -5.67557 -6
      vertex 12.9729 -5.31347 -6
    endloop
  endfacet
  facet normal 0 0 -1
    outer loop
      vertex 13.8 6.23205 -6
      vertex 12.8 4.5 -6
      vertex 13.4617 5.98629 -6
    endloop
  endfacet
  facet normal 0 0 -1
    outer loop
      vertex 12.8 -4.5 -6
      vertex 12.9729 -5.31347 -6
      vertex 12.8437 -4.91582 -6
    endloop
  endfacet
  facet normal 0 0 -1
    outer loop
      vertex 13.4617 5.98629 -6
      vertex 12.8 4.5 -6
      vertex 13.182 5.67557 -6
    endloop
  endfacet
  facet normal 0 0 -1
    outer loop
      vertex 13.182 5.67557 -6
      vertex 12.8 4.5 -6
      vertex 12.9729 5.31347 -6
    endloop
  endfacet
  facet normal 0 0 -1
    outer loop
      vertex 12.9729 5.31347 -6
      vertex 12.8 4.5 -6
      vertex 12.8437 4.91582 -6
    endloop
  endfacet
  facet normal -0.951056 0.309018 0
    outer loop
      vertex 12.8437 4.91582 -6
      vertex 12.9729 5.31347 6
      vertex 12.9729 5.31347 -6
    endloop
  endfacet
  facet normal -0.951056 0.309018 0
    outer loop
      vertex 12.9729 5.31347 6
      vertex 12.8437 4.91582 -6
      vertex 12.8437 4.91582 6
    endloop
  endfacet
  facet normal 0 1 -0
    outer loop
      vertex 17.0091 6.48904 -6
      vertex 14.5909 6.48904 6
      vertex 17.0091 6.48904 6
    endloop
  endfacet
  facet normal 0 1 0
    outer loop
      vertex 14.5909 6.48904 6
      vertex 17.0091 6.48904 -6
      vertex 14.5909 6.48904 -6
    endloop
  endfacet
  facet normal -0.207911 0.978148 0
    outer loop
      vertex 14.5909 6.48904 -6
      vertex 14.182 6.40211 6
      vertex 14.5909 6.48904 6
    endloop
  endfacet
  facet normal -0.207911 0.978148 0
    outer loop
      vertex 14.182 6.40211 6
      vertex 14.5909 6.48904 -6
      vertex 14.182 6.40211 -6
    endloop
  endfacet
  facet normal 0.866026 0.499999 0
    outer loop
      vertex 18.6271 5.31347 6
      vertex 18.418 5.67557 -6
      vertex 18.418 5.67557 6
    endloop
  endfacet
  facet normal 0.866026 0.499999 0
    outer loop
      vertex 18.418 5.67557 -6
      vertex 18.6271 5.31347 6
      vertex 18.6271 5.31347 -6
    endloop
  endfacet
  facet normal 0.406739 0.913545 -0
    outer loop
      vertex 17.8 6.23205 -6
      vertex 17.418 6.40211 6
      vertex 17.8 6.23205 6
    endloop
  endfacet
  facet normal 0.406739 0.913545 0
    outer loop
      vertex 17.418 6.40211 6
      vertex 17.8 6.23205 -6
      vertex 17.418 6.40211 -6
    endloop
  endfacet
  facet normal 0.743143 0.669133 0
    outer loop
      vertex 18.418 5.67557 6
      vertex 18.1383 5.98629 -6
      vertex 18.1383 5.98629 6
    endloop
  endfacet
  facet normal 0.743143 0.669133 0
    outer loop
      vertex 18.1383 5.98629 -6
      vertex 18.418 5.67557 6
      vertex 18.418 5.67557 -6
    endloop
  endfacet
  facet normal -0.207911 -0.978148 0
    outer loop
      vertex 14.182 -6.40211 -6
      vertex 14.5909 -6.48904 6
      vertex 14.182 -6.40211 6
    endloop
  endfacet
  facet normal -0.207911 -0.978148 -0
    outer loop
      vertex 14.5909 -6.48904 6
      vertex 14.182 -6.40211 -6
      vertex 14.5909 -6.48904 -6
    endloop
  endfacet
  facet normal -0.406738 -0.913545 0
    outer loop
      vertex 13.8 -6.23205 -6
      vertex 14.182 -6.40211 6
      vertex 13.8 -6.23205 6
    endloop
  endfacet
  facet normal -0.406738 -0.913545 -0
    outer loop
      vertex 14.182 -6.40211 6
      vertex 13.8 -6.23205 -6
      vertex 14.182 -6.40211 -6
    endloop
  endfacet
  facet normal -0.866026 -0.499999 0
    outer loop
      vertex 13.182 -5.67557 -6
      vertex 12.9729 -5.31347 6
      vertex 12.9729 -5.31347 -6
    endloop
  endfacet
  facet normal -0.866026 -0.499999 0
    outer loop
      vertex 12.9729 -5.31347 6
      vertex 13.182 -5.67557 -6
      vertex 13.182 -5.67557 6
    endloop
  endfacet
  facet normal -0.951056 -0.309018 0
    outer loop
      vertex 12.9729 -5.31347 -6
      vertex 12.8437 -4.91582 6
      vertex 12.8437 -4.91582 -6
    endloop
  endfacet
  facet normal -0.951056 -0.309018 0
    outer loop
      vertex 12.8437 -4.91582 6
      vertex 12.9729 -5.31347 -6
      vertex 12.9729 -5.31347 6
    endloop
  endfacet
  facet normal -0.866026 0.499999 0
    outer loop
      vertex 12.9729 5.31347 -6
      vertex 13.182 5.67557 6
      vertex 13.182 5.67557 -6
    endloop
  endfacet
  facet normal -0.866026 0.499999 0
    outer loop
      vertex 13.182 5.67557 6
      vertex 12.9729 5.31347 -6
      vertex 12.9729 5.31347 6
    endloop
  endfacet
  facet normal -0.743144 0.669131 0
    outer loop
      vertex 13.182 5.67557 -6
      vertex 13.4617 5.98629 6
      vertex 13.4617 5.98629 -6
    endloop
  endfacet
  facet normal -0.743144 0.669131 0
    outer loop
      vertex 13.4617 5.98629 6
      vertex 13.182 5.67557 -6
      vertex 13.182 5.67557 6
    endloop
  endfacet
  facet normal -0.406738 0.913545 0
    outer loop
      vertex 14.182 6.40211 -6
      vertex 13.8 6.23205 6
      vertex 14.182 6.40211 6
    endloop
  endfacet
  facet normal -0.406738 0.913545 0
    outer loop
      vertex 13.8 6.23205 6
      vertex 14.182 6.40211 -6
      vertex 13.8 6.23205 -6
    endloop
  endfacet
  facet normal 0.587786 0.809017 -0
    outer loop
      vertex 18.1383 5.98629 -6
      vertex 17.8 6.23205 6
      vertex 18.1383 5.98629 6
    endloop
  endfacet
  facet normal 0.587786 0.809017 0
    outer loop
      vertex 17.8 6.23205 6
      vertex 18.1383 5.98629 -6
      vertex 17.8 6.23205 -6
    endloop
  endfacet
  facet normal 0.951057 0.309016 0
    outer loop
      vertex 18.7563 4.91582 6
      vertex 18.6271 5.31347 -6
      vertex 18.6271 5.31347 6
    endloop
  endfacet
  facet normal 0.951057 0.309016 0
    outer loop
      vertex 18.6271 5.31347 -6
      vertex 18.7563 4.91582 6
      vertex 18.7563 4.91582 -6
    endloop
  endfacet
endsolid OpenSCAD_Model
